%TF.GenerationSoftware,KiCad,Pcbnew,5.1.10-88a1d61d58~90~ubuntu20.04.1*%
%TF.CreationDate,2021-10-01T06:26:35-07:00*%
%TF.ProjectId,Moon_Addon,4d6f6f6e-5f41-4646-946f-6e2e6b696361,rev?*%
%TF.SameCoordinates,Original*%
%TF.FileFunction,Legend,Bot*%
%TF.FilePolarity,Positive*%
%FSLAX45Y45*%
G04 Gerber Fmt 4.5, Leading zero omitted, Abs format (unit mm)*
G04 Created by KiCad (PCBNEW 5.1.10-88a1d61d58~90~ubuntu20.04.1) date 2021-10-01 06:26:35*
%MOMM*%
%LPD*%
G01*
G04 APERTURE LIST*
%ADD10C,0.120000*%
%ADD11C,0.150000*%
G04 APERTURE END LIST*
D10*
%TO.C,R7*%
X11822290Y-9443828D02*
X11808256Y-9400638D01*
X11682484Y-9489253D02*
X11668451Y-9446063D01*
%TO.C,R8*%
X11101239Y-11576614D02*
X11137979Y-11549921D01*
X11014834Y-11457688D02*
X11051574Y-11430995D01*
%TO.C,R9*%
X8850021Y-11549921D02*
X8886761Y-11576614D01*
X8936426Y-11430995D02*
X8973166Y-11457688D01*
%TO.C,R10*%
X8179743Y-9400638D02*
X8165710Y-9443828D01*
X8319549Y-9446063D02*
X8305515Y-9489253D01*
%TO.C,R12*%
X10067706Y-11251500D02*
X10022294Y-11251500D01*
X10067706Y-11398500D02*
X10022294Y-11398500D01*
%TO.C,R6*%
X10016706Y-8099000D02*
X9971294Y-8099000D01*
X10016706Y-8246000D02*
X9971294Y-8246000D01*
%TO.C,Q2*%
X9907000Y-10834000D02*
X10000000Y-10834000D01*
X10223000Y-10834000D02*
X10130000Y-10834000D01*
X10223000Y-10834000D02*
X10223000Y-11050000D01*
X9907000Y-10834000D02*
X9907000Y-10980000D01*
%TO.C,D10*%
X7883613Y-9433440D02*
X7972765Y-9159060D01*
X7972765Y-9159060D02*
X8145857Y-9215301D01*
X8145857Y-9215301D02*
X8056705Y-9489681D01*
%TO.C,D9*%
X8789709Y-11841694D02*
X8556308Y-11672118D01*
X8556308Y-11672118D02*
X8663285Y-11524877D01*
X8663285Y-11524877D02*
X8896686Y-11694453D01*
%TO.C,D8*%
X11360094Y-11724137D02*
X11126693Y-11893713D01*
X11126693Y-11893713D02*
X11019716Y-11746472D01*
X11019716Y-11746472D02*
X11253117Y-11576896D01*
%TO.C,D7*%
X12042583Y-9243229D02*
X12131735Y-9517609D01*
X12131735Y-9517609D02*
X11958642Y-9573850D01*
X11958642Y-9573850D02*
X11869491Y-9299470D01*
%TO.C,D6*%
X9894000Y-7827500D02*
X10182500Y-7827500D01*
X10182500Y-7827500D02*
X10182500Y-8009500D01*
X10182500Y-8009500D02*
X9894000Y-8009500D01*
%TO.C,J1*%
X10433000Y-11813000D02*
X10433000Y-12333000D01*
X9919000Y-11813000D02*
X10433000Y-11813000D01*
X9659000Y-12333000D02*
X10433000Y-12333000D01*
X9919000Y-11813000D02*
X9919000Y-12073000D01*
X9919000Y-12073000D02*
X9659000Y-12073000D01*
X9659000Y-12073000D02*
X9659000Y-12333000D01*
X9792000Y-11813000D02*
X9659000Y-11813000D01*
X9659000Y-11813000D02*
X9659000Y-11946000D01*
%TO.C,R12*%
D11*
X10109286Y-11205238D02*
X10142619Y-11157619D01*
X10166429Y-11205238D02*
X10166429Y-11105238D01*
X10128333Y-11105238D01*
X10118810Y-11110000D01*
X10114048Y-11114762D01*
X10109286Y-11124286D01*
X10109286Y-11138571D01*
X10114048Y-11148095D01*
X10118810Y-11152857D01*
X10128333Y-11157619D01*
X10166429Y-11157619D01*
X10014048Y-11205238D02*
X10071190Y-11205238D01*
X10042619Y-11205238D02*
X10042619Y-11105238D01*
X10052143Y-11119524D01*
X10061667Y-11129048D01*
X10071190Y-11133810D01*
X9975952Y-11114762D02*
X9971190Y-11110000D01*
X9961667Y-11105238D01*
X9937857Y-11105238D01*
X9928333Y-11110000D01*
X9923571Y-11114762D01*
X9918810Y-11124286D01*
X9918810Y-11133810D01*
X9923571Y-11148095D01*
X9980714Y-11205238D01*
X9918810Y-11205238D01*
%TO.C,Q2*%
X10369762Y-10900476D02*
X10365000Y-10890952D01*
X10355476Y-10881429D01*
X10341190Y-10867143D01*
X10336429Y-10857619D01*
X10336429Y-10848095D01*
X10360238Y-10852857D02*
X10355476Y-10843333D01*
X10345952Y-10833810D01*
X10326905Y-10829048D01*
X10293571Y-10829048D01*
X10274524Y-10833810D01*
X10265000Y-10843333D01*
X10260238Y-10852857D01*
X10260238Y-10871905D01*
X10265000Y-10881429D01*
X10274524Y-10890952D01*
X10293571Y-10895714D01*
X10326905Y-10895714D01*
X10345952Y-10890952D01*
X10355476Y-10881429D01*
X10360238Y-10871905D01*
X10360238Y-10852857D01*
X10269762Y-10933810D02*
X10265000Y-10938571D01*
X10260238Y-10948095D01*
X10260238Y-10971905D01*
X10265000Y-10981429D01*
X10269762Y-10986190D01*
X10279286Y-10990952D01*
X10288810Y-10990952D01*
X10303095Y-10986190D01*
X10360238Y-10929048D01*
X10360238Y-10990952D01*
%TO.C,J1*%
X9504238Y-12039667D02*
X9575667Y-12039667D01*
X9589952Y-12034905D01*
X9599476Y-12025381D01*
X9604238Y-12011095D01*
X9604238Y-12001571D01*
X9604238Y-12139667D02*
X9604238Y-12082524D01*
X9604238Y-12111095D02*
X9504238Y-12111095D01*
X9518524Y-12101571D01*
X9528048Y-12092048D01*
X9532810Y-12082524D01*
%TD*%
M02*
