M48
; DRILL file {KiCad (5.1.10-1-10_14)} date Friday, October 01, 2021 at 04:25:34 PM
; FORMAT={-:-/ absolute / inch / decimal}
; #@! TF.CreationDate,2021-10-01T16:25:34+02:00
; #@! TF.GenerationSoftware,Kicad,Pcbnew,(5.1.10-1-10_14)
; #@! TF.FileFunction,Plated,1,2,PTH
FMAT,2
INCH
T1C0.0157
T2C0.0236
T3C0.0394
T4C0.1693
%
G90
G05
T1
X3.189Y-6.2638
X5.6614Y-6.0236
X5.7441Y-6.2992
X6.7126Y-3.6732
X6.9357Y-3.6929
X7.0512Y-3.9449
X7.0984Y-3.9449
X7.1024Y-3.8858
T2
X2.1959Y-2.0472
X2.1959Y-5.8268
X2.2331Y-1.9575
X2.2331Y-2.137
X2.2331Y-5.737
X2.2331Y-5.9166
X2.3228Y-1.9203
X2.3228Y-2.1742
X2.3228Y-5.6998
X2.3228Y-5.9537
X2.4126Y-1.9575
X2.4126Y-2.137
X2.4126Y-5.737
X2.4126Y-5.9166
X2.4498Y-2.0472
X2.4498Y-5.8268
X5.9754Y-2.0472
X5.9754Y-5.8268
X6.0126Y-1.9575
X6.0126Y-2.137
X6.0126Y-5.737
X6.0126Y-5.9166
X6.1024Y-1.9203
X6.1024Y-2.1742
X6.1024Y-5.6998
X6.1024Y-5.9537
X6.1921Y-1.9575
X6.1921Y-2.137
X6.1921Y-5.737
X6.1921Y-5.9166
X6.2293Y-2.0472
X6.2293Y-5.8268
T3
X1.3661Y-3.6299
X1.3835Y-3.5314
X1.4009Y-3.433
X1.4182Y-3.3345
X1.5621Y-2.8465
X1.6043Y-2.7559
X1.6466Y-2.6653
X1.6889Y-2.5746
X3.8591Y-3.3661
X3.8591Y-3.4661
X3.9591Y-3.3661
X3.9591Y-3.4661
X4.0581Y-6.4685
X4.0591Y-3.3661
X4.0591Y-3.4661
X4.1581Y-6.4685
X4.1591Y-3.3661
X4.1591Y-3.4661
X4.2581Y-6.4685
X4.2591Y-3.3661
X4.2591Y-3.4661
X4.3581Y-6.4685
X4.3591Y-3.3661
X4.3591Y-3.4661
X4.4591Y-3.3661
X4.4591Y-3.4661
X4.5591Y-3.3661
X4.5591Y-3.4661
X6.5864Y-2.3446
X6.6318Y-2.4337
X6.6772Y-2.5228
X6.7226Y-2.6119
X6.768Y-2.701
X6.8134Y-2.7901
X6.8588Y-2.8792
X6.9042Y-2.9683
T4
X2.3228Y-2.0472
X2.3228Y-5.8268
X6.1024Y-2.0472
X6.1024Y-5.8268
T2
G00X4.0386Y-1.0886
M15
G01X4.0386Y-1.1122
M16
G05
G00X4.0386Y-1.2433
M15
G01X4.0386Y-1.2866
M16
G05
G00X4.3787Y-1.0886
M15
G01X4.3787Y-1.1122
M16
G05
G00X4.3787Y-1.2433
M15
G01X4.3787Y-1.2866
M16
G05
T0
M30
