%TF.GenerationSoftware,KiCad,Pcbnew,(5.1.10-1-10_14)*%
%TF.CreationDate,2021-10-01T16:25:32+02:00*%
%TF.ProjectId,Launchpad,4c61756e-6368-4706-9164-2e6b69636164,rev?*%
%TF.SameCoordinates,Original*%
%TF.FileFunction,Copper,L2,Bot*%
%TF.FilePolarity,Positive*%
%FSLAX46Y46*%
G04 Gerber Fmt 4.6, Leading zero omitted, Abs format (unit mm)*
G04 Created by KiCad (PCBNEW (5.1.10-1-10_14)) date 2021-10-01 16:25:32*
%MOMM*%
%LPD*%
G01*
G04 APERTURE LIST*
%TA.AperFunction,SMDPad,CuDef*%
%ADD10C,0.100000*%
%TD*%
%TA.AperFunction,SMDPad,CuDef*%
%ADD11R,1.600000X0.400000*%
%TD*%
%TA.AperFunction,SMDPad,CuDef*%
%ADD12R,4.000000X0.800000*%
%TD*%
%TA.AperFunction,ComponentPad*%
%ADD13C,0.100000*%
%TD*%
%TA.AperFunction,ComponentPad*%
%ADD14O,1.700000X1.700000*%
%TD*%
%TA.AperFunction,ComponentPad*%
%ADD15R,1.700000X1.700000*%
%TD*%
%TA.AperFunction,ComponentPad*%
%ADD16C,0.900000*%
%TD*%
%TA.AperFunction,ComponentPad*%
%ADD17C,8.600000*%
%TD*%
%TA.AperFunction,ComponentPad*%
%ADD18O,1.000000X1.600000*%
%TD*%
%TA.AperFunction,ComponentPad*%
%ADD19O,1.000000X2.100000*%
%TD*%
%TA.AperFunction,SMDPad,CuDef*%
%ADD20R,0.300000X1.450000*%
%TD*%
%TA.AperFunction,SMDPad,CuDef*%
%ADD21R,0.600000X1.450000*%
%TD*%
%TA.AperFunction,ViaPad*%
%ADD22C,0.800000*%
%TD*%
%TA.AperFunction,Conductor*%
%ADD23C,0.600000*%
%TD*%
%TA.AperFunction,Conductor*%
%ADD24C,0.400000*%
%TD*%
%TA.AperFunction,Conductor*%
%ADD25C,0.300000*%
%TD*%
%TA.AperFunction,Conductor*%
%ADD26C,0.254000*%
%TD*%
%TA.AperFunction,Conductor*%
%ADD27C,0.100000*%
%TD*%
G04 APERTURE END LIST*
%TA.AperFunction,SMDPad,CuDef*%
D10*
%TO.P,J3,1*%
%TO.N,/I2C_SCL*%
G36*
X137317014Y-157909407D02*
G01*
X138009834Y-157509407D01*
X139509834Y-160107483D01*
X138817014Y-160507483D01*
X137317014Y-157909407D01*
G37*
%TD.AperFunction*%
%TA.AperFunction,SMDPad,CuDef*%
%TO.P,J3,2*%
%TO.N,/I2C_SDA*%
G36*
X139048699Y-156910773D02*
G01*
X139741519Y-156510773D01*
X141241519Y-159108849D01*
X140548699Y-159508849D01*
X139048699Y-156910773D01*
G37*
%TD.AperFunction*%
%TA.AperFunction,SMDPad,CuDef*%
%TO.P,J3,6*%
%TO.N,N/C*%
G36*
X137593913Y-164105011D02*
G01*
X138892951Y-163355011D01*
X140642951Y-166386099D01*
X139343913Y-167136099D01*
X137593913Y-164105011D01*
G37*
%TD.AperFunction*%
%TA.AperFunction,SMDPad,CuDef*%
%TO.P,J3,5*%
G36*
X147134049Y-158597011D02*
G01*
X148433087Y-157847011D01*
X150183087Y-160878099D01*
X148884049Y-161628099D01*
X147134049Y-158597011D01*
G37*
%TD.AperFunction*%
%TA.AperFunction,SMDPad,CuDef*%
%TO.P,J3,3*%
%TO.N,VEXT*%
G36*
X140777053Y-155916371D02*
G01*
X141469873Y-155516371D01*
X142969873Y-158114447D01*
X142277053Y-158514447D01*
X140777053Y-155916371D01*
G37*
%TD.AperFunction*%
%TA.AperFunction,SMDPad,CuDef*%
%TO.P,J3,4*%
%TO.N,GND*%
G36*
X142507604Y-154913773D02*
G01*
X143200424Y-154513773D01*
X144700424Y-157111849D01*
X144007604Y-157511849D01*
X142507604Y-154913773D01*
G37*
%TD.AperFunction*%
%TD*%
%TA.AperFunction,SMDPad,CuDef*%
%TO.P,J4,3*%
%TO.N,/STEMMA_SIG*%
G36*
X76237373Y-157663693D02*
G01*
X76930193Y-158063693D01*
X75430193Y-160661769D01*
X74737373Y-160261769D01*
X76237373Y-157663693D01*
G37*
%TD.AperFunction*%
%TA.AperFunction,SMDPad,CuDef*%
%TO.P,J4,5*%
%TO.N,N/C*%
G36*
X75452499Y-163619135D02*
G01*
X76491729Y-164219135D01*
X74741729Y-167250223D01*
X73702499Y-166650223D01*
X75452499Y-163619135D01*
G37*
%TD.AperFunction*%
%TA.AperFunction,SMDPad,CuDef*%
%TO.P,J4,4*%
G36*
X67658271Y-159119135D02*
G01*
X68697501Y-159719135D01*
X66947501Y-162750223D01*
X65908271Y-162150223D01*
X67658271Y-159119135D01*
G37*
%TD.AperFunction*%
%TA.AperFunction,SMDPad,CuDef*%
%TO.P,J4,2*%
%TO.N,VEXT*%
G36*
X74506188Y-156664193D02*
G01*
X75199008Y-157064193D01*
X73699008Y-159662269D01*
X73006188Y-159262269D01*
X74506188Y-156664193D01*
G37*
%TD.AperFunction*%
%TA.AperFunction,SMDPad,CuDef*%
%TO.P,J4,1*%
%TO.N,GND*%
G36*
X72773271Y-155663693D02*
G01*
X73466091Y-156063693D01*
X71966091Y-158661769D01*
X71273271Y-158261769D01*
X72773271Y-155663693D01*
G37*
%TD.AperFunction*%
%TD*%
D11*
%TO.P,J5,1*%
%TO.N,GND*%
X177351000Y-98702000D03*
%TO.P,J5,2*%
%TO.N,VEXT*%
X177351000Y-99702000D03*
%TO.P,J5,3*%
%TO.N,/I2C_SDA*%
X177351000Y-100702000D03*
%TO.P,J5,4*%
%TO.N,/I2C_SCL*%
X177351000Y-101702000D03*
D12*
%TO.P,J5,0*%
%TO.N,N/C*%
X179349000Y-97400000D03*
X179349000Y-103000000D03*
%TD*%
%TO.P,J8,4*%
%TO.N,/I2C_SDA*%
%TA.AperFunction,ComponentPad*%
G36*
G01*
X38906188Y-71942795D02*
X38906188Y-71942795D01*
G75*
G02*
X40035776Y-71531659I770362J-359226D01*
G01*
X40035776Y-71531659D01*
G75*
G02*
X40446912Y-72661247I-359226J-770362D01*
G01*
X40446912Y-72661247D01*
G75*
G02*
X39317324Y-73072383I-770362J359226D01*
G01*
X39317324Y-73072383D01*
G75*
G02*
X38906188Y-71942795I359226J770362D01*
G01*
G37*
%TD.AperFunction*%
%TO.P,J8,3*%
%TO.N,/I2C_SCL*%
%TA.AperFunction,ComponentPad*%
G36*
G01*
X39979638Y-69640774D02*
X39979638Y-69640774D01*
G75*
G02*
X41109226Y-69229638I770362J-359226D01*
G01*
X41109226Y-69229638D01*
G75*
G02*
X41520362Y-70359226I-359226J-770362D01*
G01*
X41520362Y-70359226D01*
G75*
G02*
X40390774Y-70770362I-770362J359226D01*
G01*
X40390774Y-70770362D01*
G75*
G02*
X39979638Y-69640774I359226J770362D01*
G01*
G37*
%TD.AperFunction*%
%TO.P,J8,2*%
%TO.N,GND*%
%TA.AperFunction,ComponentPad*%
G36*
G01*
X41053089Y-67338752D02*
X41053089Y-67338752D01*
G75*
G02*
X42182677Y-66927616I770362J-359226D01*
G01*
X42182677Y-66927616D01*
G75*
G02*
X42593813Y-68057204I-359226J-770362D01*
G01*
X42593813Y-68057204D01*
G75*
G02*
X41464225Y-68468340I-770362J359226D01*
G01*
X41464225Y-68468340D01*
G75*
G02*
X41053089Y-67338752I359226J770362D01*
G01*
G37*
%TD.AperFunction*%
%TA.AperFunction,ComponentPad*%
D13*
%TO.P,J8,1*%
%TO.N,VEXT*%
G36*
X41767314Y-65807092D02*
G01*
X42485765Y-64266369D01*
X44026488Y-64984820D01*
X43308037Y-66525543D01*
X41767314Y-65807092D01*
G37*
%TD.AperFunction*%
%TD*%
D14*
%TO.P,J6,4*%
%TO.N,/I2C_SDA*%
X110695000Y-164300000D03*
%TO.P,J6,3*%
%TO.N,/I2C_SCL*%
X108155000Y-164300000D03*
%TO.P,J6,2*%
%TO.N,GND*%
X105615000Y-164300000D03*
D15*
%TO.P,J6,1*%
%TO.N,VEXT*%
X103075000Y-164300000D03*
%TD*%
%TO.P,J2,1*%
%TO.N,VBUS*%
X98020000Y-88040000D03*
D14*
%TO.P,J2,2*%
%TO.N,GND*%
X98020000Y-85500000D03*
%TO.P,J2,3*%
%TO.N,VEXT*%
X100560000Y-88040000D03*
%TO.P,J2,4*%
%TO.N,N/C*%
X100560000Y-85500000D03*
%TO.P,J2,5*%
X103100000Y-88040000D03*
%TO.P,J2,6*%
X103100000Y-85500000D03*
%TO.P,J2,7*%
X105640000Y-88040000D03*
%TO.P,J2,8*%
X105640000Y-85500000D03*
%TO.P,J2,9*%
X108180000Y-88040000D03*
%TO.P,J2,10*%
%TO.N,/I2C_SCL*%
X108180000Y-85500000D03*
%TO.P,J2,11*%
%TO.N,N/C*%
X110720000Y-88040000D03*
%TO.P,J2,12*%
%TO.N,/I2C_SDA*%
X110720000Y-85500000D03*
%TO.P,J2,13*%
%TO.N,/STEMMA_SIG*%
X113260000Y-88040000D03*
%TO.P,J2,14*%
%TO.N,N/C*%
X113260000Y-85500000D03*
%TO.P,J2,15*%
X115800000Y-88040000D03*
%TO.P,J2,16*%
%TO.N,GND*%
X115800000Y-85500000D03*
%TD*%
%TO.P,J9,4*%
%TO.N,/I2C_SDA*%
%TA.AperFunction,ComponentPad*%
G36*
G01*
X36860286Y-84843366D02*
X36860286Y-84843366D01*
G75*
G02*
X35875598Y-85532852I-837087J147601D01*
G01*
X35875598Y-85532852D01*
G75*
G02*
X35186112Y-84548164I147601J837087D01*
G01*
X35186112Y-84548164D01*
G75*
G02*
X36170800Y-83858678I837087J-147601D01*
G01*
X36170800Y-83858678D01*
G75*
G02*
X36860286Y-84843366I-147601J-837087D01*
G01*
G37*
%TD.AperFunction*%
%TO.P,J9,3*%
%TO.N,/I2C_SCL*%
%TA.AperFunction,ComponentPad*%
G36*
G01*
X36419220Y-87344778D02*
X36419220Y-87344778D01*
G75*
G02*
X35434532Y-88034264I-837087J147601D01*
G01*
X35434532Y-88034264D01*
G75*
G02*
X34745046Y-87049576I147601J837087D01*
G01*
X34745046Y-87049576D01*
G75*
G02*
X35729734Y-86360090I837087J-147601D01*
G01*
X35729734Y-86360090D01*
G75*
G02*
X36419220Y-87344778I-147601J-837087D01*
G01*
G37*
%TD.AperFunction*%
%TO.P,J9,2*%
%TO.N,GND*%
%TA.AperFunction,ComponentPad*%
G36*
G01*
X35978153Y-89846189D02*
X35978153Y-89846189D01*
G75*
G02*
X34993465Y-90535675I-837087J147601D01*
G01*
X34993465Y-90535675D01*
G75*
G02*
X34303979Y-89550987I147601J837087D01*
G01*
X34303979Y-89550987D01*
G75*
G02*
X35288667Y-88861501I837087J-147601D01*
G01*
X35288667Y-88861501D01*
G75*
G02*
X35978153Y-89846189I-147601J-837087D01*
G01*
G37*
%TD.AperFunction*%
%TA.AperFunction,ComponentPad*%
D13*
%TO.P,J9,1*%
%TO.N,VEXT*%
G36*
X35684688Y-91510514D02*
G01*
X35389486Y-93184688D01*
X33715312Y-92889486D01*
X34010514Y-91215312D01*
X35684688Y-91510514D01*
G37*
%TD.AperFunction*%
%TD*%
D16*
%TO.P,H4,1*%
%TO.N,GND*%
X61280419Y-145719581D03*
X59000000Y-144775000D03*
X56719581Y-145719581D03*
X55775000Y-148000000D03*
X56719581Y-150280419D03*
X59000000Y-151225000D03*
X61280419Y-150280419D03*
X62225000Y-148000000D03*
D17*
X59000000Y-148000000D03*
%TD*%
D16*
%TO.P,H3,1*%
%TO.N,GND*%
X157280419Y-145719581D03*
X155000000Y-144775000D03*
X152719581Y-145719581D03*
X151775000Y-148000000D03*
X152719581Y-150280419D03*
X155000000Y-151225000D03*
X157280419Y-150280419D03*
X158225000Y-148000000D03*
D17*
X155000000Y-148000000D03*
%TD*%
D18*
%TO.P,J1,S1*%
%TO.N,GND*%
X111220000Y-27950000D03*
X102580000Y-27950000D03*
D19*
X102580000Y-32130000D03*
X111220000Y-32130000D03*
D20*
%TO.P,J1,A6*%
%TO.N,N/C*%
X106650000Y-33045000D03*
%TO.P,J1,B5*%
X108650000Y-33045000D03*
%TO.P,J1,A8*%
X108150000Y-33045000D03*
%TO.P,J1,B6*%
X107650000Y-33045000D03*
%TO.P,J1,A7*%
X107150000Y-33045000D03*
%TO.P,J1,B7*%
X106150000Y-33045000D03*
%TO.P,J1,A5*%
X105650000Y-33045000D03*
%TO.P,J1,B8*%
X105150000Y-33045000D03*
D21*
%TO.P,J1,A12*%
%TO.N,GND*%
X110150000Y-33045000D03*
%TO.P,J1,B4*%
%TO.N,VBUS*%
X109350000Y-33045000D03*
%TO.P,J1,A4*%
X104450000Y-33045000D03*
%TO.P,J1,A1*%
%TO.N,GND*%
X103650000Y-33045000D03*
%TO.P,J1,B12*%
X103650000Y-33045000D03*
%TO.P,J1,B9*%
%TO.N,VBUS*%
X104450000Y-33045000D03*
%TO.P,J1,A9*%
X109350000Y-33045000D03*
%TO.P,J1,B1*%
%TO.N,GND*%
X110150000Y-33045000D03*
%TD*%
%TO.P,J7,8*%
%TO.N,VEXT*%
%TA.AperFunction,ComponentPad*%
G36*
G01*
X174609529Y-75781341D02*
X174609529Y-75781341D01*
G75*
G02*
X174980993Y-74638093I757356J385892D01*
G01*
X174980993Y-74638093D01*
G75*
G02*
X176124241Y-75009557I385892J-757356D01*
G01*
X176124241Y-75009557D01*
G75*
G02*
X175752777Y-76152805I-757356J-385892D01*
G01*
X175752777Y-76152805D01*
G75*
G02*
X174609529Y-75781341I-385892J757356D01*
G01*
G37*
%TD.AperFunction*%
%TO.P,J7,7*%
%TO.N,GND*%
%TA.AperFunction,ComponentPad*%
G36*
G01*
X173456393Y-73518184D02*
X173456393Y-73518184D01*
G75*
G02*
X173827857Y-72374936I757356J385892D01*
G01*
X173827857Y-72374936D01*
G75*
G02*
X174971105Y-72746400I385892J-757356D01*
G01*
X174971105Y-72746400D01*
G75*
G02*
X174599641Y-73889648I-757356J-385892D01*
G01*
X174599641Y-73889648D01*
G75*
G02*
X173456393Y-73518184I-385892J757356D01*
G01*
G37*
%TD.AperFunction*%
%TO.P,J7,6*%
%TO.N,/I2C_SCL*%
%TA.AperFunction,ComponentPad*%
G36*
G01*
X172303257Y-71255028D02*
X172303257Y-71255028D01*
G75*
G02*
X172674721Y-70111780I757356J385892D01*
G01*
X172674721Y-70111780D01*
G75*
G02*
X173817969Y-70483244I385892J-757356D01*
G01*
X173817969Y-70483244D01*
G75*
G02*
X173446505Y-71626492I-757356J-385892D01*
G01*
X173446505Y-71626492D01*
G75*
G02*
X172303257Y-71255028I-385892J757356D01*
G01*
G37*
%TD.AperFunction*%
%TO.P,J7,5*%
%TO.N,/I2C_SDA*%
%TA.AperFunction,ComponentPad*%
G36*
G01*
X171150121Y-68991871D02*
X171150121Y-68991871D01*
G75*
G02*
X171521585Y-67848623I757356J385892D01*
G01*
X171521585Y-67848623D01*
G75*
G02*
X172664833Y-68220087I385892J-757356D01*
G01*
X172664833Y-68220087D01*
G75*
G02*
X172293369Y-69363335I-757356J-385892D01*
G01*
X172293369Y-69363335D01*
G75*
G02*
X171150121Y-68991871I-385892J757356D01*
G01*
G37*
%TD.AperFunction*%
%TO.P,J7,4*%
%TO.N,N/C*%
%TA.AperFunction,ComponentPad*%
G36*
G01*
X169996986Y-66728715D02*
X169996986Y-66728715D01*
G75*
G02*
X170368450Y-65585467I757356J385892D01*
G01*
X170368450Y-65585467D01*
G75*
G02*
X171511698Y-65956931I385892J-757356D01*
G01*
X171511698Y-65956931D01*
G75*
G02*
X171140234Y-67100179I-757356J-385892D01*
G01*
X171140234Y-67100179D01*
G75*
G02*
X169996986Y-66728715I-385892J757356D01*
G01*
G37*
%TD.AperFunction*%
%TO.P,J7,3*%
%TA.AperFunction,ComponentPad*%
G36*
G01*
X168843850Y-64465558D02*
X168843850Y-64465558D01*
G75*
G02*
X169215314Y-63322310I757356J385892D01*
G01*
X169215314Y-63322310D01*
G75*
G02*
X170358562Y-63693774I385892J-757356D01*
G01*
X170358562Y-63693774D01*
G75*
G02*
X169987098Y-64837022I-757356J-385892D01*
G01*
X169987098Y-64837022D01*
G75*
G02*
X168843850Y-64465558I-385892J757356D01*
G01*
G37*
%TD.AperFunction*%
%TO.P,J7,2*%
%TA.AperFunction,ComponentPad*%
G36*
G01*
X167690714Y-62202402D02*
X167690714Y-62202402D01*
G75*
G02*
X168062178Y-61059154I757356J385892D01*
G01*
X168062178Y-61059154D01*
G75*
G02*
X169205426Y-61430618I385892J-757356D01*
G01*
X169205426Y-61430618D01*
G75*
G02*
X168833962Y-62573866I-757356J-385892D01*
G01*
X168833962Y-62573866D01*
G75*
G02*
X167690714Y-62202402I-385892J757356D01*
G01*
G37*
%TD.AperFunction*%
%TA.AperFunction,ComponentPad*%
D13*
%TO.P,J7,1*%
G36*
X166923470Y-60696600D02*
G01*
X166151687Y-59181889D01*
X167666398Y-58410106D01*
X168438181Y-59924817D01*
X166923470Y-60696600D01*
G37*
%TD.AperFunction*%
%TD*%
D16*
%TO.P,H2,1*%
%TO.N,GND*%
X157280419Y-49719581D03*
X155000000Y-48775000D03*
X152719581Y-49719581D03*
X151775000Y-52000000D03*
X152719581Y-54280419D03*
X155000000Y-55225000D03*
X157280419Y-54280419D03*
X158225000Y-52000000D03*
D17*
X155000000Y-52000000D03*
%TD*%
D16*
%TO.P,H1,1*%
%TO.N,GND*%
X61280419Y-49719581D03*
X59000000Y-48775000D03*
X56719581Y-49719581D03*
X55775000Y-52000000D03*
X56719581Y-54280419D03*
X59000000Y-55225000D03*
X61280419Y-54280419D03*
X62225000Y-52000000D03*
D17*
X59000000Y-52000000D03*
%TD*%
D22*
%TO.N,GND*%
X176166885Y-93800000D03*
X170500000Y-93300000D03*
X180400000Y-98700000D03*
X143800000Y-153000000D03*
X145900000Y-160000000D03*
%TO.N,/I2C_SDA*%
X179100000Y-100200000D03*
%TO.N,/I2C_SCL*%
X180300000Y-100200000D03*
%TO.N,/STEMMA_SIG*%
X81000000Y-159100000D03*
%TD*%
D23*
%TO.N,GND*%
X102735000Y-32130000D02*
X103650000Y-33045000D01*
X102580000Y-32130000D02*
X102735000Y-32130000D01*
X110305000Y-33045000D02*
X111220000Y-32130000D01*
X110150000Y-33045000D02*
X110305000Y-33045000D01*
D24*
X177351000Y-98702000D02*
X176702000Y-98702000D01*
X176166885Y-98166885D02*
X176166885Y-93800000D01*
X176702000Y-98702000D02*
X176166885Y-98166885D01*
X180398000Y-98702000D02*
X180400000Y-98700000D01*
X177351000Y-98702000D02*
X180398000Y-98702000D01*
D25*
%TO.N,/I2C_SDA*%
X137400000Y-156900000D02*
X139035298Y-156900000D01*
X136500000Y-157800000D02*
X137400000Y-156900000D01*
X136500000Y-160200000D02*
X136500000Y-157800000D01*
X139035298Y-156900000D02*
X140145109Y-158009811D01*
X131500000Y-165200000D02*
X136500000Y-160200000D01*
X111595000Y-165200000D02*
X131500000Y-165200000D01*
X110695000Y-164300000D02*
X111595000Y-165200000D01*
X178598000Y-100702000D02*
X179100000Y-100200000D01*
X177351000Y-100702000D02*
X178598000Y-100702000D01*
X140999755Y-158864457D02*
X143935543Y-158864457D01*
X140145109Y-158009811D02*
X140999755Y-158864457D01*
X145302999Y-157497001D02*
X145302999Y-147297001D01*
X143935543Y-158864457D02*
X145302999Y-157497001D01*
X145302999Y-147297001D02*
X173400000Y-119200000D01*
X176720998Y-100702000D02*
X177351000Y-100702000D01*
X173400000Y-104022998D02*
X176720998Y-100702000D01*
X173400000Y-119200000D02*
X173400000Y-104022998D01*
%TO.N,/I2C_SCL*%
X109355001Y-165500001D02*
X109355001Y-165505001D01*
X108155000Y-164300000D02*
X109355001Y-165500001D01*
X109355001Y-165505001D02*
X109550000Y-165700000D01*
X131721869Y-165700000D02*
X138413424Y-159008445D01*
X109550000Y-165700000D02*
X131721869Y-165700000D01*
X178798000Y-101702000D02*
X177351000Y-101702000D01*
X180300000Y-100200000D02*
X178798000Y-101702000D01*
X139263838Y-159858859D02*
X138413424Y-159008445D01*
X143648261Y-159858859D02*
X139263838Y-159858859D01*
X145803009Y-157704111D02*
X143648261Y-159858859D01*
X145803009Y-147504111D02*
X145803009Y-157704111D01*
X173900010Y-104230108D02*
X173900010Y-119407110D01*
X173900010Y-119407110D02*
X145803009Y-147504111D01*
X176428118Y-101702000D02*
X173900010Y-104230108D01*
X177351000Y-101702000D02*
X176428118Y-101702000D01*
D24*
%TO.N,VBUS*%
X98020000Y-88040000D02*
X98020000Y-87280000D01*
X98020000Y-87280000D02*
X99300000Y-86000000D01*
X104450000Y-34170000D02*
X104450000Y-33045000D01*
X99300000Y-39320000D02*
X104450000Y-34170000D01*
X99300000Y-86000000D02*
X99300000Y-39320000D01*
X104450000Y-32233002D02*
X104883002Y-31800000D01*
X104450000Y-33045000D02*
X104450000Y-32233002D01*
X109350000Y-32233002D02*
X109350000Y-33045000D01*
X108916998Y-31800000D02*
X109350000Y-32233002D01*
X104883002Y-31800000D02*
X108916998Y-31800000D01*
D25*
%TO.N,/STEMMA_SIG*%
X80937269Y-159162731D02*
X81000000Y-159100000D01*
X75833783Y-159162731D02*
X80937269Y-159162731D01*
D24*
%TO.N,VEXT*%
X100560000Y-88040000D02*
X99000000Y-89600000D01*
X99000000Y-89600000D02*
X96800000Y-89600000D01*
X72595956Y-65395956D02*
X42896901Y-65395956D01*
X96800000Y-89600000D02*
X72595956Y-65395956D01*
X35325010Y-91574990D02*
X34700000Y-92200000D01*
X100560000Y-88040000D02*
X97025010Y-91574990D01*
X161062334Y-89700000D02*
X175366885Y-75395449D01*
X102220000Y-89700000D02*
X161062334Y-89700000D01*
X100560000Y-88040000D02*
X102220000Y-89700000D01*
X176602000Y-99702000D02*
X177351000Y-99702000D01*
X175366885Y-98466885D02*
X176602000Y-99702000D01*
X175366885Y-75395449D02*
X175366885Y-98466885D01*
X97025010Y-91574990D02*
X83374990Y-91574990D01*
X83374990Y-91574990D02*
X35325010Y-91574990D01*
X75300000Y-99500000D02*
X75300000Y-156965829D01*
X75300000Y-156965829D02*
X74102598Y-158163231D01*
X83225010Y-91574990D02*
X75300000Y-99500000D01*
X83374990Y-91574990D02*
X83225010Y-91574990D01*
X141873463Y-157015409D02*
X140968817Y-156110763D01*
X96038683Y-157263683D02*
X96387500Y-157612500D01*
X74202147Y-157263683D02*
X96038683Y-157263683D01*
X74102598Y-157363232D02*
X74202147Y-157263683D01*
X74102598Y-158163231D02*
X74102598Y-157363232D01*
X96387500Y-157612500D02*
X103075000Y-164300000D01*
X103075000Y-164300000D02*
X105175000Y-162200000D01*
X130900000Y-162200000D02*
X136989237Y-156110763D01*
X105175000Y-162200000D02*
X130900000Y-162200000D01*
X140968817Y-156110763D02*
X136989237Y-156110763D01*
%TD*%
D26*
%TO.N,GND*%
X74738579Y-98880554D02*
X74706709Y-98906709D01*
X74616261Y-99016921D01*
X74602364Y-99033855D01*
X74524828Y-99178914D01*
X74477082Y-99336312D01*
X74460960Y-99500000D01*
X74465000Y-99541018D01*
X74465001Y-156027505D01*
X74464456Y-156027487D01*
X74341043Y-156047863D01*
X74223976Y-156091924D01*
X74117754Y-156157976D01*
X74090102Y-156183876D01*
X74098705Y-156146978D01*
X74102797Y-156021961D01*
X74082421Y-155898548D01*
X74038360Y-155781481D01*
X73972308Y-155675259D01*
X73886802Y-155583965D01*
X73785127Y-155511106D01*
X73684648Y-155456642D01*
X73467791Y-155514748D01*
X72543166Y-157116246D01*
X72560487Y-157126246D01*
X72433487Y-157346216D01*
X72416166Y-157336216D01*
X71491541Y-158937714D01*
X71549648Y-159154570D01*
X71647055Y-159214356D01*
X71760990Y-159265979D01*
X71882806Y-159294383D01*
X72007823Y-159298475D01*
X72131236Y-159278099D01*
X72248303Y-159234038D01*
X72354525Y-159167986D01*
X72382178Y-159142086D01*
X72373575Y-159178984D01*
X72369482Y-159304001D01*
X72389858Y-159427414D01*
X72433919Y-159544481D01*
X72499971Y-159650703D01*
X72585478Y-159741997D01*
X72687152Y-159814855D01*
X73379972Y-160214855D01*
X73493906Y-160266479D01*
X73615723Y-160294882D01*
X73740740Y-160298975D01*
X73864153Y-160278599D01*
X73981220Y-160234538D01*
X74087442Y-160168486D01*
X74112581Y-160144940D01*
X74104760Y-160178484D01*
X74100667Y-160303501D01*
X74121043Y-160426914D01*
X74165104Y-160543981D01*
X74231156Y-160650203D01*
X74316663Y-160741497D01*
X74418337Y-160814355D01*
X75111157Y-161214355D01*
X75225091Y-161265979D01*
X75346908Y-161294382D01*
X75471925Y-161298475D01*
X75595338Y-161278099D01*
X75712405Y-161234038D01*
X75818627Y-161167986D01*
X75909921Y-161082479D01*
X75982780Y-160980805D01*
X76579226Y-159947731D01*
X80405769Y-159947731D01*
X80509744Y-160017205D01*
X80698102Y-160095226D01*
X80898061Y-160135000D01*
X81101939Y-160135000D01*
X81301898Y-160095226D01*
X81490256Y-160017205D01*
X81659774Y-159903937D01*
X81803937Y-159759774D01*
X81917205Y-159590256D01*
X81995226Y-159401898D01*
X82035000Y-159201939D01*
X82035000Y-158998061D01*
X81995226Y-158798102D01*
X81917205Y-158609744D01*
X81803937Y-158440226D01*
X81659774Y-158296063D01*
X81490256Y-158182795D01*
X81301898Y-158104774D01*
X81271276Y-158098683D01*
X95692815Y-158098683D01*
X95826071Y-158231939D01*
X95826077Y-158231944D01*
X101586928Y-163992796D01*
X101586928Y-165150000D01*
X101599188Y-165274482D01*
X101635498Y-165394180D01*
X101694463Y-165504494D01*
X101773815Y-165601185D01*
X101870506Y-165680537D01*
X101980820Y-165739502D01*
X102100518Y-165775812D01*
X102225000Y-165788072D01*
X103925000Y-165788072D01*
X104049482Y-165775812D01*
X104169180Y-165739502D01*
X104279494Y-165680537D01*
X104376185Y-165601185D01*
X104455537Y-165504494D01*
X104514502Y-165394180D01*
X104538966Y-165313534D01*
X104614731Y-165397588D01*
X104848080Y-165571641D01*
X105110901Y-165696825D01*
X105258110Y-165741476D01*
X105488000Y-165620155D01*
X105488000Y-164427000D01*
X105468000Y-164427000D01*
X105468000Y-164173000D01*
X105488000Y-164173000D01*
X105488000Y-164153000D01*
X105742000Y-164153000D01*
X105742000Y-164173000D01*
X105762000Y-164173000D01*
X105762000Y-164427000D01*
X105742000Y-164427000D01*
X105742000Y-165620155D01*
X105971890Y-165741476D01*
X106119099Y-165696825D01*
X106381920Y-165571641D01*
X106615269Y-165397588D01*
X106810178Y-165181355D01*
X106879805Y-165064466D01*
X107001525Y-165246632D01*
X107208368Y-165453475D01*
X107451589Y-165615990D01*
X107721842Y-165727932D01*
X108008740Y-165785000D01*
X108301260Y-165785000D01*
X108491918Y-165747075D01*
X108749769Y-166004926D01*
X108797237Y-166062765D01*
X108827190Y-166087347D01*
X108967653Y-166227810D01*
X108992236Y-166257764D01*
X109111767Y-166355862D01*
X109248140Y-166428754D01*
X109368175Y-166465166D01*
X109396112Y-166473641D01*
X109410490Y-166475057D01*
X109511439Y-166485000D01*
X109511446Y-166485000D01*
X109549999Y-166488797D01*
X109588552Y-166485000D01*
X131683316Y-166485000D01*
X131721869Y-166488797D01*
X131760422Y-166485000D01*
X131760430Y-166485000D01*
X131875756Y-166473641D01*
X132023729Y-166428754D01*
X132160102Y-166355862D01*
X132279633Y-166257764D01*
X132304216Y-166227810D01*
X138059848Y-160472178D01*
X138264427Y-160826519D01*
X138337286Y-160928193D01*
X138428580Y-161013700D01*
X138534802Y-161079752D01*
X138651869Y-161123813D01*
X138775282Y-161144189D01*
X138900299Y-161140096D01*
X139022116Y-161111693D01*
X139136050Y-161060069D01*
X139828870Y-160660069D01*
X139851491Y-160643859D01*
X143609708Y-160643859D01*
X143648261Y-160647656D01*
X143686814Y-160643859D01*
X143686822Y-160643859D01*
X143802148Y-160632500D01*
X143950121Y-160587613D01*
X144086494Y-160514721D01*
X144206025Y-160416623D01*
X144230608Y-160386669D01*
X146330819Y-158286458D01*
X146360773Y-158261875D01*
X146458871Y-158142344D01*
X146531763Y-158005971D01*
X146547563Y-157953886D01*
X146576651Y-157857998D01*
X146584130Y-157782054D01*
X146588009Y-157742672D01*
X146588009Y-157742667D01*
X146591806Y-157704111D01*
X146588009Y-157665555D01*
X146588009Y-151482818D01*
X151696787Y-151482818D01*
X152188946Y-152085149D01*
X153039933Y-152555063D01*
X153966243Y-152849929D01*
X154932281Y-152958414D01*
X155900921Y-152876351D01*
X156834938Y-152606893D01*
X157698440Y-152160394D01*
X157811054Y-152085149D01*
X158303213Y-151482818D01*
X155000000Y-148179605D01*
X151696787Y-151482818D01*
X146588009Y-151482818D01*
X146588009Y-147932281D01*
X150041586Y-147932281D01*
X150123649Y-148900921D01*
X150393107Y-149834938D01*
X150839606Y-150698440D01*
X150914851Y-150811054D01*
X151517182Y-151303213D01*
X154820395Y-148000000D01*
X155179605Y-148000000D01*
X158482818Y-151303213D01*
X159085149Y-150811054D01*
X159555063Y-149960067D01*
X159849929Y-149033757D01*
X159958414Y-148067719D01*
X159876351Y-147099079D01*
X159606893Y-146165062D01*
X159160394Y-145301560D01*
X159085149Y-145188946D01*
X158482818Y-144696787D01*
X155179605Y-148000000D01*
X154820395Y-148000000D01*
X151517182Y-144696787D01*
X150914851Y-145188946D01*
X150444937Y-146039933D01*
X150150071Y-146966243D01*
X150041586Y-147932281D01*
X146588009Y-147932281D01*
X146588009Y-147829268D01*
X149900095Y-144517182D01*
X151696787Y-144517182D01*
X155000000Y-147820395D01*
X158303213Y-144517182D01*
X157811054Y-143914851D01*
X156960067Y-143444937D01*
X156033757Y-143150071D01*
X155067719Y-143041586D01*
X154099079Y-143123649D01*
X153165062Y-143393107D01*
X152301560Y-143839606D01*
X152188946Y-143914851D01*
X151696787Y-144517182D01*
X149900095Y-144517182D01*
X174427820Y-119989457D01*
X174457774Y-119964874D01*
X174555872Y-119845343D01*
X174628764Y-119708970D01*
X174650222Y-119638233D01*
X174673652Y-119560997D01*
X174681030Y-119486084D01*
X174685010Y-119445671D01*
X174685010Y-119445666D01*
X174688807Y-119407110D01*
X174685010Y-119368554D01*
X174685010Y-104555265D01*
X176700203Y-102540072D01*
X176716830Y-102540072D01*
X176710928Y-102600000D01*
X176710928Y-103400000D01*
X176723188Y-103524482D01*
X176759498Y-103644180D01*
X176818463Y-103754494D01*
X176897815Y-103851185D01*
X176994506Y-103930537D01*
X177104820Y-103989502D01*
X177224518Y-104025812D01*
X177349000Y-104038072D01*
X181349000Y-104038072D01*
X181473482Y-104025812D01*
X181593180Y-103989502D01*
X181703494Y-103930537D01*
X181746844Y-103894961D01*
X181743731Y-103978072D01*
X181668479Y-105297662D01*
X181568474Y-106614550D01*
X181442730Y-107928524D01*
X181292184Y-109239555D01*
X181117873Y-110546992D01*
X180918838Y-111850128D01*
X180694977Y-113149416D01*
X180448336Y-114443936D01*
X180176945Y-115733441D01*
X179882711Y-117017868D01*
X179564727Y-118296537D01*
X179223902Y-119569283D01*
X178860376Y-120835378D01*
X178472936Y-122095205D01*
X178064637Y-123348145D01*
X177633723Y-124593141D01*
X177179867Y-125830740D01*
X176705140Y-127060668D01*
X176208679Y-128281508D01*
X175691362Y-129493535D01*
X175152291Y-130697528D01*
X174592381Y-131890681D01*
X174011565Y-133075108D01*
X173410970Y-134248550D01*
X172789562Y-135412081D01*
X172148280Y-136564803D01*
X171487229Y-137706531D01*
X170806312Y-138836439D01*
X170106547Y-139954478D01*
X169387081Y-141060435D01*
X168648577Y-142153819D01*
X167892305Y-143234209D01*
X167117399Y-144300449D01*
X166323476Y-145354057D01*
X165511708Y-146393795D01*
X164682192Y-147419544D01*
X163835885Y-148429365D01*
X162970699Y-149425370D01*
X162089605Y-150405575D01*
X161190792Y-151370784D01*
X160276284Y-152318979D01*
X159343755Y-153251509D01*
X158396541Y-154167018D01*
X157432512Y-155064665D01*
X156452430Y-155946641D01*
X155457954Y-156809380D01*
X154446353Y-157654528D01*
X153420874Y-158481848D01*
X152379938Y-159290034D01*
X151325060Y-160078471D01*
X150712436Y-160518813D01*
X148985674Y-157527975D01*
X148912815Y-157426301D01*
X148821521Y-157340794D01*
X148715299Y-157274742D01*
X148598232Y-157230681D01*
X148474819Y-157210305D01*
X148349802Y-157214398D01*
X148227985Y-157242801D01*
X148114051Y-157294424D01*
X146815013Y-158044424D01*
X146713339Y-158117283D01*
X146627832Y-158208577D01*
X146561780Y-158314799D01*
X146517719Y-158431866D01*
X146497343Y-158555279D01*
X146501436Y-158680296D01*
X146529839Y-158802113D01*
X146581462Y-158916047D01*
X148331462Y-161947135D01*
X148404321Y-162048809D01*
X148440807Y-162082983D01*
X148072273Y-162327897D01*
X146960259Y-163036893D01*
X145834185Y-163725215D01*
X144695437Y-164392622D01*
X143542983Y-165038154D01*
X142377660Y-165661905D01*
X141259255Y-166232867D01*
X141247161Y-166180997D01*
X141195538Y-166067063D01*
X139445538Y-163035975D01*
X139372679Y-162934301D01*
X139281385Y-162848794D01*
X139175163Y-162782742D01*
X139058096Y-162738681D01*
X138934683Y-162718305D01*
X138809666Y-162722398D01*
X138687849Y-162750801D01*
X138573915Y-162802424D01*
X137274877Y-163552424D01*
X137173203Y-163625283D01*
X137087696Y-163716577D01*
X137021644Y-163822799D01*
X136977583Y-163939866D01*
X136957207Y-164063279D01*
X136961300Y-164188296D01*
X136989703Y-164310113D01*
X137041326Y-164424047D01*
X138768769Y-167416065D01*
X137594507Y-167964378D01*
X136385904Y-168498895D01*
X135169132Y-169009761D01*
X133943358Y-169495913D01*
X132708355Y-169959410D01*
X131466671Y-170399015D01*
X130217267Y-170813866D01*
X128960264Y-171205102D01*
X127696600Y-171573593D01*
X126426938Y-171918244D01*
X125151320Y-172239155D01*
X123870345Y-172536273D01*
X122583895Y-172809712D01*
X121292872Y-173060348D01*
X119997476Y-173287229D01*
X118698322Y-173491322D01*
X117395680Y-173671653D01*
X116089954Y-173829184D01*
X114781556Y-173962946D01*
X113470732Y-174073941D01*
X112158247Y-174162127D01*
X110844285Y-174226532D01*
X109528948Y-174268163D01*
X108212974Y-174287985D01*
X106897187Y-174284021D01*
X105581255Y-174257263D01*
X104266010Y-174207709D01*
X102951419Y-174135348D01*
X101638220Y-174041180D01*
X100327122Y-173924241D01*
X99018071Y-173784507D01*
X97711693Y-173621978D01*
X96408114Y-173436630D01*
X95107748Y-173229436D01*
X93811368Y-173000488D01*
X92519193Y-172748753D01*
X91231690Y-172475217D01*
X89949192Y-172178897D01*
X88671967Y-171860730D01*
X87400814Y-171520845D01*
X86135512Y-171158085D01*
X84877016Y-170774560D01*
X83625714Y-170368324D01*
X82381816Y-169940248D01*
X81145302Y-169490283D01*
X79917483Y-169019645D01*
X78698234Y-168526238D01*
X77487859Y-168011966D01*
X76287095Y-167476025D01*
X75547997Y-167129871D01*
X77044316Y-164538171D01*
X77095939Y-164424237D01*
X77124342Y-164302420D01*
X77128435Y-164177403D01*
X77108059Y-164053990D01*
X77063998Y-163936923D01*
X76997946Y-163830701D01*
X76912439Y-163739407D01*
X76810765Y-163666549D01*
X75771535Y-163066549D01*
X75657601Y-163014925D01*
X75535784Y-162986522D01*
X75410767Y-162982429D01*
X75287354Y-163002805D01*
X75170287Y-163046866D01*
X75064065Y-163112918D01*
X74972771Y-163198425D01*
X74899912Y-163300099D01*
X73321496Y-166033995D01*
X72745280Y-165738350D01*
X71586398Y-165117362D01*
X70438976Y-164473579D01*
X69303045Y-163809872D01*
X68179851Y-163124649D01*
X67659395Y-162793332D01*
X69250088Y-160038171D01*
X69301711Y-159924237D01*
X69330114Y-159802420D01*
X69334207Y-159677403D01*
X69313831Y-159553990D01*
X69269770Y-159436923D01*
X69203718Y-159330701D01*
X69118211Y-159239407D01*
X69016537Y-159166549D01*
X67977307Y-158566549D01*
X67863373Y-158514925D01*
X67741556Y-158486522D01*
X67616539Y-158482429D01*
X67493126Y-158502805D01*
X67376059Y-158546866D01*
X67269837Y-158612918D01*
X67178543Y-158698425D01*
X67105684Y-158800099D01*
X65589161Y-161426792D01*
X64887074Y-160942020D01*
X63816615Y-160172597D01*
X62760439Y-159382471D01*
X61719165Y-158571745D01*
X61388469Y-158303501D01*
X70636565Y-158303501D01*
X70656941Y-158426914D01*
X70701002Y-158543981D01*
X70767054Y-158650203D01*
X70852560Y-158741497D01*
X70954235Y-158814356D01*
X71054714Y-158868820D01*
X71271571Y-158810714D01*
X72196196Y-157209216D01*
X71547326Y-156834591D01*
X71330470Y-156892698D01*
X70720684Y-157942733D01*
X70669061Y-158056668D01*
X70640657Y-158178484D01*
X70636565Y-158303501D01*
X61388469Y-158303501D01*
X60692728Y-157739153D01*
X59701392Y-156903333D01*
X59700675Y-156902601D01*
X59675541Y-156881537D01*
X59650721Y-156860611D01*
X59649885Y-156860036D01*
X59098284Y-156397764D01*
X71616220Y-156397764D01*
X71674326Y-156614621D01*
X72323196Y-156989246D01*
X73247821Y-155387748D01*
X73189714Y-155170892D01*
X73092307Y-155111106D01*
X72978372Y-155059483D01*
X72856556Y-155031079D01*
X72731539Y-155026987D01*
X72608126Y-155047363D01*
X72491059Y-155091424D01*
X72384837Y-155157476D01*
X72293543Y-155242982D01*
X72220684Y-155344657D01*
X71616220Y-156397764D01*
X59098284Y-156397764D01*
X58656244Y-156027311D01*
X57660575Y-155159146D01*
X56682625Y-154271993D01*
X55722688Y-153367999D01*
X54781032Y-152445254D01*
X53857450Y-151505532D01*
X53835959Y-151482818D01*
X55696787Y-151482818D01*
X56188946Y-152085149D01*
X57039933Y-152555063D01*
X57966243Y-152849929D01*
X58932281Y-152958414D01*
X59900921Y-152876351D01*
X60834938Y-152606893D01*
X61698440Y-152160394D01*
X61811054Y-152085149D01*
X62303213Y-151482818D01*
X59000000Y-148179605D01*
X55696787Y-151482818D01*
X53835959Y-151482818D01*
X52952237Y-150548820D01*
X52065503Y-149576325D01*
X51197448Y-148586951D01*
X50643819Y-147932281D01*
X54041586Y-147932281D01*
X54123649Y-148900921D01*
X54393107Y-149834938D01*
X54839606Y-150698440D01*
X54914851Y-150811054D01*
X55517182Y-151303213D01*
X58820395Y-148000000D01*
X59179605Y-148000000D01*
X62482818Y-151303213D01*
X63085149Y-150811054D01*
X63555063Y-149960067D01*
X63849929Y-149033757D01*
X63958414Y-148067719D01*
X63876351Y-147099079D01*
X63606893Y-146165062D01*
X63160394Y-145301560D01*
X63085149Y-145188946D01*
X62482818Y-144696787D01*
X59179605Y-148000000D01*
X58820395Y-148000000D01*
X55517182Y-144696787D01*
X54914851Y-145188946D01*
X54444937Y-146039933D01*
X54150071Y-146966243D01*
X54041586Y-147932281D01*
X50643819Y-147932281D01*
X50348089Y-147582579D01*
X49517630Y-146562456D01*
X48706097Y-145527238D01*
X47943070Y-144517182D01*
X55696787Y-144517182D01*
X59000000Y-147820395D01*
X62303213Y-144517182D01*
X61811054Y-143914851D01*
X60960067Y-143444937D01*
X60033757Y-143150071D01*
X59067719Y-143041586D01*
X58099079Y-143123649D01*
X57165062Y-143393107D01*
X56301560Y-143839606D01*
X56188946Y-143914851D01*
X55696787Y-144517182D01*
X47943070Y-144517182D01*
X47913632Y-144478214D01*
X47140615Y-143414376D01*
X46386721Y-142336393D01*
X45652268Y-141245563D01*
X44937538Y-140141866D01*
X44242541Y-139025154D01*
X43567372Y-137896570D01*
X42912168Y-136756062D01*
X42277089Y-135603644D01*
X41662179Y-134440162D01*
X41067665Y-133266855D01*
X40493608Y-132082570D01*
X39940141Y-130888322D01*
X39407400Y-129685162D01*
X38895495Y-128472050D01*
X38404579Y-127251029D01*
X37934756Y-126021070D01*
X37486109Y-124783087D01*
X37058833Y-123538158D01*
X36653012Y-122285663D01*
X36268783Y-121026471D01*
X35906230Y-119760840D01*
X35565529Y-118489122D01*
X35246769Y-117211881D01*
X34950081Y-115929391D01*
X34675586Y-114642053D01*
X34423401Y-113350154D01*
X34193666Y-112054413D01*
X33986472Y-110754826D01*
X33801960Y-109452044D01*
X33640256Y-108146399D01*
X33501459Y-106838129D01*
X33385704Y-105527860D01*
X33293106Y-104215848D01*
X33223788Y-102902506D01*
X33177865Y-101588086D01*
X33155461Y-100273294D01*
X33156694Y-98958189D01*
X33181682Y-97643418D01*
X33230544Y-96329190D01*
X33303401Y-95015979D01*
X33400367Y-93704187D01*
X33423557Y-93453517D01*
X33484050Y-93484174D01*
X33604512Y-93517864D01*
X35278686Y-93813066D01*
X35403405Y-93822608D01*
X35527590Y-93807635D01*
X35646467Y-93768723D01*
X35755469Y-93707366D01*
X35850406Y-93625923D01*
X35927630Y-93527524D01*
X35984174Y-93415950D01*
X36017864Y-93295488D01*
X36174001Y-92409990D01*
X81209141Y-92409990D01*
X74738579Y-98880554D01*
%TA.AperFunction,Conductor*%
D27*
G36*
X74738579Y-98880554D02*
G01*
X74706709Y-98906709D01*
X74616261Y-99016921D01*
X74602364Y-99033855D01*
X74524828Y-99178914D01*
X74477082Y-99336312D01*
X74460960Y-99500000D01*
X74465000Y-99541018D01*
X74465001Y-156027505D01*
X74464456Y-156027487D01*
X74341043Y-156047863D01*
X74223976Y-156091924D01*
X74117754Y-156157976D01*
X74090102Y-156183876D01*
X74098705Y-156146978D01*
X74102797Y-156021961D01*
X74082421Y-155898548D01*
X74038360Y-155781481D01*
X73972308Y-155675259D01*
X73886802Y-155583965D01*
X73785127Y-155511106D01*
X73684648Y-155456642D01*
X73467791Y-155514748D01*
X72543166Y-157116246D01*
X72560487Y-157126246D01*
X72433487Y-157346216D01*
X72416166Y-157336216D01*
X71491541Y-158937714D01*
X71549648Y-159154570D01*
X71647055Y-159214356D01*
X71760990Y-159265979D01*
X71882806Y-159294383D01*
X72007823Y-159298475D01*
X72131236Y-159278099D01*
X72248303Y-159234038D01*
X72354525Y-159167986D01*
X72382178Y-159142086D01*
X72373575Y-159178984D01*
X72369482Y-159304001D01*
X72389858Y-159427414D01*
X72433919Y-159544481D01*
X72499971Y-159650703D01*
X72585478Y-159741997D01*
X72687152Y-159814855D01*
X73379972Y-160214855D01*
X73493906Y-160266479D01*
X73615723Y-160294882D01*
X73740740Y-160298975D01*
X73864153Y-160278599D01*
X73981220Y-160234538D01*
X74087442Y-160168486D01*
X74112581Y-160144940D01*
X74104760Y-160178484D01*
X74100667Y-160303501D01*
X74121043Y-160426914D01*
X74165104Y-160543981D01*
X74231156Y-160650203D01*
X74316663Y-160741497D01*
X74418337Y-160814355D01*
X75111157Y-161214355D01*
X75225091Y-161265979D01*
X75346908Y-161294382D01*
X75471925Y-161298475D01*
X75595338Y-161278099D01*
X75712405Y-161234038D01*
X75818627Y-161167986D01*
X75909921Y-161082479D01*
X75982780Y-160980805D01*
X76579226Y-159947731D01*
X80405769Y-159947731D01*
X80509744Y-160017205D01*
X80698102Y-160095226D01*
X80898061Y-160135000D01*
X81101939Y-160135000D01*
X81301898Y-160095226D01*
X81490256Y-160017205D01*
X81659774Y-159903937D01*
X81803937Y-159759774D01*
X81917205Y-159590256D01*
X81995226Y-159401898D01*
X82035000Y-159201939D01*
X82035000Y-158998061D01*
X81995226Y-158798102D01*
X81917205Y-158609744D01*
X81803937Y-158440226D01*
X81659774Y-158296063D01*
X81490256Y-158182795D01*
X81301898Y-158104774D01*
X81271276Y-158098683D01*
X95692815Y-158098683D01*
X95826071Y-158231939D01*
X95826077Y-158231944D01*
X101586928Y-163992796D01*
X101586928Y-165150000D01*
X101599188Y-165274482D01*
X101635498Y-165394180D01*
X101694463Y-165504494D01*
X101773815Y-165601185D01*
X101870506Y-165680537D01*
X101980820Y-165739502D01*
X102100518Y-165775812D01*
X102225000Y-165788072D01*
X103925000Y-165788072D01*
X104049482Y-165775812D01*
X104169180Y-165739502D01*
X104279494Y-165680537D01*
X104376185Y-165601185D01*
X104455537Y-165504494D01*
X104514502Y-165394180D01*
X104538966Y-165313534D01*
X104614731Y-165397588D01*
X104848080Y-165571641D01*
X105110901Y-165696825D01*
X105258110Y-165741476D01*
X105488000Y-165620155D01*
X105488000Y-164427000D01*
X105468000Y-164427000D01*
X105468000Y-164173000D01*
X105488000Y-164173000D01*
X105488000Y-164153000D01*
X105742000Y-164153000D01*
X105742000Y-164173000D01*
X105762000Y-164173000D01*
X105762000Y-164427000D01*
X105742000Y-164427000D01*
X105742000Y-165620155D01*
X105971890Y-165741476D01*
X106119099Y-165696825D01*
X106381920Y-165571641D01*
X106615269Y-165397588D01*
X106810178Y-165181355D01*
X106879805Y-165064466D01*
X107001525Y-165246632D01*
X107208368Y-165453475D01*
X107451589Y-165615990D01*
X107721842Y-165727932D01*
X108008740Y-165785000D01*
X108301260Y-165785000D01*
X108491918Y-165747075D01*
X108749769Y-166004926D01*
X108797237Y-166062765D01*
X108827190Y-166087347D01*
X108967653Y-166227810D01*
X108992236Y-166257764D01*
X109111767Y-166355862D01*
X109248140Y-166428754D01*
X109368175Y-166465166D01*
X109396112Y-166473641D01*
X109410490Y-166475057D01*
X109511439Y-166485000D01*
X109511446Y-166485000D01*
X109549999Y-166488797D01*
X109588552Y-166485000D01*
X131683316Y-166485000D01*
X131721869Y-166488797D01*
X131760422Y-166485000D01*
X131760430Y-166485000D01*
X131875756Y-166473641D01*
X132023729Y-166428754D01*
X132160102Y-166355862D01*
X132279633Y-166257764D01*
X132304216Y-166227810D01*
X138059848Y-160472178D01*
X138264427Y-160826519D01*
X138337286Y-160928193D01*
X138428580Y-161013700D01*
X138534802Y-161079752D01*
X138651869Y-161123813D01*
X138775282Y-161144189D01*
X138900299Y-161140096D01*
X139022116Y-161111693D01*
X139136050Y-161060069D01*
X139828870Y-160660069D01*
X139851491Y-160643859D01*
X143609708Y-160643859D01*
X143648261Y-160647656D01*
X143686814Y-160643859D01*
X143686822Y-160643859D01*
X143802148Y-160632500D01*
X143950121Y-160587613D01*
X144086494Y-160514721D01*
X144206025Y-160416623D01*
X144230608Y-160386669D01*
X146330819Y-158286458D01*
X146360773Y-158261875D01*
X146458871Y-158142344D01*
X146531763Y-158005971D01*
X146547563Y-157953886D01*
X146576651Y-157857998D01*
X146584130Y-157782054D01*
X146588009Y-157742672D01*
X146588009Y-157742667D01*
X146591806Y-157704111D01*
X146588009Y-157665555D01*
X146588009Y-151482818D01*
X151696787Y-151482818D01*
X152188946Y-152085149D01*
X153039933Y-152555063D01*
X153966243Y-152849929D01*
X154932281Y-152958414D01*
X155900921Y-152876351D01*
X156834938Y-152606893D01*
X157698440Y-152160394D01*
X157811054Y-152085149D01*
X158303213Y-151482818D01*
X155000000Y-148179605D01*
X151696787Y-151482818D01*
X146588009Y-151482818D01*
X146588009Y-147932281D01*
X150041586Y-147932281D01*
X150123649Y-148900921D01*
X150393107Y-149834938D01*
X150839606Y-150698440D01*
X150914851Y-150811054D01*
X151517182Y-151303213D01*
X154820395Y-148000000D01*
X155179605Y-148000000D01*
X158482818Y-151303213D01*
X159085149Y-150811054D01*
X159555063Y-149960067D01*
X159849929Y-149033757D01*
X159958414Y-148067719D01*
X159876351Y-147099079D01*
X159606893Y-146165062D01*
X159160394Y-145301560D01*
X159085149Y-145188946D01*
X158482818Y-144696787D01*
X155179605Y-148000000D01*
X154820395Y-148000000D01*
X151517182Y-144696787D01*
X150914851Y-145188946D01*
X150444937Y-146039933D01*
X150150071Y-146966243D01*
X150041586Y-147932281D01*
X146588009Y-147932281D01*
X146588009Y-147829268D01*
X149900095Y-144517182D01*
X151696787Y-144517182D01*
X155000000Y-147820395D01*
X158303213Y-144517182D01*
X157811054Y-143914851D01*
X156960067Y-143444937D01*
X156033757Y-143150071D01*
X155067719Y-143041586D01*
X154099079Y-143123649D01*
X153165062Y-143393107D01*
X152301560Y-143839606D01*
X152188946Y-143914851D01*
X151696787Y-144517182D01*
X149900095Y-144517182D01*
X174427820Y-119989457D01*
X174457774Y-119964874D01*
X174555872Y-119845343D01*
X174628764Y-119708970D01*
X174650222Y-119638233D01*
X174673652Y-119560997D01*
X174681030Y-119486084D01*
X174685010Y-119445671D01*
X174685010Y-119445666D01*
X174688807Y-119407110D01*
X174685010Y-119368554D01*
X174685010Y-104555265D01*
X176700203Y-102540072D01*
X176716830Y-102540072D01*
X176710928Y-102600000D01*
X176710928Y-103400000D01*
X176723188Y-103524482D01*
X176759498Y-103644180D01*
X176818463Y-103754494D01*
X176897815Y-103851185D01*
X176994506Y-103930537D01*
X177104820Y-103989502D01*
X177224518Y-104025812D01*
X177349000Y-104038072D01*
X181349000Y-104038072D01*
X181473482Y-104025812D01*
X181593180Y-103989502D01*
X181703494Y-103930537D01*
X181746844Y-103894961D01*
X181743731Y-103978072D01*
X181668479Y-105297662D01*
X181568474Y-106614550D01*
X181442730Y-107928524D01*
X181292184Y-109239555D01*
X181117873Y-110546992D01*
X180918838Y-111850128D01*
X180694977Y-113149416D01*
X180448336Y-114443936D01*
X180176945Y-115733441D01*
X179882711Y-117017868D01*
X179564727Y-118296537D01*
X179223902Y-119569283D01*
X178860376Y-120835378D01*
X178472936Y-122095205D01*
X178064637Y-123348145D01*
X177633723Y-124593141D01*
X177179867Y-125830740D01*
X176705140Y-127060668D01*
X176208679Y-128281508D01*
X175691362Y-129493535D01*
X175152291Y-130697528D01*
X174592381Y-131890681D01*
X174011565Y-133075108D01*
X173410970Y-134248550D01*
X172789562Y-135412081D01*
X172148280Y-136564803D01*
X171487229Y-137706531D01*
X170806312Y-138836439D01*
X170106547Y-139954478D01*
X169387081Y-141060435D01*
X168648577Y-142153819D01*
X167892305Y-143234209D01*
X167117399Y-144300449D01*
X166323476Y-145354057D01*
X165511708Y-146393795D01*
X164682192Y-147419544D01*
X163835885Y-148429365D01*
X162970699Y-149425370D01*
X162089605Y-150405575D01*
X161190792Y-151370784D01*
X160276284Y-152318979D01*
X159343755Y-153251509D01*
X158396541Y-154167018D01*
X157432512Y-155064665D01*
X156452430Y-155946641D01*
X155457954Y-156809380D01*
X154446353Y-157654528D01*
X153420874Y-158481848D01*
X152379938Y-159290034D01*
X151325060Y-160078471D01*
X150712436Y-160518813D01*
X148985674Y-157527975D01*
X148912815Y-157426301D01*
X148821521Y-157340794D01*
X148715299Y-157274742D01*
X148598232Y-157230681D01*
X148474819Y-157210305D01*
X148349802Y-157214398D01*
X148227985Y-157242801D01*
X148114051Y-157294424D01*
X146815013Y-158044424D01*
X146713339Y-158117283D01*
X146627832Y-158208577D01*
X146561780Y-158314799D01*
X146517719Y-158431866D01*
X146497343Y-158555279D01*
X146501436Y-158680296D01*
X146529839Y-158802113D01*
X146581462Y-158916047D01*
X148331462Y-161947135D01*
X148404321Y-162048809D01*
X148440807Y-162082983D01*
X148072273Y-162327897D01*
X146960259Y-163036893D01*
X145834185Y-163725215D01*
X144695437Y-164392622D01*
X143542983Y-165038154D01*
X142377660Y-165661905D01*
X141259255Y-166232867D01*
X141247161Y-166180997D01*
X141195538Y-166067063D01*
X139445538Y-163035975D01*
X139372679Y-162934301D01*
X139281385Y-162848794D01*
X139175163Y-162782742D01*
X139058096Y-162738681D01*
X138934683Y-162718305D01*
X138809666Y-162722398D01*
X138687849Y-162750801D01*
X138573915Y-162802424D01*
X137274877Y-163552424D01*
X137173203Y-163625283D01*
X137087696Y-163716577D01*
X137021644Y-163822799D01*
X136977583Y-163939866D01*
X136957207Y-164063279D01*
X136961300Y-164188296D01*
X136989703Y-164310113D01*
X137041326Y-164424047D01*
X138768769Y-167416065D01*
X137594507Y-167964378D01*
X136385904Y-168498895D01*
X135169132Y-169009761D01*
X133943358Y-169495913D01*
X132708355Y-169959410D01*
X131466671Y-170399015D01*
X130217267Y-170813866D01*
X128960264Y-171205102D01*
X127696600Y-171573593D01*
X126426938Y-171918244D01*
X125151320Y-172239155D01*
X123870345Y-172536273D01*
X122583895Y-172809712D01*
X121292872Y-173060348D01*
X119997476Y-173287229D01*
X118698322Y-173491322D01*
X117395680Y-173671653D01*
X116089954Y-173829184D01*
X114781556Y-173962946D01*
X113470732Y-174073941D01*
X112158247Y-174162127D01*
X110844285Y-174226532D01*
X109528948Y-174268163D01*
X108212974Y-174287985D01*
X106897187Y-174284021D01*
X105581255Y-174257263D01*
X104266010Y-174207709D01*
X102951419Y-174135348D01*
X101638220Y-174041180D01*
X100327122Y-173924241D01*
X99018071Y-173784507D01*
X97711693Y-173621978D01*
X96408114Y-173436630D01*
X95107748Y-173229436D01*
X93811368Y-173000488D01*
X92519193Y-172748753D01*
X91231690Y-172475217D01*
X89949192Y-172178897D01*
X88671967Y-171860730D01*
X87400814Y-171520845D01*
X86135512Y-171158085D01*
X84877016Y-170774560D01*
X83625714Y-170368324D01*
X82381816Y-169940248D01*
X81145302Y-169490283D01*
X79917483Y-169019645D01*
X78698234Y-168526238D01*
X77487859Y-168011966D01*
X76287095Y-167476025D01*
X75547997Y-167129871D01*
X77044316Y-164538171D01*
X77095939Y-164424237D01*
X77124342Y-164302420D01*
X77128435Y-164177403D01*
X77108059Y-164053990D01*
X77063998Y-163936923D01*
X76997946Y-163830701D01*
X76912439Y-163739407D01*
X76810765Y-163666549D01*
X75771535Y-163066549D01*
X75657601Y-163014925D01*
X75535784Y-162986522D01*
X75410767Y-162982429D01*
X75287354Y-163002805D01*
X75170287Y-163046866D01*
X75064065Y-163112918D01*
X74972771Y-163198425D01*
X74899912Y-163300099D01*
X73321496Y-166033995D01*
X72745280Y-165738350D01*
X71586398Y-165117362D01*
X70438976Y-164473579D01*
X69303045Y-163809872D01*
X68179851Y-163124649D01*
X67659395Y-162793332D01*
X69250088Y-160038171D01*
X69301711Y-159924237D01*
X69330114Y-159802420D01*
X69334207Y-159677403D01*
X69313831Y-159553990D01*
X69269770Y-159436923D01*
X69203718Y-159330701D01*
X69118211Y-159239407D01*
X69016537Y-159166549D01*
X67977307Y-158566549D01*
X67863373Y-158514925D01*
X67741556Y-158486522D01*
X67616539Y-158482429D01*
X67493126Y-158502805D01*
X67376059Y-158546866D01*
X67269837Y-158612918D01*
X67178543Y-158698425D01*
X67105684Y-158800099D01*
X65589161Y-161426792D01*
X64887074Y-160942020D01*
X63816615Y-160172597D01*
X62760439Y-159382471D01*
X61719165Y-158571745D01*
X61388469Y-158303501D01*
X70636565Y-158303501D01*
X70656941Y-158426914D01*
X70701002Y-158543981D01*
X70767054Y-158650203D01*
X70852560Y-158741497D01*
X70954235Y-158814356D01*
X71054714Y-158868820D01*
X71271571Y-158810714D01*
X72196196Y-157209216D01*
X71547326Y-156834591D01*
X71330470Y-156892698D01*
X70720684Y-157942733D01*
X70669061Y-158056668D01*
X70640657Y-158178484D01*
X70636565Y-158303501D01*
X61388469Y-158303501D01*
X60692728Y-157739153D01*
X59701392Y-156903333D01*
X59700675Y-156902601D01*
X59675541Y-156881537D01*
X59650721Y-156860611D01*
X59649885Y-156860036D01*
X59098284Y-156397764D01*
X71616220Y-156397764D01*
X71674326Y-156614621D01*
X72323196Y-156989246D01*
X73247821Y-155387748D01*
X73189714Y-155170892D01*
X73092307Y-155111106D01*
X72978372Y-155059483D01*
X72856556Y-155031079D01*
X72731539Y-155026987D01*
X72608126Y-155047363D01*
X72491059Y-155091424D01*
X72384837Y-155157476D01*
X72293543Y-155242982D01*
X72220684Y-155344657D01*
X71616220Y-156397764D01*
X59098284Y-156397764D01*
X58656244Y-156027311D01*
X57660575Y-155159146D01*
X56682625Y-154271993D01*
X55722688Y-153367999D01*
X54781032Y-152445254D01*
X53857450Y-151505532D01*
X53835959Y-151482818D01*
X55696787Y-151482818D01*
X56188946Y-152085149D01*
X57039933Y-152555063D01*
X57966243Y-152849929D01*
X58932281Y-152958414D01*
X59900921Y-152876351D01*
X60834938Y-152606893D01*
X61698440Y-152160394D01*
X61811054Y-152085149D01*
X62303213Y-151482818D01*
X59000000Y-148179605D01*
X55696787Y-151482818D01*
X53835959Y-151482818D01*
X52952237Y-150548820D01*
X52065503Y-149576325D01*
X51197448Y-148586951D01*
X50643819Y-147932281D01*
X54041586Y-147932281D01*
X54123649Y-148900921D01*
X54393107Y-149834938D01*
X54839606Y-150698440D01*
X54914851Y-150811054D01*
X55517182Y-151303213D01*
X58820395Y-148000000D01*
X59179605Y-148000000D01*
X62482818Y-151303213D01*
X63085149Y-150811054D01*
X63555063Y-149960067D01*
X63849929Y-149033757D01*
X63958414Y-148067719D01*
X63876351Y-147099079D01*
X63606893Y-146165062D01*
X63160394Y-145301560D01*
X63085149Y-145188946D01*
X62482818Y-144696787D01*
X59179605Y-148000000D01*
X58820395Y-148000000D01*
X55517182Y-144696787D01*
X54914851Y-145188946D01*
X54444937Y-146039933D01*
X54150071Y-146966243D01*
X54041586Y-147932281D01*
X50643819Y-147932281D01*
X50348089Y-147582579D01*
X49517630Y-146562456D01*
X48706097Y-145527238D01*
X47943070Y-144517182D01*
X55696787Y-144517182D01*
X59000000Y-147820395D01*
X62303213Y-144517182D01*
X61811054Y-143914851D01*
X60960067Y-143444937D01*
X60033757Y-143150071D01*
X59067719Y-143041586D01*
X58099079Y-143123649D01*
X57165062Y-143393107D01*
X56301560Y-143839606D01*
X56188946Y-143914851D01*
X55696787Y-144517182D01*
X47943070Y-144517182D01*
X47913632Y-144478214D01*
X47140615Y-143414376D01*
X46386721Y-142336393D01*
X45652268Y-141245563D01*
X44937538Y-140141866D01*
X44242541Y-139025154D01*
X43567372Y-137896570D01*
X42912168Y-136756062D01*
X42277089Y-135603644D01*
X41662179Y-134440162D01*
X41067665Y-133266855D01*
X40493608Y-132082570D01*
X39940141Y-130888322D01*
X39407400Y-129685162D01*
X38895495Y-128472050D01*
X38404579Y-127251029D01*
X37934756Y-126021070D01*
X37486109Y-124783087D01*
X37058833Y-123538158D01*
X36653012Y-122285663D01*
X36268783Y-121026471D01*
X35906230Y-119760840D01*
X35565529Y-118489122D01*
X35246769Y-117211881D01*
X34950081Y-115929391D01*
X34675586Y-114642053D01*
X34423401Y-113350154D01*
X34193666Y-112054413D01*
X33986472Y-110754826D01*
X33801960Y-109452044D01*
X33640256Y-108146399D01*
X33501459Y-106838129D01*
X33385704Y-105527860D01*
X33293106Y-104215848D01*
X33223788Y-102902506D01*
X33177865Y-101588086D01*
X33155461Y-100273294D01*
X33156694Y-98958189D01*
X33181682Y-97643418D01*
X33230544Y-96329190D01*
X33303401Y-95015979D01*
X33400367Y-93704187D01*
X33423557Y-93453517D01*
X33484050Y-93484174D01*
X33604512Y-93517864D01*
X35278686Y-93813066D01*
X35403405Y-93822608D01*
X35527590Y-93807635D01*
X35646467Y-93768723D01*
X35755469Y-93707366D01*
X35850406Y-93625923D01*
X35927630Y-93527524D01*
X35984174Y-93415950D01*
X36017864Y-93295488D01*
X36174001Y-92409990D01*
X81209141Y-92409990D01*
X74738579Y-98880554D01*
G37*
%TD.AperFunction*%
D26*
X174531886Y-98425856D02*
X174527845Y-98466885D01*
X174543967Y-98630573D01*
X174591713Y-98787971D01*
X174669249Y-98933030D01*
X174692792Y-98961717D01*
X174773595Y-99060176D01*
X174805459Y-99086326D01*
X175966881Y-100247749D01*
X175961498Y-100257820D01*
X175925188Y-100377518D01*
X175924081Y-100388759D01*
X172872185Y-103440656D01*
X172842237Y-103465234D01*
X172817659Y-103495182D01*
X172817655Y-103495186D01*
X172799085Y-103517814D01*
X172744139Y-103584765D01*
X172705177Y-103657658D01*
X172671246Y-103721139D01*
X172626359Y-103869112D01*
X172611203Y-104022998D01*
X172615001Y-104061561D01*
X172615000Y-118874843D01*
X144775184Y-146714659D01*
X144745236Y-146739237D01*
X144720658Y-146769185D01*
X144720654Y-146769189D01*
X144691289Y-146804971D01*
X144647138Y-146858768D01*
X144614503Y-146919824D01*
X144574245Y-146995142D01*
X144529358Y-147143115D01*
X144514202Y-147297001D01*
X144518000Y-147335564D01*
X144517999Y-155709223D01*
X144426369Y-155684671D01*
X143777499Y-156059296D01*
X143787499Y-156076617D01*
X143567529Y-156203617D01*
X143557529Y-156186296D01*
X143540208Y-156196296D01*
X143413208Y-155976326D01*
X143430529Y-155966326D01*
X142505904Y-154364828D01*
X142289047Y-154306722D01*
X142188568Y-154361186D01*
X142086893Y-154434045D01*
X142001387Y-154525339D01*
X141935335Y-154631561D01*
X141891274Y-154748628D01*
X141870898Y-154872041D01*
X141874990Y-154997058D01*
X141883558Y-155033805D01*
X141858307Y-155010154D01*
X141752085Y-154944102D01*
X141635018Y-154900041D01*
X141511605Y-154879665D01*
X141386588Y-154883758D01*
X141264771Y-154912161D01*
X141150837Y-154963785D01*
X140610476Y-155275763D01*
X137030255Y-155275763D01*
X136989237Y-155271723D01*
X136948219Y-155275763D01*
X136948218Y-155275763D01*
X136825548Y-155287845D01*
X136668150Y-155335591D01*
X136523091Y-155413127D01*
X136395946Y-155517472D01*
X136369800Y-155549331D01*
X130554133Y-161365000D01*
X105216007Y-161365000D01*
X105174999Y-161360961D01*
X105133991Y-161365000D01*
X105133981Y-161365000D01*
X105011311Y-161377082D01*
X104853913Y-161424828D01*
X104708854Y-161502364D01*
X104581709Y-161606709D01*
X104555561Y-161638571D01*
X103382205Y-162811928D01*
X102767796Y-162811928D01*
X97006944Y-157051077D01*
X97006939Y-157051071D01*
X96658128Y-156702261D01*
X96631974Y-156670392D01*
X96504829Y-156566047D01*
X96359770Y-156488511D01*
X96202372Y-156440765D01*
X96079702Y-156428683D01*
X96079701Y-156428683D01*
X96038683Y-156424643D01*
X95997665Y-156428683D01*
X76135000Y-156428683D01*
X76135000Y-154237828D01*
X142725874Y-154237828D01*
X143650499Y-155839326D01*
X144299369Y-155464701D01*
X144357475Y-155247844D01*
X143753011Y-154194737D01*
X143680152Y-154093062D01*
X143588858Y-154007556D01*
X143482636Y-153941504D01*
X143365569Y-153897443D01*
X143242156Y-153877067D01*
X143117139Y-153881159D01*
X142995323Y-153909563D01*
X142881388Y-153961186D01*
X142783981Y-154020972D01*
X142725874Y-154237828D01*
X76135000Y-154237828D01*
X76135000Y-99845867D01*
X83570879Y-92409990D01*
X85684987Y-92409990D01*
X85080303Y-92730154D01*
X85045120Y-92751969D01*
X85009633Y-92773460D01*
X85004000Y-92777464D01*
X84037403Y-93472034D01*
X84005447Y-93498470D01*
X83973264Y-93524531D01*
X83968235Y-93529254D01*
X83968226Y-93529261D01*
X83968219Y-93529269D01*
X83104836Y-94348588D01*
X83076817Y-94379058D01*
X83048415Y-94409303D01*
X83044066Y-94414674D01*
X82299860Y-95343596D01*
X82276196Y-95377644D01*
X82252201Y-95411408D01*
X82248626Y-95417311D01*
X82248621Y-95417318D01*
X82248618Y-95417325D01*
X81637370Y-96438646D01*
X81618552Y-96475577D01*
X81599355Y-96512298D01*
X81596617Y-96518627D01*
X81596610Y-96518640D01*
X81596606Y-96518653D01*
X81129625Y-97613475D01*
X81116006Y-97652583D01*
X81101957Y-97691604D01*
X81100099Y-97698261D01*
X80786019Y-98846341D01*
X80777828Y-98886961D01*
X80769211Y-98927504D01*
X80768273Y-98934351D01*
X80612912Y-100114436D01*
X80610310Y-100155802D01*
X80607275Y-100197128D01*
X80607275Y-100204039D01*
X80613507Y-101394289D01*
X80616541Y-101435611D01*
X80619144Y-101476982D01*
X80620082Y-101483829D01*
X80787792Y-102662221D01*
X80796409Y-102702763D01*
X80804600Y-102743384D01*
X80806456Y-102750028D01*
X80806458Y-102750039D01*
X80806461Y-102750049D01*
X81132544Y-103894770D01*
X81146579Y-103933754D01*
X81160211Y-103972900D01*
X81162952Y-103979234D01*
X81162955Y-103979242D01*
X81162956Y-103979243D01*
X81641382Y-105069126D01*
X81660567Y-105105823D01*
X81679396Y-105142778D01*
X81682976Y-105148689D01*
X82304890Y-106163559D01*
X82328889Y-106197330D01*
X82352548Y-106231371D01*
X82356884Y-106236724D01*
X82356897Y-106236742D01*
X82356911Y-106236757D01*
X83110791Y-107157819D01*
X83139187Y-107188058D01*
X83167211Y-107218534D01*
X83172241Y-107223258D01*
X83172249Y-107223266D01*
X83172257Y-107223273D01*
X84044172Y-108033506D01*
X84076377Y-108059585D01*
X84108310Y-108086003D01*
X84113936Y-108090000D01*
X84113943Y-108090006D01*
X84113950Y-108090010D01*
X85087760Y-108774416D01*
X85123196Y-108795877D01*
X85158430Y-108817723D01*
X85164548Y-108820920D01*
X85164554Y-108820924D01*
X85164560Y-108820927D01*
X86222247Y-109366840D01*
X86260223Y-109383274D01*
X86298141Y-109400156D01*
X86304632Y-109402492D01*
X86304642Y-109402496D01*
X86304651Y-109402499D01*
X87426640Y-109799816D01*
X87466585Y-109810969D01*
X87506352Y-109822522D01*
X87513112Y-109823959D01*
X88678649Y-110065331D01*
X88719713Y-110070956D01*
X88760707Y-110077010D01*
X88767597Y-110077516D01*
X88767599Y-110077516D01*
X89945224Y-110157798D01*
X89967581Y-110160000D01*
X124032419Y-110160000D01*
X124034143Y-110159830D01*
X124095085Y-110159511D01*
X124115771Y-110157992D01*
X124136518Y-110157992D01*
X124143411Y-110157485D01*
X125330009Y-110064098D01*
X125371002Y-110058045D01*
X125412066Y-110052420D01*
X125418813Y-110050986D01*
X125418825Y-110050984D01*
X125418836Y-110050981D01*
X126581772Y-109797420D01*
X126621613Y-109785845D01*
X126661485Y-109774713D01*
X126667973Y-109772377D01*
X126667987Y-109772373D01*
X126668000Y-109772367D01*
X127785761Y-109363325D01*
X127823599Y-109346479D01*
X127861655Y-109330010D01*
X127867773Y-109326812D01*
X127867779Y-109326809D01*
X127867784Y-109326806D01*
X128919697Y-108769846D01*
X128954893Y-108748024D01*
X128990367Y-108726540D01*
X128995989Y-108722544D01*
X128996000Y-108722537D01*
X128996009Y-108722529D01*
X129962597Y-108027966D01*
X129994553Y-108001530D01*
X130026736Y-107975469D01*
X130031765Y-107970746D01*
X130031774Y-107970739D01*
X130031781Y-107970731D01*
X130895164Y-107151412D01*
X130923207Y-107120916D01*
X130951585Y-107090696D01*
X130955927Y-107085333D01*
X130955934Y-107085326D01*
X130955939Y-107085318D01*
X131700140Y-106156404D01*
X131723773Y-106122401D01*
X131747799Y-106088593D01*
X131751379Y-106082681D01*
X132362630Y-105061354D01*
X132381430Y-105024457D01*
X132400645Y-104987702D01*
X132403389Y-104981359D01*
X132870375Y-103886525D01*
X132884005Y-103847385D01*
X132898042Y-103808396D01*
X132899901Y-103801740D01*
X133213981Y-102653659D01*
X133222172Y-102613039D01*
X133230789Y-102572496D01*
X133231727Y-102565649D01*
X133387088Y-101385564D01*
X133389690Y-101344200D01*
X133392725Y-101302872D01*
X133392725Y-101295961D01*
X133386493Y-100105710D01*
X133383459Y-100064388D01*
X133380856Y-100023018D01*
X133379918Y-100016171D01*
X133212208Y-98837778D01*
X133203587Y-98797217D01*
X133195400Y-98756616D01*
X133193545Y-98749975D01*
X133193542Y-98749960D01*
X133193537Y-98749947D01*
X132867456Y-97605230D01*
X132853427Y-97566262D01*
X132839789Y-97527099D01*
X132837048Y-97520766D01*
X132837045Y-97520758D01*
X132837042Y-97520751D01*
X132358618Y-96430874D01*
X132339423Y-96394156D01*
X132320604Y-96357223D01*
X132317024Y-96351311D01*
X131695111Y-95336441D01*
X131671085Y-95302633D01*
X131647452Y-95268630D01*
X131643103Y-95263259D01*
X130889209Y-94342182D01*
X130860879Y-94312014D01*
X130832789Y-94281466D01*
X130827751Y-94276735D01*
X129955829Y-93466495D01*
X129923629Y-93440419D01*
X129891690Y-93413997D01*
X129886064Y-93410000D01*
X129886057Y-93409994D01*
X129886050Y-93409990D01*
X128912239Y-92725584D01*
X128876771Y-92704103D01*
X128841569Y-92682277D01*
X128835463Y-92679086D01*
X128835445Y-92679075D01*
X128835427Y-92679067D01*
X127777753Y-92133160D01*
X127739756Y-92116717D01*
X127701859Y-92099844D01*
X127695376Y-92097511D01*
X127695357Y-92097503D01*
X127695339Y-92097498D01*
X126573360Y-91700185D01*
X126533488Y-91689052D01*
X126493649Y-91677478D01*
X126486888Y-91676041D01*
X125321351Y-91434669D01*
X125280287Y-91429044D01*
X125239293Y-91422990D01*
X125232403Y-91422484D01*
X125232401Y-91422484D01*
X124054776Y-91342202D01*
X124032419Y-91340000D01*
X98440867Y-91340000D01*
X99561427Y-90219441D01*
X99593291Y-90193291D01*
X99619441Y-90161427D01*
X100282061Y-89498807D01*
X100413740Y-89525000D01*
X100706260Y-89525000D01*
X100837939Y-89498807D01*
X101600563Y-90261432D01*
X101626709Y-90293291D01*
X101658568Y-90319437D01*
X101658570Y-90319439D01*
X101676108Y-90333832D01*
X101753854Y-90397636D01*
X101898913Y-90475172D01*
X102056311Y-90522918D01*
X102178981Y-90535000D01*
X102178982Y-90535000D01*
X102220000Y-90539040D01*
X102261018Y-90535000D01*
X161021316Y-90535000D01*
X161062334Y-90539040D01*
X161103352Y-90535000D01*
X161103353Y-90535000D01*
X161226023Y-90522918D01*
X161383421Y-90475172D01*
X161528480Y-90397636D01*
X161655625Y-90293291D01*
X161681780Y-90261421D01*
X174531885Y-77411317D01*
X174531886Y-98425856D01*
%TA.AperFunction,Conductor*%
D27*
G36*
X174531886Y-98425856D02*
G01*
X174527845Y-98466885D01*
X174543967Y-98630573D01*
X174591713Y-98787971D01*
X174669249Y-98933030D01*
X174692792Y-98961717D01*
X174773595Y-99060176D01*
X174805459Y-99086326D01*
X175966881Y-100247749D01*
X175961498Y-100257820D01*
X175925188Y-100377518D01*
X175924081Y-100388759D01*
X172872185Y-103440656D01*
X172842237Y-103465234D01*
X172817659Y-103495182D01*
X172817655Y-103495186D01*
X172799085Y-103517814D01*
X172744139Y-103584765D01*
X172705177Y-103657658D01*
X172671246Y-103721139D01*
X172626359Y-103869112D01*
X172611203Y-104022998D01*
X172615001Y-104061561D01*
X172615000Y-118874843D01*
X144775184Y-146714659D01*
X144745236Y-146739237D01*
X144720658Y-146769185D01*
X144720654Y-146769189D01*
X144691289Y-146804971D01*
X144647138Y-146858768D01*
X144614503Y-146919824D01*
X144574245Y-146995142D01*
X144529358Y-147143115D01*
X144514202Y-147297001D01*
X144518000Y-147335564D01*
X144517999Y-155709223D01*
X144426369Y-155684671D01*
X143777499Y-156059296D01*
X143787499Y-156076617D01*
X143567529Y-156203617D01*
X143557529Y-156186296D01*
X143540208Y-156196296D01*
X143413208Y-155976326D01*
X143430529Y-155966326D01*
X142505904Y-154364828D01*
X142289047Y-154306722D01*
X142188568Y-154361186D01*
X142086893Y-154434045D01*
X142001387Y-154525339D01*
X141935335Y-154631561D01*
X141891274Y-154748628D01*
X141870898Y-154872041D01*
X141874990Y-154997058D01*
X141883558Y-155033805D01*
X141858307Y-155010154D01*
X141752085Y-154944102D01*
X141635018Y-154900041D01*
X141511605Y-154879665D01*
X141386588Y-154883758D01*
X141264771Y-154912161D01*
X141150837Y-154963785D01*
X140610476Y-155275763D01*
X137030255Y-155275763D01*
X136989237Y-155271723D01*
X136948219Y-155275763D01*
X136948218Y-155275763D01*
X136825548Y-155287845D01*
X136668150Y-155335591D01*
X136523091Y-155413127D01*
X136395946Y-155517472D01*
X136369800Y-155549331D01*
X130554133Y-161365000D01*
X105216007Y-161365000D01*
X105174999Y-161360961D01*
X105133991Y-161365000D01*
X105133981Y-161365000D01*
X105011311Y-161377082D01*
X104853913Y-161424828D01*
X104708854Y-161502364D01*
X104581709Y-161606709D01*
X104555561Y-161638571D01*
X103382205Y-162811928D01*
X102767796Y-162811928D01*
X97006944Y-157051077D01*
X97006939Y-157051071D01*
X96658128Y-156702261D01*
X96631974Y-156670392D01*
X96504829Y-156566047D01*
X96359770Y-156488511D01*
X96202372Y-156440765D01*
X96079702Y-156428683D01*
X96079701Y-156428683D01*
X96038683Y-156424643D01*
X95997665Y-156428683D01*
X76135000Y-156428683D01*
X76135000Y-154237828D01*
X142725874Y-154237828D01*
X143650499Y-155839326D01*
X144299369Y-155464701D01*
X144357475Y-155247844D01*
X143753011Y-154194737D01*
X143680152Y-154093062D01*
X143588858Y-154007556D01*
X143482636Y-153941504D01*
X143365569Y-153897443D01*
X143242156Y-153877067D01*
X143117139Y-153881159D01*
X142995323Y-153909563D01*
X142881388Y-153961186D01*
X142783981Y-154020972D01*
X142725874Y-154237828D01*
X76135000Y-154237828D01*
X76135000Y-99845867D01*
X83570879Y-92409990D01*
X85684987Y-92409990D01*
X85080303Y-92730154D01*
X85045120Y-92751969D01*
X85009633Y-92773460D01*
X85004000Y-92777464D01*
X84037403Y-93472034D01*
X84005447Y-93498470D01*
X83973264Y-93524531D01*
X83968235Y-93529254D01*
X83968226Y-93529261D01*
X83968219Y-93529269D01*
X83104836Y-94348588D01*
X83076817Y-94379058D01*
X83048415Y-94409303D01*
X83044066Y-94414674D01*
X82299860Y-95343596D01*
X82276196Y-95377644D01*
X82252201Y-95411408D01*
X82248626Y-95417311D01*
X82248621Y-95417318D01*
X82248618Y-95417325D01*
X81637370Y-96438646D01*
X81618552Y-96475577D01*
X81599355Y-96512298D01*
X81596617Y-96518627D01*
X81596610Y-96518640D01*
X81596606Y-96518653D01*
X81129625Y-97613475D01*
X81116006Y-97652583D01*
X81101957Y-97691604D01*
X81100099Y-97698261D01*
X80786019Y-98846341D01*
X80777828Y-98886961D01*
X80769211Y-98927504D01*
X80768273Y-98934351D01*
X80612912Y-100114436D01*
X80610310Y-100155802D01*
X80607275Y-100197128D01*
X80607275Y-100204039D01*
X80613507Y-101394289D01*
X80616541Y-101435611D01*
X80619144Y-101476982D01*
X80620082Y-101483829D01*
X80787792Y-102662221D01*
X80796409Y-102702763D01*
X80804600Y-102743384D01*
X80806456Y-102750028D01*
X80806458Y-102750039D01*
X80806461Y-102750049D01*
X81132544Y-103894770D01*
X81146579Y-103933754D01*
X81160211Y-103972900D01*
X81162952Y-103979234D01*
X81162955Y-103979242D01*
X81162956Y-103979243D01*
X81641382Y-105069126D01*
X81660567Y-105105823D01*
X81679396Y-105142778D01*
X81682976Y-105148689D01*
X82304890Y-106163559D01*
X82328889Y-106197330D01*
X82352548Y-106231371D01*
X82356884Y-106236724D01*
X82356897Y-106236742D01*
X82356911Y-106236757D01*
X83110791Y-107157819D01*
X83139187Y-107188058D01*
X83167211Y-107218534D01*
X83172241Y-107223258D01*
X83172249Y-107223266D01*
X83172257Y-107223273D01*
X84044172Y-108033506D01*
X84076377Y-108059585D01*
X84108310Y-108086003D01*
X84113936Y-108090000D01*
X84113943Y-108090006D01*
X84113950Y-108090010D01*
X85087760Y-108774416D01*
X85123196Y-108795877D01*
X85158430Y-108817723D01*
X85164548Y-108820920D01*
X85164554Y-108820924D01*
X85164560Y-108820927D01*
X86222247Y-109366840D01*
X86260223Y-109383274D01*
X86298141Y-109400156D01*
X86304632Y-109402492D01*
X86304642Y-109402496D01*
X86304651Y-109402499D01*
X87426640Y-109799816D01*
X87466585Y-109810969D01*
X87506352Y-109822522D01*
X87513112Y-109823959D01*
X88678649Y-110065331D01*
X88719713Y-110070956D01*
X88760707Y-110077010D01*
X88767597Y-110077516D01*
X88767599Y-110077516D01*
X89945224Y-110157798D01*
X89967581Y-110160000D01*
X124032419Y-110160000D01*
X124034143Y-110159830D01*
X124095085Y-110159511D01*
X124115771Y-110157992D01*
X124136518Y-110157992D01*
X124143411Y-110157485D01*
X125330009Y-110064098D01*
X125371002Y-110058045D01*
X125412066Y-110052420D01*
X125418813Y-110050986D01*
X125418825Y-110050984D01*
X125418836Y-110050981D01*
X126581772Y-109797420D01*
X126621613Y-109785845D01*
X126661485Y-109774713D01*
X126667973Y-109772377D01*
X126667987Y-109772373D01*
X126668000Y-109772367D01*
X127785761Y-109363325D01*
X127823599Y-109346479D01*
X127861655Y-109330010D01*
X127867773Y-109326812D01*
X127867779Y-109326809D01*
X127867784Y-109326806D01*
X128919697Y-108769846D01*
X128954893Y-108748024D01*
X128990367Y-108726540D01*
X128995989Y-108722544D01*
X128996000Y-108722537D01*
X128996009Y-108722529D01*
X129962597Y-108027966D01*
X129994553Y-108001530D01*
X130026736Y-107975469D01*
X130031765Y-107970746D01*
X130031774Y-107970739D01*
X130031781Y-107970731D01*
X130895164Y-107151412D01*
X130923207Y-107120916D01*
X130951585Y-107090696D01*
X130955927Y-107085333D01*
X130955934Y-107085326D01*
X130955939Y-107085318D01*
X131700140Y-106156404D01*
X131723773Y-106122401D01*
X131747799Y-106088593D01*
X131751379Y-106082681D01*
X132362630Y-105061354D01*
X132381430Y-105024457D01*
X132400645Y-104987702D01*
X132403389Y-104981359D01*
X132870375Y-103886525D01*
X132884005Y-103847385D01*
X132898042Y-103808396D01*
X132899901Y-103801740D01*
X133213981Y-102653659D01*
X133222172Y-102613039D01*
X133230789Y-102572496D01*
X133231727Y-102565649D01*
X133387088Y-101385564D01*
X133389690Y-101344200D01*
X133392725Y-101302872D01*
X133392725Y-101295961D01*
X133386493Y-100105710D01*
X133383459Y-100064388D01*
X133380856Y-100023018D01*
X133379918Y-100016171D01*
X133212208Y-98837778D01*
X133203587Y-98797217D01*
X133195400Y-98756616D01*
X133193545Y-98749975D01*
X133193542Y-98749960D01*
X133193537Y-98749947D01*
X132867456Y-97605230D01*
X132853427Y-97566262D01*
X132839789Y-97527099D01*
X132837048Y-97520766D01*
X132837045Y-97520758D01*
X132837042Y-97520751D01*
X132358618Y-96430874D01*
X132339423Y-96394156D01*
X132320604Y-96357223D01*
X132317024Y-96351311D01*
X131695111Y-95336441D01*
X131671085Y-95302633D01*
X131647452Y-95268630D01*
X131643103Y-95263259D01*
X130889209Y-94342182D01*
X130860879Y-94312014D01*
X130832789Y-94281466D01*
X130827751Y-94276735D01*
X129955829Y-93466495D01*
X129923629Y-93440419D01*
X129891690Y-93413997D01*
X129886064Y-93410000D01*
X129886057Y-93409994D01*
X129886050Y-93409990D01*
X128912239Y-92725584D01*
X128876771Y-92704103D01*
X128841569Y-92682277D01*
X128835463Y-92679086D01*
X128835445Y-92679075D01*
X128835427Y-92679067D01*
X127777753Y-92133160D01*
X127739756Y-92116717D01*
X127701859Y-92099844D01*
X127695376Y-92097511D01*
X127695357Y-92097503D01*
X127695339Y-92097498D01*
X126573360Y-91700185D01*
X126533488Y-91689052D01*
X126493649Y-91677478D01*
X126486888Y-91676041D01*
X125321351Y-91434669D01*
X125280287Y-91429044D01*
X125239293Y-91422990D01*
X125232403Y-91422484D01*
X125232401Y-91422484D01*
X124054776Y-91342202D01*
X124032419Y-91340000D01*
X98440867Y-91340000D01*
X99561427Y-90219441D01*
X99593291Y-90193291D01*
X99619441Y-90161427D01*
X100282061Y-89498807D01*
X100413740Y-89525000D01*
X100706260Y-89525000D01*
X100837939Y-89498807D01*
X101600563Y-90261432D01*
X101626709Y-90293291D01*
X101658568Y-90319437D01*
X101658570Y-90319439D01*
X101676108Y-90333832D01*
X101753854Y-90397636D01*
X101898913Y-90475172D01*
X102056311Y-90522918D01*
X102178981Y-90535000D01*
X102178982Y-90535000D01*
X102220000Y-90539040D01*
X102261018Y-90535000D01*
X161021316Y-90535000D01*
X161062334Y-90539040D01*
X161103352Y-90535000D01*
X161103353Y-90535000D01*
X161226023Y-90522918D01*
X161383421Y-90475172D01*
X161528480Y-90397636D01*
X161655625Y-90293291D01*
X161681780Y-90261421D01*
X174531885Y-77411317D01*
X174531886Y-98425856D01*
G37*
%TD.AperFunction*%
D26*
X181804075Y-98582650D02*
X181814742Y-99968974D01*
X181811686Y-100000000D01*
X181815051Y-100034163D01*
X181816992Y-101332852D01*
X181802297Y-102151389D01*
X181800185Y-102148815D01*
X181703494Y-102069463D01*
X181593180Y-102010498D01*
X181473482Y-101974188D01*
X181349000Y-101961928D01*
X179648229Y-101961928D01*
X180375157Y-101235000D01*
X180401939Y-101235000D01*
X180601898Y-101195226D01*
X180790256Y-101117205D01*
X180959774Y-101003937D01*
X181103937Y-100859774D01*
X181217205Y-100690256D01*
X181295226Y-100501898D01*
X181335000Y-100301939D01*
X181335000Y-100098061D01*
X181295226Y-99898102D01*
X181217205Y-99709744D01*
X181103937Y-99540226D01*
X180959774Y-99396063D01*
X180790256Y-99282795D01*
X180601898Y-99204774D01*
X180401939Y-99165000D01*
X180198061Y-99165000D01*
X179998102Y-99204774D01*
X179809744Y-99282795D01*
X179700000Y-99356123D01*
X179590256Y-99282795D01*
X179401898Y-99204774D01*
X179201939Y-99165000D01*
X178998061Y-99165000D01*
X178798102Y-99204774D01*
X178727729Y-99233924D01*
X178710695Y-99202056D01*
X178736974Y-99154528D01*
X178774980Y-99035358D01*
X178786000Y-98933750D01*
X178627250Y-98775000D01*
X177478000Y-98775000D01*
X177478000Y-98849000D01*
X177224000Y-98849000D01*
X177224000Y-98775000D01*
X177204000Y-98775000D01*
X177204000Y-98629000D01*
X177224000Y-98629000D01*
X177224000Y-98555000D01*
X177478000Y-98555000D01*
X177478000Y-98629000D01*
X178627250Y-98629000D01*
X178786000Y-98470250D01*
X178782510Y-98438072D01*
X181349000Y-98438072D01*
X181473482Y-98425812D01*
X181593180Y-98389502D01*
X181703494Y-98330537D01*
X181794916Y-98255510D01*
X181804075Y-98582650D01*
%TA.AperFunction,Conductor*%
D27*
G36*
X181804075Y-98582650D02*
G01*
X181814742Y-99968974D01*
X181811686Y-100000000D01*
X181815051Y-100034163D01*
X181816992Y-101332852D01*
X181802297Y-102151389D01*
X181800185Y-102148815D01*
X181703494Y-102069463D01*
X181593180Y-102010498D01*
X181473482Y-101974188D01*
X181349000Y-101961928D01*
X179648229Y-101961928D01*
X180375157Y-101235000D01*
X180401939Y-101235000D01*
X180601898Y-101195226D01*
X180790256Y-101117205D01*
X180959774Y-101003937D01*
X181103937Y-100859774D01*
X181217205Y-100690256D01*
X181295226Y-100501898D01*
X181335000Y-100301939D01*
X181335000Y-100098061D01*
X181295226Y-99898102D01*
X181217205Y-99709744D01*
X181103937Y-99540226D01*
X180959774Y-99396063D01*
X180790256Y-99282795D01*
X180601898Y-99204774D01*
X180401939Y-99165000D01*
X180198061Y-99165000D01*
X179998102Y-99204774D01*
X179809744Y-99282795D01*
X179700000Y-99356123D01*
X179590256Y-99282795D01*
X179401898Y-99204774D01*
X179201939Y-99165000D01*
X178998061Y-99165000D01*
X178798102Y-99204774D01*
X178727729Y-99233924D01*
X178710695Y-99202056D01*
X178736974Y-99154528D01*
X178774980Y-99035358D01*
X178786000Y-98933750D01*
X178627250Y-98775000D01*
X177478000Y-98775000D01*
X177478000Y-98849000D01*
X177224000Y-98849000D01*
X177224000Y-98775000D01*
X177204000Y-98775000D01*
X177204000Y-98629000D01*
X177224000Y-98629000D01*
X177224000Y-98555000D01*
X177478000Y-98555000D01*
X177478000Y-98629000D01*
X178627250Y-98629000D01*
X178786000Y-98470250D01*
X178782510Y-98438072D01*
X181349000Y-98438072D01*
X181473482Y-98425812D01*
X181593180Y-98389502D01*
X181703494Y-98330537D01*
X181794916Y-98255510D01*
X181804075Y-98582650D01*
G37*
%TD.AperFunction*%
D26*
X109174027Y-25655124D02*
X110488468Y-25700050D01*
X111801805Y-25768963D01*
X113113537Y-25861707D01*
X114423443Y-25978131D01*
X115730973Y-26118073D01*
X117035995Y-26281401D01*
X118337798Y-26467934D01*
X119636362Y-26677541D01*
X120931120Y-26910064D01*
X122221613Y-27165339D01*
X123507582Y-27443215D01*
X124788641Y-27743526D01*
X126064421Y-28066153D01*
X127334519Y-28410891D01*
X128598553Y-28777633D01*
X129856275Y-29166209D01*
X131107024Y-29576429D01*
X132350732Y-30008163D01*
X133586691Y-30461275D01*
X134814759Y-30935603D01*
X136034892Y-31430972D01*
X137246024Y-31947200D01*
X138448219Y-32484154D01*
X139640504Y-33041684D01*
X140822931Y-33619657D01*
X141995537Y-34217954D01*
X143158050Y-34836257D01*
X144308597Y-35474479D01*
X145448483Y-36132631D01*
X146577240Y-36810283D01*
X147692927Y-37507339D01*
X148795919Y-38223838D01*
X149887006Y-38959555D01*
X150964091Y-39714109D01*
X152028264Y-40487567D01*
X153077643Y-41279706D01*
X154113979Y-42090347D01*
X155134352Y-42919327D01*
X156140014Y-43766560D01*
X157130586Y-44631826D01*
X158104392Y-45514988D01*
X159063401Y-46415943D01*
X160005179Y-47334253D01*
X160929209Y-48269970D01*
X161836559Y-49223284D01*
X162726865Y-50193412D01*
X163598270Y-51180477D01*
X164451799Y-52184314D01*
X165285555Y-53204924D01*
X166101419Y-54241883D01*
X166896420Y-55295188D01*
X167672644Y-56364675D01*
X168430577Y-57453894D01*
X169234507Y-58625110D01*
X170013124Y-59807896D01*
X170767940Y-61005498D01*
X171499045Y-62217368D01*
X172206531Y-63443284D01*
X172891169Y-64682468D01*
X173550922Y-65934219D01*
X174186113Y-67198755D01*
X174798484Y-68475125D01*
X175385006Y-69762699D01*
X175947911Y-71061446D01*
X176485963Y-72370506D01*
X176999227Y-73689535D01*
X177486739Y-75018005D01*
X177949504Y-76355465D01*
X178386536Y-77701644D01*
X178798800Y-79055774D01*
X179185269Y-80417332D01*
X179545917Y-81785814D01*
X179879834Y-83160917D01*
X180188046Y-84542322D01*
X180470457Y-85929302D01*
X180726125Y-87321409D01*
X180955988Y-88717820D01*
X181158092Y-90118384D01*
X181333470Y-91522899D01*
X181482102Y-92930533D01*
X181603962Y-94340735D01*
X181698069Y-95753031D01*
X181732824Y-96493534D01*
X181703494Y-96469463D01*
X181593180Y-96410498D01*
X181473482Y-96374188D01*
X181349000Y-96361928D01*
X177349000Y-96361928D01*
X177224518Y-96374188D01*
X177104820Y-96410498D01*
X176994506Y-96469463D01*
X176897815Y-96548815D01*
X176818463Y-96645506D01*
X176759498Y-96755820D01*
X176723188Y-96875518D01*
X176710928Y-97000000D01*
X176710928Y-97800000D01*
X176717323Y-97864928D01*
X176560063Y-97863992D01*
X176435420Y-97874483D01*
X176315219Y-97909089D01*
X176204078Y-97966481D01*
X176201885Y-97968229D01*
X176201885Y-76623514D01*
X176313517Y-76548924D01*
X176520360Y-76342081D01*
X176682875Y-76098860D01*
X176794817Y-75828607D01*
X176851885Y-75541709D01*
X176851885Y-75249189D01*
X176794817Y-74962291D01*
X176682875Y-74692038D01*
X176520360Y-74448817D01*
X176313517Y-74241974D01*
X176070296Y-74079459D01*
X175800043Y-73967517D01*
X175513145Y-73910449D01*
X175470195Y-73910449D01*
X175541642Y-73797077D01*
X175645820Y-73525244D01*
X175694964Y-73238310D01*
X175687185Y-72947302D01*
X175660138Y-72795867D01*
X175447673Y-72646112D01*
X174384564Y-73187793D01*
X174393644Y-73205613D01*
X174167328Y-73320927D01*
X174158248Y-73303107D01*
X173095139Y-73844788D01*
X173091409Y-74104700D01*
X173198025Y-74215593D01*
X173428883Y-74392936D01*
X173689904Y-74521833D01*
X173971055Y-74597330D01*
X174108124Y-74606389D01*
X174050895Y-74692038D01*
X173938953Y-74962291D01*
X173881885Y-75249189D01*
X173881885Y-75541709D01*
X173908078Y-75673388D01*
X160716467Y-88865000D01*
X117034747Y-88865000D01*
X117115990Y-88743411D01*
X117227932Y-88473158D01*
X117285000Y-88186260D01*
X117285000Y-87893740D01*
X117227932Y-87606842D01*
X117115990Y-87336589D01*
X116953475Y-87093368D01*
X116746632Y-86886525D01*
X116570594Y-86768900D01*
X116800269Y-86597588D01*
X116995178Y-86381355D01*
X117144157Y-86131252D01*
X117241481Y-85856891D01*
X117120814Y-85627000D01*
X115927000Y-85627000D01*
X115927000Y-85647000D01*
X115673000Y-85647000D01*
X115673000Y-85627000D01*
X115653000Y-85627000D01*
X115653000Y-85373000D01*
X115673000Y-85373000D01*
X115673000Y-84179845D01*
X115927000Y-84179845D01*
X115927000Y-85373000D01*
X117120814Y-85373000D01*
X117241481Y-85143109D01*
X117144157Y-84868748D01*
X116995178Y-84618645D01*
X116800269Y-84402412D01*
X116566920Y-84228359D01*
X116304099Y-84103175D01*
X116156890Y-84058524D01*
X115927000Y-84179845D01*
X115673000Y-84179845D01*
X115443110Y-84058524D01*
X115295901Y-84103175D01*
X115033080Y-84228359D01*
X114799731Y-84402412D01*
X114604822Y-84618645D01*
X114535195Y-84735534D01*
X114413475Y-84553368D01*
X114206632Y-84346525D01*
X113963411Y-84184010D01*
X113693158Y-84072068D01*
X113406260Y-84015000D01*
X113113740Y-84015000D01*
X112826842Y-84072068D01*
X112556589Y-84184010D01*
X112313368Y-84346525D01*
X112106525Y-84553368D01*
X111990000Y-84727760D01*
X111873475Y-84553368D01*
X111666632Y-84346525D01*
X111423411Y-84184010D01*
X111153158Y-84072068D01*
X110866260Y-84015000D01*
X110573740Y-84015000D01*
X110286842Y-84072068D01*
X110016589Y-84184010D01*
X109773368Y-84346525D01*
X109566525Y-84553368D01*
X109450000Y-84727760D01*
X109333475Y-84553368D01*
X109126632Y-84346525D01*
X108883411Y-84184010D01*
X108613158Y-84072068D01*
X108326260Y-84015000D01*
X108033740Y-84015000D01*
X107746842Y-84072068D01*
X107476589Y-84184010D01*
X107233368Y-84346525D01*
X107026525Y-84553368D01*
X106910000Y-84727760D01*
X106793475Y-84553368D01*
X106586632Y-84346525D01*
X106343411Y-84184010D01*
X106073158Y-84072068D01*
X105786260Y-84015000D01*
X105493740Y-84015000D01*
X105206842Y-84072068D01*
X104936589Y-84184010D01*
X104693368Y-84346525D01*
X104486525Y-84553368D01*
X104370000Y-84727760D01*
X104253475Y-84553368D01*
X104046632Y-84346525D01*
X103803411Y-84184010D01*
X103533158Y-84072068D01*
X103246260Y-84015000D01*
X102953740Y-84015000D01*
X102666842Y-84072068D01*
X102396589Y-84184010D01*
X102153368Y-84346525D01*
X101946525Y-84553368D01*
X101830000Y-84727760D01*
X101713475Y-84553368D01*
X101506632Y-84346525D01*
X101263411Y-84184010D01*
X100993158Y-84072068D01*
X100706260Y-84015000D01*
X100413740Y-84015000D01*
X100135000Y-84070445D01*
X100135000Y-59231951D01*
X165515582Y-59231951D01*
X165537571Y-59355087D01*
X165583161Y-59471567D01*
X166354944Y-60986278D01*
X166422381Y-61091626D01*
X166509075Y-61181794D01*
X166611694Y-61253315D01*
X166726295Y-61303442D01*
X166848472Y-61330249D01*
X166973532Y-61332705D01*
X167046515Y-61319672D01*
X167020138Y-61383352D01*
X166963070Y-61670250D01*
X166963070Y-61962770D01*
X167020138Y-62249668D01*
X167132080Y-62519921D01*
X167294595Y-62763142D01*
X167501438Y-62969985D01*
X167744659Y-63132500D01*
X168014912Y-63244442D01*
X168301810Y-63301510D01*
X168335159Y-63301510D01*
X168285216Y-63376255D01*
X168173274Y-63646508D01*
X168116206Y-63933406D01*
X168116206Y-64225926D01*
X168173274Y-64512824D01*
X168285216Y-64783077D01*
X168447731Y-65026298D01*
X168654574Y-65233141D01*
X168897795Y-65395656D01*
X169168048Y-65507598D01*
X169454946Y-65564666D01*
X169488296Y-65564666D01*
X169438352Y-65639412D01*
X169326410Y-65909665D01*
X169269342Y-66196563D01*
X169269342Y-66489083D01*
X169326410Y-66775981D01*
X169438352Y-67046234D01*
X169600867Y-67289455D01*
X169807710Y-67496298D01*
X170050931Y-67658813D01*
X170321184Y-67770755D01*
X170608082Y-67827823D01*
X170641430Y-67827823D01*
X170591487Y-67902568D01*
X170479545Y-68172821D01*
X170422477Y-68459719D01*
X170422477Y-68752239D01*
X170479545Y-69039137D01*
X170591487Y-69309390D01*
X170754002Y-69552611D01*
X170960845Y-69759454D01*
X171204066Y-69921969D01*
X171474319Y-70033911D01*
X171761217Y-70090979D01*
X171794567Y-70090979D01*
X171744623Y-70165725D01*
X171632681Y-70435978D01*
X171575613Y-70722876D01*
X171575613Y-71015396D01*
X171632681Y-71302294D01*
X171744623Y-71572547D01*
X171907138Y-71815768D01*
X172113981Y-72022611D01*
X172357202Y-72185126D01*
X172627455Y-72297068D01*
X172914353Y-72354136D01*
X172957302Y-72354136D01*
X172885856Y-72467507D01*
X172781678Y-72739340D01*
X172732534Y-73026274D01*
X172740313Y-73317282D01*
X172767360Y-73468717D01*
X172979825Y-73618472D01*
X174042934Y-73076791D01*
X174033854Y-73058971D01*
X174260170Y-72943657D01*
X174269250Y-72961477D01*
X175332359Y-72419796D01*
X175336089Y-72159884D01*
X175229473Y-72048991D01*
X174998615Y-71871648D01*
X174737594Y-71742751D01*
X174456443Y-71667254D01*
X174319375Y-71658196D01*
X174376603Y-71572547D01*
X174488545Y-71302294D01*
X174545613Y-71015396D01*
X174545613Y-70722876D01*
X174488545Y-70435978D01*
X174376603Y-70165725D01*
X174214088Y-69922504D01*
X174007245Y-69715661D01*
X173764024Y-69553146D01*
X173493771Y-69441204D01*
X173206873Y-69384136D01*
X173173523Y-69384136D01*
X173223467Y-69309390D01*
X173335409Y-69039137D01*
X173392477Y-68752239D01*
X173392477Y-68459719D01*
X173335409Y-68172821D01*
X173223467Y-67902568D01*
X173060952Y-67659347D01*
X172854109Y-67452504D01*
X172610888Y-67289989D01*
X172340635Y-67178047D01*
X172053737Y-67120979D01*
X172020389Y-67120979D01*
X172070332Y-67046234D01*
X172182274Y-66775981D01*
X172239342Y-66489083D01*
X172239342Y-66196563D01*
X172182274Y-65909665D01*
X172070332Y-65639412D01*
X171907817Y-65396191D01*
X171700974Y-65189348D01*
X171457753Y-65026833D01*
X171187500Y-64914891D01*
X170900602Y-64857823D01*
X170867252Y-64857823D01*
X170917196Y-64783077D01*
X171029138Y-64512824D01*
X171086206Y-64225926D01*
X171086206Y-63933406D01*
X171029138Y-63646508D01*
X170917196Y-63376255D01*
X170754681Y-63133034D01*
X170547838Y-62926191D01*
X170304617Y-62763676D01*
X170034364Y-62651734D01*
X169747466Y-62594666D01*
X169714117Y-62594666D01*
X169764060Y-62519921D01*
X169876002Y-62249668D01*
X169933070Y-61962770D01*
X169933070Y-61670250D01*
X169876002Y-61383352D01*
X169764060Y-61113099D01*
X169601545Y-60869878D01*
X169394702Y-60663035D01*
X169151481Y-60500520D01*
X168881228Y-60388578D01*
X168873607Y-60387062D01*
X168923375Y-60339212D01*
X168994896Y-60236593D01*
X169045023Y-60121992D01*
X169071830Y-59999815D01*
X169074286Y-59874755D01*
X169052297Y-59751619D01*
X169006707Y-59635139D01*
X168234924Y-58120428D01*
X168167487Y-58015080D01*
X168080793Y-57924912D01*
X167978174Y-57853391D01*
X167863573Y-57803264D01*
X167741396Y-57776457D01*
X167616336Y-57774001D01*
X167493200Y-57795990D01*
X167376720Y-57841580D01*
X165862009Y-58613363D01*
X165756661Y-58680800D01*
X165666493Y-58767494D01*
X165594972Y-58870113D01*
X165544845Y-58984714D01*
X165518038Y-59106891D01*
X165515582Y-59231951D01*
X100135000Y-59231951D01*
X100135000Y-55482818D01*
X151696787Y-55482818D01*
X152188946Y-56085149D01*
X153039933Y-56555063D01*
X153966243Y-56849929D01*
X154932281Y-56958414D01*
X155900921Y-56876351D01*
X156834938Y-56606893D01*
X157698440Y-56160394D01*
X157811054Y-56085149D01*
X158303213Y-55482818D01*
X155000000Y-52179605D01*
X151696787Y-55482818D01*
X100135000Y-55482818D01*
X100135000Y-51932281D01*
X150041586Y-51932281D01*
X150123649Y-52900921D01*
X150393107Y-53834938D01*
X150839606Y-54698440D01*
X150914851Y-54811054D01*
X151517182Y-55303213D01*
X154820395Y-52000000D01*
X155179605Y-52000000D01*
X158482818Y-55303213D01*
X159085149Y-54811054D01*
X159555063Y-53960067D01*
X159849929Y-53033757D01*
X159958414Y-52067719D01*
X159876351Y-51099079D01*
X159606893Y-50165062D01*
X159160394Y-49301560D01*
X159085149Y-49188946D01*
X158482818Y-48696787D01*
X155179605Y-52000000D01*
X154820395Y-52000000D01*
X151517182Y-48696787D01*
X150914851Y-49188946D01*
X150444937Y-50039933D01*
X150150071Y-50966243D01*
X150041586Y-51932281D01*
X100135000Y-51932281D01*
X100135000Y-48517182D01*
X151696787Y-48517182D01*
X155000000Y-51820395D01*
X158303213Y-48517182D01*
X157811054Y-47914851D01*
X156960067Y-47444937D01*
X156033757Y-47150071D01*
X155067719Y-47041586D01*
X154099079Y-47123649D01*
X153165062Y-47393107D01*
X152301560Y-47839606D01*
X152188946Y-47914851D01*
X151696787Y-48517182D01*
X100135000Y-48517182D01*
X100135000Y-39665867D01*
X105011433Y-34789436D01*
X105043291Y-34763291D01*
X105084058Y-34713617D01*
X105147636Y-34636146D01*
X105225172Y-34491087D01*
X105250354Y-34408072D01*
X105300000Y-34408072D01*
X105400000Y-34398223D01*
X105500000Y-34408072D01*
X105800000Y-34408072D01*
X105900000Y-34398223D01*
X106000000Y-34408072D01*
X106300000Y-34408072D01*
X106400000Y-34398223D01*
X106500000Y-34408072D01*
X106800000Y-34408072D01*
X106900000Y-34398223D01*
X107000000Y-34408072D01*
X107300000Y-34408072D01*
X107400000Y-34398223D01*
X107500000Y-34408072D01*
X107800000Y-34408072D01*
X107900000Y-34398223D01*
X108000000Y-34408072D01*
X108300000Y-34408072D01*
X108400000Y-34398223D01*
X108500000Y-34408072D01*
X108800000Y-34408072D01*
X108924482Y-34395812D01*
X108925000Y-34395655D01*
X108925518Y-34395812D01*
X109050000Y-34408072D01*
X109650000Y-34408072D01*
X109750000Y-34398223D01*
X109850000Y-34408072D01*
X109864250Y-34405000D01*
X109927625Y-34341625D01*
X110004494Y-34300537D01*
X110101185Y-34221185D01*
X110180537Y-34124494D01*
X110239502Y-34014180D01*
X110275812Y-33894482D01*
X110277000Y-33882420D01*
X110277000Y-34246250D01*
X110435750Y-34405000D01*
X110450000Y-34408072D01*
X110574482Y-34395812D01*
X110694180Y-34359502D01*
X110804494Y-34300537D01*
X110901185Y-34221185D01*
X110980537Y-34124494D01*
X111039502Y-34014180D01*
X111075812Y-33894482D01*
X111088072Y-33770000D01*
X111087247Y-33652104D01*
X111093000Y-33647954D01*
X111093000Y-32257000D01*
X111347000Y-32257000D01*
X111347000Y-33647954D01*
X111521874Y-33774119D01*
X111744976Y-33694276D01*
X111932764Y-33572369D01*
X112093161Y-33416169D01*
X112220003Y-33231678D01*
X112308415Y-33025987D01*
X112355000Y-32807000D01*
X112355000Y-32257000D01*
X111347000Y-32257000D01*
X111093000Y-32257000D01*
X111081867Y-32257000D01*
X111075812Y-32195518D01*
X111073000Y-32186248D01*
X111073000Y-32003000D01*
X111093000Y-32003000D01*
X111093000Y-30612046D01*
X111347000Y-30612046D01*
X111347000Y-32003000D01*
X112355000Y-32003000D01*
X112355000Y-31453000D01*
X112308415Y-31234013D01*
X112220003Y-31028322D01*
X112093161Y-30843831D01*
X111932764Y-30687631D01*
X111744976Y-30565724D01*
X111521874Y-30485881D01*
X111347000Y-30612046D01*
X111093000Y-30612046D01*
X110918126Y-30485881D01*
X110695024Y-30565724D01*
X110507236Y-30687631D01*
X110362884Y-30828206D01*
X110244731Y-30749259D01*
X110070022Y-30676892D01*
X109884552Y-30640000D01*
X109695448Y-30640000D01*
X109509978Y-30676892D01*
X109335269Y-30749259D01*
X109178036Y-30854319D01*
X109057552Y-30974803D01*
X108958017Y-30965000D01*
X108958016Y-30965000D01*
X108916998Y-30960960D01*
X108875980Y-30965000D01*
X104924009Y-30965000D01*
X104883001Y-30960961D01*
X104841993Y-30965000D01*
X104841983Y-30965000D01*
X104742448Y-30974803D01*
X104621964Y-30854319D01*
X104464731Y-30749259D01*
X104290022Y-30676892D01*
X104104552Y-30640000D01*
X103915448Y-30640000D01*
X103729978Y-30676892D01*
X103555269Y-30749259D01*
X103437116Y-30828206D01*
X103292764Y-30687631D01*
X103104976Y-30565724D01*
X102881874Y-30485881D01*
X102707000Y-30612046D01*
X102707000Y-32003000D01*
X102727000Y-32003000D01*
X102727000Y-32186248D01*
X102724188Y-32195518D01*
X102718133Y-32257000D01*
X102707000Y-32257000D01*
X102707000Y-33647954D01*
X102712753Y-33652104D01*
X102711928Y-33770000D01*
X102724188Y-33894482D01*
X102760498Y-34014180D01*
X102819463Y-34124494D01*
X102898815Y-34221185D01*
X102995506Y-34300537D01*
X103088752Y-34350379D01*
X98738574Y-38700559D01*
X98706710Y-38726709D01*
X98657392Y-38786803D01*
X98602364Y-38853855D01*
X98524828Y-38998914D01*
X98477082Y-39156312D01*
X98460960Y-39320000D01*
X98465001Y-39361029D01*
X98465000Y-84085249D01*
X98376890Y-84058524D01*
X98147000Y-84179845D01*
X98147000Y-85373000D01*
X98167000Y-85373000D01*
X98167000Y-85627000D01*
X98147000Y-85627000D01*
X98147000Y-85647000D01*
X97893000Y-85647000D01*
X97893000Y-85627000D01*
X96699186Y-85627000D01*
X96578519Y-85856891D01*
X96675843Y-86131252D01*
X96824822Y-86381355D01*
X97001626Y-86577502D01*
X96925820Y-86600498D01*
X96815506Y-86659463D01*
X96718815Y-86738815D01*
X96639463Y-86835506D01*
X96580498Y-86945820D01*
X96544188Y-87065518D01*
X96531928Y-87190000D01*
X96531928Y-88151060D01*
X93523977Y-85143109D01*
X96578519Y-85143109D01*
X96699186Y-85373000D01*
X97893000Y-85373000D01*
X97893000Y-84179845D01*
X97663110Y-84058524D01*
X97515901Y-84103175D01*
X97253080Y-84228359D01*
X97019731Y-84402412D01*
X96824822Y-84618645D01*
X96675843Y-84868748D01*
X96578519Y-85143109D01*
X93523977Y-85143109D01*
X73215402Y-64834535D01*
X73189247Y-64802665D01*
X73062102Y-64698320D01*
X72917043Y-64620784D01*
X72759645Y-64573038D01*
X72636975Y-64560956D01*
X72636974Y-64560956D01*
X72595956Y-64556916D01*
X72554938Y-64560956D01*
X44502333Y-64560956D01*
X44496924Y-64553745D01*
X44403786Y-64470250D01*
X44296149Y-64406530D01*
X42755426Y-63688079D01*
X42641653Y-63648069D01*
X43298840Y-62510616D01*
X43978391Y-61381863D01*
X44678175Y-60265359D01*
X45397753Y-59161419D01*
X46136924Y-58070399D01*
X46895383Y-56992565D01*
X47672661Y-55928119D01*
X48010028Y-55482818D01*
X55696787Y-55482818D01*
X56188946Y-56085149D01*
X57039933Y-56555063D01*
X57966243Y-56849929D01*
X58932281Y-56958414D01*
X59900921Y-56876351D01*
X60834938Y-56606893D01*
X61698440Y-56160394D01*
X61811054Y-56085149D01*
X62303213Y-55482818D01*
X59000000Y-52179605D01*
X55696787Y-55482818D01*
X48010028Y-55482818D01*
X48468718Y-54877381D01*
X49283012Y-53840612D01*
X50115450Y-52818100D01*
X50862603Y-51932281D01*
X54041586Y-51932281D01*
X54123649Y-52900921D01*
X54393107Y-53834938D01*
X54839606Y-54698440D01*
X54914851Y-54811054D01*
X55517182Y-55303213D01*
X58820395Y-52000000D01*
X59179605Y-52000000D01*
X62482818Y-55303213D01*
X63085149Y-54811054D01*
X63555063Y-53960067D01*
X63849929Y-53033757D01*
X63958414Y-52067719D01*
X63876351Y-51099079D01*
X63606893Y-50165062D01*
X63160394Y-49301560D01*
X63085149Y-49188946D01*
X62482818Y-48696787D01*
X59179605Y-52000000D01*
X58820395Y-52000000D01*
X55517182Y-48696787D01*
X54914851Y-49188946D01*
X54444937Y-50039933D01*
X54150071Y-50966243D01*
X54041586Y-51932281D01*
X50862603Y-51932281D01*
X50965597Y-51810173D01*
X51833206Y-50816992D01*
X52717883Y-49838853D01*
X53619461Y-48876227D01*
X53967534Y-48517182D01*
X55696787Y-48517182D01*
X59000000Y-51820395D01*
X62303213Y-48517182D01*
X61811054Y-47914851D01*
X60960067Y-47444937D01*
X60033757Y-47150071D01*
X59067719Y-47041586D01*
X58099079Y-47123649D01*
X57165062Y-47393107D01*
X56301560Y-47839606D01*
X56188946Y-47914851D01*
X55696787Y-48517182D01*
X53967534Y-48517182D01*
X54537561Y-47929188D01*
X55471877Y-46998144D01*
X56422166Y-46083239D01*
X57388031Y-45184870D01*
X58369270Y-44303243D01*
X59365433Y-43438601D01*
X60376354Y-42591409D01*
X61401819Y-41761601D01*
X62441316Y-40949768D01*
X63494527Y-40156120D01*
X64561333Y-39380892D01*
X65641262Y-38624338D01*
X66734178Y-37886810D01*
X67839659Y-37168421D01*
X68957409Y-36469568D01*
X70087105Y-35790622D01*
X71228488Y-35131687D01*
X72381220Y-34493137D01*
X73545171Y-33875175D01*
X74719764Y-33278110D01*
X75904856Y-32702248D01*
X76864664Y-32257000D01*
X101445000Y-32257000D01*
X101445000Y-32807000D01*
X101491585Y-33025987D01*
X101579997Y-33231678D01*
X101706839Y-33416169D01*
X101867236Y-33572369D01*
X102055024Y-33694276D01*
X102278126Y-33774119D01*
X102453000Y-33647954D01*
X102453000Y-32257000D01*
X101445000Y-32257000D01*
X76864664Y-32257000D01*
X77100051Y-32147806D01*
X78305138Y-31615101D01*
X78690637Y-31453000D01*
X101445000Y-31453000D01*
X101445000Y-32003000D01*
X102453000Y-32003000D01*
X102453000Y-30612046D01*
X102278126Y-30485881D01*
X102055024Y-30565724D01*
X101867236Y-30687631D01*
X101706839Y-30843831D01*
X101579997Y-31028322D01*
X101491585Y-31234013D01*
X101445000Y-31453000D01*
X78690637Y-31453000D01*
X79519724Y-31104372D01*
X80743639Y-30615926D01*
X81976538Y-30149995D01*
X83217972Y-29706887D01*
X84467788Y-29286881D01*
X85725654Y-28890198D01*
X86991341Y-28517147D01*
X88264363Y-28168006D01*
X88622869Y-28077000D01*
X101445000Y-28077000D01*
X101445000Y-28377000D01*
X101491585Y-28595987D01*
X101579997Y-28801678D01*
X101706839Y-28986169D01*
X101867236Y-29142369D01*
X102055024Y-29264276D01*
X102278126Y-29344119D01*
X102453000Y-29217954D01*
X102453000Y-28077000D01*
X102707000Y-28077000D01*
X102707000Y-29217954D01*
X102881874Y-29344119D01*
X103104976Y-29264276D01*
X103292764Y-29142369D01*
X103453161Y-28986169D01*
X103580003Y-28801678D01*
X103668415Y-28595987D01*
X103715000Y-28377000D01*
X103715000Y-28077000D01*
X110085000Y-28077000D01*
X110085000Y-28377000D01*
X110131585Y-28595987D01*
X110219997Y-28801678D01*
X110346839Y-28986169D01*
X110507236Y-29142369D01*
X110695024Y-29264276D01*
X110918126Y-29344119D01*
X111093000Y-29217954D01*
X111093000Y-28077000D01*
X111347000Y-28077000D01*
X111347000Y-29217954D01*
X111521874Y-29344119D01*
X111744976Y-29264276D01*
X111932764Y-29142369D01*
X112093161Y-28986169D01*
X112220003Y-28801678D01*
X112308415Y-28595987D01*
X112355000Y-28377000D01*
X112355000Y-28077000D01*
X111347000Y-28077000D01*
X111093000Y-28077000D01*
X110085000Y-28077000D01*
X103715000Y-28077000D01*
X102707000Y-28077000D01*
X102453000Y-28077000D01*
X101445000Y-28077000D01*
X88622869Y-28077000D01*
X89544585Y-27843025D01*
X90831523Y-27542499D01*
X90922977Y-27523000D01*
X101445000Y-27523000D01*
X101445000Y-27823000D01*
X102453000Y-27823000D01*
X102453000Y-26682046D01*
X102707000Y-26682046D01*
X102707000Y-27823000D01*
X103715000Y-27823000D01*
X103715000Y-27523000D01*
X110085000Y-27523000D01*
X110085000Y-27823000D01*
X111093000Y-27823000D01*
X111093000Y-26682046D01*
X111347000Y-26682046D01*
X111347000Y-27823000D01*
X112355000Y-27823000D01*
X112355000Y-27523000D01*
X112308415Y-27304013D01*
X112220003Y-27098322D01*
X112093161Y-26913831D01*
X111932764Y-26757631D01*
X111744976Y-26635724D01*
X111521874Y-26555881D01*
X111347000Y-26682046D01*
X111093000Y-26682046D01*
X110918126Y-26555881D01*
X110695024Y-26635724D01*
X110507236Y-26757631D01*
X110346839Y-26913831D01*
X110219997Y-27098322D01*
X110131585Y-27304013D01*
X110085000Y-27523000D01*
X103715000Y-27523000D01*
X103668415Y-27304013D01*
X103580003Y-27098322D01*
X103453161Y-26913831D01*
X103292764Y-26757631D01*
X103104976Y-26635724D01*
X102881874Y-26555881D01*
X102707000Y-26682046D01*
X102453000Y-26682046D01*
X102278126Y-26555881D01*
X102055024Y-26635724D01*
X101867236Y-26757631D01*
X101706839Y-26913831D01*
X101579997Y-27098322D01*
X101491585Y-27304013D01*
X101445000Y-27523000D01*
X90922977Y-27523000D01*
X92125115Y-27266692D01*
X93424943Y-27015845D01*
X94705158Y-26794686D01*
X94706179Y-26794608D01*
X94738377Y-26788947D01*
X94770463Y-26783404D01*
X94771447Y-26783133D01*
X96048364Y-26558624D01*
X97353726Y-26355315D01*
X98661719Y-26177503D01*
X99971955Y-26025053D01*
X101284019Y-25897808D01*
X102597590Y-25795615D01*
X103912164Y-25718326D01*
X105227445Y-25665784D01*
X106543190Y-25637837D01*
X107858834Y-25634335D01*
X109174027Y-25655124D01*
%TA.AperFunction,Conductor*%
D27*
G36*
X109174027Y-25655124D02*
G01*
X110488468Y-25700050D01*
X111801805Y-25768963D01*
X113113537Y-25861707D01*
X114423443Y-25978131D01*
X115730973Y-26118073D01*
X117035995Y-26281401D01*
X118337798Y-26467934D01*
X119636362Y-26677541D01*
X120931120Y-26910064D01*
X122221613Y-27165339D01*
X123507582Y-27443215D01*
X124788641Y-27743526D01*
X126064421Y-28066153D01*
X127334519Y-28410891D01*
X128598553Y-28777633D01*
X129856275Y-29166209D01*
X131107024Y-29576429D01*
X132350732Y-30008163D01*
X133586691Y-30461275D01*
X134814759Y-30935603D01*
X136034892Y-31430972D01*
X137246024Y-31947200D01*
X138448219Y-32484154D01*
X139640504Y-33041684D01*
X140822931Y-33619657D01*
X141995537Y-34217954D01*
X143158050Y-34836257D01*
X144308597Y-35474479D01*
X145448483Y-36132631D01*
X146577240Y-36810283D01*
X147692927Y-37507339D01*
X148795919Y-38223838D01*
X149887006Y-38959555D01*
X150964091Y-39714109D01*
X152028264Y-40487567D01*
X153077643Y-41279706D01*
X154113979Y-42090347D01*
X155134352Y-42919327D01*
X156140014Y-43766560D01*
X157130586Y-44631826D01*
X158104392Y-45514988D01*
X159063401Y-46415943D01*
X160005179Y-47334253D01*
X160929209Y-48269970D01*
X161836559Y-49223284D01*
X162726865Y-50193412D01*
X163598270Y-51180477D01*
X164451799Y-52184314D01*
X165285555Y-53204924D01*
X166101419Y-54241883D01*
X166896420Y-55295188D01*
X167672644Y-56364675D01*
X168430577Y-57453894D01*
X169234507Y-58625110D01*
X170013124Y-59807896D01*
X170767940Y-61005498D01*
X171499045Y-62217368D01*
X172206531Y-63443284D01*
X172891169Y-64682468D01*
X173550922Y-65934219D01*
X174186113Y-67198755D01*
X174798484Y-68475125D01*
X175385006Y-69762699D01*
X175947911Y-71061446D01*
X176485963Y-72370506D01*
X176999227Y-73689535D01*
X177486739Y-75018005D01*
X177949504Y-76355465D01*
X178386536Y-77701644D01*
X178798800Y-79055774D01*
X179185269Y-80417332D01*
X179545917Y-81785814D01*
X179879834Y-83160917D01*
X180188046Y-84542322D01*
X180470457Y-85929302D01*
X180726125Y-87321409D01*
X180955988Y-88717820D01*
X181158092Y-90118384D01*
X181333470Y-91522899D01*
X181482102Y-92930533D01*
X181603962Y-94340735D01*
X181698069Y-95753031D01*
X181732824Y-96493534D01*
X181703494Y-96469463D01*
X181593180Y-96410498D01*
X181473482Y-96374188D01*
X181349000Y-96361928D01*
X177349000Y-96361928D01*
X177224518Y-96374188D01*
X177104820Y-96410498D01*
X176994506Y-96469463D01*
X176897815Y-96548815D01*
X176818463Y-96645506D01*
X176759498Y-96755820D01*
X176723188Y-96875518D01*
X176710928Y-97000000D01*
X176710928Y-97800000D01*
X176717323Y-97864928D01*
X176560063Y-97863992D01*
X176435420Y-97874483D01*
X176315219Y-97909089D01*
X176204078Y-97966481D01*
X176201885Y-97968229D01*
X176201885Y-76623514D01*
X176313517Y-76548924D01*
X176520360Y-76342081D01*
X176682875Y-76098860D01*
X176794817Y-75828607D01*
X176851885Y-75541709D01*
X176851885Y-75249189D01*
X176794817Y-74962291D01*
X176682875Y-74692038D01*
X176520360Y-74448817D01*
X176313517Y-74241974D01*
X176070296Y-74079459D01*
X175800043Y-73967517D01*
X175513145Y-73910449D01*
X175470195Y-73910449D01*
X175541642Y-73797077D01*
X175645820Y-73525244D01*
X175694964Y-73238310D01*
X175687185Y-72947302D01*
X175660138Y-72795867D01*
X175447673Y-72646112D01*
X174384564Y-73187793D01*
X174393644Y-73205613D01*
X174167328Y-73320927D01*
X174158248Y-73303107D01*
X173095139Y-73844788D01*
X173091409Y-74104700D01*
X173198025Y-74215593D01*
X173428883Y-74392936D01*
X173689904Y-74521833D01*
X173971055Y-74597330D01*
X174108124Y-74606389D01*
X174050895Y-74692038D01*
X173938953Y-74962291D01*
X173881885Y-75249189D01*
X173881885Y-75541709D01*
X173908078Y-75673388D01*
X160716467Y-88865000D01*
X117034747Y-88865000D01*
X117115990Y-88743411D01*
X117227932Y-88473158D01*
X117285000Y-88186260D01*
X117285000Y-87893740D01*
X117227932Y-87606842D01*
X117115990Y-87336589D01*
X116953475Y-87093368D01*
X116746632Y-86886525D01*
X116570594Y-86768900D01*
X116800269Y-86597588D01*
X116995178Y-86381355D01*
X117144157Y-86131252D01*
X117241481Y-85856891D01*
X117120814Y-85627000D01*
X115927000Y-85627000D01*
X115927000Y-85647000D01*
X115673000Y-85647000D01*
X115673000Y-85627000D01*
X115653000Y-85627000D01*
X115653000Y-85373000D01*
X115673000Y-85373000D01*
X115673000Y-84179845D01*
X115927000Y-84179845D01*
X115927000Y-85373000D01*
X117120814Y-85373000D01*
X117241481Y-85143109D01*
X117144157Y-84868748D01*
X116995178Y-84618645D01*
X116800269Y-84402412D01*
X116566920Y-84228359D01*
X116304099Y-84103175D01*
X116156890Y-84058524D01*
X115927000Y-84179845D01*
X115673000Y-84179845D01*
X115443110Y-84058524D01*
X115295901Y-84103175D01*
X115033080Y-84228359D01*
X114799731Y-84402412D01*
X114604822Y-84618645D01*
X114535195Y-84735534D01*
X114413475Y-84553368D01*
X114206632Y-84346525D01*
X113963411Y-84184010D01*
X113693158Y-84072068D01*
X113406260Y-84015000D01*
X113113740Y-84015000D01*
X112826842Y-84072068D01*
X112556589Y-84184010D01*
X112313368Y-84346525D01*
X112106525Y-84553368D01*
X111990000Y-84727760D01*
X111873475Y-84553368D01*
X111666632Y-84346525D01*
X111423411Y-84184010D01*
X111153158Y-84072068D01*
X110866260Y-84015000D01*
X110573740Y-84015000D01*
X110286842Y-84072068D01*
X110016589Y-84184010D01*
X109773368Y-84346525D01*
X109566525Y-84553368D01*
X109450000Y-84727760D01*
X109333475Y-84553368D01*
X109126632Y-84346525D01*
X108883411Y-84184010D01*
X108613158Y-84072068D01*
X108326260Y-84015000D01*
X108033740Y-84015000D01*
X107746842Y-84072068D01*
X107476589Y-84184010D01*
X107233368Y-84346525D01*
X107026525Y-84553368D01*
X106910000Y-84727760D01*
X106793475Y-84553368D01*
X106586632Y-84346525D01*
X106343411Y-84184010D01*
X106073158Y-84072068D01*
X105786260Y-84015000D01*
X105493740Y-84015000D01*
X105206842Y-84072068D01*
X104936589Y-84184010D01*
X104693368Y-84346525D01*
X104486525Y-84553368D01*
X104370000Y-84727760D01*
X104253475Y-84553368D01*
X104046632Y-84346525D01*
X103803411Y-84184010D01*
X103533158Y-84072068D01*
X103246260Y-84015000D01*
X102953740Y-84015000D01*
X102666842Y-84072068D01*
X102396589Y-84184010D01*
X102153368Y-84346525D01*
X101946525Y-84553368D01*
X101830000Y-84727760D01*
X101713475Y-84553368D01*
X101506632Y-84346525D01*
X101263411Y-84184010D01*
X100993158Y-84072068D01*
X100706260Y-84015000D01*
X100413740Y-84015000D01*
X100135000Y-84070445D01*
X100135000Y-59231951D01*
X165515582Y-59231951D01*
X165537571Y-59355087D01*
X165583161Y-59471567D01*
X166354944Y-60986278D01*
X166422381Y-61091626D01*
X166509075Y-61181794D01*
X166611694Y-61253315D01*
X166726295Y-61303442D01*
X166848472Y-61330249D01*
X166973532Y-61332705D01*
X167046515Y-61319672D01*
X167020138Y-61383352D01*
X166963070Y-61670250D01*
X166963070Y-61962770D01*
X167020138Y-62249668D01*
X167132080Y-62519921D01*
X167294595Y-62763142D01*
X167501438Y-62969985D01*
X167744659Y-63132500D01*
X168014912Y-63244442D01*
X168301810Y-63301510D01*
X168335159Y-63301510D01*
X168285216Y-63376255D01*
X168173274Y-63646508D01*
X168116206Y-63933406D01*
X168116206Y-64225926D01*
X168173274Y-64512824D01*
X168285216Y-64783077D01*
X168447731Y-65026298D01*
X168654574Y-65233141D01*
X168897795Y-65395656D01*
X169168048Y-65507598D01*
X169454946Y-65564666D01*
X169488296Y-65564666D01*
X169438352Y-65639412D01*
X169326410Y-65909665D01*
X169269342Y-66196563D01*
X169269342Y-66489083D01*
X169326410Y-66775981D01*
X169438352Y-67046234D01*
X169600867Y-67289455D01*
X169807710Y-67496298D01*
X170050931Y-67658813D01*
X170321184Y-67770755D01*
X170608082Y-67827823D01*
X170641430Y-67827823D01*
X170591487Y-67902568D01*
X170479545Y-68172821D01*
X170422477Y-68459719D01*
X170422477Y-68752239D01*
X170479545Y-69039137D01*
X170591487Y-69309390D01*
X170754002Y-69552611D01*
X170960845Y-69759454D01*
X171204066Y-69921969D01*
X171474319Y-70033911D01*
X171761217Y-70090979D01*
X171794567Y-70090979D01*
X171744623Y-70165725D01*
X171632681Y-70435978D01*
X171575613Y-70722876D01*
X171575613Y-71015396D01*
X171632681Y-71302294D01*
X171744623Y-71572547D01*
X171907138Y-71815768D01*
X172113981Y-72022611D01*
X172357202Y-72185126D01*
X172627455Y-72297068D01*
X172914353Y-72354136D01*
X172957302Y-72354136D01*
X172885856Y-72467507D01*
X172781678Y-72739340D01*
X172732534Y-73026274D01*
X172740313Y-73317282D01*
X172767360Y-73468717D01*
X172979825Y-73618472D01*
X174042934Y-73076791D01*
X174033854Y-73058971D01*
X174260170Y-72943657D01*
X174269250Y-72961477D01*
X175332359Y-72419796D01*
X175336089Y-72159884D01*
X175229473Y-72048991D01*
X174998615Y-71871648D01*
X174737594Y-71742751D01*
X174456443Y-71667254D01*
X174319375Y-71658196D01*
X174376603Y-71572547D01*
X174488545Y-71302294D01*
X174545613Y-71015396D01*
X174545613Y-70722876D01*
X174488545Y-70435978D01*
X174376603Y-70165725D01*
X174214088Y-69922504D01*
X174007245Y-69715661D01*
X173764024Y-69553146D01*
X173493771Y-69441204D01*
X173206873Y-69384136D01*
X173173523Y-69384136D01*
X173223467Y-69309390D01*
X173335409Y-69039137D01*
X173392477Y-68752239D01*
X173392477Y-68459719D01*
X173335409Y-68172821D01*
X173223467Y-67902568D01*
X173060952Y-67659347D01*
X172854109Y-67452504D01*
X172610888Y-67289989D01*
X172340635Y-67178047D01*
X172053737Y-67120979D01*
X172020389Y-67120979D01*
X172070332Y-67046234D01*
X172182274Y-66775981D01*
X172239342Y-66489083D01*
X172239342Y-66196563D01*
X172182274Y-65909665D01*
X172070332Y-65639412D01*
X171907817Y-65396191D01*
X171700974Y-65189348D01*
X171457753Y-65026833D01*
X171187500Y-64914891D01*
X170900602Y-64857823D01*
X170867252Y-64857823D01*
X170917196Y-64783077D01*
X171029138Y-64512824D01*
X171086206Y-64225926D01*
X171086206Y-63933406D01*
X171029138Y-63646508D01*
X170917196Y-63376255D01*
X170754681Y-63133034D01*
X170547838Y-62926191D01*
X170304617Y-62763676D01*
X170034364Y-62651734D01*
X169747466Y-62594666D01*
X169714117Y-62594666D01*
X169764060Y-62519921D01*
X169876002Y-62249668D01*
X169933070Y-61962770D01*
X169933070Y-61670250D01*
X169876002Y-61383352D01*
X169764060Y-61113099D01*
X169601545Y-60869878D01*
X169394702Y-60663035D01*
X169151481Y-60500520D01*
X168881228Y-60388578D01*
X168873607Y-60387062D01*
X168923375Y-60339212D01*
X168994896Y-60236593D01*
X169045023Y-60121992D01*
X169071830Y-59999815D01*
X169074286Y-59874755D01*
X169052297Y-59751619D01*
X169006707Y-59635139D01*
X168234924Y-58120428D01*
X168167487Y-58015080D01*
X168080793Y-57924912D01*
X167978174Y-57853391D01*
X167863573Y-57803264D01*
X167741396Y-57776457D01*
X167616336Y-57774001D01*
X167493200Y-57795990D01*
X167376720Y-57841580D01*
X165862009Y-58613363D01*
X165756661Y-58680800D01*
X165666493Y-58767494D01*
X165594972Y-58870113D01*
X165544845Y-58984714D01*
X165518038Y-59106891D01*
X165515582Y-59231951D01*
X100135000Y-59231951D01*
X100135000Y-55482818D01*
X151696787Y-55482818D01*
X152188946Y-56085149D01*
X153039933Y-56555063D01*
X153966243Y-56849929D01*
X154932281Y-56958414D01*
X155900921Y-56876351D01*
X156834938Y-56606893D01*
X157698440Y-56160394D01*
X157811054Y-56085149D01*
X158303213Y-55482818D01*
X155000000Y-52179605D01*
X151696787Y-55482818D01*
X100135000Y-55482818D01*
X100135000Y-51932281D01*
X150041586Y-51932281D01*
X150123649Y-52900921D01*
X150393107Y-53834938D01*
X150839606Y-54698440D01*
X150914851Y-54811054D01*
X151517182Y-55303213D01*
X154820395Y-52000000D01*
X155179605Y-52000000D01*
X158482818Y-55303213D01*
X159085149Y-54811054D01*
X159555063Y-53960067D01*
X159849929Y-53033757D01*
X159958414Y-52067719D01*
X159876351Y-51099079D01*
X159606893Y-50165062D01*
X159160394Y-49301560D01*
X159085149Y-49188946D01*
X158482818Y-48696787D01*
X155179605Y-52000000D01*
X154820395Y-52000000D01*
X151517182Y-48696787D01*
X150914851Y-49188946D01*
X150444937Y-50039933D01*
X150150071Y-50966243D01*
X150041586Y-51932281D01*
X100135000Y-51932281D01*
X100135000Y-48517182D01*
X151696787Y-48517182D01*
X155000000Y-51820395D01*
X158303213Y-48517182D01*
X157811054Y-47914851D01*
X156960067Y-47444937D01*
X156033757Y-47150071D01*
X155067719Y-47041586D01*
X154099079Y-47123649D01*
X153165062Y-47393107D01*
X152301560Y-47839606D01*
X152188946Y-47914851D01*
X151696787Y-48517182D01*
X100135000Y-48517182D01*
X100135000Y-39665867D01*
X105011433Y-34789436D01*
X105043291Y-34763291D01*
X105084058Y-34713617D01*
X105147636Y-34636146D01*
X105225172Y-34491087D01*
X105250354Y-34408072D01*
X105300000Y-34408072D01*
X105400000Y-34398223D01*
X105500000Y-34408072D01*
X105800000Y-34408072D01*
X105900000Y-34398223D01*
X106000000Y-34408072D01*
X106300000Y-34408072D01*
X106400000Y-34398223D01*
X106500000Y-34408072D01*
X106800000Y-34408072D01*
X106900000Y-34398223D01*
X107000000Y-34408072D01*
X107300000Y-34408072D01*
X107400000Y-34398223D01*
X107500000Y-34408072D01*
X107800000Y-34408072D01*
X107900000Y-34398223D01*
X108000000Y-34408072D01*
X108300000Y-34408072D01*
X108400000Y-34398223D01*
X108500000Y-34408072D01*
X108800000Y-34408072D01*
X108924482Y-34395812D01*
X108925000Y-34395655D01*
X108925518Y-34395812D01*
X109050000Y-34408072D01*
X109650000Y-34408072D01*
X109750000Y-34398223D01*
X109850000Y-34408072D01*
X109864250Y-34405000D01*
X109927625Y-34341625D01*
X110004494Y-34300537D01*
X110101185Y-34221185D01*
X110180537Y-34124494D01*
X110239502Y-34014180D01*
X110275812Y-33894482D01*
X110277000Y-33882420D01*
X110277000Y-34246250D01*
X110435750Y-34405000D01*
X110450000Y-34408072D01*
X110574482Y-34395812D01*
X110694180Y-34359502D01*
X110804494Y-34300537D01*
X110901185Y-34221185D01*
X110980537Y-34124494D01*
X111039502Y-34014180D01*
X111075812Y-33894482D01*
X111088072Y-33770000D01*
X111087247Y-33652104D01*
X111093000Y-33647954D01*
X111093000Y-32257000D01*
X111347000Y-32257000D01*
X111347000Y-33647954D01*
X111521874Y-33774119D01*
X111744976Y-33694276D01*
X111932764Y-33572369D01*
X112093161Y-33416169D01*
X112220003Y-33231678D01*
X112308415Y-33025987D01*
X112355000Y-32807000D01*
X112355000Y-32257000D01*
X111347000Y-32257000D01*
X111093000Y-32257000D01*
X111081867Y-32257000D01*
X111075812Y-32195518D01*
X111073000Y-32186248D01*
X111073000Y-32003000D01*
X111093000Y-32003000D01*
X111093000Y-30612046D01*
X111347000Y-30612046D01*
X111347000Y-32003000D01*
X112355000Y-32003000D01*
X112355000Y-31453000D01*
X112308415Y-31234013D01*
X112220003Y-31028322D01*
X112093161Y-30843831D01*
X111932764Y-30687631D01*
X111744976Y-30565724D01*
X111521874Y-30485881D01*
X111347000Y-30612046D01*
X111093000Y-30612046D01*
X110918126Y-30485881D01*
X110695024Y-30565724D01*
X110507236Y-30687631D01*
X110362884Y-30828206D01*
X110244731Y-30749259D01*
X110070022Y-30676892D01*
X109884552Y-30640000D01*
X109695448Y-30640000D01*
X109509978Y-30676892D01*
X109335269Y-30749259D01*
X109178036Y-30854319D01*
X109057552Y-30974803D01*
X108958017Y-30965000D01*
X108958016Y-30965000D01*
X108916998Y-30960960D01*
X108875980Y-30965000D01*
X104924009Y-30965000D01*
X104883001Y-30960961D01*
X104841993Y-30965000D01*
X104841983Y-30965000D01*
X104742448Y-30974803D01*
X104621964Y-30854319D01*
X104464731Y-30749259D01*
X104290022Y-30676892D01*
X104104552Y-30640000D01*
X103915448Y-30640000D01*
X103729978Y-30676892D01*
X103555269Y-30749259D01*
X103437116Y-30828206D01*
X103292764Y-30687631D01*
X103104976Y-30565724D01*
X102881874Y-30485881D01*
X102707000Y-30612046D01*
X102707000Y-32003000D01*
X102727000Y-32003000D01*
X102727000Y-32186248D01*
X102724188Y-32195518D01*
X102718133Y-32257000D01*
X102707000Y-32257000D01*
X102707000Y-33647954D01*
X102712753Y-33652104D01*
X102711928Y-33770000D01*
X102724188Y-33894482D01*
X102760498Y-34014180D01*
X102819463Y-34124494D01*
X102898815Y-34221185D01*
X102995506Y-34300537D01*
X103088752Y-34350379D01*
X98738574Y-38700559D01*
X98706710Y-38726709D01*
X98657392Y-38786803D01*
X98602364Y-38853855D01*
X98524828Y-38998914D01*
X98477082Y-39156312D01*
X98460960Y-39320000D01*
X98465001Y-39361029D01*
X98465000Y-84085249D01*
X98376890Y-84058524D01*
X98147000Y-84179845D01*
X98147000Y-85373000D01*
X98167000Y-85373000D01*
X98167000Y-85627000D01*
X98147000Y-85627000D01*
X98147000Y-85647000D01*
X97893000Y-85647000D01*
X97893000Y-85627000D01*
X96699186Y-85627000D01*
X96578519Y-85856891D01*
X96675843Y-86131252D01*
X96824822Y-86381355D01*
X97001626Y-86577502D01*
X96925820Y-86600498D01*
X96815506Y-86659463D01*
X96718815Y-86738815D01*
X96639463Y-86835506D01*
X96580498Y-86945820D01*
X96544188Y-87065518D01*
X96531928Y-87190000D01*
X96531928Y-88151060D01*
X93523977Y-85143109D01*
X96578519Y-85143109D01*
X96699186Y-85373000D01*
X97893000Y-85373000D01*
X97893000Y-84179845D01*
X97663110Y-84058524D01*
X97515901Y-84103175D01*
X97253080Y-84228359D01*
X97019731Y-84402412D01*
X96824822Y-84618645D01*
X96675843Y-84868748D01*
X96578519Y-85143109D01*
X93523977Y-85143109D01*
X73215402Y-64834535D01*
X73189247Y-64802665D01*
X73062102Y-64698320D01*
X72917043Y-64620784D01*
X72759645Y-64573038D01*
X72636975Y-64560956D01*
X72636974Y-64560956D01*
X72595956Y-64556916D01*
X72554938Y-64560956D01*
X44502333Y-64560956D01*
X44496924Y-64553745D01*
X44403786Y-64470250D01*
X44296149Y-64406530D01*
X42755426Y-63688079D01*
X42641653Y-63648069D01*
X43298840Y-62510616D01*
X43978391Y-61381863D01*
X44678175Y-60265359D01*
X45397753Y-59161419D01*
X46136924Y-58070399D01*
X46895383Y-56992565D01*
X47672661Y-55928119D01*
X48010028Y-55482818D01*
X55696787Y-55482818D01*
X56188946Y-56085149D01*
X57039933Y-56555063D01*
X57966243Y-56849929D01*
X58932281Y-56958414D01*
X59900921Y-56876351D01*
X60834938Y-56606893D01*
X61698440Y-56160394D01*
X61811054Y-56085149D01*
X62303213Y-55482818D01*
X59000000Y-52179605D01*
X55696787Y-55482818D01*
X48010028Y-55482818D01*
X48468718Y-54877381D01*
X49283012Y-53840612D01*
X50115450Y-52818100D01*
X50862603Y-51932281D01*
X54041586Y-51932281D01*
X54123649Y-52900921D01*
X54393107Y-53834938D01*
X54839606Y-54698440D01*
X54914851Y-54811054D01*
X55517182Y-55303213D01*
X58820395Y-52000000D01*
X59179605Y-52000000D01*
X62482818Y-55303213D01*
X63085149Y-54811054D01*
X63555063Y-53960067D01*
X63849929Y-53033757D01*
X63958414Y-52067719D01*
X63876351Y-51099079D01*
X63606893Y-50165062D01*
X63160394Y-49301560D01*
X63085149Y-49188946D01*
X62482818Y-48696787D01*
X59179605Y-52000000D01*
X58820395Y-52000000D01*
X55517182Y-48696787D01*
X54914851Y-49188946D01*
X54444937Y-50039933D01*
X54150071Y-50966243D01*
X54041586Y-51932281D01*
X50862603Y-51932281D01*
X50965597Y-51810173D01*
X51833206Y-50816992D01*
X52717883Y-49838853D01*
X53619461Y-48876227D01*
X53967534Y-48517182D01*
X55696787Y-48517182D01*
X59000000Y-51820395D01*
X62303213Y-48517182D01*
X61811054Y-47914851D01*
X60960067Y-47444937D01*
X60033757Y-47150071D01*
X59067719Y-47041586D01*
X58099079Y-47123649D01*
X57165062Y-47393107D01*
X56301560Y-47839606D01*
X56188946Y-47914851D01*
X55696787Y-48517182D01*
X53967534Y-48517182D01*
X54537561Y-47929188D01*
X55471877Y-46998144D01*
X56422166Y-46083239D01*
X57388031Y-45184870D01*
X58369270Y-44303243D01*
X59365433Y-43438601D01*
X60376354Y-42591409D01*
X61401819Y-41761601D01*
X62441316Y-40949768D01*
X63494527Y-40156120D01*
X64561333Y-39380892D01*
X65641262Y-38624338D01*
X66734178Y-37886810D01*
X67839659Y-37168421D01*
X68957409Y-36469568D01*
X70087105Y-35790622D01*
X71228488Y-35131687D01*
X72381220Y-34493137D01*
X73545171Y-33875175D01*
X74719764Y-33278110D01*
X75904856Y-32702248D01*
X76864664Y-32257000D01*
X101445000Y-32257000D01*
X101445000Y-32807000D01*
X101491585Y-33025987D01*
X101579997Y-33231678D01*
X101706839Y-33416169D01*
X101867236Y-33572369D01*
X102055024Y-33694276D01*
X102278126Y-33774119D01*
X102453000Y-33647954D01*
X102453000Y-32257000D01*
X101445000Y-32257000D01*
X76864664Y-32257000D01*
X77100051Y-32147806D01*
X78305138Y-31615101D01*
X78690637Y-31453000D01*
X101445000Y-31453000D01*
X101445000Y-32003000D01*
X102453000Y-32003000D01*
X102453000Y-30612046D01*
X102278126Y-30485881D01*
X102055024Y-30565724D01*
X101867236Y-30687631D01*
X101706839Y-30843831D01*
X101579997Y-31028322D01*
X101491585Y-31234013D01*
X101445000Y-31453000D01*
X78690637Y-31453000D01*
X79519724Y-31104372D01*
X80743639Y-30615926D01*
X81976538Y-30149995D01*
X83217972Y-29706887D01*
X84467788Y-29286881D01*
X85725654Y-28890198D01*
X86991341Y-28517147D01*
X88264363Y-28168006D01*
X88622869Y-28077000D01*
X101445000Y-28077000D01*
X101445000Y-28377000D01*
X101491585Y-28595987D01*
X101579997Y-28801678D01*
X101706839Y-28986169D01*
X101867236Y-29142369D01*
X102055024Y-29264276D01*
X102278126Y-29344119D01*
X102453000Y-29217954D01*
X102453000Y-28077000D01*
X102707000Y-28077000D01*
X102707000Y-29217954D01*
X102881874Y-29344119D01*
X103104976Y-29264276D01*
X103292764Y-29142369D01*
X103453161Y-28986169D01*
X103580003Y-28801678D01*
X103668415Y-28595987D01*
X103715000Y-28377000D01*
X103715000Y-28077000D01*
X110085000Y-28077000D01*
X110085000Y-28377000D01*
X110131585Y-28595987D01*
X110219997Y-28801678D01*
X110346839Y-28986169D01*
X110507236Y-29142369D01*
X110695024Y-29264276D01*
X110918126Y-29344119D01*
X111093000Y-29217954D01*
X111093000Y-28077000D01*
X111347000Y-28077000D01*
X111347000Y-29217954D01*
X111521874Y-29344119D01*
X111744976Y-29264276D01*
X111932764Y-29142369D01*
X112093161Y-28986169D01*
X112220003Y-28801678D01*
X112308415Y-28595987D01*
X112355000Y-28377000D01*
X112355000Y-28077000D01*
X111347000Y-28077000D01*
X111093000Y-28077000D01*
X110085000Y-28077000D01*
X103715000Y-28077000D01*
X102707000Y-28077000D01*
X102453000Y-28077000D01*
X101445000Y-28077000D01*
X88622869Y-28077000D01*
X89544585Y-27843025D01*
X90831523Y-27542499D01*
X90922977Y-27523000D01*
X101445000Y-27523000D01*
X101445000Y-27823000D01*
X102453000Y-27823000D01*
X102453000Y-26682046D01*
X102707000Y-26682046D01*
X102707000Y-27823000D01*
X103715000Y-27823000D01*
X103715000Y-27523000D01*
X110085000Y-27523000D01*
X110085000Y-27823000D01*
X111093000Y-27823000D01*
X111093000Y-26682046D01*
X111347000Y-26682046D01*
X111347000Y-27823000D01*
X112355000Y-27823000D01*
X112355000Y-27523000D01*
X112308415Y-27304013D01*
X112220003Y-27098322D01*
X112093161Y-26913831D01*
X111932764Y-26757631D01*
X111744976Y-26635724D01*
X111521874Y-26555881D01*
X111347000Y-26682046D01*
X111093000Y-26682046D01*
X110918126Y-26555881D01*
X110695024Y-26635724D01*
X110507236Y-26757631D01*
X110346839Y-26913831D01*
X110219997Y-27098322D01*
X110131585Y-27304013D01*
X110085000Y-27523000D01*
X103715000Y-27523000D01*
X103668415Y-27304013D01*
X103580003Y-27098322D01*
X103453161Y-26913831D01*
X103292764Y-26757631D01*
X103104976Y-26635724D01*
X102881874Y-26555881D01*
X102707000Y-26682046D01*
X102453000Y-26682046D01*
X102278126Y-26555881D01*
X102055024Y-26635724D01*
X101867236Y-26757631D01*
X101706839Y-26913831D01*
X101579997Y-27098322D01*
X101491585Y-27304013D01*
X101445000Y-27523000D01*
X90922977Y-27523000D01*
X92125115Y-27266692D01*
X93424943Y-27015845D01*
X94705158Y-26794686D01*
X94706179Y-26794608D01*
X94738377Y-26788947D01*
X94770463Y-26783404D01*
X94771447Y-26783133D01*
X96048364Y-26558624D01*
X97353726Y-26355315D01*
X98661719Y-26177503D01*
X99971955Y-26025053D01*
X101284019Y-25897808D01*
X102597590Y-25795615D01*
X103912164Y-25718326D01*
X105227445Y-25665784D01*
X106543190Y-25637837D01*
X107858834Y-25634335D01*
X109174027Y-25655124D01*
G37*
%TD.AperFunction*%
D26*
X96180559Y-90161427D02*
X96206709Y-90193291D01*
X96333854Y-90297636D01*
X96478913Y-90375172D01*
X96636311Y-90422918D01*
X96758981Y-90435000D01*
X96758991Y-90435000D01*
X96799999Y-90439039D01*
X96841007Y-90435000D01*
X96984133Y-90435000D01*
X96679143Y-90739990D01*
X83266028Y-90739990D01*
X83225010Y-90735950D01*
X83183992Y-90739990D01*
X36190857Y-90739990D01*
X36260214Y-90674675D01*
X36429134Y-90437585D01*
X36498669Y-90300366D01*
X36419112Y-90052901D01*
X35244083Y-89845712D01*
X35240610Y-89865408D01*
X34990469Y-89821301D01*
X34993942Y-89801605D01*
X34974246Y-89798132D01*
X35018353Y-89547991D01*
X35038049Y-89551464D01*
X35041522Y-89531768D01*
X35291663Y-89575875D01*
X35288190Y-89595571D01*
X36463218Y-89802760D01*
X36622616Y-89597430D01*
X36604206Y-89444704D01*
X36526562Y-89164137D01*
X36395674Y-88904109D01*
X36216572Y-88674613D01*
X36112502Y-88584843D01*
X36285544Y-88513167D01*
X36528765Y-88350652D01*
X36735608Y-88143809D01*
X36898123Y-87900588D01*
X37010065Y-87630335D01*
X37067133Y-87343437D01*
X37067133Y-87050917D01*
X37010065Y-86764019D01*
X36898123Y-86493766D01*
X36735608Y-86250545D01*
X36564122Y-86079059D01*
X36726610Y-86011755D01*
X36969831Y-85849240D01*
X37176674Y-85642397D01*
X37339189Y-85399176D01*
X37451131Y-85128923D01*
X37508199Y-84842025D01*
X37508199Y-84549505D01*
X37451131Y-84262607D01*
X37339189Y-83992354D01*
X37176674Y-83749133D01*
X36969831Y-83542290D01*
X36726610Y-83379775D01*
X36456357Y-83267833D01*
X36169459Y-83210765D01*
X35876939Y-83210765D01*
X35590041Y-83267833D01*
X35319788Y-83379775D01*
X35076567Y-83542290D01*
X34982879Y-83635978D01*
X35058347Y-83305813D01*
X35377656Y-82023845D01*
X35715515Y-80771989D01*
X35715870Y-80771042D01*
X35724268Y-80739557D01*
X35732784Y-80708002D01*
X35732951Y-80707001D01*
X36067774Y-79451673D01*
X36433885Y-78179630D01*
X36824318Y-76915937D01*
X37238808Y-75660915D01*
X37676998Y-74414913D01*
X38138643Y-73178192D01*
X38281906Y-72815543D01*
X38360560Y-73005432D01*
X38523075Y-73248653D01*
X38729918Y-73455496D01*
X38973139Y-73618011D01*
X39243392Y-73729953D01*
X39530290Y-73787021D01*
X39822810Y-73787021D01*
X40109708Y-73729953D01*
X40379961Y-73618011D01*
X40623182Y-73455496D01*
X40830025Y-73248653D01*
X40992540Y-73005432D01*
X41104482Y-72735179D01*
X41161550Y-72448281D01*
X41161550Y-72155761D01*
X41104482Y-71868863D01*
X40992540Y-71598610D01*
X40914239Y-71481424D01*
X41183158Y-71427932D01*
X41453411Y-71315990D01*
X41696632Y-71153475D01*
X41903475Y-70946632D01*
X42065990Y-70703411D01*
X42177932Y-70433158D01*
X42235000Y-70146260D01*
X42235000Y-69853740D01*
X42177932Y-69566842D01*
X42065990Y-69296589D01*
X41979775Y-69167560D01*
X42117126Y-69153654D01*
X42395472Y-69068390D01*
X42651835Y-68930462D01*
X42876363Y-68745171D01*
X42979044Y-68630624D01*
X42966245Y-68371001D01*
X41884880Y-67866752D01*
X41876428Y-67884878D01*
X41646225Y-67777533D01*
X41654677Y-67759407D01*
X41636551Y-67750955D01*
X41743896Y-67520752D01*
X41762022Y-67529204D01*
X41770474Y-67511078D01*
X42000677Y-67618423D01*
X41992225Y-67636549D01*
X43073590Y-68140799D01*
X43280700Y-67983720D01*
X43302446Y-67831433D01*
X43300064Y-67540331D01*
X43240935Y-67255287D01*
X43196776Y-67151097D01*
X43280205Y-67163008D01*
X43405103Y-67156189D01*
X43526270Y-67125135D01*
X43639052Y-67071038D01*
X43739112Y-66995979D01*
X43822607Y-66902841D01*
X43886327Y-66795204D01*
X44149440Y-66230956D01*
X72250089Y-66230956D01*
X96180559Y-90161427D01*
%TA.AperFunction,Conductor*%
D27*
G36*
X96180559Y-90161427D02*
G01*
X96206709Y-90193291D01*
X96333854Y-90297636D01*
X96478913Y-90375172D01*
X96636311Y-90422918D01*
X96758981Y-90435000D01*
X96758991Y-90435000D01*
X96799999Y-90439039D01*
X96841007Y-90435000D01*
X96984133Y-90435000D01*
X96679143Y-90739990D01*
X83266028Y-90739990D01*
X83225010Y-90735950D01*
X83183992Y-90739990D01*
X36190857Y-90739990D01*
X36260214Y-90674675D01*
X36429134Y-90437585D01*
X36498669Y-90300366D01*
X36419112Y-90052901D01*
X35244083Y-89845712D01*
X35240610Y-89865408D01*
X34990469Y-89821301D01*
X34993942Y-89801605D01*
X34974246Y-89798132D01*
X35018353Y-89547991D01*
X35038049Y-89551464D01*
X35041522Y-89531768D01*
X35291663Y-89575875D01*
X35288190Y-89595571D01*
X36463218Y-89802760D01*
X36622616Y-89597430D01*
X36604206Y-89444704D01*
X36526562Y-89164137D01*
X36395674Y-88904109D01*
X36216572Y-88674613D01*
X36112502Y-88584843D01*
X36285544Y-88513167D01*
X36528765Y-88350652D01*
X36735608Y-88143809D01*
X36898123Y-87900588D01*
X37010065Y-87630335D01*
X37067133Y-87343437D01*
X37067133Y-87050917D01*
X37010065Y-86764019D01*
X36898123Y-86493766D01*
X36735608Y-86250545D01*
X36564122Y-86079059D01*
X36726610Y-86011755D01*
X36969831Y-85849240D01*
X37176674Y-85642397D01*
X37339189Y-85399176D01*
X37451131Y-85128923D01*
X37508199Y-84842025D01*
X37508199Y-84549505D01*
X37451131Y-84262607D01*
X37339189Y-83992354D01*
X37176674Y-83749133D01*
X36969831Y-83542290D01*
X36726610Y-83379775D01*
X36456357Y-83267833D01*
X36169459Y-83210765D01*
X35876939Y-83210765D01*
X35590041Y-83267833D01*
X35319788Y-83379775D01*
X35076567Y-83542290D01*
X34982879Y-83635978D01*
X35058347Y-83305813D01*
X35377656Y-82023845D01*
X35715515Y-80771989D01*
X35715870Y-80771042D01*
X35724268Y-80739557D01*
X35732784Y-80708002D01*
X35732951Y-80707001D01*
X36067774Y-79451673D01*
X36433885Y-78179630D01*
X36824318Y-76915937D01*
X37238808Y-75660915D01*
X37676998Y-74414913D01*
X38138643Y-73178192D01*
X38281906Y-72815543D01*
X38360560Y-73005432D01*
X38523075Y-73248653D01*
X38729918Y-73455496D01*
X38973139Y-73618011D01*
X39243392Y-73729953D01*
X39530290Y-73787021D01*
X39822810Y-73787021D01*
X40109708Y-73729953D01*
X40379961Y-73618011D01*
X40623182Y-73455496D01*
X40830025Y-73248653D01*
X40992540Y-73005432D01*
X41104482Y-72735179D01*
X41161550Y-72448281D01*
X41161550Y-72155761D01*
X41104482Y-71868863D01*
X40992540Y-71598610D01*
X40914239Y-71481424D01*
X41183158Y-71427932D01*
X41453411Y-71315990D01*
X41696632Y-71153475D01*
X41903475Y-70946632D01*
X42065990Y-70703411D01*
X42177932Y-70433158D01*
X42235000Y-70146260D01*
X42235000Y-69853740D01*
X42177932Y-69566842D01*
X42065990Y-69296589D01*
X41979775Y-69167560D01*
X42117126Y-69153654D01*
X42395472Y-69068390D01*
X42651835Y-68930462D01*
X42876363Y-68745171D01*
X42979044Y-68630624D01*
X42966245Y-68371001D01*
X41884880Y-67866752D01*
X41876428Y-67884878D01*
X41646225Y-67777533D01*
X41654677Y-67759407D01*
X41636551Y-67750955D01*
X41743896Y-67520752D01*
X41762022Y-67529204D01*
X41770474Y-67511078D01*
X42000677Y-67618423D01*
X41992225Y-67636549D01*
X43073590Y-68140799D01*
X43280700Y-67983720D01*
X43302446Y-67831433D01*
X43300064Y-67540331D01*
X43240935Y-67255287D01*
X43196776Y-67151097D01*
X43280205Y-67163008D01*
X43405103Y-67156189D01*
X43526270Y-67125135D01*
X43639052Y-67071038D01*
X43739112Y-66995979D01*
X43822607Y-66902841D01*
X43886327Y-66795204D01*
X44149440Y-66230956D01*
X72250089Y-66230956D01*
X96180559Y-90161427D01*
G37*
%TD.AperFunction*%
%TD*%
M02*
