%TF.GenerationSoftware,KiCad,Pcbnew,(5.1.10-1-10_14)*%
%TF.CreationDate,2021-10-01T16:25:32+02:00*%
%TF.ProjectId,Launchpad,4c61756e-6368-4706-9164-2e6b69636164,rev?*%
%TF.SameCoordinates,Original*%
%TF.FileFunction,Paste,Bot*%
%TF.FilePolarity,Positive*%
%FSLAX46Y46*%
G04 Gerber Fmt 4.6, Leading zero omitted, Abs format (unit mm)*
G04 Created by KiCad (PCBNEW (5.1.10-1-10_14)) date 2021-10-01 16:25:32*
%MOMM*%
%LPD*%
G01*
G04 APERTURE LIST*
%ADD10C,0.100000*%
%ADD11R,1.600000X0.400000*%
%ADD12R,4.000000X0.800000*%
%ADD13R,0.300000X1.450000*%
%ADD14R,0.600000X1.450000*%
G04 APERTURE END LIST*
D10*
%TO.C,J3*%
G36*
X137317014Y-157909407D02*
G01*
X138009834Y-157509407D01*
X139509834Y-160107483D01*
X138817014Y-160507483D01*
X137317014Y-157909407D01*
G37*
G36*
X139048699Y-156910773D02*
G01*
X139741519Y-156510773D01*
X141241519Y-159108849D01*
X140548699Y-159508849D01*
X139048699Y-156910773D01*
G37*
G36*
X137593913Y-164105011D02*
G01*
X138892951Y-163355011D01*
X140642951Y-166386099D01*
X139343913Y-167136099D01*
X137593913Y-164105011D01*
G37*
G36*
X147134049Y-158597011D02*
G01*
X148433087Y-157847011D01*
X150183087Y-160878099D01*
X148884049Y-161628099D01*
X147134049Y-158597011D01*
G37*
G36*
X140777053Y-155916371D02*
G01*
X141469873Y-155516371D01*
X142969873Y-158114447D01*
X142277053Y-158514447D01*
X140777053Y-155916371D01*
G37*
G36*
X142507604Y-154913773D02*
G01*
X143200424Y-154513773D01*
X144700424Y-157111849D01*
X144007604Y-157511849D01*
X142507604Y-154913773D01*
G37*
%TD*%
%TO.C,J4*%
G36*
X76237373Y-157663693D02*
G01*
X76930193Y-158063693D01*
X75430193Y-160661769D01*
X74737373Y-160261769D01*
X76237373Y-157663693D01*
G37*
G36*
X75452499Y-163619135D02*
G01*
X76491729Y-164219135D01*
X74741729Y-167250223D01*
X73702499Y-166650223D01*
X75452499Y-163619135D01*
G37*
G36*
X67658271Y-159119135D02*
G01*
X68697501Y-159719135D01*
X66947501Y-162750223D01*
X65908271Y-162150223D01*
X67658271Y-159119135D01*
G37*
G36*
X74506188Y-156664193D02*
G01*
X75199008Y-157064193D01*
X73699008Y-159662269D01*
X73006188Y-159262269D01*
X74506188Y-156664193D01*
G37*
G36*
X72773271Y-155663693D02*
G01*
X73466091Y-156063693D01*
X71966091Y-158661769D01*
X71273271Y-158261769D01*
X72773271Y-155663693D01*
G37*
%TD*%
D11*
%TO.C,J5*%
X177351000Y-98702000D03*
X177351000Y-99702000D03*
X177351000Y-100702000D03*
X177351000Y-101702000D03*
D12*
X179349000Y-97400000D03*
X179349000Y-103000000D03*
%TD*%
D13*
%TO.C,J1*%
X106650000Y-33045000D03*
X108650000Y-33045000D03*
X108150000Y-33045000D03*
X107650000Y-33045000D03*
X107150000Y-33045000D03*
X106150000Y-33045000D03*
X105650000Y-33045000D03*
X105150000Y-33045000D03*
D14*
X110150000Y-33045000D03*
X109350000Y-33045000D03*
X104450000Y-33045000D03*
X103650000Y-33045000D03*
X103650000Y-33045000D03*
X104450000Y-33045000D03*
X109350000Y-33045000D03*
X110150000Y-33045000D03*
%TD*%
M02*
