%TF.GenerationSoftware,KiCad,Pcbnew,(5.1.10-1-10_14)*%
%TF.CreationDate,2021-10-01T16:25:32+02:00*%
%TF.ProjectId,Launchpad,4c61756e-6368-4706-9164-2e6b69636164,rev?*%
%TF.SameCoordinates,Original*%
%TF.FileFunction,Legend,Bot*%
%TF.FilePolarity,Positive*%
%FSLAX46Y46*%
G04 Gerber Fmt 4.6, Leading zero omitted, Abs format (unit mm)*
G04 Created by KiCad (PCBNEW (5.1.10-1-10_14)) date 2021-10-01 16:25:32*
%MOMM*%
%LPD*%
G01*
G04 APERTURE LIST*
%ADD10C,0.120000*%
%ADD11C,0.150000*%
%ADD12C,0.200000*%
%ADD13C,0.254000*%
%ADD14C,0.010000*%
G04 APERTURE END LIST*
D10*
X41811745Y-63286313D02*
X55406361Y-69625587D01*
X37374254Y-72802545D02*
X50968869Y-79141819D01*
X55406361Y-69625587D02*
X50968869Y-79141819D01*
D11*
X112995238Y-167827380D02*
X113566666Y-167827380D01*
X113280952Y-167827380D02*
X113280952Y-166827380D01*
X113376190Y-166970238D01*
X113471428Y-167065476D01*
X113566666Y-167113095D01*
X112566666Y-167732142D02*
X112519047Y-167779761D01*
X112566666Y-167827380D01*
X112614285Y-167779761D01*
X112566666Y-167732142D01*
X112566666Y-167827380D01*
X112185714Y-166827380D02*
X111566666Y-166827380D01*
X111900000Y-167208333D01*
X111757142Y-167208333D01*
X111661904Y-167255952D01*
X111614285Y-167303571D01*
X111566666Y-167398809D01*
X111566666Y-167636904D01*
X111614285Y-167732142D01*
X111661904Y-167779761D01*
X111757142Y-167827380D01*
X112042857Y-167827380D01*
X112138095Y-167779761D01*
X112185714Y-167732142D01*
X111138095Y-166827380D02*
X111138095Y-166875000D01*
X111185714Y-166970238D01*
X111233333Y-167017857D01*
X110757142Y-166827380D02*
X110757142Y-166875000D01*
X110804761Y-166970238D01*
X110852380Y-167017857D01*
X109423809Y-166827380D02*
X109233333Y-166827380D01*
X109138095Y-166875000D01*
X109042857Y-166970238D01*
X108995238Y-167160714D01*
X108995238Y-167494047D01*
X109042857Y-167684523D01*
X109138095Y-167779761D01*
X109233333Y-167827380D01*
X109423809Y-167827380D01*
X109519047Y-167779761D01*
X109614285Y-167684523D01*
X109661904Y-167494047D01*
X109661904Y-167160714D01*
X109614285Y-166970238D01*
X109519047Y-166875000D01*
X109423809Y-166827380D01*
X108090476Y-167827380D02*
X108566666Y-167827380D01*
X108566666Y-166827380D01*
X107757142Y-167303571D02*
X107423809Y-167303571D01*
X107280952Y-167827380D02*
X107757142Y-167827380D01*
X107757142Y-166827380D01*
X107280952Y-166827380D01*
X106852380Y-167827380D02*
X106852380Y-166827380D01*
X106614285Y-166827380D01*
X106471428Y-166875000D01*
X106376190Y-166970238D01*
X106328571Y-167065476D01*
X106280952Y-167255952D01*
X106280952Y-167398809D01*
X106328571Y-167589285D01*
X106376190Y-167684523D01*
X106471428Y-167779761D01*
X106614285Y-167827380D01*
X106852380Y-167827380D01*
X104661904Y-167827380D02*
X104661904Y-166827380D01*
X104661904Y-167779761D02*
X104757142Y-167827380D01*
X104947619Y-167827380D01*
X105042857Y-167779761D01*
X105090476Y-167732142D01*
X105138095Y-167636904D01*
X105138095Y-167351190D01*
X105090476Y-167255952D01*
X105042857Y-167208333D01*
X104947619Y-167160714D01*
X104757142Y-167160714D01*
X104661904Y-167208333D01*
X104185714Y-167827380D02*
X104185714Y-167160714D01*
X104185714Y-166827380D02*
X104233333Y-166875000D01*
X104185714Y-166922619D01*
X104138095Y-166875000D01*
X104185714Y-166827380D01*
X104185714Y-166922619D01*
X103757142Y-167779761D02*
X103661904Y-167827380D01*
X103471428Y-167827380D01*
X103376190Y-167779761D01*
X103328571Y-167684523D01*
X103328571Y-167636904D01*
X103376190Y-167541666D01*
X103471428Y-167494047D01*
X103614285Y-167494047D01*
X103709523Y-167446428D01*
X103757142Y-167351190D01*
X103757142Y-167303571D01*
X103709523Y-167208333D01*
X103614285Y-167160714D01*
X103471428Y-167160714D01*
X103376190Y-167208333D01*
X102900000Y-167160714D02*
X102900000Y-168160714D01*
X102900000Y-167208333D02*
X102804761Y-167160714D01*
X102614285Y-167160714D01*
X102519047Y-167208333D01*
X102471428Y-167255952D01*
X102423809Y-167351190D01*
X102423809Y-167636904D01*
X102471428Y-167732142D01*
X102519047Y-167779761D01*
X102614285Y-167827380D01*
X102804761Y-167827380D01*
X102900000Y-167779761D01*
X101852380Y-167827380D02*
X101947619Y-167779761D01*
X101995238Y-167684523D01*
X101995238Y-166827380D01*
X101042857Y-167827380D02*
X101042857Y-167303571D01*
X101090476Y-167208333D01*
X101185714Y-167160714D01*
X101376190Y-167160714D01*
X101471428Y-167208333D01*
X101042857Y-167779761D02*
X101138095Y-167827380D01*
X101376190Y-167827380D01*
X101471428Y-167779761D01*
X101519047Y-167684523D01*
X101519047Y-167589285D01*
X101471428Y-167494047D01*
X101376190Y-167446428D01*
X101138095Y-167446428D01*
X101042857Y-167398809D01*
X100661904Y-167160714D02*
X100423809Y-167827380D01*
X100185714Y-167160714D02*
X100423809Y-167827380D01*
X100519047Y-168065476D01*
X100566666Y-168113095D01*
X100661904Y-168160714D01*
X113185714Y-168953571D02*
X113519047Y-168953571D01*
X113519047Y-169477380D02*
X113519047Y-168477380D01*
X113042857Y-168477380D01*
X112233333Y-169477380D02*
X112233333Y-168953571D01*
X112280952Y-168858333D01*
X112376190Y-168810714D01*
X112566666Y-168810714D01*
X112661904Y-168858333D01*
X112233333Y-169429761D02*
X112328571Y-169477380D01*
X112566666Y-169477380D01*
X112661904Y-169429761D01*
X112709523Y-169334523D01*
X112709523Y-169239285D01*
X112661904Y-169144047D01*
X112566666Y-169096428D01*
X112328571Y-169096428D01*
X112233333Y-169048809D01*
X111328571Y-169429761D02*
X111423809Y-169477380D01*
X111614285Y-169477380D01*
X111709523Y-169429761D01*
X111757142Y-169382142D01*
X111804761Y-169286904D01*
X111804761Y-169001190D01*
X111757142Y-168905952D01*
X111709523Y-168858333D01*
X111614285Y-168810714D01*
X111423809Y-168810714D01*
X111328571Y-168858333D01*
X110900000Y-169477380D02*
X110900000Y-168810714D01*
X110900000Y-168477380D02*
X110947619Y-168525000D01*
X110900000Y-168572619D01*
X110852380Y-168525000D01*
X110900000Y-168477380D01*
X110900000Y-168572619D01*
X110423809Y-168810714D02*
X110423809Y-169477380D01*
X110423809Y-168905952D02*
X110376190Y-168858333D01*
X110280952Y-168810714D01*
X110138095Y-168810714D01*
X110042857Y-168858333D01*
X109995238Y-168953571D01*
X109995238Y-169477380D01*
X109090476Y-168810714D02*
X109090476Y-169620238D01*
X109138095Y-169715476D01*
X109185714Y-169763095D01*
X109280952Y-169810714D01*
X109423809Y-169810714D01*
X109519047Y-169763095D01*
X109090476Y-169429761D02*
X109185714Y-169477380D01*
X109376190Y-169477380D01*
X109471428Y-169429761D01*
X109519047Y-169382142D01*
X109566666Y-169286904D01*
X109566666Y-169001190D01*
X109519047Y-168905952D01*
X109471428Y-168858333D01*
X109376190Y-168810714D01*
X109185714Y-168810714D01*
X109090476Y-168858333D01*
X107423809Y-169477380D02*
X107423809Y-168477380D01*
X107423809Y-169429761D02*
X107519047Y-169477380D01*
X107709523Y-169477380D01*
X107804761Y-169429761D01*
X107852380Y-169382142D01*
X107900000Y-169286904D01*
X107900000Y-169001190D01*
X107852380Y-168905952D01*
X107804761Y-168858333D01*
X107709523Y-168810714D01*
X107519047Y-168810714D01*
X107423809Y-168858333D01*
X106804761Y-169477380D02*
X106900000Y-169429761D01*
X106947619Y-169382142D01*
X106995238Y-169286904D01*
X106995238Y-169001190D01*
X106947619Y-168905952D01*
X106900000Y-168858333D01*
X106804761Y-168810714D01*
X106661904Y-168810714D01*
X106566666Y-168858333D01*
X106519047Y-168905952D01*
X106471428Y-169001190D01*
X106471428Y-169286904D01*
X106519047Y-169382142D01*
X106566666Y-169429761D01*
X106661904Y-169477380D01*
X106804761Y-169477380D01*
X106138095Y-168810714D02*
X105947619Y-169477380D01*
X105757142Y-169001190D01*
X105566666Y-169477380D01*
X105376190Y-168810714D01*
X104995238Y-168810714D02*
X104995238Y-169477380D01*
X104995238Y-168905952D02*
X104947619Y-168858333D01*
X104852380Y-168810714D01*
X104709523Y-168810714D01*
X104614285Y-168858333D01*
X104566666Y-168953571D01*
X104566666Y-169477380D01*
X104185714Y-168810714D02*
X103995238Y-169477380D01*
X103804761Y-169001190D01*
X103614285Y-169477380D01*
X103423809Y-168810714D01*
X102614285Y-169477380D02*
X102614285Y-168953571D01*
X102661904Y-168858333D01*
X102757142Y-168810714D01*
X102947619Y-168810714D01*
X103042857Y-168858333D01*
X102614285Y-169429761D02*
X102709523Y-169477380D01*
X102947619Y-169477380D01*
X103042857Y-169429761D01*
X103090476Y-169334523D01*
X103090476Y-169239285D01*
X103042857Y-169144047D01*
X102947619Y-169096428D01*
X102709523Y-169096428D01*
X102614285Y-169048809D01*
X102138095Y-169477380D02*
X102138095Y-168810714D01*
X102138095Y-169001190D02*
X102090476Y-168905952D01*
X102042857Y-168858333D01*
X101947619Y-168810714D01*
X101852380Y-168810714D01*
X101090476Y-169477380D02*
X101090476Y-168477380D01*
X101090476Y-169429761D02*
X101185714Y-169477380D01*
X101376190Y-169477380D01*
X101471428Y-169429761D01*
X101519047Y-169382142D01*
X101566666Y-169286904D01*
X101566666Y-169001190D01*
X101519047Y-168905952D01*
X101471428Y-168858333D01*
X101376190Y-168810714D01*
X101185714Y-168810714D01*
X101090476Y-168858333D01*
X100661904Y-169429761D02*
X100566666Y-169477380D01*
X100376190Y-169477380D01*
X100280952Y-169429761D01*
X100233333Y-169334523D01*
X100233333Y-169286904D01*
X100280952Y-169191666D01*
X100376190Y-169144047D01*
X100519047Y-169144047D01*
X100614285Y-169096428D01*
X100661904Y-169001190D01*
X100661904Y-168953571D01*
X100614285Y-168858333D01*
X100519047Y-168810714D01*
X100376190Y-168810714D01*
X100280952Y-168858333D01*
D12*
X125142857Y-112053571D02*
X124857142Y-112053571D01*
X124714285Y-112125000D01*
X124571428Y-112267857D01*
X124500000Y-112553571D01*
X124500000Y-113053571D01*
X124571428Y-113339285D01*
X124714285Y-113482142D01*
X124857142Y-113553571D01*
X125142857Y-113553571D01*
X125285714Y-113482142D01*
X125428571Y-113339285D01*
X125500000Y-113053571D01*
X125500000Y-112553571D01*
X125428571Y-112267857D01*
X125285714Y-112125000D01*
X125142857Y-112053571D01*
X124071428Y-112553571D02*
X123500000Y-112553571D01*
X123857142Y-113553571D02*
X123857142Y-112267857D01*
X123785714Y-112125000D01*
X123642857Y-112053571D01*
X123500000Y-112053571D01*
X123214285Y-112553571D02*
X122642857Y-112553571D01*
X123000000Y-113553571D02*
X123000000Y-112267857D01*
X122928571Y-112125000D01*
X122785714Y-112053571D01*
X122642857Y-112053571D01*
X121571428Y-113482142D02*
X121714285Y-113553571D01*
X122000000Y-113553571D01*
X122142857Y-113482142D01*
X122214285Y-113339285D01*
X122214285Y-112767857D01*
X122142857Y-112625000D01*
X122000000Y-112553571D01*
X121714285Y-112553571D01*
X121571428Y-112625000D01*
X121500000Y-112767857D01*
X121500000Y-112910714D01*
X122214285Y-113053571D01*
X120857142Y-112553571D02*
X120857142Y-113553571D01*
X120857142Y-112696428D02*
X120785714Y-112625000D01*
X120642857Y-112553571D01*
X120428571Y-112553571D01*
X120285714Y-112625000D01*
X120214285Y-112767857D01*
X120214285Y-113553571D01*
X119571428Y-113482142D02*
X119428571Y-113553571D01*
X119142857Y-113553571D01*
X119000000Y-113482142D01*
X118928571Y-113339285D01*
X118928571Y-113267857D01*
X119000000Y-113125000D01*
X119142857Y-113053571D01*
X119357142Y-113053571D01*
X119500000Y-112982142D01*
X119571428Y-112839285D01*
X119571428Y-112767857D01*
X119500000Y-112625000D01*
X119357142Y-112553571D01*
X119142857Y-112553571D01*
X119000000Y-112625000D01*
X118285714Y-113553571D02*
X118285714Y-112553571D01*
X118285714Y-112053571D02*
X118357142Y-112125000D01*
X118285714Y-112196428D01*
X118214285Y-112125000D01*
X118285714Y-112053571D01*
X118285714Y-112196428D01*
X117714285Y-112553571D02*
X117357142Y-113553571D01*
X117000000Y-112553571D01*
X115857142Y-113482142D02*
X116000000Y-113553571D01*
X116285714Y-113553571D01*
X116428571Y-113482142D01*
X116500000Y-113339285D01*
X116500000Y-112767857D01*
X116428571Y-112625000D01*
X116285714Y-112553571D01*
X116000000Y-112553571D01*
X115857142Y-112625000D01*
X115785714Y-112767857D01*
X115785714Y-112910714D01*
X116500000Y-113053571D01*
X113714285Y-112053571D02*
X113428571Y-112053571D01*
X113285714Y-112125000D01*
X113142857Y-112267857D01*
X113071428Y-112553571D01*
X113071428Y-113053571D01*
X113142857Y-113339285D01*
X113285714Y-113482142D01*
X113428571Y-113553571D01*
X113714285Y-113553571D01*
X113857142Y-113482142D01*
X114000000Y-113339285D01*
X114071428Y-113053571D01*
X114071428Y-112553571D01*
X114000000Y-112267857D01*
X113857142Y-112125000D01*
X113714285Y-112053571D01*
X112642857Y-112553571D02*
X112071428Y-112553571D01*
X112428571Y-113553571D02*
X112428571Y-112267857D01*
X112357142Y-112125000D01*
X112214285Y-112053571D01*
X112071428Y-112053571D01*
X111785714Y-112553571D02*
X111214285Y-112553571D01*
X111571428Y-113553571D02*
X111571428Y-112267857D01*
X111500000Y-112125000D01*
X111357142Y-112053571D01*
X111214285Y-112053571D01*
X110785714Y-113482142D02*
X110642857Y-113553571D01*
X110357142Y-113553571D01*
X110214285Y-113482142D01*
X110142857Y-113339285D01*
X110142857Y-113267857D01*
X110214285Y-113125000D01*
X110357142Y-113053571D01*
X110571428Y-113053571D01*
X110714285Y-112982142D01*
X110785714Y-112839285D01*
X110785714Y-112767857D01*
X110714285Y-112625000D01*
X110571428Y-112553571D01*
X110357142Y-112553571D01*
X110214285Y-112625000D01*
X109500000Y-113553571D02*
X109500000Y-112553571D01*
X109500000Y-112053571D02*
X109571428Y-112125000D01*
X109500000Y-112196428D01*
X109428571Y-112125000D01*
X109500000Y-112053571D01*
X109500000Y-112196428D01*
X109000000Y-112553571D02*
X108428571Y-112553571D01*
X108785714Y-112053571D02*
X108785714Y-113339285D01*
X108714285Y-113482142D01*
X108571428Y-113553571D01*
X108428571Y-113553571D01*
X107357142Y-113482142D02*
X107500000Y-113553571D01*
X107785714Y-113553571D01*
X107928571Y-113482142D01*
X108000000Y-113339285D01*
X108000000Y-112767857D01*
X107928571Y-112625000D01*
X107785714Y-112553571D01*
X107500000Y-112553571D01*
X107357142Y-112625000D01*
X107285714Y-112767857D01*
X107285714Y-112910714D01*
X108000000Y-113053571D01*
X105214285Y-112053571D02*
X104928571Y-112053571D01*
X104785714Y-112125000D01*
X104642857Y-112267857D01*
X104571428Y-112553571D01*
X104571428Y-113053571D01*
X104642857Y-113339285D01*
X104785714Y-113482142D01*
X104928571Y-113553571D01*
X105214285Y-113553571D01*
X105357142Y-113482142D01*
X105500000Y-113339285D01*
X105571428Y-113053571D01*
X105571428Y-112553571D01*
X105500000Y-112267857D01*
X105357142Y-112125000D01*
X105214285Y-112053571D01*
X103928571Y-112553571D02*
X103928571Y-114053571D01*
X103928571Y-112625000D02*
X103785714Y-112553571D01*
X103500000Y-112553571D01*
X103357142Y-112625000D01*
X103285714Y-112696428D01*
X103214285Y-112839285D01*
X103214285Y-113267857D01*
X103285714Y-113410714D01*
X103357142Y-113482142D01*
X103500000Y-113553571D01*
X103785714Y-113553571D01*
X103928571Y-113482142D01*
X102000000Y-113482142D02*
X102142857Y-113553571D01*
X102428571Y-113553571D01*
X102571428Y-113482142D01*
X102642857Y-113339285D01*
X102642857Y-112767857D01*
X102571428Y-112625000D01*
X102428571Y-112553571D01*
X102142857Y-112553571D01*
X102000000Y-112625000D01*
X101928571Y-112767857D01*
X101928571Y-112910714D01*
X102642857Y-113053571D01*
X101285714Y-113553571D02*
X101285714Y-112553571D01*
X101285714Y-112839285D02*
X101214285Y-112696428D01*
X101142857Y-112625000D01*
X101000000Y-112553571D01*
X100857142Y-112553571D01*
X99714285Y-113553571D02*
X99714285Y-112767857D01*
X99785714Y-112625000D01*
X99928571Y-112553571D01*
X100214285Y-112553571D01*
X100357142Y-112625000D01*
X99714285Y-113482142D02*
X99857142Y-113553571D01*
X100214285Y-113553571D01*
X100357142Y-113482142D01*
X100428571Y-113339285D01*
X100428571Y-113196428D01*
X100357142Y-113053571D01*
X100214285Y-112982142D01*
X99857142Y-112982142D01*
X99714285Y-112910714D01*
X99214285Y-112553571D02*
X98642857Y-112553571D01*
X99000000Y-112053571D02*
X99000000Y-113339285D01*
X98928571Y-113482142D01*
X98785714Y-113553571D01*
X98642857Y-113553571D01*
X98142857Y-113553571D02*
X98142857Y-112553571D01*
X98142857Y-112053571D02*
X98214285Y-112125000D01*
X98142857Y-112196428D01*
X98071428Y-112125000D01*
X98142857Y-112053571D01*
X98142857Y-112196428D01*
X97214285Y-113553571D02*
X97357142Y-113482142D01*
X97428571Y-113410714D01*
X97500000Y-113267857D01*
X97500000Y-112839285D01*
X97428571Y-112696428D01*
X97357142Y-112625000D01*
X97214285Y-112553571D01*
X97000000Y-112553571D01*
X96857142Y-112625000D01*
X96785714Y-112696428D01*
X96714285Y-112839285D01*
X96714285Y-113267857D01*
X96785714Y-113410714D01*
X96857142Y-113482142D01*
X97000000Y-113553571D01*
X97214285Y-113553571D01*
X96071428Y-112553571D02*
X96071428Y-113553571D01*
X96071428Y-112696428D02*
X96000000Y-112625000D01*
X95857142Y-112553571D01*
X95642857Y-112553571D01*
X95500000Y-112625000D01*
X95428571Y-112767857D01*
X95428571Y-113553571D01*
X93642857Y-112196428D02*
X93571428Y-112125000D01*
X93428571Y-112053571D01*
X93071428Y-112053571D01*
X92928571Y-112125000D01*
X92857142Y-112196428D01*
X92785714Y-112339285D01*
X92785714Y-112482142D01*
X92857142Y-112696428D01*
X93714285Y-113553571D01*
X92785714Y-113553571D01*
X91857142Y-112053571D02*
X91714285Y-112053571D01*
X91571428Y-112125000D01*
X91500000Y-112196428D01*
X91428571Y-112339285D01*
X91357142Y-112625000D01*
X91357142Y-112982142D01*
X91428571Y-113267857D01*
X91500000Y-113410714D01*
X91571428Y-113482142D01*
X91714285Y-113553571D01*
X91857142Y-113553571D01*
X92000000Y-113482142D01*
X92071428Y-113410714D01*
X92142857Y-113267857D01*
X92214285Y-112982142D01*
X92214285Y-112625000D01*
X92142857Y-112339285D01*
X92071428Y-112196428D01*
X92000000Y-112125000D01*
X91857142Y-112053571D01*
X90785714Y-112196428D02*
X90714285Y-112125000D01*
X90571428Y-112053571D01*
X90214285Y-112053571D01*
X90071428Y-112125000D01*
X90000000Y-112196428D01*
X89928571Y-112339285D01*
X89928571Y-112482142D01*
X90000000Y-112696428D01*
X90857142Y-113553571D01*
X89928571Y-113553571D01*
X88500000Y-113553571D02*
X89357142Y-113553571D01*
X88928571Y-113553571D02*
X88928571Y-112053571D01*
X89071428Y-112267857D01*
X89214285Y-112410714D01*
X89357142Y-112482142D01*
X115285714Y-116003571D02*
X116000000Y-116003571D01*
X116000000Y-114503571D01*
X114142857Y-116003571D02*
X114142857Y-115217857D01*
X114214285Y-115075000D01*
X114357142Y-115003571D01*
X114642857Y-115003571D01*
X114785714Y-115075000D01*
X114142857Y-115932142D02*
X114285714Y-116003571D01*
X114642857Y-116003571D01*
X114785714Y-115932142D01*
X114857142Y-115789285D01*
X114857142Y-115646428D01*
X114785714Y-115503571D01*
X114642857Y-115432142D01*
X114285714Y-115432142D01*
X114142857Y-115360714D01*
X112785714Y-115003571D02*
X112785714Y-116003571D01*
X113428571Y-115003571D02*
X113428571Y-115789285D01*
X113357142Y-115932142D01*
X113214285Y-116003571D01*
X113000000Y-116003571D01*
X112857142Y-115932142D01*
X112785714Y-115860714D01*
X112071428Y-115003571D02*
X112071428Y-116003571D01*
X112071428Y-115146428D02*
X112000000Y-115075000D01*
X111857142Y-115003571D01*
X111642857Y-115003571D01*
X111500000Y-115075000D01*
X111428571Y-115217857D01*
X111428571Y-116003571D01*
X110071428Y-115932142D02*
X110214285Y-116003571D01*
X110500000Y-116003571D01*
X110642857Y-115932142D01*
X110714285Y-115860714D01*
X110785714Y-115717857D01*
X110785714Y-115289285D01*
X110714285Y-115146428D01*
X110642857Y-115075000D01*
X110500000Y-115003571D01*
X110214285Y-115003571D01*
X110071428Y-115075000D01*
X109428571Y-116003571D02*
X109428571Y-114503571D01*
X108785714Y-116003571D02*
X108785714Y-115217857D01*
X108857142Y-115075000D01*
X109000000Y-115003571D01*
X109214285Y-115003571D01*
X109357142Y-115075000D01*
X109428571Y-115146428D01*
X106928571Y-116003571D02*
X106928571Y-114503571D01*
X106357142Y-114503571D01*
X106214285Y-114575000D01*
X106142857Y-114646428D01*
X106071428Y-114789285D01*
X106071428Y-115003571D01*
X106142857Y-115146428D01*
X106214285Y-115217857D01*
X106357142Y-115289285D01*
X106928571Y-115289285D01*
X105214285Y-116003571D02*
X105357142Y-115932142D01*
X105428571Y-115789285D01*
X105428571Y-114503571D01*
X104000000Y-116003571D02*
X104000000Y-115217857D01*
X104071428Y-115075000D01*
X104214285Y-115003571D01*
X104500000Y-115003571D01*
X104642857Y-115075000D01*
X104000000Y-115932142D02*
X104142857Y-116003571D01*
X104500000Y-116003571D01*
X104642857Y-115932142D01*
X104714285Y-115789285D01*
X104714285Y-115646428D01*
X104642857Y-115503571D01*
X104500000Y-115432142D01*
X104142857Y-115432142D01*
X104000000Y-115360714D01*
X103500000Y-115003571D02*
X102928571Y-115003571D01*
X103285714Y-114503571D02*
X103285714Y-115789285D01*
X103214285Y-115932142D01*
X103071428Y-116003571D01*
X102928571Y-116003571D01*
X102642857Y-115003571D02*
X102071428Y-115003571D01*
X102428571Y-116003571D02*
X102428571Y-114717857D01*
X102357142Y-114575000D01*
X102214285Y-114503571D01*
X102071428Y-114503571D01*
X101357142Y-116003571D02*
X101500000Y-115932142D01*
X101571428Y-115860714D01*
X101642857Y-115717857D01*
X101642857Y-115289285D01*
X101571428Y-115146428D01*
X101500000Y-115075000D01*
X101357142Y-115003571D01*
X101142857Y-115003571D01*
X101000000Y-115075000D01*
X100928571Y-115146428D01*
X100857142Y-115289285D01*
X100857142Y-115717857D01*
X100928571Y-115860714D01*
X101000000Y-115932142D01*
X101142857Y-116003571D01*
X101357142Y-116003571D01*
X100214285Y-116003571D02*
X100214285Y-115003571D01*
X100214285Y-115289285D02*
X100142857Y-115146428D01*
X100071428Y-115075000D01*
X99928571Y-115003571D01*
X99785714Y-115003571D01*
X99285714Y-116003571D02*
X99285714Y-115003571D01*
X99285714Y-115146428D02*
X99214285Y-115075000D01*
X99071428Y-115003571D01*
X98857142Y-115003571D01*
X98714285Y-115075000D01*
X98642857Y-115217857D01*
X98642857Y-116003571D01*
X98642857Y-115217857D02*
X98571428Y-115075000D01*
X98428571Y-115003571D01*
X98214285Y-115003571D01*
X98071428Y-115075000D01*
X98000000Y-115217857D01*
X98000000Y-116003571D01*
X116250000Y-120903571D02*
X116250000Y-119403571D01*
X115750000Y-120475000D01*
X115250000Y-119403571D01*
X115250000Y-120903571D01*
X113892857Y-120903571D02*
X113892857Y-120117857D01*
X113964285Y-119975000D01*
X114107142Y-119903571D01*
X114392857Y-119903571D01*
X114535714Y-119975000D01*
X113892857Y-120832142D02*
X114035714Y-120903571D01*
X114392857Y-120903571D01*
X114535714Y-120832142D01*
X114607142Y-120689285D01*
X114607142Y-120546428D01*
X114535714Y-120403571D01*
X114392857Y-120332142D01*
X114035714Y-120332142D01*
X113892857Y-120260714D01*
X113321428Y-120903571D02*
X112535714Y-119903571D01*
X113321428Y-119903571D02*
X112535714Y-120903571D01*
X109892857Y-120189285D02*
X109964285Y-120117857D01*
X110107142Y-120046428D01*
X110250000Y-120046428D01*
X110392857Y-120117857D01*
X110464285Y-120189285D01*
X110535714Y-120332142D01*
X110535714Y-120475000D01*
X110464285Y-120617857D01*
X110392857Y-120689285D01*
X110250000Y-120760714D01*
X110107142Y-120760714D01*
X109964285Y-120689285D01*
X109892857Y-120617857D01*
X109892857Y-120046428D02*
X109892857Y-120617857D01*
X109821428Y-120689285D01*
X109750000Y-120689285D01*
X109607142Y-120617857D01*
X109535714Y-120475000D01*
X109535714Y-120117857D01*
X109678571Y-119903571D01*
X109892857Y-119760714D01*
X110178571Y-119689285D01*
X110464285Y-119760714D01*
X110678571Y-119903571D01*
X110821428Y-120117857D01*
X110892857Y-120403571D01*
X110821428Y-120689285D01*
X110678571Y-120903571D01*
X110464285Y-121046428D01*
X110178571Y-121117857D01*
X109892857Y-121046428D01*
X109678571Y-120903571D01*
X108892857Y-120903571D02*
X108892857Y-119903571D01*
X108892857Y-120046428D02*
X108821428Y-119975000D01*
X108678571Y-119903571D01*
X108464285Y-119903571D01*
X108321428Y-119975000D01*
X108250000Y-120117857D01*
X108250000Y-120903571D01*
X108250000Y-120117857D02*
X108178571Y-119975000D01*
X108035714Y-119903571D01*
X107821428Y-119903571D01*
X107678571Y-119975000D01*
X107607142Y-120117857D01*
X107607142Y-120903571D01*
X106250000Y-120903571D02*
X106250000Y-120117857D01*
X106321428Y-119975000D01*
X106464285Y-119903571D01*
X106750000Y-119903571D01*
X106892857Y-119975000D01*
X106250000Y-120832142D02*
X106392857Y-120903571D01*
X106750000Y-120903571D01*
X106892857Y-120832142D01*
X106964285Y-120689285D01*
X106964285Y-120546428D01*
X106892857Y-120403571D01*
X106750000Y-120332142D01*
X106392857Y-120332142D01*
X106250000Y-120260714D01*
X105678571Y-120903571D02*
X104892857Y-119903571D01*
X105678571Y-119903571D02*
X104892857Y-120903571D01*
X104678571Y-121046428D02*
X103535714Y-121046428D01*
X103535714Y-121046428D02*
X102392857Y-121046428D01*
X101392857Y-119903571D02*
X101392857Y-121117857D01*
X101464285Y-121260714D01*
X101535714Y-121332142D01*
X101678571Y-121403571D01*
X101892857Y-121403571D01*
X102035714Y-121332142D01*
X101392857Y-120832142D02*
X101535714Y-120903571D01*
X101821428Y-120903571D01*
X101964285Y-120832142D01*
X102035714Y-120760714D01*
X102107142Y-120617857D01*
X102107142Y-120189285D01*
X102035714Y-120046428D01*
X101964285Y-119975000D01*
X101821428Y-119903571D01*
X101535714Y-119903571D01*
X101392857Y-119975000D01*
X100678571Y-120903571D02*
X100678571Y-119903571D01*
X100678571Y-120189285D02*
X100607142Y-120046428D01*
X100535714Y-119975000D01*
X100392857Y-119903571D01*
X100250000Y-119903571D01*
X99750000Y-120903571D02*
X99750000Y-119903571D01*
X99750000Y-119403571D02*
X99821428Y-119475000D01*
X99750000Y-119546428D01*
X99678571Y-119475000D01*
X99750000Y-119403571D01*
X99750000Y-119546428D01*
X99035714Y-120903571D02*
X99035714Y-119903571D01*
X99035714Y-120046428D02*
X98964285Y-119975000D01*
X98821428Y-119903571D01*
X98607142Y-119903571D01*
X98464285Y-119975000D01*
X98392857Y-120117857D01*
X98392857Y-120903571D01*
X98392857Y-120117857D02*
X98321428Y-119975000D01*
X98178571Y-119903571D01*
X97964285Y-119903571D01*
X97821428Y-119975000D01*
X97750000Y-120117857D01*
X97750000Y-120903571D01*
X116964285Y-121853571D02*
X116964285Y-122925000D01*
X117035714Y-123139285D01*
X117178571Y-123282142D01*
X117392857Y-123353571D01*
X117535714Y-123353571D01*
X115607142Y-123353571D02*
X115607142Y-122567857D01*
X115678571Y-122425000D01*
X115821428Y-122353571D01*
X116107142Y-122353571D01*
X116250000Y-122425000D01*
X115607142Y-123282142D02*
X115750000Y-123353571D01*
X116107142Y-123353571D01*
X116250000Y-123282142D01*
X116321428Y-123139285D01*
X116321428Y-122996428D01*
X116250000Y-122853571D01*
X116107142Y-122782142D01*
X115750000Y-122782142D01*
X115607142Y-122710714D01*
X114892857Y-123353571D02*
X114892857Y-122353571D01*
X114892857Y-122496428D02*
X114821428Y-122425000D01*
X114678571Y-122353571D01*
X114464285Y-122353571D01*
X114321428Y-122425000D01*
X114250000Y-122567857D01*
X114250000Y-123353571D01*
X114250000Y-122567857D02*
X114178571Y-122425000D01*
X114035714Y-122353571D01*
X113821428Y-122353571D01*
X113678571Y-122425000D01*
X113607142Y-122567857D01*
X113607142Y-123353571D01*
X112321428Y-123282142D02*
X112464285Y-123353571D01*
X112750000Y-123353571D01*
X112892857Y-123282142D01*
X112964285Y-123139285D01*
X112964285Y-122567857D01*
X112892857Y-122425000D01*
X112750000Y-122353571D01*
X112464285Y-122353571D01*
X112321428Y-122425000D01*
X112250000Y-122567857D01*
X112250000Y-122710714D01*
X112964285Y-122853571D01*
X111678571Y-123282142D02*
X111535714Y-123353571D01*
X111250000Y-123353571D01*
X111107142Y-123282142D01*
X111035714Y-123139285D01*
X111035714Y-123067857D01*
X111107142Y-122925000D01*
X111250000Y-122853571D01*
X111464285Y-122853571D01*
X111607142Y-122782142D01*
X111678571Y-122639285D01*
X111678571Y-122567857D01*
X111607142Y-122425000D01*
X111464285Y-122353571D01*
X111250000Y-122353571D01*
X111107142Y-122425000D01*
X108321428Y-122639285D02*
X108392857Y-122567857D01*
X108535714Y-122496428D01*
X108678571Y-122496428D01*
X108821428Y-122567857D01*
X108892857Y-122639285D01*
X108964285Y-122782142D01*
X108964285Y-122925000D01*
X108892857Y-123067857D01*
X108821428Y-123139285D01*
X108678571Y-123210714D01*
X108535714Y-123210714D01*
X108392857Y-123139285D01*
X108321428Y-123067857D01*
X108321428Y-122496428D02*
X108321428Y-123067857D01*
X108250000Y-123139285D01*
X108178571Y-123139285D01*
X108035714Y-123067857D01*
X107964285Y-122925000D01*
X107964285Y-122567857D01*
X108107142Y-122353571D01*
X108321428Y-122210714D01*
X108607142Y-122139285D01*
X108892857Y-122210714D01*
X109107142Y-122353571D01*
X109250000Y-122567857D01*
X109321428Y-122853571D01*
X109250000Y-123139285D01*
X109107142Y-123353571D01*
X108892857Y-123496428D01*
X108607142Y-123567857D01*
X108321428Y-123496428D01*
X108107142Y-123353571D01*
X107678571Y-123496428D02*
X106535714Y-123496428D01*
X106178571Y-123353571D02*
X106178571Y-122353571D01*
X106178571Y-121853571D02*
X106250000Y-121925000D01*
X106178571Y-121996428D01*
X106107142Y-121925000D01*
X106178571Y-121853571D01*
X106178571Y-121996428D01*
X105464285Y-122353571D02*
X105464285Y-123353571D01*
X105464285Y-122496428D02*
X105392857Y-122425000D01*
X105250000Y-122353571D01*
X105035714Y-122353571D01*
X104892857Y-122425000D01*
X104821428Y-122567857D01*
X104821428Y-123353571D01*
X104321428Y-122353571D02*
X103750000Y-122353571D01*
X104107142Y-123353571D02*
X104107142Y-122067857D01*
X104035714Y-121925000D01*
X103892857Y-121853571D01*
X103750000Y-121853571D01*
X102607142Y-122353571D02*
X102607142Y-123353571D01*
X102964285Y-121782142D02*
X103321428Y-122853571D01*
X102392857Y-122853571D01*
X101821428Y-123353571D02*
X101821428Y-122353571D01*
X101821428Y-122496428D02*
X101750000Y-122425000D01*
X101607142Y-122353571D01*
X101392857Y-122353571D01*
X101250000Y-122425000D01*
X101178571Y-122567857D01*
X101178571Y-123353571D01*
X101178571Y-122567857D02*
X101107142Y-122425000D01*
X100964285Y-122353571D01*
X100750000Y-122353571D01*
X100607142Y-122425000D01*
X100535714Y-122567857D01*
X100535714Y-123353571D01*
X99607142Y-123353571D02*
X99750000Y-123282142D01*
X99821428Y-123210714D01*
X99892857Y-123067857D01*
X99892857Y-122639285D01*
X99821428Y-122496428D01*
X99750000Y-122425000D01*
X99607142Y-122353571D01*
X99392857Y-122353571D01*
X99250000Y-122425000D01*
X99178571Y-122496428D01*
X99107142Y-122639285D01*
X99107142Y-123067857D01*
X99178571Y-123210714D01*
X99250000Y-123282142D01*
X99392857Y-123353571D01*
X99607142Y-123353571D01*
X97821428Y-122353571D02*
X97821428Y-123353571D01*
X98464285Y-122353571D02*
X98464285Y-123139285D01*
X98392857Y-123282142D01*
X98250000Y-123353571D01*
X98035714Y-123353571D01*
X97892857Y-123282142D01*
X97821428Y-123210714D01*
X97178571Y-123282142D02*
X97035714Y-123353571D01*
X96750000Y-123353571D01*
X96607142Y-123282142D01*
X96535714Y-123139285D01*
X96535714Y-123067857D01*
X96607142Y-122925000D01*
X96750000Y-122853571D01*
X96964285Y-122853571D01*
X97107142Y-122782142D01*
X97178571Y-122639285D01*
X97178571Y-122567857D01*
X97107142Y-122425000D01*
X96964285Y-122353571D01*
X96750000Y-122353571D01*
X96607142Y-122425000D01*
X116964285Y-124303571D02*
X116678571Y-124303571D01*
X116535714Y-124375000D01*
X116392857Y-124517857D01*
X116321428Y-124803571D01*
X116321428Y-125303571D01*
X116392857Y-125589285D01*
X116535714Y-125732142D01*
X116678571Y-125803571D01*
X116964285Y-125803571D01*
X117107142Y-125732142D01*
X117250000Y-125589285D01*
X117321428Y-125303571D01*
X117321428Y-124803571D01*
X117250000Y-124517857D01*
X117107142Y-124375000D01*
X116964285Y-124303571D01*
X115464285Y-125803571D02*
X115607142Y-125732142D01*
X115678571Y-125589285D01*
X115678571Y-124303571D01*
X114250000Y-125803571D02*
X114250000Y-125017857D01*
X114321428Y-124875000D01*
X114464285Y-124803571D01*
X114750000Y-124803571D01*
X114892857Y-124875000D01*
X114250000Y-125732142D02*
X114392857Y-125803571D01*
X114750000Y-125803571D01*
X114892857Y-125732142D01*
X114964285Y-125589285D01*
X114964285Y-125446428D01*
X114892857Y-125303571D01*
X114750000Y-125232142D01*
X114392857Y-125232142D01*
X114250000Y-125160714D01*
X113750000Y-124803571D02*
X113178571Y-124803571D01*
X113535714Y-125803571D02*
X113535714Y-124517857D01*
X113464285Y-124375000D01*
X113321428Y-124303571D01*
X113178571Y-124303571D01*
X110607142Y-125089285D02*
X110678571Y-125017857D01*
X110821428Y-124946428D01*
X110964285Y-124946428D01*
X111107142Y-125017857D01*
X111178571Y-125089285D01*
X111249999Y-125232142D01*
X111249999Y-125375000D01*
X111178571Y-125517857D01*
X111107142Y-125589285D01*
X110964285Y-125660714D01*
X110821428Y-125660714D01*
X110678571Y-125589285D01*
X110607142Y-125517857D01*
X110607142Y-124946428D02*
X110607142Y-125517857D01*
X110535714Y-125589285D01*
X110464285Y-125589285D01*
X110321428Y-125517857D01*
X110250000Y-125375000D01*
X110250000Y-125017857D01*
X110392857Y-124803571D01*
X110607142Y-124660714D01*
X110892857Y-124589285D01*
X111178571Y-124660714D01*
X111392857Y-124803571D01*
X111535714Y-125017857D01*
X111607142Y-125303571D01*
X111535714Y-125589285D01*
X111392857Y-125803571D01*
X111178571Y-125946428D01*
X110892857Y-126017857D01*
X110607142Y-125946428D01*
X110392857Y-125803571D01*
X109392857Y-125803571D02*
X109535714Y-125732142D01*
X109607142Y-125660714D01*
X109678571Y-125517857D01*
X109678571Y-125089285D01*
X109607142Y-124946428D01*
X109535714Y-124875000D01*
X109392857Y-124803571D01*
X109178571Y-124803571D01*
X109035714Y-124875000D01*
X108964285Y-124946428D01*
X108892857Y-125089285D01*
X108892857Y-125517857D01*
X108964285Y-125660714D01*
X109035714Y-125732142D01*
X109178571Y-125803571D01*
X109392857Y-125803571D01*
X108035714Y-125803571D02*
X108178571Y-125732142D01*
X108250000Y-125589285D01*
X108250000Y-124303571D01*
X106821428Y-125803571D02*
X106821428Y-125017857D01*
X106892857Y-124875000D01*
X107035714Y-124803571D01*
X107321428Y-124803571D01*
X107464285Y-124875000D01*
X106821428Y-125732142D02*
X106964285Y-125803571D01*
X107321428Y-125803571D01*
X107464285Y-125732142D01*
X107535714Y-125589285D01*
X107535714Y-125446428D01*
X107464285Y-125303571D01*
X107321428Y-125232142D01*
X106964285Y-125232142D01*
X106821428Y-125160714D01*
X106321428Y-124803571D02*
X105750000Y-124803571D01*
X106107142Y-125803571D02*
X106107142Y-124517857D01*
X106035714Y-124375000D01*
X105892857Y-124303571D01*
X105750000Y-124303571D01*
X105250000Y-125803571D02*
X105250000Y-124303571D01*
X104607142Y-125803571D02*
X104607142Y-125017857D01*
X104678571Y-124875000D01*
X104821428Y-124803571D01*
X105035714Y-124803571D01*
X105178571Y-124875000D01*
X105250000Y-124946428D01*
X103250000Y-125803571D02*
X103250000Y-125017857D01*
X103321428Y-124875000D01*
X103464285Y-124803571D01*
X103750000Y-124803571D01*
X103892857Y-124875000D01*
X103250000Y-125732142D02*
X103392857Y-125803571D01*
X103750000Y-125803571D01*
X103892857Y-125732142D01*
X103964285Y-125589285D01*
X103964285Y-125446428D01*
X103892857Y-125303571D01*
X103750000Y-125232142D01*
X103392857Y-125232142D01*
X103250000Y-125160714D01*
X101892857Y-125803571D02*
X101892857Y-125017857D01*
X101964285Y-124875000D01*
X102107142Y-124803571D01*
X102392857Y-124803571D01*
X102535714Y-124875000D01*
X101892857Y-125732142D02*
X102035714Y-125803571D01*
X102392857Y-125803571D01*
X102535714Y-125732142D01*
X102607142Y-125589285D01*
X102607142Y-125446428D01*
X102535714Y-125303571D01*
X102392857Y-125232142D01*
X102035714Y-125232142D01*
X101892857Y-125160714D01*
X100964285Y-125803571D02*
X101107142Y-125732142D01*
X101178571Y-125589285D01*
X101178571Y-124303571D01*
X100464285Y-125732142D02*
X100321428Y-125803571D01*
X100035714Y-125803571D01*
X99892857Y-125732142D01*
X99821428Y-125589285D01*
X99821428Y-125517857D01*
X99892857Y-125375000D01*
X100035714Y-125303571D01*
X100250000Y-125303571D01*
X100392857Y-125232142D01*
X100464285Y-125089285D01*
X100464285Y-125017857D01*
X100392857Y-124875000D01*
X100250000Y-124803571D01*
X100035714Y-124803571D01*
X99892857Y-124875000D01*
X99392857Y-124803571D02*
X98821428Y-124803571D01*
X99178571Y-124303571D02*
X99178571Y-125589285D01*
X99107142Y-125732142D01*
X98964285Y-125803571D01*
X98821428Y-125803571D01*
X98321428Y-125803571D02*
X98321428Y-124803571D01*
X98321428Y-125089285D02*
X98250000Y-124946428D01*
X98178571Y-124875000D01*
X98035714Y-124803571D01*
X97892857Y-124803571D01*
X96750000Y-125803571D02*
X96750000Y-125017857D01*
X96821428Y-124875000D01*
X96964285Y-124803571D01*
X97250000Y-124803571D01*
X97392857Y-124875000D01*
X96750000Y-125732142D02*
X96892857Y-125803571D01*
X97250000Y-125803571D01*
X97392857Y-125732142D01*
X97464285Y-125589285D01*
X97464285Y-125446428D01*
X97392857Y-125303571D01*
X97250000Y-125232142D01*
X96892857Y-125232142D01*
X96750000Y-125160714D01*
D11*
X159881918Y-70595531D02*
X159902728Y-70531484D01*
X159880301Y-70382579D01*
X159837064Y-70297721D01*
X159729779Y-70192053D01*
X159601684Y-70150432D01*
X159495208Y-70151240D01*
X159303874Y-70195286D01*
X159176587Y-70260142D01*
X159028490Y-70389045D01*
X158965251Y-70474711D01*
X158923631Y-70602806D01*
X158946058Y-70751711D01*
X158989295Y-70836569D01*
X159096579Y-70942237D01*
X159160627Y-70963047D01*
X160335908Y-71486538D02*
X160356719Y-71422490D01*
X160334292Y-71273585D01*
X160291055Y-71188727D01*
X160183770Y-71083059D01*
X160055675Y-71041439D01*
X159949199Y-71042247D01*
X159757865Y-71086292D01*
X159630578Y-71151148D01*
X159482481Y-71280051D01*
X159419242Y-71365718D01*
X159377621Y-71493813D01*
X159400048Y-71642718D01*
X159443285Y-71727576D01*
X159550570Y-71833244D01*
X159614617Y-71854054D01*
X160551286Y-71804350D02*
X160658571Y-71910018D01*
X160766664Y-72122163D01*
X160767472Y-72228639D01*
X160746662Y-72292687D01*
X160683423Y-72378353D01*
X160598565Y-72421590D01*
X160492088Y-72422398D01*
X160428041Y-72401588D01*
X160342375Y-72338349D01*
X160213472Y-72190252D01*
X160127806Y-72127013D01*
X160063758Y-72106202D01*
X159957282Y-72107011D01*
X159872424Y-72150248D01*
X159809185Y-72235914D01*
X159788374Y-72299961D01*
X159789183Y-72406438D01*
X159897276Y-72618582D01*
X160004560Y-72724250D01*
X160603415Y-73060448D02*
X160517749Y-72997209D01*
X160453701Y-72976398D01*
X160347225Y-72977207D01*
X160304796Y-72998825D01*
X160241557Y-73084491D01*
X160220746Y-73148539D01*
X160221555Y-73255015D01*
X160308029Y-73424731D01*
X160393695Y-73487970D01*
X160457743Y-73508780D01*
X160564219Y-73507972D01*
X160606648Y-73486353D01*
X160669887Y-73400687D01*
X160690697Y-73336640D01*
X160689889Y-73230163D01*
X160603415Y-73060448D01*
X160602606Y-72953972D01*
X160623417Y-72889924D01*
X160686656Y-72804258D01*
X160856371Y-72717784D01*
X160962848Y-72716975D01*
X161026895Y-72737786D01*
X161112561Y-72801025D01*
X161199036Y-72970740D01*
X161199844Y-73077217D01*
X161179034Y-73141264D01*
X161115794Y-73226930D01*
X160946079Y-73313405D01*
X160839603Y-73314213D01*
X160775555Y-73293403D01*
X160689889Y-73230163D01*
X161717882Y-73989033D02*
X161458459Y-73479887D01*
X161588170Y-73734460D02*
X160697164Y-74188451D01*
X160781213Y-74038737D01*
X160822834Y-73910642D01*
X160822026Y-73804166D01*
X162150254Y-74837611D02*
X161890831Y-74328465D01*
X162020542Y-74583038D02*
X161129536Y-75037028D01*
X161213585Y-74887315D01*
X161255206Y-74759220D01*
X161254397Y-74652743D01*
X161819605Y-69715119D02*
X161755557Y-69694309D01*
X161585034Y-69674307D01*
X161478557Y-69675115D01*
X161329652Y-69697542D01*
X161095889Y-69763206D01*
X160926173Y-69849680D01*
X160735648Y-70000202D01*
X160629980Y-70107487D01*
X160566740Y-70193153D01*
X160482691Y-70342867D01*
X160461881Y-70406914D01*
X160697260Y-70554203D02*
X161739597Y-70397214D01*
X160999921Y-71148207D01*
X162338451Y-70733412D02*
X162317641Y-70797460D01*
X162233591Y-70947173D01*
X162170352Y-71032839D01*
X162064684Y-71140124D01*
X161874158Y-71290646D01*
X161704443Y-71377120D01*
X161470680Y-71442784D01*
X161321775Y-71465211D01*
X161215298Y-71466020D01*
X161044774Y-71446018D01*
X160980727Y-71425207D01*
X162519483Y-72137607D02*
X162540293Y-72073559D01*
X162517866Y-71924654D01*
X162474629Y-71839796D01*
X162367345Y-71734128D01*
X162239250Y-71692508D01*
X162132773Y-71693316D01*
X161941439Y-71737362D01*
X161814153Y-71802217D01*
X161666056Y-71931121D01*
X161602816Y-72016787D01*
X161561196Y-72144882D01*
X161583623Y-72293787D01*
X161626860Y-72378645D01*
X161734145Y-72484313D01*
X161798192Y-72505123D01*
X162863764Y-72603516D02*
X162778098Y-72540277D01*
X162714050Y-72519467D01*
X162607574Y-72520275D01*
X162353001Y-72649987D01*
X162289762Y-72735653D01*
X162268951Y-72799700D01*
X162269760Y-72906177D01*
X162334615Y-73033463D01*
X162420281Y-73096702D01*
X162484329Y-73117513D01*
X162590805Y-73116704D01*
X162845379Y-72986993D01*
X162908618Y-72901327D01*
X162929428Y-72837279D01*
X162928620Y-72730803D01*
X162863764Y-72603516D01*
X162381894Y-73650703D02*
X162361084Y-73714750D01*
X162361892Y-73821227D01*
X162469985Y-74033371D01*
X162555651Y-74096610D01*
X162619699Y-74117420D01*
X162726175Y-74116612D01*
X162811033Y-74073375D01*
X162916701Y-73966090D01*
X163166424Y-73197521D01*
X163447466Y-73749096D01*
X51258870Y-75725814D02*
X51460117Y-75294239D01*
X50959676Y-75691381D02*
X52006856Y-75811896D01*
X51241421Y-75087175D01*
X52228228Y-75337164D02*
X52469724Y-74819274D01*
X51442668Y-74655600D02*
X52348976Y-75078219D01*
X51704289Y-74094553D02*
X52610597Y-74517171D01*
X52179022Y-74315924D02*
X52420518Y-73798034D01*
X51945785Y-73576663D02*
X52852093Y-73999281D01*
X52368403Y-72670355D02*
X52126907Y-73188245D01*
X52247655Y-72929300D02*
X53153963Y-73351918D01*
X52984241Y-73377859D01*
X52857677Y-73423925D01*
X52774270Y-73490115D01*
X53536332Y-72531925D02*
X53576581Y-72445610D01*
X53573673Y-72339171D01*
X53550640Y-72275888D01*
X53484450Y-72192482D01*
X53331945Y-72068825D01*
X53116157Y-71968202D01*
X52923402Y-71930861D01*
X52816963Y-71933769D01*
X52753680Y-71956802D01*
X52670274Y-72022992D01*
X52630024Y-72109307D01*
X52632932Y-72215747D01*
X52655965Y-72279029D01*
X52722156Y-72362436D01*
X52874661Y-72486092D01*
X53090449Y-72586715D01*
X53283203Y-72624057D01*
X53389643Y-72621148D01*
X53452925Y-72598116D01*
X53536332Y-72531925D01*
X49394529Y-77509818D02*
X49636025Y-76991928D01*
X48608969Y-76828255D02*
X49515277Y-77250873D01*
X49074745Y-75942072D02*
X48991338Y-76008262D01*
X48910839Y-76180892D01*
X48913747Y-76287332D01*
X48979938Y-76370739D01*
X49325198Y-76531736D01*
X49431638Y-76528828D01*
X49515044Y-76462638D01*
X49595543Y-76290008D01*
X49592635Y-76183568D01*
X49526445Y-76100161D01*
X49440130Y-76059912D01*
X49152568Y-76451238D01*
X49232834Y-75490372D02*
X49837039Y-75772118D01*
X49750724Y-75731868D02*
X49814006Y-75708835D01*
X49897413Y-75642645D01*
X49957787Y-75513173D01*
X49954879Y-75406733D01*
X49888689Y-75323326D01*
X49413956Y-75101954D01*
X49888689Y-75323326D02*
X49995129Y-75320418D01*
X50078535Y-75254227D01*
X50138909Y-75124755D01*
X50136001Y-75018315D01*
X50069811Y-74934908D01*
X49595078Y-74713537D01*
X50400530Y-74563707D02*
X49494222Y-74141089D01*
X50357373Y-74543583D02*
X50440780Y-74477392D01*
X50521278Y-74304762D01*
X50518370Y-74198322D01*
X50495337Y-74135040D01*
X50429147Y-74051633D01*
X50170202Y-73930885D01*
X50063762Y-73933793D01*
X50000480Y-73956826D01*
X49917073Y-74023017D01*
X49836574Y-74195647D01*
X49839483Y-74302086D01*
X50382849Y-73136834D02*
X50299442Y-73203024D01*
X50218943Y-73375654D01*
X50221852Y-73482094D01*
X50288042Y-73565500D01*
X50633302Y-73726498D01*
X50739742Y-73723590D01*
X50823149Y-73657399D01*
X50903647Y-73484769D01*
X50900739Y-73378330D01*
X50834549Y-73294923D01*
X50748234Y-73254673D01*
X50460672Y-73645999D01*
X50540938Y-72685134D02*
X51145143Y-72966879D01*
X50972513Y-72886380D02*
X51078953Y-72883472D01*
X51142235Y-72860439D01*
X51225642Y-72794249D01*
X51265891Y-72707934D01*
X50983681Y-71735668D02*
X51458414Y-71957040D01*
X51524604Y-72040447D01*
X51527512Y-72146886D01*
X51447014Y-72319516D01*
X51363607Y-72385707D01*
X51026839Y-71755793D02*
X50943432Y-71821983D01*
X50842808Y-72037771D01*
X50845717Y-72144211D01*
X50911907Y-72227618D01*
X50998222Y-72267867D01*
X51104662Y-72264959D01*
X51188069Y-72198768D01*
X51288692Y-71982981D01*
X51372099Y-71916791D01*
X51728759Y-71715311D02*
X51889757Y-71370051D01*
X52091236Y-71726712D02*
X51314400Y-71364467D01*
X51248210Y-71281060D01*
X51245302Y-71174621D01*
X51285551Y-71088306D01*
X52211751Y-70679531D02*
X51607546Y-70397785D01*
X52030629Y-71067949D02*
X51555897Y-70846577D01*
X51489706Y-70763170D01*
X51486798Y-70656731D01*
X51547172Y-70527258D01*
X51630579Y-70461068D01*
X51693861Y-70438035D01*
X51808793Y-69966210D02*
X52412998Y-70247956D01*
X52240368Y-70167457D02*
X52346808Y-70164549D01*
X52410090Y-70141516D01*
X52493497Y-70075326D01*
X52533746Y-69989011D01*
X52274569Y-69080027D02*
X52191162Y-69146218D01*
X52110663Y-69318848D01*
X52113571Y-69425287D01*
X52179762Y-69508694D01*
X52525022Y-69669692D01*
X52631462Y-69666783D01*
X52714868Y-69600593D01*
X52795367Y-69427963D01*
X52792459Y-69321523D01*
X52726269Y-69238117D01*
X52639954Y-69197867D01*
X52352392Y-69589193D01*
X47626740Y-75030418D02*
X48533048Y-75453037D01*
X48101473Y-75251790D02*
X48342969Y-74733900D01*
X47868236Y-74512528D02*
X48774544Y-74935147D01*
X48854811Y-73974281D02*
X48250605Y-73692535D01*
X48673688Y-74362699D02*
X48198956Y-74141327D01*
X48132765Y-74057920D01*
X48129857Y-73951481D01*
X48190231Y-73822008D01*
X48273638Y-73755818D01*
X48336920Y-73732785D01*
X48451852Y-73260960D02*
X49056057Y-73542706D01*
X48969742Y-73502456D02*
X49033025Y-73479424D01*
X49116431Y-73413233D01*
X49176805Y-73283761D01*
X49173897Y-73177321D01*
X49107707Y-73093914D01*
X48632974Y-72872543D01*
X49107707Y-73093914D02*
X49214147Y-73091006D01*
X49297554Y-73024816D01*
X49357928Y-72895343D01*
X49355019Y-72788903D01*
X49288829Y-72705497D01*
X48814096Y-72484125D01*
X49015343Y-72052550D02*
X49619548Y-72334295D01*
X49921651Y-72475168D02*
X49858369Y-72498201D01*
X49835336Y-72434919D01*
X49898618Y-72411886D01*
X49921651Y-72475168D01*
X49835336Y-72434919D01*
X49397712Y-71232557D02*
X50304020Y-71655175D01*
X49440870Y-71252682D02*
X49357463Y-71318872D01*
X49276964Y-71491502D01*
X49279872Y-71597942D01*
X49302905Y-71661224D01*
X49369095Y-71744631D01*
X49628040Y-71865379D01*
X49734480Y-71862471D01*
X49797762Y-71839438D01*
X49881169Y-71773248D01*
X49961668Y-71600618D01*
X49958760Y-71494178D01*
X49598959Y-70800982D02*
X50203164Y-71082728D01*
X50505267Y-71223600D02*
X50441984Y-71246633D01*
X50418952Y-71183351D01*
X50482234Y-71160318D01*
X50505267Y-71223600D01*
X50418952Y-71183351D01*
X50344037Y-70780625D02*
X50505034Y-70435365D01*
X50706513Y-70792025D02*
X49929678Y-70429781D01*
X49863488Y-70346374D01*
X49860580Y-70239934D01*
X49900829Y-70153619D01*
X50605658Y-70219577D02*
X50102076Y-69722044D01*
X50806904Y-69788002D02*
X50102076Y-69722044D01*
X49846039Y-69707736D01*
X49782757Y-69730769D01*
X49699350Y-69796959D01*
X45767299Y-93038306D02*
X44933066Y-92586581D01*
X45871488Y-92447422D01*
X45111676Y-91573635D02*
X45037255Y-91995696D01*
X45923582Y-92151979D01*
X46124518Y-91012416D02*
X46050097Y-91434476D01*
X45620595Y-91402262D01*
X45670243Y-91367498D01*
X45727333Y-91290528D01*
X45764543Y-91079498D01*
X45737222Y-90987643D01*
X45702458Y-90937995D01*
X45625488Y-90880905D01*
X45414457Y-90843695D01*
X45322603Y-90871017D01*
X45272955Y-90905781D01*
X45215865Y-90982751D01*
X45178655Y-91193781D01*
X45205976Y-91285635D01*
X45240740Y-91335283D01*
X46184055Y-90674768D02*
X46280801Y-90126089D01*
X45891059Y-90361995D01*
X45913385Y-90235377D01*
X45886063Y-90143523D01*
X45851299Y-90093874D01*
X45774329Y-90036784D01*
X45563299Y-89999574D01*
X45471444Y-90026896D01*
X45421796Y-90061660D01*
X45364706Y-90138630D01*
X45320054Y-90391866D01*
X45347376Y-90483720D01*
X45382140Y-90533368D01*
X45535874Y-89167891D02*
X45461453Y-89589951D01*
X46347780Y-89746235D01*
X46504063Y-88859908D02*
X46518947Y-88775496D01*
X46491626Y-88683641D01*
X46456862Y-88633993D01*
X46379892Y-88576903D01*
X46218509Y-88504929D01*
X46007479Y-88467718D01*
X45831213Y-88480156D01*
X45739359Y-88507478D01*
X45689711Y-88542242D01*
X45632620Y-88619212D01*
X45617736Y-88703624D01*
X45645058Y-88795478D01*
X45679822Y-88845127D01*
X45756792Y-88902217D01*
X45918174Y-88974191D01*
X46129205Y-89011401D01*
X46305471Y-88998964D01*
X46397325Y-88971642D01*
X46446973Y-88936878D01*
X46504063Y-88859908D01*
X46608252Y-88269023D02*
X45826114Y-87521855D01*
X46712441Y-87678138D02*
X45721925Y-88112740D01*
X43947752Y-94719312D02*
X44037057Y-94212840D01*
X43106077Y-94309793D02*
X43992404Y-94466076D01*
X43202824Y-93761114D02*
X43793709Y-93865303D01*
X44089151Y-93917397D02*
X44039503Y-93952161D01*
X44004739Y-93902513D01*
X44054387Y-93867749D01*
X44089151Y-93917397D01*
X44004739Y-93902513D01*
X43277245Y-93339054D02*
X43868129Y-93443243D01*
X43783717Y-93428358D02*
X43833365Y-93393594D01*
X43890456Y-93316624D01*
X43912782Y-93190006D01*
X43885460Y-93098152D01*
X43808490Y-93041062D01*
X43344223Y-92959199D01*
X43808490Y-93041062D02*
X43900344Y-93013740D01*
X43957434Y-92936770D01*
X43979760Y-92810152D01*
X43952439Y-92718298D01*
X43875468Y-92661208D01*
X43411202Y-92579345D01*
X43587365Y-91827078D02*
X43530275Y-91904048D01*
X43500507Y-92072872D01*
X43527829Y-92164726D01*
X43604799Y-92221817D01*
X43942447Y-92281353D01*
X44034301Y-92254031D01*
X44091391Y-92177061D01*
X44121160Y-92008237D01*
X44093838Y-91916383D01*
X44016868Y-91859293D01*
X43932456Y-91844409D01*
X43773623Y-92251585D01*
X43760979Y-90595661D02*
X43788301Y-90687515D01*
X43823065Y-90737163D01*
X43900035Y-90794253D01*
X44153271Y-90838905D01*
X44245125Y-90811584D01*
X44294773Y-90776820D01*
X44351864Y-90699850D01*
X44374190Y-90573231D01*
X44346868Y-90481377D01*
X44312104Y-90431729D01*
X44235134Y-90374639D01*
X43981898Y-90329987D01*
X43890044Y-90357308D01*
X43840395Y-90392072D01*
X43783305Y-90469042D01*
X43760979Y-90595661D01*
X44448611Y-90151171D02*
X44508147Y-89813523D01*
X43880052Y-89920364D02*
X44639761Y-90054321D01*
X44731615Y-90026999D01*
X44788705Y-89950029D01*
X44803589Y-89865617D01*
X44604791Y-88525015D02*
X44552696Y-88820457D01*
X44088430Y-88738595D02*
X44974757Y-88894878D01*
X45049177Y-88472817D01*
X44244713Y-87852268D02*
X44272035Y-87944122D01*
X44349005Y-88001212D01*
X45108714Y-88135169D01*
X44304250Y-87514619D02*
X44895134Y-87618808D01*
X45190577Y-87670903D02*
X45140929Y-87705667D01*
X45106165Y-87656018D01*
X45155813Y-87621254D01*
X45190577Y-87670903D01*
X45106165Y-87656018D01*
X45036534Y-86816893D02*
X44319031Y-86690378D01*
X44227177Y-86717700D01*
X44177529Y-86752464D01*
X44120438Y-86829434D01*
X44098112Y-86956052D01*
X44125434Y-87047906D01*
X44487855Y-86720146D02*
X44430765Y-86797116D01*
X44400997Y-86965941D01*
X44428319Y-87057795D01*
X44463082Y-87107443D01*
X44540053Y-87164533D01*
X44793289Y-87209185D01*
X44885143Y-87181864D01*
X44934791Y-87147100D01*
X44991881Y-87070130D01*
X45021650Y-86901305D01*
X44994328Y-86809451D01*
X44520070Y-86290644D02*
X45406397Y-86446927D01*
X44587048Y-85910789D02*
X45051315Y-85992652D01*
X45128285Y-86049742D01*
X45155607Y-86141597D01*
X45133280Y-86268215D01*
X45076190Y-86345185D01*
X45026542Y-86379949D01*
X45230027Y-85719536D02*
X45289564Y-85381888D01*
X45547796Y-85645012D02*
X44788087Y-85511055D01*
X44711117Y-85453965D01*
X44683795Y-85362111D01*
X44698679Y-85277699D01*
X41941432Y-92276667D02*
X42827759Y-92432950D01*
X42864969Y-92221920D01*
X42845089Y-92087860D01*
X42775562Y-91988563D01*
X42698592Y-91931473D01*
X42537209Y-91859499D01*
X42410591Y-91837173D01*
X42234325Y-91849611D01*
X42142471Y-91876933D01*
X42043175Y-91946460D01*
X41978642Y-92065637D01*
X41941432Y-92276667D01*
X42097715Y-91390340D02*
X42688600Y-91494529D01*
X42984042Y-91546623D02*
X42934394Y-91581387D01*
X42899630Y-91531739D01*
X42949278Y-91496975D01*
X42984042Y-91546623D01*
X42899630Y-91531739D01*
X42206900Y-91017927D02*
X42179578Y-90926073D01*
X42209346Y-90757249D01*
X42266437Y-90680279D01*
X42358291Y-90652957D01*
X42400497Y-90660399D01*
X42477467Y-90717489D01*
X42504789Y-90809344D01*
X42482463Y-90935962D01*
X42509784Y-91027816D01*
X42586754Y-91084906D01*
X42628960Y-91092348D01*
X42720815Y-91065026D01*
X42777905Y-90988056D01*
X42800231Y-90861438D01*
X42772909Y-90769584D01*
X42867210Y-90481584D02*
X42926746Y-90143935D01*
X43184978Y-90407060D02*
X42425269Y-90273103D01*
X42348299Y-90216013D01*
X42320977Y-90124158D01*
X42335861Y-90039746D01*
X42454935Y-89364450D02*
X42919201Y-89446312D01*
X42996171Y-89503402D01*
X43023493Y-89595257D01*
X42993725Y-89764081D01*
X42936635Y-89841051D01*
X42497141Y-89371892D02*
X42440050Y-89448862D01*
X42402840Y-89659892D01*
X42430162Y-89751746D01*
X42507132Y-89808836D01*
X42591544Y-89823720D01*
X42683398Y-89796398D01*
X42740488Y-89719428D01*
X42777699Y-89508398D01*
X42834789Y-89431428D01*
X43120240Y-89046578D02*
X42529355Y-88942389D01*
X43035828Y-89031694D02*
X43085476Y-88996930D01*
X43142566Y-88919960D01*
X43164892Y-88793342D01*
X43137570Y-88701488D01*
X43060600Y-88644397D01*
X42596334Y-88562535D01*
X42779939Y-87768062D02*
X42722849Y-87845032D01*
X42693081Y-88013856D01*
X42720403Y-88105710D01*
X42755166Y-88155358D01*
X42832137Y-88212449D01*
X43085373Y-88257101D01*
X43177227Y-88229779D01*
X43226875Y-88195015D01*
X43283965Y-88118045D01*
X43313733Y-87949221D01*
X43286412Y-87857367D01*
X42906454Y-87050559D02*
X42849364Y-87127529D01*
X42819596Y-87296353D01*
X42846918Y-87388207D01*
X42923888Y-87445298D01*
X43261536Y-87504834D01*
X43353390Y-87477512D01*
X43410480Y-87400542D01*
X43440249Y-87231718D01*
X43412927Y-87139864D01*
X43335957Y-87082774D01*
X43251545Y-87067890D01*
X43092712Y-87475066D01*
D10*
X154807265Y-64120416D02*
X164341065Y-82831554D01*
X177706163Y-76021696D02*
X164341065Y-82831554D01*
X168172362Y-57310560D02*
X154807265Y-64120416D01*
X45887318Y-95675000D02*
X47710625Y-85334520D01*
X34612682Y-83025000D02*
X47710625Y-85334520D01*
X32789375Y-93365480D02*
X45887318Y-95675000D01*
D13*
%TO.C,J3*%
X139665527Y-167217151D02*
X140050027Y-167883125D01*
X136995027Y-162591710D02*
X137684527Y-163785959D01*
X150075152Y-161207151D02*
X150459652Y-161873125D01*
X147404652Y-156581710D02*
X148094152Y-157775959D01*
X140061285Y-167876625D02*
X150459652Y-161873125D01*
X137011285Y-162593870D02*
X147409652Y-156590370D01*
X136244527Y-161291806D02*
X136763276Y-160992306D01*
X136995027Y-162591710D02*
X136244527Y-161291806D01*
X146134537Y-155581806D02*
X146654152Y-155281806D01*
X147404652Y-156581710D02*
X146654152Y-155281806D01*
X146075380Y-155611341D02*
X146837380Y-156931164D01*
X137513776Y-162292210D02*
X136763276Y-160992306D01*
D14*
G36*
X139381549Y-155587705D02*
G01*
X140059746Y-155196148D01*
X139861125Y-154867658D01*
X139662504Y-154539168D01*
X139326249Y-154724338D01*
X138989993Y-154909509D01*
X139381549Y-155587705D01*
G37*
X139381549Y-155587705D02*
X140059746Y-155196148D01*
X139861125Y-154867658D01*
X139662504Y-154539168D01*
X139326249Y-154724338D01*
X138989993Y-154909509D01*
X139381549Y-155587705D01*
G36*
X138414646Y-156145947D02*
G01*
X138741735Y-155957102D01*
X138882112Y-155874410D01*
X138978417Y-155813383D01*
X139036192Y-155770100D01*
X139060981Y-155740630D01*
X139062714Y-155729710D01*
X139046476Y-155692068D01*
X139006667Y-155617601D01*
X138949180Y-155516895D01*
X138879903Y-155400542D01*
X138876103Y-155394286D01*
X138695601Y-155097410D01*
X138359345Y-155282580D01*
X138023090Y-155467751D01*
X138414646Y-156145947D01*
G37*
X138414646Y-156145947D02*
X138741735Y-155957102D01*
X138882112Y-155874410D01*
X138978417Y-155813383D01*
X139036192Y-155770100D01*
X139060981Y-155740630D01*
X139062714Y-155729710D01*
X139046476Y-155692068D01*
X139006667Y-155617601D01*
X138949180Y-155516895D01*
X138879903Y-155400542D01*
X138876103Y-155394286D01*
X138695601Y-155097410D01*
X138359345Y-155282580D01*
X138023090Y-155467751D01*
X138414646Y-156145947D01*
G36*
X137380356Y-155847799D02*
G01*
X137051866Y-156046421D01*
X137237036Y-156382676D01*
X137422206Y-156718932D01*
X138100403Y-156327375D01*
X137708847Y-155649179D01*
X137380356Y-155847799D01*
G37*
X137380356Y-155847799D02*
X137051866Y-156046421D01*
X137237036Y-156382676D01*
X137422206Y-156718932D01*
X138100403Y-156327375D01*
X137708847Y-155649179D01*
X137380356Y-155847799D01*
G36*
X136456668Y-157276386D02*
G01*
X137134864Y-156884829D01*
X136737622Y-156227850D01*
X136401367Y-156413019D01*
X136065111Y-156598190D01*
X136456668Y-157276386D01*
G37*
X136456668Y-157276386D02*
X137134864Y-156884829D01*
X136737622Y-156227850D01*
X136401367Y-156413019D01*
X136065111Y-156598190D01*
X136456668Y-157276386D01*
G36*
X140816064Y-149922028D02*
G01*
X141150647Y-149747915D01*
X141310412Y-149991072D01*
X141150166Y-150093158D01*
X140989920Y-150195243D01*
X141719845Y-151473959D01*
X142449770Y-152752675D01*
X142878994Y-152504741D01*
X143032065Y-152416163D01*
X143141894Y-152351625D01*
X143213580Y-152307257D01*
X143252223Y-152279185D01*
X143262925Y-152263536D01*
X143250787Y-152256437D01*
X143220907Y-152254016D01*
X143209697Y-152253636D01*
X143025842Y-152222122D01*
X142864357Y-152139698D01*
X142848702Y-152128127D01*
X142793888Y-152071100D01*
X142723026Y-151975933D01*
X142643544Y-151855136D01*
X142562869Y-151721220D01*
X142488427Y-151586693D01*
X142427645Y-151464065D01*
X142387951Y-151365845D01*
X142380337Y-151339226D01*
X142367171Y-151255629D01*
X142369931Y-151169825D01*
X142391336Y-151073076D01*
X142434107Y-150956639D01*
X142500961Y-150811776D01*
X142594618Y-150629745D01*
X142610117Y-150600621D01*
X142703608Y-150423004D01*
X142770903Y-150283978D01*
X142813016Y-150173391D01*
X142830959Y-150081091D01*
X142825748Y-149996924D01*
X142798395Y-149910739D01*
X142749914Y-149812382D01*
X142697987Y-149720514D01*
X142631734Y-149607422D01*
X142583761Y-149532936D01*
X142545093Y-149486945D01*
X142506754Y-149459339D01*
X142459768Y-149440006D01*
X142444454Y-149434899D01*
X142365888Y-149417537D01*
X142291679Y-149425655D01*
X142196710Y-149462076D01*
X142194758Y-149462962D01*
X142072565Y-149532478D01*
X141977941Y-149613074D01*
X141976301Y-149614913D01*
X141924307Y-149689872D01*
X141902673Y-149769953D01*
X141912661Y-149864107D01*
X141955534Y-149981290D01*
X142032557Y-150130453D01*
X142054437Y-150168843D01*
X142197449Y-150416634D01*
X141907378Y-150584107D01*
X141756394Y-150322596D01*
X141650449Y-150122310D01*
X141583814Y-149952515D01*
X141555366Y-149805211D01*
X141563982Y-149672400D01*
X141608536Y-149546082D01*
X141639423Y-149490188D01*
X141675293Y-149443031D01*
X141729884Y-149394365D01*
X141812817Y-149336992D01*
X141933712Y-149263709D01*
X141970645Y-149242259D01*
X142093896Y-149172215D01*
X142182481Y-149126173D01*
X142249482Y-149099216D01*
X142307983Y-149086429D01*
X142371067Y-149082895D01*
X142394677Y-149082917D01*
X142544947Y-149105752D01*
X142661409Y-149154530D01*
X142715881Y-149189486D01*
X142762789Y-149229805D01*
X142810428Y-149285540D01*
X142867096Y-149366748D01*
X142941089Y-149483481D01*
X142965615Y-149523209D01*
X143051024Y-149668078D01*
X143120007Y-149797162D01*
X143166561Y-149898824D01*
X143180907Y-149940590D01*
X143196209Y-150045878D01*
X143186333Y-150163098D01*
X143149082Y-150299844D01*
X143082257Y-150463716D01*
X142983662Y-150662310D01*
X142958365Y-150709786D01*
X142886863Y-150846782D01*
X142823502Y-150975794D01*
X142774104Y-151084416D01*
X142744491Y-151160241D01*
X142740504Y-151174042D01*
X142730407Y-151220939D01*
X142728909Y-151261905D01*
X142739887Y-151307721D01*
X142767219Y-151369172D01*
X142814782Y-151457041D01*
X142886453Y-151582113D01*
X142888528Y-151585707D01*
X142961354Y-151711121D01*
X143013510Y-151796565D01*
X143052203Y-151850436D01*
X143084640Y-151881129D01*
X143118027Y-151897040D01*
X143159570Y-151906564D01*
X143164775Y-151907550D01*
X143222673Y-151913981D01*
X143277863Y-151905594D01*
X143346113Y-151877435D01*
X143443197Y-151824552D01*
X143460171Y-151814788D01*
X143557940Y-151756681D01*
X143618387Y-151713510D01*
X143653243Y-151673562D01*
X143674241Y-151625125D01*
X143683927Y-151591390D01*
X143695636Y-151543068D01*
X143698424Y-151501856D01*
X143688470Y-151456634D01*
X143661952Y-151396286D01*
X143615047Y-151309692D01*
X143545245Y-151188008D01*
X143376699Y-150896077D01*
X143666770Y-150728605D01*
X143842122Y-151032324D01*
X143941532Y-151215217D01*
X144006854Y-151364626D01*
X144039870Y-151489839D01*
X144042360Y-151600148D01*
X144016106Y-151704841D01*
X143984413Y-151774395D01*
X143915259Y-151906574D01*
X144106070Y-151793502D01*
X144207290Y-151729765D01*
X144297365Y-151666480D01*
X144358542Y-151616212D01*
X144363140Y-151611609D01*
X144424807Y-151516620D01*
X144468072Y-151390332D01*
X144487284Y-151255793D01*
X144478250Y-151141911D01*
X144462905Y-151098544D01*
X144430403Y-151028101D01*
X144379175Y-150927724D01*
X144307651Y-150794549D01*
X144214262Y-150625715D01*
X144097439Y-150418358D01*
X143955614Y-150169618D01*
X143787215Y-149876632D01*
X143732910Y-149782506D01*
X143015045Y-148539127D01*
X142879554Y-148449406D01*
X142760172Y-148386035D01*
X142639775Y-148360364D01*
X142593403Y-148358504D01*
X142442744Y-148357322D01*
X141489874Y-148898000D01*
X140537003Y-149438681D01*
X140816064Y-149922028D01*
G37*
X140816064Y-149922028D02*
X141150647Y-149747915D01*
X141310412Y-149991072D01*
X141150166Y-150093158D01*
X140989920Y-150195243D01*
X141719845Y-151473959D01*
X142449770Y-152752675D01*
X142878994Y-152504741D01*
X143032065Y-152416163D01*
X143141894Y-152351625D01*
X143213580Y-152307257D01*
X143252223Y-152279185D01*
X143262925Y-152263536D01*
X143250787Y-152256437D01*
X143220907Y-152254016D01*
X143209697Y-152253636D01*
X143025842Y-152222122D01*
X142864357Y-152139698D01*
X142848702Y-152128127D01*
X142793888Y-152071100D01*
X142723026Y-151975933D01*
X142643544Y-151855136D01*
X142562869Y-151721220D01*
X142488427Y-151586693D01*
X142427645Y-151464065D01*
X142387951Y-151365845D01*
X142380337Y-151339226D01*
X142367171Y-151255629D01*
X142369931Y-151169825D01*
X142391336Y-151073076D01*
X142434107Y-150956639D01*
X142500961Y-150811776D01*
X142594618Y-150629745D01*
X142610117Y-150600621D01*
X142703608Y-150423004D01*
X142770903Y-150283978D01*
X142813016Y-150173391D01*
X142830959Y-150081091D01*
X142825748Y-149996924D01*
X142798395Y-149910739D01*
X142749914Y-149812382D01*
X142697987Y-149720514D01*
X142631734Y-149607422D01*
X142583761Y-149532936D01*
X142545093Y-149486945D01*
X142506754Y-149459339D01*
X142459768Y-149440006D01*
X142444454Y-149434899D01*
X142365888Y-149417537D01*
X142291679Y-149425655D01*
X142196710Y-149462076D01*
X142194758Y-149462962D01*
X142072565Y-149532478D01*
X141977941Y-149613074D01*
X141976301Y-149614913D01*
X141924307Y-149689872D01*
X141902673Y-149769953D01*
X141912661Y-149864107D01*
X141955534Y-149981290D01*
X142032557Y-150130453D01*
X142054437Y-150168843D01*
X142197449Y-150416634D01*
X141907378Y-150584107D01*
X141756394Y-150322596D01*
X141650449Y-150122310D01*
X141583814Y-149952515D01*
X141555366Y-149805211D01*
X141563982Y-149672400D01*
X141608536Y-149546082D01*
X141639423Y-149490188D01*
X141675293Y-149443031D01*
X141729884Y-149394365D01*
X141812817Y-149336992D01*
X141933712Y-149263709D01*
X141970645Y-149242259D01*
X142093896Y-149172215D01*
X142182481Y-149126173D01*
X142249482Y-149099216D01*
X142307983Y-149086429D01*
X142371067Y-149082895D01*
X142394677Y-149082917D01*
X142544947Y-149105752D01*
X142661409Y-149154530D01*
X142715881Y-149189486D01*
X142762789Y-149229805D01*
X142810428Y-149285540D01*
X142867096Y-149366748D01*
X142941089Y-149483481D01*
X142965615Y-149523209D01*
X143051024Y-149668078D01*
X143120007Y-149797162D01*
X143166561Y-149898824D01*
X143180907Y-149940590D01*
X143196209Y-150045878D01*
X143186333Y-150163098D01*
X143149082Y-150299844D01*
X143082257Y-150463716D01*
X142983662Y-150662310D01*
X142958365Y-150709786D01*
X142886863Y-150846782D01*
X142823502Y-150975794D01*
X142774104Y-151084416D01*
X142744491Y-151160241D01*
X142740504Y-151174042D01*
X142730407Y-151220939D01*
X142728909Y-151261905D01*
X142739887Y-151307721D01*
X142767219Y-151369172D01*
X142814782Y-151457041D01*
X142886453Y-151582113D01*
X142888528Y-151585707D01*
X142961354Y-151711121D01*
X143013510Y-151796565D01*
X143052203Y-151850436D01*
X143084640Y-151881129D01*
X143118027Y-151897040D01*
X143159570Y-151906564D01*
X143164775Y-151907550D01*
X143222673Y-151913981D01*
X143277863Y-151905594D01*
X143346113Y-151877435D01*
X143443197Y-151824552D01*
X143460171Y-151814788D01*
X143557940Y-151756681D01*
X143618387Y-151713510D01*
X143653243Y-151673562D01*
X143674241Y-151625125D01*
X143683927Y-151591390D01*
X143695636Y-151543068D01*
X143698424Y-151501856D01*
X143688470Y-151456634D01*
X143661952Y-151396286D01*
X143615047Y-151309692D01*
X143545245Y-151188008D01*
X143376699Y-150896077D01*
X143666770Y-150728605D01*
X143842122Y-151032324D01*
X143941532Y-151215217D01*
X144006854Y-151364626D01*
X144039870Y-151489839D01*
X144042360Y-151600148D01*
X144016106Y-151704841D01*
X143984413Y-151774395D01*
X143915259Y-151906574D01*
X144106070Y-151793502D01*
X144207290Y-151729765D01*
X144297365Y-151666480D01*
X144358542Y-151616212D01*
X144363140Y-151611609D01*
X144424807Y-151516620D01*
X144468072Y-151390332D01*
X144487284Y-151255793D01*
X144478250Y-151141911D01*
X144462905Y-151098544D01*
X144430403Y-151028101D01*
X144379175Y-150927724D01*
X144307651Y-150794549D01*
X144214262Y-150625715D01*
X144097439Y-150418358D01*
X143955614Y-150169618D01*
X143787215Y-149876632D01*
X143732910Y-149782506D01*
X143015045Y-148539127D01*
X142879554Y-148449406D01*
X142760172Y-148386035D01*
X142639775Y-148360364D01*
X142593403Y-148358504D01*
X142442744Y-148357322D01*
X141489874Y-148898000D01*
X140537003Y-149438681D01*
X140816064Y-149922028D01*
G36*
X131956828Y-154478699D02*
G01*
X131913148Y-154572948D01*
X131882278Y-154685761D01*
X131876035Y-154729531D01*
X131862777Y-154874040D01*
X132597411Y-156163404D01*
X132789342Y-156499119D01*
X132955012Y-156786438D01*
X133094811Y-157026014D01*
X133209130Y-157218503D01*
X133298359Y-157364561D01*
X133362887Y-157464841D01*
X133403105Y-157519997D01*
X133409861Y-157527251D01*
X133546128Y-157620743D01*
X133704182Y-157666498D01*
X133873150Y-157662054D01*
X133937632Y-157646787D01*
X134012121Y-157624686D01*
X133310818Y-156393639D01*
X133153495Y-156117350D01*
X133021579Y-155885140D01*
X132912779Y-155692615D01*
X132824813Y-155535382D01*
X132755391Y-155409049D01*
X132702228Y-155309221D01*
X132663038Y-155231505D01*
X132635535Y-155171507D01*
X132617432Y-155124836D01*
X132606442Y-155087098D01*
X132600281Y-155053898D01*
X132596715Y-155021452D01*
X132603462Y-154857710D01*
X132656868Y-154711945D01*
X132759370Y-154580694D01*
X132913405Y-154460489D01*
X133043747Y-154385900D01*
X133235592Y-154305141D01*
X133407929Y-154272678D01*
X133564095Y-154289848D01*
X133707429Y-154357991D01*
X133841269Y-154478446D01*
X133968950Y-154652551D01*
X134046522Y-154788095D01*
X134149349Y-154982631D01*
X134014542Y-155070127D01*
X133879735Y-155157624D01*
X133759964Y-154950175D01*
X133659317Y-154794332D01*
X133565330Y-154689271D01*
X133473740Y-154631027D01*
X133400228Y-154615508D01*
X133273905Y-154633070D01*
X133151057Y-154688064D01*
X133046215Y-154770205D01*
X132973913Y-154869205D01*
X132952152Y-154932651D01*
X132946764Y-154973837D01*
X132950258Y-155014717D01*
X132966629Y-155065102D01*
X132999874Y-155134807D01*
X133053987Y-155233644D01*
X133125665Y-155358789D01*
X133317168Y-155690481D01*
X133587791Y-155642841D01*
X133834086Y-155602726D01*
X134033869Y-155578437D01*
X134194297Y-155570446D01*
X134322529Y-155579221D01*
X134425721Y-155605233D01*
X134511033Y-155648954D01*
X134582976Y-155708238D01*
X134623271Y-155758196D01*
X134684052Y-155846542D01*
X134758599Y-155962922D01*
X134840191Y-156096978D01*
X134886482Y-156175957D01*
X134989191Y-156358403D01*
X135063082Y-156503063D01*
X135110671Y-156618354D01*
X135134471Y-156712690D01*
X135137000Y-156794489D01*
X135120770Y-156872166D01*
X135106444Y-156911999D01*
X135065164Y-157015463D01*
X135373520Y-156837791D01*
X135681875Y-156660120D01*
X134973740Y-155433284D01*
X134802034Y-155134626D01*
X134650550Y-154868716D01*
X134520611Y-154637950D01*
X134413540Y-154444719D01*
X134330656Y-154291419D01*
X134273283Y-154180443D01*
X134242741Y-154114182D01*
X134238671Y-154102137D01*
X134225204Y-153962673D01*
X134249050Y-153820583D01*
X134305855Y-153700228D01*
X134312048Y-153691800D01*
X134391906Y-153614379D01*
X134504417Y-153538262D01*
X134627652Y-153476454D01*
X134730522Y-153443626D01*
X134812456Y-153434326D01*
X134922455Y-153430363D01*
X135008352Y-153431673D01*
X135187821Y-153439112D01*
X135197468Y-153348411D01*
X135238742Y-153210537D01*
X135326246Y-153089063D01*
X135451606Y-152988791D01*
X135606443Y-152914526D01*
X135782383Y-152871071D01*
X135971050Y-152863228D01*
X136033315Y-152869097D01*
X136150685Y-152884204D01*
X136176398Y-152767319D01*
X136234373Y-152617793D01*
X136338819Y-152493365D01*
X136460022Y-152407704D01*
X136587090Y-152345558D01*
X136714247Y-152310872D01*
X136862389Y-152299193D01*
X136961083Y-152300994D01*
X137135304Y-152308196D01*
X137160330Y-152182761D01*
X137204703Y-152056287D01*
X137286922Y-151951299D01*
X137414434Y-151859481D01*
X137481920Y-151823521D01*
X137589131Y-151777578D01*
X137688923Y-151755193D01*
X137809754Y-151750565D01*
X137836648Y-151751190D01*
X137936002Y-151752954D01*
X138011465Y-151752128D01*
X138047580Y-151748900D01*
X138048182Y-151748621D01*
X138045478Y-151721814D01*
X138020063Y-151666748D01*
X138013822Y-151655654D01*
X137964975Y-151571049D01*
X138255046Y-151403577D01*
X139887904Y-154231769D01*
X140646718Y-153793667D01*
X140497317Y-153787451D01*
X140370186Y-153769308D01*
X140257898Y-153722186D01*
X140152434Y-153639925D01*
X140045774Y-153516361D01*
X139937345Y-153357183D01*
X139777115Y-153103218D01*
X140072535Y-152932657D01*
X140184631Y-153126814D01*
X140284737Y-153280272D01*
X140381151Y-153381352D01*
X140480599Y-153432522D01*
X140589807Y-153436250D01*
X140715501Y-153395002D01*
X140797981Y-153351804D01*
X140929310Y-153259382D01*
X141006744Y-153163912D01*
X141032208Y-153062824D01*
X141031149Y-153040819D01*
X141011899Y-152978504D01*
X140962406Y-152871835D01*
X140883634Y-152722741D01*
X140779860Y-152538881D01*
X140536286Y-152116999D01*
X139545210Y-152689197D01*
X139249236Y-152175188D01*
X139131962Y-151968957D01*
X139041411Y-151802613D01*
X138974553Y-151668810D01*
X138928358Y-151560200D01*
X138899796Y-151469438D01*
X138885836Y-151389174D01*
X138883448Y-151312064D01*
X138884406Y-151290636D01*
X138909710Y-151159282D01*
X138973050Y-151040738D01*
X139079951Y-150927605D01*
X139235941Y-150812491D01*
X139247152Y-150805250D01*
X139443032Y-150694820D01*
X139616542Y-150631386D01*
X139774039Y-150614080D01*
X139921886Y-150642033D01*
X140038882Y-150697227D01*
X140161576Y-150770179D01*
X141375751Y-152873192D01*
X141385754Y-153024165D01*
X141372931Y-153186614D01*
X141326015Y-153308439D01*
X141256276Y-153441739D01*
X141696873Y-153187360D01*
X141863871Y-153089747D01*
X141986213Y-153015239D01*
X142068529Y-152960731D01*
X142115454Y-152923121D01*
X142131619Y-152899302D01*
X142131596Y-152896084D01*
X142116747Y-152865469D01*
X142076309Y-152791377D01*
X142012953Y-152678476D01*
X141929347Y-152531434D01*
X141828161Y-152354919D01*
X141712062Y-152153598D01*
X141583722Y-151932138D01*
X141445807Y-151695207D01*
X141400699Y-151617930D01*
X140675676Y-150376671D01*
X140508385Y-150463727D01*
X140341094Y-150550783D01*
X140188852Y-150287093D01*
X140529019Y-150090698D01*
X140386029Y-149859009D01*
X140243039Y-149627322D01*
X132024363Y-154372377D01*
X131956828Y-154478699D01*
G37*
X131956828Y-154478699D02*
X131913148Y-154572948D01*
X131882278Y-154685761D01*
X131876035Y-154729531D01*
X131862777Y-154874040D01*
X132597411Y-156163404D01*
X132789342Y-156499119D01*
X132955012Y-156786438D01*
X133094811Y-157026014D01*
X133209130Y-157218503D01*
X133298359Y-157364561D01*
X133362887Y-157464841D01*
X133403105Y-157519997D01*
X133409861Y-157527251D01*
X133546128Y-157620743D01*
X133704182Y-157666498D01*
X133873150Y-157662054D01*
X133937632Y-157646787D01*
X134012121Y-157624686D01*
X133310818Y-156393639D01*
X133153495Y-156117350D01*
X133021579Y-155885140D01*
X132912779Y-155692615D01*
X132824813Y-155535382D01*
X132755391Y-155409049D01*
X132702228Y-155309221D01*
X132663038Y-155231505D01*
X132635535Y-155171507D01*
X132617432Y-155124836D01*
X132606442Y-155087098D01*
X132600281Y-155053898D01*
X132596715Y-155021452D01*
X132603462Y-154857710D01*
X132656868Y-154711945D01*
X132759370Y-154580694D01*
X132913405Y-154460489D01*
X133043747Y-154385900D01*
X133235592Y-154305141D01*
X133407929Y-154272678D01*
X133564095Y-154289848D01*
X133707429Y-154357991D01*
X133841269Y-154478446D01*
X133968950Y-154652551D01*
X134046522Y-154788095D01*
X134149349Y-154982631D01*
X134014542Y-155070127D01*
X133879735Y-155157624D01*
X133759964Y-154950175D01*
X133659317Y-154794332D01*
X133565330Y-154689271D01*
X133473740Y-154631027D01*
X133400228Y-154615508D01*
X133273905Y-154633070D01*
X133151057Y-154688064D01*
X133046215Y-154770205D01*
X132973913Y-154869205D01*
X132952152Y-154932651D01*
X132946764Y-154973837D01*
X132950258Y-155014717D01*
X132966629Y-155065102D01*
X132999874Y-155134807D01*
X133053987Y-155233644D01*
X133125665Y-155358789D01*
X133317168Y-155690481D01*
X133587791Y-155642841D01*
X133834086Y-155602726D01*
X134033869Y-155578437D01*
X134194297Y-155570446D01*
X134322529Y-155579221D01*
X134425721Y-155605233D01*
X134511033Y-155648954D01*
X134582976Y-155708238D01*
X134623271Y-155758196D01*
X134684052Y-155846542D01*
X134758599Y-155962922D01*
X134840191Y-156096978D01*
X134886482Y-156175957D01*
X134989191Y-156358403D01*
X135063082Y-156503063D01*
X135110671Y-156618354D01*
X135134471Y-156712690D01*
X135137000Y-156794489D01*
X135120770Y-156872166D01*
X135106444Y-156911999D01*
X135065164Y-157015463D01*
X135373520Y-156837791D01*
X135681875Y-156660120D01*
X134973740Y-155433284D01*
X134802034Y-155134626D01*
X134650550Y-154868716D01*
X134520611Y-154637950D01*
X134413540Y-154444719D01*
X134330656Y-154291419D01*
X134273283Y-154180443D01*
X134242741Y-154114182D01*
X134238671Y-154102137D01*
X134225204Y-153962673D01*
X134249050Y-153820583D01*
X134305855Y-153700228D01*
X134312048Y-153691800D01*
X134391906Y-153614379D01*
X134504417Y-153538262D01*
X134627652Y-153476454D01*
X134730522Y-153443626D01*
X134812456Y-153434326D01*
X134922455Y-153430363D01*
X135008352Y-153431673D01*
X135187821Y-153439112D01*
X135197468Y-153348411D01*
X135238742Y-153210537D01*
X135326246Y-153089063D01*
X135451606Y-152988791D01*
X135606443Y-152914526D01*
X135782383Y-152871071D01*
X135971050Y-152863228D01*
X136033315Y-152869097D01*
X136150685Y-152884204D01*
X136176398Y-152767319D01*
X136234373Y-152617793D01*
X136338819Y-152493365D01*
X136460022Y-152407704D01*
X136587090Y-152345558D01*
X136714247Y-152310872D01*
X136862389Y-152299193D01*
X136961083Y-152300994D01*
X137135304Y-152308196D01*
X137160330Y-152182761D01*
X137204703Y-152056287D01*
X137286922Y-151951299D01*
X137414434Y-151859481D01*
X137481920Y-151823521D01*
X137589131Y-151777578D01*
X137688923Y-151755193D01*
X137809754Y-151750565D01*
X137836648Y-151751190D01*
X137936002Y-151752954D01*
X138011465Y-151752128D01*
X138047580Y-151748900D01*
X138048182Y-151748621D01*
X138045478Y-151721814D01*
X138020063Y-151666748D01*
X138013822Y-151655654D01*
X137964975Y-151571049D01*
X138255046Y-151403577D01*
X139887904Y-154231769D01*
X140646718Y-153793667D01*
X140497317Y-153787451D01*
X140370186Y-153769308D01*
X140257898Y-153722186D01*
X140152434Y-153639925D01*
X140045774Y-153516361D01*
X139937345Y-153357183D01*
X139777115Y-153103218D01*
X140072535Y-152932657D01*
X140184631Y-153126814D01*
X140284737Y-153280272D01*
X140381151Y-153381352D01*
X140480599Y-153432522D01*
X140589807Y-153436250D01*
X140715501Y-153395002D01*
X140797981Y-153351804D01*
X140929310Y-153259382D01*
X141006744Y-153163912D01*
X141032208Y-153062824D01*
X141031149Y-153040819D01*
X141011899Y-152978504D01*
X140962406Y-152871835D01*
X140883634Y-152722741D01*
X140779860Y-152538881D01*
X140536286Y-152116999D01*
X139545210Y-152689197D01*
X139249236Y-152175188D01*
X139131962Y-151968957D01*
X139041411Y-151802613D01*
X138974553Y-151668810D01*
X138928358Y-151560200D01*
X138899796Y-151469438D01*
X138885836Y-151389174D01*
X138883448Y-151312064D01*
X138884406Y-151290636D01*
X138909710Y-151159282D01*
X138973050Y-151040738D01*
X139079951Y-150927605D01*
X139235941Y-150812491D01*
X139247152Y-150805250D01*
X139443032Y-150694820D01*
X139616542Y-150631386D01*
X139774039Y-150614080D01*
X139921886Y-150642033D01*
X140038882Y-150697227D01*
X140161576Y-150770179D01*
X141375751Y-152873192D01*
X141385754Y-153024165D01*
X141372931Y-153186614D01*
X141326015Y-153308439D01*
X141256276Y-153441739D01*
X141696873Y-153187360D01*
X141863871Y-153089747D01*
X141986213Y-153015239D01*
X142068529Y-152960731D01*
X142115454Y-152923121D01*
X142131619Y-152899302D01*
X142131596Y-152896084D01*
X142116747Y-152865469D01*
X142076309Y-152791377D01*
X142012953Y-152678476D01*
X141929347Y-152531434D01*
X141828161Y-152354919D01*
X141712062Y-152153598D01*
X141583722Y-151932138D01*
X141445807Y-151695207D01*
X141400699Y-151617930D01*
X140675676Y-150376671D01*
X140508385Y-150463727D01*
X140341094Y-150550783D01*
X140188852Y-150287093D01*
X140529019Y-150090698D01*
X140386029Y-149859009D01*
X140243039Y-149627322D01*
X132024363Y-154372377D01*
X131956828Y-154478699D01*
G36*
X137601514Y-152131031D02*
G01*
X137557756Y-152176379D01*
X137535802Y-152232863D01*
X137531445Y-152253647D01*
X137512996Y-152351276D01*
X138921000Y-154790011D01*
X139597833Y-154399241D01*
X138218085Y-152009448D01*
X138124623Y-152001084D01*
X137954283Y-151996914D01*
X137814764Y-152021060D01*
X137686928Y-152076928D01*
X137681686Y-152079928D01*
X137601514Y-152131031D01*
G37*
X137601514Y-152131031D02*
X137557756Y-152176379D01*
X137535802Y-152232863D01*
X137531445Y-152253647D01*
X137512996Y-152351276D01*
X138921000Y-154790011D01*
X139597833Y-154399241D01*
X138218085Y-152009448D01*
X138124623Y-152001084D01*
X137954283Y-151996914D01*
X137814764Y-152021060D01*
X137686928Y-152076928D01*
X137681686Y-152079928D01*
X137601514Y-152131031D01*
G36*
X136634370Y-152689448D02*
G01*
X136590693Y-152734879D01*
X136568784Y-152791597D01*
X136564542Y-152811889D01*
X136546093Y-152909518D01*
X137954097Y-155348252D01*
X138276398Y-155162172D01*
X138395993Y-155091594D01*
X138496556Y-155029346D01*
X138568883Y-154981343D01*
X138603775Y-154953496D01*
X138605510Y-154950671D01*
X138593312Y-154922153D01*
X138555719Y-154850135D01*
X138495393Y-154739379D01*
X138414996Y-154594645D01*
X138317193Y-154420691D01*
X138204648Y-154222279D01*
X138080022Y-154004170D01*
X137945980Y-153771123D01*
X137932964Y-153748572D01*
X137775713Y-153475735D01*
X137643951Y-153247063D01*
X137534646Y-153058729D01*
X137444766Y-152906912D01*
X137371277Y-152787786D01*
X137311148Y-152697527D01*
X137261347Y-152632311D01*
X137218839Y-152588315D01*
X137180593Y-152561714D01*
X137143578Y-152548684D01*
X137104758Y-152545400D01*
X137061104Y-152548040D01*
X137009581Y-152552777D01*
X136985990Y-152554409D01*
X136813210Y-152591246D01*
X136714455Y-152638360D01*
X136634370Y-152689448D01*
G37*
X136634370Y-152689448D02*
X136590693Y-152734879D01*
X136568784Y-152791597D01*
X136564542Y-152811889D01*
X136546093Y-152909518D01*
X137954097Y-155348252D01*
X138276398Y-155162172D01*
X138395993Y-155091594D01*
X138496556Y-155029346D01*
X138568883Y-154981343D01*
X138603775Y-154953496D01*
X138605510Y-154950671D01*
X138593312Y-154922153D01*
X138555719Y-154850135D01*
X138495393Y-154739379D01*
X138414996Y-154594645D01*
X138317193Y-154420691D01*
X138204648Y-154222279D01*
X138080022Y-154004170D01*
X137945980Y-153771123D01*
X137932964Y-153748572D01*
X137775713Y-153475735D01*
X137643951Y-153247063D01*
X137534646Y-153058729D01*
X137444766Y-152906912D01*
X137371277Y-152787786D01*
X137311148Y-152697527D01*
X137261347Y-152632311D01*
X137218839Y-152588315D01*
X137180593Y-152561714D01*
X137143578Y-152548684D01*
X137104758Y-152545400D01*
X137061104Y-152548040D01*
X137009581Y-152552777D01*
X136985990Y-152554409D01*
X136813210Y-152591246D01*
X136714455Y-152638360D01*
X136634370Y-152689448D01*
G36*
X135660347Y-153253358D02*
G01*
X135646063Y-153266995D01*
X135616820Y-153297039D01*
X135593870Y-153325395D01*
X135579003Y-153356234D01*
X135574010Y-153393722D01*
X135580683Y-153442031D01*
X135600812Y-153505330D01*
X135636190Y-153587787D01*
X135688607Y-153693572D01*
X135759856Y-153826854D01*
X135851725Y-153991803D01*
X135966009Y-154192587D01*
X136104498Y-154433376D01*
X136268982Y-154718339D01*
X136963021Y-155920450D01*
X137639854Y-155529681D01*
X136245426Y-153114461D01*
X136108001Y-153113688D01*
X135933357Y-153130117D01*
X135779358Y-153178260D01*
X135660347Y-153253358D01*
G37*
X135660347Y-153253358D02*
X135646063Y-153266995D01*
X135616820Y-153297039D01*
X135593870Y-153325395D01*
X135579003Y-153356234D01*
X135574010Y-153393722D01*
X135580683Y-153442031D01*
X135600812Y-153505330D01*
X135636190Y-153587787D01*
X135688607Y-153693572D01*
X135759856Y-153826854D01*
X135851725Y-153991803D01*
X135966009Y-154192587D01*
X136104498Y-154433376D01*
X136268982Y-154718339D01*
X136963021Y-155920450D01*
X137639854Y-155529681D01*
X136245426Y-153114461D01*
X136108001Y-153113688D01*
X135933357Y-153130117D01*
X135779358Y-153178260D01*
X135660347Y-153253358D01*
G36*
X134676392Y-153819887D02*
G01*
X134632714Y-153865318D01*
X134610805Y-153922037D01*
X134606563Y-153942328D01*
X134588115Y-154039957D01*
X135996119Y-156478692D01*
X136672951Y-156087923D01*
X135984289Y-154895126D01*
X135825893Y-154620308D01*
X135693011Y-154389684D01*
X135582641Y-154199450D01*
X135491781Y-154045809D01*
X135417430Y-153924961D01*
X135356584Y-153833108D01*
X135306241Y-153766449D01*
X135263401Y-153721184D01*
X135225059Y-153693513D01*
X135188216Y-153679639D01*
X135149868Y-153675762D01*
X135107012Y-153678080D01*
X135056648Y-153682796D01*
X135028011Y-153684848D01*
X134855231Y-153721686D01*
X134756476Y-153768799D01*
X134676392Y-153819887D01*
G37*
X134676392Y-153819887D02*
X134632714Y-153865318D01*
X134610805Y-153922037D01*
X134606563Y-153942328D01*
X134588115Y-154039957D01*
X135996119Y-156478692D01*
X136672951Y-156087923D01*
X135984289Y-154895126D01*
X135825893Y-154620308D01*
X135693011Y-154389684D01*
X135582641Y-154199450D01*
X135491781Y-154045809D01*
X135417430Y-153924961D01*
X135356584Y-153833108D01*
X135306241Y-153766449D01*
X135263401Y-153721184D01*
X135225059Y-153693513D01*
X135188216Y-153679639D01*
X135149868Y-153675762D01*
X135107012Y-153678080D01*
X135056648Y-153682796D01*
X135028011Y-153684848D01*
X134855231Y-153721686D01*
X134756476Y-153768799D01*
X134676392Y-153819887D01*
G36*
X134246076Y-157291846D02*
G01*
X134273096Y-157346009D01*
X134279364Y-157357054D01*
X134328211Y-157441659D01*
X134598967Y-157285338D01*
X134424399Y-157273318D01*
X134332172Y-157267886D01*
X134265344Y-157265674D01*
X134240176Y-157266875D01*
X134246076Y-157291846D01*
G37*
X134246076Y-157291846D02*
X134273096Y-157346009D01*
X134279364Y-157357054D01*
X134328211Y-157441659D01*
X134598967Y-157285338D01*
X134424399Y-157273318D01*
X134332172Y-157267886D01*
X134265344Y-157265674D01*
X134240176Y-157266875D01*
X134246076Y-157291846D01*
G36*
X133792602Y-156501054D02*
G01*
X134106370Y-157029506D01*
X134261478Y-157023104D01*
X134429663Y-156995441D01*
X134561461Y-156946470D01*
X134646479Y-156901803D01*
X134694684Y-156863188D01*
X134721118Y-156816004D01*
X134731912Y-156780787D01*
X134742236Y-156710490D01*
X134733314Y-156634250D01*
X134701796Y-156543221D01*
X134644330Y-156428557D01*
X134557566Y-156281415D01*
X134519748Y-156220751D01*
X134435401Y-156089577D01*
X134364650Y-155994131D01*
X134296923Y-155930401D01*
X134221651Y-155894370D01*
X134128263Y-155882027D01*
X134006191Y-155889357D01*
X133844862Y-155912345D01*
X133748848Y-155928017D01*
X133478835Y-155972603D01*
X133792602Y-156501054D01*
G37*
X133792602Y-156501054D02*
X134106370Y-157029506D01*
X134261478Y-157023104D01*
X134429663Y-156995441D01*
X134561461Y-156946470D01*
X134646479Y-156901803D01*
X134694684Y-156863188D01*
X134721118Y-156816004D01*
X134731912Y-156780787D01*
X134742236Y-156710490D01*
X134733314Y-156634250D01*
X134701796Y-156543221D01*
X134644330Y-156428557D01*
X134557566Y-156281415D01*
X134519748Y-156220751D01*
X134435401Y-156089577D01*
X134364650Y-155994131D01*
X134296923Y-155930401D01*
X134221651Y-155894370D01*
X134128263Y-155882027D01*
X134006191Y-155889357D01*
X133844862Y-155912345D01*
X133748848Y-155928017D01*
X133478835Y-155972603D01*
X133792602Y-156501054D01*
G36*
X139363267Y-151103262D02*
G01*
X139320754Y-151144979D01*
X139271430Y-151203058D01*
X139243016Y-151261825D01*
X139237154Y-151329013D01*
X139255491Y-151412359D01*
X139299671Y-151519598D01*
X139371337Y-151658466D01*
X139465286Y-151824840D01*
X139691982Y-152217697D01*
X140036467Y-152018868D01*
X140380951Y-151820037D01*
X140134375Y-151420868D01*
X140029664Y-151253793D01*
X139946573Y-151129837D01*
X139878848Y-151043744D01*
X139820239Y-150990262D01*
X139764495Y-150964137D01*
X139705365Y-150960119D01*
X139636597Y-150972953D01*
X139609959Y-150980206D01*
X139504058Y-151013965D01*
X139429618Y-151050544D01*
X139363267Y-151103262D01*
G37*
X139363267Y-151103262D02*
X139320754Y-151144979D01*
X139271430Y-151203058D01*
X139243016Y-151261825D01*
X139237154Y-151329013D01*
X139255491Y-151412359D01*
X139299671Y-151519598D01*
X139371337Y-151658466D01*
X139465286Y-151824840D01*
X139691982Y-152217697D01*
X140036467Y-152018868D01*
X140380951Y-151820037D01*
X140134375Y-151420868D01*
X140029664Y-151253793D01*
X139946573Y-151129837D01*
X139878848Y-151043744D01*
X139820239Y-150990262D01*
X139764495Y-150964137D01*
X139705365Y-150960119D01*
X139636597Y-150972953D01*
X139609959Y-150980206D01*
X139504058Y-151013965D01*
X139429618Y-151050544D01*
X139363267Y-151103262D01*
D13*
%TO.C,J4*%
X67368911Y-162820319D02*
X73431089Y-166320319D01*
X76381111Y-159478731D02*
X78426663Y-160659731D01*
X74649926Y-158479231D02*
X75287321Y-158847231D01*
X72916143Y-157478231D02*
X73556136Y-157847731D01*
X69772471Y-155663231D02*
X71823219Y-156847231D01*
X78426663Y-160659731D02*
X76517163Y-163967082D01*
X69772471Y-155663231D02*
X67862971Y-158970582D01*
D14*
G36*
X75036934Y-155636496D02*
G01*
X75715131Y-156028053D01*
X75900301Y-155691798D01*
X76085471Y-155355542D01*
X75756982Y-155156921D01*
X75428491Y-154958300D01*
X75036934Y-155636496D01*
G37*
X75036934Y-155636496D02*
X75715131Y-156028053D01*
X75900301Y-155691798D01*
X76085471Y-155355542D01*
X75756982Y-155156921D01*
X75428491Y-154958300D01*
X75036934Y-155636496D01*
G36*
X74070031Y-155078255D02*
G01*
X74397120Y-155267099D01*
X74538922Y-155347323D01*
X74639925Y-155400212D01*
X74706297Y-155428606D01*
X74744213Y-155435338D01*
X74754537Y-155431379D01*
X74779016Y-155398496D01*
X74823602Y-155326787D01*
X74882073Y-155226648D01*
X74948199Y-155108476D01*
X74951717Y-155102057D01*
X75118568Y-154797300D01*
X74790078Y-154598679D01*
X74461588Y-154400059D01*
X74070031Y-155078255D01*
G37*
X74070031Y-155078255D02*
X74397120Y-155267099D01*
X74538922Y-155347323D01*
X74639925Y-155400212D01*
X74706297Y-155428606D01*
X74744213Y-155435338D01*
X74754537Y-155431379D01*
X74779016Y-155398496D01*
X74823602Y-155326787D01*
X74882073Y-155226648D01*
X74948199Y-155108476D01*
X74951717Y-155102057D01*
X75118568Y-154797300D01*
X74790078Y-154598679D01*
X74461588Y-154400059D01*
X74070031Y-155078255D01*
G36*
X73811089Y-154033459D02*
G01*
X73474833Y-153848289D01*
X73276212Y-154176779D01*
X73077591Y-154505269D01*
X73755788Y-154896826D01*
X74147345Y-154218630D01*
X73811089Y-154033459D01*
G37*
X73811089Y-154033459D02*
X73474833Y-153848289D01*
X73276212Y-154176779D01*
X73077591Y-154505269D01*
X73755788Y-154896826D01*
X74147345Y-154218630D01*
X73811089Y-154033459D01*
G36*
X72112053Y-153947815D02*
G01*
X72790249Y-154339372D01*
X73160589Y-153666861D01*
X72832100Y-153468239D01*
X72503609Y-153269619D01*
X72112053Y-153947815D01*
G37*
X72112053Y-153947815D02*
X72790249Y-154339372D01*
X73160589Y-153666861D01*
X72832100Y-153468239D01*
X72503609Y-153269619D01*
X72112053Y-153947815D01*
G36*
X80660812Y-154045984D02*
G01*
X80978889Y-154248685D01*
X80848192Y-154508624D01*
X80679660Y-154420890D01*
X80511129Y-154333155D01*
X79768691Y-155604647D01*
X79026253Y-156876138D01*
X79455582Y-157123890D01*
X79608828Y-157212165D01*
X79719634Y-157275010D01*
X79793901Y-157314908D01*
X79837533Y-157334338D01*
X79856437Y-157335782D01*
X79856516Y-157321720D01*
X79843673Y-157294633D01*
X79838396Y-157284735D01*
X79773761Y-157109755D01*
X79764400Y-156928693D01*
X79766593Y-156909350D01*
X79788573Y-156833366D01*
X79835559Y-156724414D01*
X79900431Y-156595182D01*
X79976068Y-156458357D01*
X80055351Y-156326625D01*
X80131159Y-156212673D01*
X80196373Y-156129186D01*
X80215619Y-156109283D01*
X80281433Y-156056083D01*
X80357121Y-156015571D01*
X80451611Y-155985734D01*
X80573834Y-155964556D01*
X80732716Y-155950022D01*
X80937188Y-155940115D01*
X80970159Y-155938976D01*
X81170726Y-155931133D01*
X81324773Y-155919899D01*
X81441601Y-155901076D01*
X81530507Y-155870466D01*
X81600792Y-155823869D01*
X81661754Y-155757089D01*
X81722693Y-155665924D01*
X81776290Y-155575020D01*
X81841104Y-155461097D01*
X81881624Y-155382309D01*
X81902119Y-155325825D01*
X81906857Y-155278820D01*
X81900107Y-155228462D01*
X81896873Y-155212647D01*
X81872626Y-155135926D01*
X81828491Y-155075718D01*
X81749465Y-155011683D01*
X81747722Y-155010435D01*
X81626422Y-154939371D01*
X81509312Y-154897722D01*
X81506900Y-154897221D01*
X81415986Y-154889672D01*
X81335817Y-154910977D01*
X81259271Y-154966704D01*
X81179224Y-155062425D01*
X81088557Y-155203710D01*
X81066250Y-155241854D01*
X80923163Y-155489601D01*
X80633092Y-155322129D01*
X80784075Y-155060618D01*
X80904555Y-154868723D01*
X81018284Y-154726118D01*
X81131629Y-154627830D01*
X81250955Y-154568886D01*
X81382627Y-154544312D01*
X81446476Y-154543114D01*
X81505250Y-154550600D01*
X81574691Y-154573544D01*
X81665844Y-154616679D01*
X81789757Y-154684736D01*
X81826799Y-154705996D01*
X81949085Y-154777712D01*
X82033251Y-154831408D01*
X82090097Y-154875954D01*
X82130421Y-154920224D01*
X82165024Y-154973090D01*
X82176810Y-154993547D01*
X82232169Y-155135102D01*
X82248157Y-155260350D01*
X82245120Y-155325003D01*
X82233657Y-155385786D01*
X82209208Y-155454910D01*
X82167214Y-155544590D01*
X82103117Y-155667036D01*
X82080975Y-155708140D01*
X81998219Y-155854541D01*
X81920920Y-155978824D01*
X81856155Y-156069972D01*
X81827158Y-156103279D01*
X81743627Y-156169175D01*
X81637174Y-156219232D01*
X81500122Y-156255345D01*
X81324793Y-156279409D01*
X81103508Y-156293320D01*
X81049744Y-156295150D01*
X80895351Y-156301725D01*
X80751943Y-156311359D01*
X80633174Y-156322890D01*
X80552701Y-156335157D01*
X80538756Y-156338605D01*
X80493093Y-156353309D01*
X80456867Y-156372495D01*
X80422678Y-156404910D01*
X80383126Y-156459306D01*
X80330810Y-156544431D01*
X80258330Y-156669036D01*
X80256256Y-156672630D01*
X80184057Y-156798406D01*
X80136138Y-156886296D01*
X80108831Y-156946741D01*
X80098469Y-156990179D01*
X80101383Y-157027048D01*
X80113906Y-157067788D01*
X80115655Y-157072788D01*
X80139034Y-157126145D01*
X80173893Y-157169747D01*
X80232404Y-157214774D01*
X80326744Y-157272410D01*
X80343687Y-157282228D01*
X80442894Y-157337845D01*
X80510504Y-157368608D01*
X80562528Y-157378820D01*
X80614975Y-157372786D01*
X80649033Y-157364307D01*
X80696736Y-157350286D01*
X80733821Y-157332095D01*
X80768007Y-157300864D01*
X80807011Y-157247724D01*
X80858551Y-157163806D01*
X80929032Y-157042514D01*
X81097578Y-156750583D01*
X81387649Y-156918056D01*
X81212296Y-157221775D01*
X81103611Y-157399313D01*
X81006880Y-157530588D01*
X80914951Y-157621787D01*
X80820665Y-157679098D01*
X80716871Y-157708708D01*
X80640790Y-157716038D01*
X80491742Y-157722238D01*
X80685071Y-157830950D01*
X80790879Y-157886740D01*
X80890722Y-157933105D01*
X80964844Y-157960952D01*
X80971130Y-157962632D01*
X81084226Y-157968543D01*
X81215227Y-157942867D01*
X81341348Y-157892236D01*
X81435455Y-157827471D01*
X81465340Y-157792499D01*
X81510094Y-157729130D01*
X81571409Y-157634576D01*
X81650980Y-157506047D01*
X81750500Y-157340753D01*
X81871665Y-157135903D01*
X82016168Y-156888709D01*
X82185701Y-156596378D01*
X82240064Y-156502286D01*
X82957930Y-155258907D01*
X82967885Y-155096708D01*
X82963075Y-154961634D01*
X82925108Y-154844532D01*
X82903533Y-154803443D01*
X82829227Y-154672377D01*
X81884551Y-154117506D01*
X80939872Y-153562637D01*
X80660812Y-154045984D01*
G37*
X80660812Y-154045984D02*
X80978889Y-154248685D01*
X80848192Y-154508624D01*
X80679660Y-154420890D01*
X80511129Y-154333155D01*
X79768691Y-155604647D01*
X79026253Y-156876138D01*
X79455582Y-157123890D01*
X79608828Y-157212165D01*
X79719634Y-157275010D01*
X79793901Y-157314908D01*
X79837533Y-157334338D01*
X79856437Y-157335782D01*
X79856516Y-157321720D01*
X79843673Y-157294633D01*
X79838396Y-157284735D01*
X79773761Y-157109755D01*
X79764400Y-156928693D01*
X79766593Y-156909350D01*
X79788573Y-156833366D01*
X79835559Y-156724414D01*
X79900431Y-156595182D01*
X79976068Y-156458357D01*
X80055351Y-156326625D01*
X80131159Y-156212673D01*
X80196373Y-156129186D01*
X80215619Y-156109283D01*
X80281433Y-156056083D01*
X80357121Y-156015571D01*
X80451611Y-155985734D01*
X80573834Y-155964556D01*
X80732716Y-155950022D01*
X80937188Y-155940115D01*
X80970159Y-155938976D01*
X81170726Y-155931133D01*
X81324773Y-155919899D01*
X81441601Y-155901076D01*
X81530507Y-155870466D01*
X81600792Y-155823869D01*
X81661754Y-155757089D01*
X81722693Y-155665924D01*
X81776290Y-155575020D01*
X81841104Y-155461097D01*
X81881624Y-155382309D01*
X81902119Y-155325825D01*
X81906857Y-155278820D01*
X81900107Y-155228462D01*
X81896873Y-155212647D01*
X81872626Y-155135926D01*
X81828491Y-155075718D01*
X81749465Y-155011683D01*
X81747722Y-155010435D01*
X81626422Y-154939371D01*
X81509312Y-154897722D01*
X81506900Y-154897221D01*
X81415986Y-154889672D01*
X81335817Y-154910977D01*
X81259271Y-154966704D01*
X81179224Y-155062425D01*
X81088557Y-155203710D01*
X81066250Y-155241854D01*
X80923163Y-155489601D01*
X80633092Y-155322129D01*
X80784075Y-155060618D01*
X80904555Y-154868723D01*
X81018284Y-154726118D01*
X81131629Y-154627830D01*
X81250955Y-154568886D01*
X81382627Y-154544312D01*
X81446476Y-154543114D01*
X81505250Y-154550600D01*
X81574691Y-154573544D01*
X81665844Y-154616679D01*
X81789757Y-154684736D01*
X81826799Y-154705996D01*
X81949085Y-154777712D01*
X82033251Y-154831408D01*
X82090097Y-154875954D01*
X82130421Y-154920224D01*
X82165024Y-154973090D01*
X82176810Y-154993547D01*
X82232169Y-155135102D01*
X82248157Y-155260350D01*
X82245120Y-155325003D01*
X82233657Y-155385786D01*
X82209208Y-155454910D01*
X82167214Y-155544590D01*
X82103117Y-155667036D01*
X82080975Y-155708140D01*
X81998219Y-155854541D01*
X81920920Y-155978824D01*
X81856155Y-156069972D01*
X81827158Y-156103279D01*
X81743627Y-156169175D01*
X81637174Y-156219232D01*
X81500122Y-156255345D01*
X81324793Y-156279409D01*
X81103508Y-156293320D01*
X81049744Y-156295150D01*
X80895351Y-156301725D01*
X80751943Y-156311359D01*
X80633174Y-156322890D01*
X80552701Y-156335157D01*
X80538756Y-156338605D01*
X80493093Y-156353309D01*
X80456867Y-156372495D01*
X80422678Y-156404910D01*
X80383126Y-156459306D01*
X80330810Y-156544431D01*
X80258330Y-156669036D01*
X80256256Y-156672630D01*
X80184057Y-156798406D01*
X80136138Y-156886296D01*
X80108831Y-156946741D01*
X80098469Y-156990179D01*
X80101383Y-157027048D01*
X80113906Y-157067788D01*
X80115655Y-157072788D01*
X80139034Y-157126145D01*
X80173893Y-157169747D01*
X80232404Y-157214774D01*
X80326744Y-157272410D01*
X80343687Y-157282228D01*
X80442894Y-157337845D01*
X80510504Y-157368608D01*
X80562528Y-157378820D01*
X80614975Y-157372786D01*
X80649033Y-157364307D01*
X80696736Y-157350286D01*
X80733821Y-157332095D01*
X80768007Y-157300864D01*
X80807011Y-157247724D01*
X80858551Y-157163806D01*
X80929032Y-157042514D01*
X81097578Y-156750583D01*
X81387649Y-156918056D01*
X81212296Y-157221775D01*
X81103611Y-157399313D01*
X81006880Y-157530588D01*
X80914951Y-157621787D01*
X80820665Y-157679098D01*
X80716871Y-157708708D01*
X80640790Y-157716038D01*
X80491742Y-157722238D01*
X80685071Y-157830950D01*
X80790879Y-157886740D01*
X80890722Y-157933105D01*
X80964844Y-157960952D01*
X80971130Y-157962632D01*
X81084226Y-157968543D01*
X81215227Y-157942867D01*
X81341348Y-157892236D01*
X81435455Y-157827471D01*
X81465340Y-157792499D01*
X81510094Y-157729130D01*
X81571409Y-157634576D01*
X81650980Y-157506047D01*
X81750500Y-157340753D01*
X81871665Y-157135903D01*
X82016168Y-156888709D01*
X82185701Y-156596378D01*
X82240064Y-156502286D01*
X82957930Y-155258907D01*
X82967885Y-155096708D01*
X82963075Y-154961634D01*
X82925108Y-154844532D01*
X82903533Y-154803443D01*
X82829227Y-154672377D01*
X81884551Y-154117506D01*
X80939872Y-153562637D01*
X80660812Y-154045984D01*
G36*
X72285001Y-148651996D02*
G01*
X72181539Y-148661293D01*
X72068405Y-148690965D01*
X72027378Y-148707443D01*
X71895600Y-148768216D01*
X71146295Y-150049110D01*
X70951523Y-150383184D01*
X70785533Y-150670318D01*
X70647953Y-150911176D01*
X70538412Y-151106423D01*
X70456537Y-151256727D01*
X70401956Y-151362750D01*
X70374298Y-151425158D01*
X70371394Y-151434635D01*
X70358561Y-151599392D01*
X70397963Y-151759148D01*
X70486296Y-151903257D01*
X70531758Y-151951467D01*
X70588143Y-152004925D01*
X71303609Y-150782056D01*
X71464221Y-150507666D01*
X71599363Y-150277318D01*
X71711694Y-150086832D01*
X71803879Y-149932034D01*
X71878576Y-149808747D01*
X71938448Y-149712792D01*
X71986157Y-149639995D01*
X72024365Y-149586177D01*
X72055732Y-149547164D01*
X72082919Y-149518778D01*
X72108591Y-149496842D01*
X72134907Y-149477531D01*
X72280085Y-149401503D01*
X72433024Y-149374871D01*
X72597942Y-149398015D01*
X72779060Y-149471311D01*
X72908827Y-149546896D01*
X73074689Y-149672659D01*
X73188971Y-149805676D01*
X73252184Y-149949505D01*
X73264837Y-150107707D01*
X73227441Y-150283843D01*
X73140502Y-150481471D01*
X73061903Y-150616422D01*
X72944843Y-150802741D01*
X72801666Y-150729743D01*
X72658488Y-150656745D01*
X72778259Y-150449296D01*
X72862899Y-150284211D01*
X72906891Y-150150285D01*
X72911537Y-150041844D01*
X72888221Y-149970422D01*
X72809850Y-149869804D01*
X72700800Y-149790911D01*
X72577243Y-149741186D01*
X72455355Y-149728070D01*
X72389529Y-149740948D01*
X72351167Y-149756875D01*
X72317511Y-149780341D01*
X72282061Y-149819711D01*
X72238318Y-149883354D01*
X72179779Y-149979636D01*
X72107239Y-150104284D01*
X71915737Y-150435976D01*
X72092306Y-150646523D01*
X72250194Y-150839763D01*
X72371120Y-151000635D01*
X72458255Y-151135575D01*
X72514772Y-151251014D01*
X72543840Y-151353387D01*
X72548633Y-151449130D01*
X72533263Y-151541076D01*
X72510146Y-151600952D01*
X72464026Y-151697763D01*
X72400512Y-151820512D01*
X72325212Y-151958201D01*
X72279959Y-152037780D01*
X72173311Y-152217951D01*
X72084977Y-152354273D01*
X72008927Y-152453132D01*
X71939129Y-152520911D01*
X71869554Y-152564001D01*
X71794169Y-152588784D01*
X71752509Y-152596293D01*
X71642267Y-152612276D01*
X71950313Y-152790484D01*
X72258358Y-152968692D01*
X72966762Y-151742011D01*
X73139555Y-151443980D01*
X73294097Y-151179836D01*
X73428977Y-150951923D01*
X73542784Y-150762581D01*
X73634104Y-150614151D01*
X73701526Y-150508977D01*
X73743638Y-150449396D01*
X73752035Y-150439849D01*
X73866081Y-150358454D01*
X74001057Y-150308060D01*
X74133690Y-150297077D01*
X74144085Y-150298227D01*
X74251063Y-150328675D01*
X74373238Y-150388054D01*
X74488383Y-150463875D01*
X74568247Y-150536549D01*
X74617268Y-150602856D01*
X74675700Y-150696136D01*
X74717514Y-150771180D01*
X74800806Y-150930324D01*
X74884179Y-150893328D01*
X75024218Y-150860136D01*
X75173170Y-150875180D01*
X75322688Y-150933608D01*
X75464422Y-151030569D01*
X75590025Y-151161210D01*
X75691151Y-151320679D01*
X75717201Y-151377536D01*
X75762803Y-151486735D01*
X75876884Y-151450561D01*
X76035365Y-151426006D01*
X76195346Y-151454245D01*
X76330132Y-151516379D01*
X76447486Y-151595350D01*
X76541104Y-151688128D01*
X76625289Y-151810583D01*
X76673076Y-151896955D01*
X76753950Y-152051436D01*
X76875092Y-152010392D01*
X77006809Y-151985583D01*
X77138840Y-152004293D01*
X77282113Y-152068812D01*
X77346999Y-152109277D01*
X77440392Y-152179153D01*
X77509674Y-152254383D01*
X77574097Y-152356712D01*
X77587003Y-152380315D01*
X77635152Y-152467240D01*
X77673599Y-152532180D01*
X77694452Y-152561842D01*
X77694995Y-152562224D01*
X77716858Y-152546479D01*
X77751840Y-152496936D01*
X77758327Y-152485984D01*
X77807173Y-152401379D01*
X78097244Y-152568852D01*
X76464387Y-155397044D01*
X77223201Y-155835146D01*
X77153884Y-155702652D01*
X77106031Y-155583482D01*
X77090695Y-155462677D01*
X77109204Y-155330212D01*
X77162883Y-155176060D01*
X77246521Y-155002568D01*
X77386346Y-154736823D01*
X77681766Y-154907383D01*
X77569669Y-155101540D01*
X77486824Y-155264963D01*
X77447493Y-155399000D01*
X77452902Y-155510710D01*
X77504278Y-155607151D01*
X77602847Y-155695381D01*
X77681497Y-155745211D01*
X77827201Y-155812735D01*
X77948598Y-155832060D01*
X78048875Y-155803568D01*
X78067402Y-155791649D01*
X78111743Y-155743820D01*
X78179375Y-155647623D01*
X78269108Y-155504858D01*
X78376448Y-155323057D01*
X78620022Y-154901175D01*
X77628946Y-154328977D01*
X77926104Y-153815651D01*
X78046068Y-153610973D01*
X78144851Y-153449382D01*
X78227299Y-153324580D01*
X78298260Y-153230269D01*
X78362582Y-153160152D01*
X78425112Y-153107930D01*
X78490697Y-153067307D01*
X78509734Y-153057423D01*
X78636141Y-153013660D01*
X78770474Y-153009242D01*
X78921900Y-153045254D01*
X79099587Y-153122789D01*
X79111463Y-153128877D01*
X79305038Y-153243299D01*
X79446729Y-153361846D01*
X79540465Y-153489590D01*
X79590180Y-153631605D01*
X79600879Y-153760524D01*
X79599048Y-153903256D01*
X78384872Y-156006269D01*
X78259127Y-156090418D01*
X78112031Y-156160538D01*
X77983069Y-156180820D01*
X77832759Y-156187074D01*
X78273356Y-156441453D01*
X78441390Y-156537271D01*
X78567087Y-156605968D01*
X78655450Y-156650002D01*
X78711484Y-156671835D01*
X78740194Y-156673925D01*
X78742970Y-156672296D01*
X78762059Y-156644129D01*
X78806005Y-156572063D01*
X78872102Y-156460744D01*
X78957641Y-156314818D01*
X79059915Y-156138931D01*
X79176215Y-155937726D01*
X79303835Y-155715850D01*
X79440065Y-155477947D01*
X79484435Y-155400244D01*
X80196885Y-154151726D01*
X80037847Y-154050376D01*
X79878809Y-153949025D01*
X80031050Y-153685335D01*
X80371217Y-153881731D01*
X80500370Y-153642053D01*
X80629522Y-153402377D01*
X72410846Y-148657322D01*
X72285001Y-148651996D01*
G37*
X72285001Y-148651996D02*
X72181539Y-148661293D01*
X72068405Y-148690965D01*
X72027378Y-148707443D01*
X71895600Y-148768216D01*
X71146295Y-150049110D01*
X70951523Y-150383184D01*
X70785533Y-150670318D01*
X70647953Y-150911176D01*
X70538412Y-151106423D01*
X70456537Y-151256727D01*
X70401956Y-151362750D01*
X70374298Y-151425158D01*
X70371394Y-151434635D01*
X70358561Y-151599392D01*
X70397963Y-151759148D01*
X70486296Y-151903257D01*
X70531758Y-151951467D01*
X70588143Y-152004925D01*
X71303609Y-150782056D01*
X71464221Y-150507666D01*
X71599363Y-150277318D01*
X71711694Y-150086832D01*
X71803879Y-149932034D01*
X71878576Y-149808747D01*
X71938448Y-149712792D01*
X71986157Y-149639995D01*
X72024365Y-149586177D01*
X72055732Y-149547164D01*
X72082919Y-149518778D01*
X72108591Y-149496842D01*
X72134907Y-149477531D01*
X72280085Y-149401503D01*
X72433024Y-149374871D01*
X72597942Y-149398015D01*
X72779060Y-149471311D01*
X72908827Y-149546896D01*
X73074689Y-149672659D01*
X73188971Y-149805676D01*
X73252184Y-149949505D01*
X73264837Y-150107707D01*
X73227441Y-150283843D01*
X73140502Y-150481471D01*
X73061903Y-150616422D01*
X72944843Y-150802741D01*
X72801666Y-150729743D01*
X72658488Y-150656745D01*
X72778259Y-150449296D01*
X72862899Y-150284211D01*
X72906891Y-150150285D01*
X72911537Y-150041844D01*
X72888221Y-149970422D01*
X72809850Y-149869804D01*
X72700800Y-149790911D01*
X72577243Y-149741186D01*
X72455355Y-149728070D01*
X72389529Y-149740948D01*
X72351167Y-149756875D01*
X72317511Y-149780341D01*
X72282061Y-149819711D01*
X72238318Y-149883354D01*
X72179779Y-149979636D01*
X72107239Y-150104284D01*
X71915737Y-150435976D01*
X72092306Y-150646523D01*
X72250194Y-150839763D01*
X72371120Y-151000635D01*
X72458255Y-151135575D01*
X72514772Y-151251014D01*
X72543840Y-151353387D01*
X72548633Y-151449130D01*
X72533263Y-151541076D01*
X72510146Y-151600952D01*
X72464026Y-151697763D01*
X72400512Y-151820512D01*
X72325212Y-151958201D01*
X72279959Y-152037780D01*
X72173311Y-152217951D01*
X72084977Y-152354273D01*
X72008927Y-152453132D01*
X71939129Y-152520911D01*
X71869554Y-152564001D01*
X71794169Y-152588784D01*
X71752509Y-152596293D01*
X71642267Y-152612276D01*
X71950313Y-152790484D01*
X72258358Y-152968692D01*
X72966762Y-151742011D01*
X73139555Y-151443980D01*
X73294097Y-151179836D01*
X73428977Y-150951923D01*
X73542784Y-150762581D01*
X73634104Y-150614151D01*
X73701526Y-150508977D01*
X73743638Y-150449396D01*
X73752035Y-150439849D01*
X73866081Y-150358454D01*
X74001057Y-150308060D01*
X74133690Y-150297077D01*
X74144085Y-150298227D01*
X74251063Y-150328675D01*
X74373238Y-150388054D01*
X74488383Y-150463875D01*
X74568247Y-150536549D01*
X74617268Y-150602856D01*
X74675700Y-150696136D01*
X74717514Y-150771180D01*
X74800806Y-150930324D01*
X74884179Y-150893328D01*
X75024218Y-150860136D01*
X75173170Y-150875180D01*
X75322688Y-150933608D01*
X75464422Y-151030569D01*
X75590025Y-151161210D01*
X75691151Y-151320679D01*
X75717201Y-151377536D01*
X75762803Y-151486735D01*
X75876884Y-151450561D01*
X76035365Y-151426006D01*
X76195346Y-151454245D01*
X76330132Y-151516379D01*
X76447486Y-151595350D01*
X76541104Y-151688128D01*
X76625289Y-151810583D01*
X76673076Y-151896955D01*
X76753950Y-152051436D01*
X76875092Y-152010392D01*
X77006809Y-151985583D01*
X77138840Y-152004293D01*
X77282113Y-152068812D01*
X77346999Y-152109277D01*
X77440392Y-152179153D01*
X77509674Y-152254383D01*
X77574097Y-152356712D01*
X77587003Y-152380315D01*
X77635152Y-152467240D01*
X77673599Y-152532180D01*
X77694452Y-152561842D01*
X77694995Y-152562224D01*
X77716858Y-152546479D01*
X77751840Y-152496936D01*
X77758327Y-152485984D01*
X77807173Y-152401379D01*
X78097244Y-152568852D01*
X76464387Y-155397044D01*
X77223201Y-155835146D01*
X77153884Y-155702652D01*
X77106031Y-155583482D01*
X77090695Y-155462677D01*
X77109204Y-155330212D01*
X77162883Y-155176060D01*
X77246521Y-155002568D01*
X77386346Y-154736823D01*
X77681766Y-154907383D01*
X77569669Y-155101540D01*
X77486824Y-155264963D01*
X77447493Y-155399000D01*
X77452902Y-155510710D01*
X77504278Y-155607151D01*
X77602847Y-155695381D01*
X77681497Y-155745211D01*
X77827201Y-155812735D01*
X77948598Y-155832060D01*
X78048875Y-155803568D01*
X78067402Y-155791649D01*
X78111743Y-155743820D01*
X78179375Y-155647623D01*
X78269108Y-155504858D01*
X78376448Y-155323057D01*
X78620022Y-154901175D01*
X77628946Y-154328977D01*
X77926104Y-153815651D01*
X78046068Y-153610973D01*
X78144851Y-153449382D01*
X78227299Y-153324580D01*
X78298260Y-153230269D01*
X78362582Y-153160152D01*
X78425112Y-153107930D01*
X78490697Y-153067307D01*
X78509734Y-153057423D01*
X78636141Y-153013660D01*
X78770474Y-153009242D01*
X78921900Y-153045254D01*
X79099587Y-153122789D01*
X79111463Y-153128877D01*
X79305038Y-153243299D01*
X79446729Y-153361846D01*
X79540465Y-153489590D01*
X79590180Y-153631605D01*
X79600879Y-153760524D01*
X79599048Y-153903256D01*
X78384872Y-156006269D01*
X78259127Y-156090418D01*
X78112031Y-156160538D01*
X77983069Y-156180820D01*
X77832759Y-156187074D01*
X78273356Y-156441453D01*
X78441390Y-156537271D01*
X78567087Y-156605968D01*
X78655450Y-156650002D01*
X78711484Y-156671835D01*
X78740194Y-156673925D01*
X78742970Y-156672296D01*
X78762059Y-156644129D01*
X78806005Y-156572063D01*
X78872102Y-156460744D01*
X78957641Y-156314818D01*
X79059915Y-156138931D01*
X79176215Y-155937726D01*
X79303835Y-155715850D01*
X79440065Y-155477947D01*
X79484435Y-155400244D01*
X80196885Y-154151726D01*
X80037847Y-154050376D01*
X79878809Y-153949025D01*
X80031050Y-153685335D01*
X80371217Y-153881731D01*
X80500370Y-153642053D01*
X80629522Y-153402377D01*
X72410846Y-148657322D01*
X72285001Y-148651996D01*
G36*
X77140484Y-152366603D02*
G01*
X77079333Y-152351382D01*
X77019439Y-152360611D01*
X76999261Y-152367230D01*
X76905487Y-152400067D01*
X75497483Y-154838802D01*
X76174316Y-155229571D01*
X77554064Y-152839778D01*
X77514576Y-152754656D01*
X77433017Y-152605052D01*
X77342347Y-152496298D01*
X77230046Y-152413523D01*
X77224826Y-152410483D01*
X77140484Y-152366603D01*
G37*
X77140484Y-152366603D02*
X77079333Y-152351382D01*
X77019439Y-152360611D01*
X76999261Y-152367230D01*
X76905487Y-152400067D01*
X75497483Y-154838802D01*
X76174316Y-155229571D01*
X77554064Y-152839778D01*
X77514576Y-152754656D01*
X77433017Y-152605052D01*
X77342347Y-152496298D01*
X77230046Y-152413523D01*
X77224826Y-152410483D01*
X77140484Y-152366603D01*
G36*
X76173309Y-151808241D02*
G01*
X76112126Y-151793131D01*
X76052052Y-151802516D01*
X76032358Y-151808988D01*
X75938584Y-151841826D01*
X74530580Y-154280560D01*
X74852881Y-154466641D01*
X74973801Y-154534924D01*
X75077991Y-154590890D01*
X75155726Y-154629526D01*
X75197288Y-154645819D01*
X75200602Y-154645909D01*
X75219200Y-154621087D01*
X75262773Y-154552521D01*
X75328528Y-154444899D01*
X75413673Y-154302907D01*
X75515420Y-154131230D01*
X75630977Y-153934557D01*
X75757552Y-153717573D01*
X75892356Y-153484966D01*
X75905378Y-153462418D01*
X76063036Y-153189816D01*
X76195191Y-152961371D01*
X76303640Y-152772543D01*
X76390177Y-152618796D01*
X76456599Y-152495590D01*
X76504701Y-152398387D01*
X76536279Y-152322650D01*
X76553127Y-152263839D01*
X76557041Y-152217417D01*
X76549818Y-152178846D01*
X76533252Y-152143585D01*
X76509139Y-152107099D01*
X76479275Y-152064847D01*
X76466066Y-152045233D01*
X76347774Y-151914019D01*
X76257595Y-151852052D01*
X76173309Y-151808241D01*
G37*
X76173309Y-151808241D02*
X76112126Y-151793131D01*
X76052052Y-151802516D01*
X76032358Y-151808988D01*
X75938584Y-151841826D01*
X74530580Y-154280560D01*
X74852881Y-154466641D01*
X74973801Y-154534924D01*
X75077991Y-154590890D01*
X75155726Y-154629526D01*
X75197288Y-154645819D01*
X75200602Y-154645909D01*
X75219200Y-154621087D01*
X75262773Y-154552521D01*
X75328528Y-154444899D01*
X75413673Y-154302907D01*
X75515420Y-154131230D01*
X75630977Y-153934557D01*
X75757552Y-153717573D01*
X75892356Y-153484966D01*
X75905378Y-153462418D01*
X76063036Y-153189816D01*
X76195191Y-152961371D01*
X76303640Y-152772543D01*
X76390177Y-152618796D01*
X76456599Y-152495590D01*
X76504701Y-152398387D01*
X76536279Y-152322650D01*
X76553127Y-152263839D01*
X76557041Y-152217417D01*
X76549818Y-152178846D01*
X76533252Y-152143585D01*
X76509139Y-152107099D01*
X76479275Y-152064847D01*
X76466066Y-152045233D01*
X76347774Y-151914019D01*
X76257595Y-151852052D01*
X76173309Y-151808241D01*
G36*
X75197937Y-151246667D02*
G01*
X75178985Y-151241115D01*
X75138344Y-151230812D01*
X75102312Y-151225115D01*
X75068172Y-151227659D01*
X75033209Y-151242079D01*
X74994709Y-151272012D01*
X74949955Y-151321094D01*
X74896234Y-151392961D01*
X74830830Y-151491248D01*
X74751029Y-151619592D01*
X74654114Y-151781628D01*
X74537372Y-151980993D01*
X74398087Y-152221322D01*
X74233543Y-152506251D01*
X73539504Y-153708362D01*
X74216337Y-154099132D01*
X75610765Y-151683912D01*
X75542722Y-151564512D01*
X75441172Y-151421480D01*
X75322479Y-151312185D01*
X75197937Y-151246667D01*
G37*
X75197937Y-151246667D02*
X75178985Y-151241115D01*
X75138344Y-151230812D01*
X75102312Y-151225115D01*
X75068172Y-151227659D01*
X75033209Y-151242079D01*
X74994709Y-151272012D01*
X74949955Y-151321094D01*
X74896234Y-151392961D01*
X74830830Y-151491248D01*
X74751029Y-151619592D01*
X74654114Y-151781628D01*
X74537372Y-151980993D01*
X74398087Y-152221322D01*
X74233543Y-152506251D01*
X73539504Y-153708362D01*
X74216337Y-154099132D01*
X75610765Y-151683912D01*
X75542722Y-151564512D01*
X75441172Y-151421480D01*
X75322479Y-151312185D01*
X75197937Y-151246667D01*
G36*
X74215331Y-150677801D02*
G01*
X74154147Y-150662691D01*
X74094073Y-150672077D01*
X74074379Y-150678548D01*
X73980606Y-150711386D01*
X72572602Y-153150121D01*
X73249434Y-153540890D01*
X73938095Y-152348093D01*
X74096896Y-152073509D01*
X74230182Y-151843118D01*
X74339744Y-151652418D01*
X74427371Y-151496910D01*
X74494853Y-151372096D01*
X74543977Y-151273475D01*
X74576534Y-151196548D01*
X74594315Y-151136815D01*
X74599107Y-151089774D01*
X74592701Y-151050930D01*
X74576885Y-151015781D01*
X74553449Y-150979826D01*
X74524183Y-150938567D01*
X74508087Y-150914793D01*
X74389795Y-150783580D01*
X74299616Y-150721612D01*
X74215331Y-150677801D01*
G37*
X74215331Y-150677801D02*
X74154147Y-150662691D01*
X74094073Y-150672077D01*
X74074379Y-150678548D01*
X73980606Y-150711386D01*
X72572602Y-153150121D01*
X73249434Y-153540890D01*
X73938095Y-152348093D01*
X74096896Y-152073509D01*
X74230182Y-151843118D01*
X74339744Y-151652418D01*
X74427371Y-151496910D01*
X74494853Y-151372096D01*
X74543977Y-151273475D01*
X74576534Y-151196548D01*
X74594315Y-151136815D01*
X74599107Y-151089774D01*
X74592701Y-151050930D01*
X74576885Y-151015781D01*
X74553449Y-150979826D01*
X74524183Y-150938567D01*
X74508087Y-150914793D01*
X74389795Y-150783580D01*
X74299616Y-150721612D01*
X74215331Y-150677801D01*
G36*
X70993368Y-152041116D02*
G01*
X70959972Y-152091598D01*
X70953540Y-152102549D01*
X70904694Y-152187154D01*
X71175450Y-152343475D01*
X71098575Y-152186285D01*
X71057166Y-152103698D01*
X71025668Y-152044717D01*
X71012044Y-152023521D01*
X70993368Y-152041116D01*
G37*
X70993368Y-152041116D02*
X70959972Y-152091598D01*
X70953540Y-152102549D01*
X70904694Y-152187154D01*
X71175450Y-152343475D01*
X71098575Y-152186285D01*
X71057166Y-152103698D01*
X71025668Y-152044717D01*
X71012044Y-152023521D01*
X70993368Y-152041116D01*
G36*
X71451477Y-151253000D02*
G01*
X71150708Y-151788957D01*
X71233807Y-151920084D01*
X71341856Y-152051905D01*
X71450165Y-152141560D01*
X71531357Y-152192854D01*
X71588901Y-152215293D01*
X71642980Y-152214594D01*
X71678876Y-152206333D01*
X71744917Y-152180125D01*
X71806482Y-152134279D01*
X71869557Y-152061469D01*
X71940125Y-151954370D01*
X72024172Y-151805659D01*
X72057800Y-151742576D01*
X72129226Y-151603942D01*
X72176509Y-151494947D01*
X72197838Y-151404429D01*
X72191405Y-151321226D01*
X72155401Y-151234178D01*
X72088017Y-151132125D01*
X71987444Y-151003904D01*
X71925865Y-150928590D01*
X71752246Y-150717045D01*
X71451477Y-151253000D01*
G37*
X71451477Y-151253000D02*
X71150708Y-151788957D01*
X71233807Y-151920084D01*
X71341856Y-152051905D01*
X71450165Y-152141560D01*
X71531357Y-152192854D01*
X71588901Y-152215293D01*
X71642980Y-152214594D01*
X71678876Y-152206333D01*
X71744917Y-152180125D01*
X71806482Y-152134279D01*
X71869557Y-152061469D01*
X71940125Y-151954370D01*
X72024172Y-151805659D01*
X72057800Y-151742576D01*
X72129226Y-151603942D01*
X72176509Y-151494947D01*
X72197838Y-151404429D01*
X72191405Y-151321226D01*
X72155401Y-151234178D01*
X72088017Y-151132125D01*
X71987444Y-151003904D01*
X71925865Y-150928590D01*
X71752246Y-150717045D01*
X71451477Y-151253000D01*
G36*
X78911434Y-153378442D02*
G01*
X78854050Y-153362483D01*
X78779090Y-153348807D01*
X78713990Y-153353583D01*
X78652872Y-153382100D01*
X78589861Y-153439654D01*
X78519079Y-153531534D01*
X78434649Y-153663033D01*
X78337539Y-153827582D01*
X78110663Y-154220335D01*
X78455097Y-154419253D01*
X78799531Y-154618169D01*
X79021934Y-154205044D01*
X79114269Y-154030824D01*
X79180073Y-153896887D01*
X79220769Y-153795189D01*
X79237782Y-153717691D01*
X79232534Y-153656353D01*
X79206449Y-153603136D01*
X79160951Y-153549998D01*
X79141350Y-153530555D01*
X79059164Y-153455722D01*
X78990265Y-153409544D01*
X78911434Y-153378442D01*
G37*
X78911434Y-153378442D02*
X78854050Y-153362483D01*
X78779090Y-153348807D01*
X78713990Y-153353583D01*
X78652872Y-153382100D01*
X78589861Y-153439654D01*
X78519079Y-153531534D01*
X78434649Y-153663033D01*
X78337539Y-153827582D01*
X78110663Y-154220335D01*
X78455097Y-154419253D01*
X78799531Y-154618169D01*
X79021934Y-154205044D01*
X79114269Y-154030824D01*
X79180073Y-153896887D01*
X79220769Y-153795189D01*
X79237782Y-153717691D01*
X79232534Y-153656353D01*
X79206449Y-153603136D01*
X79160951Y-153549998D01*
X79141350Y-153530555D01*
X79059164Y-153455722D01*
X78990265Y-153409544D01*
X78911434Y-153378442D01*
%TO.C,J5*%
G36*
X171302616Y-104716480D02*
G01*
X171390338Y-104982660D01*
X171513327Y-105237985D01*
X171666492Y-105473015D01*
X171792303Y-105624056D01*
X171991534Y-105809748D01*
X172216860Y-105967419D01*
X172462139Y-106094632D01*
X172721227Y-106188946D01*
X172987981Y-106247922D01*
X173256259Y-106269121D01*
X173403166Y-106263719D01*
X173700349Y-106219837D01*
X173979776Y-106138343D01*
X174239284Y-106020981D01*
X174476713Y-105869497D01*
X174689900Y-105685635D01*
X174876682Y-105471139D01*
X175034898Y-105227754D01*
X175162384Y-104957226D01*
X175218065Y-104799269D01*
X175276416Y-104613250D01*
X175282054Y-100903792D01*
X175287692Y-97194333D01*
X172141264Y-97194333D01*
X172141264Y-97321333D01*
X172162280Y-97328336D01*
X172218688Y-97348295D01*
X172306120Y-97379632D01*
X172420208Y-97420773D01*
X172556582Y-97470142D01*
X172710875Y-97526162D01*
X172878718Y-97587258D01*
X172908556Y-97598134D01*
X173098446Y-97667320D01*
X173292971Y-97738107D01*
X173484435Y-97807701D01*
X173665146Y-97873309D01*
X173827410Y-97932137D01*
X173963532Y-97981392D01*
X174045771Y-98011065D01*
X174165167Y-98054306D01*
X174271073Y-98093128D01*
X174356947Y-98125095D01*
X174416246Y-98147770D01*
X174442430Y-98158718D01*
X174442646Y-98158846D01*
X174448706Y-98182774D01*
X174453958Y-98242056D01*
X174458063Y-98329712D01*
X174460686Y-98438766D01*
X174461500Y-98549073D01*
X174461500Y-98927647D01*
X174212791Y-99004408D01*
X174016969Y-99064995D01*
X173828070Y-99123723D01*
X173650337Y-99179251D01*
X173488013Y-99230238D01*
X173345342Y-99275342D01*
X173226566Y-99313224D01*
X173135929Y-99342542D01*
X173077674Y-99361955D01*
X173056417Y-99369861D01*
X173071475Y-99378237D01*
X173122645Y-99397316D01*
X173205489Y-99425638D01*
X173315571Y-99461746D01*
X173448452Y-99504180D01*
X173599695Y-99551484D01*
X173744334Y-99595943D01*
X174450916Y-99811438D01*
X174450916Y-100585680D01*
X173942916Y-100770863D01*
X173728721Y-100848957D01*
X173513771Y-100927349D01*
X173301869Y-101004651D01*
X173096820Y-101079474D01*
X172902425Y-101150429D01*
X172722489Y-101216127D01*
X172560815Y-101275180D01*
X172421206Y-101326198D01*
X172307465Y-101367793D01*
X172223396Y-101398576D01*
X172172802Y-101417158D01*
X172159625Y-101422052D01*
X172149779Y-101416640D01*
X172142544Y-101388807D01*
X172137603Y-101334112D01*
X172134633Y-101248111D01*
X172133318Y-101126360D01*
X172133180Y-101054223D01*
X172133193Y-100676250D01*
X172889888Y-100455412D01*
X173061562Y-100405094D01*
X173220419Y-100358117D01*
X173361874Y-100315868D01*
X173481339Y-100279737D01*
X173574228Y-100251111D01*
X173635955Y-100231377D01*
X173661932Y-100221924D01*
X173662300Y-100221678D01*
X173646980Y-100212734D01*
X173595901Y-100193895D01*
X173514048Y-100166758D01*
X173406403Y-100132921D01*
X173277952Y-100093983D01*
X173133678Y-100051540D01*
X173111967Y-100045254D01*
X172951574Y-99998836D01*
X172793221Y-99952857D01*
X172644822Y-99909626D01*
X172514290Y-99871453D01*
X172409541Y-99840647D01*
X172344833Y-99821423D01*
X172143750Y-99761120D01*
X172137976Y-99389473D01*
X172136205Y-99255160D01*
X172136020Y-99157223D01*
X172137914Y-99089717D01*
X172142380Y-99046698D01*
X172149912Y-99022223D01*
X172161002Y-99010347D01*
X172169726Y-99006751D01*
X172224370Y-98990688D01*
X172311338Y-98965203D01*
X172424225Y-98932165D01*
X172556622Y-98893447D01*
X172702124Y-98850919D01*
X172854323Y-98806452D01*
X173006814Y-98761919D01*
X173153190Y-98719189D01*
X173287043Y-98680135D01*
X173401968Y-98646627D01*
X173491558Y-98620538D01*
X173549405Y-98603737D01*
X173561916Y-98600124D01*
X173688916Y-98563604D01*
X173604250Y-98536474D01*
X173563997Y-98524063D01*
X173488584Y-98501283D01*
X173383449Y-98469758D01*
X173254032Y-98431112D01*
X173105770Y-98386972D01*
X172944102Y-98338961D01*
X172826375Y-98304071D01*
X172133166Y-98098798D01*
X172133166Y-101512333D01*
X174462454Y-101512333D01*
X174450916Y-102284917D01*
X172133166Y-102295861D01*
X172133166Y-102443667D01*
X174461500Y-102443667D01*
X174461500Y-103205667D01*
X173285660Y-103205667D01*
X173285660Y-103346049D01*
X173512686Y-103359229D01*
X173713488Y-103402565D01*
X173893382Y-103477975D01*
X174057680Y-103587375D01*
X174130893Y-103650958D01*
X174269270Y-103808867D01*
X174373608Y-103991226D01*
X174443293Y-104196507D01*
X174477712Y-104423183D01*
X174481501Y-104523857D01*
X174482666Y-104709632D01*
X174170458Y-104703774D01*
X173858250Y-104697917D01*
X173864716Y-104630460D01*
X173858742Y-104527549D01*
X173827214Y-104417098D01*
X173776271Y-104319632D01*
X173768604Y-104309068D01*
X173717199Y-104258743D01*
X173644281Y-104207995D01*
X173595930Y-104182068D01*
X173525604Y-104152723D01*
X173459465Y-104135711D01*
X173381097Y-104127990D01*
X173295753Y-104126459D01*
X173199733Y-104128320D01*
X173129896Y-104136085D01*
X173070166Y-104153104D01*
X173004469Y-104182726D01*
X172989542Y-104190283D01*
X172873207Y-104267491D01*
X172794753Y-104362132D01*
X172752237Y-104477272D01*
X172742766Y-104579996D01*
X172742766Y-104708500D01*
X172113918Y-104708500D01*
X172100235Y-104635565D01*
X172095693Y-104560458D01*
X172102213Y-104457764D01*
X172117894Y-104340198D01*
X172140833Y-104220470D01*
X172169126Y-104111295D01*
X172186337Y-104060205D01*
X172280135Y-103867548D01*
X172404819Y-103702515D01*
X172557839Y-103566760D01*
X172736648Y-103461940D01*
X172938697Y-103389710D01*
X173161438Y-103351724D01*
X173285660Y-103346049D01*
X173285660Y-103205667D01*
X172133166Y-103205667D01*
X172133166Y-102443667D01*
X172133166Y-102295861D01*
X172133166Y-101512333D01*
X172133166Y-98098798D01*
X172133166Y-97710065D01*
X172133584Y-97587056D01*
X172134746Y-97480067D01*
X172136515Y-97395710D01*
X172138752Y-97340597D01*
X172141264Y-97321333D01*
X172141264Y-97194333D01*
X172133166Y-97194333D01*
X172133166Y-96432333D01*
X172270750Y-96432333D01*
X172340826Y-96431263D01*
X172390381Y-96428464D01*
X172408333Y-96424711D01*
X172395096Y-96406363D01*
X172361188Y-96367647D01*
X172333370Y-96337604D01*
X172226343Y-96194500D01*
X172152257Y-96031487D01*
X172110769Y-95854818D01*
X172101540Y-95670749D01*
X172124230Y-95485533D01*
X172178497Y-95305426D01*
X172264002Y-95136681D01*
X172380404Y-94985554D01*
X172408510Y-94956868D01*
X172516311Y-94870107D01*
X172650832Y-94789979D01*
X172796489Y-94724733D01*
X172918515Y-94686876D01*
X173029710Y-94668593D01*
X173165718Y-94658090D01*
X173312324Y-94655376D01*
X173455312Y-94660459D01*
X173580464Y-94673350D01*
X173647427Y-94686401D01*
X173847840Y-94755048D01*
X174028337Y-94852261D01*
X174183453Y-94973988D01*
X174307721Y-95116175D01*
X174372624Y-95224097D01*
X174434041Y-95372851D01*
X174469276Y-95526388D01*
X174480836Y-95697952D01*
X174478941Y-95785533D01*
X174471719Y-95891896D01*
X174458432Y-95973248D01*
X174435226Y-96046851D01*
X174405482Y-96114833D01*
X174359979Y-96198485D01*
X174306582Y-96278633D01*
X174263387Y-96330742D01*
X174219800Y-96377102D01*
X174191867Y-96410758D01*
X174186333Y-96420701D01*
X174206573Y-96423821D01*
X174263589Y-96426626D01*
X174351822Y-96428996D01*
X174465716Y-96430816D01*
X174599713Y-96431966D01*
X174736666Y-96432333D01*
X175287000Y-96432333D01*
X175285317Y-95982542D01*
X175282636Y-95773797D01*
X175276330Y-95605292D01*
X175266432Y-95477696D01*
X175254305Y-95397558D01*
X175174391Y-95115353D01*
X175061633Y-94858324D01*
X174913744Y-94622355D01*
X174728438Y-94403325D01*
X174670185Y-94345099D01*
X174446584Y-94157403D01*
X174204020Y-94006117D01*
X173946209Y-93891964D01*
X173676870Y-93815672D01*
X173399720Y-93777964D01*
X173118477Y-93779566D01*
X172836856Y-93821203D01*
X172558577Y-93903600D01*
X172507960Y-93923288D01*
X172305310Y-94022379D01*
X172103506Y-94152832D01*
X171912866Y-94306326D01*
X171743712Y-94474538D01*
X171606364Y-94649144D01*
X171604566Y-94651818D01*
X171487932Y-94850827D01*
X171387300Y-95071797D01*
X171311531Y-95294961D01*
X171304495Y-95321083D01*
X171254750Y-95511583D01*
X171254750Y-104528583D01*
X171302616Y-104716480D01*
G37*
X171302616Y-104716480D02*
X171390338Y-104982660D01*
X171513327Y-105237985D01*
X171666492Y-105473015D01*
X171792303Y-105624056D01*
X171991534Y-105809748D01*
X172216860Y-105967419D01*
X172462139Y-106094632D01*
X172721227Y-106188946D01*
X172987981Y-106247922D01*
X173256259Y-106269121D01*
X173403166Y-106263719D01*
X173700349Y-106219837D01*
X173979776Y-106138343D01*
X174239284Y-106020981D01*
X174476713Y-105869497D01*
X174689900Y-105685635D01*
X174876682Y-105471139D01*
X175034898Y-105227754D01*
X175162384Y-104957226D01*
X175218065Y-104799269D01*
X175276416Y-104613250D01*
X175282054Y-100903792D01*
X175287692Y-97194333D01*
X172141264Y-97194333D01*
X172141264Y-97321333D01*
X172162280Y-97328336D01*
X172218688Y-97348295D01*
X172306120Y-97379632D01*
X172420208Y-97420773D01*
X172556582Y-97470142D01*
X172710875Y-97526162D01*
X172878718Y-97587258D01*
X172908556Y-97598134D01*
X173098446Y-97667320D01*
X173292971Y-97738107D01*
X173484435Y-97807701D01*
X173665146Y-97873309D01*
X173827410Y-97932137D01*
X173963532Y-97981392D01*
X174045771Y-98011065D01*
X174165167Y-98054306D01*
X174271073Y-98093128D01*
X174356947Y-98125095D01*
X174416246Y-98147770D01*
X174442430Y-98158718D01*
X174442646Y-98158846D01*
X174448706Y-98182774D01*
X174453958Y-98242056D01*
X174458063Y-98329712D01*
X174460686Y-98438766D01*
X174461500Y-98549073D01*
X174461500Y-98927647D01*
X174212791Y-99004408D01*
X174016969Y-99064995D01*
X173828070Y-99123723D01*
X173650337Y-99179251D01*
X173488013Y-99230238D01*
X173345342Y-99275342D01*
X173226566Y-99313224D01*
X173135929Y-99342542D01*
X173077674Y-99361955D01*
X173056417Y-99369861D01*
X173071475Y-99378237D01*
X173122645Y-99397316D01*
X173205489Y-99425638D01*
X173315571Y-99461746D01*
X173448452Y-99504180D01*
X173599695Y-99551484D01*
X173744334Y-99595943D01*
X174450916Y-99811438D01*
X174450916Y-100585680D01*
X173942916Y-100770863D01*
X173728721Y-100848957D01*
X173513771Y-100927349D01*
X173301869Y-101004651D01*
X173096820Y-101079474D01*
X172902425Y-101150429D01*
X172722489Y-101216127D01*
X172560815Y-101275180D01*
X172421206Y-101326198D01*
X172307465Y-101367793D01*
X172223396Y-101398576D01*
X172172802Y-101417158D01*
X172159625Y-101422052D01*
X172149779Y-101416640D01*
X172142544Y-101388807D01*
X172137603Y-101334112D01*
X172134633Y-101248111D01*
X172133318Y-101126360D01*
X172133180Y-101054223D01*
X172133193Y-100676250D01*
X172889888Y-100455412D01*
X173061562Y-100405094D01*
X173220419Y-100358117D01*
X173361874Y-100315868D01*
X173481339Y-100279737D01*
X173574228Y-100251111D01*
X173635955Y-100231377D01*
X173661932Y-100221924D01*
X173662300Y-100221678D01*
X173646980Y-100212734D01*
X173595901Y-100193895D01*
X173514048Y-100166758D01*
X173406403Y-100132921D01*
X173277952Y-100093983D01*
X173133678Y-100051540D01*
X173111967Y-100045254D01*
X172951574Y-99998836D01*
X172793221Y-99952857D01*
X172644822Y-99909626D01*
X172514290Y-99871453D01*
X172409541Y-99840647D01*
X172344833Y-99821423D01*
X172143750Y-99761120D01*
X172137976Y-99389473D01*
X172136205Y-99255160D01*
X172136020Y-99157223D01*
X172137914Y-99089717D01*
X172142380Y-99046698D01*
X172149912Y-99022223D01*
X172161002Y-99010347D01*
X172169726Y-99006751D01*
X172224370Y-98990688D01*
X172311338Y-98965203D01*
X172424225Y-98932165D01*
X172556622Y-98893447D01*
X172702124Y-98850919D01*
X172854323Y-98806452D01*
X173006814Y-98761919D01*
X173153190Y-98719189D01*
X173287043Y-98680135D01*
X173401968Y-98646627D01*
X173491558Y-98620538D01*
X173549405Y-98603737D01*
X173561916Y-98600124D01*
X173688916Y-98563604D01*
X173604250Y-98536474D01*
X173563997Y-98524063D01*
X173488584Y-98501283D01*
X173383449Y-98469758D01*
X173254032Y-98431112D01*
X173105770Y-98386972D01*
X172944102Y-98338961D01*
X172826375Y-98304071D01*
X172133166Y-98098798D01*
X172133166Y-101512333D01*
X174462454Y-101512333D01*
X174450916Y-102284917D01*
X172133166Y-102295861D01*
X172133166Y-102443667D01*
X174461500Y-102443667D01*
X174461500Y-103205667D01*
X173285660Y-103205667D01*
X173285660Y-103346049D01*
X173512686Y-103359229D01*
X173713488Y-103402565D01*
X173893382Y-103477975D01*
X174057680Y-103587375D01*
X174130893Y-103650958D01*
X174269270Y-103808867D01*
X174373608Y-103991226D01*
X174443293Y-104196507D01*
X174477712Y-104423183D01*
X174481501Y-104523857D01*
X174482666Y-104709632D01*
X174170458Y-104703774D01*
X173858250Y-104697917D01*
X173864716Y-104630460D01*
X173858742Y-104527549D01*
X173827214Y-104417098D01*
X173776271Y-104319632D01*
X173768604Y-104309068D01*
X173717199Y-104258743D01*
X173644281Y-104207995D01*
X173595930Y-104182068D01*
X173525604Y-104152723D01*
X173459465Y-104135711D01*
X173381097Y-104127990D01*
X173295753Y-104126459D01*
X173199733Y-104128320D01*
X173129896Y-104136085D01*
X173070166Y-104153104D01*
X173004469Y-104182726D01*
X172989542Y-104190283D01*
X172873207Y-104267491D01*
X172794753Y-104362132D01*
X172752237Y-104477272D01*
X172742766Y-104579996D01*
X172742766Y-104708500D01*
X172113918Y-104708500D01*
X172100235Y-104635565D01*
X172095693Y-104560458D01*
X172102213Y-104457764D01*
X172117894Y-104340198D01*
X172140833Y-104220470D01*
X172169126Y-104111295D01*
X172186337Y-104060205D01*
X172280135Y-103867548D01*
X172404819Y-103702515D01*
X172557839Y-103566760D01*
X172736648Y-103461940D01*
X172938697Y-103389710D01*
X173161438Y-103351724D01*
X173285660Y-103346049D01*
X173285660Y-103205667D01*
X172133166Y-103205667D01*
X172133166Y-102443667D01*
X172133166Y-102295861D01*
X172133166Y-101512333D01*
X172133166Y-98098798D01*
X172133166Y-97710065D01*
X172133584Y-97587056D01*
X172134746Y-97480067D01*
X172136515Y-97395710D01*
X172138752Y-97340597D01*
X172141264Y-97321333D01*
X172141264Y-97194333D01*
X172133166Y-97194333D01*
X172133166Y-96432333D01*
X172270750Y-96432333D01*
X172340826Y-96431263D01*
X172390381Y-96428464D01*
X172408333Y-96424711D01*
X172395096Y-96406363D01*
X172361188Y-96367647D01*
X172333370Y-96337604D01*
X172226343Y-96194500D01*
X172152257Y-96031487D01*
X172110769Y-95854818D01*
X172101540Y-95670749D01*
X172124230Y-95485533D01*
X172178497Y-95305426D01*
X172264002Y-95136681D01*
X172380404Y-94985554D01*
X172408510Y-94956868D01*
X172516311Y-94870107D01*
X172650832Y-94789979D01*
X172796489Y-94724733D01*
X172918515Y-94686876D01*
X173029710Y-94668593D01*
X173165718Y-94658090D01*
X173312324Y-94655376D01*
X173455312Y-94660459D01*
X173580464Y-94673350D01*
X173647427Y-94686401D01*
X173847840Y-94755048D01*
X174028337Y-94852261D01*
X174183453Y-94973988D01*
X174307721Y-95116175D01*
X174372624Y-95224097D01*
X174434041Y-95372851D01*
X174469276Y-95526388D01*
X174480836Y-95697952D01*
X174478941Y-95785533D01*
X174471719Y-95891896D01*
X174458432Y-95973248D01*
X174435226Y-96046851D01*
X174405482Y-96114833D01*
X174359979Y-96198485D01*
X174306582Y-96278633D01*
X174263387Y-96330742D01*
X174219800Y-96377102D01*
X174191867Y-96410758D01*
X174186333Y-96420701D01*
X174206573Y-96423821D01*
X174263589Y-96426626D01*
X174351822Y-96428996D01*
X174465716Y-96430816D01*
X174599713Y-96431966D01*
X174736666Y-96432333D01*
X175287000Y-96432333D01*
X175285317Y-95982542D01*
X175282636Y-95773797D01*
X175276330Y-95605292D01*
X175266432Y-95477696D01*
X175254305Y-95397558D01*
X175174391Y-95115353D01*
X175061633Y-94858324D01*
X174913744Y-94622355D01*
X174728438Y-94403325D01*
X174670185Y-94345099D01*
X174446584Y-94157403D01*
X174204020Y-94006117D01*
X173946209Y-93891964D01*
X173676870Y-93815672D01*
X173399720Y-93777964D01*
X173118477Y-93779566D01*
X172836856Y-93821203D01*
X172558577Y-93903600D01*
X172507960Y-93923288D01*
X172305310Y-94022379D01*
X172103506Y-94152832D01*
X171912866Y-94306326D01*
X171743712Y-94474538D01*
X171606364Y-94649144D01*
X171604566Y-94651818D01*
X171487932Y-94850827D01*
X171387300Y-95071797D01*
X171311531Y-95294961D01*
X171304495Y-95321083D01*
X171254750Y-95511583D01*
X171254750Y-104528583D01*
X171302616Y-104716480D01*
G36*
X174538698Y-106305595D02*
G01*
X174583005Y-106399571D01*
X174652202Y-106472839D01*
X174757896Y-106537114D01*
X174870775Y-106563375D01*
X174983566Y-106553395D01*
X175088998Y-106508949D01*
X175179799Y-106431811D01*
X175246870Y-106327750D01*
X175280763Y-106222083D01*
X175277939Y-106121416D01*
X175246505Y-106028959D01*
X175203249Y-105959909D01*
X175144248Y-105895241D01*
X175126909Y-105880793D01*
X175076194Y-105846576D01*
X175027337Y-105828082D01*
X174963755Y-105820728D01*
X174906096Y-105819750D01*
X174892820Y-105820257D01*
X174892820Y-105881822D01*
X174995236Y-105904037D01*
X175028180Y-105918972D01*
X175121392Y-105986107D01*
X175179514Y-106072506D01*
X175200400Y-106171937D01*
X175181903Y-106278171D01*
X175165258Y-106316745D01*
X175099441Y-106406301D01*
X175011744Y-106462832D01*
X174908882Y-106482434D01*
X174882245Y-106481170D01*
X174775089Y-106453458D01*
X174690897Y-106397337D01*
X174632316Y-106320458D01*
X174601990Y-106230472D01*
X174602567Y-106135031D01*
X174636692Y-106041787D01*
X174702736Y-105962087D01*
X174796467Y-105901020D01*
X174892820Y-105881822D01*
X174892820Y-105820257D01*
X174819209Y-105823072D01*
X174757627Y-105835726D01*
X174704653Y-105861749D01*
X174688618Y-105872303D01*
X174597786Y-105958366D01*
X174542781Y-106066344D01*
X174525000Y-106188808D01*
X174538698Y-106305595D01*
G37*
X174538698Y-106305595D02*
X174583005Y-106399571D01*
X174652202Y-106472839D01*
X174757896Y-106537114D01*
X174870775Y-106563375D01*
X174983566Y-106553395D01*
X175088998Y-106508949D01*
X175179799Y-106431811D01*
X175246870Y-106327750D01*
X175280763Y-106222083D01*
X175277939Y-106121416D01*
X175246505Y-106028959D01*
X175203249Y-105959909D01*
X175144248Y-105895241D01*
X175126909Y-105880793D01*
X175076194Y-105846576D01*
X175027337Y-105828082D01*
X174963755Y-105820728D01*
X174906096Y-105819750D01*
X174892820Y-105820257D01*
X174892820Y-105881822D01*
X174995236Y-105904037D01*
X175028180Y-105918972D01*
X175121392Y-105986107D01*
X175179514Y-106072506D01*
X175200400Y-106171937D01*
X175181903Y-106278171D01*
X175165258Y-106316745D01*
X175099441Y-106406301D01*
X175011744Y-106462832D01*
X174908882Y-106482434D01*
X174882245Y-106481170D01*
X174775089Y-106453458D01*
X174690897Y-106397337D01*
X174632316Y-106320458D01*
X174601990Y-106230472D01*
X174602567Y-106135031D01*
X174636692Y-106041787D01*
X174702736Y-105962087D01*
X174796467Y-105901020D01*
X174892820Y-105881822D01*
X174892820Y-105820257D01*
X174819209Y-105823072D01*
X174757627Y-105835726D01*
X174704653Y-105861749D01*
X174688618Y-105872303D01*
X174597786Y-105958366D01*
X174542781Y-106066344D01*
X174525000Y-106188808D01*
X174538698Y-106305595D01*
G36*
X172738655Y-96035981D02*
G01*
X172785461Y-96153133D01*
X172862823Y-96256724D01*
X172969488Y-96339865D01*
X173027449Y-96369088D01*
X173162601Y-96407603D01*
X173312400Y-96417743D01*
X173463807Y-96400760D01*
X173603785Y-96357906D01*
X173700816Y-96304395D01*
X173777526Y-96226544D01*
X173836278Y-96121572D01*
X173872611Y-96002483D01*
X173882060Y-95882281D01*
X173871212Y-95807917D01*
X173817082Y-95672379D01*
X173732886Y-95566498D01*
X173619024Y-95490537D01*
X173475896Y-95444760D01*
X173303902Y-95429431D01*
X173297333Y-95429449D01*
X173166506Y-95436286D01*
X173063490Y-95458071D01*
X172975083Y-95499259D01*
X172888083Y-95564305D01*
X172882048Y-95569565D01*
X172794101Y-95672060D01*
X172741722Y-95788555D01*
X172723658Y-95912158D01*
X172738655Y-96035981D01*
G37*
X172738655Y-96035981D02*
X172785461Y-96153133D01*
X172862823Y-96256724D01*
X172969488Y-96339865D01*
X173027449Y-96369088D01*
X173162601Y-96407603D01*
X173312400Y-96417743D01*
X173463807Y-96400760D01*
X173603785Y-96357906D01*
X173700816Y-96304395D01*
X173777526Y-96226544D01*
X173836278Y-96121572D01*
X173872611Y-96002483D01*
X173882060Y-95882281D01*
X173871212Y-95807917D01*
X173817082Y-95672379D01*
X173732886Y-95566498D01*
X173619024Y-95490537D01*
X173475896Y-95444760D01*
X173303902Y-95429431D01*
X173297333Y-95429449D01*
X173166506Y-95436286D01*
X173063490Y-95458071D01*
X172975083Y-95499259D01*
X172888083Y-95564305D01*
X172882048Y-95569565D01*
X172794101Y-95672060D01*
X172741722Y-95788555D01*
X172723658Y-95912158D01*
X172738655Y-96035981D01*
G36*
X170947833Y-98803000D02*
G01*
X170947833Y-98210333D01*
X170355166Y-98210333D01*
X170355166Y-98803000D01*
X170947833Y-98803000D01*
G37*
X170947833Y-98803000D02*
X170947833Y-98210333D01*
X170355166Y-98210333D01*
X170355166Y-98803000D01*
X170947833Y-98803000D01*
G36*
X170947833Y-99649667D02*
G01*
X170947833Y-99057000D01*
X170355166Y-99057000D01*
X170355166Y-99649667D01*
X170947833Y-99649667D01*
G37*
X170947833Y-99649667D02*
X170947833Y-99057000D01*
X170355166Y-99057000D01*
X170355166Y-99649667D01*
X170947833Y-99649667D01*
G36*
X170947833Y-100496333D02*
G01*
X170947833Y-99903667D01*
X170355166Y-99903667D01*
X170355166Y-100496333D01*
X170947833Y-100496333D01*
G37*
X170947833Y-100496333D02*
X170947833Y-99903667D01*
X170355166Y-99903667D01*
X170355166Y-100496333D01*
X170947833Y-100496333D01*
G36*
X170937250Y-101353583D02*
G01*
X170943138Y-101062542D01*
X170949027Y-100771500D01*
X170355166Y-100771500D01*
X170355166Y-101365361D01*
X170937250Y-101353583D01*
G37*
X170937250Y-101353583D02*
X170943138Y-101062542D01*
X170949027Y-100771500D01*
X170355166Y-100771500D01*
X170355166Y-101365361D01*
X170937250Y-101353583D01*
G36*
X167350472Y-104538084D02*
G01*
X167354326Y-104619178D01*
X167362468Y-104678496D01*
X167376305Y-104726304D01*
X167397124Y-104772636D01*
X167467106Y-104870885D01*
X167564697Y-104940062D01*
X167689982Y-104982078D01*
X167739911Y-104987933D01*
X167830169Y-104992988D01*
X167958759Y-104997202D01*
X168123683Y-105000534D01*
X168322945Y-105002944D01*
X168554546Y-105004390D01*
X168796616Y-105004833D01*
X169037585Y-105004632D01*
X169239956Y-105003958D01*
X169407462Y-105002704D01*
X169543835Y-105000763D01*
X169652810Y-104998028D01*
X169738120Y-104994392D01*
X169803497Y-104989749D01*
X169852676Y-104983991D01*
X169889389Y-104977012D01*
X169903913Y-104973128D01*
X170031725Y-104918631D01*
X170126816Y-104839785D01*
X170165478Y-104786743D01*
X170203849Y-104723647D01*
X170268924Y-104867168D01*
X170300466Y-104939034D01*
X170323587Y-104996098D01*
X170333843Y-105027315D01*
X170334000Y-105028928D01*
X170350250Y-105046593D01*
X170355620Y-105047167D01*
X170384780Y-105036468D01*
X170431472Y-105010156D01*
X170482498Y-104976906D01*
X170524658Y-104945394D01*
X170544755Y-104924295D01*
X170545056Y-104922645D01*
X170534295Y-104900579D01*
X170505442Y-104850124D01*
X170462883Y-104778765D01*
X170411006Y-104693984D01*
X170410602Y-104693330D01*
X170352553Y-104597769D01*
X170313446Y-104526702D01*
X170288944Y-104469265D01*
X170274707Y-104414594D01*
X170266397Y-104351826D01*
X170264139Y-104326564D01*
X170238741Y-104173504D01*
X170189749Y-104053682D01*
X170115021Y-103963837D01*
X170012414Y-103900711D01*
X169974461Y-103886007D01*
X169936039Y-103880142D01*
X169860262Y-103875025D01*
X169752103Y-103870654D01*
X169616534Y-103867028D01*
X169458528Y-103864145D01*
X169283056Y-103862002D01*
X169095091Y-103860598D01*
X168899605Y-103859930D01*
X168788706Y-103859968D01*
X168788706Y-104094603D01*
X168978048Y-104094848D01*
X169162395Y-104095776D01*
X169336488Y-104097388D01*
X169495070Y-104099685D01*
X169632884Y-104102670D01*
X169744671Y-104106344D01*
X169825175Y-104110709D01*
X169869137Y-104115766D01*
X169871333Y-104116314D01*
X169945508Y-104147088D01*
X169991153Y-104196236D01*
X170018327Y-104269422D01*
X170027242Y-104335508D01*
X170028495Y-104421521D01*
X170023028Y-104511980D01*
X170011783Y-104591404D01*
X169995699Y-104644313D01*
X169995513Y-104644664D01*
X169982227Y-104667878D01*
X169966948Y-104687436D01*
X169946164Y-104703650D01*
X169916364Y-104716834D01*
X169874037Y-104727300D01*
X169815671Y-104735363D01*
X169737757Y-104741334D01*
X169636782Y-104745528D01*
X169509236Y-104748257D01*
X169351608Y-104749836D01*
X169160387Y-104750576D01*
X168932061Y-104750791D01*
X168805759Y-104750800D01*
X168566674Y-104750691D01*
X168366211Y-104750297D01*
X168200662Y-104749495D01*
X168066317Y-104748164D01*
X167959465Y-104746178D01*
X167876397Y-104743417D01*
X167813403Y-104739756D01*
X167766773Y-104735073D01*
X167732798Y-104729244D01*
X167707766Y-104722148D01*
X167688166Y-104713759D01*
X167621183Y-104659243D01*
X167580304Y-104574706D01*
X167564906Y-104458404D01*
X167567451Y-104375130D01*
X167584126Y-104264521D01*
X167617124Y-104187980D01*
X167670354Y-104139106D01*
X167725008Y-104117001D01*
X167765048Y-104111849D01*
X167842153Y-104107365D01*
X167951065Y-104103552D01*
X168086525Y-104100411D01*
X168243277Y-104097944D01*
X168416062Y-104096152D01*
X168599625Y-104095038D01*
X168788706Y-104094603D01*
X168788706Y-103859968D01*
X168701571Y-103859998D01*
X168505961Y-103860798D01*
X168317746Y-103862330D01*
X168141900Y-103864590D01*
X167983394Y-103867578D01*
X167847201Y-103871291D01*
X167738293Y-103875727D01*
X167661642Y-103880885D01*
X167622221Y-103886763D01*
X167621773Y-103886912D01*
X167506452Y-103945392D01*
X167422316Y-104031506D01*
X167391772Y-104084208D01*
X167372786Y-104130709D01*
X167360313Y-104183252D01*
X167353118Y-104251797D01*
X167349966Y-104346300D01*
X167349500Y-104424948D01*
X167350472Y-104538084D01*
G37*
X167350472Y-104538084D02*
X167354326Y-104619178D01*
X167362468Y-104678496D01*
X167376305Y-104726304D01*
X167397124Y-104772636D01*
X167467106Y-104870885D01*
X167564697Y-104940062D01*
X167689982Y-104982078D01*
X167739911Y-104987933D01*
X167830169Y-104992988D01*
X167958759Y-104997202D01*
X168123683Y-105000534D01*
X168322945Y-105002944D01*
X168554546Y-105004390D01*
X168796616Y-105004833D01*
X169037585Y-105004632D01*
X169239956Y-105003958D01*
X169407462Y-105002704D01*
X169543835Y-105000763D01*
X169652810Y-104998028D01*
X169738120Y-104994392D01*
X169803497Y-104989749D01*
X169852676Y-104983991D01*
X169889389Y-104977012D01*
X169903913Y-104973128D01*
X170031725Y-104918631D01*
X170126816Y-104839785D01*
X170165478Y-104786743D01*
X170203849Y-104723647D01*
X170268924Y-104867168D01*
X170300466Y-104939034D01*
X170323587Y-104996098D01*
X170333843Y-105027315D01*
X170334000Y-105028928D01*
X170350250Y-105046593D01*
X170355620Y-105047167D01*
X170384780Y-105036468D01*
X170431472Y-105010156D01*
X170482498Y-104976906D01*
X170524658Y-104945394D01*
X170544755Y-104924295D01*
X170545056Y-104922645D01*
X170534295Y-104900579D01*
X170505442Y-104850124D01*
X170462883Y-104778765D01*
X170411006Y-104693984D01*
X170410602Y-104693330D01*
X170352553Y-104597769D01*
X170313446Y-104526702D01*
X170288944Y-104469265D01*
X170274707Y-104414594D01*
X170266397Y-104351826D01*
X170264139Y-104326564D01*
X170238741Y-104173504D01*
X170189749Y-104053682D01*
X170115021Y-103963837D01*
X170012414Y-103900711D01*
X169974461Y-103886007D01*
X169936039Y-103880142D01*
X169860262Y-103875025D01*
X169752103Y-103870654D01*
X169616534Y-103867028D01*
X169458528Y-103864145D01*
X169283056Y-103862002D01*
X169095091Y-103860598D01*
X168899605Y-103859930D01*
X168788706Y-103859968D01*
X168788706Y-104094603D01*
X168978048Y-104094848D01*
X169162395Y-104095776D01*
X169336488Y-104097388D01*
X169495070Y-104099685D01*
X169632884Y-104102670D01*
X169744671Y-104106344D01*
X169825175Y-104110709D01*
X169869137Y-104115766D01*
X169871333Y-104116314D01*
X169945508Y-104147088D01*
X169991153Y-104196236D01*
X170018327Y-104269422D01*
X170027242Y-104335508D01*
X170028495Y-104421521D01*
X170023028Y-104511980D01*
X170011783Y-104591404D01*
X169995699Y-104644313D01*
X169995513Y-104644664D01*
X169982227Y-104667878D01*
X169966948Y-104687436D01*
X169946164Y-104703650D01*
X169916364Y-104716834D01*
X169874037Y-104727300D01*
X169815671Y-104735363D01*
X169737757Y-104741334D01*
X169636782Y-104745528D01*
X169509236Y-104748257D01*
X169351608Y-104749836D01*
X169160387Y-104750576D01*
X168932061Y-104750791D01*
X168805759Y-104750800D01*
X168566674Y-104750691D01*
X168366211Y-104750297D01*
X168200662Y-104749495D01*
X168066317Y-104748164D01*
X167959465Y-104746178D01*
X167876397Y-104743417D01*
X167813403Y-104739756D01*
X167766773Y-104735073D01*
X167732798Y-104729244D01*
X167707766Y-104722148D01*
X167688166Y-104713759D01*
X167621183Y-104659243D01*
X167580304Y-104574706D01*
X167564906Y-104458404D01*
X167567451Y-104375130D01*
X167584126Y-104264521D01*
X167617124Y-104187980D01*
X167670354Y-104139106D01*
X167725008Y-104117001D01*
X167765048Y-104111849D01*
X167842153Y-104107365D01*
X167951065Y-104103552D01*
X168086525Y-104100411D01*
X168243277Y-104097944D01*
X168416062Y-104096152D01*
X168599625Y-104095038D01*
X168788706Y-104094603D01*
X168788706Y-103859968D01*
X168701571Y-103859998D01*
X168505961Y-103860798D01*
X168317746Y-103862330D01*
X168141900Y-103864590D01*
X167983394Y-103867578D01*
X167847201Y-103871291D01*
X167738293Y-103875727D01*
X167661642Y-103880885D01*
X167622221Y-103886763D01*
X167621773Y-103886912D01*
X167506452Y-103945392D01*
X167422316Y-104031506D01*
X167391772Y-104084208D01*
X167372786Y-104130709D01*
X167360313Y-104183252D01*
X167353118Y-104251797D01*
X167349966Y-104346300D01*
X167349500Y-104424948D01*
X167350472Y-104538084D01*
G36*
X167772833Y-95714199D02*
G01*
X167772833Y-95416333D01*
X168003732Y-95416333D01*
X168016250Y-95702083D01*
X169122800Y-95707564D01*
X169375712Y-95708636D01*
X169589284Y-95709103D01*
X169766502Y-95708907D01*
X169910354Y-95707988D01*
X170023830Y-95706288D01*
X170109918Y-95703748D01*
X170171605Y-95700308D01*
X170211880Y-95695912D01*
X170233731Y-95690498D01*
X170239887Y-95685585D01*
X170243096Y-95655988D01*
X170245188Y-95591837D01*
X170246066Y-95500902D01*
X170245632Y-95390948D01*
X170244587Y-95312214D01*
X170238750Y-94966303D01*
X170185833Y-95048443D01*
X170111294Y-95129149D01*
X170017996Y-95188792D01*
X169967939Y-95212799D01*
X169923084Y-95229109D01*
X169873509Y-95239190D01*
X169809292Y-95244513D01*
X169720512Y-95246546D01*
X169626412Y-95246793D01*
X169508972Y-95245953D01*
X169423846Y-95242747D01*
X169361029Y-95235838D01*
X169310515Y-95223888D01*
X169262297Y-95205561D01*
X169238996Y-95195022D01*
X169194042Y-95172341D01*
X169154841Y-95146696D01*
X169117146Y-95112902D01*
X169076708Y-95065775D01*
X169029280Y-95000130D01*
X168970613Y-94910781D01*
X168896460Y-94792544D01*
X168857217Y-94729033D01*
X168782743Y-94611327D01*
X168721053Y-94525604D01*
X168664402Y-94466826D01*
X168605047Y-94429951D01*
X168535244Y-94409942D01*
X168447248Y-94401757D01*
X168352120Y-94400333D01*
X168252727Y-94400963D01*
X168185620Y-94404226D01*
X168140755Y-94412183D01*
X168108088Y-94426894D01*
X168077576Y-94450421D01*
X168068415Y-94458541D01*
X168027223Y-94503555D01*
X168004417Y-94555369D01*
X167992327Y-94631548D01*
X167992168Y-94633167D01*
X167991491Y-94739773D01*
X168008543Y-94832476D01*
X168009129Y-94834250D01*
X168038643Y-94896818D01*
X168083032Y-94941390D01*
X168148654Y-94970531D01*
X168241868Y-94986806D01*
X168369033Y-94992780D01*
X168402541Y-94992967D01*
X168619500Y-94993000D01*
X168619500Y-95252619D01*
X168349625Y-95242644D01*
X168227995Y-95236914D01*
X168139330Y-95229203D01*
X168074264Y-95218076D01*
X168023431Y-95202096D01*
X167992454Y-95187846D01*
X167894799Y-95123830D01*
X167824616Y-95043360D01*
X167779540Y-94941001D01*
X167757202Y-94811321D01*
X167755236Y-94648883D01*
X167755454Y-94643750D01*
X167770367Y-94496838D01*
X167802744Y-94383155D01*
X167855762Y-94296078D01*
X167932601Y-94228985D01*
X167963599Y-94210173D01*
X168007635Y-94187755D01*
X168051772Y-94172208D01*
X168105603Y-94161954D01*
X168178715Y-94155414D01*
X168280700Y-94151008D01*
X168332222Y-94149476D01*
X168468807Y-94148145D01*
X168581358Y-94152024D01*
X168662572Y-94160763D01*
X168688080Y-94166521D01*
X168760654Y-94197990D01*
X168832427Y-94250745D01*
X168907477Y-94329122D01*
X168989883Y-94437458D01*
X169083726Y-94580089D01*
X169096632Y-94600817D01*
X169159740Y-94699877D01*
X169220764Y-94790655D01*
X169273739Y-94864611D01*
X169312700Y-94913207D01*
X169320465Y-94921279D01*
X169352273Y-94948979D01*
X169384904Y-94967032D01*
X169428731Y-94978042D01*
X169494127Y-94984614D01*
X169591466Y-94989354D01*
X169591586Y-94989358D01*
X169739074Y-94990441D01*
X169849874Y-94977943D01*
X169928404Y-94948405D01*
X169979081Y-94898369D01*
X170006322Y-94824376D01*
X170014546Y-94722965D01*
X170012837Y-94659513D01*
X170007017Y-94575629D01*
X169997330Y-94521777D01*
X169979834Y-94485652D01*
X169950585Y-94454952D01*
X169946001Y-94450964D01*
X169918120Y-94429412D01*
X169888124Y-94415019D01*
X169847158Y-94406353D01*
X169786370Y-94401980D01*
X169696904Y-94400466D01*
X169633309Y-94400333D01*
X169379479Y-94400333D01*
X169385781Y-94270772D01*
X169392083Y-94141212D01*
X169654781Y-94144912D01*
X169804699Y-94150086D01*
X169914697Y-94160947D01*
X169986836Y-94177710D01*
X169993448Y-94180295D01*
X170054138Y-94213630D01*
X170116136Y-94260118D01*
X170168785Y-94310156D01*
X170201429Y-94354142D01*
X170207000Y-94372735D01*
X170219898Y-94398128D01*
X170228166Y-94400333D01*
X170238733Y-94381191D01*
X170244938Y-94331414D01*
X170246748Y-94262482D01*
X170244134Y-94185872D01*
X170237064Y-94113061D01*
X170229064Y-94068868D01*
X170183689Y-93952281D01*
X170107203Y-93861701D01*
X170018597Y-93803076D01*
X169905832Y-93744167D01*
X167696478Y-93744167D01*
X167586182Y-93799129D01*
X167499298Y-93853504D01*
X167436789Y-93922839D01*
X167417984Y-93952588D01*
X167360083Y-94051083D01*
X167360083Y-95702083D01*
X167772833Y-95714199D01*
G37*
X167772833Y-95714199D02*
X167772833Y-95416333D01*
X168003732Y-95416333D01*
X168016250Y-95702083D01*
X169122800Y-95707564D01*
X169375712Y-95708636D01*
X169589284Y-95709103D01*
X169766502Y-95708907D01*
X169910354Y-95707988D01*
X170023830Y-95706288D01*
X170109918Y-95703748D01*
X170171605Y-95700308D01*
X170211880Y-95695912D01*
X170233731Y-95690498D01*
X170239887Y-95685585D01*
X170243096Y-95655988D01*
X170245188Y-95591837D01*
X170246066Y-95500902D01*
X170245632Y-95390948D01*
X170244587Y-95312214D01*
X170238750Y-94966303D01*
X170185833Y-95048443D01*
X170111294Y-95129149D01*
X170017996Y-95188792D01*
X169967939Y-95212799D01*
X169923084Y-95229109D01*
X169873509Y-95239190D01*
X169809292Y-95244513D01*
X169720512Y-95246546D01*
X169626412Y-95246793D01*
X169508972Y-95245953D01*
X169423846Y-95242747D01*
X169361029Y-95235838D01*
X169310515Y-95223888D01*
X169262297Y-95205561D01*
X169238996Y-95195022D01*
X169194042Y-95172341D01*
X169154841Y-95146696D01*
X169117146Y-95112902D01*
X169076708Y-95065775D01*
X169029280Y-95000130D01*
X168970613Y-94910781D01*
X168896460Y-94792544D01*
X168857217Y-94729033D01*
X168782743Y-94611327D01*
X168721053Y-94525604D01*
X168664402Y-94466826D01*
X168605047Y-94429951D01*
X168535244Y-94409942D01*
X168447248Y-94401757D01*
X168352120Y-94400333D01*
X168252727Y-94400963D01*
X168185620Y-94404226D01*
X168140755Y-94412183D01*
X168108088Y-94426894D01*
X168077576Y-94450421D01*
X168068415Y-94458541D01*
X168027223Y-94503555D01*
X168004417Y-94555369D01*
X167992327Y-94631548D01*
X167992168Y-94633167D01*
X167991491Y-94739773D01*
X168008543Y-94832476D01*
X168009129Y-94834250D01*
X168038643Y-94896818D01*
X168083032Y-94941390D01*
X168148654Y-94970531D01*
X168241868Y-94986806D01*
X168369033Y-94992780D01*
X168402541Y-94992967D01*
X168619500Y-94993000D01*
X168619500Y-95252619D01*
X168349625Y-95242644D01*
X168227995Y-95236914D01*
X168139330Y-95229203D01*
X168074264Y-95218076D01*
X168023431Y-95202096D01*
X167992454Y-95187846D01*
X167894799Y-95123830D01*
X167824616Y-95043360D01*
X167779540Y-94941001D01*
X167757202Y-94811321D01*
X167755236Y-94648883D01*
X167755454Y-94643750D01*
X167770367Y-94496838D01*
X167802744Y-94383155D01*
X167855762Y-94296078D01*
X167932601Y-94228985D01*
X167963599Y-94210173D01*
X168007635Y-94187755D01*
X168051772Y-94172208D01*
X168105603Y-94161954D01*
X168178715Y-94155414D01*
X168280700Y-94151008D01*
X168332222Y-94149476D01*
X168468807Y-94148145D01*
X168581358Y-94152024D01*
X168662572Y-94160763D01*
X168688080Y-94166521D01*
X168760654Y-94197990D01*
X168832427Y-94250745D01*
X168907477Y-94329122D01*
X168989883Y-94437458D01*
X169083726Y-94580089D01*
X169096632Y-94600817D01*
X169159740Y-94699877D01*
X169220764Y-94790655D01*
X169273739Y-94864611D01*
X169312700Y-94913207D01*
X169320465Y-94921279D01*
X169352273Y-94948979D01*
X169384904Y-94967032D01*
X169428731Y-94978042D01*
X169494127Y-94984614D01*
X169591466Y-94989354D01*
X169591586Y-94989358D01*
X169739074Y-94990441D01*
X169849874Y-94977943D01*
X169928404Y-94948405D01*
X169979081Y-94898369D01*
X170006322Y-94824376D01*
X170014546Y-94722965D01*
X170012837Y-94659513D01*
X170007017Y-94575629D01*
X169997330Y-94521777D01*
X169979834Y-94485652D01*
X169950585Y-94454952D01*
X169946001Y-94450964D01*
X169918120Y-94429412D01*
X169888124Y-94415019D01*
X169847158Y-94406353D01*
X169786370Y-94401980D01*
X169696904Y-94400466D01*
X169633309Y-94400333D01*
X169379479Y-94400333D01*
X169385781Y-94270772D01*
X169392083Y-94141212D01*
X169654781Y-94144912D01*
X169804699Y-94150086D01*
X169914697Y-94160947D01*
X169986836Y-94177710D01*
X169993448Y-94180295D01*
X170054138Y-94213630D01*
X170116136Y-94260118D01*
X170168785Y-94310156D01*
X170201429Y-94354142D01*
X170207000Y-94372735D01*
X170219898Y-94398128D01*
X170228166Y-94400333D01*
X170238733Y-94381191D01*
X170244938Y-94331414D01*
X170246748Y-94262482D01*
X170244134Y-94185872D01*
X170237064Y-94113061D01*
X170229064Y-94068868D01*
X170183689Y-93952281D01*
X170107203Y-93861701D01*
X170018597Y-93803076D01*
X169905832Y-93744167D01*
X167696478Y-93744167D01*
X167586182Y-93799129D01*
X167499298Y-93853504D01*
X167436789Y-93922839D01*
X167417984Y-93952588D01*
X167360083Y-94051083D01*
X167360083Y-95702083D01*
X167772833Y-95714199D01*
G36*
X167360175Y-99941112D02*
G01*
X167360447Y-100316813D01*
X167360887Y-100679293D01*
X167361487Y-101026326D01*
X167362236Y-101355687D01*
X167363125Y-101665148D01*
X167364144Y-101952484D01*
X167365284Y-102215470D01*
X167366534Y-102451878D01*
X167367886Y-102659483D01*
X167369328Y-102836058D01*
X167370852Y-102979379D01*
X167372448Y-103087218D01*
X167374106Y-103157350D01*
X167375816Y-103187548D01*
X167375952Y-103188160D01*
X167415712Y-103268313D01*
X167483874Y-103346643D01*
X167568165Y-103409587D01*
X167584152Y-103418261D01*
X167603521Y-103427331D01*
X167625499Y-103434973D01*
X167653671Y-103441307D01*
X167691621Y-103446457D01*
X167742933Y-103450544D01*
X167811192Y-103453692D01*
X167899983Y-103456020D01*
X168012889Y-103457653D01*
X168153495Y-103458712D01*
X168325386Y-103459319D01*
X168532145Y-103459597D01*
X168777357Y-103459666D01*
X168799416Y-103459667D01*
X169048198Y-103459601D01*
X169258221Y-103459326D01*
X169433059Y-103458723D01*
X169576284Y-103457673D01*
X169691472Y-103456057D01*
X169782197Y-103453757D01*
X169852031Y-103450654D01*
X169904549Y-103446628D01*
X169943325Y-103441563D01*
X169971933Y-103435338D01*
X169993946Y-103427835D01*
X170012051Y-103419393D01*
X170111669Y-103350716D01*
X170183972Y-103264342D01*
X170222997Y-103168543D01*
X170228166Y-103119622D01*
X170227030Y-103110282D01*
X170221291Y-103102481D01*
X170207455Y-103096081D01*
X170182027Y-103090944D01*
X170141513Y-103086930D01*
X170082419Y-103083902D01*
X170001249Y-103081720D01*
X169894510Y-103080247D01*
X169758706Y-103079343D01*
X169590343Y-103078871D01*
X169385927Y-103078692D01*
X169194841Y-103078667D01*
X168940221Y-103078562D01*
X168724303Y-103077978D01*
X168543457Y-103076513D01*
X168394053Y-103073762D01*
X168272460Y-103069321D01*
X168175047Y-103062788D01*
X168098184Y-103053758D01*
X168038240Y-103041829D01*
X167991585Y-103026595D01*
X167954588Y-103007655D01*
X167923618Y-102984604D01*
X167895046Y-102957040D01*
X167871575Y-102931578D01*
X167812001Y-102849831D01*
X167774312Y-102756370D01*
X167756140Y-102642079D01*
X167755114Y-102497848D01*
X167755660Y-102485628D01*
X167770371Y-102344556D01*
X167801971Y-102236208D01*
X167854485Y-102152977D01*
X167931934Y-102087257D01*
X167981625Y-102058400D01*
X168034664Y-102032407D01*
X168082070Y-102015354D01*
X168135025Y-102005380D01*
X168204712Y-102000621D01*
X168302315Y-101999214D01*
X168337223Y-101999167D01*
X168579279Y-101999166D01*
X168572931Y-102120875D01*
X168566583Y-102242583D01*
X168339532Y-102253167D01*
X168234848Y-102259122D01*
X168163542Y-102266606D01*
X168116660Y-102277435D01*
X168085249Y-102293424D01*
X168068118Y-102308210D01*
X168022273Y-102379054D01*
X167998723Y-102468984D01*
X167996559Y-102566360D01*
X168014871Y-102659546D01*
X168052749Y-102736903D01*
X168105397Y-102784795D01*
X168150256Y-102798971D01*
X168225367Y-102808287D01*
X168335145Y-102813136D01*
X168434608Y-102814083D01*
X168709213Y-102814083D01*
X168819047Y-102528333D01*
X168873082Y-102389411D01*
X168916046Y-102284160D01*
X168951204Y-102206419D01*
X168981818Y-102150028D01*
X169011153Y-102108826D01*
X169042471Y-102076650D01*
X169070386Y-102053849D01*
X169132495Y-102015940D01*
X169209046Y-101988409D01*
X169306084Y-101970339D01*
X169429655Y-101960815D01*
X169585806Y-101958922D01*
X169685262Y-101960736D01*
X169830377Y-101966040D01*
X169940308Y-101974654D01*
X170022184Y-101988491D01*
X170083131Y-102009463D01*
X170130277Y-102039485D01*
X170170749Y-102080469D01*
X170181719Y-102093994D01*
X170214535Y-102130915D01*
X170236552Y-102147286D01*
X170237156Y-102147333D01*
X170241855Y-102127527D01*
X170244861Y-102073503D01*
X170245938Y-101993349D01*
X170244851Y-101895154D01*
X170244693Y-101888042D01*
X170238750Y-101628750D01*
X169116916Y-101618167D01*
X168869976Y-101615781D01*
X168661784Y-101613567D01*
X168488755Y-101611362D01*
X168347305Y-101609009D01*
X168233849Y-101606345D01*
X168144804Y-101603211D01*
X168076584Y-101599448D01*
X168025606Y-101594895D01*
X167988285Y-101589392D01*
X167961036Y-101582779D01*
X167940276Y-101574896D01*
X167922419Y-101565583D01*
X167921000Y-101564766D01*
X167838690Y-101494219D01*
X167783462Y-101398000D01*
X167755607Y-101283218D01*
X167755419Y-101156981D01*
X167783192Y-101026397D01*
X167839218Y-100898576D01*
X167890314Y-100821139D01*
X167923045Y-100775208D01*
X167940996Y-100744151D01*
X167942166Y-100739796D01*
X167927456Y-100719053D01*
X167890705Y-100683474D01*
X167875788Y-100670580D01*
X167803965Y-100587686D01*
X167763429Y-100483528D01*
X167751666Y-100362588D01*
X167758926Y-100256219D01*
X167784023Y-100160155D01*
X167831933Y-100059105D01*
X167872256Y-99991994D01*
X167943727Y-99879237D01*
X167889440Y-99836534D01*
X167813527Y-99751261D01*
X167767260Y-99643002D01*
X167750594Y-99518950D01*
X167763484Y-99386298D01*
X167805888Y-99252236D01*
X167877761Y-99123959D01*
X167893937Y-99101890D01*
X167949411Y-99029159D01*
X167895116Y-98984871D01*
X167811293Y-98890886D01*
X167762749Y-98777210D01*
X167750149Y-98648530D01*
X167774162Y-98509531D01*
X167813078Y-98408675D01*
X167847501Y-98340770D01*
X167878094Y-98288814D01*
X167897728Y-98264551D01*
X167921028Y-98239044D01*
X167906163Y-98219562D01*
X167857270Y-98210517D01*
X167846916Y-98210333D01*
X167772833Y-98210333D01*
X167772833Y-97956674D01*
X169005791Y-97951212D01*
X170238750Y-97945750D01*
X170243134Y-97617667D01*
X170244250Y-97492338D01*
X170243484Y-97404887D01*
X170240507Y-97350883D01*
X170234991Y-97325899D01*
X170226609Y-97325506D01*
X170221968Y-97331917D01*
X170151781Y-97419830D01*
X170059837Y-97496261D01*
X169962150Y-97548489D01*
X169939959Y-97555914D01*
X169884192Y-97567017D01*
X169806545Y-97576072D01*
X169717636Y-97582650D01*
X169628085Y-97586319D01*
X169548512Y-97586648D01*
X169489535Y-97583205D01*
X169461775Y-97575560D01*
X169461589Y-97575333D01*
X169458533Y-97550117D01*
X169459027Y-97495874D01*
X169461784Y-97443042D01*
X169470084Y-97321333D01*
X169668875Y-97321333D01*
X169763141Y-97320548D01*
X169826029Y-97316540D01*
X169868486Y-97306828D01*
X169901460Y-97288930D01*
X169935212Y-97260980D01*
X169974649Y-97220283D01*
X169996818Y-97177333D01*
X170008229Y-97116174D01*
X170012011Y-97072723D01*
X170009519Y-96938812D01*
X169980777Y-96835855D01*
X169926207Y-96765218D01*
X169914888Y-96756859D01*
X169889289Y-96742599D01*
X169856417Y-96732275D01*
X169809527Y-96725275D01*
X169741872Y-96720987D01*
X169646706Y-96718799D01*
X169517282Y-96718098D01*
X169487333Y-96718083D01*
X169116916Y-96718083D01*
X169095750Y-97585917D01*
X168608916Y-97585338D01*
X168450845Y-97584885D01*
X168328919Y-97583632D01*
X168236950Y-97581108D01*
X168168751Y-97576838D01*
X168118134Y-97570350D01*
X168078911Y-97561170D01*
X168044896Y-97548825D01*
X168026833Y-97540823D01*
X167910634Y-97469761D01*
X167829014Y-97377865D01*
X167784942Y-97284452D01*
X167764927Y-97194347D01*
X167754245Y-97079574D01*
X167753128Y-96956807D01*
X167761808Y-96842721D01*
X167777698Y-96762872D01*
X167825546Y-96666102D01*
X167902793Y-96577641D01*
X167996854Y-96509561D01*
X168074436Y-96478212D01*
X168125230Y-96470778D01*
X168213694Y-96464702D01*
X168340722Y-96459962D01*
X168507207Y-96456535D01*
X168714043Y-96454397D01*
X168962121Y-96453525D01*
X169016685Y-96453500D01*
X169233866Y-96453702D01*
X169412969Y-96454412D01*
X169558248Y-96455784D01*
X169673958Y-96457973D01*
X169764351Y-96461134D01*
X169833683Y-96465422D01*
X169886206Y-96470993D01*
X169926176Y-96477999D01*
X169957846Y-96486598D01*
X169961760Y-96487903D01*
X170032019Y-96520818D01*
X170101713Y-96567981D01*
X170160610Y-96620643D01*
X170198480Y-96670054D01*
X170207000Y-96697622D01*
X170218654Y-96725334D01*
X170228166Y-96728667D01*
X170236859Y-96708892D01*
X170243401Y-96655024D01*
X170247850Y-96575244D01*
X170250263Y-96477733D01*
X170250699Y-96370674D01*
X170249215Y-96262248D01*
X170245867Y-96160637D01*
X170240715Y-96074023D01*
X170233815Y-96010587D01*
X170225225Y-95978512D01*
X170222875Y-95976372D01*
X170197138Y-95974516D01*
X170133147Y-95972980D01*
X170034978Y-95971780D01*
X169906710Y-95970934D01*
X169752419Y-95970458D01*
X169576183Y-95970369D01*
X169382080Y-95970685D01*
X169174187Y-95971422D01*
X169106333Y-95971745D01*
X168016250Y-95977250D01*
X168009966Y-96121197D01*
X168003683Y-96265143D01*
X167893550Y-96258780D01*
X167783416Y-96252417D01*
X167770864Y-95965157D01*
X167565474Y-95971204D01*
X167360083Y-95977250D01*
X167360083Y-99554417D01*
X167360175Y-99941112D01*
G37*
X167360175Y-99941112D02*
X167360447Y-100316813D01*
X167360887Y-100679293D01*
X167361487Y-101026326D01*
X167362236Y-101355687D01*
X167363125Y-101665148D01*
X167364144Y-101952484D01*
X167365284Y-102215470D01*
X167366534Y-102451878D01*
X167367886Y-102659483D01*
X167369328Y-102836058D01*
X167370852Y-102979379D01*
X167372448Y-103087218D01*
X167374106Y-103157350D01*
X167375816Y-103187548D01*
X167375952Y-103188160D01*
X167415712Y-103268313D01*
X167483874Y-103346643D01*
X167568165Y-103409587D01*
X167584152Y-103418261D01*
X167603521Y-103427331D01*
X167625499Y-103434973D01*
X167653671Y-103441307D01*
X167691621Y-103446457D01*
X167742933Y-103450544D01*
X167811192Y-103453692D01*
X167899983Y-103456020D01*
X168012889Y-103457653D01*
X168153495Y-103458712D01*
X168325386Y-103459319D01*
X168532145Y-103459597D01*
X168777357Y-103459666D01*
X168799416Y-103459667D01*
X169048198Y-103459601D01*
X169258221Y-103459326D01*
X169433059Y-103458723D01*
X169576284Y-103457673D01*
X169691472Y-103456057D01*
X169782197Y-103453757D01*
X169852031Y-103450654D01*
X169904549Y-103446628D01*
X169943325Y-103441563D01*
X169971933Y-103435338D01*
X169993946Y-103427835D01*
X170012051Y-103419393D01*
X170111669Y-103350716D01*
X170183972Y-103264342D01*
X170222997Y-103168543D01*
X170228166Y-103119622D01*
X170227030Y-103110282D01*
X170221291Y-103102481D01*
X170207455Y-103096081D01*
X170182027Y-103090944D01*
X170141513Y-103086930D01*
X170082419Y-103083902D01*
X170001249Y-103081720D01*
X169894510Y-103080247D01*
X169758706Y-103079343D01*
X169590343Y-103078871D01*
X169385927Y-103078692D01*
X169194841Y-103078667D01*
X168940221Y-103078562D01*
X168724303Y-103077978D01*
X168543457Y-103076513D01*
X168394053Y-103073762D01*
X168272460Y-103069321D01*
X168175047Y-103062788D01*
X168098184Y-103053758D01*
X168038240Y-103041829D01*
X167991585Y-103026595D01*
X167954588Y-103007655D01*
X167923618Y-102984604D01*
X167895046Y-102957040D01*
X167871575Y-102931578D01*
X167812001Y-102849831D01*
X167774312Y-102756370D01*
X167756140Y-102642079D01*
X167755114Y-102497848D01*
X167755660Y-102485628D01*
X167770371Y-102344556D01*
X167801971Y-102236208D01*
X167854485Y-102152977D01*
X167931934Y-102087257D01*
X167981625Y-102058400D01*
X168034664Y-102032407D01*
X168082070Y-102015354D01*
X168135025Y-102005380D01*
X168204712Y-102000621D01*
X168302315Y-101999214D01*
X168337223Y-101999167D01*
X168579279Y-101999166D01*
X168572931Y-102120875D01*
X168566583Y-102242583D01*
X168339532Y-102253167D01*
X168234848Y-102259122D01*
X168163542Y-102266606D01*
X168116660Y-102277435D01*
X168085249Y-102293424D01*
X168068118Y-102308210D01*
X168022273Y-102379054D01*
X167998723Y-102468984D01*
X167996559Y-102566360D01*
X168014871Y-102659546D01*
X168052749Y-102736903D01*
X168105397Y-102784795D01*
X168150256Y-102798971D01*
X168225367Y-102808287D01*
X168335145Y-102813136D01*
X168434608Y-102814083D01*
X168709213Y-102814083D01*
X168819047Y-102528333D01*
X168873082Y-102389411D01*
X168916046Y-102284160D01*
X168951204Y-102206419D01*
X168981818Y-102150028D01*
X169011153Y-102108826D01*
X169042471Y-102076650D01*
X169070386Y-102053849D01*
X169132495Y-102015940D01*
X169209046Y-101988409D01*
X169306084Y-101970339D01*
X169429655Y-101960815D01*
X169585806Y-101958922D01*
X169685262Y-101960736D01*
X169830377Y-101966040D01*
X169940308Y-101974654D01*
X170022184Y-101988491D01*
X170083131Y-102009463D01*
X170130277Y-102039485D01*
X170170749Y-102080469D01*
X170181719Y-102093994D01*
X170214535Y-102130915D01*
X170236552Y-102147286D01*
X170237156Y-102147333D01*
X170241855Y-102127527D01*
X170244861Y-102073503D01*
X170245938Y-101993349D01*
X170244851Y-101895154D01*
X170244693Y-101888042D01*
X170238750Y-101628750D01*
X169116916Y-101618167D01*
X168869976Y-101615781D01*
X168661784Y-101613567D01*
X168488755Y-101611362D01*
X168347305Y-101609009D01*
X168233849Y-101606345D01*
X168144804Y-101603211D01*
X168076584Y-101599448D01*
X168025606Y-101594895D01*
X167988285Y-101589392D01*
X167961036Y-101582779D01*
X167940276Y-101574896D01*
X167922419Y-101565583D01*
X167921000Y-101564766D01*
X167838690Y-101494219D01*
X167783462Y-101398000D01*
X167755607Y-101283218D01*
X167755419Y-101156981D01*
X167783192Y-101026397D01*
X167839218Y-100898576D01*
X167890314Y-100821139D01*
X167923045Y-100775208D01*
X167940996Y-100744151D01*
X167942166Y-100739796D01*
X167927456Y-100719053D01*
X167890705Y-100683474D01*
X167875788Y-100670580D01*
X167803965Y-100587686D01*
X167763429Y-100483528D01*
X167751666Y-100362588D01*
X167758926Y-100256219D01*
X167784023Y-100160155D01*
X167831933Y-100059105D01*
X167872256Y-99991994D01*
X167943727Y-99879237D01*
X167889440Y-99836534D01*
X167813527Y-99751261D01*
X167767260Y-99643002D01*
X167750594Y-99518950D01*
X167763484Y-99386298D01*
X167805888Y-99252236D01*
X167877761Y-99123959D01*
X167893937Y-99101890D01*
X167949411Y-99029159D01*
X167895116Y-98984871D01*
X167811293Y-98890886D01*
X167762749Y-98777210D01*
X167750149Y-98648530D01*
X167774162Y-98509531D01*
X167813078Y-98408675D01*
X167847501Y-98340770D01*
X167878094Y-98288814D01*
X167897728Y-98264551D01*
X167921028Y-98239044D01*
X167906163Y-98219562D01*
X167857270Y-98210517D01*
X167846916Y-98210333D01*
X167772833Y-98210333D01*
X167772833Y-97956674D01*
X169005791Y-97951212D01*
X170238750Y-97945750D01*
X170243134Y-97617667D01*
X170244250Y-97492338D01*
X170243484Y-97404887D01*
X170240507Y-97350883D01*
X170234991Y-97325899D01*
X170226609Y-97325506D01*
X170221968Y-97331917D01*
X170151781Y-97419830D01*
X170059837Y-97496261D01*
X169962150Y-97548489D01*
X169939959Y-97555914D01*
X169884192Y-97567017D01*
X169806545Y-97576072D01*
X169717636Y-97582650D01*
X169628085Y-97586319D01*
X169548512Y-97586648D01*
X169489535Y-97583205D01*
X169461775Y-97575560D01*
X169461589Y-97575333D01*
X169458533Y-97550117D01*
X169459027Y-97495874D01*
X169461784Y-97443042D01*
X169470084Y-97321333D01*
X169668875Y-97321333D01*
X169763141Y-97320548D01*
X169826029Y-97316540D01*
X169868486Y-97306828D01*
X169901460Y-97288930D01*
X169935212Y-97260980D01*
X169974649Y-97220283D01*
X169996818Y-97177333D01*
X170008229Y-97116174D01*
X170012011Y-97072723D01*
X170009519Y-96938812D01*
X169980777Y-96835855D01*
X169926207Y-96765218D01*
X169914888Y-96756859D01*
X169889289Y-96742599D01*
X169856417Y-96732275D01*
X169809527Y-96725275D01*
X169741872Y-96720987D01*
X169646706Y-96718799D01*
X169517282Y-96718098D01*
X169487333Y-96718083D01*
X169116916Y-96718083D01*
X169095750Y-97585917D01*
X168608916Y-97585338D01*
X168450845Y-97584885D01*
X168328919Y-97583632D01*
X168236950Y-97581108D01*
X168168751Y-97576838D01*
X168118134Y-97570350D01*
X168078911Y-97561170D01*
X168044896Y-97548825D01*
X168026833Y-97540823D01*
X167910634Y-97469761D01*
X167829014Y-97377865D01*
X167784942Y-97284452D01*
X167764927Y-97194347D01*
X167754245Y-97079574D01*
X167753128Y-96956807D01*
X167761808Y-96842721D01*
X167777698Y-96762872D01*
X167825546Y-96666102D01*
X167902793Y-96577641D01*
X167996854Y-96509561D01*
X168074436Y-96478212D01*
X168125230Y-96470778D01*
X168213694Y-96464702D01*
X168340722Y-96459962D01*
X168507207Y-96456535D01*
X168714043Y-96454397D01*
X168962121Y-96453525D01*
X169016685Y-96453500D01*
X169233866Y-96453702D01*
X169412969Y-96454412D01*
X169558248Y-96455784D01*
X169673958Y-96457973D01*
X169764351Y-96461134D01*
X169833683Y-96465422D01*
X169886206Y-96470993D01*
X169926176Y-96477999D01*
X169957846Y-96486598D01*
X169961760Y-96487903D01*
X170032019Y-96520818D01*
X170101713Y-96567981D01*
X170160610Y-96620643D01*
X170198480Y-96670054D01*
X170207000Y-96697622D01*
X170218654Y-96725334D01*
X170228166Y-96728667D01*
X170236859Y-96708892D01*
X170243401Y-96655024D01*
X170247850Y-96575244D01*
X170250263Y-96477733D01*
X170250699Y-96370674D01*
X170249215Y-96262248D01*
X170245867Y-96160637D01*
X170240715Y-96074023D01*
X170233815Y-96010587D01*
X170225225Y-95978512D01*
X170222875Y-95976372D01*
X170197138Y-95974516D01*
X170133147Y-95972980D01*
X170034978Y-95971780D01*
X169906710Y-95970934D01*
X169752419Y-95970458D01*
X169576183Y-95970369D01*
X169382080Y-95970685D01*
X169174187Y-95971422D01*
X169106333Y-95971745D01*
X168016250Y-95977250D01*
X168009966Y-96121197D01*
X168003683Y-96265143D01*
X167893550Y-96258780D01*
X167783416Y-96252417D01*
X167770864Y-95965157D01*
X167565474Y-95971204D01*
X167360083Y-95977250D01*
X167360083Y-99554417D01*
X167360175Y-99941112D01*
G36*
X168007367Y-98661792D02*
G01*
X168016074Y-98692658D01*
X168026025Y-98718686D01*
X168040647Y-98740268D01*
X168063366Y-98757796D01*
X168097607Y-98771663D01*
X168146796Y-98782262D01*
X168214361Y-98789985D01*
X168303725Y-98795223D01*
X168418317Y-98798371D01*
X168561560Y-98799820D01*
X168736883Y-98799962D01*
X168947709Y-98799191D01*
X169195626Y-98797908D01*
X170238750Y-98792417D01*
X170244638Y-98501375D01*
X170250527Y-98210333D01*
X168142941Y-98210333D01*
X168084722Y-98306719D01*
X168023945Y-98434449D01*
X167997941Y-98555979D01*
X168007367Y-98661792D01*
G37*
X168007367Y-98661792D02*
X168016074Y-98692658D01*
X168026025Y-98718686D01*
X168040647Y-98740268D01*
X168063366Y-98757796D01*
X168097607Y-98771663D01*
X168146796Y-98782262D01*
X168214361Y-98789985D01*
X168303725Y-98795223D01*
X168418317Y-98798371D01*
X168561560Y-98799820D01*
X168736883Y-98799962D01*
X168947709Y-98799191D01*
X169195626Y-98797908D01*
X170238750Y-98792417D01*
X170244638Y-98501375D01*
X170250527Y-98210333D01*
X168142941Y-98210333D01*
X168084722Y-98306719D01*
X168023945Y-98434449D01*
X167997941Y-98555979D01*
X168007367Y-98661792D01*
G36*
X168027558Y-99557173D02*
G01*
X168081503Y-99612945D01*
X168090654Y-99618082D01*
X168109716Y-99625463D01*
X168138160Y-99631572D01*
X168179549Y-99636495D01*
X168237442Y-99640317D01*
X168315402Y-99643123D01*
X168416989Y-99644999D01*
X168545764Y-99646030D01*
X168705289Y-99646301D01*
X168899125Y-99645899D01*
X169130832Y-99644907D01*
X169195626Y-99644575D01*
X170238750Y-99639083D01*
X170244627Y-99362738D01*
X170245753Y-99258531D01*
X170244654Y-99169962D01*
X170241584Y-99105434D01*
X170236799Y-99073347D01*
X170235807Y-99071697D01*
X170212348Y-99068794D01*
X170150670Y-99066081D01*
X170054888Y-99063616D01*
X169929117Y-99061456D01*
X169777472Y-99059657D01*
X169604068Y-99058278D01*
X169413019Y-99057375D01*
X169208440Y-99057006D01*
X169178900Y-99057000D01*
X168136689Y-99057000D01*
X168082458Y-99149537D01*
X168027896Y-99265716D01*
X168000637Y-99376852D01*
X168000563Y-99476240D01*
X168027558Y-99557173D01*
G37*
X168027558Y-99557173D02*
X168081503Y-99612945D01*
X168090654Y-99618082D01*
X168109716Y-99625463D01*
X168138160Y-99631572D01*
X168179549Y-99636495D01*
X168237442Y-99640317D01*
X168315402Y-99643123D01*
X168416989Y-99644999D01*
X168545764Y-99646030D01*
X168705289Y-99646301D01*
X168899125Y-99645899D01*
X169130832Y-99644907D01*
X169195626Y-99644575D01*
X170238750Y-99639083D01*
X170244627Y-99362738D01*
X170245753Y-99258531D01*
X170244654Y-99169962D01*
X170241584Y-99105434D01*
X170236799Y-99073347D01*
X170235807Y-99071697D01*
X170212348Y-99068794D01*
X170150670Y-99066081D01*
X170054888Y-99063616D01*
X169929117Y-99061456D01*
X169777472Y-99059657D01*
X169604068Y-99058278D01*
X169413019Y-99057375D01*
X169208440Y-99057006D01*
X169178900Y-99057000D01*
X168136689Y-99057000D01*
X168082458Y-99149537D01*
X168027896Y-99265716D01*
X168000637Y-99376852D01*
X168000563Y-99476240D01*
X168027558Y-99557173D01*
G36*
X168000039Y-100352348D02*
G01*
X168012449Y-100397430D01*
X168040922Y-100433070D01*
X168055118Y-100445806D01*
X168113860Y-100496333D01*
X170249333Y-100496333D01*
X170249333Y-100214111D01*
X170248328Y-100108808D01*
X170245578Y-100019163D01*
X170241477Y-99953461D01*
X170236419Y-99919989D01*
X170235222Y-99917778D01*
X170211868Y-99914975D01*
X170150317Y-99912357D01*
X170054706Y-99909981D01*
X169929169Y-99907901D01*
X169777844Y-99906174D01*
X169604866Y-99904856D01*
X169414372Y-99904002D01*
X169210498Y-99903669D01*
X169190752Y-99903667D01*
X168951946Y-99903489D01*
X168751809Y-99903317D01*
X168586679Y-99903692D01*
X168452896Y-99905155D01*
X168346798Y-99908249D01*
X168264724Y-99913513D01*
X168203012Y-99921491D01*
X168158002Y-99932723D01*
X168126032Y-99947751D01*
X168103441Y-99967116D01*
X168086569Y-99991359D01*
X168071752Y-100021023D01*
X168055332Y-100056648D01*
X168047465Y-100072746D01*
X168006436Y-100197125D01*
X167998021Y-100281510D01*
X168000039Y-100352348D01*
G37*
X168000039Y-100352348D02*
X168012449Y-100397430D01*
X168040922Y-100433070D01*
X168055118Y-100445806D01*
X168113860Y-100496333D01*
X170249333Y-100496333D01*
X170249333Y-100214111D01*
X170248328Y-100108808D01*
X170245578Y-100019163D01*
X170241477Y-99953461D01*
X170236419Y-99919989D01*
X170235222Y-99917778D01*
X170211868Y-99914975D01*
X170150317Y-99912357D01*
X170054706Y-99909981D01*
X169929169Y-99907901D01*
X169777844Y-99906174D01*
X169604866Y-99904856D01*
X169414372Y-99904002D01*
X169210498Y-99903669D01*
X169190752Y-99903667D01*
X168951946Y-99903489D01*
X168751809Y-99903317D01*
X168586679Y-99903692D01*
X168452896Y-99905155D01*
X168346798Y-99908249D01*
X168264724Y-99913513D01*
X168203012Y-99921491D01*
X168158002Y-99932723D01*
X168126032Y-99947751D01*
X168103441Y-99967116D01*
X168086569Y-99991359D01*
X168071752Y-100021023D01*
X168055332Y-100056648D01*
X168047465Y-100072746D01*
X168006436Y-100197125D01*
X167998021Y-100281510D01*
X168000039Y-100352348D01*
G36*
X167999309Y-101196601D02*
G01*
X168032276Y-101274868D01*
X168095274Y-101328258D01*
X168099441Y-101330298D01*
X168119849Y-101338198D01*
X168147245Y-101344742D01*
X168185315Y-101350027D01*
X168237747Y-101354148D01*
X168308228Y-101357201D01*
X168400446Y-101359282D01*
X168518088Y-101360487D01*
X168664841Y-101360912D01*
X168844394Y-101360654D01*
X169060433Y-101359807D01*
X169205208Y-101359077D01*
X170238750Y-101353583D01*
X170244638Y-101062542D01*
X170250527Y-100771500D01*
X168134451Y-100771500D01*
X168082372Y-100861458D01*
X168024179Y-100985006D01*
X167996551Y-101098350D01*
X167999309Y-101196601D01*
G37*
X167999309Y-101196601D02*
X168032276Y-101274868D01*
X168095274Y-101328258D01*
X168099441Y-101330298D01*
X168119849Y-101338198D01*
X168147245Y-101344742D01*
X168185315Y-101350027D01*
X168237747Y-101354148D01*
X168308228Y-101357201D01*
X168400446Y-101359282D01*
X168518088Y-101360487D01*
X168664841Y-101360912D01*
X168844394Y-101360654D01*
X169060433Y-101359807D01*
X169205208Y-101359077D01*
X170238750Y-101353583D01*
X170244638Y-101062542D01*
X170250527Y-100771500D01*
X168134451Y-100771500D01*
X168082372Y-100861458D01*
X168024179Y-100985006D01*
X167996551Y-101098350D01*
X167999309Y-101196601D01*
G36*
X170109166Y-102810078D02*
G01*
X170152762Y-102821544D01*
X170169958Y-102820716D01*
X170210117Y-102814526D01*
X170231333Y-102798453D01*
X170240824Y-102761195D01*
X170245147Y-102702958D01*
X170245343Y-102640975D01*
X170238999Y-102600636D01*
X170231840Y-102591833D01*
X170210985Y-102609325D01*
X170187352Y-102651716D01*
X170186124Y-102654631D01*
X170158566Y-102706997D01*
X170130639Y-102741890D01*
X170100592Y-102781120D01*
X170109166Y-102810078D01*
G37*
X170109166Y-102810078D02*
X170152762Y-102821544D01*
X170169958Y-102820716D01*
X170210117Y-102814526D01*
X170231333Y-102798453D01*
X170240824Y-102761195D01*
X170245147Y-102702958D01*
X170245343Y-102640975D01*
X170238999Y-102600636D01*
X170231840Y-102591833D01*
X170210985Y-102609325D01*
X170187352Y-102651716D01*
X170186124Y-102654631D01*
X170158566Y-102706997D01*
X170130639Y-102741890D01*
X170100592Y-102781120D01*
X170109166Y-102810078D01*
G36*
X167470481Y-106334122D02*
G01*
X167580879Y-106340495D01*
X167586897Y-106111872D01*
X167592916Y-105883250D01*
X170238750Y-105873782D01*
X170251436Y-105640152D01*
X167592916Y-105629250D01*
X167586897Y-105400627D01*
X167580879Y-105172005D01*
X167470481Y-105178377D01*
X167360083Y-105184750D01*
X167360083Y-106327750D01*
X167470481Y-106334122D01*
G37*
X167470481Y-106334122D02*
X167580879Y-106340495D01*
X167586897Y-106111872D01*
X167592916Y-105883250D01*
X170238750Y-105873782D01*
X170251436Y-105640152D01*
X167592916Y-105629250D01*
X167586897Y-105400627D01*
X167580879Y-105172005D01*
X167470481Y-105178377D01*
X167360083Y-105184750D01*
X167360083Y-106327750D01*
X167470481Y-106334122D01*
G36*
X168985393Y-102814731D02*
G01*
X168987001Y-102815893D01*
X169015006Y-102818551D01*
X169078580Y-102820369D01*
X169170968Y-102821289D01*
X169285412Y-102821255D01*
X169415156Y-102820207D01*
X169445571Y-102819828D01*
X169878916Y-102814083D01*
X169947708Y-102678507D01*
X169999195Y-102548473D01*
X170015534Y-102432487D01*
X169996256Y-102334328D01*
X169991743Y-102324373D01*
X169967806Y-102289517D01*
X169930728Y-102264334D01*
X169874270Y-102247417D01*
X169792191Y-102237357D01*
X169678251Y-102232744D01*
X169582583Y-102232000D01*
X169446442Y-102233568D01*
X169345457Y-102239529D01*
X169272524Y-102251766D01*
X169220538Y-102272163D01*
X169182397Y-102302605D01*
X169150996Y-102344976D01*
X169149895Y-102346759D01*
X169117442Y-102407576D01*
X169082724Y-102485525D01*
X169048889Y-102571534D01*
X169019089Y-102656531D01*
X168996473Y-102731444D01*
X168984191Y-102787201D01*
X168985393Y-102814731D01*
G37*
X168985393Y-102814731D02*
X168987001Y-102815893D01*
X169015006Y-102818551D01*
X169078580Y-102820369D01*
X169170968Y-102821289D01*
X169285412Y-102821255D01*
X169415156Y-102820207D01*
X169445571Y-102819828D01*
X169878916Y-102814083D01*
X169947708Y-102678507D01*
X169999195Y-102548473D01*
X170015534Y-102432487D01*
X169996256Y-102334328D01*
X169991743Y-102324373D01*
X169967806Y-102289517D01*
X169930728Y-102264334D01*
X169874270Y-102247417D01*
X169792191Y-102237357D01*
X169678251Y-102232744D01*
X169582583Y-102232000D01*
X169446442Y-102233568D01*
X169345457Y-102239529D01*
X169272524Y-102251766D01*
X169220538Y-102272163D01*
X169182397Y-102302605D01*
X169150996Y-102344976D01*
X169149895Y-102346759D01*
X169117442Y-102407576D01*
X169082724Y-102485525D01*
X169048889Y-102571534D01*
X169019089Y-102656531D01*
X168996473Y-102731444D01*
X168984191Y-102787201D01*
X168985393Y-102814731D01*
G36*
X167999383Y-97108310D02*
G01*
X168014865Y-97182547D01*
X168046598Y-97237586D01*
X168099262Y-97276173D01*
X168177535Y-97301055D01*
X168286098Y-97314980D01*
X168429628Y-97320694D01*
X168522157Y-97321333D01*
X168852333Y-97321333D01*
X168852333Y-96707500D01*
X168540125Y-96708695D01*
X168409422Y-96710993D01*
X168296645Y-96716470D01*
X168209825Y-96724574D01*
X168156990Y-96734752D01*
X168155815Y-96735153D01*
X168075590Y-96779119D01*
X168024282Y-96847188D01*
X167999143Y-96944105D01*
X167995474Y-97012126D01*
X167999383Y-97108310D01*
G37*
X167999383Y-97108310D02*
X168014865Y-97182547D01*
X168046598Y-97237586D01*
X168099262Y-97276173D01*
X168177535Y-97301055D01*
X168286098Y-97314980D01*
X168429628Y-97320694D01*
X168522157Y-97321333D01*
X168852333Y-97321333D01*
X168852333Y-96707500D01*
X168540125Y-96708695D01*
X168409422Y-96710993D01*
X168296645Y-96716470D01*
X168209825Y-96724574D01*
X168156990Y-96734752D01*
X168155815Y-96735153D01*
X168075590Y-96779119D01*
X168024282Y-96847188D01*
X167999143Y-96944105D01*
X167995474Y-97012126D01*
X167999383Y-97108310D01*
G36*
X174719650Y-106235963D02*
G01*
X174730362Y-106291266D01*
X174740900Y-106312933D01*
X174785357Y-106333382D01*
X174846298Y-106336813D01*
X174902621Y-106323905D01*
X174926843Y-106306972D01*
X174950914Y-106286855D01*
X174979215Y-106294797D01*
X174997645Y-106306972D01*
X175046049Y-106334521D01*
X175070376Y-106330549D01*
X175075333Y-106307071D01*
X175059074Y-106273925D01*
X175022416Y-106241137D01*
X174981105Y-106200487D01*
X174971016Y-106160030D01*
X174992648Y-106130440D01*
X175016908Y-106122847D01*
X175057231Y-106102985D01*
X175071377Y-106079042D01*
X175070480Y-106061045D01*
X175054240Y-106049997D01*
X175014928Y-106044255D01*
X174944813Y-106042178D01*
X174896968Y-106042000D01*
X174886217Y-106042000D01*
X174886217Y-106129066D01*
X174903349Y-106143721D01*
X174902254Y-106181283D01*
X174883812Y-106232835D01*
X174857135Y-106262115D01*
X174822105Y-106272798D01*
X174791962Y-106249035D01*
X174787731Y-106243493D01*
X174762522Y-106189790D01*
X174776429Y-106151776D01*
X174828406Y-106131762D01*
X174838928Y-106130502D01*
X174886217Y-106129066D01*
X174886217Y-106042000D01*
X174715500Y-106042000D01*
X174715500Y-106164767D01*
X174719650Y-106235963D01*
G37*
X174719650Y-106235963D02*
X174730362Y-106291266D01*
X174740900Y-106312933D01*
X174785357Y-106333382D01*
X174846298Y-106336813D01*
X174902621Y-106323905D01*
X174926843Y-106306972D01*
X174950914Y-106286855D01*
X174979215Y-106294797D01*
X174997645Y-106306972D01*
X175046049Y-106334521D01*
X175070376Y-106330549D01*
X175075333Y-106307071D01*
X175059074Y-106273925D01*
X175022416Y-106241137D01*
X174981105Y-106200487D01*
X174971016Y-106160030D01*
X174992648Y-106130440D01*
X175016908Y-106122847D01*
X175057231Y-106102985D01*
X175071377Y-106079042D01*
X175070480Y-106061045D01*
X175054240Y-106049997D01*
X175014928Y-106044255D01*
X174944813Y-106042178D01*
X174896968Y-106042000D01*
X174886217Y-106042000D01*
X174886217Y-106129066D01*
X174903349Y-106143721D01*
X174902254Y-106181283D01*
X174883812Y-106232835D01*
X174857135Y-106262115D01*
X174822105Y-106272798D01*
X174791962Y-106249035D01*
X174787731Y-106243493D01*
X174762522Y-106189790D01*
X174776429Y-106151776D01*
X174828406Y-106131762D01*
X174838928Y-106130502D01*
X174886217Y-106129066D01*
X174886217Y-106042000D01*
X174715500Y-106042000D01*
X174715500Y-106164767D01*
X174719650Y-106235963D01*
D10*
%TO.C,J1*%
X102200000Y-25100000D02*
X111600000Y-25100000D01*
X111600000Y-30900000D02*
X111600000Y-28900000D01*
X111600000Y-27000000D02*
X111600000Y-25100000D01*
X102200000Y-30900000D02*
X102200000Y-28900000D01*
X102200000Y-27000000D02*
X102200000Y-25100000D01*
%TD*%
M02*
