%TF.GenerationSoftware,KiCad,Pcbnew,(5.1.10-1-10_14)*%
%TF.CreationDate,2021-10-01T16:25:32+02:00*%
%TF.ProjectId,Launchpad,4c61756e-6368-4706-9164-2e6b69636164,rev?*%
%TF.SameCoordinates,Original*%
%TF.FileFunction,Profile,NP*%
%FSLAX46Y46*%
G04 Gerber Fmt 4.6, Leading zero omitted, Abs format (unit mm)*
G04 Created by KiCad (PCBNEW (5.1.10-1-10_14)) date 2021-10-01 16:25:32*
%MOMM*%
%LPD*%
G01*
G04 APERTURE LIST*
%TA.AperFunction,Profile*%
%ADD10C,0.050000*%
%TD*%
%TA.AperFunction,Profile*%
%ADD11C,0.100000*%
%TD*%
G04 APERTURE END LIST*
D10*
X90000000Y-109500000D02*
G75*
G02*
X90000000Y-92000000I0J8750000D01*
G01*
X124000000Y-92000000D02*
G75*
G02*
X124000000Y-109500000I0J-8750000D01*
G01*
X90000000Y-92000000D02*
X124000000Y-92000000D01*
X90000000Y-109500000D02*
X124000000Y-109500000D01*
D11*
%TO.C,X1*%
X182500000Y-100000000D02*
X182502000Y-101338500D01*
X182502000Y-101338500D02*
X182478000Y-102675400D01*
X182478000Y-102675400D02*
X182428000Y-104010400D01*
X182428000Y-104010400D02*
X182352000Y-105343100D01*
X182352000Y-105343100D02*
X182251000Y-106673100D01*
X182251000Y-106673100D02*
X182124000Y-108000200D01*
X182124000Y-108000200D02*
X181972000Y-109323900D01*
X181972000Y-109323900D02*
X181796000Y-110644000D01*
X181796000Y-110644000D02*
X181595000Y-111960000D01*
X181595000Y-111960000D02*
X181369000Y-113271700D01*
X181369000Y-113271700D02*
X181120000Y-114578600D01*
X181120000Y-114578600D02*
X180846000Y-115880500D01*
X180846000Y-115880500D02*
X180549000Y-117177000D01*
X180549000Y-117177000D02*
X180228000Y-118467800D01*
X180228000Y-118467800D02*
X179884000Y-119752400D01*
X179884000Y-119752400D02*
X179517000Y-121030600D01*
X179517000Y-121030600D02*
X179126000Y-122302000D01*
X179126000Y-122302000D02*
X178714000Y-123566300D01*
X178714000Y-123566300D02*
X178279000Y-124823100D01*
X178279000Y-124823100D02*
X177821000Y-126072000D01*
X177821000Y-126072000D02*
X177342000Y-127313000D01*
X177342000Y-127313000D02*
X176841000Y-128545000D01*
X176841000Y-128545000D02*
X176319000Y-129768000D01*
X176319000Y-129768000D02*
X175775000Y-130983000D01*
X175775000Y-130983000D02*
X175210000Y-132187000D01*
X175210000Y-132187000D02*
X174624000Y-133382000D01*
X174624000Y-133382000D02*
X174018000Y-134566000D01*
X174018000Y-134566000D02*
X173391000Y-135740000D01*
X173391000Y-135740000D02*
X172744000Y-136903000D01*
X172744000Y-136903000D02*
X172077000Y-138055000D01*
X172077000Y-138055000D02*
X171390000Y-139195000D01*
X171390000Y-139195000D02*
X170684000Y-140323000D01*
X170684000Y-140323000D02*
X169958000Y-141439000D01*
X169958000Y-141439000D02*
X169213000Y-142542000D01*
X169213000Y-142542000D02*
X168450000Y-143632000D01*
X168450000Y-143632000D02*
X167668000Y-144708000D01*
X167668000Y-144708000D02*
X166867000Y-145771000D01*
X166867000Y-145771000D02*
X166048000Y-146820000D01*
X166048000Y-146820000D02*
X165211000Y-147855000D01*
X165211000Y-147855000D02*
X164357000Y-148874000D01*
X164357000Y-148874000D02*
X163484000Y-149879000D01*
X163484000Y-149879000D02*
X162595000Y-150868000D01*
X162595000Y-150868000D02*
X161688000Y-151842000D01*
X161688000Y-151842000D02*
X160765000Y-152799000D01*
X160765000Y-152799000D02*
X159824000Y-153740000D01*
X159824000Y-153740000D02*
X158868000Y-154664000D01*
X158868000Y-154664000D02*
X157895000Y-155570000D01*
X157895000Y-155570000D02*
X156906000Y-156460000D01*
X156906000Y-156460000D02*
X155902000Y-157331000D01*
X155902000Y-157331000D02*
X154881000Y-158184000D01*
X154881000Y-158184000D02*
X153846000Y-159019000D01*
X153846000Y-159019000D02*
X152795000Y-159835000D01*
X152795000Y-159835000D02*
X151730000Y-160631000D01*
X151730000Y-160631000D02*
X150649000Y-161408000D01*
X150649000Y-161408000D02*
X149555000Y-162165000D01*
X149555000Y-162165000D02*
X148446000Y-162902000D01*
X148446000Y-162902000D02*
X147323000Y-163618000D01*
X147323000Y-163618000D02*
X146186000Y-164313000D01*
X146186000Y-164313000D02*
X145036000Y-164987000D01*
X145036000Y-164987000D02*
X143872000Y-165639000D01*
X143872000Y-165639000D02*
X142695000Y-166269000D01*
X142695000Y-166269000D02*
X141506000Y-166876000D01*
X141506000Y-166876000D02*
X140303000Y-167461000D01*
X140303000Y-167461000D02*
X139088000Y-168023000D01*
X139088000Y-168023000D02*
X137878000Y-168588000D01*
X137878000Y-168588000D02*
X136657000Y-169128000D01*
X136657000Y-169128000D02*
X135428000Y-169644000D01*
X135428000Y-169644000D02*
X134190000Y-170135000D01*
X134190000Y-170135000D02*
X132943000Y-170603000D01*
X132943000Y-170603000D02*
X131688900Y-171047000D01*
X131688900Y-171047000D02*
X130427000Y-171466000D01*
X130427000Y-171466000D02*
X129157900Y-171861000D01*
X129157900Y-171861000D02*
X127882200Y-172233000D01*
X127882200Y-172233000D02*
X126600200Y-172581000D01*
X126600200Y-172581000D02*
X125312300Y-172905000D01*
X125312300Y-172905000D02*
X124018900Y-173205000D01*
X124018900Y-173205000D02*
X122720400Y-173481000D01*
X122720400Y-173481000D02*
X121417200Y-173734000D01*
X121417200Y-173734000D02*
X120109700Y-173963000D01*
X120109700Y-173963000D02*
X118798400Y-174169000D01*
X118798400Y-174169000D02*
X117483700Y-174351000D01*
X117483700Y-174351000D02*
X116165800Y-174510000D01*
X116165800Y-174510000D02*
X114845300Y-174645000D01*
X114845300Y-174645000D02*
X113522600Y-174757000D01*
X113522600Y-174757000D02*
X112198000Y-174846000D01*
X112198000Y-174846000D02*
X110871900Y-174911000D01*
X110871900Y-174911000D02*
X109544900Y-174953000D01*
X109544900Y-174953000D02*
X108217100Y-174973000D01*
X108217100Y-174973000D02*
X106889200Y-174969000D01*
X106889200Y-174969000D02*
X105561400Y-174942000D01*
X105561400Y-174942000D02*
X104234300Y-174892000D01*
X104234300Y-174892000D02*
X102908100Y-174819000D01*
X102908100Y-174819000D02*
X101583300Y-174724000D01*
X101583300Y-174724000D02*
X100260300Y-174606000D01*
X100260300Y-174606000D02*
X98939400Y-174465000D01*
X98939400Y-174465000D02*
X97621200Y-174301000D01*
X97621200Y-174301000D02*
X96306000Y-174114000D01*
X96306000Y-174114000D02*
X94994300Y-173905000D01*
X94994300Y-173905000D02*
X93686300Y-173674000D01*
X93686300Y-173674000D02*
X92382500Y-173420000D01*
X92382500Y-173420000D02*
X91083400Y-173144000D01*
X91083400Y-173144000D02*
X89789300Y-172845000D01*
X89789300Y-172845000D02*
X88500700Y-172524000D01*
X88500700Y-172524000D02*
X87217900Y-172181000D01*
X87217900Y-172181000D02*
X85941300Y-171815000D01*
X85941300Y-171815000D02*
X84671400Y-171428000D01*
X84671400Y-171428000D02*
X83408500Y-171018000D01*
X83408500Y-171018000D02*
X82153200Y-170586000D01*
X82153200Y-170586000D02*
X80905600Y-170132000D01*
X80905600Y-170132000D02*
X79666400Y-169657000D01*
X79666400Y-169657000D02*
X78435800Y-169159000D01*
X78435800Y-169159000D02*
X77214300Y-168640000D01*
X77214300Y-168640000D02*
X76002200Y-168099000D01*
X76002200Y-168099000D02*
X74800100Y-167536000D01*
X74800100Y-167536000D02*
X73608200Y-166951000D01*
X73608200Y-166951000D02*
X72427100Y-166345000D01*
X72427100Y-166345000D02*
X71257000Y-165718000D01*
X71257000Y-165718000D02*
X70098500Y-165068000D01*
X70098500Y-165068000D02*
X68951800Y-164398000D01*
X68951800Y-164398000D02*
X67817500Y-163706000D01*
X67817500Y-163706000D02*
X66695900Y-162992000D01*
X66695900Y-162992000D02*
X65587400Y-162258000D01*
X65587400Y-162258000D02*
X64492500Y-161502000D01*
X64492500Y-161502000D02*
X63411500Y-160725000D01*
X63411500Y-160725000D02*
X62344800Y-159927000D01*
X62344800Y-159927000D02*
X61292900Y-159108000D01*
X61292900Y-159108000D02*
X60256100Y-158267000D01*
X60256100Y-158267000D02*
X59234900Y-157406000D01*
X59234900Y-157406000D02*
X58211100Y-156548000D01*
X58211100Y-156548000D02*
X57205300Y-155671000D01*
X57205300Y-155671000D02*
X56217600Y-154775000D01*
X56217600Y-154775000D02*
X55248100Y-153862000D01*
X55248100Y-153862000D02*
X54297000Y-152930000D01*
X54297000Y-152930000D02*
X53364300Y-151981000D01*
X53364300Y-151981000D02*
X52450300Y-151015000D01*
X52450300Y-151015000D02*
X51554900Y-150033000D01*
X51554900Y-150033000D02*
X50678400Y-149034000D01*
X50678400Y-149034000D02*
X49820900Y-148020000D01*
X49820900Y-148020000D02*
X48982400Y-146990000D01*
X48982400Y-146990000D02*
X48163200Y-145945000D01*
X48163200Y-145945000D02*
X47363200Y-144886000D01*
X47363200Y-144886000D02*
X46582800Y-143812000D01*
X46582800Y-143812000D02*
X45821900Y-142724000D01*
X45821900Y-142724000D02*
X45080600Y-141623000D01*
X45080600Y-141623000D02*
X44359200Y-140509000D01*
X44359200Y-140509000D02*
X43657800Y-139382000D01*
X43657800Y-139382000D02*
X42976400Y-138243000D01*
X42976400Y-138243000D02*
X42315170Y-137092000D01*
X42315170Y-137092000D02*
X41674260Y-135929000D01*
X41674260Y-135929000D02*
X41053790Y-134755000D01*
X41053790Y-134755000D02*
X40453860Y-133571000D01*
X40453860Y-133571000D02*
X39874610Y-132376000D01*
X39874610Y-132376000D02*
X39316160Y-131171000D01*
X39316160Y-131171000D02*
X38778620Y-129957000D01*
X38778620Y-129957000D02*
X38262120Y-128733000D01*
X38262120Y-128733000D02*
X37766790Y-127501000D01*
X37766790Y-127501000D02*
X37292750Y-126260000D01*
X37292750Y-126260000D02*
X36840110Y-125011000D01*
X36840110Y-125011000D02*
X36409000Y-123754900D01*
X36409000Y-123754900D02*
X35999550Y-122491200D01*
X35999550Y-122491200D02*
X35611870Y-121220700D01*
X35611870Y-121220700D02*
X35246090Y-119943800D01*
X35246090Y-119943800D02*
X34902340Y-118660700D01*
X34902340Y-118660700D02*
X34580720Y-117372000D01*
X34580720Y-117372000D02*
X34281370Y-116078000D01*
X34281370Y-116078000D02*
X34004410Y-114779100D01*
X34004410Y-114779100D02*
X33749960Y-113475600D01*
X33749960Y-113475600D02*
X33518140Y-112168100D01*
X33518140Y-112168100D02*
X33309079Y-110856800D01*
X33309079Y-110856800D02*
X33122893Y-109542200D01*
X33122893Y-109542200D02*
X32959708Y-108224600D01*
X32959708Y-108224600D02*
X32819646Y-106904400D01*
X32819646Y-106904400D02*
X32702828Y-105582100D01*
X32702828Y-105582100D02*
X32609378Y-104258000D01*
X32609378Y-104258000D02*
X32539418Y-102932500D01*
X32539418Y-102932500D02*
X32493070Y-101605900D01*
X32493070Y-101605900D02*
X32470456Y-100278800D01*
X32470456Y-100278800D02*
X32471700Y-98951400D01*
X32471700Y-98951400D02*
X32496924Y-97624200D01*
X32496924Y-97624200D02*
X32546249Y-96297500D01*
X32546249Y-96297500D02*
X32619799Y-94971800D01*
X32619799Y-94971800D02*
X32717696Y-93647400D01*
X32717696Y-93647400D02*
X32840062Y-92324700D01*
X32840062Y-92324700D02*
X32987019Y-91004100D01*
X32987019Y-91004100D02*
X33158691Y-89686000D01*
X33158691Y-89686000D02*
X33355200Y-88370800D01*
X33355200Y-88370800D02*
X33576670Y-87058900D01*
X33576670Y-87058900D02*
X33823220Y-85750700D01*
X33823220Y-85750700D02*
X34094970Y-84446400D01*
X34094970Y-84446400D02*
X34392050Y-83146700D01*
X34392050Y-83146700D02*
X34714580Y-81851800D01*
X34714580Y-81851800D02*
X35062680Y-80562000D01*
X35062680Y-80562000D02*
X35407630Y-79268700D01*
X35407630Y-79268700D02*
X35777440Y-77983800D01*
X35777440Y-77983800D02*
X36171800Y-76707400D01*
X36171800Y-76707400D02*
X36590410Y-75439900D01*
X36590410Y-75439900D02*
X37032960Y-74181500D01*
X37032960Y-74181500D02*
X37499150Y-72932600D01*
X37499150Y-72932600D02*
X37988690Y-71693400D01*
X37988690Y-71693400D02*
X38501250Y-70464200D01*
X38501250Y-70464200D02*
X39036550Y-69245300D01*
X39036550Y-69245300D02*
X39594280Y-68036900D01*
X39594280Y-68036900D02*
X40174140Y-66839300D01*
X40174140Y-66839300D02*
X40775820Y-65652800D01*
X40775820Y-65652800D02*
X41399020Y-64477700D01*
X41399020Y-64477700D02*
X42043440Y-63314200D01*
X42043440Y-63314200D02*
X42708800Y-62162600D01*
X42708800Y-62162600D02*
X43394700Y-61023300D01*
X43394700Y-61023300D02*
X44101000Y-59896400D01*
X44101000Y-59896400D02*
X44827200Y-58782300D01*
X44827200Y-58782300D02*
X45573200Y-57681200D01*
X45573200Y-57681200D02*
X46338600Y-56593500D01*
X46338600Y-56593500D02*
X47123000Y-55519300D01*
X47123000Y-55519300D02*
X47926300Y-54459000D01*
X47926300Y-54459000D02*
X48748000Y-53412800D01*
X48748000Y-53412800D02*
X49588000Y-52381000D01*
X49588000Y-52381000D02*
X50445800Y-51364000D01*
X50445800Y-51364000D02*
X51321200Y-50361900D01*
X51321200Y-50361900D02*
X52213800Y-49375000D01*
X52213800Y-49375000D02*
X53123500Y-48403700D01*
X53123500Y-48403700D02*
X54049800Y-47448200D01*
X54049800Y-47448200D02*
X54992500Y-46508800D01*
X54992500Y-46508800D02*
X55951300Y-45585700D01*
X55951300Y-45585700D02*
X56925800Y-44679300D01*
X56925800Y-44679300D02*
X57915800Y-43789800D01*
X57915800Y-43789800D02*
X58920900Y-42917400D01*
X58920900Y-42917400D02*
X59940900Y-42062600D01*
X59940900Y-42062600D02*
X60975500Y-41225400D01*
X60975500Y-41225400D02*
X62024300Y-40406300D01*
X62024300Y-40406300D02*
X63087000Y-39605500D01*
X63087000Y-39605500D02*
X64163400Y-38823300D01*
X64163400Y-38823300D02*
X65253100Y-38059900D01*
X65253100Y-38059900D02*
X66355900Y-37315700D01*
X66355900Y-37315700D02*
X67471400Y-36590800D01*
X67471400Y-36590800D02*
X68599300Y-35885600D01*
X68599300Y-35885600D02*
X69739400Y-35200400D01*
X69739400Y-35200400D02*
X70891200Y-34535450D01*
X70891200Y-34535450D02*
X72054600Y-33890990D01*
X72054600Y-33890990D02*
X73229300Y-33267320D01*
X73229300Y-33267320D02*
X74414800Y-32664710D01*
X74414800Y-32664710D02*
X75611000Y-32083450D01*
X75611000Y-32083450D02*
X76817400Y-31523810D01*
X76817400Y-31523810D02*
X78033900Y-30986060D01*
X78033900Y-30986060D02*
X79260000Y-30470490D01*
X79260000Y-30470490D02*
X80495600Y-29977380D01*
X80495600Y-29977380D02*
X81740300Y-29506990D01*
X81740300Y-29506990D02*
X82993700Y-29059610D01*
X82993700Y-29059610D02*
X84255700Y-28635510D01*
X84255700Y-28635510D02*
X85525800Y-28234970D01*
X85525800Y-28234970D02*
X86803900Y-27858260D01*
X86803900Y-27858260D02*
X88089500Y-27505670D01*
X88089500Y-27505670D02*
X89382400Y-27177470D01*
X89382400Y-27177470D02*
X90682200Y-26873940D01*
X90682200Y-26873940D02*
X91988800Y-26595360D01*
X91988800Y-26595360D02*
X93301700Y-26341990D01*
X93301700Y-26341990D02*
X94620700Y-26114130D01*
X94620700Y-26114130D02*
X95936300Y-25882820D01*
X95936300Y-25882820D02*
X97254900Y-25677449D01*
X97254900Y-25677449D02*
X98576000Y-25497856D01*
X98576000Y-25497856D02*
X99899300Y-25343885D01*
X99899300Y-25343885D02*
X101224400Y-25215377D01*
X101224400Y-25215377D02*
X102550900Y-25112178D01*
X102550900Y-25112178D02*
X103878400Y-25034129D01*
X103878400Y-25034129D02*
X105206500Y-24981074D01*
X105206500Y-24981074D02*
X106535000Y-24952857D01*
X106535000Y-24952857D02*
X107863300Y-24949321D01*
X107863300Y-24949321D02*
X109191100Y-24970309D01*
X109191100Y-24970309D02*
X110518100Y-25015663D01*
X110518100Y-25015663D02*
X111843900Y-25085229D01*
X111843900Y-25085229D02*
X113168000Y-25178848D01*
X113168000Y-25178848D02*
X114490200Y-25296364D01*
X114490200Y-25296364D02*
X115810000Y-25437620D01*
X115810000Y-25437620D02*
X117127100Y-25602460D01*
X117127100Y-25602460D02*
X118441000Y-25790726D01*
X118441000Y-25790726D02*
X119751500Y-26002260D01*
X119751500Y-26002260D02*
X121058100Y-26236910D01*
X121058100Y-26236910D02*
X122360400Y-26494520D01*
X122360400Y-26494520D02*
X123658100Y-26774930D01*
X123658100Y-26774930D02*
X124950800Y-27077970D01*
X124950800Y-27077970D02*
X126238100Y-27403510D01*
X126238100Y-27403510D02*
X127519700Y-27751370D01*
X127519700Y-27751370D02*
X128795100Y-28121410D01*
X128795100Y-28121410D02*
X130064100Y-28513470D01*
X130064100Y-28513470D02*
X131326100Y-28927380D01*
X131326100Y-28927380D02*
X132581000Y-29363000D01*
X132581000Y-29363000D02*
X133828000Y-29820160D01*
X133828000Y-29820160D02*
X135067000Y-30298710D01*
X135067000Y-30298710D02*
X136298000Y-30798490D01*
X136298000Y-30798490D02*
X137520000Y-31319350D01*
X137520000Y-31319350D02*
X138733000Y-31861130D01*
X138733000Y-31861130D02*
X139936000Y-32423670D01*
X139936000Y-32423670D02*
X141129000Y-33006810D01*
X141129000Y-33006810D02*
X142312000Y-33610410D01*
X142312000Y-33610410D02*
X143485000Y-34234290D01*
X143485000Y-34234290D02*
X144646000Y-34878310D01*
X144646000Y-34878310D02*
X145796000Y-35542300D01*
X145796000Y-35542300D02*
X146935000Y-36226100D01*
X146935000Y-36226100D02*
X148061000Y-36929600D01*
X148061000Y-36929600D02*
X149174000Y-37652600D01*
X149174000Y-37652600D02*
X150275000Y-38395000D01*
X150275000Y-38395000D02*
X151362000Y-39156500D01*
X151362000Y-39156500D02*
X152436000Y-39937100D01*
X152436000Y-39937100D02*
X153495000Y-40736500D01*
X153495000Y-40736500D02*
X154541000Y-41554700D01*
X154541000Y-41554700D02*
X155571000Y-42391500D01*
X155571000Y-42391500D02*
X156586000Y-43246600D01*
X156586000Y-43246600D02*
X157586000Y-44120100D01*
X157586000Y-44120100D02*
X158569000Y-45011600D01*
X158569000Y-45011600D02*
X159537000Y-45921000D01*
X159537000Y-45921000D02*
X160488000Y-46848300D01*
X160488000Y-46848300D02*
X161421000Y-47793100D01*
X161421000Y-47793100D02*
X162337000Y-48755500D01*
X162337000Y-48755500D02*
X163236000Y-49735100D01*
X163236000Y-49735100D02*
X164116000Y-50731900D01*
X164116000Y-50731900D02*
X164978000Y-51745700D01*
X164978000Y-51745700D02*
X165820000Y-52776400D01*
X165820000Y-52776400D02*
X166644000Y-53823700D01*
X166644000Y-53823700D02*
X167447000Y-54887600D01*
X167447000Y-54887600D02*
X168231000Y-55967800D01*
X168231000Y-55967800D02*
X168994000Y-57064300D01*
X168994000Y-57064300D02*
X169803000Y-58242900D01*
X169803000Y-58242900D02*
X170589000Y-59436900D01*
X170589000Y-59436900D02*
X171351000Y-60645900D01*
X171351000Y-60645900D02*
X172089000Y-61869200D01*
X172089000Y-61869200D02*
X172803000Y-63106400D01*
X172803000Y-63106400D02*
X173494000Y-64357100D01*
X173494000Y-64357100D02*
X174160000Y-65620700D01*
X174160000Y-65620700D02*
X174801000Y-66896800D01*
X174801000Y-66896800D02*
X175419000Y-68184900D01*
X175419000Y-68184900D02*
X176011000Y-69484500D01*
X176011000Y-69484500D02*
X176579000Y-70795000D01*
X176579000Y-70795000D02*
X177122000Y-72116100D01*
X177122000Y-72116100D02*
X177640000Y-73447300D01*
X177640000Y-73447300D02*
X178132000Y-74788000D01*
X178132000Y-74788000D02*
X178599000Y-76137700D01*
X178599000Y-76137700D02*
X179040000Y-77496100D01*
X179040000Y-77496100D02*
X179456000Y-78862500D01*
X179456000Y-78862500D02*
X179846000Y-80236500D01*
X179846000Y-80236500D02*
X180210000Y-81617700D01*
X180210000Y-81617700D02*
X180547000Y-83005500D01*
X180547000Y-83005500D02*
X180858000Y-84399400D01*
X180858000Y-84399400D02*
X181143000Y-85799100D01*
X181143000Y-85799100D02*
X181401000Y-87203900D01*
X181401000Y-87203900D02*
X181633000Y-88613300D01*
X181633000Y-88613300D02*
X181837000Y-90027000D01*
X181837000Y-90027000D02*
X182014000Y-91444500D01*
X182014000Y-91444500D02*
X182164000Y-92865100D01*
X182164000Y-92865100D02*
X182287000Y-94288500D01*
X182287000Y-94288500D02*
X182382000Y-95714200D01*
X182382000Y-95714200D02*
X182449000Y-97141700D01*
X182449000Y-97141700D02*
X182489000Y-98570400D01*
X182489000Y-98570400D02*
X182500000Y-100000000D01*
X182500000Y-100000000D02*
X182500000Y-100000000D01*
X182500000Y-100000000D02*
X182500000Y-100000000D01*
%TD*%
M02*
