%TF.GenerationSoftware,KiCad,Pcbnew,(5.1.10-1-10_14)*%
%TF.CreationDate,2021-08-27T15:48:04+02:00*%
%TF.ProjectId,OOO2021_Badge,4f4f4f32-3032-4315-9f42-616467652e6b,rev?*%
%TF.SameCoordinates,Original*%
%TF.FileFunction,Other,Fab,Top*%
%FSLAX46Y46*%
G04 Gerber Fmt 4.6, Leading zero omitted, Abs format (unit mm)*
G04 Created by KiCad (PCBNEW (5.1.10-1-10_14)) date 2021-08-27 15:48:04*
%MOMM*%
%LPD*%
G01*
G04 APERTURE LIST*
%ADD10C,0.254000*%
%ADD11C,0.300000*%
%ADD12C,0.250000*%
%ADD13C,0.100000*%
%ADD14C,0.152000*%
%ADD15C,0.150000*%
G04 APERTURE END LIST*
D10*
%TO.C,U4*%
X95000000Y-73738000D02*
G75*
G03*
X95000000Y-73738000I-1500000J0D01*
G01*
X95600000Y-77100000D02*
X91400000Y-77100000D01*
X95600000Y-71900000D02*
X95600000Y-77100000D01*
X91400000Y-71900000D02*
X95600000Y-71900000D01*
X91400000Y-77100000D02*
X91400000Y-71900000D01*
D11*
X89643951Y-72200000D02*
G75*
G03*
X89643951Y-72200000I-143951J0D01*
G01*
D10*
%TO.C,U14*%
X60450000Y-161611846D02*
X58626372Y-163435475D01*
X61637232Y-162799079D02*
X60450000Y-161611846D01*
X65838154Y-167000000D02*
X64650921Y-165812768D01*
X64014525Y-168823628D02*
X65838154Y-167000000D01*
X60450000Y-172388154D02*
X62273628Y-170564525D01*
X59269839Y-171193850D02*
X60457071Y-172381083D01*
X55061846Y-167000000D02*
X56249079Y-168187232D01*
X56885475Y-165176372D02*
X55061846Y-167000000D01*
D12*
X55600253Y-168767767D02*
G75*
G03*
X55600253Y-168767767I-100000J0D01*
G01*
D13*
%TO.C,J5*%
X89730000Y-61810000D02*
X89730000Y-57730000D01*
X89730000Y-57730000D02*
X90730000Y-56730000D01*
X90730000Y-56730000D02*
X97350000Y-56730000D01*
X97350000Y-56730000D02*
X97350000Y-61810000D01*
X97350000Y-61810000D02*
X89730000Y-61810000D01*
D10*
%TO.C,SW8*%
X94025000Y-160000000D02*
G75*
G03*
X94025000Y-160000000I-1275000J0D01*
G01*
X91475000Y-157450000D02*
X94025000Y-157450000D01*
X91475000Y-162550000D02*
X94025000Y-162550000D01*
X91475000Y-157450000D02*
X90580000Y-158345000D01*
X90580000Y-161655000D02*
X91475000Y-162550000D01*
X90200000Y-158832000D02*
X90200000Y-161168000D01*
X94920000Y-161655000D02*
X94025000Y-162550000D01*
X95300000Y-158832000D02*
X95300000Y-161168000D01*
X94025000Y-157450000D02*
X94920000Y-158345000D01*
X90949000Y-158999000D02*
X91749000Y-158199000D01*
X90949000Y-160998000D02*
X90949000Y-158999000D01*
X91851000Y-161900000D02*
X90949000Y-160998000D01*
X93550000Y-161900000D02*
X91851000Y-161900000D01*
X94551000Y-160899000D02*
X93550000Y-161900000D01*
X94551000Y-159101000D02*
X94551000Y-160899000D01*
X93649000Y-158199000D02*
X94551000Y-159101000D01*
X91749000Y-158199000D02*
X93649000Y-158199000D01*
%TO.C,SW7*%
X111525000Y-160000000D02*
G75*
G03*
X111525000Y-160000000I-1275000J0D01*
G01*
X108975000Y-157450000D02*
X111525000Y-157450000D01*
X108975000Y-162550000D02*
X111525000Y-162550000D01*
X108975000Y-157450000D02*
X108080000Y-158345000D01*
X108080000Y-161655000D02*
X108975000Y-162550000D01*
X107700000Y-158832000D02*
X107700000Y-161168000D01*
X112420000Y-161655000D02*
X111525000Y-162550000D01*
X112800000Y-158832000D02*
X112800000Y-161168000D01*
X111525000Y-157450000D02*
X112420000Y-158345000D01*
X108449000Y-158999000D02*
X109249000Y-158199000D01*
X108449000Y-160998000D02*
X108449000Y-158999000D01*
X109351000Y-161900000D02*
X108449000Y-160998000D01*
X111050000Y-161900000D02*
X109351000Y-161900000D01*
X112051000Y-160899000D02*
X111050000Y-161900000D01*
X112051000Y-159101000D02*
X112051000Y-160899000D01*
X111149000Y-158199000D02*
X112051000Y-159101000D01*
X109249000Y-158199000D02*
X111149000Y-158199000D01*
%TO.C,SW6*%
X76525000Y-160000000D02*
G75*
G03*
X76525000Y-160000000I-1275000J0D01*
G01*
X73975000Y-157450000D02*
X76525000Y-157450000D01*
X73975000Y-162550000D02*
X76525000Y-162550000D01*
X73975000Y-157450000D02*
X73080000Y-158345000D01*
X73080000Y-161655000D02*
X73975000Y-162550000D01*
X72700000Y-158832000D02*
X72700000Y-161168000D01*
X77420000Y-161655000D02*
X76525000Y-162550000D01*
X77800000Y-158832000D02*
X77800000Y-161168000D01*
X76525000Y-157450000D02*
X77420000Y-158345000D01*
X73449000Y-158999000D02*
X74249000Y-158199000D01*
X73449000Y-160998000D02*
X73449000Y-158999000D01*
X74351000Y-161900000D02*
X73449000Y-160998000D01*
X76050000Y-161900000D02*
X74351000Y-161900000D01*
X77051000Y-160899000D02*
X76050000Y-161900000D01*
X77051000Y-159101000D02*
X77051000Y-160899000D01*
X76149000Y-158199000D02*
X77051000Y-159101000D01*
X74249000Y-158199000D02*
X76149000Y-158199000D01*
%TO.C,SW5*%
X128275000Y-176000000D02*
G75*
G03*
X128275000Y-176000000I-1275000J0D01*
G01*
X125725000Y-173450000D02*
X128275000Y-173450000D01*
X125725000Y-178550000D02*
X128275000Y-178550000D01*
X125725000Y-173450000D02*
X124830000Y-174345000D01*
X124830000Y-177655000D02*
X125725000Y-178550000D01*
X124450000Y-174832000D02*
X124450000Y-177168000D01*
X129170000Y-177655000D02*
X128275000Y-178550000D01*
X129550000Y-174832000D02*
X129550000Y-177168000D01*
X128275000Y-173450000D02*
X129170000Y-174345000D01*
X125199000Y-174999000D02*
X125999000Y-174199000D01*
X125199000Y-176998000D02*
X125199000Y-174999000D01*
X126101000Y-177900000D02*
X125199000Y-176998000D01*
X127800000Y-177900000D02*
X126101000Y-177900000D01*
X128801000Y-176899000D02*
X127800000Y-177900000D01*
X128801000Y-175101000D02*
X128801000Y-176899000D01*
X127899000Y-174199000D02*
X128801000Y-175101000D01*
X125999000Y-174199000D02*
X127899000Y-174199000D01*
%TO.C,SW4*%
X133775000Y-160350000D02*
G75*
G03*
X133775000Y-160350000I-1275000J0D01*
G01*
X131225000Y-157800000D02*
X133775000Y-157800000D01*
X131225000Y-162900000D02*
X133775000Y-162900000D01*
X131225000Y-157800000D02*
X130330000Y-158695000D01*
X130330000Y-162005000D02*
X131225000Y-162900000D01*
X129950000Y-159182000D02*
X129950000Y-161518000D01*
X134670000Y-162005000D02*
X133775000Y-162900000D01*
X135050000Y-159182000D02*
X135050000Y-161518000D01*
X133775000Y-157800000D02*
X134670000Y-158695000D01*
X130699000Y-159349000D02*
X131499000Y-158549000D01*
X130699000Y-161348000D02*
X130699000Y-159349000D01*
X131601000Y-162250000D02*
X130699000Y-161348000D01*
X133300000Y-162250000D02*
X131601000Y-162250000D01*
X134301000Y-161249000D02*
X133300000Y-162250000D01*
X134301000Y-159451000D02*
X134301000Y-161249000D01*
X133399000Y-158549000D02*
X134301000Y-159451000D01*
X131499000Y-158549000D02*
X133399000Y-158549000D01*
%TD*%
%TO.C,U4*%
D14*
X92874071Y-74670857D02*
X93799357Y-74670857D01*
X93908214Y-74616428D01*
X93962642Y-74562000D01*
X94017071Y-74453142D01*
X94017071Y-74235428D01*
X93962642Y-74126571D01*
X93908214Y-74072142D01*
X93799357Y-74017714D01*
X92874071Y-74017714D01*
X93255071Y-72983571D02*
X94017071Y-72983571D01*
X92819642Y-73255714D02*
X93636071Y-73527857D01*
X93636071Y-72820285D01*
%TO.C,U14*%
X59187309Y-167488240D02*
X59759729Y-168060660D01*
X59860744Y-168094331D01*
X59928087Y-168094331D01*
X60029103Y-168060660D01*
X60163790Y-167925973D01*
X60197461Y-167824957D01*
X60197461Y-167757614D01*
X60163790Y-167656599D01*
X59591370Y-167084179D01*
X61005583Y-167084179D02*
X60601522Y-167488240D01*
X60803553Y-167286209D02*
X60096446Y-166579103D01*
X60130118Y-166747461D01*
X60130118Y-166882148D01*
X60096446Y-166983164D01*
X61140270Y-166006683D02*
X61611675Y-166478087D01*
X60702538Y-165905668D02*
X61039255Y-166579103D01*
X61476988Y-166141370D01*
%TO.C,J5*%
D15*
X93206666Y-58722380D02*
X93206666Y-59436666D01*
X93159047Y-59579523D01*
X93063809Y-59674761D01*
X92920952Y-59722380D01*
X92825714Y-59722380D01*
X94159047Y-58722380D02*
X93682857Y-58722380D01*
X93635238Y-59198571D01*
X93682857Y-59150952D01*
X93778095Y-59103333D01*
X94016190Y-59103333D01*
X94111428Y-59150952D01*
X94159047Y-59198571D01*
X94206666Y-59293809D01*
X94206666Y-59531904D01*
X94159047Y-59627142D01*
X94111428Y-59674761D01*
X94016190Y-59722380D01*
X93778095Y-59722380D01*
X93682857Y-59674761D01*
X93635238Y-59627142D01*
%TO.C,H1*%
X92738095Y-49952380D02*
X92738095Y-48952380D01*
X92738095Y-49428571D02*
X93309523Y-49428571D01*
X93309523Y-49952380D02*
X93309523Y-48952380D01*
X94309523Y-49952380D02*
X93738095Y-49952380D01*
X94023809Y-49952380D02*
X94023809Y-48952380D01*
X93928571Y-49095238D01*
X93833333Y-49190476D01*
X93738095Y-49238095D01*
%TO.C,SW8*%
D14*
X91750000Y-160303571D02*
X91857142Y-160339285D01*
X92035714Y-160339285D01*
X92107142Y-160303571D01*
X92142857Y-160267857D01*
X92178571Y-160196428D01*
X92178571Y-160125000D01*
X92142857Y-160053571D01*
X92107142Y-160017857D01*
X92035714Y-159982142D01*
X91892857Y-159946428D01*
X91821428Y-159910714D01*
X91785714Y-159875000D01*
X91750000Y-159803571D01*
X91750000Y-159732142D01*
X91785714Y-159660714D01*
X91821428Y-159625000D01*
X91892857Y-159589285D01*
X92071428Y-159589285D01*
X92178571Y-159625000D01*
X92428571Y-159589285D02*
X92607142Y-160339285D01*
X92750000Y-159803571D01*
X92892857Y-160339285D01*
X93071428Y-159589285D01*
X93464285Y-159910714D02*
X93392857Y-159875000D01*
X93357142Y-159839285D01*
X93321428Y-159767857D01*
X93321428Y-159732142D01*
X93357142Y-159660714D01*
X93392857Y-159625000D01*
X93464285Y-159589285D01*
X93607142Y-159589285D01*
X93678571Y-159625000D01*
X93714285Y-159660714D01*
X93750000Y-159732142D01*
X93750000Y-159767857D01*
X93714285Y-159839285D01*
X93678571Y-159875000D01*
X93607142Y-159910714D01*
X93464285Y-159910714D01*
X93392857Y-159946428D01*
X93357142Y-159982142D01*
X93321428Y-160053571D01*
X93321428Y-160196428D01*
X93357142Y-160267857D01*
X93392857Y-160303571D01*
X93464285Y-160339285D01*
X93607142Y-160339285D01*
X93678571Y-160303571D01*
X93714285Y-160267857D01*
X93750000Y-160196428D01*
X93750000Y-160053571D01*
X93714285Y-159982142D01*
X93678571Y-159946428D01*
X93607142Y-159910714D01*
%TO.C,SW7*%
X109250000Y-160303571D02*
X109357142Y-160339285D01*
X109535714Y-160339285D01*
X109607142Y-160303571D01*
X109642857Y-160267857D01*
X109678571Y-160196428D01*
X109678571Y-160125000D01*
X109642857Y-160053571D01*
X109607142Y-160017857D01*
X109535714Y-159982142D01*
X109392857Y-159946428D01*
X109321428Y-159910714D01*
X109285714Y-159875000D01*
X109250000Y-159803571D01*
X109250000Y-159732142D01*
X109285714Y-159660714D01*
X109321428Y-159625000D01*
X109392857Y-159589285D01*
X109571428Y-159589285D01*
X109678571Y-159625000D01*
X109928571Y-159589285D02*
X110107142Y-160339285D01*
X110250000Y-159803571D01*
X110392857Y-160339285D01*
X110571428Y-159589285D01*
X110785714Y-159589285D02*
X111285714Y-159589285D01*
X110964285Y-160339285D01*
%TO.C,SW6*%
X74250000Y-160303571D02*
X74357142Y-160339285D01*
X74535714Y-160339285D01*
X74607142Y-160303571D01*
X74642857Y-160267857D01*
X74678571Y-160196428D01*
X74678571Y-160125000D01*
X74642857Y-160053571D01*
X74607142Y-160017857D01*
X74535714Y-159982142D01*
X74392857Y-159946428D01*
X74321428Y-159910714D01*
X74285714Y-159875000D01*
X74250000Y-159803571D01*
X74250000Y-159732142D01*
X74285714Y-159660714D01*
X74321428Y-159625000D01*
X74392857Y-159589285D01*
X74571428Y-159589285D01*
X74678571Y-159625000D01*
X74928571Y-159589285D02*
X75107142Y-160339285D01*
X75250000Y-159803571D01*
X75392857Y-160339285D01*
X75571428Y-159589285D01*
X76178571Y-159589285D02*
X76035714Y-159589285D01*
X75964285Y-159625000D01*
X75928571Y-159660714D01*
X75857142Y-159767857D01*
X75821428Y-159910714D01*
X75821428Y-160196428D01*
X75857142Y-160267857D01*
X75892857Y-160303571D01*
X75964285Y-160339285D01*
X76107142Y-160339285D01*
X76178571Y-160303571D01*
X76214285Y-160267857D01*
X76250000Y-160196428D01*
X76250000Y-160017857D01*
X76214285Y-159946428D01*
X76178571Y-159910714D01*
X76107142Y-159875000D01*
X75964285Y-159875000D01*
X75892857Y-159910714D01*
X75857142Y-159946428D01*
X75821428Y-160017857D01*
%TO.C,SW5*%
X126000000Y-176303571D02*
X126107142Y-176339285D01*
X126285714Y-176339285D01*
X126357142Y-176303571D01*
X126392857Y-176267857D01*
X126428571Y-176196428D01*
X126428571Y-176125000D01*
X126392857Y-176053571D01*
X126357142Y-176017857D01*
X126285714Y-175982142D01*
X126142857Y-175946428D01*
X126071428Y-175910714D01*
X126035714Y-175875000D01*
X126000000Y-175803571D01*
X126000000Y-175732142D01*
X126035714Y-175660714D01*
X126071428Y-175625000D01*
X126142857Y-175589285D01*
X126321428Y-175589285D01*
X126428571Y-175625000D01*
X126678571Y-175589285D02*
X126857142Y-176339285D01*
X127000000Y-175803571D01*
X127142857Y-176339285D01*
X127321428Y-175589285D01*
X127964285Y-175589285D02*
X127607142Y-175589285D01*
X127571428Y-175946428D01*
X127607142Y-175910714D01*
X127678571Y-175875000D01*
X127857142Y-175875000D01*
X127928571Y-175910714D01*
X127964285Y-175946428D01*
X128000000Y-176017857D01*
X128000000Y-176196428D01*
X127964285Y-176267857D01*
X127928571Y-176303571D01*
X127857142Y-176339285D01*
X127678571Y-176339285D01*
X127607142Y-176303571D01*
X127571428Y-176267857D01*
%TO.C,SW4*%
X131500000Y-160653571D02*
X131607142Y-160689285D01*
X131785714Y-160689285D01*
X131857142Y-160653571D01*
X131892857Y-160617857D01*
X131928571Y-160546428D01*
X131928571Y-160475000D01*
X131892857Y-160403571D01*
X131857142Y-160367857D01*
X131785714Y-160332142D01*
X131642857Y-160296428D01*
X131571428Y-160260714D01*
X131535714Y-160225000D01*
X131500000Y-160153571D01*
X131500000Y-160082142D01*
X131535714Y-160010714D01*
X131571428Y-159975000D01*
X131642857Y-159939285D01*
X131821428Y-159939285D01*
X131928571Y-159975000D01*
X132178571Y-159939285D02*
X132357142Y-160689285D01*
X132500000Y-160153571D01*
X132642857Y-160689285D01*
X132821428Y-159939285D01*
X133428571Y-160189285D02*
X133428571Y-160689285D01*
X133250000Y-159903571D02*
X133071428Y-160439285D01*
X133535714Y-160439285D01*
%TD*%
M02*
