%TF.GenerationSoftware,KiCad,Pcbnew,(5.1.10-1-10_14)*%
%TF.CreationDate,2021-08-27T15:48:04+02:00*%
%TF.ProjectId,OOO2021_Badge,4f4f4f32-3032-4315-9f42-616467652e6b,rev?*%
%TF.SameCoordinates,Original*%
%TF.FileFunction,Soldermask,Top*%
%TF.FilePolarity,Negative*%
%FSLAX46Y46*%
G04 Gerber Fmt 4.6, Leading zero omitted, Abs format (unit mm)*
G04 Created by KiCad (PCBNEW (5.1.10-1-10_14)) date 2021-08-27 15:48:04*
%MOMM*%
%LPD*%
G01*
G04 APERTURE LIST*
%ADD10C,0.010000*%
%ADD11R,2.000000X0.800000*%
%ADD12C,0.100000*%
%ADD13C,1.100000*%
%ADD14C,0.800000*%
%ADD15O,1.700000X1.700000*%
%ADD16R,1.700000X1.700000*%
%ADD17C,1.800000*%
%ADD18R,1.800000X1.800000*%
%ADD19C,3.000000*%
%ADD20R,4.000000X0.400000*%
%ADD21C,0.650000*%
%ADD22C,0.900000*%
%ADD23R,1.700000X1.000000*%
%ADD24C,2.000000*%
%ADD25C,1.700000*%
G04 APERTURE END LIST*
D10*
%TO.C,W1*%
G36*
X106285206Y-202849042D02*
G01*
X106583188Y-203627556D01*
X106839432Y-204412580D01*
X107054131Y-205204779D01*
X107227474Y-206004821D01*
X107289978Y-206355210D01*
X107398742Y-207095214D01*
X107474263Y-207812454D01*
X107516515Y-208506264D01*
X107525473Y-209175978D01*
X107501110Y-209820930D01*
X107448542Y-210397787D01*
X107375560Y-210935334D01*
X107279723Y-211508434D01*
X107161053Y-212117022D01*
X107019574Y-212761029D01*
X106855306Y-213440391D01*
X106668273Y-214155040D01*
X106458496Y-214904910D01*
X106225997Y-215689934D01*
X105970799Y-216510046D01*
X105692924Y-217365179D01*
X105392393Y-218255267D01*
X105069229Y-219180244D01*
X104723455Y-220140042D01*
X104355091Y-221134596D01*
X103964161Y-222163839D01*
X103550687Y-223227704D01*
X103114690Y-224326124D01*
X102656193Y-225459035D01*
X102175218Y-226626368D01*
X101671787Y-227828057D01*
X101549666Y-228116750D01*
X101206835Y-228920722D01*
X100845974Y-229757407D01*
X100469140Y-230622253D01*
X100078391Y-231510710D01*
X99675785Y-232418225D01*
X99263381Y-233340249D01*
X98843236Y-234272230D01*
X98417407Y-235209616D01*
X97987954Y-236147858D01*
X97556933Y-237082404D01*
X97126403Y-238008702D01*
X96698422Y-238922202D01*
X96275047Y-239818352D01*
X95945773Y-240509833D01*
X95872645Y-240664387D01*
X95801615Y-240817355D01*
X95735938Y-240961518D01*
X95678866Y-241089653D01*
X95633653Y-241194541D01*
X95603552Y-241268960D01*
X95602471Y-241271833D01*
X95560140Y-241377258D01*
X95505734Y-241501834D01*
X95447327Y-241627482D01*
X95408711Y-241705750D01*
X95225355Y-242029044D01*
X95022689Y-242317388D01*
X94801757Y-242570028D01*
X94563602Y-242786209D01*
X94309266Y-242965177D01*
X94039793Y-243106178D01*
X93756225Y-243208458D01*
X93459606Y-243271262D01*
X93214250Y-243292555D01*
X93109751Y-243295177D01*
X93016467Y-243295902D01*
X92944994Y-243294748D01*
X92907334Y-243291996D01*
X92859711Y-243284034D01*
X92786435Y-243272014D01*
X92706250Y-243259003D01*
X92425055Y-243193095D01*
X92144944Y-243087871D01*
X91869518Y-242946272D01*
X91602379Y-242771241D01*
X91347127Y-242565718D01*
X91107365Y-242332647D01*
X90886693Y-242074969D01*
X90688713Y-241795625D01*
X90517025Y-241497558D01*
X90493929Y-241451750D01*
X90466906Y-241396170D01*
X90423039Y-241304647D01*
X90363455Y-241179568D01*
X90289280Y-241023319D01*
X90201641Y-240838287D01*
X90101667Y-240626858D01*
X89990484Y-240391418D01*
X89869219Y-240134354D01*
X89739000Y-239858053D01*
X89600955Y-239564900D01*
X89456209Y-239257282D01*
X89305891Y-238937586D01*
X89219149Y-238753000D01*
X88587364Y-237401450D01*
X87972919Y-236073186D01*
X87375990Y-234768672D01*
X86796757Y-233488374D01*
X86235397Y-232232757D01*
X85692087Y-231002287D01*
X85167006Y-229797430D01*
X84660330Y-228618651D01*
X84172239Y-227466416D01*
X83702909Y-226341190D01*
X83252518Y-225243439D01*
X82821245Y-224173628D01*
X82409267Y-223132224D01*
X82016761Y-222119690D01*
X81643905Y-221136494D01*
X81290878Y-220183100D01*
X80957857Y-219259975D01*
X80645019Y-218367583D01*
X80352543Y-217506391D01*
X80080606Y-216676863D01*
X79829385Y-215879465D01*
X79599060Y-215114664D01*
X79389807Y-214382924D01*
X79201804Y-213684711D01*
X79035229Y-213020490D01*
X78890260Y-212390728D01*
X78767075Y-211795890D01*
X78665851Y-211236440D01*
X78631810Y-211024361D01*
X78589588Y-210740471D01*
X78555717Y-210486935D01*
X78529235Y-210252810D01*
X78509177Y-210027154D01*
X78494581Y-209799025D01*
X78484484Y-209557481D01*
X78477921Y-209291579D01*
X78477580Y-209272421D01*
X78484556Y-208461933D01*
X78533389Y-207651053D01*
X78623676Y-206841880D01*
X78755015Y-206036516D01*
X78927003Y-205237062D01*
X79139238Y-204445619D01*
X79391317Y-203664286D01*
X79682836Y-202895165D01*
X79714852Y-202817292D01*
X79813470Y-202579167D01*
X106174221Y-202579167D01*
X106285206Y-202849042D01*
G37*
X106285206Y-202849042D02*
X106583188Y-203627556D01*
X106839432Y-204412580D01*
X107054131Y-205204779D01*
X107227474Y-206004821D01*
X107289978Y-206355210D01*
X107398742Y-207095214D01*
X107474263Y-207812454D01*
X107516515Y-208506264D01*
X107525473Y-209175978D01*
X107501110Y-209820930D01*
X107448542Y-210397787D01*
X107375560Y-210935334D01*
X107279723Y-211508434D01*
X107161053Y-212117022D01*
X107019574Y-212761029D01*
X106855306Y-213440391D01*
X106668273Y-214155040D01*
X106458496Y-214904910D01*
X106225997Y-215689934D01*
X105970799Y-216510046D01*
X105692924Y-217365179D01*
X105392393Y-218255267D01*
X105069229Y-219180244D01*
X104723455Y-220140042D01*
X104355091Y-221134596D01*
X103964161Y-222163839D01*
X103550687Y-223227704D01*
X103114690Y-224326124D01*
X102656193Y-225459035D01*
X102175218Y-226626368D01*
X101671787Y-227828057D01*
X101549666Y-228116750D01*
X101206835Y-228920722D01*
X100845974Y-229757407D01*
X100469140Y-230622253D01*
X100078391Y-231510710D01*
X99675785Y-232418225D01*
X99263381Y-233340249D01*
X98843236Y-234272230D01*
X98417407Y-235209616D01*
X97987954Y-236147858D01*
X97556933Y-237082404D01*
X97126403Y-238008702D01*
X96698422Y-238922202D01*
X96275047Y-239818352D01*
X95945773Y-240509833D01*
X95872645Y-240664387D01*
X95801615Y-240817355D01*
X95735938Y-240961518D01*
X95678866Y-241089653D01*
X95633653Y-241194541D01*
X95603552Y-241268960D01*
X95602471Y-241271833D01*
X95560140Y-241377258D01*
X95505734Y-241501834D01*
X95447327Y-241627482D01*
X95408711Y-241705750D01*
X95225355Y-242029044D01*
X95022689Y-242317388D01*
X94801757Y-242570028D01*
X94563602Y-242786209D01*
X94309266Y-242965177D01*
X94039793Y-243106178D01*
X93756225Y-243208458D01*
X93459606Y-243271262D01*
X93214250Y-243292555D01*
X93109751Y-243295177D01*
X93016467Y-243295902D01*
X92944994Y-243294748D01*
X92907334Y-243291996D01*
X92859711Y-243284034D01*
X92786435Y-243272014D01*
X92706250Y-243259003D01*
X92425055Y-243193095D01*
X92144944Y-243087871D01*
X91869518Y-242946272D01*
X91602379Y-242771241D01*
X91347127Y-242565718D01*
X91107365Y-242332647D01*
X90886693Y-242074969D01*
X90688713Y-241795625D01*
X90517025Y-241497558D01*
X90493929Y-241451750D01*
X90466906Y-241396170D01*
X90423039Y-241304647D01*
X90363455Y-241179568D01*
X90289280Y-241023319D01*
X90201641Y-240838287D01*
X90101667Y-240626858D01*
X89990484Y-240391418D01*
X89869219Y-240134354D01*
X89739000Y-239858053D01*
X89600955Y-239564900D01*
X89456209Y-239257282D01*
X89305891Y-238937586D01*
X89219149Y-238753000D01*
X88587364Y-237401450D01*
X87972919Y-236073186D01*
X87375990Y-234768672D01*
X86796757Y-233488374D01*
X86235397Y-232232757D01*
X85692087Y-231002287D01*
X85167006Y-229797430D01*
X84660330Y-228618651D01*
X84172239Y-227466416D01*
X83702909Y-226341190D01*
X83252518Y-225243439D01*
X82821245Y-224173628D01*
X82409267Y-223132224D01*
X82016761Y-222119690D01*
X81643905Y-221136494D01*
X81290878Y-220183100D01*
X80957857Y-219259975D01*
X80645019Y-218367583D01*
X80352543Y-217506391D01*
X80080606Y-216676863D01*
X79829385Y-215879465D01*
X79599060Y-215114664D01*
X79389807Y-214382924D01*
X79201804Y-213684711D01*
X79035229Y-213020490D01*
X78890260Y-212390728D01*
X78767075Y-211795890D01*
X78665851Y-211236440D01*
X78631810Y-211024361D01*
X78589588Y-210740471D01*
X78555717Y-210486935D01*
X78529235Y-210252810D01*
X78509177Y-210027154D01*
X78494581Y-209799025D01*
X78484484Y-209557481D01*
X78477921Y-209291579D01*
X78477580Y-209272421D01*
X78484556Y-208461933D01*
X78533389Y-207651053D01*
X78623676Y-206841880D01*
X78755015Y-206036516D01*
X78927003Y-205237062D01*
X79139238Y-204445619D01*
X79391317Y-203664286D01*
X79682836Y-202895165D01*
X79714852Y-202817292D01*
X79813470Y-202579167D01*
X106174221Y-202579167D01*
X106285206Y-202849042D01*
%TD*%
D11*
%TO.C,U4*%
X97000000Y-73230000D03*
X97000000Y-75770000D03*
X90000000Y-75770000D03*
X90000000Y-73230000D03*
%TD*%
D12*
%TO.C,U14*%
G36*
X63137005Y-171101219D02*
G01*
X61864213Y-169828427D01*
X63278427Y-168414213D01*
X64551219Y-169687005D01*
X63137005Y-171101219D01*
G37*
G36*
X57621573Y-165585787D02*
G01*
X56348781Y-164312995D01*
X57762995Y-162898781D01*
X59035787Y-164171573D01*
X57621573Y-165585787D01*
G37*
G36*
X61881891Y-164295316D02*
G01*
X61174785Y-163588210D01*
X62129379Y-162633616D01*
X62836485Y-163340722D01*
X61881891Y-164295316D01*
G37*
G36*
X62871840Y-165285266D02*
G01*
X62164734Y-164578160D01*
X63119328Y-163623566D01*
X63826434Y-164330672D01*
X62871840Y-165285266D01*
G37*
G36*
X63861790Y-166275215D02*
G01*
X63154684Y-165568109D01*
X64109278Y-164613515D01*
X64816384Y-165320621D01*
X63861790Y-166275215D01*
G37*
G36*
X58770621Y-171366384D02*
G01*
X58063515Y-170659278D01*
X59018109Y-169704684D01*
X59725215Y-170411790D01*
X58770621Y-171366384D01*
G37*
G36*
X57780672Y-170376434D02*
G01*
X57073566Y-169669328D01*
X58028160Y-168714734D01*
X58735266Y-169421840D01*
X57780672Y-170376434D01*
G37*
G36*
X56790722Y-169386485D02*
G01*
X56083616Y-168679379D01*
X57038210Y-167724785D01*
X57745316Y-168431891D01*
X56790722Y-169386485D01*
G37*
D13*
X61793503Y-168343503D03*
D14*
X59106497Y-165656497D03*
%TD*%
D15*
%TO.C,J5*%
X96080000Y-60540000D03*
X96080000Y-58000000D03*
X93540000Y-60540000D03*
X93540000Y-58000000D03*
X91000000Y-60540000D03*
D16*
X91000000Y-58000000D03*
%TD*%
D17*
%TO.C,D10*%
X94790000Y-67000000D03*
D18*
X92250000Y-67000000D03*
%TD*%
D19*
%TO.C,H1*%
X93500000Y-52000000D03*
%TD*%
D20*
%TO.C,LCD1*%
X82500000Y-141100000D03*
X82500000Y-140300000D03*
X82500000Y-127500000D03*
X82500000Y-128300000D03*
X82500000Y-139500000D03*
X82500000Y-138700000D03*
X82500000Y-137900000D03*
X82500000Y-137100000D03*
X82500000Y-136300000D03*
X82500000Y-135500000D03*
X82500000Y-129100000D03*
X82500000Y-129900000D03*
X82500000Y-130700000D03*
X82500000Y-131500000D03*
X82500000Y-132300000D03*
X82500000Y-133100000D03*
X82500000Y-134700000D03*
X82500000Y-133900000D03*
%TD*%
%TO.C,J1*%
G36*
G01*
X66555026Y-110114786D02*
X65960160Y-110036470D01*
G75*
G02*
X65529701Y-109475485I65263J495722D01*
G01*
X65529701Y-109475485D01*
G75*
G02*
X66090686Y-109045026I495722J-65263D01*
G01*
X66685552Y-109123342D01*
G75*
G02*
X67116011Y-109684327I-65263J-495722D01*
G01*
X67116011Y-109684327D01*
G75*
G02*
X66555026Y-110114786I-495722J65263D01*
G01*
G37*
D21*
X69754977Y-111474092D03*
G36*
G01*
X65427280Y-118680869D02*
X64832414Y-118602553D01*
G75*
G02*
X64401955Y-118041568I65263J495722D01*
G01*
X64401955Y-118041568D01*
G75*
G02*
X64962940Y-117611109I495722J-65263D01*
G01*
X65557806Y-117689425D01*
G75*
G02*
X65988265Y-118250410I-65263J-495722D01*
G01*
X65988265Y-118250410D01*
G75*
G02*
X65427280Y-118680869I-495722J65263D01*
G01*
G37*
X69000536Y-117204644D03*
G36*
G01*
X69819381Y-119259100D02*
X68728791Y-119115522D01*
G75*
G02*
X68298332Y-118554537I65263J495722D01*
G01*
X68298332Y-118554537D01*
G75*
G02*
X68859317Y-118124078I495722J-65263D01*
G01*
X69949907Y-118267656D01*
G75*
G02*
X70380366Y-118828641I-65263J-495722D01*
G01*
X70380366Y-118828641D01*
G75*
G02*
X69819381Y-119259100I-495722J65263D01*
G01*
G37*
G36*
G01*
X70947128Y-110693016D02*
X69856538Y-110549438D01*
G75*
G02*
X69426079Y-109988453I65263J495722D01*
G01*
X69426079Y-109988453D01*
G75*
G02*
X69987064Y-109557994I495722J-65263D01*
G01*
X71077654Y-109701572D01*
G75*
G02*
X71508113Y-110262557I-65263J-495722D01*
G01*
X71508113Y-110262557D01*
G75*
G02*
X70947128Y-110693016I-495722J65263D01*
G01*
G37*
%TD*%
D22*
%TO.C,SW3*%
X62929258Y-127873271D03*
X62772250Y-130869160D03*
%TD*%
D15*
%TO.C,J8*%
X101780000Y-198460000D03*
X101780000Y-201000000D03*
X99240000Y-198460000D03*
X99240000Y-201000000D03*
X96700000Y-198460000D03*
X96700000Y-201000000D03*
X94160000Y-198460000D03*
X94160000Y-201000000D03*
X91620000Y-198460000D03*
X91620000Y-201000000D03*
X89080000Y-198460000D03*
X89080000Y-201000000D03*
X86540000Y-198460000D03*
X86540000Y-201000000D03*
X84000000Y-198460000D03*
D16*
X84000000Y-201000000D03*
%TD*%
D23*
%TO.C,SW8*%
X96050000Y-161850000D03*
X89450000Y-161850000D03*
X96050000Y-158150000D03*
X89450000Y-158151000D03*
%TD*%
%TO.C,SW7*%
X113550000Y-161850000D03*
X106950000Y-161850000D03*
X113550000Y-158150000D03*
X106950000Y-158151000D03*
%TD*%
%TO.C,SW6*%
X78550000Y-161850000D03*
X71950000Y-161850000D03*
X78550000Y-158150000D03*
X71950000Y-158151000D03*
%TD*%
%TO.C,SW5*%
X130300000Y-177850000D03*
X123700000Y-177850000D03*
X130300000Y-174150000D03*
X123700000Y-174151000D03*
%TD*%
%TO.C,SW4*%
X135800000Y-162200000D03*
X129200000Y-162200000D03*
X135800000Y-158500000D03*
X129200000Y-158501000D03*
%TD*%
D24*
%TO.C,SW10*%
X127143918Y-146217077D03*
X130634548Y-152514339D03*
D25*
X132201589Y-150102186D03*
X130019945Y-146166397D03*
%TD*%
D24*
%TO.C,SW9*%
X56265452Y-152464339D03*
X59756082Y-146167077D03*
D25*
X56880055Y-146116397D03*
X54698411Y-150052186D03*
%TD*%
M02*
