%TF.GenerationSoftware,KiCad,Pcbnew,(5.1.10-1-10_14)*%
%TF.CreationDate,2021-08-27T15:48:04+02:00*%
%TF.ProjectId,OOO2021_Badge,4f4f4f32-3032-4315-9f42-616467652e6b,rev?*%
%TF.SameCoordinates,Original*%
%TF.FileFunction,Paste,Top*%
%TF.FilePolarity,Positive*%
%FSLAX46Y46*%
G04 Gerber Fmt 4.6, Leading zero omitted, Abs format (unit mm)*
G04 Created by KiCad (PCBNEW (5.1.10-1-10_14)) date 2021-08-27 15:48:04*
%MOMM*%
%LPD*%
G01*
G04 APERTURE LIST*
%ADD10R,2.000000X0.800000*%
%ADD11C,0.100000*%
%ADD12R,4.000000X0.400000*%
%ADD13R,1.700000X1.000000*%
%ADD14C,2.000000*%
%ADD15C,1.700000*%
G04 APERTURE END LIST*
D10*
%TO.C,U4*%
X97000000Y-73230000D03*
X97000000Y-75770000D03*
X90000000Y-75770000D03*
X90000000Y-73230000D03*
%TD*%
D11*
%TO.C,U14*%
G36*
X63137005Y-171101219D02*
G01*
X61864213Y-169828427D01*
X63278427Y-168414213D01*
X64551219Y-169687005D01*
X63137005Y-171101219D01*
G37*
G36*
X57621573Y-165585787D02*
G01*
X56348781Y-164312995D01*
X57762995Y-162898781D01*
X59035787Y-164171573D01*
X57621573Y-165585787D01*
G37*
G36*
X61881891Y-164295316D02*
G01*
X61174785Y-163588210D01*
X62129379Y-162633616D01*
X62836485Y-163340722D01*
X61881891Y-164295316D01*
G37*
G36*
X62871840Y-165285266D02*
G01*
X62164734Y-164578160D01*
X63119328Y-163623566D01*
X63826434Y-164330672D01*
X62871840Y-165285266D01*
G37*
G36*
X63861790Y-166275215D02*
G01*
X63154684Y-165568109D01*
X64109278Y-164613515D01*
X64816384Y-165320621D01*
X63861790Y-166275215D01*
G37*
G36*
X58770621Y-171366384D02*
G01*
X58063515Y-170659278D01*
X59018109Y-169704684D01*
X59725215Y-170411790D01*
X58770621Y-171366384D01*
G37*
G36*
X57780672Y-170376434D02*
G01*
X57073566Y-169669328D01*
X58028160Y-168714734D01*
X58735266Y-169421840D01*
X57780672Y-170376434D01*
G37*
G36*
X56790722Y-169386485D02*
G01*
X56083616Y-168679379D01*
X57038210Y-167724785D01*
X57745316Y-168431891D01*
X56790722Y-169386485D01*
G37*
%TD*%
D12*
%TO.C,LCD1*%
X82500000Y-141100000D03*
X82500000Y-140300000D03*
X82500000Y-127500000D03*
X82500000Y-128300000D03*
X82500000Y-139500000D03*
X82500000Y-138700000D03*
X82500000Y-137900000D03*
X82500000Y-137100000D03*
X82500000Y-136300000D03*
X82500000Y-135500000D03*
X82500000Y-129100000D03*
X82500000Y-129900000D03*
X82500000Y-130700000D03*
X82500000Y-131500000D03*
X82500000Y-132300000D03*
X82500000Y-133100000D03*
X82500000Y-134700000D03*
X82500000Y-133900000D03*
%TD*%
D13*
%TO.C,SW8*%
X96050000Y-161850000D03*
X89450000Y-161850000D03*
X96050000Y-158150000D03*
X89450000Y-158151000D03*
%TD*%
%TO.C,SW7*%
X113550000Y-161850000D03*
X106950000Y-161850000D03*
X113550000Y-158150000D03*
X106950000Y-158151000D03*
%TD*%
%TO.C,SW6*%
X78550000Y-161850000D03*
X71950000Y-161850000D03*
X78550000Y-158150000D03*
X71950000Y-158151000D03*
%TD*%
%TO.C,SW5*%
X130300000Y-177850000D03*
X123700000Y-177850000D03*
X130300000Y-174150000D03*
X123700000Y-174151000D03*
%TD*%
%TO.C,SW4*%
X135800000Y-162200000D03*
X129200000Y-162200000D03*
X135800000Y-158500000D03*
X129200000Y-158501000D03*
%TD*%
D14*
%TO.C,SW10*%
X127143918Y-146217077D03*
X130634548Y-152514339D03*
D15*
X132201589Y-150102186D03*
X130019945Y-146166397D03*
%TD*%
D14*
%TO.C,SW9*%
X56265452Y-152464339D03*
X59756082Y-146167077D03*
D15*
X56880055Y-146116397D03*
X54698411Y-150052186D03*
%TD*%
M02*
