%TF.GenerationSoftware,KiCad,Pcbnew,(5.1.10-1-10_14)*%
%TF.CreationDate,2021-08-27T15:48:04+02:00*%
%TF.ProjectId,OOO2021_Badge,4f4f4f32-3032-4315-9f42-616467652e6b,rev?*%
%TF.SameCoordinates,Original*%
%TF.FileFunction,Legend,Top*%
%TF.FilePolarity,Positive*%
%FSLAX46Y46*%
G04 Gerber Fmt 4.6, Leading zero omitted, Abs format (unit mm)*
G04 Created by KiCad (PCBNEW (5.1.10-1-10_14)) date 2021-08-27 15:48:04*
%MOMM*%
%LPD*%
G01*
G04 APERTURE LIST*
%ADD10C,0.254000*%
%ADD11C,0.250000*%
%ADD12C,0.100000*%
%ADD13C,0.120000*%
%ADD14C,0.010000*%
%ADD15R,2.000000X0.800000*%
%ADD16C,1.100000*%
%ADD17C,0.800000*%
%ADD18O,1.700000X1.700000*%
%ADD19R,1.700000X1.700000*%
%ADD20C,1.800000*%
%ADD21R,1.800000X1.800000*%
%ADD22C,3.000000*%
%ADD23R,4.000000X0.400000*%
%ADD24C,0.650000*%
%ADD25C,0.900000*%
%ADD26R,1.700000X1.000000*%
%ADD27C,2.000000*%
%ADD28C,1.700000*%
G04 APERTURE END LIST*
D10*
%TO.C,U4*%
X95000000Y-73738000D02*
G75*
G03*
X95000000Y-73738000I-1500000J0D01*
G01*
%TO.C,U14*%
X60450000Y-168436841D02*
X59013159Y-167000000D01*
X61886841Y-167000000D02*
X60450000Y-168436841D01*
X60450000Y-165563159D02*
X61886841Y-167000000D01*
X59013159Y-167000000D02*
X60450000Y-165563159D01*
X62792000Y-167000000D02*
G75*
G03*
X62792000Y-167000000I-2342000J0D01*
G01*
X55061846Y-167000000D02*
X56249079Y-168187232D01*
X60450000Y-172388154D02*
X62273628Y-170564525D01*
X59262768Y-171200921D02*
X60450000Y-172388154D01*
X65838154Y-167000000D02*
X64650921Y-165812768D01*
X64014525Y-168823628D02*
X65838154Y-167000000D01*
X60450000Y-161611846D02*
X58626372Y-163435475D01*
X61637232Y-162799079D02*
X60450000Y-161611846D01*
X56885475Y-165176372D02*
X55061846Y-167000000D01*
D11*
X55600253Y-168767767D02*
G75*
G03*
X55600253Y-168767767I-100000J0D01*
G01*
D12*
%TO.C,kibuzzard-6126461B*%
G36*
X127811493Y-148156323D02*
G01*
X128134073Y-148668953D01*
X128235887Y-148675001D01*
X128327621Y-148693146D01*
X128408266Y-148723892D01*
X128476814Y-148767743D01*
X128572580Y-148895767D01*
X128597530Y-148980192D01*
X128605846Y-149078226D01*
X128594757Y-149182057D01*
X128561491Y-149275807D01*
X128502520Y-149353931D01*
X128414314Y-149410887D01*
X128486895Y-149526814D01*
X128561491Y-149659878D01*
X128631048Y-149798991D01*
X128688507Y-149931047D01*
X128428427Y-149931047D01*
X128378276Y-149812348D01*
X128320564Y-149698185D01*
X128256804Y-149585534D01*
X128188508Y-149471371D01*
X128059476Y-149471371D01*
X128059476Y-149931047D01*
X127811493Y-149931047D01*
X127811493Y-148701211D01*
X127891130Y-148686090D01*
X127978831Y-148676009D01*
X128063508Y-148670969D01*
X128134073Y-148668953D01*
X127811493Y-148156323D01*
X127298863Y-148156323D01*
X126612656Y-150443677D01*
X127298863Y-150443677D01*
X127811493Y-150443677D01*
X128688507Y-150443677D01*
X129201137Y-150443677D01*
X129887344Y-148156323D01*
X129201137Y-148156323D01*
X128688507Y-148156323D01*
X127811493Y-148156323D01*
G37*
G36*
X128353830Y-149076210D02*
G01*
X128338710Y-148990525D01*
X128293347Y-148931049D01*
X128223286Y-148896271D01*
X128134073Y-148884678D01*
X128099799Y-148885686D01*
X128059476Y-148890727D01*
X128059476Y-149265726D01*
X128113912Y-149265726D01*
X128223286Y-149253377D01*
X128297379Y-149216331D01*
X128353830Y-149076210D01*
G37*
%TO.C,kibuzzard-612645F1*%
G36*
X58107864Y-148163379D02*
G01*
X58107864Y-148676009D01*
X58357863Y-148676009D01*
X58357863Y-149718346D01*
X58892136Y-149718346D01*
X58892136Y-149923991D01*
X58107864Y-149923991D01*
X58107864Y-148676009D01*
X58107864Y-148163379D01*
X57595233Y-148163379D01*
X56913261Y-150436621D01*
X57595233Y-150436621D01*
X58107864Y-150436621D01*
X58892136Y-150436621D01*
X59404767Y-150436621D01*
X60086739Y-148163379D01*
X59404767Y-148163379D01*
X58892136Y-148163379D01*
X58107864Y-148163379D01*
G37*
%TO.C,kibuzzard-6126450F*%
G36*
X126331654Y-180098258D02*
G01*
X126486896Y-180619961D01*
X126654234Y-180610888D01*
X126782258Y-180618197D01*
X126884072Y-180640122D01*
X127023185Y-180716735D01*
X127091733Y-180822582D01*
X127109878Y-180939517D01*
X127099042Y-181023186D01*
X127066532Y-181096775D01*
X126950604Y-181205645D01*
X127057207Y-181260081D01*
X127122983Y-181330645D01*
X127157005Y-181411290D01*
X127168346Y-181495967D01*
X127158769Y-181599546D01*
X127130040Y-181684475D01*
X127026209Y-181805442D01*
X126954637Y-181844253D01*
X126870968Y-181869958D01*
X126777974Y-181884323D01*
X126678428Y-181889112D01*
X126594254Y-181886843D01*
X126507057Y-181880039D01*
X126418851Y-181868698D01*
X126331654Y-181852821D01*
X126331654Y-180641130D01*
X126486896Y-180619961D01*
X126331654Y-180098258D01*
X125819024Y-180098258D01*
X125127979Y-182401742D01*
X125819024Y-182401742D01*
X126331654Y-182401742D01*
X127168346Y-182401742D01*
X127680976Y-182401742D01*
X128372021Y-180098258D01*
X127680976Y-180098258D01*
X127168346Y-180098258D01*
X126331654Y-180098258D01*
G37*
G36*
X126579637Y-181326613D02*
G01*
X126579637Y-181665322D01*
X126637097Y-181671370D01*
X126698589Y-181673386D01*
X126781250Y-181666330D01*
X126852822Y-181640120D01*
X126904234Y-181585685D01*
X126924395Y-181495967D01*
X126866935Y-181365927D01*
X126712702Y-181326613D01*
X126579637Y-181326613D01*
G37*
G36*
X126676411Y-181120968D02*
G01*
X126819556Y-181079637D01*
X126867943Y-180965726D01*
X126853830Y-180894154D01*
X126815524Y-180851815D01*
X126759073Y-180831654D01*
X126692540Y-180826614D01*
X126634073Y-180828630D01*
X126579637Y-180834678D01*
X126579637Y-181120968D01*
X126676411Y-181120968D01*
G37*
%TO.C,kibuzzard-612644FA*%
G36*
X131764114Y-164363379D02*
G01*
X132032763Y-165155999D01*
X132076235Y-165014051D01*
X132118952Y-164876009D01*
X132389113Y-164876009D01*
X132433404Y-165015185D01*
X132477570Y-165158519D01*
X132521610Y-165306011D01*
X132565524Y-165457661D01*
X132600403Y-165582701D01*
X132634878Y-165711854D01*
X132668951Y-165845120D01*
X132702620Y-165982499D01*
X132735886Y-166123991D01*
X132469758Y-166123991D01*
X132411290Y-165835685D01*
X132078629Y-165835685D01*
X132022178Y-166123991D01*
X131764114Y-166123991D01*
X131799678Y-165979031D01*
X131835404Y-165839314D01*
X131871291Y-165704838D01*
X131907339Y-165575605D01*
X131943549Y-165451613D01*
X131988534Y-165301853D01*
X132032763Y-165155999D01*
X131764114Y-164363379D01*
X131251484Y-164363379D01*
X130569511Y-166636621D01*
X131251484Y-166636621D01*
X131764114Y-166636621D01*
X132735886Y-166636621D01*
X133248516Y-166636621D01*
X133930489Y-164363379D01*
X133248516Y-164363379D01*
X132735886Y-164363379D01*
X131764114Y-164363379D01*
G37*
G36*
X132247984Y-165117944D02*
G01*
X132210686Y-165252017D01*
X132178428Y-165377016D01*
X132150202Y-165501008D01*
X132125000Y-165630040D01*
X132368951Y-165630040D01*
X132344758Y-165501008D01*
X132317540Y-165377016D01*
X132285282Y-165252017D01*
X132247984Y-165117944D01*
G37*
D13*
%TO.C,J5*%
X89670000Y-61870000D02*
X89670000Y-59270000D01*
X89670000Y-61870000D02*
X97410000Y-61870000D01*
X97410000Y-61870000D02*
X97410000Y-56670000D01*
X92270000Y-56670000D02*
X97410000Y-56670000D01*
X92270000Y-59270000D02*
X92270000Y-56670000D01*
X89670000Y-59270000D02*
X92270000Y-59270000D01*
X89670000Y-56670000D02*
X91000000Y-56670000D01*
X89670000Y-58000000D02*
X89670000Y-56670000D01*
D14*
%TO.C,W1*%
G36*
X115966617Y-81130125D02*
G01*
X116782951Y-83274475D01*
X117566076Y-85444385D01*
X118315805Y-87638925D01*
X119031951Y-89857165D01*
X119714327Y-92098177D01*
X120362747Y-94361031D01*
X120977023Y-96644797D01*
X121556968Y-98948547D01*
X122102397Y-101271351D01*
X122613121Y-103612279D01*
X123088953Y-105970403D01*
X123529708Y-108344793D01*
X123935198Y-110734519D01*
X124305235Y-113138653D01*
X124639634Y-115556264D01*
X124938207Y-117986425D01*
X125200768Y-120428205D01*
X125427129Y-122880674D01*
X125617103Y-125342905D01*
X125770505Y-127813966D01*
X125887146Y-130292930D01*
X125895057Y-130496083D01*
X125913377Y-130984851D01*
X125929860Y-131449021D01*
X125944573Y-131893072D01*
X125957582Y-132321483D01*
X125968956Y-132738733D01*
X125978762Y-133149303D01*
X125987067Y-133557670D01*
X125993939Y-133968316D01*
X125999445Y-134385718D01*
X126003652Y-134814356D01*
X126006629Y-135258711D01*
X126008442Y-135723260D01*
X126009159Y-136212484D01*
X126008847Y-136730861D01*
X126007575Y-137282872D01*
X126005561Y-137836720D01*
X126003688Y-138268749D01*
X126001804Y-138662508D01*
X125999839Y-139022059D01*
X125997723Y-139351465D01*
X125995384Y-139654789D01*
X125992752Y-139936094D01*
X125989757Y-140199442D01*
X125986328Y-140448897D01*
X125982394Y-140688521D01*
X125977885Y-140922377D01*
X125972729Y-141154527D01*
X125966858Y-141389036D01*
X125960199Y-141629964D01*
X125952683Y-141881376D01*
X125944238Y-142147334D01*
X125934794Y-142431901D01*
X125924281Y-142739139D01*
X125916480Y-142963250D01*
X125807975Y-145504437D01*
X125660582Y-148039712D01*
X125474469Y-150567972D01*
X125249804Y-153088113D01*
X124986757Y-155599033D01*
X124685495Y-158099628D01*
X124346187Y-160588794D01*
X123969001Y-163065429D01*
X123554106Y-165528429D01*
X123101669Y-167976692D01*
X122611860Y-170409113D01*
X122084847Y-172824589D01*
X121520799Y-175222017D01*
X120919882Y-177600295D01*
X120282267Y-179958318D01*
X120254424Y-180057833D01*
X119591710Y-182350741D01*
X118895684Y-184617582D01*
X118166307Y-186858459D01*
X117403542Y-189073474D01*
X116607352Y-191262728D01*
X115777700Y-193426326D01*
X114914548Y-195564370D01*
X114017859Y-197676961D01*
X113087596Y-199764202D01*
X113005386Y-199943917D01*
X112894424Y-200185538D01*
X112798975Y-200392219D01*
X112717210Y-200567636D01*
X112647301Y-200715468D01*
X112587422Y-200839391D01*
X112535743Y-200943084D01*
X112490438Y-201030225D01*
X112449677Y-201104490D01*
X112411633Y-201169558D01*
X112374479Y-201229107D01*
X112342266Y-201278079D01*
X112129457Y-201557781D01*
X111886874Y-201808742D01*
X111617460Y-202029088D01*
X111324157Y-202216941D01*
X111009908Y-202370428D01*
X110677655Y-202487671D01*
X110330340Y-202566796D01*
X110316917Y-202569021D01*
X110301584Y-202570924D01*
X110278793Y-202572749D01*
X110247697Y-202574496D01*
X110207444Y-202576167D01*
X110157186Y-202577764D01*
X110096072Y-202579288D01*
X110023254Y-202580740D01*
X109937881Y-202582121D01*
X109839103Y-202583434D01*
X109726073Y-202584680D01*
X109597938Y-202585859D01*
X109453851Y-202586974D01*
X109292961Y-202588026D01*
X109114419Y-202589017D01*
X108917376Y-202589947D01*
X108700980Y-202590819D01*
X108464384Y-202591633D01*
X108206737Y-202592391D01*
X107927190Y-202593095D01*
X107624894Y-202593746D01*
X107298997Y-202594346D01*
X106948652Y-202594895D01*
X106573008Y-202595396D01*
X106171216Y-202595849D01*
X105742425Y-202596257D01*
X105285788Y-202596620D01*
X104800453Y-202596940D01*
X104285571Y-202597219D01*
X103740293Y-202597458D01*
X103163770Y-202597658D01*
X102555150Y-202597821D01*
X101913586Y-202597948D01*
X101238226Y-202598041D01*
X100528223Y-202598101D01*
X99782725Y-202598130D01*
X99000884Y-202598129D01*
X98181849Y-202598099D01*
X97324772Y-202598042D01*
X96428802Y-202597960D01*
X95493090Y-202597853D01*
X94516787Y-202597723D01*
X93499042Y-202597572D01*
X93447084Y-202597564D01*
X92607230Y-202597411D01*
X91777472Y-202597216D01*
X90958830Y-202596979D01*
X90152325Y-202596703D01*
X89358977Y-202596389D01*
X88579807Y-202596037D01*
X87815836Y-202595649D01*
X87068084Y-202595226D01*
X86337573Y-202594770D01*
X85625321Y-202594281D01*
X84932351Y-202593761D01*
X84259683Y-202593212D01*
X83608337Y-202592633D01*
X82979335Y-202592027D01*
X82373696Y-202591395D01*
X81792441Y-202590738D01*
X81236592Y-202590057D01*
X80707168Y-202589354D01*
X80205190Y-202588629D01*
X79731680Y-202587884D01*
X79287657Y-202587121D01*
X78874142Y-202586340D01*
X78492156Y-202585542D01*
X78142719Y-202584729D01*
X77826853Y-202583903D01*
X77545577Y-202583063D01*
X77299913Y-202582212D01*
X77090881Y-202581351D01*
X76919501Y-202580481D01*
X76786795Y-202579603D01*
X76693783Y-202578719D01*
X76641485Y-202577829D01*
X76630167Y-202577306D01*
X76285523Y-202512401D01*
X75954133Y-202409023D01*
X75639029Y-202269304D01*
X75343243Y-202095375D01*
X75069810Y-201889370D01*
X74821760Y-201653419D01*
X74602128Y-201389656D01*
X74413947Y-201100211D01*
X74344515Y-200970500D01*
X74262673Y-200804485D01*
X74166082Y-200602864D01*
X74056283Y-200369103D01*
X73934818Y-200106670D01*
X73803225Y-199819034D01*
X73663046Y-199509661D01*
X73515820Y-199182019D01*
X73363089Y-198839576D01*
X73206392Y-198485799D01*
X73047269Y-198124156D01*
X72887261Y-197758115D01*
X72727909Y-197391142D01*
X72570752Y-197026706D01*
X72417331Y-196668274D01*
X72269186Y-196319313D01*
X72127858Y-195983292D01*
X72106763Y-195932833D01*
X71238065Y-193800191D01*
X70403007Y-191642391D01*
X69601743Y-189460177D01*
X68834428Y-187254295D01*
X68101218Y-185025488D01*
X67402267Y-182774501D01*
X66737730Y-180502078D01*
X66107763Y-178208965D01*
X65512521Y-175895905D01*
X64952158Y-173563643D01*
X64426831Y-171212924D01*
X63936693Y-168844492D01*
X63481900Y-166459091D01*
X63428191Y-166151448D01*
X105842157Y-166151448D01*
X113488845Y-166140750D01*
X113844659Y-164955417D01*
X113909301Y-164739823D01*
X113970169Y-164536331D01*
X114026193Y-164348554D01*
X114076301Y-164180103D01*
X114119424Y-164034591D01*
X114154490Y-163915629D01*
X114180429Y-163826829D01*
X114196170Y-163771803D01*
X114200736Y-163754208D01*
X114179949Y-163752551D01*
X114118939Y-163750941D01*
X114019815Y-163749388D01*
X113884687Y-163747900D01*
X113715667Y-163746487D01*
X113514862Y-163745156D01*
X113284384Y-163743917D01*
X113026343Y-163742779D01*
X112742847Y-163741751D01*
X112436008Y-163740840D01*
X112107936Y-163740056D01*
X111760739Y-163739408D01*
X111396528Y-163738904D01*
X111017414Y-163738554D01*
X110625506Y-163738365D01*
X110383594Y-163738333D01*
X106566188Y-163738333D01*
X106232603Y-164850422D01*
X106169082Y-165062180D01*
X106108487Y-165264174D01*
X106052045Y-165452311D01*
X106000985Y-165622500D01*
X105956533Y-165770649D01*
X105919918Y-165892666D01*
X105892367Y-165984461D01*
X105875108Y-166041942D01*
X105870588Y-166056979D01*
X105842157Y-166151448D01*
X63428191Y-166151448D01*
X63417107Y-166087965D01*
X71385024Y-166087965D01*
X74687611Y-166082608D01*
X77990197Y-166077250D01*
X77998134Y-166050792D01*
X89923546Y-166050792D01*
X89944211Y-166052732D01*
X90004735Y-166054605D01*
X90102640Y-166056395D01*
X90235452Y-166058089D01*
X90400694Y-166059673D01*
X90595892Y-166061131D01*
X90818569Y-166062451D01*
X91066250Y-166063618D01*
X91336459Y-166064617D01*
X91626721Y-166065434D01*
X91934560Y-166066056D01*
X92257500Y-166066468D01*
X92593066Y-166066656D01*
X92694386Y-166066667D01*
X95465938Y-166066667D01*
X95518806Y-165892042D01*
X95535945Y-165835232D01*
X95563711Y-165742941D01*
X95600585Y-165620239D01*
X95645043Y-165472194D01*
X95695562Y-165303878D01*
X95750621Y-165120361D01*
X95808698Y-164926712D01*
X95850842Y-164786143D01*
X95908184Y-164595016D01*
X95961998Y-164415953D01*
X96011026Y-164253114D01*
X96054012Y-164110660D01*
X96089699Y-163992751D01*
X96116831Y-163903547D01*
X96134151Y-163847208D01*
X96140217Y-163828273D01*
X96134397Y-163824337D01*
X96112534Y-163820819D01*
X96072802Y-163817705D01*
X96013373Y-163814981D01*
X95932421Y-163812633D01*
X95828117Y-163810646D01*
X95698636Y-163809007D01*
X95542149Y-163807702D01*
X95356830Y-163806717D01*
X95140853Y-163806037D01*
X94892388Y-163805650D01*
X94609611Y-163805540D01*
X94290693Y-163805694D01*
X93933807Y-163806097D01*
X93537127Y-163806737D01*
X93371596Y-163807046D01*
X90592770Y-163812417D01*
X90258514Y-164923667D01*
X90195842Y-165132262D01*
X90136971Y-165328670D01*
X90083012Y-165509155D01*
X90035073Y-165669983D01*
X89994264Y-165807422D01*
X89961696Y-165917737D01*
X89938477Y-165997193D01*
X89925718Y-166042058D01*
X89923546Y-166050792D01*
X77998134Y-166050792D01*
X78263236Y-165167083D01*
X78322840Y-164968392D01*
X78381276Y-164773593D01*
X78436866Y-164588278D01*
X78487933Y-164418040D01*
X78532799Y-164268469D01*
X78569787Y-164145157D01*
X78597220Y-164053698D01*
X78607708Y-164018725D01*
X78679143Y-163780534D01*
X75376556Y-163785892D01*
X72073970Y-163791250D01*
X71800931Y-164701417D01*
X71741327Y-164900108D01*
X71682891Y-165094906D01*
X71627301Y-165280221D01*
X71576234Y-165450460D01*
X71531368Y-165600031D01*
X71494380Y-165723342D01*
X71466947Y-165814802D01*
X71456459Y-165849774D01*
X71385024Y-166087965D01*
X63417107Y-166087965D01*
X63062607Y-164057466D01*
X62678970Y-161640361D01*
X62331143Y-159208521D01*
X62019281Y-156762691D01*
X61743539Y-154303615D01*
X61504073Y-151832037D01*
X61301038Y-149348701D01*
X61134588Y-146854353D01*
X61004879Y-144349737D01*
X60924932Y-142254167D01*
X60900806Y-141407833D01*
X60881274Y-140526667D01*
X60866335Y-139617918D01*
X60855989Y-138688835D01*
X60850236Y-137746671D01*
X60849076Y-136798673D01*
X60852508Y-135852093D01*
X60860534Y-134914181D01*
X60873152Y-133992187D01*
X60874982Y-133896614D01*
X64734500Y-133896614D01*
X64734501Y-135009044D01*
X64734503Y-136079932D01*
X64734508Y-137110072D01*
X64734519Y-138100255D01*
X64734536Y-139051273D01*
X64734562Y-139963920D01*
X64734598Y-140838986D01*
X64734645Y-141677264D01*
X64734706Y-142479546D01*
X64734782Y-143246625D01*
X64734875Y-143979293D01*
X64734985Y-144678341D01*
X64735116Y-145344563D01*
X64735269Y-145978750D01*
X64735445Y-146581694D01*
X64735645Y-147154189D01*
X64735873Y-147697025D01*
X64736128Y-148210995D01*
X64736413Y-148696891D01*
X64736730Y-149155506D01*
X64737081Y-149587632D01*
X64737466Y-149994061D01*
X64737887Y-150375585D01*
X64738347Y-150732996D01*
X64738847Y-151067087D01*
X64739388Y-151378649D01*
X64739972Y-151668475D01*
X64740601Y-151937358D01*
X64741276Y-152186089D01*
X64742000Y-152415460D01*
X64742773Y-152626265D01*
X64743597Y-152819294D01*
X64744475Y-152995340D01*
X64745407Y-153155196D01*
X64746396Y-153299653D01*
X64747443Y-153429504D01*
X64748549Y-153545541D01*
X64749717Y-153648556D01*
X64750948Y-153739342D01*
X64752243Y-153818690D01*
X64753605Y-153887393D01*
X64755035Y-153946243D01*
X64756534Y-153996032D01*
X64758104Y-154037552D01*
X64759748Y-154071597D01*
X64761466Y-154098957D01*
X64763260Y-154120424D01*
X64765132Y-154136793D01*
X64767083Y-154148853D01*
X64769116Y-154157398D01*
X64771232Y-154163220D01*
X64773432Y-154167111D01*
X64775718Y-154169864D01*
X64776834Y-154171000D01*
X64778932Y-154172967D01*
X64781678Y-154174872D01*
X64785736Y-154176716D01*
X64791775Y-154178500D01*
X64800461Y-154180225D01*
X64812461Y-154181893D01*
X64828443Y-154183503D01*
X64849073Y-154185058D01*
X64875019Y-154186557D01*
X64906948Y-154188003D01*
X64945526Y-154189395D01*
X64991422Y-154190736D01*
X65045301Y-154192025D01*
X65107830Y-154193265D01*
X65179678Y-154194456D01*
X65261511Y-154195598D01*
X65353996Y-154196693D01*
X65457800Y-154197743D01*
X65573590Y-154198747D01*
X65702033Y-154199707D01*
X65843797Y-154200624D01*
X65999547Y-154201499D01*
X66169953Y-154202333D01*
X66355680Y-154203127D01*
X66557395Y-154203882D01*
X66775766Y-154204598D01*
X67011459Y-154205277D01*
X67265142Y-154205921D01*
X67537482Y-154206529D01*
X67829146Y-154207102D01*
X68140801Y-154207643D01*
X68473113Y-154208151D01*
X68826751Y-154208629D01*
X69202380Y-154209076D01*
X69600669Y-154209493D01*
X70022284Y-154209883D01*
X70467892Y-154210245D01*
X70938160Y-154210581D01*
X71433756Y-154210891D01*
X71955345Y-154211178D01*
X72503597Y-154211441D01*
X73079177Y-154211681D01*
X73682752Y-154211901D01*
X74314990Y-154212100D01*
X74976558Y-154212279D01*
X75668123Y-154212441D01*
X76390351Y-154212585D01*
X77143910Y-154212712D01*
X77929467Y-154212825D01*
X78747689Y-154212922D01*
X79599243Y-154213007D01*
X80484796Y-154213079D01*
X81405015Y-154213139D01*
X82360568Y-154213189D01*
X83352121Y-154213230D01*
X84380341Y-154213262D01*
X85445895Y-154213287D01*
X86549451Y-154213305D01*
X87691675Y-154213318D01*
X88873235Y-154213326D01*
X90094797Y-154213330D01*
X91357029Y-154213333D01*
X94644321Y-154213333D01*
X95926892Y-154213332D01*
X97168464Y-154213328D01*
X98369703Y-154213322D01*
X99531278Y-154213312D01*
X100653854Y-154213296D01*
X101738100Y-154213275D01*
X102784681Y-154213247D01*
X103794266Y-154213210D01*
X104767521Y-154213165D01*
X105705113Y-154213110D01*
X106607710Y-154213044D01*
X107475977Y-154212966D01*
X108310584Y-154212875D01*
X109112195Y-154212770D01*
X109881479Y-154212650D01*
X110619103Y-154212514D01*
X111325734Y-154212361D01*
X112002038Y-154212191D01*
X112648683Y-154212002D01*
X113266336Y-154211792D01*
X113855663Y-154211562D01*
X114417333Y-154211310D01*
X114952012Y-154211036D01*
X115460366Y-154210737D01*
X115943064Y-154210414D01*
X116400772Y-154210065D01*
X116834157Y-154209689D01*
X117243887Y-154209285D01*
X117630628Y-154208853D01*
X117995047Y-154208391D01*
X118337812Y-154207898D01*
X118659589Y-154207374D01*
X118961046Y-154206816D01*
X119242849Y-154206225D01*
X119505666Y-154205600D01*
X119750164Y-154204938D01*
X119977010Y-154204240D01*
X120186870Y-154203505D01*
X120380413Y-154202730D01*
X120558304Y-154201916D01*
X120721212Y-154201062D01*
X120869802Y-154200166D01*
X121004743Y-154199227D01*
X121126701Y-154198244D01*
X121236344Y-154197218D01*
X121334337Y-154196145D01*
X121421349Y-154195026D01*
X121498047Y-154193859D01*
X121565097Y-154192644D01*
X121623166Y-154191379D01*
X121672922Y-154190064D01*
X121715032Y-154188697D01*
X121750163Y-154187278D01*
X121778981Y-154185805D01*
X121802154Y-154184278D01*
X121820349Y-154182696D01*
X121834233Y-154181056D01*
X121844473Y-154179360D01*
X121851737Y-154177605D01*
X121856690Y-154175790D01*
X121860001Y-154173916D01*
X121862335Y-154171979D01*
X121863334Y-154171000D01*
X121865661Y-154168511D01*
X121867902Y-154165258D01*
X121870058Y-154160451D01*
X121872130Y-154153296D01*
X121874120Y-154143002D01*
X121876030Y-154128775D01*
X121877861Y-154109825D01*
X121879615Y-154085357D01*
X121881293Y-154054581D01*
X121882898Y-154016704D01*
X121884431Y-153970933D01*
X121885894Y-153916477D01*
X121887287Y-153852542D01*
X121888614Y-153778338D01*
X121889875Y-153693071D01*
X121891073Y-153595949D01*
X121892208Y-153486180D01*
X121893283Y-153362972D01*
X121894299Y-153225532D01*
X121895258Y-153073069D01*
X121896161Y-152904789D01*
X121897011Y-152719901D01*
X121897808Y-152517612D01*
X121898555Y-152297130D01*
X121899253Y-152057663D01*
X121899904Y-151798419D01*
X121900509Y-151518604D01*
X121901070Y-151217428D01*
X121901589Y-150894097D01*
X121902068Y-150547820D01*
X121902507Y-150177803D01*
X121902909Y-149783256D01*
X121903276Y-149363385D01*
X121903608Y-148917398D01*
X121903908Y-148444504D01*
X121904178Y-147943909D01*
X121904418Y-147414821D01*
X121904631Y-146856449D01*
X121904818Y-146268000D01*
X121904982Y-145648681D01*
X121905123Y-144997701D01*
X121905243Y-144314267D01*
X121905344Y-143597586D01*
X121905427Y-142846867D01*
X121905495Y-142061317D01*
X121905548Y-141240145D01*
X121905590Y-140382557D01*
X121905620Y-139487761D01*
X121905641Y-138554966D01*
X121905655Y-137583378D01*
X121905662Y-136572206D01*
X121905666Y-135520657D01*
X121905667Y-134427940D01*
X121905667Y-133900292D01*
X121905664Y-132784559D01*
X121905653Y-131710374D01*
X121905633Y-130676954D01*
X121905604Y-129683514D01*
X121905563Y-128729268D01*
X121905509Y-127813433D01*
X121905441Y-126935223D01*
X121905357Y-126093855D01*
X121905256Y-125288543D01*
X121905138Y-124518502D01*
X121904999Y-123782950D01*
X121904840Y-123081099D01*
X121904658Y-122412167D01*
X121904452Y-121775369D01*
X121904222Y-121169919D01*
X121903965Y-120595034D01*
X121903680Y-120049928D01*
X121903366Y-119533817D01*
X121903022Y-119045917D01*
X121902646Y-118585443D01*
X121902237Y-118151609D01*
X121901793Y-117743633D01*
X121901313Y-117360729D01*
X121900796Y-117002112D01*
X121900240Y-116666997D01*
X121899645Y-116354602D01*
X121899008Y-116064139D01*
X121898328Y-115794826D01*
X121897605Y-115545877D01*
X121896836Y-115316508D01*
X121896020Y-115105934D01*
X121895156Y-114913371D01*
X121894243Y-114738034D01*
X121893279Y-114579138D01*
X121892262Y-114435899D01*
X121891192Y-114307532D01*
X121890068Y-114193253D01*
X121888887Y-114092277D01*
X121887648Y-114003819D01*
X121886351Y-113927095D01*
X121884993Y-113861320D01*
X121883573Y-113805710D01*
X121882091Y-113759480D01*
X121880544Y-113721845D01*
X121878931Y-113692021D01*
X121877252Y-113669222D01*
X121875503Y-113652666D01*
X121873685Y-113641566D01*
X121871796Y-113635139D01*
X121870636Y-113633208D01*
X121868170Y-113631409D01*
X121863634Y-113629666D01*
X121856365Y-113627979D01*
X121845695Y-113626347D01*
X121830960Y-113624769D01*
X121811494Y-113623243D01*
X121786630Y-113621770D01*
X121755704Y-113620348D01*
X121718050Y-113618976D01*
X121673003Y-113617654D01*
X121619895Y-113616379D01*
X121558063Y-113615153D01*
X121486839Y-113613973D01*
X121405560Y-113612839D01*
X121313558Y-113611749D01*
X121210168Y-113610704D01*
X121094725Y-113609702D01*
X120966564Y-113608741D01*
X120825017Y-113607823D01*
X120669420Y-113606944D01*
X120499108Y-113606105D01*
X120313413Y-113605304D01*
X120111672Y-113604541D01*
X119893217Y-113603814D01*
X119657384Y-113603124D01*
X119403507Y-113602468D01*
X119130920Y-113601846D01*
X118838958Y-113601258D01*
X118526954Y-113600702D01*
X118194244Y-113600176D01*
X117840162Y-113599682D01*
X117464041Y-113599217D01*
X117065217Y-113598780D01*
X116643023Y-113598371D01*
X116196794Y-113597989D01*
X115725865Y-113597633D01*
X115229569Y-113597302D01*
X114707242Y-113596995D01*
X114158217Y-113596711D01*
X113581829Y-113596449D01*
X112977412Y-113596209D01*
X112344300Y-113595989D01*
X111681828Y-113595788D01*
X110989331Y-113595607D01*
X110266142Y-113595443D01*
X109511596Y-113595296D01*
X108725027Y-113595165D01*
X107905770Y-113595049D01*
X107053159Y-113594947D01*
X106166528Y-113594858D01*
X105245212Y-113594782D01*
X104288545Y-113594717D01*
X103295861Y-113594663D01*
X102266496Y-113594618D01*
X101199782Y-113594583D01*
X100095055Y-113594554D01*
X98951648Y-113594533D01*
X97768897Y-113594518D01*
X96546135Y-113594508D01*
X95282697Y-113594503D01*
X93977918Y-113594500D01*
X93323761Y-113594500D01*
X91995303Y-113594502D01*
X90708517Y-113594509D01*
X89462744Y-113594523D01*
X88257322Y-113594543D01*
X87091591Y-113594570D01*
X85964891Y-113594606D01*
X84876561Y-113594651D01*
X83825941Y-113594706D01*
X82812369Y-113594771D01*
X81835186Y-113594848D01*
X80893730Y-113594938D01*
X79987342Y-113595041D01*
X79115361Y-113595158D01*
X78277126Y-113595289D01*
X77471977Y-113595436D01*
X76699252Y-113595600D01*
X75958292Y-113595781D01*
X75248437Y-113595980D01*
X74569024Y-113596197D01*
X73919395Y-113596435D01*
X73298888Y-113596693D01*
X72706842Y-113596972D01*
X72142598Y-113597273D01*
X71605495Y-113597597D01*
X71094872Y-113597945D01*
X70610068Y-113598318D01*
X70150424Y-113598716D01*
X69715278Y-113599139D01*
X69303970Y-113599590D01*
X68915839Y-113600069D01*
X68550226Y-113600576D01*
X68206468Y-113601113D01*
X67883906Y-113601680D01*
X67581880Y-113602278D01*
X67299728Y-113602908D01*
X67036791Y-113603570D01*
X66792407Y-113604266D01*
X66565916Y-113604996D01*
X66356657Y-113605761D01*
X66163970Y-113606562D01*
X65987195Y-113607400D01*
X65825671Y-113608275D01*
X65678737Y-113609188D01*
X65545732Y-113610141D01*
X65425997Y-113611134D01*
X65318870Y-113612167D01*
X65223692Y-113613242D01*
X65139801Y-113614359D01*
X65066537Y-113615520D01*
X65003239Y-113616724D01*
X64949248Y-113617973D01*
X64903901Y-113619268D01*
X64866540Y-113620609D01*
X64836502Y-113621998D01*
X64813129Y-113623434D01*
X64795758Y-113624919D01*
X64783731Y-113626454D01*
X64776385Y-113628040D01*
X64773209Y-113629530D01*
X64771079Y-113632326D01*
X64769029Y-113637313D01*
X64767057Y-113645281D01*
X64765161Y-113657022D01*
X64763340Y-113673325D01*
X64761593Y-113694981D01*
X64759918Y-113722782D01*
X64758313Y-113757517D01*
X64756777Y-113799977D01*
X64755308Y-113850953D01*
X64753906Y-113911235D01*
X64752567Y-113981614D01*
X64751292Y-114062880D01*
X64750078Y-114155824D01*
X64748924Y-114261237D01*
X64747828Y-114379909D01*
X64746789Y-114512631D01*
X64745805Y-114660193D01*
X64744875Y-114823386D01*
X64743998Y-115003000D01*
X64743171Y-115199827D01*
X64742394Y-115414656D01*
X64741664Y-115648278D01*
X64740980Y-115901484D01*
X64740342Y-116175065D01*
X64739746Y-116469810D01*
X64739193Y-116786511D01*
X64738679Y-117125958D01*
X64738205Y-117488942D01*
X64737767Y-117876253D01*
X64737365Y-118288682D01*
X64736998Y-118727019D01*
X64736663Y-119192056D01*
X64736359Y-119684582D01*
X64736085Y-120205388D01*
X64735839Y-120755265D01*
X64735620Y-121335003D01*
X64735426Y-121945393D01*
X64735255Y-122587226D01*
X64735107Y-123261292D01*
X64734979Y-123968382D01*
X64734870Y-124709285D01*
X64734779Y-125484794D01*
X64734704Y-126295698D01*
X64734643Y-127142788D01*
X64734596Y-128026855D01*
X64734560Y-128948688D01*
X64734534Y-129909080D01*
X64734516Y-130908819D01*
X64734506Y-131948698D01*
X64734501Y-133029506D01*
X64734500Y-133896614D01*
X60874982Y-133896614D01*
X60890363Y-133093361D01*
X60912167Y-132224954D01*
X60925001Y-131797833D01*
X61025840Y-129231418D01*
X61164574Y-126677774D01*
X61341112Y-124137370D01*
X61555359Y-121610680D01*
X61807224Y-119098174D01*
X62096613Y-116600324D01*
X62423432Y-114117601D01*
X62787590Y-111650476D01*
X63013448Y-110271333D01*
X74799838Y-110271333D01*
X75370162Y-110842833D01*
X82493334Y-110842833D01*
X82493334Y-110271333D01*
X84303672Y-110271333D01*
X84588834Y-110557083D01*
X84873995Y-110842833D01*
X90230338Y-110842833D01*
X90800662Y-110271333D01*
X93828672Y-110271333D01*
X94113834Y-110557083D01*
X94398995Y-110842833D01*
X97363505Y-110842833D01*
X97933829Y-110271333D01*
X98579712Y-110271333D01*
X98870898Y-110556336D01*
X99162084Y-110841338D01*
X100644044Y-110842086D01*
X102126005Y-110842833D01*
X102696329Y-110271333D01*
X105099334Y-110271333D01*
X105099334Y-110842833D01*
X111629838Y-110842833D01*
X112200162Y-110271333D01*
X105099334Y-110271333D01*
X102696329Y-110271333D01*
X98579712Y-110271333D01*
X97933829Y-110271333D01*
X93828672Y-110271333D01*
X90800662Y-110271333D01*
X84303672Y-110271333D01*
X82493334Y-110271333D01*
X74799838Y-110271333D01*
X63013448Y-110271333D01*
X63188993Y-109199422D01*
X63316188Y-108493333D01*
X73603334Y-108493333D01*
X73603334Y-109064833D01*
X82493334Y-109064833D01*
X82493334Y-108493333D01*
X83107167Y-108493333D01*
X83107167Y-109064833D01*
X91997167Y-109064833D01*
X91997167Y-108493333D01*
X92632167Y-108493333D01*
X92632167Y-109064833D01*
X103892834Y-109064833D01*
X103892834Y-108493333D01*
X105099334Y-108493333D01*
X105099334Y-109064833D01*
X113417834Y-109064833D01*
X113417834Y-108493333D01*
X105099334Y-108493333D01*
X103892834Y-108493333D01*
X92632167Y-108493333D01*
X91997167Y-108493333D01*
X83107167Y-108493333D01*
X82493334Y-108493333D01*
X73603334Y-108493333D01*
X63316188Y-108493333D01*
X63529715Y-107308000D01*
X73603334Y-107308000D01*
X73603334Y-107879500D01*
X76545500Y-107879500D01*
X76545500Y-107308000D01*
X83107167Y-107308000D01*
X83107167Y-107879500D01*
X86049334Y-107879500D01*
X86049334Y-107308000D01*
X89055000Y-107308000D01*
X89055000Y-107879500D01*
X91997167Y-107879500D01*
X91997167Y-107308000D01*
X92632167Y-107308000D01*
X92632167Y-107879500D01*
X95574334Y-107879500D01*
X95574334Y-107308000D01*
X96780834Y-107308000D01*
X96780834Y-107879500D01*
X99744167Y-107879500D01*
X99744167Y-107308000D01*
X100950667Y-107308000D01*
X100950667Y-107879500D01*
X103892834Y-107879500D01*
X103892834Y-107308000D01*
X110454500Y-107308000D01*
X110454500Y-107879500D01*
X113417834Y-107879500D01*
X113417834Y-107308000D01*
X110454500Y-107308000D01*
X103892834Y-107308000D01*
X100950667Y-107308000D01*
X99744167Y-107308000D01*
X96780834Y-107308000D01*
X95574334Y-107308000D01*
X92632167Y-107308000D01*
X91997167Y-107308000D01*
X89055000Y-107308000D01*
X86049334Y-107308000D01*
X83107167Y-107308000D01*
X76545500Y-107308000D01*
X73603334Y-107308000D01*
X63529715Y-107308000D01*
X63627549Y-106764908D01*
X63758066Y-106101500D01*
X73603334Y-106101500D01*
X73603334Y-106673000D01*
X76545500Y-106673000D01*
X76545500Y-106101500D01*
X83107167Y-106101500D01*
X83107167Y-106673000D01*
X86049334Y-106673000D01*
X86049334Y-106101500D01*
X89055000Y-106101500D01*
X89055000Y-106673000D01*
X91997167Y-106673000D01*
X91997167Y-106101500D01*
X92632167Y-106101500D01*
X92632167Y-106673000D01*
X95574334Y-106673000D01*
X95574334Y-106101500D01*
X96780834Y-106101500D01*
X96780834Y-106673000D01*
X99744167Y-106673000D01*
X99744167Y-106101500D01*
X100950667Y-106101500D01*
X100950667Y-106673000D01*
X103892834Y-106673000D01*
X103892834Y-106101500D01*
X105110505Y-106101500D01*
X105680829Y-106673000D01*
X113417834Y-106673000D01*
X113417834Y-106101500D01*
X105110505Y-106101500D01*
X103892834Y-106101500D01*
X100950667Y-106101500D01*
X99744167Y-106101500D01*
X96780834Y-106101500D01*
X95574334Y-106101500D01*
X92632167Y-106101500D01*
X91997167Y-106101500D01*
X89055000Y-106101500D01*
X86049334Y-106101500D01*
X83107167Y-106101500D01*
X76545500Y-106101500D01*
X73603334Y-106101500D01*
X63758066Y-106101500D01*
X64103164Y-104347408D01*
X64488827Y-102541652D01*
X73603334Y-102541652D01*
X73603334Y-105487667D01*
X76545500Y-105487667D01*
X76545500Y-103709667D01*
X82493334Y-103709667D01*
X82493334Y-102534730D01*
X83107167Y-102534730D01*
X83107167Y-105487667D01*
X86049334Y-105487667D01*
X86049334Y-103709667D01*
X89055000Y-103709667D01*
X89055000Y-105487667D01*
X91997167Y-105487667D01*
X91997167Y-102535101D01*
X91102969Y-101640717D01*
X90208770Y-100746333D01*
X92632167Y-100746333D01*
X92632167Y-105487667D01*
X95574334Y-105487667D01*
X95574334Y-100746333D01*
X96780834Y-100746333D01*
X96780834Y-105487667D01*
X99744167Y-105487667D01*
X99744167Y-100746333D01*
X100950667Y-100746333D01*
X100950667Y-105487667D01*
X103892834Y-105487667D01*
X103892834Y-102534730D01*
X104506667Y-102534730D01*
X104506667Y-105487667D01*
X112793128Y-105487667D01*
X112211334Y-104905583D01*
X111629539Y-104323500D01*
X107470000Y-104323500D01*
X107470000Y-103709667D01*
X112804000Y-103709667D01*
X112804000Y-100746333D01*
X106295435Y-100746333D01*
X105401051Y-101640531D01*
X104506667Y-102534730D01*
X103892834Y-102534730D01*
X103892834Y-100746333D01*
X100950667Y-100746333D01*
X99744167Y-100746333D01*
X96780834Y-100746333D01*
X95574334Y-100746333D01*
X92632167Y-100746333D01*
X90208770Y-100746333D01*
X84895935Y-100746333D01*
X84001551Y-101640531D01*
X83107167Y-102534730D01*
X82493334Y-102534730D01*
X82493334Y-100746333D01*
X75367673Y-100746333D01*
X74485503Y-101643993D01*
X73603334Y-102541652D01*
X64488827Y-102541652D01*
X64615746Y-101947392D01*
X65165201Y-99565331D01*
X65751437Y-97201698D01*
X66374360Y-94856963D01*
X67033878Y-92531598D01*
X67675510Y-90406230D01*
X70026167Y-90406230D01*
X70026167Y-93369939D01*
X70909969Y-94253553D01*
X71793770Y-95137167D01*
X75974000Y-95137167D01*
X75974000Y-95751000D01*
X70618834Y-95751000D01*
X70618834Y-98714333D01*
X77148563Y-98714333D01*
X78916167Y-96947105D01*
X78916371Y-93962417D01*
X78021977Y-93079844D01*
X77127584Y-92197271D01*
X75047959Y-92196136D01*
X72968334Y-92195000D01*
X72968334Y-91581167D01*
X78323500Y-91581167D01*
X78323500Y-88617833D01*
X79530000Y-88617833D01*
X79530000Y-98714333D01*
X82493334Y-98714333D01*
X82493334Y-95137167D01*
X86673939Y-95137167D01*
X88441167Y-93369563D01*
X88441167Y-90406601D01*
X88440797Y-90406230D01*
X89055000Y-90406230D01*
X89055000Y-98714333D01*
X91997167Y-98714333D01*
X91997167Y-95136883D01*
X93494709Y-95142316D01*
X94992250Y-95147750D01*
X94997662Y-96931042D01*
X95003074Y-98714333D01*
X97945000Y-98714333D01*
X97945000Y-90406601D01*
X97944630Y-90406230D01*
X98558834Y-90406230D01*
X98558834Y-96925565D01*
X100347230Y-98714333D01*
X107470000Y-98714333D01*
X107470000Y-95751000D01*
X101522167Y-95751000D01*
X101522167Y-91581167D01*
X107470000Y-91581167D01*
X107470000Y-88617833D01*
X108083834Y-88617833D01*
X108083834Y-98714333D01*
X116973834Y-98714333D01*
X116973834Y-95751000D01*
X111026000Y-95751000D01*
X111026000Y-95137167D01*
X114603167Y-95137167D01*
X114603167Y-92195000D01*
X111026000Y-92195000D01*
X111026000Y-91581167D01*
X116973834Y-91581167D01*
X116973834Y-88617833D01*
X108083834Y-88617833D01*
X107470000Y-88617833D01*
X100347601Y-88617833D01*
X99453217Y-89512031D01*
X98558834Y-90406230D01*
X97944630Y-90406230D01*
X96156604Y-88617833D01*
X90843768Y-88617833D01*
X89949384Y-89512031D01*
X89055000Y-90406230D01*
X88440797Y-90406230D01*
X87546969Y-89512217D01*
X86652770Y-88617833D01*
X79530000Y-88617833D01*
X78323500Y-88617833D01*
X71814935Y-88617833D01*
X70920551Y-89512031D01*
X70026167Y-90406230D01*
X67675510Y-90406230D01*
X67729898Y-90226074D01*
X68462327Y-87940863D01*
X69231073Y-85676436D01*
X69592145Y-84670250D01*
X76937084Y-84670250D01*
X76937702Y-84808439D01*
X76940143Y-84913481D01*
X76945283Y-84994550D01*
X76954000Y-85060822D01*
X76967169Y-85121472D01*
X76985669Y-85185675D01*
X76986653Y-85188833D01*
X77069074Y-85403975D01*
X77175241Y-85594235D01*
X77307062Y-85760799D01*
X77466448Y-85904852D01*
X77655309Y-86027578D01*
X77875555Y-86130163D01*
X78129095Y-86213792D01*
X78417840Y-86279648D01*
X78743699Y-86328918D01*
X78842084Y-86339927D01*
X78887322Y-86342179D01*
X78967642Y-86343648D01*
X79075795Y-86344307D01*
X79204536Y-86344128D01*
X79346618Y-86343082D01*
X79424167Y-86342176D01*
X79611195Y-86338774D01*
X79764497Y-86333644D01*
X79892663Y-86326201D01*
X80004285Y-86315859D01*
X80107952Y-86302036D01*
X80173433Y-86291208D01*
X80481545Y-86223341D01*
X80753527Y-86134357D01*
X80990354Y-86023514D01*
X81193005Y-85890069D01*
X81362457Y-85733280D01*
X81499685Y-85552404D01*
X81605668Y-85346698D01*
X81671700Y-85152569D01*
X81697196Y-85023247D01*
X81713261Y-84865834D01*
X81719885Y-84693244D01*
X81719593Y-84675161D01*
X82179343Y-84675161D01*
X82184379Y-84835424D01*
X82195980Y-84985774D01*
X82213860Y-85114046D01*
X82228275Y-85178250D01*
X82312409Y-85406185D01*
X82431408Y-85611290D01*
X82583136Y-85790932D01*
X82765455Y-85942480D01*
X82927250Y-86039349D01*
X83144571Y-86137460D01*
X83377263Y-86215771D01*
X83632997Y-86276370D01*
X83919441Y-86321344D01*
X83996167Y-86330326D01*
X84102364Y-86338257D01*
X84240782Y-86343023D01*
X84402306Y-86344815D01*
X84577822Y-86343825D01*
X84758213Y-86340246D01*
X84934365Y-86334268D01*
X85097163Y-86326085D01*
X85237492Y-86315887D01*
X85346236Y-86303868D01*
X85361417Y-86301579D01*
X85677463Y-86237625D01*
X85957469Y-86151984D01*
X86201915Y-86044378D01*
X86411281Y-85914530D01*
X86586046Y-85762162D01*
X86726693Y-85586997D01*
X86793305Y-85473920D01*
X86885351Y-85253935D01*
X86945769Y-85013996D01*
X86974480Y-84762380D01*
X86974298Y-84747235D01*
X87419137Y-84747235D01*
X87445058Y-85016273D01*
X87505284Y-85260890D01*
X87599695Y-85480863D01*
X87728171Y-85675964D01*
X87890593Y-85845968D01*
X88086840Y-85990650D01*
X88303584Y-86104037D01*
X88519468Y-86183940D01*
X88773596Y-86251000D01*
X89063714Y-86304705D01*
X89340750Y-86339866D01*
X89421998Y-86344782D01*
X89536866Y-86346968D01*
X89676747Y-86346688D01*
X89833034Y-86344206D01*
X89997121Y-86339788D01*
X90160400Y-86333696D01*
X90314263Y-86326197D01*
X90450105Y-86317554D01*
X90526285Y-86310912D01*
X94576269Y-86310912D01*
X96328381Y-86305497D01*
X98080493Y-86300083D01*
X98404187Y-85882042D01*
X98727881Y-85464000D01*
X95553167Y-85464000D01*
X95553167Y-85306246D01*
X95556277Y-85221238D01*
X95564453Y-85146861D01*
X95575965Y-85098525D01*
X95576668Y-85096913D01*
X95588204Y-85073297D01*
X95601834Y-85053353D01*
X95621045Y-85036724D01*
X95649322Y-85023053D01*
X95690150Y-85011982D01*
X95747017Y-85003154D01*
X95823409Y-84996212D01*
X95922810Y-84990798D01*
X96048707Y-84986554D01*
X96204587Y-84983124D01*
X96393935Y-84980149D01*
X96620237Y-84977274D01*
X96759667Y-84975629D01*
X96999019Y-84972745D01*
X97200101Y-84970043D01*
X97366971Y-84967329D01*
X97503691Y-84964410D01*
X97614322Y-84961093D01*
X97702923Y-84957184D01*
X97773555Y-84952489D01*
X97830279Y-84946817D01*
X97877155Y-84939972D01*
X97918243Y-84931763D01*
X97957605Y-84921996D01*
X97972812Y-84917874D01*
X98181956Y-84843854D01*
X98355808Y-84746509D01*
X98455498Y-84659667D01*
X99186362Y-84659667D01*
X99187128Y-84804240D01*
X99189956Y-84915830D01*
X99195643Y-85003766D01*
X99204984Y-85077379D01*
X99218776Y-85145998D01*
X99232415Y-85199417D01*
X99315173Y-85436705D01*
X99426855Y-85644324D01*
X99568579Y-85823352D01*
X99741463Y-85974868D01*
X99946622Y-86099952D01*
X100185175Y-86199683D01*
X100306882Y-86237470D01*
X100530957Y-86288358D01*
X100783677Y-86324875D01*
X101053643Y-86346379D01*
X101329455Y-86352229D01*
X101599713Y-86341782D01*
X101801541Y-86321618D01*
X101869484Y-86310912D01*
X103826102Y-86310912D01*
X105578214Y-86305497D01*
X107330326Y-86300083D01*
X107654020Y-85882042D01*
X107977714Y-85464000D01*
X104803000Y-85464000D01*
X104803000Y-85299376D01*
X104807887Y-85190003D01*
X104825007Y-85112726D01*
X104858047Y-85058180D01*
X104910694Y-85016997D01*
X104915211Y-85014372D01*
X104937977Y-85007739D01*
X104983412Y-85001858D01*
X105054143Y-84996636D01*
X105152796Y-84991979D01*
X105281996Y-84987795D01*
X105444368Y-84983990D01*
X105642540Y-84980471D01*
X105879136Y-84977146D01*
X106009500Y-84975563D01*
X106248848Y-84972695D01*
X106449924Y-84970005D01*
X106616789Y-84967303D01*
X106753504Y-84964393D01*
X106864129Y-84961083D01*
X106952724Y-84957180D01*
X107023351Y-84952491D01*
X107080069Y-84946823D01*
X107126938Y-84939983D01*
X107168020Y-84931777D01*
X107207375Y-84922013D01*
X107222645Y-84917874D01*
X107431789Y-84843854D01*
X107605641Y-84746509D01*
X107744328Y-84625697D01*
X107847977Y-84481280D01*
X107916715Y-84313117D01*
X107950668Y-84121068D01*
X107951090Y-84115731D01*
X107948605Y-83907575D01*
X107935592Y-83844750D01*
X108295497Y-83844750D01*
X108687082Y-83850509D01*
X109078667Y-83856267D01*
X109078667Y-86310667D01*
X110073500Y-86310667D01*
X110073500Y-83008667D01*
X108892304Y-83008667D01*
X108593901Y-83426708D01*
X108295497Y-83844750D01*
X107935592Y-83844750D01*
X107909012Y-83716439D01*
X107833764Y-83544969D01*
X107724313Y-83395807D01*
X107582112Y-83271599D01*
X107443132Y-83190723D01*
X107362876Y-83154365D01*
X107282928Y-83123107D01*
X107199503Y-83096580D01*
X107108815Y-83074417D01*
X107007080Y-83056248D01*
X106890512Y-83041705D01*
X106755326Y-83030421D01*
X106597737Y-83022026D01*
X106413958Y-83016153D01*
X106200206Y-83012432D01*
X105952695Y-83010497D01*
X105667640Y-83009978D01*
X105586167Y-83010030D01*
X104623084Y-83011032D01*
X104316167Y-83415446D01*
X104229985Y-83529343D01*
X104152566Y-83632306D01*
X104087531Y-83719466D01*
X104038503Y-83785952D01*
X104009103Y-83826894D01*
X104002195Y-83837597D01*
X104021535Y-83840656D01*
X104079713Y-83843553D01*
X104173234Y-83846240D01*
X104298602Y-83848672D01*
X104452322Y-83850803D01*
X104630898Y-83852589D01*
X104830836Y-83853982D01*
X105048639Y-83854937D01*
X105280814Y-83855409D01*
X105367445Y-83855451D01*
X105688122Y-83855843D01*
X105970167Y-83856953D01*
X106213048Y-83858775D01*
X106416234Y-83861298D01*
X106579194Y-83864517D01*
X106701395Y-83868421D01*
X106782305Y-83873003D01*
X106820500Y-83877992D01*
X106907604Y-83913737D01*
X106959295Y-83966555D01*
X106981350Y-84043742D01*
X106983167Y-84083457D01*
X106968522Y-84187420D01*
X106923854Y-84262448D01*
X106859322Y-84305894D01*
X106826877Y-84312416D01*
X106759812Y-84318404D01*
X106656939Y-84323898D01*
X106517068Y-84328937D01*
X106339010Y-84333560D01*
X106121574Y-84337807D01*
X105863571Y-84341718D01*
X105723750Y-84343501D01*
X105476647Y-84346633D01*
X105268102Y-84349661D01*
X105094342Y-84352741D01*
X104951592Y-84356030D01*
X104836079Y-84359683D01*
X104744029Y-84363858D01*
X104671667Y-84368709D01*
X104615220Y-84374394D01*
X104570914Y-84381068D01*
X104534975Y-84388888D01*
X104518583Y-84393387D01*
X104324727Y-84466205D01*
X104159316Y-84561592D01*
X104025666Y-84676945D01*
X103927092Y-84809663D01*
X103889881Y-84886964D01*
X103876150Y-84923315D01*
X103865194Y-84959237D01*
X103856629Y-85000020D01*
X103850071Y-85050953D01*
X103845136Y-85117327D01*
X103841439Y-85204432D01*
X103838596Y-85317559D01*
X103836223Y-85461998D01*
X103833935Y-85643038D01*
X103833736Y-85659914D01*
X103826102Y-86310912D01*
X101869484Y-86310912D01*
X102025242Y-86286369D01*
X102218958Y-86242093D01*
X102394649Y-86185480D01*
X102564276Y-86113219D01*
X102577494Y-86106880D01*
X102782362Y-85985092D01*
X102959595Y-85832155D01*
X103107013Y-85650745D01*
X103222437Y-85443538D01*
X103302855Y-85216360D01*
X103333159Y-85063917D01*
X103352595Y-84884241D01*
X103360868Y-84691091D01*
X103357685Y-84498228D01*
X103342752Y-84319408D01*
X103324425Y-84206430D01*
X103265694Y-83985904D01*
X103185375Y-83795686D01*
X103079126Y-83627419D01*
X102943403Y-83473538D01*
X102808675Y-83354751D01*
X102663196Y-83255686D01*
X102500102Y-83173157D01*
X102312532Y-83103983D01*
X102093623Y-83044977D01*
X101956084Y-83015447D01*
X101839925Y-82998450D01*
X101691252Y-82985965D01*
X101519639Y-82977985D01*
X101334662Y-82974501D01*
X101145899Y-82975504D01*
X100962924Y-82980986D01*
X100795314Y-82990939D01*
X100652644Y-83005355D01*
X100580250Y-83016654D01*
X100293828Y-83084598D01*
X100042716Y-83174823D01*
X99825574Y-83288428D01*
X99641059Y-83426509D01*
X99487830Y-83590166D01*
X99364544Y-83780497D01*
X99269861Y-83998601D01*
X99232415Y-84119917D01*
X99214791Y-84190880D01*
X99202210Y-84259886D01*
X99193877Y-84336266D01*
X99188995Y-84429349D01*
X99186769Y-84548466D01*
X99186362Y-84659667D01*
X98455498Y-84659667D01*
X98494495Y-84625697D01*
X98598144Y-84481280D01*
X98666881Y-84313117D01*
X98700835Y-84121068D01*
X98701257Y-84115731D01*
X98698771Y-83907575D01*
X98659179Y-83716439D01*
X98583931Y-83544969D01*
X98474480Y-83395807D01*
X98332278Y-83271599D01*
X98193299Y-83190723D01*
X98113043Y-83154365D01*
X98033095Y-83123107D01*
X97949670Y-83096580D01*
X97858982Y-83074417D01*
X97757247Y-83056248D01*
X97640679Y-83041705D01*
X97505493Y-83030421D01*
X97347903Y-83022026D01*
X97164125Y-83016153D01*
X96950373Y-83012432D01*
X96702862Y-83010497D01*
X96417806Y-83009978D01*
X96336334Y-83010030D01*
X95373250Y-83011032D01*
X95066334Y-83415446D01*
X94980152Y-83529343D01*
X94902733Y-83632306D01*
X94837698Y-83719466D01*
X94788670Y-83785952D01*
X94759270Y-83826894D01*
X94752361Y-83837597D01*
X94771702Y-83840656D01*
X94829880Y-83843553D01*
X94923401Y-83846240D01*
X95048769Y-83848672D01*
X95202488Y-83850803D01*
X95381065Y-83852589D01*
X95581003Y-83853982D01*
X95798806Y-83854937D01*
X96030980Y-83855409D01*
X96117611Y-83855451D01*
X96429459Y-83855833D01*
X96705963Y-83856912D01*
X96946139Y-83858674D01*
X97149000Y-83861103D01*
X97313561Y-83864183D01*
X97438837Y-83867901D01*
X97523842Y-83872241D01*
X97567590Y-83877188D01*
X97569430Y-83877651D01*
X97657951Y-83916476D01*
X97711099Y-83976393D01*
X97732512Y-84062060D01*
X97733334Y-84087448D01*
X97717722Y-84190596D01*
X97670702Y-84265549D01*
X97609489Y-84305894D01*
X97577043Y-84312416D01*
X97509979Y-84318404D01*
X97407106Y-84323898D01*
X97267235Y-84328937D01*
X97089176Y-84333560D01*
X96871740Y-84337807D01*
X96613737Y-84341718D01*
X96473917Y-84343501D01*
X96226813Y-84346633D01*
X96018269Y-84349661D01*
X95844509Y-84352741D01*
X95701759Y-84356030D01*
X95586246Y-84359683D01*
X95494196Y-84363858D01*
X95421834Y-84368709D01*
X95365387Y-84374394D01*
X95321081Y-84381068D01*
X95285141Y-84388888D01*
X95268749Y-84393387D01*
X95074893Y-84466205D01*
X94909482Y-84561592D01*
X94775832Y-84676945D01*
X94677259Y-84809663D01*
X94640047Y-84886964D01*
X94626316Y-84923315D01*
X94615361Y-84959237D01*
X94606796Y-85000020D01*
X94600238Y-85050953D01*
X94595303Y-85117327D01*
X94591606Y-85204432D01*
X94588763Y-85317559D01*
X94586389Y-85461998D01*
X94584102Y-85643038D01*
X94583903Y-85659914D01*
X94576269Y-86310912D01*
X90526285Y-86310912D01*
X90559318Y-86308032D01*
X90617568Y-86300632D01*
X90884136Y-86248423D01*
X91124367Y-86178911D01*
X91352198Y-86087831D01*
X91423457Y-86054075D01*
X91635257Y-85930517D01*
X91812591Y-85783700D01*
X91957332Y-85611316D01*
X92071355Y-85411057D01*
X92156532Y-85180617D01*
X92168903Y-85135917D01*
X92188600Y-85051212D01*
X92201809Y-84965907D01*
X92209620Y-84868399D01*
X92213121Y-84747083D01*
X92213607Y-84659667D01*
X92212136Y-84518867D01*
X92206999Y-84408720D01*
X92197106Y-84317620D01*
X92181367Y-84233965D01*
X92168903Y-84183417D01*
X92088122Y-83948761D01*
X91976387Y-83741280D01*
X91832757Y-83560054D01*
X91656293Y-83404164D01*
X91446054Y-83272692D01*
X91201101Y-83164717D01*
X91087429Y-83126087D01*
X90947342Y-83084576D01*
X90815190Y-83051388D01*
X90683646Y-83025679D01*
X90545382Y-83006605D01*
X90393071Y-82993321D01*
X90219384Y-82984985D01*
X90016995Y-82980750D01*
X89817000Y-82979747D01*
X89631634Y-82980107D01*
X89481718Y-82981432D01*
X89360371Y-82984086D01*
X89260715Y-82988437D01*
X89175869Y-82994848D01*
X89098953Y-83003687D01*
X89023090Y-83015318D01*
X88969904Y-83024766D01*
X88658566Y-83095523D01*
X88384064Y-83186421D01*
X88145614Y-83298187D01*
X87942434Y-83431544D01*
X87773741Y-83587220D01*
X87638753Y-83765938D01*
X87536687Y-83968425D01*
X87466760Y-84195405D01*
X87428189Y-84447604D01*
X87427640Y-84454003D01*
X87419137Y-84747235D01*
X86974298Y-84747235D01*
X86971405Y-84507359D01*
X86936464Y-84257210D01*
X86869578Y-84020206D01*
X86808629Y-83876500D01*
X86695057Y-83688201D01*
X86549281Y-83522217D01*
X86370293Y-83377929D01*
X86157081Y-83254722D01*
X85908638Y-83151978D01*
X85623954Y-83069082D01*
X85414763Y-83024766D01*
X85335795Y-83011078D01*
X85260345Y-83000426D01*
X85181534Y-82992443D01*
X85092482Y-82986764D01*
X84986309Y-82983024D01*
X84856137Y-82980857D01*
X84695084Y-82979897D01*
X84567667Y-82979747D01*
X84382301Y-82980107D01*
X84232384Y-82981432D01*
X84111038Y-82984086D01*
X84011381Y-82988437D01*
X83926535Y-82994848D01*
X83849620Y-83003687D01*
X83773756Y-83015318D01*
X83720571Y-83024766D01*
X83413084Y-83094051D01*
X83142763Y-83182057D01*
X82908298Y-83289849D01*
X82708380Y-83418493D01*
X82541699Y-83569054D01*
X82406944Y-83742599D01*
X82302807Y-83940193D01*
X82227977Y-84162901D01*
X82206506Y-84256538D01*
X82190119Y-84373554D01*
X82181161Y-84517150D01*
X82179343Y-84675161D01*
X81719593Y-84675161D01*
X81717055Y-84518387D01*
X81704762Y-84354175D01*
X81682996Y-84213522D01*
X81672518Y-84169962D01*
X81593967Y-83945321D01*
X81486946Y-83746039D01*
X81350092Y-83571108D01*
X81182042Y-83419520D01*
X80981433Y-83290269D01*
X80746901Y-83182346D01*
X80477084Y-83094745D01*
X80170618Y-83026456D01*
X80111450Y-83016137D01*
X79982559Y-82999806D01*
X79820746Y-82987488D01*
X79635235Y-82979182D01*
X79435247Y-82974889D01*
X79230003Y-82974609D01*
X79028725Y-82978341D01*
X78840636Y-82986086D01*
X78674957Y-82997843D01*
X78540910Y-83013613D01*
X78525217Y-83016137D01*
X78222421Y-83079684D01*
X77950010Y-83163293D01*
X77709886Y-83266059D01*
X77503950Y-83387079D01*
X77334103Y-83525446D01*
X77241910Y-83626820D01*
X77170259Y-83731320D01*
X77098059Y-83861459D01*
X77033032Y-84001358D01*
X76982904Y-84135139D01*
X76966031Y-84194000D01*
X76952444Y-84277283D01*
X76943019Y-84399488D01*
X76937951Y-84557390D01*
X76937084Y-84670250D01*
X69592145Y-84670250D01*
X70036041Y-83433264D01*
X70877139Y-81211820D01*
X70917167Y-81108958D01*
X71158387Y-80489833D01*
X115716397Y-80489833D01*
X115966617Y-81130125D01*
G37*
X115966617Y-81130125D02*
X116782951Y-83274475D01*
X117566076Y-85444385D01*
X118315805Y-87638925D01*
X119031951Y-89857165D01*
X119714327Y-92098177D01*
X120362747Y-94361031D01*
X120977023Y-96644797D01*
X121556968Y-98948547D01*
X122102397Y-101271351D01*
X122613121Y-103612279D01*
X123088953Y-105970403D01*
X123529708Y-108344793D01*
X123935198Y-110734519D01*
X124305235Y-113138653D01*
X124639634Y-115556264D01*
X124938207Y-117986425D01*
X125200768Y-120428205D01*
X125427129Y-122880674D01*
X125617103Y-125342905D01*
X125770505Y-127813966D01*
X125887146Y-130292930D01*
X125895057Y-130496083D01*
X125913377Y-130984851D01*
X125929860Y-131449021D01*
X125944573Y-131893072D01*
X125957582Y-132321483D01*
X125968956Y-132738733D01*
X125978762Y-133149303D01*
X125987067Y-133557670D01*
X125993939Y-133968316D01*
X125999445Y-134385718D01*
X126003652Y-134814356D01*
X126006629Y-135258711D01*
X126008442Y-135723260D01*
X126009159Y-136212484D01*
X126008847Y-136730861D01*
X126007575Y-137282872D01*
X126005561Y-137836720D01*
X126003688Y-138268749D01*
X126001804Y-138662508D01*
X125999839Y-139022059D01*
X125997723Y-139351465D01*
X125995384Y-139654789D01*
X125992752Y-139936094D01*
X125989757Y-140199442D01*
X125986328Y-140448897D01*
X125982394Y-140688521D01*
X125977885Y-140922377D01*
X125972729Y-141154527D01*
X125966858Y-141389036D01*
X125960199Y-141629964D01*
X125952683Y-141881376D01*
X125944238Y-142147334D01*
X125934794Y-142431901D01*
X125924281Y-142739139D01*
X125916480Y-142963250D01*
X125807975Y-145504437D01*
X125660582Y-148039712D01*
X125474469Y-150567972D01*
X125249804Y-153088113D01*
X124986757Y-155599033D01*
X124685495Y-158099628D01*
X124346187Y-160588794D01*
X123969001Y-163065429D01*
X123554106Y-165528429D01*
X123101669Y-167976692D01*
X122611860Y-170409113D01*
X122084847Y-172824589D01*
X121520799Y-175222017D01*
X120919882Y-177600295D01*
X120282267Y-179958318D01*
X120254424Y-180057833D01*
X119591710Y-182350741D01*
X118895684Y-184617582D01*
X118166307Y-186858459D01*
X117403542Y-189073474D01*
X116607352Y-191262728D01*
X115777700Y-193426326D01*
X114914548Y-195564370D01*
X114017859Y-197676961D01*
X113087596Y-199764202D01*
X113005386Y-199943917D01*
X112894424Y-200185538D01*
X112798975Y-200392219D01*
X112717210Y-200567636D01*
X112647301Y-200715468D01*
X112587422Y-200839391D01*
X112535743Y-200943084D01*
X112490438Y-201030225D01*
X112449677Y-201104490D01*
X112411633Y-201169558D01*
X112374479Y-201229107D01*
X112342266Y-201278079D01*
X112129457Y-201557781D01*
X111886874Y-201808742D01*
X111617460Y-202029088D01*
X111324157Y-202216941D01*
X111009908Y-202370428D01*
X110677655Y-202487671D01*
X110330340Y-202566796D01*
X110316917Y-202569021D01*
X110301584Y-202570924D01*
X110278793Y-202572749D01*
X110247697Y-202574496D01*
X110207444Y-202576167D01*
X110157186Y-202577764D01*
X110096072Y-202579288D01*
X110023254Y-202580740D01*
X109937881Y-202582121D01*
X109839103Y-202583434D01*
X109726073Y-202584680D01*
X109597938Y-202585859D01*
X109453851Y-202586974D01*
X109292961Y-202588026D01*
X109114419Y-202589017D01*
X108917376Y-202589947D01*
X108700980Y-202590819D01*
X108464384Y-202591633D01*
X108206737Y-202592391D01*
X107927190Y-202593095D01*
X107624894Y-202593746D01*
X107298997Y-202594346D01*
X106948652Y-202594895D01*
X106573008Y-202595396D01*
X106171216Y-202595849D01*
X105742425Y-202596257D01*
X105285788Y-202596620D01*
X104800453Y-202596940D01*
X104285571Y-202597219D01*
X103740293Y-202597458D01*
X103163770Y-202597658D01*
X102555150Y-202597821D01*
X101913586Y-202597948D01*
X101238226Y-202598041D01*
X100528223Y-202598101D01*
X99782725Y-202598130D01*
X99000884Y-202598129D01*
X98181849Y-202598099D01*
X97324772Y-202598042D01*
X96428802Y-202597960D01*
X95493090Y-202597853D01*
X94516787Y-202597723D01*
X93499042Y-202597572D01*
X93447084Y-202597564D01*
X92607230Y-202597411D01*
X91777472Y-202597216D01*
X90958830Y-202596979D01*
X90152325Y-202596703D01*
X89358977Y-202596389D01*
X88579807Y-202596037D01*
X87815836Y-202595649D01*
X87068084Y-202595226D01*
X86337573Y-202594770D01*
X85625321Y-202594281D01*
X84932351Y-202593761D01*
X84259683Y-202593212D01*
X83608337Y-202592633D01*
X82979335Y-202592027D01*
X82373696Y-202591395D01*
X81792441Y-202590738D01*
X81236592Y-202590057D01*
X80707168Y-202589354D01*
X80205190Y-202588629D01*
X79731680Y-202587884D01*
X79287657Y-202587121D01*
X78874142Y-202586340D01*
X78492156Y-202585542D01*
X78142719Y-202584729D01*
X77826853Y-202583903D01*
X77545577Y-202583063D01*
X77299913Y-202582212D01*
X77090881Y-202581351D01*
X76919501Y-202580481D01*
X76786795Y-202579603D01*
X76693783Y-202578719D01*
X76641485Y-202577829D01*
X76630167Y-202577306D01*
X76285523Y-202512401D01*
X75954133Y-202409023D01*
X75639029Y-202269304D01*
X75343243Y-202095375D01*
X75069810Y-201889370D01*
X74821760Y-201653419D01*
X74602128Y-201389656D01*
X74413947Y-201100211D01*
X74344515Y-200970500D01*
X74262673Y-200804485D01*
X74166082Y-200602864D01*
X74056283Y-200369103D01*
X73934818Y-200106670D01*
X73803225Y-199819034D01*
X73663046Y-199509661D01*
X73515820Y-199182019D01*
X73363089Y-198839576D01*
X73206392Y-198485799D01*
X73047269Y-198124156D01*
X72887261Y-197758115D01*
X72727909Y-197391142D01*
X72570752Y-197026706D01*
X72417331Y-196668274D01*
X72269186Y-196319313D01*
X72127858Y-195983292D01*
X72106763Y-195932833D01*
X71238065Y-193800191D01*
X70403007Y-191642391D01*
X69601743Y-189460177D01*
X68834428Y-187254295D01*
X68101218Y-185025488D01*
X67402267Y-182774501D01*
X66737730Y-180502078D01*
X66107763Y-178208965D01*
X65512521Y-175895905D01*
X64952158Y-173563643D01*
X64426831Y-171212924D01*
X63936693Y-168844492D01*
X63481900Y-166459091D01*
X63428191Y-166151448D01*
X105842157Y-166151448D01*
X113488845Y-166140750D01*
X113844659Y-164955417D01*
X113909301Y-164739823D01*
X113970169Y-164536331D01*
X114026193Y-164348554D01*
X114076301Y-164180103D01*
X114119424Y-164034591D01*
X114154490Y-163915629D01*
X114180429Y-163826829D01*
X114196170Y-163771803D01*
X114200736Y-163754208D01*
X114179949Y-163752551D01*
X114118939Y-163750941D01*
X114019815Y-163749388D01*
X113884687Y-163747900D01*
X113715667Y-163746487D01*
X113514862Y-163745156D01*
X113284384Y-163743917D01*
X113026343Y-163742779D01*
X112742847Y-163741751D01*
X112436008Y-163740840D01*
X112107936Y-163740056D01*
X111760739Y-163739408D01*
X111396528Y-163738904D01*
X111017414Y-163738554D01*
X110625506Y-163738365D01*
X110383594Y-163738333D01*
X106566188Y-163738333D01*
X106232603Y-164850422D01*
X106169082Y-165062180D01*
X106108487Y-165264174D01*
X106052045Y-165452311D01*
X106000985Y-165622500D01*
X105956533Y-165770649D01*
X105919918Y-165892666D01*
X105892367Y-165984461D01*
X105875108Y-166041942D01*
X105870588Y-166056979D01*
X105842157Y-166151448D01*
X63428191Y-166151448D01*
X63417107Y-166087965D01*
X71385024Y-166087965D01*
X74687611Y-166082608D01*
X77990197Y-166077250D01*
X77998134Y-166050792D01*
X89923546Y-166050792D01*
X89944211Y-166052732D01*
X90004735Y-166054605D01*
X90102640Y-166056395D01*
X90235452Y-166058089D01*
X90400694Y-166059673D01*
X90595892Y-166061131D01*
X90818569Y-166062451D01*
X91066250Y-166063618D01*
X91336459Y-166064617D01*
X91626721Y-166065434D01*
X91934560Y-166066056D01*
X92257500Y-166066468D01*
X92593066Y-166066656D01*
X92694386Y-166066667D01*
X95465938Y-166066667D01*
X95518806Y-165892042D01*
X95535945Y-165835232D01*
X95563711Y-165742941D01*
X95600585Y-165620239D01*
X95645043Y-165472194D01*
X95695562Y-165303878D01*
X95750621Y-165120361D01*
X95808698Y-164926712D01*
X95850842Y-164786143D01*
X95908184Y-164595016D01*
X95961998Y-164415953D01*
X96011026Y-164253114D01*
X96054012Y-164110660D01*
X96089699Y-163992751D01*
X96116831Y-163903547D01*
X96134151Y-163847208D01*
X96140217Y-163828273D01*
X96134397Y-163824337D01*
X96112534Y-163820819D01*
X96072802Y-163817705D01*
X96013373Y-163814981D01*
X95932421Y-163812633D01*
X95828117Y-163810646D01*
X95698636Y-163809007D01*
X95542149Y-163807702D01*
X95356830Y-163806717D01*
X95140853Y-163806037D01*
X94892388Y-163805650D01*
X94609611Y-163805540D01*
X94290693Y-163805694D01*
X93933807Y-163806097D01*
X93537127Y-163806737D01*
X93371596Y-163807046D01*
X90592770Y-163812417D01*
X90258514Y-164923667D01*
X90195842Y-165132262D01*
X90136971Y-165328670D01*
X90083012Y-165509155D01*
X90035073Y-165669983D01*
X89994264Y-165807422D01*
X89961696Y-165917737D01*
X89938477Y-165997193D01*
X89925718Y-166042058D01*
X89923546Y-166050792D01*
X77998134Y-166050792D01*
X78263236Y-165167083D01*
X78322840Y-164968392D01*
X78381276Y-164773593D01*
X78436866Y-164588278D01*
X78487933Y-164418040D01*
X78532799Y-164268469D01*
X78569787Y-164145157D01*
X78597220Y-164053698D01*
X78607708Y-164018725D01*
X78679143Y-163780534D01*
X75376556Y-163785892D01*
X72073970Y-163791250D01*
X71800931Y-164701417D01*
X71741327Y-164900108D01*
X71682891Y-165094906D01*
X71627301Y-165280221D01*
X71576234Y-165450460D01*
X71531368Y-165600031D01*
X71494380Y-165723342D01*
X71466947Y-165814802D01*
X71456459Y-165849774D01*
X71385024Y-166087965D01*
X63417107Y-166087965D01*
X63062607Y-164057466D01*
X62678970Y-161640361D01*
X62331143Y-159208521D01*
X62019281Y-156762691D01*
X61743539Y-154303615D01*
X61504073Y-151832037D01*
X61301038Y-149348701D01*
X61134588Y-146854353D01*
X61004879Y-144349737D01*
X60924932Y-142254167D01*
X60900806Y-141407833D01*
X60881274Y-140526667D01*
X60866335Y-139617918D01*
X60855989Y-138688835D01*
X60850236Y-137746671D01*
X60849076Y-136798673D01*
X60852508Y-135852093D01*
X60860534Y-134914181D01*
X60873152Y-133992187D01*
X60874982Y-133896614D01*
X64734500Y-133896614D01*
X64734501Y-135009044D01*
X64734503Y-136079932D01*
X64734508Y-137110072D01*
X64734519Y-138100255D01*
X64734536Y-139051273D01*
X64734562Y-139963920D01*
X64734598Y-140838986D01*
X64734645Y-141677264D01*
X64734706Y-142479546D01*
X64734782Y-143246625D01*
X64734875Y-143979293D01*
X64734985Y-144678341D01*
X64735116Y-145344563D01*
X64735269Y-145978750D01*
X64735445Y-146581694D01*
X64735645Y-147154189D01*
X64735873Y-147697025D01*
X64736128Y-148210995D01*
X64736413Y-148696891D01*
X64736730Y-149155506D01*
X64737081Y-149587632D01*
X64737466Y-149994061D01*
X64737887Y-150375585D01*
X64738347Y-150732996D01*
X64738847Y-151067087D01*
X64739388Y-151378649D01*
X64739972Y-151668475D01*
X64740601Y-151937358D01*
X64741276Y-152186089D01*
X64742000Y-152415460D01*
X64742773Y-152626265D01*
X64743597Y-152819294D01*
X64744475Y-152995340D01*
X64745407Y-153155196D01*
X64746396Y-153299653D01*
X64747443Y-153429504D01*
X64748549Y-153545541D01*
X64749717Y-153648556D01*
X64750948Y-153739342D01*
X64752243Y-153818690D01*
X64753605Y-153887393D01*
X64755035Y-153946243D01*
X64756534Y-153996032D01*
X64758104Y-154037552D01*
X64759748Y-154071597D01*
X64761466Y-154098957D01*
X64763260Y-154120424D01*
X64765132Y-154136793D01*
X64767083Y-154148853D01*
X64769116Y-154157398D01*
X64771232Y-154163220D01*
X64773432Y-154167111D01*
X64775718Y-154169864D01*
X64776834Y-154171000D01*
X64778932Y-154172967D01*
X64781678Y-154174872D01*
X64785736Y-154176716D01*
X64791775Y-154178500D01*
X64800461Y-154180225D01*
X64812461Y-154181893D01*
X64828443Y-154183503D01*
X64849073Y-154185058D01*
X64875019Y-154186557D01*
X64906948Y-154188003D01*
X64945526Y-154189395D01*
X64991422Y-154190736D01*
X65045301Y-154192025D01*
X65107830Y-154193265D01*
X65179678Y-154194456D01*
X65261511Y-154195598D01*
X65353996Y-154196693D01*
X65457800Y-154197743D01*
X65573590Y-154198747D01*
X65702033Y-154199707D01*
X65843797Y-154200624D01*
X65999547Y-154201499D01*
X66169953Y-154202333D01*
X66355680Y-154203127D01*
X66557395Y-154203882D01*
X66775766Y-154204598D01*
X67011459Y-154205277D01*
X67265142Y-154205921D01*
X67537482Y-154206529D01*
X67829146Y-154207102D01*
X68140801Y-154207643D01*
X68473113Y-154208151D01*
X68826751Y-154208629D01*
X69202380Y-154209076D01*
X69600669Y-154209493D01*
X70022284Y-154209883D01*
X70467892Y-154210245D01*
X70938160Y-154210581D01*
X71433756Y-154210891D01*
X71955345Y-154211178D01*
X72503597Y-154211441D01*
X73079177Y-154211681D01*
X73682752Y-154211901D01*
X74314990Y-154212100D01*
X74976558Y-154212279D01*
X75668123Y-154212441D01*
X76390351Y-154212585D01*
X77143910Y-154212712D01*
X77929467Y-154212825D01*
X78747689Y-154212922D01*
X79599243Y-154213007D01*
X80484796Y-154213079D01*
X81405015Y-154213139D01*
X82360568Y-154213189D01*
X83352121Y-154213230D01*
X84380341Y-154213262D01*
X85445895Y-154213287D01*
X86549451Y-154213305D01*
X87691675Y-154213318D01*
X88873235Y-154213326D01*
X90094797Y-154213330D01*
X91357029Y-154213333D01*
X94644321Y-154213333D01*
X95926892Y-154213332D01*
X97168464Y-154213328D01*
X98369703Y-154213322D01*
X99531278Y-154213312D01*
X100653854Y-154213296D01*
X101738100Y-154213275D01*
X102784681Y-154213247D01*
X103794266Y-154213210D01*
X104767521Y-154213165D01*
X105705113Y-154213110D01*
X106607710Y-154213044D01*
X107475977Y-154212966D01*
X108310584Y-154212875D01*
X109112195Y-154212770D01*
X109881479Y-154212650D01*
X110619103Y-154212514D01*
X111325734Y-154212361D01*
X112002038Y-154212191D01*
X112648683Y-154212002D01*
X113266336Y-154211792D01*
X113855663Y-154211562D01*
X114417333Y-154211310D01*
X114952012Y-154211036D01*
X115460366Y-154210737D01*
X115943064Y-154210414D01*
X116400772Y-154210065D01*
X116834157Y-154209689D01*
X117243887Y-154209285D01*
X117630628Y-154208853D01*
X117995047Y-154208391D01*
X118337812Y-154207898D01*
X118659589Y-154207374D01*
X118961046Y-154206816D01*
X119242849Y-154206225D01*
X119505666Y-154205600D01*
X119750164Y-154204938D01*
X119977010Y-154204240D01*
X120186870Y-154203505D01*
X120380413Y-154202730D01*
X120558304Y-154201916D01*
X120721212Y-154201062D01*
X120869802Y-154200166D01*
X121004743Y-154199227D01*
X121126701Y-154198244D01*
X121236344Y-154197218D01*
X121334337Y-154196145D01*
X121421349Y-154195026D01*
X121498047Y-154193859D01*
X121565097Y-154192644D01*
X121623166Y-154191379D01*
X121672922Y-154190064D01*
X121715032Y-154188697D01*
X121750163Y-154187278D01*
X121778981Y-154185805D01*
X121802154Y-154184278D01*
X121820349Y-154182696D01*
X121834233Y-154181056D01*
X121844473Y-154179360D01*
X121851737Y-154177605D01*
X121856690Y-154175790D01*
X121860001Y-154173916D01*
X121862335Y-154171979D01*
X121863334Y-154171000D01*
X121865661Y-154168511D01*
X121867902Y-154165258D01*
X121870058Y-154160451D01*
X121872130Y-154153296D01*
X121874120Y-154143002D01*
X121876030Y-154128775D01*
X121877861Y-154109825D01*
X121879615Y-154085357D01*
X121881293Y-154054581D01*
X121882898Y-154016704D01*
X121884431Y-153970933D01*
X121885894Y-153916477D01*
X121887287Y-153852542D01*
X121888614Y-153778338D01*
X121889875Y-153693071D01*
X121891073Y-153595949D01*
X121892208Y-153486180D01*
X121893283Y-153362972D01*
X121894299Y-153225532D01*
X121895258Y-153073069D01*
X121896161Y-152904789D01*
X121897011Y-152719901D01*
X121897808Y-152517612D01*
X121898555Y-152297130D01*
X121899253Y-152057663D01*
X121899904Y-151798419D01*
X121900509Y-151518604D01*
X121901070Y-151217428D01*
X121901589Y-150894097D01*
X121902068Y-150547820D01*
X121902507Y-150177803D01*
X121902909Y-149783256D01*
X121903276Y-149363385D01*
X121903608Y-148917398D01*
X121903908Y-148444504D01*
X121904178Y-147943909D01*
X121904418Y-147414821D01*
X121904631Y-146856449D01*
X121904818Y-146268000D01*
X121904982Y-145648681D01*
X121905123Y-144997701D01*
X121905243Y-144314267D01*
X121905344Y-143597586D01*
X121905427Y-142846867D01*
X121905495Y-142061317D01*
X121905548Y-141240145D01*
X121905590Y-140382557D01*
X121905620Y-139487761D01*
X121905641Y-138554966D01*
X121905655Y-137583378D01*
X121905662Y-136572206D01*
X121905666Y-135520657D01*
X121905667Y-134427940D01*
X121905667Y-133900292D01*
X121905664Y-132784559D01*
X121905653Y-131710374D01*
X121905633Y-130676954D01*
X121905604Y-129683514D01*
X121905563Y-128729268D01*
X121905509Y-127813433D01*
X121905441Y-126935223D01*
X121905357Y-126093855D01*
X121905256Y-125288543D01*
X121905138Y-124518502D01*
X121904999Y-123782950D01*
X121904840Y-123081099D01*
X121904658Y-122412167D01*
X121904452Y-121775369D01*
X121904222Y-121169919D01*
X121903965Y-120595034D01*
X121903680Y-120049928D01*
X121903366Y-119533817D01*
X121903022Y-119045917D01*
X121902646Y-118585443D01*
X121902237Y-118151609D01*
X121901793Y-117743633D01*
X121901313Y-117360729D01*
X121900796Y-117002112D01*
X121900240Y-116666997D01*
X121899645Y-116354602D01*
X121899008Y-116064139D01*
X121898328Y-115794826D01*
X121897605Y-115545877D01*
X121896836Y-115316508D01*
X121896020Y-115105934D01*
X121895156Y-114913371D01*
X121894243Y-114738034D01*
X121893279Y-114579138D01*
X121892262Y-114435899D01*
X121891192Y-114307532D01*
X121890068Y-114193253D01*
X121888887Y-114092277D01*
X121887648Y-114003819D01*
X121886351Y-113927095D01*
X121884993Y-113861320D01*
X121883573Y-113805710D01*
X121882091Y-113759480D01*
X121880544Y-113721845D01*
X121878931Y-113692021D01*
X121877252Y-113669222D01*
X121875503Y-113652666D01*
X121873685Y-113641566D01*
X121871796Y-113635139D01*
X121870636Y-113633208D01*
X121868170Y-113631409D01*
X121863634Y-113629666D01*
X121856365Y-113627979D01*
X121845695Y-113626347D01*
X121830960Y-113624769D01*
X121811494Y-113623243D01*
X121786630Y-113621770D01*
X121755704Y-113620348D01*
X121718050Y-113618976D01*
X121673003Y-113617654D01*
X121619895Y-113616379D01*
X121558063Y-113615153D01*
X121486839Y-113613973D01*
X121405560Y-113612839D01*
X121313558Y-113611749D01*
X121210168Y-113610704D01*
X121094725Y-113609702D01*
X120966564Y-113608741D01*
X120825017Y-113607823D01*
X120669420Y-113606944D01*
X120499108Y-113606105D01*
X120313413Y-113605304D01*
X120111672Y-113604541D01*
X119893217Y-113603814D01*
X119657384Y-113603124D01*
X119403507Y-113602468D01*
X119130920Y-113601846D01*
X118838958Y-113601258D01*
X118526954Y-113600702D01*
X118194244Y-113600176D01*
X117840162Y-113599682D01*
X117464041Y-113599217D01*
X117065217Y-113598780D01*
X116643023Y-113598371D01*
X116196794Y-113597989D01*
X115725865Y-113597633D01*
X115229569Y-113597302D01*
X114707242Y-113596995D01*
X114158217Y-113596711D01*
X113581829Y-113596449D01*
X112977412Y-113596209D01*
X112344300Y-113595989D01*
X111681828Y-113595788D01*
X110989331Y-113595607D01*
X110266142Y-113595443D01*
X109511596Y-113595296D01*
X108725027Y-113595165D01*
X107905770Y-113595049D01*
X107053159Y-113594947D01*
X106166528Y-113594858D01*
X105245212Y-113594782D01*
X104288545Y-113594717D01*
X103295861Y-113594663D01*
X102266496Y-113594618D01*
X101199782Y-113594583D01*
X100095055Y-113594554D01*
X98951648Y-113594533D01*
X97768897Y-113594518D01*
X96546135Y-113594508D01*
X95282697Y-113594503D01*
X93977918Y-113594500D01*
X93323761Y-113594500D01*
X91995303Y-113594502D01*
X90708517Y-113594509D01*
X89462744Y-113594523D01*
X88257322Y-113594543D01*
X87091591Y-113594570D01*
X85964891Y-113594606D01*
X84876561Y-113594651D01*
X83825941Y-113594706D01*
X82812369Y-113594771D01*
X81835186Y-113594848D01*
X80893730Y-113594938D01*
X79987342Y-113595041D01*
X79115361Y-113595158D01*
X78277126Y-113595289D01*
X77471977Y-113595436D01*
X76699252Y-113595600D01*
X75958292Y-113595781D01*
X75248437Y-113595980D01*
X74569024Y-113596197D01*
X73919395Y-113596435D01*
X73298888Y-113596693D01*
X72706842Y-113596972D01*
X72142598Y-113597273D01*
X71605495Y-113597597D01*
X71094872Y-113597945D01*
X70610068Y-113598318D01*
X70150424Y-113598716D01*
X69715278Y-113599139D01*
X69303970Y-113599590D01*
X68915839Y-113600069D01*
X68550226Y-113600576D01*
X68206468Y-113601113D01*
X67883906Y-113601680D01*
X67581880Y-113602278D01*
X67299728Y-113602908D01*
X67036791Y-113603570D01*
X66792407Y-113604266D01*
X66565916Y-113604996D01*
X66356657Y-113605761D01*
X66163970Y-113606562D01*
X65987195Y-113607400D01*
X65825671Y-113608275D01*
X65678737Y-113609188D01*
X65545732Y-113610141D01*
X65425997Y-113611134D01*
X65318870Y-113612167D01*
X65223692Y-113613242D01*
X65139801Y-113614359D01*
X65066537Y-113615520D01*
X65003239Y-113616724D01*
X64949248Y-113617973D01*
X64903901Y-113619268D01*
X64866540Y-113620609D01*
X64836502Y-113621998D01*
X64813129Y-113623434D01*
X64795758Y-113624919D01*
X64783731Y-113626454D01*
X64776385Y-113628040D01*
X64773209Y-113629530D01*
X64771079Y-113632326D01*
X64769029Y-113637313D01*
X64767057Y-113645281D01*
X64765161Y-113657022D01*
X64763340Y-113673325D01*
X64761593Y-113694981D01*
X64759918Y-113722782D01*
X64758313Y-113757517D01*
X64756777Y-113799977D01*
X64755308Y-113850953D01*
X64753906Y-113911235D01*
X64752567Y-113981614D01*
X64751292Y-114062880D01*
X64750078Y-114155824D01*
X64748924Y-114261237D01*
X64747828Y-114379909D01*
X64746789Y-114512631D01*
X64745805Y-114660193D01*
X64744875Y-114823386D01*
X64743998Y-115003000D01*
X64743171Y-115199827D01*
X64742394Y-115414656D01*
X64741664Y-115648278D01*
X64740980Y-115901484D01*
X64740342Y-116175065D01*
X64739746Y-116469810D01*
X64739193Y-116786511D01*
X64738679Y-117125958D01*
X64738205Y-117488942D01*
X64737767Y-117876253D01*
X64737365Y-118288682D01*
X64736998Y-118727019D01*
X64736663Y-119192056D01*
X64736359Y-119684582D01*
X64736085Y-120205388D01*
X64735839Y-120755265D01*
X64735620Y-121335003D01*
X64735426Y-121945393D01*
X64735255Y-122587226D01*
X64735107Y-123261292D01*
X64734979Y-123968382D01*
X64734870Y-124709285D01*
X64734779Y-125484794D01*
X64734704Y-126295698D01*
X64734643Y-127142788D01*
X64734596Y-128026855D01*
X64734560Y-128948688D01*
X64734534Y-129909080D01*
X64734516Y-130908819D01*
X64734506Y-131948698D01*
X64734501Y-133029506D01*
X64734500Y-133896614D01*
X60874982Y-133896614D01*
X60890363Y-133093361D01*
X60912167Y-132224954D01*
X60925001Y-131797833D01*
X61025840Y-129231418D01*
X61164574Y-126677774D01*
X61341112Y-124137370D01*
X61555359Y-121610680D01*
X61807224Y-119098174D01*
X62096613Y-116600324D01*
X62423432Y-114117601D01*
X62787590Y-111650476D01*
X63013448Y-110271333D01*
X74799838Y-110271333D01*
X75370162Y-110842833D01*
X82493334Y-110842833D01*
X82493334Y-110271333D01*
X84303672Y-110271333D01*
X84588834Y-110557083D01*
X84873995Y-110842833D01*
X90230338Y-110842833D01*
X90800662Y-110271333D01*
X93828672Y-110271333D01*
X94113834Y-110557083D01*
X94398995Y-110842833D01*
X97363505Y-110842833D01*
X97933829Y-110271333D01*
X98579712Y-110271333D01*
X98870898Y-110556336D01*
X99162084Y-110841338D01*
X100644044Y-110842086D01*
X102126005Y-110842833D01*
X102696329Y-110271333D01*
X105099334Y-110271333D01*
X105099334Y-110842833D01*
X111629838Y-110842833D01*
X112200162Y-110271333D01*
X105099334Y-110271333D01*
X102696329Y-110271333D01*
X98579712Y-110271333D01*
X97933829Y-110271333D01*
X93828672Y-110271333D01*
X90800662Y-110271333D01*
X84303672Y-110271333D01*
X82493334Y-110271333D01*
X74799838Y-110271333D01*
X63013448Y-110271333D01*
X63188993Y-109199422D01*
X63316188Y-108493333D01*
X73603334Y-108493333D01*
X73603334Y-109064833D01*
X82493334Y-109064833D01*
X82493334Y-108493333D01*
X83107167Y-108493333D01*
X83107167Y-109064833D01*
X91997167Y-109064833D01*
X91997167Y-108493333D01*
X92632167Y-108493333D01*
X92632167Y-109064833D01*
X103892834Y-109064833D01*
X103892834Y-108493333D01*
X105099334Y-108493333D01*
X105099334Y-109064833D01*
X113417834Y-109064833D01*
X113417834Y-108493333D01*
X105099334Y-108493333D01*
X103892834Y-108493333D01*
X92632167Y-108493333D01*
X91997167Y-108493333D01*
X83107167Y-108493333D01*
X82493334Y-108493333D01*
X73603334Y-108493333D01*
X63316188Y-108493333D01*
X63529715Y-107308000D01*
X73603334Y-107308000D01*
X73603334Y-107879500D01*
X76545500Y-107879500D01*
X76545500Y-107308000D01*
X83107167Y-107308000D01*
X83107167Y-107879500D01*
X86049334Y-107879500D01*
X86049334Y-107308000D01*
X89055000Y-107308000D01*
X89055000Y-107879500D01*
X91997167Y-107879500D01*
X91997167Y-107308000D01*
X92632167Y-107308000D01*
X92632167Y-107879500D01*
X95574334Y-107879500D01*
X95574334Y-107308000D01*
X96780834Y-107308000D01*
X96780834Y-107879500D01*
X99744167Y-107879500D01*
X99744167Y-107308000D01*
X100950667Y-107308000D01*
X100950667Y-107879500D01*
X103892834Y-107879500D01*
X103892834Y-107308000D01*
X110454500Y-107308000D01*
X110454500Y-107879500D01*
X113417834Y-107879500D01*
X113417834Y-107308000D01*
X110454500Y-107308000D01*
X103892834Y-107308000D01*
X100950667Y-107308000D01*
X99744167Y-107308000D01*
X96780834Y-107308000D01*
X95574334Y-107308000D01*
X92632167Y-107308000D01*
X91997167Y-107308000D01*
X89055000Y-107308000D01*
X86049334Y-107308000D01*
X83107167Y-107308000D01*
X76545500Y-107308000D01*
X73603334Y-107308000D01*
X63529715Y-107308000D01*
X63627549Y-106764908D01*
X63758066Y-106101500D01*
X73603334Y-106101500D01*
X73603334Y-106673000D01*
X76545500Y-106673000D01*
X76545500Y-106101500D01*
X83107167Y-106101500D01*
X83107167Y-106673000D01*
X86049334Y-106673000D01*
X86049334Y-106101500D01*
X89055000Y-106101500D01*
X89055000Y-106673000D01*
X91997167Y-106673000D01*
X91997167Y-106101500D01*
X92632167Y-106101500D01*
X92632167Y-106673000D01*
X95574334Y-106673000D01*
X95574334Y-106101500D01*
X96780834Y-106101500D01*
X96780834Y-106673000D01*
X99744167Y-106673000D01*
X99744167Y-106101500D01*
X100950667Y-106101500D01*
X100950667Y-106673000D01*
X103892834Y-106673000D01*
X103892834Y-106101500D01*
X105110505Y-106101500D01*
X105680829Y-106673000D01*
X113417834Y-106673000D01*
X113417834Y-106101500D01*
X105110505Y-106101500D01*
X103892834Y-106101500D01*
X100950667Y-106101500D01*
X99744167Y-106101500D01*
X96780834Y-106101500D01*
X95574334Y-106101500D01*
X92632167Y-106101500D01*
X91997167Y-106101500D01*
X89055000Y-106101500D01*
X86049334Y-106101500D01*
X83107167Y-106101500D01*
X76545500Y-106101500D01*
X73603334Y-106101500D01*
X63758066Y-106101500D01*
X64103164Y-104347408D01*
X64488827Y-102541652D01*
X73603334Y-102541652D01*
X73603334Y-105487667D01*
X76545500Y-105487667D01*
X76545500Y-103709667D01*
X82493334Y-103709667D01*
X82493334Y-102534730D01*
X83107167Y-102534730D01*
X83107167Y-105487667D01*
X86049334Y-105487667D01*
X86049334Y-103709667D01*
X89055000Y-103709667D01*
X89055000Y-105487667D01*
X91997167Y-105487667D01*
X91997167Y-102535101D01*
X91102969Y-101640717D01*
X90208770Y-100746333D01*
X92632167Y-100746333D01*
X92632167Y-105487667D01*
X95574334Y-105487667D01*
X95574334Y-100746333D01*
X96780834Y-100746333D01*
X96780834Y-105487667D01*
X99744167Y-105487667D01*
X99744167Y-100746333D01*
X100950667Y-100746333D01*
X100950667Y-105487667D01*
X103892834Y-105487667D01*
X103892834Y-102534730D01*
X104506667Y-102534730D01*
X104506667Y-105487667D01*
X112793128Y-105487667D01*
X112211334Y-104905583D01*
X111629539Y-104323500D01*
X107470000Y-104323500D01*
X107470000Y-103709667D01*
X112804000Y-103709667D01*
X112804000Y-100746333D01*
X106295435Y-100746333D01*
X105401051Y-101640531D01*
X104506667Y-102534730D01*
X103892834Y-102534730D01*
X103892834Y-100746333D01*
X100950667Y-100746333D01*
X99744167Y-100746333D01*
X96780834Y-100746333D01*
X95574334Y-100746333D01*
X92632167Y-100746333D01*
X90208770Y-100746333D01*
X84895935Y-100746333D01*
X84001551Y-101640531D01*
X83107167Y-102534730D01*
X82493334Y-102534730D01*
X82493334Y-100746333D01*
X75367673Y-100746333D01*
X74485503Y-101643993D01*
X73603334Y-102541652D01*
X64488827Y-102541652D01*
X64615746Y-101947392D01*
X65165201Y-99565331D01*
X65751437Y-97201698D01*
X66374360Y-94856963D01*
X67033878Y-92531598D01*
X67675510Y-90406230D01*
X70026167Y-90406230D01*
X70026167Y-93369939D01*
X70909969Y-94253553D01*
X71793770Y-95137167D01*
X75974000Y-95137167D01*
X75974000Y-95751000D01*
X70618834Y-95751000D01*
X70618834Y-98714333D01*
X77148563Y-98714333D01*
X78916167Y-96947105D01*
X78916371Y-93962417D01*
X78021977Y-93079844D01*
X77127584Y-92197271D01*
X75047959Y-92196136D01*
X72968334Y-92195000D01*
X72968334Y-91581167D01*
X78323500Y-91581167D01*
X78323500Y-88617833D01*
X79530000Y-88617833D01*
X79530000Y-98714333D01*
X82493334Y-98714333D01*
X82493334Y-95137167D01*
X86673939Y-95137167D01*
X88441167Y-93369563D01*
X88441167Y-90406601D01*
X88440797Y-90406230D01*
X89055000Y-90406230D01*
X89055000Y-98714333D01*
X91997167Y-98714333D01*
X91997167Y-95136883D01*
X93494709Y-95142316D01*
X94992250Y-95147750D01*
X94997662Y-96931042D01*
X95003074Y-98714333D01*
X97945000Y-98714333D01*
X97945000Y-90406601D01*
X97944630Y-90406230D01*
X98558834Y-90406230D01*
X98558834Y-96925565D01*
X100347230Y-98714333D01*
X107470000Y-98714333D01*
X107470000Y-95751000D01*
X101522167Y-95751000D01*
X101522167Y-91581167D01*
X107470000Y-91581167D01*
X107470000Y-88617833D01*
X108083834Y-88617833D01*
X108083834Y-98714333D01*
X116973834Y-98714333D01*
X116973834Y-95751000D01*
X111026000Y-95751000D01*
X111026000Y-95137167D01*
X114603167Y-95137167D01*
X114603167Y-92195000D01*
X111026000Y-92195000D01*
X111026000Y-91581167D01*
X116973834Y-91581167D01*
X116973834Y-88617833D01*
X108083834Y-88617833D01*
X107470000Y-88617833D01*
X100347601Y-88617833D01*
X99453217Y-89512031D01*
X98558834Y-90406230D01*
X97944630Y-90406230D01*
X96156604Y-88617833D01*
X90843768Y-88617833D01*
X89949384Y-89512031D01*
X89055000Y-90406230D01*
X88440797Y-90406230D01*
X87546969Y-89512217D01*
X86652770Y-88617833D01*
X79530000Y-88617833D01*
X78323500Y-88617833D01*
X71814935Y-88617833D01*
X70920551Y-89512031D01*
X70026167Y-90406230D01*
X67675510Y-90406230D01*
X67729898Y-90226074D01*
X68462327Y-87940863D01*
X69231073Y-85676436D01*
X69592145Y-84670250D01*
X76937084Y-84670250D01*
X76937702Y-84808439D01*
X76940143Y-84913481D01*
X76945283Y-84994550D01*
X76954000Y-85060822D01*
X76967169Y-85121472D01*
X76985669Y-85185675D01*
X76986653Y-85188833D01*
X77069074Y-85403975D01*
X77175241Y-85594235D01*
X77307062Y-85760799D01*
X77466448Y-85904852D01*
X77655309Y-86027578D01*
X77875555Y-86130163D01*
X78129095Y-86213792D01*
X78417840Y-86279648D01*
X78743699Y-86328918D01*
X78842084Y-86339927D01*
X78887322Y-86342179D01*
X78967642Y-86343648D01*
X79075795Y-86344307D01*
X79204536Y-86344128D01*
X79346618Y-86343082D01*
X79424167Y-86342176D01*
X79611195Y-86338774D01*
X79764497Y-86333644D01*
X79892663Y-86326201D01*
X80004285Y-86315859D01*
X80107952Y-86302036D01*
X80173433Y-86291208D01*
X80481545Y-86223341D01*
X80753527Y-86134357D01*
X80990354Y-86023514D01*
X81193005Y-85890069D01*
X81362457Y-85733280D01*
X81499685Y-85552404D01*
X81605668Y-85346698D01*
X81671700Y-85152569D01*
X81697196Y-85023247D01*
X81713261Y-84865834D01*
X81719885Y-84693244D01*
X81719593Y-84675161D01*
X82179343Y-84675161D01*
X82184379Y-84835424D01*
X82195980Y-84985774D01*
X82213860Y-85114046D01*
X82228275Y-85178250D01*
X82312409Y-85406185D01*
X82431408Y-85611290D01*
X82583136Y-85790932D01*
X82765455Y-85942480D01*
X82927250Y-86039349D01*
X83144571Y-86137460D01*
X83377263Y-86215771D01*
X83632997Y-86276370D01*
X83919441Y-86321344D01*
X83996167Y-86330326D01*
X84102364Y-86338257D01*
X84240782Y-86343023D01*
X84402306Y-86344815D01*
X84577822Y-86343825D01*
X84758213Y-86340246D01*
X84934365Y-86334268D01*
X85097163Y-86326085D01*
X85237492Y-86315887D01*
X85346236Y-86303868D01*
X85361417Y-86301579D01*
X85677463Y-86237625D01*
X85957469Y-86151984D01*
X86201915Y-86044378D01*
X86411281Y-85914530D01*
X86586046Y-85762162D01*
X86726693Y-85586997D01*
X86793305Y-85473920D01*
X86885351Y-85253935D01*
X86945769Y-85013996D01*
X86974480Y-84762380D01*
X86974298Y-84747235D01*
X87419137Y-84747235D01*
X87445058Y-85016273D01*
X87505284Y-85260890D01*
X87599695Y-85480863D01*
X87728171Y-85675964D01*
X87890593Y-85845968D01*
X88086840Y-85990650D01*
X88303584Y-86104037D01*
X88519468Y-86183940D01*
X88773596Y-86251000D01*
X89063714Y-86304705D01*
X89340750Y-86339866D01*
X89421998Y-86344782D01*
X89536866Y-86346968D01*
X89676747Y-86346688D01*
X89833034Y-86344206D01*
X89997121Y-86339788D01*
X90160400Y-86333696D01*
X90314263Y-86326197D01*
X90450105Y-86317554D01*
X90526285Y-86310912D01*
X94576269Y-86310912D01*
X96328381Y-86305497D01*
X98080493Y-86300083D01*
X98404187Y-85882042D01*
X98727881Y-85464000D01*
X95553167Y-85464000D01*
X95553167Y-85306246D01*
X95556277Y-85221238D01*
X95564453Y-85146861D01*
X95575965Y-85098525D01*
X95576668Y-85096913D01*
X95588204Y-85073297D01*
X95601834Y-85053353D01*
X95621045Y-85036724D01*
X95649322Y-85023053D01*
X95690150Y-85011982D01*
X95747017Y-85003154D01*
X95823409Y-84996212D01*
X95922810Y-84990798D01*
X96048707Y-84986554D01*
X96204587Y-84983124D01*
X96393935Y-84980149D01*
X96620237Y-84977274D01*
X96759667Y-84975629D01*
X96999019Y-84972745D01*
X97200101Y-84970043D01*
X97366971Y-84967329D01*
X97503691Y-84964410D01*
X97614322Y-84961093D01*
X97702923Y-84957184D01*
X97773555Y-84952489D01*
X97830279Y-84946817D01*
X97877155Y-84939972D01*
X97918243Y-84931763D01*
X97957605Y-84921996D01*
X97972812Y-84917874D01*
X98181956Y-84843854D01*
X98355808Y-84746509D01*
X98455498Y-84659667D01*
X99186362Y-84659667D01*
X99187128Y-84804240D01*
X99189956Y-84915830D01*
X99195643Y-85003766D01*
X99204984Y-85077379D01*
X99218776Y-85145998D01*
X99232415Y-85199417D01*
X99315173Y-85436705D01*
X99426855Y-85644324D01*
X99568579Y-85823352D01*
X99741463Y-85974868D01*
X99946622Y-86099952D01*
X100185175Y-86199683D01*
X100306882Y-86237470D01*
X100530957Y-86288358D01*
X100783677Y-86324875D01*
X101053643Y-86346379D01*
X101329455Y-86352229D01*
X101599713Y-86341782D01*
X101801541Y-86321618D01*
X101869484Y-86310912D01*
X103826102Y-86310912D01*
X105578214Y-86305497D01*
X107330326Y-86300083D01*
X107654020Y-85882042D01*
X107977714Y-85464000D01*
X104803000Y-85464000D01*
X104803000Y-85299376D01*
X104807887Y-85190003D01*
X104825007Y-85112726D01*
X104858047Y-85058180D01*
X104910694Y-85016997D01*
X104915211Y-85014372D01*
X104937977Y-85007739D01*
X104983412Y-85001858D01*
X105054143Y-84996636D01*
X105152796Y-84991979D01*
X105281996Y-84987795D01*
X105444368Y-84983990D01*
X105642540Y-84980471D01*
X105879136Y-84977146D01*
X106009500Y-84975563D01*
X106248848Y-84972695D01*
X106449924Y-84970005D01*
X106616789Y-84967303D01*
X106753504Y-84964393D01*
X106864129Y-84961083D01*
X106952724Y-84957180D01*
X107023351Y-84952491D01*
X107080069Y-84946823D01*
X107126938Y-84939983D01*
X107168020Y-84931777D01*
X107207375Y-84922013D01*
X107222645Y-84917874D01*
X107431789Y-84843854D01*
X107605641Y-84746509D01*
X107744328Y-84625697D01*
X107847977Y-84481280D01*
X107916715Y-84313117D01*
X107950668Y-84121068D01*
X107951090Y-84115731D01*
X107948605Y-83907575D01*
X107935592Y-83844750D01*
X108295497Y-83844750D01*
X108687082Y-83850509D01*
X109078667Y-83856267D01*
X109078667Y-86310667D01*
X110073500Y-86310667D01*
X110073500Y-83008667D01*
X108892304Y-83008667D01*
X108593901Y-83426708D01*
X108295497Y-83844750D01*
X107935592Y-83844750D01*
X107909012Y-83716439D01*
X107833764Y-83544969D01*
X107724313Y-83395807D01*
X107582112Y-83271599D01*
X107443132Y-83190723D01*
X107362876Y-83154365D01*
X107282928Y-83123107D01*
X107199503Y-83096580D01*
X107108815Y-83074417D01*
X107007080Y-83056248D01*
X106890512Y-83041705D01*
X106755326Y-83030421D01*
X106597737Y-83022026D01*
X106413958Y-83016153D01*
X106200206Y-83012432D01*
X105952695Y-83010497D01*
X105667640Y-83009978D01*
X105586167Y-83010030D01*
X104623084Y-83011032D01*
X104316167Y-83415446D01*
X104229985Y-83529343D01*
X104152566Y-83632306D01*
X104087531Y-83719466D01*
X104038503Y-83785952D01*
X104009103Y-83826894D01*
X104002195Y-83837597D01*
X104021535Y-83840656D01*
X104079713Y-83843553D01*
X104173234Y-83846240D01*
X104298602Y-83848672D01*
X104452322Y-83850803D01*
X104630898Y-83852589D01*
X104830836Y-83853982D01*
X105048639Y-83854937D01*
X105280814Y-83855409D01*
X105367445Y-83855451D01*
X105688122Y-83855843D01*
X105970167Y-83856953D01*
X106213048Y-83858775D01*
X106416234Y-83861298D01*
X106579194Y-83864517D01*
X106701395Y-83868421D01*
X106782305Y-83873003D01*
X106820500Y-83877992D01*
X106907604Y-83913737D01*
X106959295Y-83966555D01*
X106981350Y-84043742D01*
X106983167Y-84083457D01*
X106968522Y-84187420D01*
X106923854Y-84262448D01*
X106859322Y-84305894D01*
X106826877Y-84312416D01*
X106759812Y-84318404D01*
X106656939Y-84323898D01*
X106517068Y-84328937D01*
X106339010Y-84333560D01*
X106121574Y-84337807D01*
X105863571Y-84341718D01*
X105723750Y-84343501D01*
X105476647Y-84346633D01*
X105268102Y-84349661D01*
X105094342Y-84352741D01*
X104951592Y-84356030D01*
X104836079Y-84359683D01*
X104744029Y-84363858D01*
X104671667Y-84368709D01*
X104615220Y-84374394D01*
X104570914Y-84381068D01*
X104534975Y-84388888D01*
X104518583Y-84393387D01*
X104324727Y-84466205D01*
X104159316Y-84561592D01*
X104025666Y-84676945D01*
X103927092Y-84809663D01*
X103889881Y-84886964D01*
X103876150Y-84923315D01*
X103865194Y-84959237D01*
X103856629Y-85000020D01*
X103850071Y-85050953D01*
X103845136Y-85117327D01*
X103841439Y-85204432D01*
X103838596Y-85317559D01*
X103836223Y-85461998D01*
X103833935Y-85643038D01*
X103833736Y-85659914D01*
X103826102Y-86310912D01*
X101869484Y-86310912D01*
X102025242Y-86286369D01*
X102218958Y-86242093D01*
X102394649Y-86185480D01*
X102564276Y-86113219D01*
X102577494Y-86106880D01*
X102782362Y-85985092D01*
X102959595Y-85832155D01*
X103107013Y-85650745D01*
X103222437Y-85443538D01*
X103302855Y-85216360D01*
X103333159Y-85063917D01*
X103352595Y-84884241D01*
X103360868Y-84691091D01*
X103357685Y-84498228D01*
X103342752Y-84319408D01*
X103324425Y-84206430D01*
X103265694Y-83985904D01*
X103185375Y-83795686D01*
X103079126Y-83627419D01*
X102943403Y-83473538D01*
X102808675Y-83354751D01*
X102663196Y-83255686D01*
X102500102Y-83173157D01*
X102312532Y-83103983D01*
X102093623Y-83044977D01*
X101956084Y-83015447D01*
X101839925Y-82998450D01*
X101691252Y-82985965D01*
X101519639Y-82977985D01*
X101334662Y-82974501D01*
X101145899Y-82975504D01*
X100962924Y-82980986D01*
X100795314Y-82990939D01*
X100652644Y-83005355D01*
X100580250Y-83016654D01*
X100293828Y-83084598D01*
X100042716Y-83174823D01*
X99825574Y-83288428D01*
X99641059Y-83426509D01*
X99487830Y-83590166D01*
X99364544Y-83780497D01*
X99269861Y-83998601D01*
X99232415Y-84119917D01*
X99214791Y-84190880D01*
X99202210Y-84259886D01*
X99193877Y-84336266D01*
X99188995Y-84429349D01*
X99186769Y-84548466D01*
X99186362Y-84659667D01*
X98455498Y-84659667D01*
X98494495Y-84625697D01*
X98598144Y-84481280D01*
X98666881Y-84313117D01*
X98700835Y-84121068D01*
X98701257Y-84115731D01*
X98698771Y-83907575D01*
X98659179Y-83716439D01*
X98583931Y-83544969D01*
X98474480Y-83395807D01*
X98332278Y-83271599D01*
X98193299Y-83190723D01*
X98113043Y-83154365D01*
X98033095Y-83123107D01*
X97949670Y-83096580D01*
X97858982Y-83074417D01*
X97757247Y-83056248D01*
X97640679Y-83041705D01*
X97505493Y-83030421D01*
X97347903Y-83022026D01*
X97164125Y-83016153D01*
X96950373Y-83012432D01*
X96702862Y-83010497D01*
X96417806Y-83009978D01*
X96336334Y-83010030D01*
X95373250Y-83011032D01*
X95066334Y-83415446D01*
X94980152Y-83529343D01*
X94902733Y-83632306D01*
X94837698Y-83719466D01*
X94788670Y-83785952D01*
X94759270Y-83826894D01*
X94752361Y-83837597D01*
X94771702Y-83840656D01*
X94829880Y-83843553D01*
X94923401Y-83846240D01*
X95048769Y-83848672D01*
X95202488Y-83850803D01*
X95381065Y-83852589D01*
X95581003Y-83853982D01*
X95798806Y-83854937D01*
X96030980Y-83855409D01*
X96117611Y-83855451D01*
X96429459Y-83855833D01*
X96705963Y-83856912D01*
X96946139Y-83858674D01*
X97149000Y-83861103D01*
X97313561Y-83864183D01*
X97438837Y-83867901D01*
X97523842Y-83872241D01*
X97567590Y-83877188D01*
X97569430Y-83877651D01*
X97657951Y-83916476D01*
X97711099Y-83976393D01*
X97732512Y-84062060D01*
X97733334Y-84087448D01*
X97717722Y-84190596D01*
X97670702Y-84265549D01*
X97609489Y-84305894D01*
X97577043Y-84312416D01*
X97509979Y-84318404D01*
X97407106Y-84323898D01*
X97267235Y-84328937D01*
X97089176Y-84333560D01*
X96871740Y-84337807D01*
X96613737Y-84341718D01*
X96473917Y-84343501D01*
X96226813Y-84346633D01*
X96018269Y-84349661D01*
X95844509Y-84352741D01*
X95701759Y-84356030D01*
X95586246Y-84359683D01*
X95494196Y-84363858D01*
X95421834Y-84368709D01*
X95365387Y-84374394D01*
X95321081Y-84381068D01*
X95285141Y-84388888D01*
X95268749Y-84393387D01*
X95074893Y-84466205D01*
X94909482Y-84561592D01*
X94775832Y-84676945D01*
X94677259Y-84809663D01*
X94640047Y-84886964D01*
X94626316Y-84923315D01*
X94615361Y-84959237D01*
X94606796Y-85000020D01*
X94600238Y-85050953D01*
X94595303Y-85117327D01*
X94591606Y-85204432D01*
X94588763Y-85317559D01*
X94586389Y-85461998D01*
X94584102Y-85643038D01*
X94583903Y-85659914D01*
X94576269Y-86310912D01*
X90526285Y-86310912D01*
X90559318Y-86308032D01*
X90617568Y-86300632D01*
X90884136Y-86248423D01*
X91124367Y-86178911D01*
X91352198Y-86087831D01*
X91423457Y-86054075D01*
X91635257Y-85930517D01*
X91812591Y-85783700D01*
X91957332Y-85611316D01*
X92071355Y-85411057D01*
X92156532Y-85180617D01*
X92168903Y-85135917D01*
X92188600Y-85051212D01*
X92201809Y-84965907D01*
X92209620Y-84868399D01*
X92213121Y-84747083D01*
X92213607Y-84659667D01*
X92212136Y-84518867D01*
X92206999Y-84408720D01*
X92197106Y-84317620D01*
X92181367Y-84233965D01*
X92168903Y-84183417D01*
X92088122Y-83948761D01*
X91976387Y-83741280D01*
X91832757Y-83560054D01*
X91656293Y-83404164D01*
X91446054Y-83272692D01*
X91201101Y-83164717D01*
X91087429Y-83126087D01*
X90947342Y-83084576D01*
X90815190Y-83051388D01*
X90683646Y-83025679D01*
X90545382Y-83006605D01*
X90393071Y-82993321D01*
X90219384Y-82984985D01*
X90016995Y-82980750D01*
X89817000Y-82979747D01*
X89631634Y-82980107D01*
X89481718Y-82981432D01*
X89360371Y-82984086D01*
X89260715Y-82988437D01*
X89175869Y-82994848D01*
X89098953Y-83003687D01*
X89023090Y-83015318D01*
X88969904Y-83024766D01*
X88658566Y-83095523D01*
X88384064Y-83186421D01*
X88145614Y-83298187D01*
X87942434Y-83431544D01*
X87773741Y-83587220D01*
X87638753Y-83765938D01*
X87536687Y-83968425D01*
X87466760Y-84195405D01*
X87428189Y-84447604D01*
X87427640Y-84454003D01*
X87419137Y-84747235D01*
X86974298Y-84747235D01*
X86971405Y-84507359D01*
X86936464Y-84257210D01*
X86869578Y-84020206D01*
X86808629Y-83876500D01*
X86695057Y-83688201D01*
X86549281Y-83522217D01*
X86370293Y-83377929D01*
X86157081Y-83254722D01*
X85908638Y-83151978D01*
X85623954Y-83069082D01*
X85414763Y-83024766D01*
X85335795Y-83011078D01*
X85260345Y-83000426D01*
X85181534Y-82992443D01*
X85092482Y-82986764D01*
X84986309Y-82983024D01*
X84856137Y-82980857D01*
X84695084Y-82979897D01*
X84567667Y-82979747D01*
X84382301Y-82980107D01*
X84232384Y-82981432D01*
X84111038Y-82984086D01*
X84011381Y-82988437D01*
X83926535Y-82994848D01*
X83849620Y-83003687D01*
X83773756Y-83015318D01*
X83720571Y-83024766D01*
X83413084Y-83094051D01*
X83142763Y-83182057D01*
X82908298Y-83289849D01*
X82708380Y-83418493D01*
X82541699Y-83569054D01*
X82406944Y-83742599D01*
X82302807Y-83940193D01*
X82227977Y-84162901D01*
X82206506Y-84256538D01*
X82190119Y-84373554D01*
X82181161Y-84517150D01*
X82179343Y-84675161D01*
X81719593Y-84675161D01*
X81717055Y-84518387D01*
X81704762Y-84354175D01*
X81682996Y-84213522D01*
X81672518Y-84169962D01*
X81593967Y-83945321D01*
X81486946Y-83746039D01*
X81350092Y-83571108D01*
X81182042Y-83419520D01*
X80981433Y-83290269D01*
X80746901Y-83182346D01*
X80477084Y-83094745D01*
X80170618Y-83026456D01*
X80111450Y-83016137D01*
X79982559Y-82999806D01*
X79820746Y-82987488D01*
X79635235Y-82979182D01*
X79435247Y-82974889D01*
X79230003Y-82974609D01*
X79028725Y-82978341D01*
X78840636Y-82986086D01*
X78674957Y-82997843D01*
X78540910Y-83013613D01*
X78525217Y-83016137D01*
X78222421Y-83079684D01*
X77950010Y-83163293D01*
X77709886Y-83266059D01*
X77503950Y-83387079D01*
X77334103Y-83525446D01*
X77241910Y-83626820D01*
X77170259Y-83731320D01*
X77098059Y-83861459D01*
X77033032Y-84001358D01*
X76982904Y-84135139D01*
X76966031Y-84194000D01*
X76952444Y-84277283D01*
X76943019Y-84399488D01*
X76937951Y-84557390D01*
X76937084Y-84670250D01*
X69592145Y-84670250D01*
X70036041Y-83433264D01*
X70877139Y-81211820D01*
X70917167Y-81108958D01*
X71158387Y-80489833D01*
X115716397Y-80489833D01*
X115966617Y-81130125D01*
G36*
X107714867Y-164362670D02*
G01*
X107795143Y-164388330D01*
X107841024Y-164410470D01*
X107858750Y-164437437D01*
X107854561Y-164477581D01*
X107838504Y-164528088D01*
X107818014Y-164585048D01*
X107803021Y-164620943D01*
X107798755Y-164627333D01*
X107777114Y-164620953D01*
X107729299Y-164604830D01*
X107702834Y-164595583D01*
X107591253Y-164568371D01*
X107494209Y-164568203D01*
X107417951Y-164593694D01*
X107368728Y-164643459D01*
X107357375Y-164672187D01*
X107365078Y-164723966D01*
X107412921Y-164778671D01*
X107498955Y-164834669D01*
X107614897Y-164887823D01*
X107748611Y-164956053D01*
X107844019Y-165039624D01*
X107902885Y-165140209D01*
X107912878Y-165170991D01*
X107925779Y-165284697D01*
X107906135Y-165397326D01*
X107857952Y-165497643D01*
X107785239Y-165574411D01*
X107763996Y-165588431D01*
X107689609Y-165617294D01*
X107586920Y-165636919D01*
X107469259Y-165645724D01*
X107349957Y-165642130D01*
X107328939Y-165639999D01*
X107238535Y-165624268D01*
X107158786Y-165600676D01*
X107099259Y-165572981D01*
X107069520Y-165544944D01*
X107067834Y-165537385D01*
X107075987Y-165498966D01*
X107095930Y-165446229D01*
X107120886Y-165393828D01*
X107144081Y-165356421D01*
X107155850Y-165347000D01*
X107187462Y-165355984D01*
X107233205Y-165376701D01*
X107326369Y-165411079D01*
X107422965Y-165423810D01*
X107513513Y-165416259D01*
X107588532Y-165389790D01*
X107638545Y-165345768D01*
X107651497Y-165316490D01*
X107651590Y-165253900D01*
X107616683Y-165197551D01*
X107544181Y-165144603D01*
X107455612Y-165102050D01*
X107326130Y-165043801D01*
X107231924Y-164990241D01*
X107167194Y-164935821D01*
X107126140Y-164874990D01*
X107102960Y-164802198D01*
X107096079Y-164758054D01*
X107097992Y-164629881D01*
X107136837Y-164521954D01*
X107206131Y-164439046D01*
X107315041Y-164370837D01*
X107444758Y-164336242D01*
X107589203Y-164336173D01*
X107714867Y-164362670D01*
G37*
X107714867Y-164362670D02*
X107795143Y-164388330D01*
X107841024Y-164410470D01*
X107858750Y-164437437D01*
X107854561Y-164477581D01*
X107838504Y-164528088D01*
X107818014Y-164585048D01*
X107803021Y-164620943D01*
X107798755Y-164627333D01*
X107777114Y-164620953D01*
X107729299Y-164604830D01*
X107702834Y-164595583D01*
X107591253Y-164568371D01*
X107494209Y-164568203D01*
X107417951Y-164593694D01*
X107368728Y-164643459D01*
X107357375Y-164672187D01*
X107365078Y-164723966D01*
X107412921Y-164778671D01*
X107498955Y-164834669D01*
X107614897Y-164887823D01*
X107748611Y-164956053D01*
X107844019Y-165039624D01*
X107902885Y-165140209D01*
X107912878Y-165170991D01*
X107925779Y-165284697D01*
X107906135Y-165397326D01*
X107857952Y-165497643D01*
X107785239Y-165574411D01*
X107763996Y-165588431D01*
X107689609Y-165617294D01*
X107586920Y-165636919D01*
X107469259Y-165645724D01*
X107349957Y-165642130D01*
X107328939Y-165639999D01*
X107238535Y-165624268D01*
X107158786Y-165600676D01*
X107099259Y-165572981D01*
X107069520Y-165544944D01*
X107067834Y-165537385D01*
X107075987Y-165498966D01*
X107095930Y-165446229D01*
X107120886Y-165393828D01*
X107144081Y-165356421D01*
X107155850Y-165347000D01*
X107187462Y-165355984D01*
X107233205Y-165376701D01*
X107326369Y-165411079D01*
X107422965Y-165423810D01*
X107513513Y-165416259D01*
X107588532Y-165389790D01*
X107638545Y-165345768D01*
X107651497Y-165316490D01*
X107651590Y-165253900D01*
X107616683Y-165197551D01*
X107544181Y-165144603D01*
X107455612Y-165102050D01*
X107326130Y-165043801D01*
X107231924Y-164990241D01*
X107167194Y-164935821D01*
X107126140Y-164874990D01*
X107102960Y-164802198D01*
X107096079Y-164758054D01*
X107097992Y-164629881D01*
X107136837Y-164521954D01*
X107206131Y-164439046D01*
X107315041Y-164370837D01*
X107444758Y-164336242D01*
X107589203Y-164336173D01*
X107714867Y-164362670D01*
G36*
X108711155Y-164683275D02*
G01*
X108736097Y-164695236D01*
X108822907Y-164758120D01*
X108885338Y-164847016D01*
X108925725Y-164966339D01*
X108943828Y-165087708D01*
X108957746Y-165241167D01*
X108646238Y-165241167D01*
X108525200Y-165241565D01*
X108440398Y-165243244D01*
X108385740Y-165246931D01*
X108355131Y-165253352D01*
X108342478Y-165263232D01*
X108341688Y-165277299D01*
X108341720Y-165277464D01*
X108362804Y-165311830D01*
X108406508Y-165352118D01*
X108420485Y-165362130D01*
X108512370Y-165400352D01*
X108627075Y-165410257D01*
X108755358Y-165391165D01*
X108768443Y-165387672D01*
X108821101Y-165374975D01*
X108852789Y-165370977D01*
X108856008Y-165371915D01*
X108862091Y-165394974D01*
X108870970Y-165446692D01*
X108876972Y-165488388D01*
X108891730Y-165598026D01*
X108810574Y-165620562D01*
X108737624Y-165633136D01*
X108641551Y-165639722D01*
X108538590Y-165640237D01*
X108444978Y-165634602D01*
X108376952Y-165622737D01*
X108376836Y-165622702D01*
X108252195Y-165563761D01*
X108151191Y-165471498D01*
X108130978Y-165444535D01*
X108103879Y-165401988D01*
X108086881Y-165361612D01*
X108077662Y-165311825D01*
X108073897Y-165241044D01*
X108073250Y-165156769D01*
X108074229Y-165059228D01*
X108077076Y-165017850D01*
X108337396Y-165017850D01*
X108358887Y-165038415D01*
X108416001Y-165048243D01*
X108507167Y-165050667D01*
X108591775Y-165049687D01*
X108642504Y-165045422D01*
X108667788Y-165035879D01*
X108676062Y-165019066D01*
X108676500Y-165010678D01*
X108658773Y-164945331D01*
X108612825Y-164899272D01*
X108549504Y-164875491D01*
X108479657Y-164876976D01*
X108414133Y-164906715D01*
X108388007Y-164931197D01*
X108348209Y-164983220D01*
X108337396Y-165017850D01*
X108077076Y-165017850D01*
X108078886Y-164991546D01*
X108089801Y-164941264D01*
X108109554Y-164895922D01*
X108136939Y-164849170D01*
X108221608Y-164749767D01*
X108329199Y-164681462D01*
X108451878Y-164646270D01*
X108581809Y-164646203D01*
X108711155Y-164683275D01*
G37*
X108711155Y-164683275D02*
X108736097Y-164695236D01*
X108822907Y-164758120D01*
X108885338Y-164847016D01*
X108925725Y-164966339D01*
X108943828Y-165087708D01*
X108957746Y-165241167D01*
X108646238Y-165241167D01*
X108525200Y-165241565D01*
X108440398Y-165243244D01*
X108385740Y-165246931D01*
X108355131Y-165253352D01*
X108342478Y-165263232D01*
X108341688Y-165277299D01*
X108341720Y-165277464D01*
X108362804Y-165311830D01*
X108406508Y-165352118D01*
X108420485Y-165362130D01*
X108512370Y-165400352D01*
X108627075Y-165410257D01*
X108755358Y-165391165D01*
X108768443Y-165387672D01*
X108821101Y-165374975D01*
X108852789Y-165370977D01*
X108856008Y-165371915D01*
X108862091Y-165394974D01*
X108870970Y-165446692D01*
X108876972Y-165488388D01*
X108891730Y-165598026D01*
X108810574Y-165620562D01*
X108737624Y-165633136D01*
X108641551Y-165639722D01*
X108538590Y-165640237D01*
X108444978Y-165634602D01*
X108376952Y-165622737D01*
X108376836Y-165622702D01*
X108252195Y-165563761D01*
X108151191Y-165471498D01*
X108130978Y-165444535D01*
X108103879Y-165401988D01*
X108086881Y-165361612D01*
X108077662Y-165311825D01*
X108073897Y-165241044D01*
X108073250Y-165156769D01*
X108074229Y-165059228D01*
X108077076Y-165017850D01*
X108337396Y-165017850D01*
X108358887Y-165038415D01*
X108416001Y-165048243D01*
X108507167Y-165050667D01*
X108591775Y-165049687D01*
X108642504Y-165045422D01*
X108667788Y-165035879D01*
X108676062Y-165019066D01*
X108676500Y-165010678D01*
X108658773Y-164945331D01*
X108612825Y-164899272D01*
X108549504Y-164875491D01*
X108479657Y-164876976D01*
X108414133Y-164906715D01*
X108388007Y-164931197D01*
X108348209Y-164983220D01*
X108337396Y-165017850D01*
X108077076Y-165017850D01*
X108078886Y-164991546D01*
X108089801Y-164941264D01*
X108109554Y-164895922D01*
X108136939Y-164849170D01*
X108221608Y-164749767D01*
X108329199Y-164681462D01*
X108451878Y-164646270D01*
X108581809Y-164646203D01*
X108711155Y-164683275D01*
G36*
X109608123Y-164759625D02*
G01*
X109608689Y-164908220D01*
X109610130Y-165044703D01*
X109612305Y-165162755D01*
X109615074Y-165256053D01*
X109618297Y-165318277D01*
X109621038Y-165341187D01*
X109651466Y-165380319D01*
X109709603Y-165402496D01*
X109783280Y-165404967D01*
X109843568Y-165391494D01*
X109890963Y-165377504D01*
X109917208Y-165374543D01*
X109918158Y-165375102D01*
X109925864Y-165398275D01*
X109937474Y-165449237D01*
X109944128Y-165483092D01*
X109954117Y-165543990D01*
X109950667Y-165577404D01*
X109928131Y-165597457D01*
X109891916Y-165613644D01*
X109803953Y-165636070D01*
X109698437Y-165642567D01*
X109593878Y-165633487D01*
X109508787Y-165609179D01*
X109502720Y-165606259D01*
X109442125Y-165561997D01*
X109390924Y-165502681D01*
X109386304Y-165495167D01*
X109372404Y-165468197D01*
X109361684Y-165437267D01*
X109353623Y-165396498D01*
X109347701Y-165340009D01*
X109343399Y-165261920D01*
X109340197Y-165156352D01*
X109337575Y-165017424D01*
X109336253Y-164928958D01*
X109329256Y-164436833D01*
X109078667Y-164436833D01*
X109078667Y-164225167D01*
X109607834Y-164225167D01*
X109608123Y-164759625D01*
G37*
X109608123Y-164759625D02*
X109608689Y-164908220D01*
X109610130Y-165044703D01*
X109612305Y-165162755D01*
X109615074Y-165256053D01*
X109618297Y-165318277D01*
X109621038Y-165341187D01*
X109651466Y-165380319D01*
X109709603Y-165402496D01*
X109783280Y-165404967D01*
X109843568Y-165391494D01*
X109890963Y-165377504D01*
X109917208Y-165374543D01*
X109918158Y-165375102D01*
X109925864Y-165398275D01*
X109937474Y-165449237D01*
X109944128Y-165483092D01*
X109954117Y-165543990D01*
X109950667Y-165577404D01*
X109928131Y-165597457D01*
X109891916Y-165613644D01*
X109803953Y-165636070D01*
X109698437Y-165642567D01*
X109593878Y-165633487D01*
X109508787Y-165609179D01*
X109502720Y-165606259D01*
X109442125Y-165561997D01*
X109390924Y-165502681D01*
X109386304Y-165495167D01*
X109372404Y-165468197D01*
X109361684Y-165437267D01*
X109353623Y-165396498D01*
X109347701Y-165340009D01*
X109343399Y-165261920D01*
X109340197Y-165156352D01*
X109337575Y-165017424D01*
X109336253Y-164928958D01*
X109329256Y-164436833D01*
X109078667Y-164436833D01*
X109078667Y-164225167D01*
X109607834Y-164225167D01*
X109608123Y-164759625D01*
G36*
X110679318Y-164662982D02*
G01*
X110788738Y-164713239D01*
X110871475Y-164796252D01*
X110927319Y-164911798D01*
X110956059Y-165059652D01*
X110958089Y-165085685D01*
X110968067Y-165241167D01*
X110658367Y-165241167D01*
X110549330Y-165241937D01*
X110457107Y-165244058D01*
X110389108Y-165247243D01*
X110352740Y-165251206D01*
X110348667Y-165253141D01*
X110357554Y-165279381D01*
X110370461Y-165305839D01*
X110422064Y-165359980D01*
X110503443Y-165395065D01*
X110605730Y-165409320D01*
X110720056Y-165400968D01*
X110779277Y-165387672D01*
X110832756Y-165375497D01*
X110866127Y-165372896D01*
X110869892Y-165374336D01*
X110877472Y-165398953D01*
X110886671Y-165451692D01*
X110891815Y-165490544D01*
X110904482Y-165597496D01*
X110822366Y-165620297D01*
X110733316Y-165635694D01*
X110623827Y-165641444D01*
X110510855Y-165637844D01*
X110411354Y-165625191D01*
X110361891Y-165612237D01*
X110245917Y-165550212D01*
X110158755Y-165458580D01*
X110101993Y-165340155D01*
X110077218Y-165197747D01*
X110077874Y-165109081D01*
X110093360Y-165016558D01*
X110347960Y-165016558D01*
X110367657Y-165037269D01*
X110422094Y-165047568D01*
X110514761Y-165050634D01*
X110530010Y-165050667D01*
X110617372Y-165050201D01*
X110670076Y-165047347D01*
X110695798Y-165039916D01*
X110702212Y-165025722D01*
X110697131Y-165003042D01*
X110657156Y-164930127D01*
X110595710Y-164885176D01*
X110523430Y-164870752D01*
X110450951Y-164889416D01*
X110398840Y-164931197D01*
X110359518Y-164982260D01*
X110347960Y-165016558D01*
X110093360Y-165016558D01*
X110103706Y-164954750D01*
X110158625Y-164830472D01*
X110241660Y-164737216D01*
X110351837Y-164675950D01*
X110488184Y-164647641D01*
X110543426Y-164645705D01*
X110679318Y-164662982D01*
G37*
X110679318Y-164662982D02*
X110788738Y-164713239D01*
X110871475Y-164796252D01*
X110927319Y-164911798D01*
X110956059Y-165059652D01*
X110958089Y-165085685D01*
X110968067Y-165241167D01*
X110658367Y-165241167D01*
X110549330Y-165241937D01*
X110457107Y-165244058D01*
X110389108Y-165247243D01*
X110352740Y-165251206D01*
X110348667Y-165253141D01*
X110357554Y-165279381D01*
X110370461Y-165305839D01*
X110422064Y-165359980D01*
X110503443Y-165395065D01*
X110605730Y-165409320D01*
X110720056Y-165400968D01*
X110779277Y-165387672D01*
X110832756Y-165375497D01*
X110866127Y-165372896D01*
X110869892Y-165374336D01*
X110877472Y-165398953D01*
X110886671Y-165451692D01*
X110891815Y-165490544D01*
X110904482Y-165597496D01*
X110822366Y-165620297D01*
X110733316Y-165635694D01*
X110623827Y-165641444D01*
X110510855Y-165637844D01*
X110411354Y-165625191D01*
X110361891Y-165612237D01*
X110245917Y-165550212D01*
X110158755Y-165458580D01*
X110101993Y-165340155D01*
X110077218Y-165197747D01*
X110077874Y-165109081D01*
X110093360Y-165016558D01*
X110347960Y-165016558D01*
X110367657Y-165037269D01*
X110422094Y-165047568D01*
X110514761Y-165050634D01*
X110530010Y-165050667D01*
X110617372Y-165050201D01*
X110670076Y-165047347D01*
X110695798Y-165039916D01*
X110702212Y-165025722D01*
X110697131Y-165003042D01*
X110657156Y-164930127D01*
X110595710Y-164885176D01*
X110523430Y-164870752D01*
X110450951Y-164889416D01*
X110398840Y-164931197D01*
X110359518Y-164982260D01*
X110347960Y-165016558D01*
X110093360Y-165016558D01*
X110103706Y-164954750D01*
X110158625Y-164830472D01*
X110241660Y-164737216D01*
X110351837Y-164675950D01*
X110488184Y-164647641D01*
X110543426Y-164645705D01*
X110679318Y-164662982D01*
G36*
X111758521Y-164649281D02*
G01*
X111848139Y-164661929D01*
X111913318Y-164681165D01*
X111947371Y-164705235D01*
X111949442Y-164723200D01*
X111938331Y-164762365D01*
X111925811Y-164819835D01*
X111924804Y-164825128D01*
X111910959Y-164898930D01*
X111755224Y-164887151D01*
X111617718Y-164887175D01*
X111513871Y-164911547D01*
X111441839Y-164961559D01*
X111399777Y-165038503D01*
X111385838Y-165143672D01*
X111385834Y-165145917D01*
X111399528Y-165250268D01*
X111441763Y-165327209D01*
X111514265Y-165377861D01*
X111618758Y-165403350D01*
X111756971Y-165404800D01*
X111780621Y-165403022D01*
X111859032Y-165395927D01*
X111906385Y-165396221D01*
X111932699Y-165411602D01*
X111947990Y-165449767D01*
X111962277Y-165518414D01*
X111968060Y-165547049D01*
X111969642Y-165582524D01*
X111948737Y-165603978D01*
X111899269Y-165621014D01*
X111831231Y-165632624D01*
X111738773Y-165639215D01*
X111637149Y-165640699D01*
X111541616Y-165636991D01*
X111467430Y-165628005D01*
X111449196Y-165623556D01*
X111316095Y-165565576D01*
X111216633Y-165482373D01*
X111150176Y-165373052D01*
X111116091Y-165236719D01*
X111110903Y-165145917D01*
X111127711Y-164993349D01*
X111177392Y-164867053D01*
X111258825Y-164768065D01*
X111370895Y-164697423D01*
X111512483Y-164656162D01*
X111651147Y-164644974D01*
X111758521Y-164649281D01*
G37*
X111758521Y-164649281D02*
X111848139Y-164661929D01*
X111913318Y-164681165D01*
X111947371Y-164705235D01*
X111949442Y-164723200D01*
X111938331Y-164762365D01*
X111925811Y-164819835D01*
X111924804Y-164825128D01*
X111910959Y-164898930D01*
X111755224Y-164887151D01*
X111617718Y-164887175D01*
X111513871Y-164911547D01*
X111441839Y-164961559D01*
X111399777Y-165038503D01*
X111385838Y-165143672D01*
X111385834Y-165145917D01*
X111399528Y-165250268D01*
X111441763Y-165327209D01*
X111514265Y-165377861D01*
X111618758Y-165403350D01*
X111756971Y-165404800D01*
X111780621Y-165403022D01*
X111859032Y-165395927D01*
X111906385Y-165396221D01*
X111932699Y-165411602D01*
X111947990Y-165449767D01*
X111962277Y-165518414D01*
X111968060Y-165547049D01*
X111969642Y-165582524D01*
X111948737Y-165603978D01*
X111899269Y-165621014D01*
X111831231Y-165632624D01*
X111738773Y-165639215D01*
X111637149Y-165640699D01*
X111541616Y-165636991D01*
X111467430Y-165628005D01*
X111449196Y-165623556D01*
X111316095Y-165565576D01*
X111216633Y-165482373D01*
X111150176Y-165373052D01*
X111116091Y-165236719D01*
X111110903Y-165145917D01*
X111127711Y-164993349D01*
X111177392Y-164867053D01*
X111258825Y-164768065D01*
X111370895Y-164697423D01*
X111512483Y-164656162D01*
X111651147Y-164644974D01*
X111758521Y-164649281D01*
G36*
X112571167Y-164669667D02*
G01*
X112973334Y-164669667D01*
X112973334Y-164881333D01*
X112566484Y-164881333D01*
X112574351Y-165111196D01*
X112581727Y-165240199D01*
X112593581Y-165328039D01*
X112609850Y-165374256D01*
X112611035Y-165375779D01*
X112653314Y-165399153D01*
X112721308Y-165409866D01*
X112800124Y-165407213D01*
X112874865Y-165390487D01*
X112880152Y-165388547D01*
X112924666Y-165376816D01*
X112952501Y-165387876D01*
X112969965Y-165428423D01*
X112982204Y-165496880D01*
X112996021Y-165593843D01*
X112913430Y-165618588D01*
X112822225Y-165636769D01*
X112716897Y-165643949D01*
X112611235Y-165640582D01*
X112519027Y-165627122D01*
X112454059Y-165604023D01*
X112453056Y-165603420D01*
X112401381Y-165564083D01*
X112364095Y-165514104D01*
X112339139Y-165446581D01*
X112324452Y-165354610D01*
X112317976Y-165231288D01*
X112317167Y-165148009D01*
X112317167Y-164881333D01*
X112084334Y-164881333D01*
X112084334Y-164669667D01*
X112317167Y-164669667D01*
X112317167Y-164421506D01*
X112444167Y-164401053D01*
X112571167Y-164380601D01*
X112571167Y-164669667D01*
G37*
X112571167Y-164669667D02*
X112973334Y-164669667D01*
X112973334Y-164881333D01*
X112566484Y-164881333D01*
X112574351Y-165111196D01*
X112581727Y-165240199D01*
X112593581Y-165328039D01*
X112609850Y-165374256D01*
X112611035Y-165375779D01*
X112653314Y-165399153D01*
X112721308Y-165409866D01*
X112800124Y-165407213D01*
X112874865Y-165390487D01*
X112880152Y-165388547D01*
X112924666Y-165376816D01*
X112952501Y-165387876D01*
X112969965Y-165428423D01*
X112982204Y-165496880D01*
X112996021Y-165593843D01*
X112913430Y-165618588D01*
X112822225Y-165636769D01*
X112716897Y-165643949D01*
X112611235Y-165640582D01*
X112519027Y-165627122D01*
X112454059Y-165604023D01*
X112453056Y-165603420D01*
X112401381Y-165564083D01*
X112364095Y-165514104D01*
X112339139Y-165446581D01*
X112324452Y-165354610D01*
X112317976Y-165231288D01*
X112317167Y-165148009D01*
X112317167Y-164881333D01*
X112084334Y-164881333D01*
X112084334Y-164669667D01*
X112317167Y-164669667D01*
X112317167Y-164421506D01*
X112444167Y-164401053D01*
X112571167Y-164380601D01*
X112571167Y-164669667D01*
G36*
X73106677Y-164289765D02*
G01*
X73195543Y-164304027D01*
X73275316Y-164324743D01*
X73336097Y-164349148D01*
X73367993Y-164374476D01*
X73370500Y-164383033D01*
X73362771Y-164419158D01*
X73343597Y-164474420D01*
X73337564Y-164489323D01*
X73312375Y-164539641D01*
X73287678Y-164557687D01*
X73258189Y-164553766D01*
X73127286Y-164522548D01*
X73018805Y-164515717D01*
X72936217Y-164532517D01*
X72882994Y-164572196D01*
X72862609Y-164634000D01*
X72862500Y-164639661D01*
X72880228Y-164691191D01*
X72934819Y-164740997D01*
X73028386Y-164790682D01*
X73098329Y-164818953D01*
X73214356Y-164875203D01*
X73312149Y-164947541D01*
X73384040Y-165028888D01*
X73422362Y-165112164D01*
X73423919Y-165119599D01*
X73431224Y-165253097D01*
X73402632Y-165370603D01*
X73340757Y-165467416D01*
X73248211Y-165538834D01*
X73174166Y-165569021D01*
X73045032Y-165593555D01*
X72906098Y-165597322D01*
X72777741Y-165580203D01*
X72746084Y-165571529D01*
X72679826Y-165548183D01*
X72623629Y-165524325D01*
X72615093Y-165519980D01*
X72588392Y-165503037D01*
X72579221Y-165482185D01*
X72586257Y-165444466D01*
X72602284Y-165394577D01*
X72622398Y-165335767D01*
X72636739Y-165296596D01*
X72640564Y-165288016D01*
X72661065Y-165291754D01*
X72708983Y-165307755D01*
X72754698Y-165325057D01*
X72871539Y-165359455D01*
X72975653Y-165367967D01*
X73061422Y-165352043D01*
X73123232Y-165313137D01*
X73155465Y-165252698D01*
X73158834Y-165220617D01*
X73148712Y-165173670D01*
X73114954Y-165130915D01*
X73052471Y-165088392D01*
X72956174Y-165042142D01*
X72898960Y-165018462D01*
X72763304Y-164949213D01*
X72667348Y-164865728D01*
X72610749Y-164767506D01*
X72593164Y-164654044D01*
X72600554Y-164581873D01*
X72640736Y-164469207D01*
X72713640Y-164381455D01*
X72816341Y-164320695D01*
X72945913Y-164289007D01*
X73018612Y-164284721D01*
X73106677Y-164289765D01*
G37*
X73106677Y-164289765D02*
X73195543Y-164304027D01*
X73275316Y-164324743D01*
X73336097Y-164349148D01*
X73367993Y-164374476D01*
X73370500Y-164383033D01*
X73362771Y-164419158D01*
X73343597Y-164474420D01*
X73337564Y-164489323D01*
X73312375Y-164539641D01*
X73287678Y-164557687D01*
X73258189Y-164553766D01*
X73127286Y-164522548D01*
X73018805Y-164515717D01*
X72936217Y-164532517D01*
X72882994Y-164572196D01*
X72862609Y-164634000D01*
X72862500Y-164639661D01*
X72880228Y-164691191D01*
X72934819Y-164740997D01*
X73028386Y-164790682D01*
X73098329Y-164818953D01*
X73214356Y-164875203D01*
X73312149Y-164947541D01*
X73384040Y-165028888D01*
X73422362Y-165112164D01*
X73423919Y-165119599D01*
X73431224Y-165253097D01*
X73402632Y-165370603D01*
X73340757Y-165467416D01*
X73248211Y-165538834D01*
X73174166Y-165569021D01*
X73045032Y-165593555D01*
X72906098Y-165597322D01*
X72777741Y-165580203D01*
X72746084Y-165571529D01*
X72679826Y-165548183D01*
X72623629Y-165524325D01*
X72615093Y-165519980D01*
X72588392Y-165503037D01*
X72579221Y-165482185D01*
X72586257Y-165444466D01*
X72602284Y-165394577D01*
X72622398Y-165335767D01*
X72636739Y-165296596D01*
X72640564Y-165288016D01*
X72661065Y-165291754D01*
X72708983Y-165307755D01*
X72754698Y-165325057D01*
X72871539Y-165359455D01*
X72975653Y-165367967D01*
X73061422Y-165352043D01*
X73123232Y-165313137D01*
X73155465Y-165252698D01*
X73158834Y-165220617D01*
X73148712Y-165173670D01*
X73114954Y-165130915D01*
X73052471Y-165088392D01*
X72956174Y-165042142D01*
X72898960Y-165018462D01*
X72763304Y-164949213D01*
X72667348Y-164865728D01*
X72610749Y-164767506D01*
X72593164Y-164654044D01*
X72600554Y-164581873D01*
X72640736Y-164469207D01*
X72713640Y-164381455D01*
X72816341Y-164320695D01*
X72945913Y-164289007D01*
X73018612Y-164284721D01*
X73106677Y-164289765D01*
G36*
X74047834Y-164606167D02*
G01*
X74450000Y-164606167D01*
X74450000Y-164839000D01*
X74047834Y-164839000D01*
X74047834Y-165026341D01*
X74052117Y-165160691D01*
X74067238Y-165257244D01*
X74096599Y-165319879D01*
X74143606Y-165352474D01*
X74211662Y-165358908D01*
X74304173Y-165343061D01*
X74321899Y-165338606D01*
X74382808Y-165324502D01*
X74419721Y-165325925D01*
X74439684Y-165349915D01*
X74449742Y-165403512D01*
X74455357Y-165471952D01*
X74454035Y-165523038D01*
X74433913Y-165548602D01*
X74404012Y-165559642D01*
X74336735Y-165572946D01*
X74249524Y-165583375D01*
X74159209Y-165589623D01*
X74082620Y-165590386D01*
X74047834Y-165587264D01*
X73950358Y-165559521D01*
X73882026Y-165512560D01*
X73839366Y-165454000D01*
X73819916Y-165414522D01*
X73806868Y-165371911D01*
X73798994Y-165316813D01*
X73795066Y-165239873D01*
X73793857Y-165131736D01*
X73793834Y-165107099D01*
X73793834Y-164841212D01*
X73682709Y-164834814D01*
X73571584Y-164828417D01*
X73558788Y-164606167D01*
X73793834Y-164606167D01*
X73793834Y-164490999D01*
X73796517Y-164425533D01*
X73803421Y-164379620D01*
X73809709Y-164366419D01*
X73838242Y-164358462D01*
X73894130Y-164348287D01*
X73936709Y-164342017D01*
X74047834Y-164327027D01*
X74047834Y-164606167D01*
G37*
X74047834Y-164606167D02*
X74450000Y-164606167D01*
X74450000Y-164839000D01*
X74047834Y-164839000D01*
X74047834Y-165026341D01*
X74052117Y-165160691D01*
X74067238Y-165257244D01*
X74096599Y-165319879D01*
X74143606Y-165352474D01*
X74211662Y-165358908D01*
X74304173Y-165343061D01*
X74321899Y-165338606D01*
X74382808Y-165324502D01*
X74419721Y-165325925D01*
X74439684Y-165349915D01*
X74449742Y-165403512D01*
X74455357Y-165471952D01*
X74454035Y-165523038D01*
X74433913Y-165548602D01*
X74404012Y-165559642D01*
X74336735Y-165572946D01*
X74249524Y-165583375D01*
X74159209Y-165589623D01*
X74082620Y-165590386D01*
X74047834Y-165587264D01*
X73950358Y-165559521D01*
X73882026Y-165512560D01*
X73839366Y-165454000D01*
X73819916Y-165414522D01*
X73806868Y-165371911D01*
X73798994Y-165316813D01*
X73795066Y-165239873D01*
X73793857Y-165131736D01*
X73793834Y-165107099D01*
X73793834Y-164841212D01*
X73682709Y-164834814D01*
X73571584Y-164828417D01*
X73558788Y-164606167D01*
X73793834Y-164606167D01*
X73793834Y-164490999D01*
X73796517Y-164425533D01*
X73803421Y-164379620D01*
X73809709Y-164366419D01*
X73838242Y-164358462D01*
X73894130Y-164348287D01*
X73936709Y-164342017D01*
X74047834Y-164327027D01*
X74047834Y-164606167D01*
G36*
X75134640Y-164599058D02*
G01*
X75250034Y-164641388D01*
X75335393Y-164712486D01*
X75362045Y-164750268D01*
X75379366Y-164782055D01*
X75391897Y-164815761D01*
X75400459Y-164858733D01*
X75405874Y-164918319D01*
X75408964Y-165001866D01*
X75410550Y-165116721D01*
X75411037Y-165188250D01*
X75413084Y-165548083D01*
X75275500Y-165572257D01*
X75115994Y-165592653D01*
X74977256Y-165592482D01*
X74883917Y-165580304D01*
X74767366Y-165549954D01*
X74686933Y-165504506D01*
X74637393Y-165437983D01*
X74613524Y-165344403D01*
X74609300Y-165265889D01*
X74609594Y-165251088D01*
X74873334Y-165251088D01*
X74889050Y-165313275D01*
X74937423Y-165351685D01*
X75020290Y-165367568D01*
X75045338Y-165368167D01*
X75150820Y-165368167D01*
X75144368Y-165267625D01*
X75137726Y-165205703D01*
X75123938Y-165174283D01*
X75096598Y-165161539D01*
X75085930Y-165159748D01*
X75031028Y-165160985D01*
X74963901Y-165173571D01*
X74953639Y-165176472D01*
X74899175Y-165198523D01*
X74876304Y-165227024D01*
X74873334Y-165251088D01*
X74609594Y-165251088D01*
X74610803Y-165190226D01*
X74619452Y-165142117D01*
X74640296Y-165106833D01*
X74675789Y-165071961D01*
X74751843Y-165024895D01*
X74853443Y-164989934D01*
X74964580Y-164971124D01*
X75069241Y-164972507D01*
X75069449Y-164972535D01*
X75122156Y-164977928D01*
X75143089Y-164970397D01*
X75142331Y-164943329D01*
X75138610Y-164927192D01*
X75118618Y-164874149D01*
X75084279Y-164840940D01*
X75027775Y-164824315D01*
X74941288Y-164821026D01*
X74888326Y-164823148D01*
X74809701Y-164825892D01*
X74749391Y-164825125D01*
X74718110Y-164821063D01*
X74716143Y-164819676D01*
X74708460Y-164792747D01*
X74697953Y-164740257D01*
X74694241Y-164718733D01*
X74686849Y-164662697D01*
X74695162Y-164633734D01*
X74727960Y-164617157D01*
X74760592Y-164607726D01*
X74824973Y-164595920D01*
X74911359Y-164587731D01*
X74988359Y-164585118D01*
X75134640Y-164599058D01*
G37*
X75134640Y-164599058D02*
X75250034Y-164641388D01*
X75335393Y-164712486D01*
X75362045Y-164750268D01*
X75379366Y-164782055D01*
X75391897Y-164815761D01*
X75400459Y-164858733D01*
X75405874Y-164918319D01*
X75408964Y-165001866D01*
X75410550Y-165116721D01*
X75411037Y-165188250D01*
X75413084Y-165548083D01*
X75275500Y-165572257D01*
X75115994Y-165592653D01*
X74977256Y-165592482D01*
X74883917Y-165580304D01*
X74767366Y-165549954D01*
X74686933Y-165504506D01*
X74637393Y-165437983D01*
X74613524Y-165344403D01*
X74609300Y-165265889D01*
X74609594Y-165251088D01*
X74873334Y-165251088D01*
X74889050Y-165313275D01*
X74937423Y-165351685D01*
X75020290Y-165367568D01*
X75045338Y-165368167D01*
X75150820Y-165368167D01*
X75144368Y-165267625D01*
X75137726Y-165205703D01*
X75123938Y-165174283D01*
X75096598Y-165161539D01*
X75085930Y-165159748D01*
X75031028Y-165160985D01*
X74963901Y-165173571D01*
X74953639Y-165176472D01*
X74899175Y-165198523D01*
X74876304Y-165227024D01*
X74873334Y-165251088D01*
X74609594Y-165251088D01*
X74610803Y-165190226D01*
X74619452Y-165142117D01*
X74640296Y-165106833D01*
X74675789Y-165071961D01*
X74751843Y-165024895D01*
X74853443Y-164989934D01*
X74964580Y-164971124D01*
X75069241Y-164972507D01*
X75069449Y-164972535D01*
X75122156Y-164977928D01*
X75143089Y-164970397D01*
X75142331Y-164943329D01*
X75138610Y-164927192D01*
X75118618Y-164874149D01*
X75084279Y-164840940D01*
X75027775Y-164824315D01*
X74941288Y-164821026D01*
X74888326Y-164823148D01*
X74809701Y-164825892D01*
X74749391Y-164825125D01*
X74718110Y-164821063D01*
X74716143Y-164819676D01*
X74708460Y-164792747D01*
X74697953Y-164740257D01*
X74694241Y-164718733D01*
X74686849Y-164662697D01*
X74695162Y-164633734D01*
X74727960Y-164617157D01*
X74760592Y-164607726D01*
X74824973Y-164595920D01*
X74911359Y-164587731D01*
X74988359Y-164585118D01*
X75134640Y-164599058D01*
G36*
X77074667Y-164606167D02*
G01*
X77476834Y-164606167D01*
X77476834Y-164839000D01*
X77074667Y-164839000D01*
X77074667Y-165038705D01*
X77076695Y-165132446D01*
X77082125Y-165215086D01*
X77089972Y-165273963D01*
X77094178Y-165289728D01*
X77133043Y-165335970D01*
X77202796Y-165356015D01*
X77300656Y-165349325D01*
X77348021Y-165338791D01*
X77454947Y-165311055D01*
X77466226Y-165376652D01*
X77479191Y-165459667D01*
X77481738Y-165510643D01*
X77472046Y-165538993D01*
X77448296Y-165554129D01*
X77430845Y-165559610D01*
X77363607Y-165572927D01*
X77276404Y-165583368D01*
X77186076Y-165589624D01*
X77109462Y-165590388D01*
X77074667Y-165587264D01*
X76988683Y-165565465D01*
X76923424Y-165530974D01*
X76875826Y-165478268D01*
X76842828Y-165401822D01*
X76821366Y-165296113D01*
X76808379Y-165155615D01*
X76805479Y-165101707D01*
X76793067Y-164839000D01*
X76587834Y-164839000D01*
X76587834Y-164606167D01*
X76799500Y-164606167D01*
X76799500Y-164491176D01*
X76800695Y-164429467D01*
X76809861Y-164390835D01*
X76835368Y-164368053D01*
X76885587Y-164353892D01*
X76968889Y-164341124D01*
X76974125Y-164340385D01*
X77074667Y-164326193D01*
X77074667Y-164606167D01*
G37*
X77074667Y-164606167D02*
X77476834Y-164606167D01*
X77476834Y-164839000D01*
X77074667Y-164839000D01*
X77074667Y-165038705D01*
X77076695Y-165132446D01*
X77082125Y-165215086D01*
X77089972Y-165273963D01*
X77094178Y-165289728D01*
X77133043Y-165335970D01*
X77202796Y-165356015D01*
X77300656Y-165349325D01*
X77348021Y-165338791D01*
X77454947Y-165311055D01*
X77466226Y-165376652D01*
X77479191Y-165459667D01*
X77481738Y-165510643D01*
X77472046Y-165538993D01*
X77448296Y-165554129D01*
X77430845Y-165559610D01*
X77363607Y-165572927D01*
X77276404Y-165583368D01*
X77186076Y-165589624D01*
X77109462Y-165590388D01*
X77074667Y-165587264D01*
X76988683Y-165565465D01*
X76923424Y-165530974D01*
X76875826Y-165478268D01*
X76842828Y-165401822D01*
X76821366Y-165296113D01*
X76808379Y-165155615D01*
X76805479Y-165101707D01*
X76793067Y-164839000D01*
X76587834Y-164839000D01*
X76587834Y-164606167D01*
X76799500Y-164606167D01*
X76799500Y-164491176D01*
X76800695Y-164429467D01*
X76809861Y-164390835D01*
X76835368Y-164368053D01*
X76885587Y-164353892D01*
X76968889Y-164341124D01*
X76974125Y-164340385D01*
X77074667Y-164326193D01*
X77074667Y-164606167D01*
G36*
X76237580Y-164592977D02*
G01*
X76253108Y-164594280D01*
X76349198Y-164604257D01*
X76409717Y-164616412D01*
X76441256Y-164636711D01*
X76450406Y-164671119D01*
X76443760Y-164725602D01*
X76436899Y-164760616D01*
X76421402Y-164828342D01*
X76406270Y-164863012D01*
X76386002Y-164873496D01*
X76368016Y-164871655D01*
X76251184Y-164851610D01*
X76157092Y-164844864D01*
X76068676Y-164850301D01*
X76059385Y-164851486D01*
X75952834Y-164865620D01*
X75952834Y-165579833D01*
X75698834Y-165579833D01*
X75698834Y-164668619D01*
X75753254Y-164647928D01*
X75853561Y-164620158D01*
X75978919Y-164600541D01*
X76112527Y-164590879D01*
X76237580Y-164592977D01*
G37*
X76237580Y-164592977D02*
X76253108Y-164594280D01*
X76349198Y-164604257D01*
X76409717Y-164616412D01*
X76441256Y-164636711D01*
X76450406Y-164671119D01*
X76443760Y-164725602D01*
X76436899Y-164760616D01*
X76421402Y-164828342D01*
X76406270Y-164863012D01*
X76386002Y-164873496D01*
X76368016Y-164871655D01*
X76251184Y-164851610D01*
X76157092Y-164844864D01*
X76068676Y-164850301D01*
X76059385Y-164851486D01*
X75952834Y-164865620D01*
X75952834Y-165579833D01*
X75698834Y-165579833D01*
X75698834Y-164668619D01*
X75753254Y-164647928D01*
X75853561Y-164620158D01*
X75978919Y-164600541D01*
X76112527Y-164590879D01*
X76237580Y-164592977D01*
G36*
X92665853Y-164583566D02*
G01*
X92790204Y-164622134D01*
X92884066Y-164687408D01*
X92949002Y-164781447D01*
X92986573Y-164906312D01*
X92997727Y-165021206D01*
X93002584Y-165167083D01*
X92700959Y-165172956D01*
X92569993Y-165176712D01*
X92478000Y-165183059D01*
X92421634Y-165193469D01*
X92397549Y-165209413D01*
X92402400Y-165232364D01*
X92432841Y-165263791D01*
X92454397Y-165281407D01*
X92540665Y-165326638D01*
X92648572Y-165341639D01*
X92782730Y-165327050D01*
X92783427Y-165326913D01*
X92851316Y-165314742D01*
X92900030Y-165308244D01*
X92917581Y-165308488D01*
X92923640Y-165331514D01*
X92932476Y-165383109D01*
X92938276Y-165423463D01*
X92952838Y-165531676D01*
X92857213Y-165555754D01*
X92734571Y-165574523D01*
X92599298Y-165576026D01*
X92472441Y-165560634D01*
X92423186Y-165548131D01*
X92305285Y-165491193D01*
X92215934Y-165403757D01*
X92156245Y-165287563D01*
X92127330Y-165144351D01*
X92124632Y-165080920D01*
X92138686Y-164950125D01*
X92400007Y-164950125D01*
X92404738Y-164968725D01*
X92425254Y-164979885D01*
X92469790Y-164985416D01*
X92546579Y-164987124D01*
X92568667Y-164987167D01*
X92653634Y-164986075D01*
X92704603Y-164981571D01*
X92729880Y-164971808D01*
X92737771Y-164954940D01*
X92738000Y-164949543D01*
X92719021Y-164886816D01*
X92670457Y-164834281D01*
X92612215Y-164807517D01*
X92538759Y-164808630D01*
X92470766Y-164838179D01*
X92420447Y-164887957D01*
X92400014Y-164949759D01*
X92400007Y-164950125D01*
X92138686Y-164950125D01*
X92140991Y-164928683D01*
X92188655Y-164799288D01*
X92263988Y-164696074D01*
X92363355Y-164622384D01*
X92483121Y-164581556D01*
X92619649Y-164576934D01*
X92665853Y-164583566D01*
G37*
X92665853Y-164583566D02*
X92790204Y-164622134D01*
X92884066Y-164687408D01*
X92949002Y-164781447D01*
X92986573Y-164906312D01*
X92997727Y-165021206D01*
X93002584Y-165167083D01*
X92700959Y-165172956D01*
X92569993Y-165176712D01*
X92478000Y-165183059D01*
X92421634Y-165193469D01*
X92397549Y-165209413D01*
X92402400Y-165232364D01*
X92432841Y-165263791D01*
X92454397Y-165281407D01*
X92540665Y-165326638D01*
X92648572Y-165341639D01*
X92782730Y-165327050D01*
X92783427Y-165326913D01*
X92851316Y-165314742D01*
X92900030Y-165308244D01*
X92917581Y-165308488D01*
X92923640Y-165331514D01*
X92932476Y-165383109D01*
X92938276Y-165423463D01*
X92952838Y-165531676D01*
X92857213Y-165555754D01*
X92734571Y-165574523D01*
X92599298Y-165576026D01*
X92472441Y-165560634D01*
X92423186Y-165548131D01*
X92305285Y-165491193D01*
X92215934Y-165403757D01*
X92156245Y-165287563D01*
X92127330Y-165144351D01*
X92124632Y-165080920D01*
X92138686Y-164950125D01*
X92400007Y-164950125D01*
X92404738Y-164968725D01*
X92425254Y-164979885D01*
X92469790Y-164985416D01*
X92546579Y-164987124D01*
X92568667Y-164987167D01*
X92653634Y-164986075D01*
X92704603Y-164981571D01*
X92729880Y-164971808D01*
X92737771Y-164954940D01*
X92738000Y-164949543D01*
X92719021Y-164886816D01*
X92670457Y-164834281D01*
X92612215Y-164807517D01*
X92538759Y-164808630D01*
X92470766Y-164838179D01*
X92420447Y-164887957D01*
X92400014Y-164949759D01*
X92400007Y-164950125D01*
X92138686Y-164950125D01*
X92140991Y-164928683D01*
X92188655Y-164799288D01*
X92263988Y-164696074D01*
X92363355Y-164622384D01*
X92483121Y-164581556D01*
X92619649Y-164576934D01*
X92665853Y-164583566D01*
G36*
X94452789Y-164885615D02*
G01*
X94453779Y-164998458D01*
X94456295Y-165099397D01*
X94459992Y-165179252D01*
X94464521Y-165228844D01*
X94466063Y-165236723D01*
X94498205Y-165285291D01*
X94557714Y-165324519D01*
X94629623Y-165345555D01*
X94652532Y-165347000D01*
X94706500Y-165347000D01*
X94706500Y-164585000D01*
X94960500Y-164585000D01*
X94960500Y-165531656D01*
X94840553Y-165555744D01*
X94723670Y-165572516D01*
X94605305Y-165578037D01*
X94498436Y-165572485D01*
X94416035Y-165556038D01*
X94399584Y-165549715D01*
X94332445Y-165513975D01*
X94280928Y-165470704D01*
X94243068Y-165414159D01*
X94216898Y-165338600D01*
X94200453Y-165238286D01*
X94191768Y-165107478D01*
X94188877Y-164940433D01*
X94188858Y-164934250D01*
X94187917Y-164595583D01*
X94320209Y-164589281D01*
X94452500Y-164582980D01*
X94452789Y-164885615D01*
G37*
X94452789Y-164885615D02*
X94453779Y-164998458D01*
X94456295Y-165099397D01*
X94459992Y-165179252D01*
X94464521Y-165228844D01*
X94466063Y-165236723D01*
X94498205Y-165285291D01*
X94557714Y-165324519D01*
X94629623Y-165345555D01*
X94652532Y-165347000D01*
X94706500Y-165347000D01*
X94706500Y-164585000D01*
X94960500Y-164585000D01*
X94960500Y-165531656D01*
X94840553Y-165555744D01*
X94723670Y-165572516D01*
X94605305Y-165578037D01*
X94498436Y-165572485D01*
X94416035Y-165556038D01*
X94399584Y-165549715D01*
X94332445Y-165513975D01*
X94280928Y-165470704D01*
X94243068Y-165414159D01*
X94216898Y-165338600D01*
X94200453Y-165238286D01*
X94191768Y-165107478D01*
X94188877Y-164940433D01*
X94188858Y-164934250D01*
X94187917Y-164595583D01*
X94320209Y-164589281D01*
X94452500Y-164582980D01*
X94452789Y-164885615D01*
G36*
X91963394Y-164452708D02*
G01*
X91983373Y-164700121D01*
X91999075Y-164924005D01*
X92010196Y-165119273D01*
X92016432Y-165280837D01*
X92017716Y-165362875D01*
X92018334Y-165558667D01*
X91785500Y-165558667D01*
X91783829Y-165130042D01*
X91782425Y-164981926D01*
X91779567Y-164868505D01*
X91775358Y-164791717D01*
X91769902Y-164753501D01*
X91763780Y-164754333D01*
X91748732Y-164800604D01*
X91726448Y-164872506D01*
X91701572Y-164955042D01*
X91699890Y-164960708D01*
X91654377Y-165114167D01*
X91454039Y-165114167D01*
X91325555Y-164659083D01*
X91336416Y-165108875D01*
X91347276Y-165558667D01*
X91083432Y-165558667D01*
X91096526Y-165320542D01*
X91110240Y-165074586D01*
X91122192Y-164868199D01*
X91132579Y-164698659D01*
X91141600Y-164563246D01*
X91149452Y-164459240D01*
X91156333Y-164383921D01*
X91162442Y-164334568D01*
X91167977Y-164308462D01*
X91170606Y-164303261D01*
X91199792Y-164294423D01*
X91255309Y-164291484D01*
X91288127Y-164292678D01*
X91389326Y-164299250D01*
X91456407Y-164511670D01*
X91486032Y-164604462D01*
X91512483Y-164685471D01*
X91532246Y-164744031D01*
X91540103Y-164765670D01*
X91550284Y-164773600D01*
X91565498Y-164753785D01*
X91587424Y-164702569D01*
X91617743Y-164616291D01*
X91640088Y-164547958D01*
X91723457Y-164288667D01*
X91949367Y-164288667D01*
X91963394Y-164452708D01*
G37*
X91963394Y-164452708D02*
X91983373Y-164700121D01*
X91999075Y-164924005D01*
X92010196Y-165119273D01*
X92016432Y-165280837D01*
X92017716Y-165362875D01*
X92018334Y-165558667D01*
X91785500Y-165558667D01*
X91783829Y-165130042D01*
X91782425Y-164981926D01*
X91779567Y-164868505D01*
X91775358Y-164791717D01*
X91769902Y-164753501D01*
X91763780Y-164754333D01*
X91748732Y-164800604D01*
X91726448Y-164872506D01*
X91701572Y-164955042D01*
X91699890Y-164960708D01*
X91654377Y-165114167D01*
X91454039Y-165114167D01*
X91325555Y-164659083D01*
X91336416Y-165108875D01*
X91347276Y-165558667D01*
X91083432Y-165558667D01*
X91096526Y-165320542D01*
X91110240Y-165074586D01*
X91122192Y-164868199D01*
X91132579Y-164698659D01*
X91141600Y-164563246D01*
X91149452Y-164459240D01*
X91156333Y-164383921D01*
X91162442Y-164334568D01*
X91167977Y-164308462D01*
X91170606Y-164303261D01*
X91199792Y-164294423D01*
X91255309Y-164291484D01*
X91288127Y-164292678D01*
X91389326Y-164299250D01*
X91456407Y-164511670D01*
X91486032Y-164604462D01*
X91512483Y-164685471D01*
X91532246Y-164744031D01*
X91540103Y-164765670D01*
X91550284Y-164773600D01*
X91565498Y-164753785D01*
X91587424Y-164702569D01*
X91617743Y-164616291D01*
X91640088Y-164547958D01*
X91723457Y-164288667D01*
X91949367Y-164288667D01*
X91963394Y-164452708D01*
G36*
X93692095Y-164591605D02*
G01*
X93786707Y-164627338D01*
X93860293Y-164688351D01*
X93918042Y-164775932D01*
X93935990Y-164814291D01*
X93948786Y-164853181D01*
X93957289Y-164900505D01*
X93962360Y-164964167D01*
X93964856Y-165052069D01*
X93965638Y-165172114D01*
X93965667Y-165213901D01*
X93965667Y-165558667D01*
X93690500Y-165558667D01*
X93690176Y-165235875D01*
X93689087Y-165122099D01*
X93686300Y-165022750D01*
X93682181Y-164945798D01*
X93677097Y-164899215D01*
X93674301Y-164889794D01*
X93629712Y-164851917D01*
X93563725Y-164825107D01*
X93511975Y-164817833D01*
X93457667Y-164817833D01*
X93457667Y-165558667D01*
X93182500Y-165558667D01*
X93182500Y-165094426D01*
X93182011Y-164939453D01*
X93182176Y-164821494D01*
X93185441Y-164735270D01*
X93194254Y-164675498D01*
X93211059Y-164636898D01*
X93238306Y-164614189D01*
X93278439Y-164602092D01*
X93333906Y-164595324D01*
X93407154Y-164588605D01*
X93417351Y-164587541D01*
X93570846Y-164579043D01*
X93692095Y-164591605D01*
G37*
X93692095Y-164591605D02*
X93786707Y-164627338D01*
X93860293Y-164688351D01*
X93918042Y-164775932D01*
X93935990Y-164814291D01*
X93948786Y-164853181D01*
X93957289Y-164900505D01*
X93962360Y-164964167D01*
X93964856Y-165052069D01*
X93965638Y-165172114D01*
X93965667Y-165213901D01*
X93965667Y-165558667D01*
X93690500Y-165558667D01*
X93690176Y-165235875D01*
X93689087Y-165122099D01*
X93686300Y-165022750D01*
X93682181Y-164945798D01*
X93677097Y-164899215D01*
X93674301Y-164889794D01*
X93629712Y-164851917D01*
X93563725Y-164825107D01*
X93511975Y-164817833D01*
X93457667Y-164817833D01*
X93457667Y-165558667D01*
X93182500Y-165558667D01*
X93182500Y-165094426D01*
X93182011Y-164939453D01*
X93182176Y-164821494D01*
X93185441Y-164735270D01*
X93194254Y-164675498D01*
X93211059Y-164636898D01*
X93238306Y-164614189D01*
X93278439Y-164602092D01*
X93333906Y-164595324D01*
X93407154Y-164588605D01*
X93417351Y-164587541D01*
X93570846Y-164579043D01*
X93692095Y-164591605D01*
G36*
X121630500Y-153938167D02*
G01*
X65009667Y-153938167D01*
X65009667Y-113869667D01*
X121630500Y-113869667D01*
X121630500Y-153938167D01*
G37*
X121630500Y-153938167D02*
X65009667Y-153938167D01*
X65009667Y-113869667D01*
X121630500Y-113869667D01*
X121630500Y-153938167D01*
G36*
X85477834Y-92195000D02*
G01*
X82493334Y-92195000D01*
X82493334Y-91581167D01*
X85477834Y-91581167D01*
X85477834Y-92195000D01*
G37*
X85477834Y-92195000D02*
X82493334Y-92195000D01*
X82493334Y-91581167D01*
X85477834Y-91581167D01*
X85477834Y-92195000D01*
G36*
X95002834Y-92195000D02*
G01*
X91997167Y-92195000D01*
X91997167Y-91581167D01*
X95002834Y-91581167D01*
X95002834Y-92195000D01*
G37*
X95002834Y-92195000D02*
X91997167Y-92195000D01*
X91997167Y-91581167D01*
X95002834Y-91581167D01*
X95002834Y-92195000D01*
G36*
X79587306Y-83815516D02*
G01*
X79817897Y-83826547D01*
X80013517Y-83846275D01*
X80177575Y-83875675D01*
X80313481Y-83915720D01*
X80424646Y-83967382D01*
X80514479Y-84031635D01*
X80586390Y-84109452D01*
X80636773Y-84188473D01*
X80689422Y-84321967D01*
X80720978Y-84480410D01*
X80731404Y-84652025D01*
X80720665Y-84825036D01*
X80688725Y-84987666D01*
X80639602Y-85120014D01*
X80558739Y-85238706D01*
X80442904Y-85335250D01*
X80291640Y-85409899D01*
X80104491Y-85462900D01*
X79974500Y-85484452D01*
X79912449Y-85489536D01*
X79815935Y-85493821D01*
X79692822Y-85497266D01*
X79550973Y-85499831D01*
X79398252Y-85501474D01*
X79242523Y-85502154D01*
X79091649Y-85501830D01*
X78953494Y-85500460D01*
X78835922Y-85498004D01*
X78746796Y-85494420D01*
X78704500Y-85491101D01*
X78493198Y-85454374D01*
X78317438Y-85395935D01*
X78175842Y-85314780D01*
X78067030Y-85209907D01*
X77989624Y-85080314D01*
X77945108Y-84939083D01*
X77925032Y-84794504D01*
X77921048Y-84637675D01*
X77932127Y-84481054D01*
X77957238Y-84337095D01*
X77995350Y-84218257D01*
X78006753Y-84194000D01*
X78065247Y-84101987D01*
X78141017Y-84024548D01*
X78237251Y-83960755D01*
X78357137Y-83909679D01*
X78503864Y-83870392D01*
X78680621Y-83841967D01*
X78890594Y-83823475D01*
X79136973Y-83813988D01*
X79318334Y-83812211D01*
X79587306Y-83815516D01*
G37*
X79587306Y-83815516D02*
X79817897Y-83826547D01*
X80013517Y-83846275D01*
X80177575Y-83875675D01*
X80313481Y-83915720D01*
X80424646Y-83967382D01*
X80514479Y-84031635D01*
X80586390Y-84109452D01*
X80636773Y-84188473D01*
X80689422Y-84321967D01*
X80720978Y-84480410D01*
X80731404Y-84652025D01*
X80720665Y-84825036D01*
X80688725Y-84987666D01*
X80639602Y-85120014D01*
X80558739Y-85238706D01*
X80442904Y-85335250D01*
X80291640Y-85409899D01*
X80104491Y-85462900D01*
X79974500Y-85484452D01*
X79912449Y-85489536D01*
X79815935Y-85493821D01*
X79692822Y-85497266D01*
X79550973Y-85499831D01*
X79398252Y-85501474D01*
X79242523Y-85502154D01*
X79091649Y-85501830D01*
X78953494Y-85500460D01*
X78835922Y-85498004D01*
X78746796Y-85494420D01*
X78704500Y-85491101D01*
X78493198Y-85454374D01*
X78317438Y-85395935D01*
X78175842Y-85314780D01*
X78067030Y-85209907D01*
X77989624Y-85080314D01*
X77945108Y-84939083D01*
X77925032Y-84794504D01*
X77921048Y-84637675D01*
X77932127Y-84481054D01*
X77957238Y-84337095D01*
X77995350Y-84218257D01*
X78006753Y-84194000D01*
X78065247Y-84101987D01*
X78141017Y-84024548D01*
X78237251Y-83960755D01*
X78357137Y-83909679D01*
X78503864Y-83870392D01*
X78680621Y-83841967D01*
X78890594Y-83823475D01*
X79136973Y-83813988D01*
X79318334Y-83812211D01*
X79587306Y-83815516D01*
G36*
X84821460Y-83815160D02*
G01*
X85053997Y-83825836D01*
X85251388Y-83845047D01*
X85416966Y-83873749D01*
X85554061Y-83912897D01*
X85666008Y-83963449D01*
X85756140Y-84026359D01*
X85827788Y-84102584D01*
X85884285Y-84193079D01*
X85885216Y-84194909D01*
X85938643Y-84338337D01*
X85969521Y-84505123D01*
X85977854Y-84682797D01*
X85963646Y-84858888D01*
X85926898Y-85020929D01*
X85884996Y-85124855D01*
X85806689Y-85238382D01*
X85696400Y-85330908D01*
X85551434Y-85404329D01*
X85429726Y-85444854D01*
X85376161Y-85459127D01*
X85325227Y-85470380D01*
X85270943Y-85479014D01*
X85207326Y-85485430D01*
X85128397Y-85490027D01*
X85028172Y-85493207D01*
X84900671Y-85495369D01*
X84739911Y-85496915D01*
X84641750Y-85497604D01*
X84480900Y-85498319D01*
X84330609Y-85498346D01*
X84197019Y-85497736D01*
X84086273Y-85496536D01*
X84004512Y-85494796D01*
X83957879Y-85492564D01*
X83953834Y-85492133D01*
X83743922Y-85453521D01*
X83569805Y-85395315D01*
X83429046Y-85316103D01*
X83319211Y-85214472D01*
X83237862Y-85089010D01*
X83229959Y-85072417D01*
X83210501Y-85026182D01*
X83196996Y-84980504D01*
X83188384Y-84926371D01*
X83183601Y-84854769D01*
X83181585Y-84756685D01*
X83181250Y-84659221D01*
X83181531Y-84538867D01*
X83183352Y-84451416D01*
X83188184Y-84387437D01*
X83197494Y-84337500D01*
X83212752Y-84292173D01*
X83235426Y-84242028D01*
X83251291Y-84209587D01*
X83307305Y-84115199D01*
X83376987Y-84035870D01*
X83463845Y-83970529D01*
X83571389Y-83918100D01*
X83703126Y-83877512D01*
X83862566Y-83847689D01*
X84053219Y-83827558D01*
X84278592Y-83816045D01*
X84542195Y-83812077D01*
X84550443Y-83812064D01*
X84821460Y-83815160D01*
G37*
X84821460Y-83815160D02*
X85053997Y-83825836D01*
X85251388Y-83845047D01*
X85416966Y-83873749D01*
X85554061Y-83912897D01*
X85666008Y-83963449D01*
X85756140Y-84026359D01*
X85827788Y-84102584D01*
X85884285Y-84193079D01*
X85885216Y-84194909D01*
X85938643Y-84338337D01*
X85969521Y-84505123D01*
X85977854Y-84682797D01*
X85963646Y-84858888D01*
X85926898Y-85020929D01*
X85884996Y-85124855D01*
X85806689Y-85238382D01*
X85696400Y-85330908D01*
X85551434Y-85404329D01*
X85429726Y-85444854D01*
X85376161Y-85459127D01*
X85325227Y-85470380D01*
X85270943Y-85479014D01*
X85207326Y-85485430D01*
X85128397Y-85490027D01*
X85028172Y-85493207D01*
X84900671Y-85495369D01*
X84739911Y-85496915D01*
X84641750Y-85497604D01*
X84480900Y-85498319D01*
X84330609Y-85498346D01*
X84197019Y-85497736D01*
X84086273Y-85496536D01*
X84004512Y-85494796D01*
X83957879Y-85492564D01*
X83953834Y-85492133D01*
X83743922Y-85453521D01*
X83569805Y-85395315D01*
X83429046Y-85316103D01*
X83319211Y-85214472D01*
X83237862Y-85089010D01*
X83229959Y-85072417D01*
X83210501Y-85026182D01*
X83196996Y-84980504D01*
X83188384Y-84926371D01*
X83183601Y-84854769D01*
X83181585Y-84756685D01*
X83181250Y-84659221D01*
X83181531Y-84538867D01*
X83183352Y-84451416D01*
X83188184Y-84387437D01*
X83197494Y-84337500D01*
X83212752Y-84292173D01*
X83235426Y-84242028D01*
X83251291Y-84209587D01*
X83307305Y-84115199D01*
X83376987Y-84035870D01*
X83463845Y-83970529D01*
X83571389Y-83918100D01*
X83703126Y-83877512D01*
X83862566Y-83847689D01*
X84053219Y-83827558D01*
X84278592Y-83816045D01*
X84542195Y-83812077D01*
X84550443Y-83812064D01*
X84821460Y-83815160D01*
G36*
X90028554Y-83812454D02*
G01*
X90225477Y-83820639D01*
X90405370Y-83834163D01*
X90559800Y-83853024D01*
X90674250Y-83875630D01*
X90846195Y-83934150D01*
X90982415Y-84013607D01*
X91085469Y-84116873D01*
X91157917Y-84246816D01*
X91202318Y-84406310D01*
X91212881Y-84479750D01*
X91220735Y-84614314D01*
X91216859Y-84757106D01*
X91202521Y-84895081D01*
X91178990Y-85015196D01*
X91153277Y-85092235D01*
X91077188Y-85212332D01*
X90964058Y-85313974D01*
X90815463Y-85396047D01*
X90637614Y-85456249D01*
X90586946Y-85467030D01*
X90523941Y-85475672D01*
X90443405Y-85482453D01*
X90340147Y-85487648D01*
X90208973Y-85491536D01*
X90044692Y-85494393D01*
X89891084Y-85496076D01*
X89730236Y-85497185D01*
X89579947Y-85497569D01*
X89446358Y-85497263D01*
X89335612Y-85496304D01*
X89253850Y-85494725D01*
X89207215Y-85492563D01*
X89203167Y-85492133D01*
X88988582Y-85451764D01*
X88809840Y-85390033D01*
X88666001Y-85306538D01*
X88573715Y-85221862D01*
X88508830Y-85132014D01*
X88463230Y-85028293D01*
X88434842Y-84903084D01*
X88421594Y-84748768D01*
X88420000Y-84656828D01*
X88430464Y-84458346D01*
X88463462Y-84293633D01*
X88521404Y-84159211D01*
X88606698Y-84051605D01*
X88721754Y-83967339D01*
X88868982Y-83902937D01*
X88961568Y-83875491D01*
X89083600Y-83851630D01*
X89239195Y-83833113D01*
X89419920Y-83819937D01*
X89617342Y-83812102D01*
X89823031Y-83809608D01*
X90028554Y-83812454D01*
G37*
X90028554Y-83812454D02*
X90225477Y-83820639D01*
X90405370Y-83834163D01*
X90559800Y-83853024D01*
X90674250Y-83875630D01*
X90846195Y-83934150D01*
X90982415Y-84013607D01*
X91085469Y-84116873D01*
X91157917Y-84246816D01*
X91202318Y-84406310D01*
X91212881Y-84479750D01*
X91220735Y-84614314D01*
X91216859Y-84757106D01*
X91202521Y-84895081D01*
X91178990Y-85015196D01*
X91153277Y-85092235D01*
X91077188Y-85212332D01*
X90964058Y-85313974D01*
X90815463Y-85396047D01*
X90637614Y-85456249D01*
X90586946Y-85467030D01*
X90523941Y-85475672D01*
X90443405Y-85482453D01*
X90340147Y-85487648D01*
X90208973Y-85491536D01*
X90044692Y-85494393D01*
X89891084Y-85496076D01*
X89730236Y-85497185D01*
X89579947Y-85497569D01*
X89446358Y-85497263D01*
X89335612Y-85496304D01*
X89253850Y-85494725D01*
X89207215Y-85492563D01*
X89203167Y-85492133D01*
X88988582Y-85451764D01*
X88809840Y-85390033D01*
X88666001Y-85306538D01*
X88573715Y-85221862D01*
X88508830Y-85132014D01*
X88463230Y-85028293D01*
X88434842Y-84903084D01*
X88421594Y-84748768D01*
X88420000Y-84656828D01*
X88430464Y-84458346D01*
X88463462Y-84293633D01*
X88521404Y-84159211D01*
X88606698Y-84051605D01*
X88721754Y-83967339D01*
X88868982Y-83902937D01*
X88961568Y-83875491D01*
X89083600Y-83851630D01*
X89239195Y-83833113D01*
X89419920Y-83819937D01*
X89617342Y-83812102D01*
X89823031Y-83809608D01*
X90028554Y-83812454D01*
G36*
X101463907Y-83813615D02*
G01*
X101624584Y-83821252D01*
X101757245Y-83835157D01*
X101868936Y-83856294D01*
X101966706Y-83885626D01*
X102043048Y-83917220D01*
X102153136Y-83982547D01*
X102238727Y-84067024D01*
X102301708Y-84174832D01*
X102343972Y-84310153D01*
X102367408Y-84477167D01*
X102373945Y-84649140D01*
X102365237Y-84856938D01*
X102336058Y-85029733D01*
X102284327Y-85170653D01*
X102207965Y-85282823D01*
X102104892Y-85369372D01*
X101973026Y-85433425D01*
X101824435Y-85475187D01*
X101741875Y-85487068D01*
X101626817Y-85495942D01*
X101488668Y-85501811D01*
X101336832Y-85504677D01*
X101180715Y-85504545D01*
X101029723Y-85501416D01*
X100893261Y-85495294D01*
X100780735Y-85486182D01*
X100704895Y-85474829D01*
X100545989Y-85427663D01*
X100420382Y-85360421D01*
X100322006Y-85268600D01*
X100244795Y-85147699D01*
X100233990Y-85125333D01*
X100210826Y-85070890D01*
X100194716Y-85017659D01*
X100184013Y-84955324D01*
X100177071Y-84873564D01*
X100172244Y-84762062D01*
X100171301Y-84732474D01*
X100169616Y-84562147D01*
X100177192Y-84424713D01*
X100195540Y-84311447D01*
X100226171Y-84213626D01*
X100270596Y-84122524D01*
X100279624Y-84107086D01*
X100325458Y-84038988D01*
X100374847Y-83989899D01*
X100442591Y-83946671D01*
X100485085Y-83924589D01*
X100571625Y-83886374D01*
X100663572Y-83857260D01*
X100767995Y-83836225D01*
X100891964Y-83822245D01*
X101042549Y-83814298D01*
X101226820Y-83811360D01*
X101268167Y-83811284D01*
X101463907Y-83813615D01*
G37*
X101463907Y-83813615D02*
X101624584Y-83821252D01*
X101757245Y-83835157D01*
X101868936Y-83856294D01*
X101966706Y-83885626D01*
X102043048Y-83917220D01*
X102153136Y-83982547D01*
X102238727Y-84067024D01*
X102301708Y-84174832D01*
X102343972Y-84310153D01*
X102367408Y-84477167D01*
X102373945Y-84649140D01*
X102365237Y-84856938D01*
X102336058Y-85029733D01*
X102284327Y-85170653D01*
X102207965Y-85282823D01*
X102104892Y-85369372D01*
X101973026Y-85433425D01*
X101824435Y-85475187D01*
X101741875Y-85487068D01*
X101626817Y-85495942D01*
X101488668Y-85501811D01*
X101336832Y-85504677D01*
X101180715Y-85504545D01*
X101029723Y-85501416D01*
X100893261Y-85495294D01*
X100780735Y-85486182D01*
X100704895Y-85474829D01*
X100545989Y-85427663D01*
X100420382Y-85360421D01*
X100322006Y-85268600D01*
X100244795Y-85147699D01*
X100233990Y-85125333D01*
X100210826Y-85070890D01*
X100194716Y-85017659D01*
X100184013Y-84955324D01*
X100177071Y-84873564D01*
X100172244Y-84762062D01*
X100171301Y-84732474D01*
X100169616Y-84562147D01*
X100177192Y-84424713D01*
X100195540Y-84311447D01*
X100226171Y-84213626D01*
X100270596Y-84122524D01*
X100279624Y-84107086D01*
X100325458Y-84038988D01*
X100374847Y-83989899D01*
X100442591Y-83946671D01*
X100485085Y-83924589D01*
X100571625Y-83886374D01*
X100663572Y-83857260D01*
X100767995Y-83836225D01*
X100891964Y-83822245D01*
X101042549Y-83814298D01*
X101226820Y-83811360D01*
X101268167Y-83811284D01*
X101463907Y-83813615D01*
%TD*%
%LPC*%
%TO.C,W1*%
G36*
X106285206Y-202849042D02*
G01*
X106583188Y-203627556D01*
X106839432Y-204412580D01*
X107054131Y-205204779D01*
X107227474Y-206004821D01*
X107289978Y-206355210D01*
X107398742Y-207095214D01*
X107474263Y-207812454D01*
X107516515Y-208506264D01*
X107525473Y-209175978D01*
X107501110Y-209820930D01*
X107448542Y-210397787D01*
X107375560Y-210935334D01*
X107279723Y-211508434D01*
X107161053Y-212117022D01*
X107019574Y-212761029D01*
X106855306Y-213440391D01*
X106668273Y-214155040D01*
X106458496Y-214904910D01*
X106225997Y-215689934D01*
X105970799Y-216510046D01*
X105692924Y-217365179D01*
X105392393Y-218255267D01*
X105069229Y-219180244D01*
X104723455Y-220140042D01*
X104355091Y-221134596D01*
X103964161Y-222163839D01*
X103550687Y-223227704D01*
X103114690Y-224326124D01*
X102656193Y-225459035D01*
X102175218Y-226626368D01*
X101671787Y-227828057D01*
X101549666Y-228116750D01*
X101206835Y-228920722D01*
X100845974Y-229757407D01*
X100469140Y-230622253D01*
X100078391Y-231510710D01*
X99675785Y-232418225D01*
X99263381Y-233340249D01*
X98843236Y-234272230D01*
X98417407Y-235209616D01*
X97987954Y-236147858D01*
X97556933Y-237082404D01*
X97126403Y-238008702D01*
X96698422Y-238922202D01*
X96275047Y-239818352D01*
X95945773Y-240509833D01*
X95872645Y-240664387D01*
X95801615Y-240817355D01*
X95735938Y-240961518D01*
X95678866Y-241089653D01*
X95633653Y-241194541D01*
X95603552Y-241268960D01*
X95602471Y-241271833D01*
X95560140Y-241377258D01*
X95505734Y-241501834D01*
X95447327Y-241627482D01*
X95408711Y-241705750D01*
X95225355Y-242029044D01*
X95022689Y-242317388D01*
X94801757Y-242570028D01*
X94563602Y-242786209D01*
X94309266Y-242965177D01*
X94039793Y-243106178D01*
X93756225Y-243208458D01*
X93459606Y-243271262D01*
X93214250Y-243292555D01*
X93109751Y-243295177D01*
X93016467Y-243295902D01*
X92944994Y-243294748D01*
X92907334Y-243291996D01*
X92859711Y-243284034D01*
X92786435Y-243272014D01*
X92706250Y-243259003D01*
X92425055Y-243193095D01*
X92144944Y-243087871D01*
X91869518Y-242946272D01*
X91602379Y-242771241D01*
X91347127Y-242565718D01*
X91107365Y-242332647D01*
X90886693Y-242074969D01*
X90688713Y-241795625D01*
X90517025Y-241497558D01*
X90493929Y-241451750D01*
X90466906Y-241396170D01*
X90423039Y-241304647D01*
X90363455Y-241179568D01*
X90289280Y-241023319D01*
X90201641Y-240838287D01*
X90101667Y-240626858D01*
X89990484Y-240391418D01*
X89869219Y-240134354D01*
X89739000Y-239858053D01*
X89600955Y-239564900D01*
X89456209Y-239257282D01*
X89305891Y-238937586D01*
X89219149Y-238753000D01*
X88587364Y-237401450D01*
X87972919Y-236073186D01*
X87375990Y-234768672D01*
X86796757Y-233488374D01*
X86235397Y-232232757D01*
X85692087Y-231002287D01*
X85167006Y-229797430D01*
X84660330Y-228618651D01*
X84172239Y-227466416D01*
X83702909Y-226341190D01*
X83252518Y-225243439D01*
X82821245Y-224173628D01*
X82409267Y-223132224D01*
X82016761Y-222119690D01*
X81643905Y-221136494D01*
X81290878Y-220183100D01*
X80957857Y-219259975D01*
X80645019Y-218367583D01*
X80352543Y-217506391D01*
X80080606Y-216676863D01*
X79829385Y-215879465D01*
X79599060Y-215114664D01*
X79389807Y-214382924D01*
X79201804Y-213684711D01*
X79035229Y-213020490D01*
X78890260Y-212390728D01*
X78767075Y-211795890D01*
X78665851Y-211236440D01*
X78631810Y-211024361D01*
X78589588Y-210740471D01*
X78555717Y-210486935D01*
X78529235Y-210252810D01*
X78509177Y-210027154D01*
X78494581Y-209799025D01*
X78484484Y-209557481D01*
X78477921Y-209291579D01*
X78477580Y-209272421D01*
X78484556Y-208461933D01*
X78533389Y-207651053D01*
X78623676Y-206841880D01*
X78755015Y-206036516D01*
X78927003Y-205237062D01*
X79139238Y-204445619D01*
X79391317Y-203664286D01*
X79682836Y-202895165D01*
X79714852Y-202817292D01*
X79813470Y-202579167D01*
X106174221Y-202579167D01*
X106285206Y-202849042D01*
G37*
X106285206Y-202849042D02*
X106583188Y-203627556D01*
X106839432Y-204412580D01*
X107054131Y-205204779D01*
X107227474Y-206004821D01*
X107289978Y-206355210D01*
X107398742Y-207095214D01*
X107474263Y-207812454D01*
X107516515Y-208506264D01*
X107525473Y-209175978D01*
X107501110Y-209820930D01*
X107448542Y-210397787D01*
X107375560Y-210935334D01*
X107279723Y-211508434D01*
X107161053Y-212117022D01*
X107019574Y-212761029D01*
X106855306Y-213440391D01*
X106668273Y-214155040D01*
X106458496Y-214904910D01*
X106225997Y-215689934D01*
X105970799Y-216510046D01*
X105692924Y-217365179D01*
X105392393Y-218255267D01*
X105069229Y-219180244D01*
X104723455Y-220140042D01*
X104355091Y-221134596D01*
X103964161Y-222163839D01*
X103550687Y-223227704D01*
X103114690Y-224326124D01*
X102656193Y-225459035D01*
X102175218Y-226626368D01*
X101671787Y-227828057D01*
X101549666Y-228116750D01*
X101206835Y-228920722D01*
X100845974Y-229757407D01*
X100469140Y-230622253D01*
X100078391Y-231510710D01*
X99675785Y-232418225D01*
X99263381Y-233340249D01*
X98843236Y-234272230D01*
X98417407Y-235209616D01*
X97987954Y-236147858D01*
X97556933Y-237082404D01*
X97126403Y-238008702D01*
X96698422Y-238922202D01*
X96275047Y-239818352D01*
X95945773Y-240509833D01*
X95872645Y-240664387D01*
X95801615Y-240817355D01*
X95735938Y-240961518D01*
X95678866Y-241089653D01*
X95633653Y-241194541D01*
X95603552Y-241268960D01*
X95602471Y-241271833D01*
X95560140Y-241377258D01*
X95505734Y-241501834D01*
X95447327Y-241627482D01*
X95408711Y-241705750D01*
X95225355Y-242029044D01*
X95022689Y-242317388D01*
X94801757Y-242570028D01*
X94563602Y-242786209D01*
X94309266Y-242965177D01*
X94039793Y-243106178D01*
X93756225Y-243208458D01*
X93459606Y-243271262D01*
X93214250Y-243292555D01*
X93109751Y-243295177D01*
X93016467Y-243295902D01*
X92944994Y-243294748D01*
X92907334Y-243291996D01*
X92859711Y-243284034D01*
X92786435Y-243272014D01*
X92706250Y-243259003D01*
X92425055Y-243193095D01*
X92144944Y-243087871D01*
X91869518Y-242946272D01*
X91602379Y-242771241D01*
X91347127Y-242565718D01*
X91107365Y-242332647D01*
X90886693Y-242074969D01*
X90688713Y-241795625D01*
X90517025Y-241497558D01*
X90493929Y-241451750D01*
X90466906Y-241396170D01*
X90423039Y-241304647D01*
X90363455Y-241179568D01*
X90289280Y-241023319D01*
X90201641Y-240838287D01*
X90101667Y-240626858D01*
X89990484Y-240391418D01*
X89869219Y-240134354D01*
X89739000Y-239858053D01*
X89600955Y-239564900D01*
X89456209Y-239257282D01*
X89305891Y-238937586D01*
X89219149Y-238753000D01*
X88587364Y-237401450D01*
X87972919Y-236073186D01*
X87375990Y-234768672D01*
X86796757Y-233488374D01*
X86235397Y-232232757D01*
X85692087Y-231002287D01*
X85167006Y-229797430D01*
X84660330Y-228618651D01*
X84172239Y-227466416D01*
X83702909Y-226341190D01*
X83252518Y-225243439D01*
X82821245Y-224173628D01*
X82409267Y-223132224D01*
X82016761Y-222119690D01*
X81643905Y-221136494D01*
X81290878Y-220183100D01*
X80957857Y-219259975D01*
X80645019Y-218367583D01*
X80352543Y-217506391D01*
X80080606Y-216676863D01*
X79829385Y-215879465D01*
X79599060Y-215114664D01*
X79389807Y-214382924D01*
X79201804Y-213684711D01*
X79035229Y-213020490D01*
X78890260Y-212390728D01*
X78767075Y-211795890D01*
X78665851Y-211236440D01*
X78631810Y-211024361D01*
X78589588Y-210740471D01*
X78555717Y-210486935D01*
X78529235Y-210252810D01*
X78509177Y-210027154D01*
X78494581Y-209799025D01*
X78484484Y-209557481D01*
X78477921Y-209291579D01*
X78477580Y-209272421D01*
X78484556Y-208461933D01*
X78533389Y-207651053D01*
X78623676Y-206841880D01*
X78755015Y-206036516D01*
X78927003Y-205237062D01*
X79139238Y-204445619D01*
X79391317Y-203664286D01*
X79682836Y-202895165D01*
X79714852Y-202817292D01*
X79813470Y-202579167D01*
X106174221Y-202579167D01*
X106285206Y-202849042D01*
%TD*%
D15*
%TO.C,U4*%
X97000000Y-73230000D03*
X97000000Y-75770000D03*
X90000000Y-75770000D03*
X90000000Y-73230000D03*
%TD*%
D12*
%TO.C,U14*%
G36*
X63137005Y-171101219D02*
G01*
X61864213Y-169828427D01*
X63278427Y-168414213D01*
X64551219Y-169687005D01*
X63137005Y-171101219D01*
G37*
G36*
X57621573Y-165585787D02*
G01*
X56348781Y-164312995D01*
X57762995Y-162898781D01*
X59035787Y-164171573D01*
X57621573Y-165585787D01*
G37*
G36*
X61881891Y-164295316D02*
G01*
X61174785Y-163588210D01*
X62129379Y-162633616D01*
X62836485Y-163340722D01*
X61881891Y-164295316D01*
G37*
G36*
X62871840Y-165285266D02*
G01*
X62164734Y-164578160D01*
X63119328Y-163623566D01*
X63826434Y-164330672D01*
X62871840Y-165285266D01*
G37*
G36*
X63861790Y-166275215D02*
G01*
X63154684Y-165568109D01*
X64109278Y-164613515D01*
X64816384Y-165320621D01*
X63861790Y-166275215D01*
G37*
G36*
X58770621Y-171366384D02*
G01*
X58063515Y-170659278D01*
X59018109Y-169704684D01*
X59725215Y-170411790D01*
X58770621Y-171366384D01*
G37*
G36*
X57780672Y-170376434D02*
G01*
X57073566Y-169669328D01*
X58028160Y-168714734D01*
X58735266Y-169421840D01*
X57780672Y-170376434D01*
G37*
G36*
X56790722Y-169386485D02*
G01*
X56083616Y-168679379D01*
X57038210Y-167724785D01*
X57745316Y-168431891D01*
X56790722Y-169386485D01*
G37*
D16*
X61793503Y-168343503D03*
D17*
X59106497Y-165656497D03*
%TD*%
D18*
%TO.C,J5*%
X96080000Y-60540000D03*
X96080000Y-58000000D03*
X93540000Y-60540000D03*
X93540000Y-58000000D03*
X91000000Y-60540000D03*
D19*
X91000000Y-58000000D03*
%TD*%
D20*
%TO.C,D10*%
X94790000Y-67000000D03*
D21*
X92250000Y-67000000D03*
%TD*%
D22*
%TO.C,H1*%
X93500000Y-52000000D03*
%TD*%
D23*
%TO.C,LCD1*%
X82500000Y-141100000D03*
X82500000Y-140300000D03*
X82500000Y-127500000D03*
X82500000Y-128300000D03*
X82500000Y-139500000D03*
X82500000Y-138700000D03*
X82500000Y-137900000D03*
X82500000Y-137100000D03*
X82500000Y-136300000D03*
X82500000Y-135500000D03*
X82500000Y-129100000D03*
X82500000Y-129900000D03*
X82500000Y-130700000D03*
X82500000Y-131500000D03*
X82500000Y-132300000D03*
X82500000Y-133100000D03*
X82500000Y-134700000D03*
X82500000Y-133900000D03*
%TD*%
%TO.C,J1*%
G36*
G01*
X66555026Y-110114786D02*
X65960160Y-110036470D01*
G75*
G02*
X65529701Y-109475485I65263J495722D01*
G01*
X65529701Y-109475485D01*
G75*
G02*
X66090686Y-109045026I495722J-65263D01*
G01*
X66685552Y-109123342D01*
G75*
G02*
X67116011Y-109684327I-65263J-495722D01*
G01*
X67116011Y-109684327D01*
G75*
G02*
X66555026Y-110114786I-495722J65263D01*
G01*
G37*
D24*
X69754977Y-111474092D03*
G36*
G01*
X65427280Y-118680869D02*
X64832414Y-118602553D01*
G75*
G02*
X64401955Y-118041568I65263J495722D01*
G01*
X64401955Y-118041568D01*
G75*
G02*
X64962940Y-117611109I495722J-65263D01*
G01*
X65557806Y-117689425D01*
G75*
G02*
X65988265Y-118250410I-65263J-495722D01*
G01*
X65988265Y-118250410D01*
G75*
G02*
X65427280Y-118680869I-495722J65263D01*
G01*
G37*
X69000536Y-117204644D03*
G36*
G01*
X69819381Y-119259100D02*
X68728791Y-119115522D01*
G75*
G02*
X68298332Y-118554537I65263J495722D01*
G01*
X68298332Y-118554537D01*
G75*
G02*
X68859317Y-118124078I495722J-65263D01*
G01*
X69949907Y-118267656D01*
G75*
G02*
X70380366Y-118828641I-65263J-495722D01*
G01*
X70380366Y-118828641D01*
G75*
G02*
X69819381Y-119259100I-495722J65263D01*
G01*
G37*
G36*
G01*
X70947128Y-110693016D02*
X69856538Y-110549438D01*
G75*
G02*
X69426079Y-109988453I65263J495722D01*
G01*
X69426079Y-109988453D01*
G75*
G02*
X69987064Y-109557994I495722J-65263D01*
G01*
X71077654Y-109701572D01*
G75*
G02*
X71508113Y-110262557I-65263J-495722D01*
G01*
X71508113Y-110262557D01*
G75*
G02*
X70947128Y-110693016I-495722J65263D01*
G01*
G37*
%TD*%
D25*
%TO.C,SW3*%
X62929258Y-127873271D03*
X62772250Y-130869160D03*
%TD*%
D18*
%TO.C,J8*%
X101780000Y-198460000D03*
X101780000Y-201000000D03*
X99240000Y-198460000D03*
X99240000Y-201000000D03*
X96700000Y-198460000D03*
X96700000Y-201000000D03*
X94160000Y-198460000D03*
X94160000Y-201000000D03*
X91620000Y-198460000D03*
X91620000Y-201000000D03*
X89080000Y-198460000D03*
X89080000Y-201000000D03*
X86540000Y-198460000D03*
X86540000Y-201000000D03*
X84000000Y-198460000D03*
D19*
X84000000Y-201000000D03*
%TD*%
D26*
%TO.C,SW8*%
X96050000Y-161850000D03*
X89450000Y-161850000D03*
X96050000Y-158150000D03*
X89450000Y-158151000D03*
%TD*%
%TO.C,SW7*%
X113550000Y-161850000D03*
X106950000Y-161850000D03*
X113550000Y-158150000D03*
X106950000Y-158151000D03*
%TD*%
%TO.C,SW6*%
X78550000Y-161850000D03*
X71950000Y-161850000D03*
X78550000Y-158150000D03*
X71950000Y-158151000D03*
%TD*%
%TO.C,SW5*%
X130300000Y-177850000D03*
X123700000Y-177850000D03*
X130300000Y-174150000D03*
X123700000Y-174151000D03*
%TD*%
%TO.C,SW4*%
X135800000Y-162200000D03*
X129200000Y-162200000D03*
X135800000Y-158500000D03*
X129200000Y-158501000D03*
%TD*%
D27*
%TO.C,SW10*%
X127143918Y-146217077D03*
X130634548Y-152514339D03*
D28*
X132201589Y-150102186D03*
X130019945Y-146166397D03*
%TD*%
D27*
%TO.C,SW9*%
X56265452Y-152464339D03*
X59756082Y-146167077D03*
D28*
X56880055Y-146116397D03*
X54698411Y-150052186D03*
%TD*%
M02*
