%TF.GenerationSoftware,KiCad,Pcbnew,(5.1.10-1-10_14)*%
%TF.CreationDate,2021-08-27T15:48:04+02:00*%
%TF.ProjectId,OOO2021_Badge,4f4f4f32-3032-4315-9f42-616467652e6b,rev?*%
%TF.SameCoordinates,Original*%
%TF.FileFunction,Profile,NP*%
%FSLAX46Y46*%
G04 Gerber Fmt 4.6, Leading zero omitted, Abs format (unit mm)*
G04 Created by KiCad (PCBNEW (5.1.10-1-10_14)) date 2021-08-27 15:48:04*
%MOMM*%
%LPD*%
G01*
G04 APERTURE LIST*
%TA.AperFunction,Profile*%
%ADD10C,0.100000*%
%TD*%
G04 APERTURE END LIST*
D10*
%TO.C,W1*%
X91747000Y-47211460D02*
X91358500Y-47609460D01*
X91358500Y-47609460D02*
X90972800Y-48010460D01*
X90972800Y-48010460D02*
X90591600Y-48415460D01*
X90591600Y-48415460D02*
X90213200Y-48822460D01*
X90213200Y-48822460D02*
X89838200Y-49232460D01*
X89838200Y-49232460D02*
X89466400Y-49643460D01*
X89466400Y-49643460D02*
X89096800Y-50060460D01*
X89096800Y-50060460D02*
X88730900Y-50478460D01*
X88730900Y-50478460D02*
X88367500Y-50900460D01*
X88367500Y-50900460D02*
X88008200Y-51323460D01*
X88008200Y-51323460D02*
X87651700Y-51751460D01*
X87651700Y-51751460D02*
X87298200Y-52179460D01*
X87298200Y-52179460D02*
X86948000Y-52610460D01*
X86948000Y-52610460D02*
X86601300Y-53043460D01*
X86601300Y-53043460D02*
X86256900Y-53479460D01*
X86256900Y-53479460D02*
X85915500Y-53918460D01*
X85915500Y-53918460D02*
X85576800Y-54359460D01*
X85576800Y-54359460D02*
X85241400Y-54802460D01*
X85241400Y-54802460D02*
X84909400Y-55247500D01*
X84909400Y-55247500D02*
X84579900Y-55695500D01*
X84579900Y-55695500D02*
X84253300Y-56143500D01*
X84253300Y-56143500D02*
X83929100Y-56596500D01*
X83929100Y-56596500D02*
X83608100Y-57050500D01*
X83608100Y-57050500D02*
X83290000Y-57505500D01*
X83290000Y-57505500D02*
X82974800Y-57964500D01*
X82974800Y-57964500D02*
X82662200Y-58424500D01*
X82662200Y-58424500D02*
X82353100Y-58884500D01*
X82353100Y-58884500D02*
X82046400Y-59347500D01*
X82046400Y-59347500D02*
X81742400Y-59811500D01*
X81742400Y-59811500D02*
X81441500Y-60278500D01*
X81441500Y-60278500D02*
X81142500Y-60746500D01*
X81142500Y-60746500D02*
X80846000Y-61217500D01*
X80846000Y-61217500D02*
X80552200Y-61690500D01*
X80552200Y-61690500D02*
X80261700Y-62163500D01*
X80261700Y-62163500D02*
X79973600Y-62637500D01*
X79973600Y-62637500D02*
X79688300Y-63113500D01*
X79688300Y-63113500D02*
X79405300Y-63590500D01*
X79405300Y-63590500D02*
X79125100Y-64069500D01*
X79125100Y-64069500D02*
X78847100Y-64549500D01*
X78847100Y-64549500D02*
X78571000Y-65032500D01*
X78571000Y-65032500D02*
X78297400Y-65517500D01*
X78297400Y-65517500D02*
X78027000Y-66001500D01*
X78027000Y-66001500D02*
X77758600Y-66488500D01*
X77758600Y-66488500D02*
X77493100Y-66975500D01*
X77493100Y-66975500D02*
X77229700Y-67463500D01*
X77229700Y-67463500D02*
X76968300Y-67953500D01*
X76968300Y-67953500D02*
X76709400Y-68445500D01*
X76709400Y-68445500D02*
X76453200Y-68937500D01*
X76453200Y-68937500D02*
X76199000Y-69430500D01*
X76199000Y-69430500D02*
X75946600Y-69925500D01*
X75946600Y-69925500D02*
X75696600Y-70421500D01*
X75696600Y-70421500D02*
X75449000Y-70918500D01*
X75449000Y-70918500D02*
X75203700Y-71416500D01*
X75203700Y-71416500D02*
X74960500Y-71915500D01*
X74960500Y-71915500D02*
X74719000Y-72416500D01*
X74719000Y-72416500D02*
X74480100Y-72916500D01*
X74480100Y-72916500D02*
X74242500Y-73419500D01*
X74242500Y-73419500D02*
X74007900Y-73922500D01*
X74007900Y-73922500D02*
X73774800Y-74426500D01*
X73774800Y-74426500D02*
X73544000Y-74931500D01*
X73544000Y-74931500D02*
X73315000Y-75438500D01*
X73315000Y-75438500D02*
X73088700Y-75944500D01*
X73088700Y-75944500D02*
X72863900Y-76451500D01*
X72863900Y-76451500D02*
X72640500Y-76961500D01*
X72640500Y-76961500D02*
X72419500Y-77470500D01*
X72419500Y-77470500D02*
X72200600Y-77980500D01*
X72200600Y-77980500D02*
X71983900Y-78489500D01*
X71983900Y-78489500D02*
X71768400Y-79002500D01*
X71768400Y-79002500D02*
X71768400Y-79002500D01*
X71768400Y-79002500D02*
X71768400Y-79002500D01*
X71768400Y-79002500D02*
X71564100Y-79497500D01*
X71564100Y-79497500D02*
X71362100Y-79991500D01*
X71362100Y-79991500D02*
X71163600Y-80488500D01*
X71163600Y-80488500D02*
X71171700Y-80488500D01*
X71171700Y-80488500D02*
X70968300Y-81004500D01*
X70968300Y-81004500D02*
X70767000Y-81521500D01*
X70767000Y-81521500D02*
X70567900Y-82040500D01*
X70567900Y-82040500D02*
X70371100Y-82558500D01*
X70371100Y-82558500D02*
X70176400Y-83076500D01*
X70176400Y-83076500D02*
X69983600Y-83598500D01*
X69983600Y-83598500D02*
X69793500Y-84119500D01*
X69793500Y-84119500D02*
X69605200Y-84641500D01*
X69605200Y-84641500D02*
X69418900Y-85164500D01*
X69418900Y-85164500D02*
X69234900Y-85688500D01*
X69234900Y-85688500D02*
X69053300Y-86212500D01*
X69053300Y-86212500D02*
X68873600Y-86736500D01*
X68873600Y-86736500D02*
X68696000Y-87262500D01*
X68696000Y-87262500D02*
X68520300Y-87788500D01*
X68520300Y-87788500D02*
X68346800Y-88316500D01*
X68346800Y-88316500D02*
X68175400Y-88845500D01*
X68175400Y-88845500D02*
X68006100Y-89373500D01*
X68006100Y-89373500D02*
X67839000Y-89903500D01*
X67839000Y-89903500D02*
X67674100Y-90432500D01*
X67674100Y-90432500D02*
X67511500Y-90962500D01*
X67511500Y-90962500D02*
X67351100Y-91491500D01*
X67351100Y-91491500D02*
X67192200Y-92023500D01*
X67192200Y-92023500D02*
X67035600Y-92556500D01*
X67035600Y-92556500D02*
X66881100Y-93088500D01*
X66881100Y-93088500D02*
X66728700Y-93622500D01*
X66728700Y-93622500D02*
X66578300Y-94155500D01*
X66578300Y-94155500D02*
X66430100Y-94690500D01*
X66430100Y-94690500D02*
X66283600Y-95225500D01*
X66283600Y-95225500D02*
X66139300Y-95760500D01*
X66139300Y-95760500D02*
X65997300Y-96295500D01*
X65997300Y-96295500D02*
X65857300Y-96831500D01*
X65857300Y-96831500D02*
X65719200Y-97367500D01*
X65719200Y-97367500D02*
X65583200Y-97903500D01*
X65583200Y-97903500D02*
X65449400Y-98441500D01*
X65449400Y-98441500D02*
X65317100Y-98980500D01*
X65317100Y-98980500D02*
X65187000Y-99519500D01*
X65187000Y-99519500D02*
X65058700Y-100059500D01*
X65058700Y-100059500D02*
X64932500Y-100599500D01*
X64932500Y-100599500D02*
X64808300Y-101140500D01*
X64808300Y-101140500D02*
X64685900Y-101682500D01*
X64685900Y-101682500D02*
X64566000Y-102222500D01*
X64566000Y-102222500D02*
X64448000Y-102764500D01*
X64448000Y-102764500D02*
X64331600Y-103307500D01*
X64331600Y-103307500D02*
X64217300Y-103849500D01*
X64217300Y-103849500D02*
X64105200Y-104391500D01*
X64105200Y-104391500D02*
X63994800Y-104935500D01*
X63994800Y-104935500D02*
X63886400Y-105479500D01*
X63886400Y-105479500D02*
X63780300Y-106022500D01*
X63780300Y-106022500D02*
X63675700Y-106568500D01*
X63675700Y-106568500D02*
X63573300Y-107112500D01*
X63573300Y-107112500D02*
X63473000Y-107657500D01*
X63473000Y-107657500D02*
X63374400Y-108202500D01*
X63374400Y-108202500D02*
X63277800Y-108748500D01*
X63277800Y-108748500D02*
X63183100Y-109295500D01*
X63183100Y-109295500D02*
X63090500Y-109841500D01*
X63090500Y-109841500D02*
X62999700Y-110387500D01*
X62999700Y-110387500D02*
X62910800Y-110934500D01*
X62910800Y-110934500D02*
X62823900Y-111482500D01*
X62823900Y-111482500D02*
X62738900Y-112030500D01*
X62738900Y-112030500D02*
X62655800Y-112576500D01*
X62655800Y-112576500D02*
X62574600Y-113125500D01*
X62574600Y-113125500D02*
X62495200Y-113674500D01*
X62495200Y-113674500D02*
X62418000Y-114223500D01*
X62418000Y-114223500D02*
X62342400Y-114772500D01*
X62342400Y-114772500D02*
X62268800Y-115322500D01*
X62268800Y-115322500D02*
X62197200Y-115870500D01*
X62197200Y-115870500D02*
X62127400Y-116421500D01*
X62127400Y-116421500D02*
X62059400Y-116971500D01*
X62059400Y-116971500D02*
X61993300Y-117522500D01*
X61993300Y-117522500D02*
X61929300Y-118073500D01*
X61929300Y-118073500D02*
X61867000Y-118623500D01*
X61867000Y-118623500D02*
X61806700Y-119174500D01*
X61806700Y-119174500D02*
X61748300Y-119726500D01*
X61748300Y-119726500D02*
X61691700Y-120276500D01*
X61691700Y-120276500D02*
X61637000Y-120828500D01*
X61637000Y-120828500D02*
X61584000Y-121381500D01*
X61584000Y-121381500D02*
X61532900Y-121934500D01*
X61532900Y-121934500D02*
X61483900Y-122485500D01*
X61483900Y-122485500D02*
X61436600Y-123037500D01*
X61436600Y-123037500D02*
X61391300Y-123589500D01*
X61391300Y-123589500D02*
X61347800Y-124142500D01*
X61347800Y-124142500D02*
X61306000Y-124695500D01*
X61306000Y-124695500D02*
X61266300Y-125246500D01*
X61266300Y-125246500D02*
X61228300Y-125800500D01*
X61228300Y-125800500D02*
X61192200Y-126353500D01*
X61192200Y-126353500D02*
X61157900Y-126906500D01*
X61157900Y-126906500D02*
X61125400Y-127460500D01*
X61125400Y-127460500D02*
X61094700Y-128013500D01*
X61094700Y-128013500D02*
X61066000Y-128566500D01*
X61066000Y-128566500D02*
X61039100Y-129118500D01*
X61039100Y-129118500D02*
X61014000Y-129674500D01*
X61014000Y-129674500D02*
X60990700Y-130226500D01*
X60990700Y-130226500D02*
X60969300Y-130781500D01*
X60969300Y-130781500D02*
X60949700Y-131334500D01*
X60949700Y-131334500D02*
X60931800Y-131889500D01*
X60931800Y-131889500D02*
X60915800Y-132444500D01*
X60915800Y-132444500D02*
X60901800Y-132998500D01*
X60901800Y-132998500D02*
X60889400Y-133553500D01*
X60889400Y-133553500D02*
X60878800Y-134107500D01*
X60878800Y-134107500D02*
X60870100Y-134661500D01*
X60870100Y-134661500D02*
X60863200Y-135214500D01*
X60863200Y-135214500D02*
X60858100Y-135770500D01*
X60858100Y-135770500D02*
X60854800Y-136324500D01*
X60854800Y-136324500D02*
X60853400Y-136879500D01*
X60853400Y-136879500D02*
X60476000Y-137285500D01*
X60476000Y-137285500D02*
X60103700Y-137697500D01*
X60103700Y-137697500D02*
X59736300Y-138113500D01*
X59736300Y-138113500D02*
X59375300Y-138533500D01*
X59375300Y-138533500D02*
X59019400Y-138958500D01*
X59019400Y-138958500D02*
X58669500Y-139386500D01*
X58669500Y-139386500D02*
X58324700Y-139819500D01*
X58324700Y-139819500D02*
X57985100Y-140256500D01*
X57985100Y-140256500D02*
X57650400Y-140697500D01*
X57650400Y-140697500D02*
X57320800Y-141142500D01*
X57320800Y-141142500D02*
X56996200Y-141591500D01*
X56996200Y-141591500D02*
X56676700Y-142043500D01*
X56676700Y-142043500D02*
X56362400Y-142500500D01*
X56362400Y-142500500D02*
X56053000Y-142959500D01*
X56053000Y-142959500D02*
X55748800Y-143421500D01*
X55748800Y-143421500D02*
X55449600Y-143886500D01*
X55449600Y-143886500D02*
X55155500Y-144354500D01*
X55155500Y-144354500D02*
X54865500Y-144826500D01*
X54865500Y-144826500D02*
X54580600Y-145300000D01*
X54580600Y-145300000D02*
X54300000Y-145778000D01*
X54300000Y-145778000D02*
X54024400Y-146258000D01*
X54024400Y-146258000D02*
X53753900Y-146739000D01*
X53753900Y-146739000D02*
X53487660Y-147224000D01*
X53487660Y-147224000D02*
X53225770Y-147712000D01*
X53225770Y-147712000D02*
X52968960Y-148201000D01*
X52968960Y-148201000D02*
X52715840Y-148694000D01*
X52715840Y-148694000D02*
X52467760Y-149188000D01*
X52467760Y-149188000D02*
X52223410Y-149685000D01*
X52223410Y-149685000D02*
X51984150Y-150184000D01*
X51984150Y-150184000D02*
X51748700Y-150685000D01*
X51748700Y-150685000D02*
X51518340Y-151187000D01*
X51518340Y-151187000D02*
X51291830Y-151691000D01*
X51291830Y-151691000D02*
X51069250Y-152199000D01*
X51069250Y-152199000D02*
X50851190Y-152707000D01*
X50851190Y-152707000D02*
X50637670Y-153216000D01*
X50637670Y-153216000D02*
X50428150Y-153728000D01*
X50428150Y-153728000D02*
X50222680Y-154241000D01*
X50222680Y-154241000D02*
X50021290Y-154756000D01*
X50021290Y-154756000D02*
X49824010Y-155273000D01*
X49824010Y-155273000D02*
X49630880Y-155791000D01*
X49630880Y-155791000D02*
X49441920Y-156310000D01*
X49441920Y-156310000D02*
X49257150Y-156830000D01*
X49257150Y-156830000D02*
X49075740Y-157353000D01*
X49075740Y-157353000D02*
X48898620Y-157877000D01*
X48898620Y-157877000D02*
X48725790Y-158401000D01*
X48725790Y-158401000D02*
X48556490Y-158928000D01*
X48556490Y-158928000D02*
X48391540Y-159454000D01*
X48391540Y-159454000D02*
X48230220Y-159983000D01*
X48230220Y-159983000D02*
X48072610Y-160514000D01*
X48072610Y-160514000D02*
X47918770Y-161046000D01*
X47918770Y-161046000D02*
X47769410Y-161577000D01*
X47769410Y-161577000D02*
X47623860Y-162109000D01*
X47623860Y-162109000D02*
X47481920Y-162644000D01*
X47481920Y-162644000D02*
X47343630Y-163180000D01*
X47343630Y-163180000D02*
X47209340Y-163716000D01*
X47209340Y-163716000D02*
X47079090Y-164252000D01*
X47079090Y-164252000D02*
X46952400Y-164791000D01*
X46952400Y-164791000D02*
X46829350Y-165331000D01*
X46829350Y-165331000D02*
X46710480Y-165870000D01*
X46710480Y-165870000D02*
X46595350Y-166410000D01*
X46595350Y-166410000D02*
X46484020Y-166951000D01*
X46484020Y-166951000D02*
X46376560Y-167493000D01*
X46376560Y-167493000D02*
X46272610Y-168036000D01*
X46272610Y-168036000D02*
X46172660Y-168579000D01*
X46172660Y-168579000D02*
X46076370Y-169124000D01*
X46076370Y-169124000D02*
X45983820Y-169670000D01*
X45983820Y-169670000D02*
X45895100Y-170216000D01*
X45895100Y-170216000D02*
X45810240Y-170762000D01*
X45810240Y-170762000D02*
X45729300Y-171308000D01*
X45729300Y-171308000D02*
X45652060Y-171855000D01*
X45652060Y-171855000D02*
X45578600Y-172404000D01*
X45578600Y-172404000D02*
X45509010Y-172952000D01*
X45509010Y-172952000D02*
X45443110Y-173501000D01*
X45443110Y-173501000D02*
X45381170Y-174051000D01*
X45381170Y-174051000D02*
X45323070Y-174600000D01*
X45323070Y-174600000D02*
X45268860Y-175149000D01*
X45268860Y-175149000D02*
X45218450Y-175700000D01*
X45218450Y-175700000D02*
X45171910Y-176250000D01*
X45171910Y-176250000D02*
X45129290Y-176801000D01*
X45129290Y-176801000D02*
X45090540Y-177352000D01*
X45090540Y-177352000D02*
X45055700Y-177903000D01*
X45055700Y-177903000D02*
X45024770Y-178455000D01*
X45024770Y-178455000D02*
X44997790Y-179006000D01*
X44997790Y-179006000D02*
X44974740Y-179558000D01*
X44974740Y-179558000D02*
X44955690Y-180110000D01*
X44955690Y-180110000D02*
X44940620Y-180662000D01*
X44940620Y-180662000D02*
X44929510Y-181215000D01*
X44929510Y-181215000D02*
X44922510Y-181767000D01*
X44922510Y-181767000D02*
X44919510Y-182321000D01*
X44919510Y-182321000D02*
X44920610Y-182873000D01*
X44920610Y-182873000D02*
X44925810Y-183425000D01*
X44925810Y-183425000D02*
X44935110Y-183977000D01*
X44935110Y-183977000D02*
X44948560Y-184529000D01*
X44948560Y-184529000D02*
X44966180Y-185081000D01*
X44966180Y-185081000D02*
X44988040Y-185634000D01*
X44988040Y-185634000D02*
X45014080Y-186185000D01*
X45014080Y-186185000D02*
X45044430Y-186737000D01*
X45044430Y-186737000D02*
X45079010Y-187288000D01*
X45079010Y-187288000D02*
X45117930Y-187839000D01*
X45117930Y-187839000D02*
X45161340Y-188391000D01*
X45161340Y-188391000D02*
X45209070Y-188941000D01*
X45209070Y-188941000D02*
X45261180Y-189491000D01*
X45261180Y-189491000D02*
X45317820Y-190041000D01*
X45317820Y-190041000D02*
X45378990Y-190591000D01*
X45378990Y-190591000D02*
X45444600Y-191140000D01*
X45444600Y-191140000D02*
X45514780Y-191687000D01*
X45514780Y-191687000D02*
X45589590Y-192235000D01*
X45589590Y-192235000D02*
X45669190Y-192783000D01*
X45669190Y-192783000D02*
X45753370Y-193329000D01*
X45753370Y-193329000D02*
X45842510Y-193875000D01*
X45842510Y-193875000D02*
X45936160Y-194420000D01*
X45936160Y-194420000D02*
X46034850Y-194964000D01*
X46034850Y-194964000D02*
X46138520Y-195508000D01*
X46138520Y-195508000D02*
X46246890Y-196050000D01*
X46246890Y-196050000D02*
X46360410Y-196592000D01*
X46360410Y-196592000D02*
X46478980Y-197132000D01*
X46478980Y-197132000D02*
X46602470Y-197671000D01*
X46602470Y-197671000D02*
X46730910Y-198208000D01*
X46730910Y-198208000D02*
X46864390Y-198744000D01*
X46864390Y-198744000D02*
X47003570Y-199279000D01*
X47003570Y-199279000D02*
X47147710Y-199813000D01*
X47147710Y-199813000D02*
X47213090Y-200072000D01*
X47213090Y-200072000D02*
X47290750Y-200316000D01*
X47290750Y-200316000D02*
X47391100Y-200548000D01*
X47391100Y-200548000D02*
X47514360Y-200771000D01*
X47514360Y-200771000D02*
X47657680Y-200981000D01*
X47657680Y-200981000D02*
X47819560Y-201178000D01*
X47819560Y-201178000D02*
X47998250Y-201359000D01*
X47998250Y-201359000D02*
X48192020Y-201525000D01*
X48192020Y-201525000D02*
X48399300Y-201675000D01*
X48399300Y-201675000D02*
X48618080Y-201807000D01*
X48618080Y-201807000D02*
X48847070Y-201921000D01*
X48847070Y-201921000D02*
X49083830Y-202017000D01*
X49083830Y-202017000D02*
X49327530Y-202093000D01*
X49327530Y-202093000D02*
X49576660Y-202148000D01*
X49576660Y-202148000D02*
X49829530Y-202183000D01*
X49829530Y-202183000D02*
X50084580Y-202197000D01*
X50084580Y-202197000D02*
X50340130Y-202188000D01*
X50340130Y-202188000D02*
X50592490Y-202155000D01*
X50592490Y-202155000D02*
X50842180Y-202099000D01*
X50842180Y-202099000D02*
X51083860Y-202020000D01*
X51083860Y-202020000D02*
X51319950Y-201916000D01*
X51319950Y-201916000D02*
X51482900Y-201833000D01*
X51482900Y-201833000D02*
X51728590Y-201693000D01*
X51728590Y-201693000D02*
X52203700Y-201426000D01*
X52203700Y-201426000D02*
X52679370Y-201160000D01*
X52679370Y-201160000D02*
X53154650Y-200893000D01*
X53154650Y-200893000D02*
X53630900Y-200626000D01*
X53630900Y-200626000D02*
X54106400Y-200360000D01*
X54106400Y-200360000D02*
X54581600Y-200093000D01*
X54581600Y-200093000D02*
X55058400Y-199826000D01*
X55058400Y-199826000D02*
X55535000Y-199559000D01*
X55535000Y-199559000D02*
X56011600Y-199292000D01*
X56011600Y-199292000D02*
X56487200Y-199025000D01*
X56487200Y-199025000D02*
X56962900Y-198758000D01*
X56962900Y-198758000D02*
X57438800Y-198491000D01*
X57438800Y-198491000D02*
X57914900Y-198224000D01*
X57914900Y-198224000D02*
X58391200Y-197957000D01*
X58391200Y-197957000D02*
X58868000Y-197690000D01*
X58868000Y-197690000D02*
X59343600Y-197423000D01*
X59343600Y-197423000D02*
X59820000Y-197156000D01*
X59820000Y-197156000D02*
X60295600Y-196890000D01*
X60295600Y-196890000D02*
X60771900Y-196623000D01*
X60771900Y-196623000D02*
X61247100Y-196356000D01*
X61247100Y-196356000D02*
X61722500Y-196090000D01*
X61722500Y-196090000D02*
X62199000Y-195822000D01*
X62199000Y-195822000D02*
X62675400Y-195555000D01*
X62675400Y-195555000D02*
X63150500Y-195289000D01*
X63150500Y-195289000D02*
X63626800Y-195022000D01*
X63626800Y-195022000D02*
X64103300Y-194755000D01*
X64103300Y-194755000D02*
X64579200Y-194488000D01*
X64579200Y-194488000D02*
X65054700Y-194221000D01*
X65054700Y-194221000D02*
X65530500Y-193955000D01*
X65530500Y-193955000D02*
X66005600Y-193688000D01*
X66005600Y-193688000D02*
X66481900Y-193421000D01*
X66481900Y-193421000D02*
X66958400Y-193154000D01*
X66958400Y-193154000D02*
X67434600Y-192887000D01*
X67434600Y-192887000D02*
X67910500Y-192620000D01*
X67910500Y-192620000D02*
X68385600Y-192354000D01*
X68385600Y-192354000D02*
X68862400Y-192087000D01*
X68862400Y-192087000D02*
X69337800Y-191820000D01*
X69337800Y-191820000D02*
X69812500Y-191554000D01*
X69812500Y-191554000D02*
X70289100Y-191287000D01*
X70289100Y-191287000D02*
X70281000Y-191262000D01*
X70281000Y-191262000D02*
X70474800Y-191778000D01*
X70474800Y-191778000D02*
X70670700Y-192294000D01*
X70670700Y-192294000D02*
X70868500Y-192807000D01*
X70868500Y-192807000D02*
X71068200Y-193320000D01*
X71068200Y-193320000D02*
X71270300Y-193832000D01*
X71270300Y-193832000D02*
X71474100Y-194343000D01*
X71474100Y-194343000D02*
X71680400Y-194853000D01*
X71680400Y-194853000D02*
X71888800Y-195362000D01*
X71888800Y-195362000D02*
X72099300Y-195870000D01*
X72099300Y-195870000D02*
X72312600Y-196379000D01*
X72312600Y-196379000D02*
X72527800Y-196886000D01*
X72527800Y-196886000D02*
X72745200Y-197392000D01*
X72745200Y-197392000D02*
X72964400Y-197896000D01*
X72964400Y-197896000D02*
X73186800Y-198401000D01*
X73186800Y-198401000D02*
X73411200Y-198904000D01*
X73411200Y-198904000D02*
X73637500Y-199406000D01*
X73637500Y-199406000D02*
X73865900Y-199906000D01*
X73865900Y-199906000D02*
X74097400Y-200407000D01*
X74097400Y-200407000D02*
X74330700Y-200905000D01*
X74330700Y-200905000D02*
X74464900Y-201148000D01*
X74464900Y-201148000D02*
X74619800Y-201377000D01*
X74619800Y-201377000D02*
X74796100Y-201592000D01*
X74796100Y-201592000D02*
X74991000Y-201789000D01*
X74991000Y-201789000D02*
X75203000Y-201967000D01*
X75203000Y-201967000D02*
X75431000Y-202125000D01*
X75431000Y-202125000D02*
X75672600Y-202261000D01*
X75672600Y-202261000D02*
X75927700Y-202374000D01*
X75927700Y-202374000D02*
X76189100Y-202462000D01*
X76189100Y-202462000D02*
X76461300Y-202525000D01*
X76461300Y-202525000D02*
X76734400Y-202562000D01*
X76734400Y-202562000D02*
X77015500Y-202574000D01*
X77015500Y-202574000D02*
X77484400Y-202574000D01*
X77484400Y-202574000D02*
X77954100Y-202574000D01*
X77954100Y-202574000D02*
X78422900Y-202574000D01*
X78422900Y-202574000D02*
X78891900Y-202574000D01*
X78891900Y-202574000D02*
X79359300Y-202574000D01*
X79359300Y-202574000D02*
X79826900Y-202574000D01*
X79826900Y-202574000D02*
X79627500Y-203054000D01*
X79627500Y-203054000D02*
X79443900Y-203540000D01*
X79443900Y-203540000D02*
X79275800Y-204033000D01*
X79275800Y-204033000D02*
X79124000Y-204529000D01*
X79124000Y-204529000D02*
X78988200Y-205030000D01*
X78988200Y-205030000D02*
X78868200Y-205536000D01*
X78868200Y-205536000D02*
X78764600Y-206044000D01*
X78764600Y-206044000D02*
X78676900Y-206556000D01*
X78676900Y-206556000D02*
X78605100Y-207071000D01*
X78605100Y-207071000D02*
X78549500Y-207588000D01*
X78549500Y-207588000D02*
X78509900Y-208106000D01*
X78509900Y-208106000D02*
X78486200Y-208624000D01*
X78486200Y-208624000D02*
X78478400Y-209143000D01*
X78478400Y-209143000D02*
X78496300Y-209694000D01*
X78496300Y-209694000D02*
X78543500Y-210244000D01*
X78543500Y-210244000D02*
X78612800Y-210791000D01*
X78612800Y-210791000D02*
X78699900Y-211335000D01*
X78699900Y-211335000D02*
X78801100Y-211876000D01*
X78801100Y-211876000D02*
X78914400Y-212416000D01*
X78914400Y-212416000D02*
X79037400Y-212952000D01*
X79037400Y-212952000D02*
X79169200Y-213487000D01*
X79169200Y-213487000D02*
X79308700Y-214020000D01*
X79308700Y-214020000D02*
X79454900Y-214552000D01*
X79454900Y-214552000D02*
X79607000Y-215082000D01*
X79607000Y-215082000D02*
X79764400Y-215610000D01*
X79764400Y-215610000D02*
X79926600Y-216136000D01*
X79926600Y-216136000D02*
X80093000Y-216662000D01*
X80093000Y-216662000D02*
X80263400Y-217186000D01*
X80263400Y-217186000D02*
X80437900Y-217709000D01*
X80437900Y-217709000D02*
X80615800Y-218232000D01*
X80615800Y-218232000D02*
X80796700Y-218754000D01*
X80796700Y-218754000D02*
X80980300Y-219273000D01*
X80980300Y-219273000D02*
X81166700Y-219792000D01*
X81166700Y-219792000D02*
X81355700Y-220310000D01*
X81355700Y-220310000D02*
X81547000Y-220827000D01*
X81547000Y-220827000D02*
X81740900Y-221344000D01*
X81740900Y-221344000D02*
X81936400Y-221859000D01*
X81936400Y-221859000D02*
X82133900Y-222373000D01*
X82133900Y-222373000D02*
X82333900Y-222888000D01*
X82333900Y-222888000D02*
X82535500Y-223402000D01*
X82535500Y-223402000D02*
X82739100Y-223915000D01*
X82739100Y-223915000D02*
X82944300Y-224428000D01*
X82944300Y-224428000D02*
X83151000Y-224940000D01*
X83151000Y-224940000D02*
X83358900Y-225450000D01*
X83358900Y-225450000D02*
X83568400Y-225961000D01*
X83568400Y-225961000D02*
X83779300Y-226471000D01*
X83779300Y-226471000D02*
X83991300Y-226979000D01*
X83991300Y-226979000D02*
X84204900Y-227488000D01*
X84204900Y-227488000D02*
X84419600Y-227997000D01*
X84419600Y-227997000D02*
X84635500Y-228504000D01*
X84635500Y-228504000D02*
X84852600Y-229011000D01*
X84852600Y-229011000D02*
X85070800Y-229518000D01*
X85070800Y-229518000D02*
X85290400Y-230025000D01*
X85290400Y-230025000D02*
X85510400Y-230530000D01*
X85510400Y-230530000D02*
X85731600Y-231035000D01*
X85731600Y-231035000D02*
X85953800Y-231540000D01*
X85953800Y-231540000D02*
X86177200Y-232044000D01*
X86177200Y-232044000D02*
X86401200Y-232548000D01*
X86401200Y-232548000D02*
X86626000Y-233051000D01*
X86626000Y-233051000D02*
X86851900Y-233554000D01*
X86851900Y-233554000D02*
X87078600Y-234056000D01*
X87078600Y-234056000D02*
X87306300Y-234559000D01*
X87306300Y-234559000D02*
X87534900Y-235061000D01*
X87534900Y-235061000D02*
X87764700Y-235564000D01*
X87764700Y-235564000D02*
X87994800Y-236065000D01*
X87994800Y-236065000D02*
X88225600Y-236565000D01*
X88225600Y-236565000D02*
X88457000Y-237065000D01*
X88457000Y-237065000D02*
X88689800Y-237566000D01*
X88689800Y-237566000D02*
X88922800Y-238066000D01*
X88922800Y-238066000D02*
X89156500Y-238565000D01*
X89156500Y-238565000D02*
X89391100Y-239064000D01*
X89391100Y-239064000D02*
X89626500Y-239562000D01*
X89626500Y-239562000D02*
X89862700Y-240061000D01*
X89862700Y-240061000D02*
X90099600Y-240559000D01*
X90099600Y-240559000D02*
X90337300Y-241057000D01*
X90337300Y-241057000D02*
X90559000Y-241480000D01*
X90559000Y-241480000D02*
X90835200Y-241960000D01*
X90835200Y-241960000D02*
X91118600Y-242307000D01*
X91118600Y-242307000D02*
X91421400Y-242597000D01*
X91421400Y-242597000D02*
X91739500Y-242832000D01*
X91739500Y-242832000D02*
X92068500Y-243013000D01*
X92068500Y-243013000D02*
X92404100Y-243144000D01*
X92404100Y-243144000D02*
X92742200Y-243225000D01*
X92742200Y-243225000D02*
X93078400Y-243258000D01*
X93078400Y-243258000D02*
X93408500Y-243247000D01*
X93408500Y-243247000D02*
X93728100Y-243191000D01*
X93728100Y-243191000D02*
X94033200Y-243094000D01*
X94033200Y-243094000D02*
X94319300Y-242958000D01*
X94319300Y-242958000D02*
X94582300Y-242783000D01*
X94582300Y-242783000D02*
X94817800Y-242572000D01*
X94817800Y-242572000D02*
X95021600Y-242328000D01*
X95021600Y-242328000D02*
X95263900Y-241902000D01*
X95263900Y-241902000D02*
X95428800Y-241553000D01*
X95428800Y-241553000D02*
X95667500Y-241055000D01*
X95667500Y-241055000D02*
X95905200Y-240557000D01*
X95905200Y-240557000D02*
X96141900Y-240059000D01*
X96141900Y-240059000D02*
X96377600Y-239562000D01*
X96377600Y-239562000D02*
X96612700Y-239064000D01*
X96612700Y-239064000D02*
X96847200Y-238565000D01*
X96847200Y-238565000D02*
X97080800Y-238066000D01*
X97080800Y-238066000D02*
X97313800Y-237567000D01*
X97313800Y-237567000D02*
X97546700Y-237066000D01*
X97546700Y-237066000D02*
X97778200Y-236566000D01*
X97778200Y-236566000D02*
X98008800Y-236066000D01*
X98008800Y-236066000D02*
X98239000Y-235564000D01*
X98239000Y-235564000D02*
X98468500Y-235063000D01*
X98468500Y-235063000D02*
X98697000Y-234561000D01*
X98697000Y-234561000D02*
X98924900Y-234058000D01*
X98924900Y-234058000D02*
X99152000Y-233555000D01*
X99152000Y-233555000D02*
X99378000Y-233051000D01*
X99378000Y-233051000D02*
X99603300Y-232547000D01*
X99603300Y-232547000D02*
X99827700Y-232043000D01*
X99827700Y-232043000D02*
X100050800Y-231539000D01*
X100050800Y-231539000D02*
X100273000Y-231034000D01*
X100273000Y-231034000D02*
X100494300Y-230529000D01*
X100494300Y-230529000D02*
X100714600Y-230024000D01*
X100714600Y-230024000D02*
X100933800Y-229517000D01*
X100933800Y-229517000D02*
X101152300Y-229010000D01*
X101152300Y-229010000D02*
X101369000Y-228504000D01*
X101369000Y-228504000D02*
X101584800Y-227997000D01*
X101584800Y-227997000D02*
X101799300Y-227489000D01*
X101799300Y-227489000D02*
X102012700Y-226980000D01*
X102012700Y-226980000D02*
X102224700Y-226472000D01*
X102224700Y-226472000D02*
X102435200Y-225963000D01*
X102435200Y-225963000D02*
X102644800Y-225452000D01*
X102644800Y-225452000D02*
X102853200Y-224941000D01*
X102853200Y-224941000D02*
X103059600Y-224429000D01*
X103059600Y-224429000D02*
X103264700Y-223917000D01*
X103264700Y-223917000D02*
X103467700Y-223405000D01*
X103467700Y-223405000D02*
X103668800Y-222892000D01*
X103668800Y-222892000D02*
X103868500Y-222379000D01*
X103868500Y-222379000D02*
X104066500Y-221863000D01*
X104066500Y-221863000D02*
X104262000Y-221348000D01*
X104262000Y-221348000D02*
X104455800Y-220831000D01*
X104455800Y-220831000D02*
X104647000Y-220315000D01*
X104647000Y-220315000D02*
X104835700Y-219797000D01*
X104835700Y-219797000D02*
X105022200Y-219278000D01*
X105022200Y-219278000D02*
X105206300Y-218757000D01*
X105206300Y-218757000D02*
X105387200Y-218236000D01*
X105387200Y-218236000D02*
X105564900Y-217713000D01*
X105564900Y-217713000D02*
X105739300Y-217190000D01*
X105739300Y-217190000D02*
X105909700Y-216666000D01*
X105909700Y-216666000D02*
X106076500Y-216140000D01*
X106076500Y-216140000D02*
X106238700Y-215613000D01*
X106238700Y-215613000D02*
X106396200Y-215084000D01*
X106396200Y-215084000D02*
X106548200Y-214554000D01*
X106548200Y-214554000D02*
X106694400Y-214023000D01*
X106694400Y-214023000D02*
X106833800Y-213489000D01*
X106833800Y-213489000D02*
X106965700Y-212955000D01*
X106965700Y-212955000D02*
X107088800Y-212417000D01*
X107088800Y-212417000D02*
X107202000Y-211878000D01*
X107202000Y-211878000D02*
X107303300Y-211336000D01*
X107303300Y-211336000D02*
X107390300Y-210791000D01*
X107390300Y-210791000D02*
X107459700Y-210244000D01*
X107459700Y-210244000D02*
X107506700Y-209695000D01*
X107506700Y-209695000D02*
X107524600Y-209143000D01*
X107524600Y-209143000D02*
X107515600Y-208624000D01*
X107515600Y-208624000D02*
X107491100Y-208106000D01*
X107491100Y-208106000D02*
X107450700Y-207588000D01*
X107450700Y-207588000D02*
X107394400Y-207072000D01*
X107394400Y-207072000D02*
X107322400Y-206560000D01*
X107322400Y-206560000D02*
X107234400Y-206049000D01*
X107234400Y-206049000D02*
X107130300Y-205540000D01*
X107130300Y-205540000D02*
X107010100Y-205035000D01*
X107010100Y-205035000D02*
X106873900Y-204534000D01*
X106873900Y-204534000D02*
X106722100Y-204038000D01*
X106722100Y-204038000D02*
X106554200Y-203546000D01*
X106554200Y-203546000D02*
X106371100Y-203062000D01*
X106371100Y-203062000D02*
X106171700Y-202582000D01*
X106171700Y-202582000D02*
X106698000Y-202582000D01*
X106698000Y-202582000D02*
X107224300Y-202582000D01*
X107224300Y-202582000D02*
X107750300Y-202582000D01*
X107750300Y-202582000D02*
X108276800Y-202582000D01*
X108276800Y-202582000D02*
X108803900Y-202582000D01*
X108803900Y-202582000D02*
X109331100Y-202582000D01*
X109331100Y-202582000D02*
X109857700Y-202582000D01*
X109857700Y-202582000D02*
X110138000Y-202567000D01*
X110138000Y-202567000D02*
X110410800Y-202528000D01*
X110410800Y-202528000D02*
X110682500Y-202463000D01*
X110682500Y-202463000D02*
X110943900Y-202374000D01*
X110943900Y-202374000D02*
X111198500Y-202260000D01*
X111198500Y-202260000D02*
X111439900Y-202124000D01*
X111439900Y-202124000D02*
X111668300Y-201966000D01*
X111668300Y-201966000D02*
X111880600Y-201788000D01*
X111880600Y-201788000D02*
X112075900Y-201591000D01*
X112075900Y-201591000D02*
X112252500Y-201377000D01*
X112252500Y-201377000D02*
X112407900Y-201148000D01*
X112407900Y-201148000D02*
X112542500Y-200905000D01*
X112542500Y-200905000D02*
X112775400Y-200407000D01*
X112775400Y-200407000D02*
X113006000Y-199907000D01*
X113006000Y-199907000D02*
X113233900Y-199408000D01*
X113233900Y-199408000D02*
X113459600Y-198907000D01*
X113459600Y-198907000D02*
X113683100Y-198406000D01*
X113683100Y-198406000D02*
X113904000Y-197904000D01*
X113904000Y-197904000D02*
X114123100Y-197400000D01*
X114123100Y-197400000D02*
X114340000Y-196896000D01*
X114340000Y-196896000D02*
X114554600Y-196390000D01*
X114554600Y-196390000D02*
X114767500Y-195883000D01*
X114767500Y-195883000D02*
X114977400Y-195377000D01*
X114977400Y-195377000D02*
X115185900Y-194868000D01*
X115185900Y-194868000D02*
X115391700Y-194359000D01*
X115391700Y-194359000D02*
X115595700Y-193849000D01*
X115595700Y-193849000D02*
X115798000Y-193337000D01*
X115798000Y-193337000D02*
X115997700Y-192825000D01*
X115997700Y-192825000D02*
X116195300Y-192313000D01*
X116195300Y-192313000D02*
X116390500Y-191801000D01*
X116390500Y-191801000D02*
X116584000Y-191287000D01*
X116584000Y-191287000D02*
X117059100Y-191553000D01*
X117059100Y-191553000D02*
X117534700Y-191820000D01*
X117534700Y-191820000D02*
X118010000Y-192086000D01*
X118010000Y-192086000D02*
X118486200Y-192353000D01*
X118486200Y-192353000D02*
X118961800Y-192620000D01*
X118961800Y-192620000D02*
X119437000Y-192886000D01*
X119437000Y-192886000D02*
X119913700Y-193153000D01*
X119913700Y-193153000D02*
X120390400Y-193421000D01*
X120390400Y-193421000D02*
X120867100Y-193688000D01*
X120867100Y-193688000D02*
X121342500Y-193955000D01*
X121342500Y-193955000D02*
X121818300Y-194221000D01*
X121818300Y-194221000D02*
X122294300Y-194488000D01*
X122294300Y-194488000D02*
X122770300Y-194755000D01*
X122770300Y-194755000D02*
X123246600Y-195022000D01*
X123246600Y-195022000D02*
X123723300Y-195289000D01*
X123723300Y-195289000D02*
X124199000Y-195556000D01*
X124199000Y-195556000D02*
X124675400Y-195823000D01*
X124675400Y-195823000D02*
X125150900Y-196090000D01*
X125150900Y-196090000D02*
X125627200Y-196357000D01*
X125627200Y-196357000D02*
X126102400Y-196623000D01*
X126102400Y-196623000D02*
X126577900Y-196890000D01*
X126577900Y-196890000D02*
X127054400Y-197157000D01*
X127054400Y-197157000D02*
X127530800Y-197424000D01*
X127530800Y-197424000D02*
X128005900Y-197690000D01*
X128005900Y-197690000D02*
X128482200Y-197958000D01*
X128482200Y-197958000D02*
X128958600Y-198225000D01*
X128958600Y-198225000D02*
X129434600Y-198491000D01*
X129434600Y-198491000D02*
X129910000Y-198758000D01*
X129910000Y-198758000D02*
X130385900Y-199025000D01*
X130385900Y-199025000D02*
X130861000Y-199291000D01*
X130861000Y-199291000D02*
X131337300Y-199558000D01*
X131337300Y-199558000D02*
X131813700Y-199825000D01*
X131813700Y-199825000D02*
X132289900Y-200092000D01*
X132289900Y-200092000D02*
X132766000Y-200359000D01*
X132766000Y-200359000D02*
X133241000Y-200626000D01*
X133241000Y-200626000D02*
X133717700Y-200893000D01*
X133717700Y-200893000D02*
X134193200Y-201159000D01*
X134193200Y-201159000D02*
X134667900Y-201426000D01*
X134667900Y-201426000D02*
X135144600Y-201693000D01*
X135144600Y-201693000D02*
X135383900Y-201841000D01*
X135383900Y-201841000D02*
X135631700Y-201961000D01*
X135631700Y-201961000D02*
X135894900Y-202059000D01*
X135894900Y-202059000D02*
X136163200Y-202129000D01*
X136163200Y-202129000D02*
X136438800Y-202173000D01*
X136438800Y-202173000D02*
X136716000Y-202191000D01*
X136716000Y-202191000D02*
X136995200Y-202183000D01*
X136995200Y-202183000D02*
X137271900Y-202149000D01*
X137271900Y-202149000D02*
X137544700Y-202091000D01*
X137544700Y-202091000D02*
X137811000Y-202009000D01*
X137811000Y-202009000D02*
X138069000Y-201903000D01*
X138069000Y-201903000D02*
X138316400Y-201775000D01*
X138316400Y-201775000D02*
X138551700Y-201626000D01*
X138551700Y-201626000D02*
X138772200Y-201456000D01*
X138772200Y-201456000D02*
X138974900Y-201266000D01*
X138974900Y-201266000D02*
X139159000Y-201057000D01*
X139159000Y-201057000D02*
X139320300Y-200834000D01*
X139320300Y-200834000D02*
X139459400Y-200593000D01*
X139459400Y-200593000D02*
X139572100Y-200342000D01*
X139572100Y-200342000D02*
X139660000Y-200077000D01*
X139660000Y-200077000D02*
X139806700Y-199542000D01*
X139806700Y-199542000D02*
X139948200Y-199005000D01*
X139948200Y-199005000D02*
X140084700Y-198466000D01*
X140084700Y-198466000D02*
X140215500Y-197927000D01*
X140215500Y-197927000D02*
X140341200Y-197387000D01*
X140341200Y-197387000D02*
X140462000Y-196845000D01*
X140462000Y-196845000D02*
X140577600Y-196301000D01*
X140577600Y-196301000D02*
X140688400Y-195757000D01*
X140688400Y-195757000D02*
X140794200Y-195212000D01*
X140794200Y-195212000D02*
X140895000Y-194665000D01*
X140895000Y-194665000D02*
X140990900Y-194118000D01*
X140990900Y-194118000D02*
X141082000Y-193571000D01*
X141082000Y-193571000D02*
X141168300Y-193022000D01*
X141168300Y-193022000D02*
X141249700Y-192474000D01*
X141249700Y-192474000D02*
X141326500Y-191925000D01*
X141326500Y-191925000D02*
X141398800Y-191374000D01*
X141398800Y-191374000D02*
X141466200Y-190824000D01*
X141466200Y-190824000D02*
X141529100Y-190273000D01*
X141529100Y-190273000D02*
X141587700Y-189721000D01*
X141587700Y-189721000D02*
X141641500Y-189170000D01*
X141641500Y-189170000D02*
X141691000Y-188617000D01*
X141691000Y-188617000D02*
X141736100Y-188065000D01*
X141736100Y-188065000D02*
X141776700Y-187512000D01*
X141776700Y-187512000D02*
X141813000Y-186959000D01*
X141813000Y-186959000D02*
X141845100Y-186404000D01*
X141845100Y-186404000D02*
X141872800Y-185850000D01*
X141872800Y-185850000D02*
X141896300Y-185295000D01*
X141896300Y-185295000D02*
X141915500Y-184740000D01*
X141915500Y-184740000D02*
X141930500Y-184186000D01*
X141930500Y-184186000D02*
X141941400Y-183631000D01*
X141941400Y-183631000D02*
X141948400Y-183076000D01*
X141948400Y-183076000D02*
X141950400Y-182521000D01*
X141950400Y-182521000D02*
X141949400Y-181967000D01*
X141949400Y-181967000D02*
X141943400Y-181412000D01*
X141943400Y-181412000D02*
X141933400Y-180856000D01*
X141933400Y-180856000D02*
X141919600Y-180301000D01*
X141919600Y-180301000D02*
X141901800Y-179746000D01*
X141901800Y-179746000D02*
X141880000Y-179192000D01*
X141880000Y-179192000D02*
X141854200Y-178638000D01*
X141854200Y-178638000D02*
X141824400Y-178084000D01*
X141824400Y-178084000D02*
X141790600Y-177529000D01*
X141790600Y-177529000D02*
X141753000Y-176976000D01*
X141753000Y-176976000D02*
X141711400Y-176424000D01*
X141711400Y-176424000D02*
X141665800Y-175870000D01*
X141665800Y-175870000D02*
X141616600Y-175318000D01*
X141616600Y-175318000D02*
X141563200Y-174765000D01*
X141563200Y-174765000D02*
X141505900Y-174213000D01*
X141505900Y-174213000D02*
X141444900Y-173661000D01*
X141444900Y-173661000D02*
X141380000Y-173111000D01*
X141380000Y-173111000D02*
X141311400Y-172561000D01*
X141311400Y-172561000D02*
X141238900Y-172011000D01*
X141238900Y-172011000D02*
X141162500Y-171462000D01*
X141162500Y-171462000D02*
X141082400Y-170914000D01*
X141082400Y-170914000D02*
X140998500Y-170367000D01*
X140998500Y-170367000D02*
X140910400Y-169818000D01*
X140910400Y-169818000D02*
X140818800Y-169271000D01*
X140818800Y-169271000D02*
X140723000Y-168724000D01*
X140723000Y-168724000D02*
X140623800Y-168178000D01*
X140623800Y-168178000D02*
X140520600Y-167633000D01*
X140520600Y-167633000D02*
X140413500Y-167088000D01*
X140413500Y-167088000D02*
X140302600Y-166544000D01*
X140302600Y-166544000D02*
X140187900Y-166002000D01*
X140187900Y-166002000D02*
X140069600Y-165460000D01*
X140069600Y-165460000D02*
X139947200Y-164919000D01*
X139947200Y-164919000D02*
X139821200Y-164379000D01*
X139821200Y-164379000D02*
X139691400Y-163840000D01*
X139691400Y-163840000D02*
X139557600Y-163302000D01*
X139557600Y-163302000D02*
X139419600Y-162763000D01*
X139419600Y-162763000D02*
X139277900Y-162227000D01*
X139277900Y-162227000D02*
X139132600Y-161692000D01*
X139132600Y-161692000D02*
X138983400Y-161158000D01*
X138983400Y-161158000D02*
X138830300Y-160625000D01*
X138830300Y-160625000D02*
X138673000Y-160093000D01*
X138673000Y-160093000D02*
X138511500Y-159561000D01*
X138511500Y-159561000D02*
X138346700Y-159032000D01*
X138346700Y-159032000D02*
X138177400Y-158502000D01*
X138177400Y-158502000D02*
X138003900Y-157974000D01*
X138003900Y-157974000D02*
X137826500Y-157447000D01*
X137826500Y-157447000D02*
X137645100Y-156921000D01*
X137645100Y-156921000D02*
X137460200Y-156399000D01*
X137460200Y-156399000D02*
X137270800Y-155876000D01*
X137270800Y-155876000D02*
X137077100Y-155355000D01*
X137077100Y-155355000D02*
X136879400Y-154835000D01*
X136879400Y-154835000D02*
X136678000Y-154318000D01*
X136678000Y-154318000D02*
X136472100Y-153802000D01*
X136472100Y-153802000D02*
X136262000Y-153288000D01*
X136262000Y-153288000D02*
X136048100Y-152776000D01*
X136048100Y-152776000D02*
X135829600Y-152265000D01*
X135829600Y-152265000D02*
X135607000Y-151756000D01*
X135607000Y-151756000D02*
X135379900Y-151249000D01*
X135379900Y-151249000D02*
X135148500Y-150744000D01*
X135148500Y-150744000D02*
X134913300Y-150242000D01*
X134913300Y-150242000D02*
X134673200Y-149740000D01*
X134673200Y-149740000D02*
X134428500Y-149241000D01*
X134428500Y-149241000D02*
X134180000Y-148745000D01*
X134180000Y-148745000D02*
X133926600Y-148251000D01*
X133926600Y-148251000D02*
X133669200Y-147760000D01*
X133669200Y-147760000D02*
X133406600Y-147270000D01*
X133406600Y-147270000D02*
X133139300Y-146783000D01*
X133139300Y-146783000D02*
X132867500Y-146298000D01*
X132867500Y-146298000D02*
X132591500Y-145816000D01*
X132591500Y-145816000D02*
X132310300Y-145337000D01*
X132310300Y-145337000D02*
X132023900Y-144859900D01*
X132023900Y-144859900D02*
X131732700Y-144384900D01*
X131732700Y-144384900D02*
X131437200Y-143914900D01*
X131437200Y-143914900D02*
X131136800Y-143446900D01*
X131136800Y-143446900D02*
X130831500Y-142982900D01*
X130831500Y-142982900D02*
X130520700Y-142520900D01*
X130520700Y-142520900D02*
X130205500Y-142063900D01*
X130205500Y-142063900D02*
X129885500Y-141609900D01*
X129885500Y-141609900D02*
X129559300Y-141158900D01*
X129559300Y-141158900D02*
X129229300Y-140712900D01*
X129229300Y-140712900D02*
X128893600Y-140269900D01*
X128893600Y-140269900D02*
X128552100Y-139829900D01*
X128552100Y-139829900D02*
X128206000Y-139394900D01*
X128206000Y-139394900D02*
X127854500Y-138964900D01*
X127854500Y-138964900D02*
X127497900Y-138538900D01*
X127497900Y-138538900D02*
X127136200Y-138117900D01*
X127136200Y-138117900D02*
X126768100Y-137700900D01*
X126768100Y-137700900D02*
X126393800Y-137287900D01*
X126393800Y-137287900D02*
X126015300Y-136879900D01*
X126015300Y-136879900D02*
X126015300Y-136884900D01*
X126015300Y-136884900D02*
X126014300Y-136329900D01*
X126014300Y-136329900D02*
X126011300Y-135775900D01*
X126011300Y-135775900D02*
X126006300Y-135220900D01*
X126006300Y-135220900D02*
X125999300Y-134665900D01*
X125999300Y-134665900D02*
X125990300Y-134111900D01*
X125990300Y-134111900D02*
X125980000Y-133556900D01*
X125980000Y-133556900D02*
X125967700Y-133003900D01*
X125967700Y-133003900D02*
X125953800Y-132448900D01*
X125953800Y-132448900D02*
X125937900Y-131894900D01*
X125937900Y-131894900D02*
X125920200Y-131340900D01*
X125920200Y-131340900D02*
X125900800Y-130786900D01*
X125900800Y-130786900D02*
X125879500Y-130232900D01*
X125879500Y-130232900D02*
X125856300Y-129679900D01*
X125856300Y-129679900D02*
X125831400Y-129125900D01*
X125831400Y-129125900D02*
X125804600Y-128569900D01*
X125804600Y-128569900D02*
X125775900Y-128016900D01*
X125775900Y-128016900D02*
X125745400Y-127462900D01*
X125745400Y-127462900D02*
X125713100Y-126909900D01*
X125713100Y-126909900D02*
X125678900Y-126356900D01*
X125678900Y-126356900D02*
X125643000Y-125803900D01*
X125643000Y-125803900D02*
X125605100Y-125250900D01*
X125605100Y-125250900D02*
X125565500Y-124697900D01*
X125565500Y-124697900D02*
X125524000Y-124146900D01*
X125524000Y-124146900D02*
X125480600Y-123592900D01*
X125480600Y-123592900D02*
X125435300Y-123040900D01*
X125435300Y-123040900D02*
X125388200Y-122487900D01*
X125388200Y-122487900D02*
X125339400Y-121935900D01*
X125339400Y-121935900D02*
X125288500Y-121384900D01*
X125288500Y-121384900D02*
X125235800Y-120831900D01*
X125235800Y-120831900D02*
X125181000Y-120279900D01*
X125181000Y-120279900D02*
X125124600Y-119727900D01*
X125124600Y-119727900D02*
X125066200Y-119175900D01*
X125066200Y-119175900D02*
X125005900Y-118623900D01*
X125005900Y-118623900D02*
X124943800Y-118072900D01*
X124943800Y-118072900D02*
X124879800Y-117521900D01*
X124879800Y-117521900D02*
X124814100Y-116972900D01*
X124814100Y-116972900D02*
X124746300Y-116421900D01*
X124746300Y-116421900D02*
X124676800Y-115873900D01*
X124676800Y-115873900D02*
X124605300Y-115323900D01*
X124605300Y-115323900D02*
X124531800Y-114773900D01*
X124531800Y-114773900D02*
X124456400Y-114223900D01*
X124456400Y-114223900D02*
X124379100Y-113674900D01*
X124379100Y-113674900D02*
X124300000Y-113125900D01*
X124300000Y-113125900D02*
X124219000Y-112578900D01*
X124219000Y-112578900D02*
X124136000Y-112028900D01*
X124136000Y-112028900D02*
X124051200Y-111481900D01*
X124051200Y-111481900D02*
X123964400Y-110934900D01*
X123964400Y-110934900D02*
X123875600Y-110386900D01*
X123875600Y-110386900D02*
X123784900Y-109839900D01*
X123784900Y-109839900D02*
X123692500Y-109293900D01*
X123692500Y-109293900D02*
X123597900Y-108747900D01*
X123597900Y-108747900D02*
X123501600Y-108202900D01*
X123501600Y-108202900D02*
X123403200Y-107657900D01*
X123403200Y-107657900D02*
X123303100Y-107113900D01*
X123303100Y-107113900D02*
X123200800Y-106568900D01*
X123200800Y-106568900D02*
X123096300Y-106021900D01*
X123096300Y-106021900D02*
X122990300Y-105479900D01*
X122990300Y-105479900D02*
X122882000Y-104933900D01*
X122882000Y-104933900D02*
X122771900Y-104391900D01*
X122771900Y-104391900D02*
X122659900Y-103848900D01*
X122659900Y-103848900D02*
X122545600Y-103304900D01*
X122545600Y-103304900D02*
X122429500Y-102762900D01*
X122429500Y-102762900D02*
X122311400Y-102220900D01*
X122311400Y-102220900D02*
X122191500Y-101680900D01*
X122191500Y-101680900D02*
X122069600Y-101139900D01*
X122069600Y-101139900D02*
X121945600Y-100598900D01*
X121945600Y-100598900D02*
X121819500Y-100058900D01*
X121819500Y-100058900D02*
X121691400Y-99518900D01*
X121691400Y-99518900D02*
X121561300Y-98979900D01*
X121561300Y-98979900D02*
X121429500Y-98440900D01*
X121429500Y-98440900D02*
X121295600Y-97903900D01*
X121295600Y-97903900D02*
X121159600Y-97366900D01*
X121159600Y-97366900D02*
X121021600Y-96828900D01*
X121021600Y-96828900D02*
X120881700Y-96293900D01*
X120881700Y-96293900D02*
X120739800Y-95757900D01*
X120739800Y-95757900D02*
X120595300Y-95221900D01*
X120595300Y-95221900D02*
X120448900Y-94686900D01*
X120448900Y-94686900D02*
X120301000Y-94152900D01*
X120301000Y-94152900D02*
X120150700Y-93619900D01*
X120150700Y-93619900D02*
X119998200Y-93085900D01*
X119998200Y-93085900D02*
X119844000Y-92553900D01*
X119844000Y-92553900D02*
X119687600Y-92021900D01*
X119687600Y-92021900D02*
X119528700Y-91489900D01*
X119528700Y-91489900D02*
X119368000Y-90958900D01*
X119368000Y-90958900D02*
X119205600Y-90428900D01*
X119205600Y-90428900D02*
X119040800Y-89899900D01*
X119040800Y-89899900D02*
X118873900Y-89369900D01*
X118873900Y-89369900D02*
X118705100Y-88842900D01*
X118705100Y-88842900D02*
X118533600Y-88314900D01*
X118533600Y-88314900D02*
X118360100Y-87785900D01*
X118360100Y-87785900D02*
X118184700Y-87259900D01*
X118184700Y-87259900D02*
X118006900Y-86733900D01*
X118006900Y-86733900D02*
X117827300Y-86208900D01*
X117827300Y-86208900D02*
X117645500Y-85684900D01*
X117645500Y-85684900D02*
X117461700Y-85161900D01*
X117461700Y-85161900D02*
X117275500Y-84637900D01*
X117275500Y-84637900D02*
X117087500Y-84116900D01*
X117087500Y-84116900D02*
X116897100Y-83594900D01*
X116897100Y-83594900D02*
X116704400Y-83074900D01*
X116704400Y-83074900D02*
X116509700Y-82554900D01*
X116509700Y-82554900D02*
X116313100Y-82037900D01*
X116313100Y-82037900D02*
X116114400Y-81519900D01*
X116114400Y-81519900D02*
X115912600Y-81001900D01*
X115912600Y-81001900D02*
X115709200Y-80485900D01*
X115709200Y-80485900D02*
X115713200Y-80485900D01*
X115713200Y-80485900D02*
X115508400Y-79972900D01*
X115508400Y-79972900D02*
X115301700Y-79460900D01*
X115301700Y-79460900D02*
X115092700Y-78950900D01*
X115092700Y-78950900D02*
X114881700Y-78440900D01*
X114881700Y-78440900D02*
X114668000Y-77932900D01*
X114668000Y-77932900D02*
X114452800Y-77424900D01*
X114452800Y-77424900D02*
X114235400Y-76918900D01*
X114235400Y-76918900D02*
X114015700Y-76413900D01*
X114015700Y-76413900D02*
X113793900Y-75909900D01*
X113793900Y-75909900D02*
X113569300Y-75404900D01*
X113569300Y-75404900D02*
X113342800Y-74901900D01*
X113342800Y-74901900D02*
X113113600Y-74399900D01*
X113113600Y-74399900D02*
X112882800Y-73898900D01*
X112882800Y-73898900D02*
X112649600Y-73399900D01*
X112649600Y-73399900D02*
X112414300Y-72900900D01*
X112414300Y-72900900D02*
X112176000Y-72402900D01*
X112176000Y-72402900D02*
X111935800Y-71906900D01*
X111935800Y-71906900D02*
X111693100Y-71409900D01*
X111693100Y-71409900D02*
X111447900Y-70914900D01*
X111447900Y-70914900D02*
X111200500Y-70421900D01*
X111200500Y-70421900D02*
X110951200Y-69929900D01*
X110951200Y-69929900D02*
X110699100Y-69438900D01*
X110699100Y-69438900D02*
X110444700Y-68947900D01*
X110444700Y-68947900D02*
X110188000Y-68459900D01*
X110188000Y-68459900D02*
X109928700Y-67970900D01*
X109928700Y-67970900D02*
X109667700Y-67485900D01*
X109667700Y-67485900D02*
X109403700Y-66999900D01*
X109403700Y-66999900D02*
X109137700Y-66516900D01*
X109137700Y-66516900D02*
X108869500Y-66033900D01*
X108869500Y-66033900D02*
X108599100Y-65553900D01*
X108599100Y-65553900D02*
X108326200Y-65075900D01*
X108326200Y-65075900D02*
X108050600Y-64596900D01*
X108050600Y-64596900D02*
X107772500Y-64119900D01*
X107772500Y-64119900D02*
X107491700Y-63643900D01*
X107491700Y-63643900D02*
X107208700Y-63169900D01*
X107208700Y-63169900D02*
X106923800Y-62697900D01*
X106923800Y-62697900D02*
X106636200Y-62227900D01*
X106636200Y-62227900D02*
X106345200Y-61757900D01*
X106345200Y-61757900D02*
X106052700Y-61289900D01*
X106052700Y-61289900D02*
X105758100Y-60823900D01*
X105758100Y-60823900D02*
X105460500Y-60359900D01*
X105460500Y-60359900D02*
X105159900Y-59895900D01*
X105159900Y-59895900D02*
X104856600Y-59433900D01*
X104856600Y-59433900D02*
X104550800Y-58973900D01*
X104550800Y-58973900D02*
X104243100Y-58514900D01*
X104243100Y-58514900D02*
X103932500Y-58058900D01*
X103932500Y-58058900D02*
X103618900Y-57601900D01*
X103618900Y-57601900D02*
X103303600Y-57149900D01*
X103303600Y-57149900D02*
X102985800Y-56698900D01*
X102985800Y-56698900D02*
X102665100Y-56249900D01*
X102665100Y-56249900D02*
X102341500Y-55801900D01*
X102341500Y-55801900D02*
X102015000Y-55355900D01*
X102015000Y-55355900D02*
X101685800Y-54909900D01*
X101685800Y-54909900D02*
X101354500Y-54468950D01*
X101354500Y-54468950D02*
X101020800Y-54028950D01*
X101020800Y-54028950D02*
X100684500Y-53591950D01*
X100684500Y-53591950D02*
X100344900Y-53153950D01*
X100344900Y-53153950D02*
X100003200Y-52720950D01*
X100003200Y-52720950D02*
X99659200Y-52288950D01*
X99659200Y-52288950D02*
X99311500Y-51859950D01*
X99311500Y-51859950D02*
X98961400Y-51431950D01*
X98961400Y-51431950D02*
X98609100Y-51006950D01*
X98609100Y-51006950D02*
X98253400Y-50582950D01*
X98253400Y-50582950D02*
X97895700Y-50161950D01*
X97895700Y-50161950D02*
X97535000Y-49744950D01*
X97535000Y-49744950D02*
X97170900Y-49327950D01*
X97170900Y-49327950D02*
X96804800Y-48914950D01*
X96804800Y-48914950D02*
X96436300Y-48503950D01*
X96436300Y-48503950D02*
X96063900Y-48093950D01*
X96063900Y-48093950D02*
X95689700Y-47687950D01*
X95689700Y-47687950D02*
X95501800Y-47492950D01*
X95501800Y-47492950D02*
X95294800Y-47317950D01*
X95294800Y-47317950D02*
X95073100Y-47164950D01*
X95073100Y-47164950D02*
X94837100Y-47031950D01*
X94837100Y-47031950D02*
X94590100Y-46919950D01*
X94590100Y-46919950D02*
X94333500Y-46829950D01*
X94333500Y-46829950D02*
X94071400Y-46761950D01*
X94071400Y-46761950D02*
X93804200Y-46714950D01*
X93804200Y-46714950D02*
X93534100Y-46691950D01*
X93534100Y-46691950D02*
X93263400Y-46691950D01*
X93263400Y-46691950D02*
X92992500Y-46714950D01*
X92992500Y-46714950D02*
X92725700Y-46763950D01*
X92725700Y-46763950D02*
X92464900Y-46836950D01*
X92464900Y-46836950D02*
X92212500Y-46936950D01*
X92212500Y-46936950D02*
X91973000Y-47060950D01*
X91973000Y-47060950D02*
X91746200Y-47211950D01*
X91746200Y-47211950D02*
X91746200Y-47211950D01*
X91746200Y-47211950D02*
X91747000Y-47211460D01*
%TD*%
M02*
