M48
; DRILL file {KiCad (5.1.10-1-10_14)} date Friday, August 27, 2021 at 03:48:06 PM
; FORMAT={-:-/ absolute / inch / decimal}
; #@! TF.CreationDate,2021-08-27T15:48:06+02:00
; #@! TF.GenerationSoftware,Kicad,Pcbnew,(5.1.10-1-10_14)
; #@! TF.FileFunction,Plated,1,4,PTH
FMAT,2
INCH
T1C0.0079
T2C0.0157
T3C0.0236
T4C0.0354
T5C0.0394
T6C0.0433
T7C0.0551
%
G90
G05
T1
X2.1161Y-6.3681
X2.2244Y-7.0276
X2.2441Y-6.3681
X2.3228Y-6.9291
X2.3819Y-6.5748
X2.3917Y-6.2303
X2.4016Y-5.8465
X2.4016Y-5.9646
X2.4331Y-5.2874
X2.4862Y-4.8937
X2.5906Y-6.6417
X2.6181Y-5.813
X2.626Y-5.4646
X2.626Y-5.4882
X2.628Y-4.9508
X2.6417Y-5.813
X2.6673Y-4.0748
X2.687Y-6.2303
X2.687Y-6.4567
X2.7105Y-5.2144
X2.7165Y-5.7677
X2.7303Y-5.5138
X2.7303Y-5.4651
X2.7343Y-5.4232
X2.7402Y-5.7677
X2.7461Y-5.3268
X2.748Y-5.4882
X2.7638Y-5.7677
X2.7657Y-6.6339
X2.7657Y-6.811
X2.7756Y-5.9843
X2.7874Y-5.7677
X2.7953Y-3.937
X2.7953Y-3.9961
X2.8051Y-4.2224
X2.811Y-5.7677
X2.8346Y-3.878
X2.8346Y-5.5827
X2.8543Y-4.2913
X2.8543Y-5.4862
X2.874Y-3.9961
X2.8937Y-3.8189
X2.8976Y-5.1693
X2.9035Y-5.7638
X2.9134Y-4.1339
X2.9331Y-3.9173
X2.9331Y-6.4567
X2.9331Y-6.6339
X2.9331Y-6.811
X2.9528Y-4.6654
X2.9646Y-5.4508
X2.9646Y-5.5413
X2.9646Y-6.2913
X2.9724Y-6.3386
X2.9724Y-7.0079
X2.9882Y-5.7441
X2.9882Y-5.7913
X3.0079Y-6.3386
X3.0118Y-3.8386
X3.0118Y-4.3012
X3.0118Y-6.2795
X3.0217Y-4.1437
X3.0315Y-3.7402
X3.0315Y-4.1732
X3.0512Y-6.4567
X3.0512Y-6.6339
X3.0512Y-6.811
X3.0551Y-5.7441
X3.0551Y-5.7913
X3.061Y-4.1831
X3.0906Y-7.189
X3.1004Y-4.2224
X3.122Y-5.2402
X3.122Y-5.2736
X3.122Y-5.3031
X3.126Y-5.7441
X3.126Y-5.7913
X3.1299Y-3.7402
X3.1368Y-5.1535
X3.1398Y-4.2618
X3.1693Y-7.7165
X3.1693Y-7.9331
X3.1791Y-4.3012
X3.2008Y-5.7441
X3.2008Y-5.7913
X3.2087Y-3.9764
X3.2087Y-4.1732
X3.2185Y-7.0079
X3.2283Y-3.7402
X3.248Y-3.937
X3.248Y-4.2126
X3.248Y-4.3307
X3.248Y-7.1496
X3.248Y-7.2756
X3.248Y-7.8661
X3.2677Y-6.1614
X3.2756Y-7.1516
X3.2756Y-7.2756
X3.2874Y-3.8976
X3.2874Y-7.5394
X3.2874Y-7.7165
X3.2972Y-4.1831
X3.3071Y-4.2224
X3.3071Y-4.3307
X3.3268Y-3.7402
X3.3465Y-3.8878
X3.3465Y-5.9843
X3.3465Y-6.1417
X3.3465Y-6.3583
X3.3465Y-7.1358
X3.3465Y-7.3031
X3.3583Y-5.4291
X3.3622Y-5.2421
X3.3622Y-5.2717
X3.3661Y-4.2224
X3.3661Y-4.3307
X3.373Y-5.0207
X3.3799Y-4.0394
X3.3858Y-3.9173
X3.3858Y-3.9567
X3.4252Y-3.7402
X3.4252Y-4.2224
X3.4252Y-4.3307
X3.4646Y-7.687
X3.4843Y-4.3307
X3.5236Y-3.7402
X3.5335Y-7.6181
X3.5433Y-4.3307
X3.5728Y-7.1358
X3.5728Y-7.3031
X3.5728Y-7.3819
X3.6024Y-4.3307
X3.622Y-3.7402
X3.6496Y-6.3071
X3.6614Y-4.1732
X3.6614Y-4.3307
X3.6614Y-6.1417
X3.6614Y-6.3583
X3.6909Y-4.3012
X3.7205Y-3.7402
X3.7205Y-3.878
X3.7205Y-3.9272
X3.7205Y-3.9665
X3.7205Y-4.0945
X3.7205Y-4.1339
X3.7205Y-4.1634
X3.7205Y-4.2717
X3.7343Y-7.5197
X3.7598Y-4.1634
X3.7598Y-7.1358
X3.7598Y-7.3031
X3.7598Y-7.4016
X3.7697Y-3.878
X3.7795Y-4.2717
X3.7992Y-4.1634
X3.8012Y-5.6535
X3.8012Y-5.876
X3.8091Y-7.1869
X3.8091Y-7.2756
X3.8169Y-5.3976
X3.8189Y-3.7402
X3.8189Y-3.878
X3.8268Y-2.1673
X3.8268Y-2.5335
X3.8386Y-4.1634
X3.8386Y-4.2717
X3.8425Y-7.2047
X3.8425Y-7.2756
X3.8445Y-4.8071
X3.8504Y-2.8445
X3.8681Y-3.878
X3.878Y-3.9272
X3.878Y-3.9862
X3.878Y-4.0453
X3.878Y-4.0945
X3.878Y-4.1339
X3.8799Y-5.6535
X3.8839Y-4.5768
X3.8839Y-4.6161
X3.8878Y-7.185
X3.8878Y-7.3031
X3.8976Y-2.9843
X3.8976Y-4.7244
X3.8976Y-4.7835
X3.8985Y-4.6661
X3.9035Y-5.3967
X3.9075Y-3.8583
X3.9134Y-5.876
X3.9291Y-7.2126
X3.9291Y-7.2756
X3.937Y-4.1339
X3.9469Y-3.8976
X3.9567Y-6.1417
X3.9567Y-6.3583
X3.9567Y-7.2126
X3.9567Y-7.2756
X3.9764Y-3.7402
X3.9862Y-3.937
X3.9961Y-4.1339
X4.0059Y-4.5276
X4.0059Y-7.7362
X4.0157Y-6.4567
X4.0157Y-6.6339
X4.0157Y-6.811
X4.0256Y-3.9764
X4.0512Y-6.1929
X4.0512Y-6.311
X4.0551Y-4.0157
X4.0551Y-4.0748
X4.0551Y-4.1339
X4.065Y-7.185
X4.065Y-7.3031
X4.0709Y-2.6299
X4.0748Y-2.4803
X4.0787Y-6.1929
X4.0787Y-6.311
X4.1043Y-2.5098
X4.1142Y-6.4567
X4.1142Y-6.6339
X4.1142Y-6.811
X4.124Y-7.9331
X4.126Y-5.4429
X4.1614Y-5.5433
X4.1634Y-4.0551
X4.2106Y-6.3189
X4.2126Y-6.1614
X4.2323Y-4.0059
X4.2362Y-3.5984
X4.2441Y-2.811
X4.2441Y-3.2126
X4.2598Y-2.6299
X4.3228Y-5.5118
X4.3326Y-6.2934
X4.3386Y-4.0472
X4.3563Y-5.1417
X4.3701Y-2.811
X4.3701Y-3.2126
X4.3701Y-3.5984
X4.3799Y-5.0079
X4.3819Y-4.4409
X4.3898Y-4.4646
X4.4173Y-5.1122
X4.4291Y-7.185
X4.4291Y-7.3031
X4.4567Y-4.9252
X4.4685Y-6.1614
X4.4685Y-6.3189
X4.4685Y-6.4567
X4.4862Y-4.9921
X4.5118Y-4.0669
X4.5276Y-3.8976
X4.5354Y-4.0236
X4.5504Y-3.8959
X4.5591Y-4.0236
X4.5591Y-5.2756
X4.5807Y-5.0748
X4.5866Y-3.6713
X4.5866Y-6.4567
X4.622Y-3.6654
X4.6457Y-4.0
X4.6457Y-6.1417
X4.6457Y-6.6339
X4.6476Y-4.9311
X4.6476Y-5.124
X4.6535Y-3.7638
X4.6535Y-4.0472
X4.6654Y-3.8484
X4.6811Y-5.124
X4.7244Y-6.2402
X4.7402Y-5.4094
X4.7638Y-6.6339
X4.8031Y-7.185
X4.8031Y-7.3031
X4.8228Y-6.811
X4.874Y-5.4094
X4.9409Y-6.811
X4.9705Y-7.0079
X5.0039Y-6.9331
X5.0984Y-7.1161
X5.2165Y-6.315
T2
X2.3976Y-7.2677
X2.4409Y-7.2441
X2.5591Y-5.128
X2.561Y-7.3425
X2.7618Y-4.8504
X2.7628Y-4.251
X2.7776Y-4.8031
X2.8484Y-4.6142
X2.8602Y-4.9173
X2.8609Y-4.5136
X2.872Y-4.4232
X2.872Y-5.0069
X2.9219Y-7.3754
X2.9921Y-5.0069
X3.0108Y-7.2028
X3.0276Y-4.2283
X3.0512Y-4.4035
X3.0512Y-4.9429
X3.0689Y-4.5118
X3.1383Y-4.0694
X3.2165Y-7.5
X3.2279Y-4.94
X3.2362Y-4.8504
X3.3307Y-7.5
X3.4321Y-7.4979
X3.4577Y-7.7638
X3.4862Y-2.2835
X3.9882Y-5.0197
X4.0354Y-4.3307
X4.4538Y-5.192
X4.6772Y-3.811
X4.8583Y-5.0059
T4
X3.6319Y-2.6378
X3.7319Y-2.6378
T5
X3.3071Y-7.8134
X3.3071Y-7.9134
X3.4071Y-7.8134
X3.4071Y-7.9134
X3.5071Y-7.8134
X3.5071Y-7.9134
X3.5827Y-2.2835
X3.5827Y-2.3835
X3.6071Y-7.8134
X3.6071Y-7.9134
X3.6827Y-2.2835
X3.6827Y-2.3835
X3.7071Y-7.8134
X3.7071Y-7.9134
X3.7827Y-2.2835
X3.7827Y-2.3835
X3.8071Y-7.8134
X3.8071Y-7.9134
X3.9071Y-7.8134
X3.9071Y-7.9134
X4.0071Y-7.8134
X4.0071Y-7.9134
T6
X2.1535Y-5.9076
X2.2394Y-5.7526
X5.1189Y-5.7546
X5.2048Y-5.9095
T7
X2.2152Y-6.0025
X2.3526Y-5.7546
X5.0057Y-5.7566
X5.1431Y-6.0045
T3
G00X2.555Y-4.6499
M15
G01X2.5784Y-4.653
M16
G05
G00X2.5994Y-4.3126
M15
G01X2.6228Y-4.3157
M16
G05
G00X2.7084Y-4.6701
M15
G01X2.7514Y-4.6757
M16
G05
G00X2.7528Y-4.3328
M15
G01X2.7958Y-4.3385
M16
G05
T0
M30
