%TF.GenerationSoftware,KiCad,Pcbnew,5.1.10-88a1d61d58~90~ubuntu20.04.1*%
%TF.CreationDate,2021-10-01T06:26:35-07:00*%
%TF.ProjectId,Moon_Addon,4d6f6f6e-5f41-4646-946f-6e2e6b696361,rev?*%
%TF.SameCoordinates,Original*%
%TF.FileFunction,Copper,L2,Bot*%
%TF.FilePolarity,Positive*%
%FSLAX45Y45*%
G04 Gerber Fmt 4.5, Leading zero omitted, Abs format (unit mm)*
G04 Created by KiCad (PCBNEW 5.1.10-88a1d61d58~90~ubuntu20.04.1) date 2021-10-01 06:26:35*
%MOMM*%
%LPD*%
G01*
G04 APERTURE LIST*
%TA.AperFunction,SMDPad,CuDef*%
%ADD10R,0.800000X0.900000*%
%TD*%
%TA.AperFunction,ComponentPad*%
%ADD11O,1.700000X1.700000*%
%TD*%
%TA.AperFunction,ComponentPad*%
%ADD12R,1.700000X1.700000*%
%TD*%
%TA.AperFunction,Conductor*%
%ADD13C,0.250000*%
%TD*%
%TA.AperFunction,Conductor*%
%ADD14C,0.400000*%
%TD*%
%TA.AperFunction,Conductor*%
%ADD15C,0.254000*%
%TD*%
%TA.AperFunction,Conductor*%
%ADD16C,0.100000*%
%TD*%
G04 APERTURE END LIST*
%TO.P,R7,2*%
%TO.N,Net-(Q2-Pad3)*%
%TA.AperFunction,SMDPad,CuDef*%
G36*
G01*
X11775807Y-9392997D02*
X11690212Y-9420809D01*
G75*
G02*
X11658710Y-9404758I-7725J23776D01*
G01*
X11637079Y-9338184D01*
G75*
G02*
X11653130Y-9306682I23776J7725D01*
G01*
X11738725Y-9278870D01*
G75*
G02*
X11770227Y-9294921I7725J-23776D01*
G01*
X11791858Y-9361496D01*
G75*
G02*
X11775807Y-9392997I-23776J-7725D01*
G01*
G37*
%TD.AperFunction*%
%TO.P,R7,1*%
%TO.N,Net-(D7-Pad1)*%
%TA.AperFunction,SMDPad,CuDef*%
G36*
G01*
X11837611Y-9583209D02*
X11752016Y-9611020D01*
G75*
G02*
X11720514Y-9594969I-7725J23776D01*
G01*
X11698883Y-9528395D01*
G75*
G02*
X11714933Y-9496893I23776J7725D01*
G01*
X11800529Y-9469082D01*
G75*
G02*
X11832030Y-9485133I7725J-23776D01*
G01*
X11853662Y-9551707D01*
G75*
G02*
X11837611Y-9583209I-23776J-7725D01*
G01*
G37*
%TD.AperFunction*%
%TD*%
%TO.P,R8,2*%
%TO.N,Net-(Q2-Pad3)*%
%TA.AperFunction,SMDPad,CuDef*%
G36*
G01*
X11135218Y-11516699D02*
X11082317Y-11443887D01*
G75*
G02*
X11087848Y-11408968I20225J14695D01*
G01*
X11144479Y-11367822D01*
G75*
G02*
X11179399Y-11373353I14695J-20225D01*
G01*
X11232300Y-11446165D01*
G75*
G02*
X11226769Y-11481085I-20225J-14695D01*
G01*
X11170138Y-11522230D01*
G75*
G02*
X11135218Y-11516699I-14695J20225D01*
G01*
G37*
%TD.AperFunction*%
%TO.P,R8,1*%
%TO.N,Net-(D8-Pad1)*%
%TA.AperFunction,SMDPad,CuDef*%
G36*
G01*
X10973414Y-11634256D02*
X10920513Y-11561444D01*
G75*
G02*
X10926044Y-11526525I20225J14695D01*
G01*
X10982676Y-11485379D01*
G75*
G02*
X11017595Y-11490910I14695J-20225D01*
G01*
X11070496Y-11563722D01*
G75*
G02*
X11064966Y-11598642I-20225J-14695D01*
G01*
X11008334Y-11639787D01*
G75*
G02*
X10973414Y-11634256I-14695J20225D01*
G01*
G37*
%TD.AperFunction*%
%TD*%
%TO.P,R9,2*%
%TO.N,Net-(Q2-Pad3)*%
%TA.AperFunction,SMDPad,CuDef*%
G36*
G01*
X8917504Y-11563722D02*
X8970405Y-11490910D01*
G75*
G02*
X9005325Y-11485379I20225J-14695D01*
G01*
X9061956Y-11526525D01*
G75*
G02*
X9067487Y-11561444I-14695J-20225D01*
G01*
X9014586Y-11634256D01*
G75*
G02*
X8979666Y-11639787I-20225J14695D01*
G01*
X8923035Y-11598642D01*
G75*
G02*
X8917504Y-11563722I14695J20225D01*
G01*
G37*
%TD.AperFunction*%
%TO.P,R9,1*%
%TO.N,Net-(D9-Pad1)*%
%TA.AperFunction,SMDPad,CuDef*%
G36*
G01*
X8755700Y-11446165D02*
X8808601Y-11373353D01*
G75*
G02*
X8843521Y-11367822I20225J-14695D01*
G01*
X8900153Y-11408968D01*
G75*
G02*
X8905683Y-11443887I-14695J-20225D01*
G01*
X8852782Y-11516699D01*
G75*
G02*
X8817863Y-11522230I-20225J14695D01*
G01*
X8761231Y-11481085D01*
G75*
G02*
X8755700Y-11446165I14695J20225D01*
G01*
G37*
%TD.AperFunction*%
%TD*%
%TO.P,R10,2*%
%TO.N,Net-(Q2-Pad3)*%
%TA.AperFunction,SMDPad,CuDef*%
G36*
G01*
X8187471Y-9469082D02*
X8273066Y-9496893D01*
G75*
G02*
X8289117Y-9528395I-7725J-23776D01*
G01*
X8267486Y-9594969D01*
G75*
G02*
X8235984Y-9611020I-23776J7725D01*
G01*
X8150389Y-9583209D01*
G75*
G02*
X8134338Y-9551707I7725J23776D01*
G01*
X8155969Y-9485133D01*
G75*
G02*
X8187471Y-9469082I23776J-7725D01*
G01*
G37*
%TD.AperFunction*%
%TO.P,R10,1*%
%TO.N,Net-(D10-Pad1)*%
%TA.AperFunction,SMDPad,CuDef*%
G36*
G01*
X8249275Y-9278870D02*
X8334870Y-9306682D01*
G75*
G02*
X8350921Y-9338184I-7725J-23776D01*
G01*
X8329289Y-9404758D01*
G75*
G02*
X8297788Y-9420809I-23776J7725D01*
G01*
X8212192Y-9392997D01*
G75*
G02*
X8196142Y-9361496I7725J23776D01*
G01*
X8217773Y-9294921D01*
G75*
G02*
X8249275Y-9278870I23776J-7725D01*
G01*
G37*
%TD.AperFunction*%
%TD*%
%TO.P,R12,2*%
%TO.N,GND*%
%TA.AperFunction,SMDPad,CuDef*%
G36*
G01*
X10005000Y-11280000D02*
X10005000Y-11370000D01*
G75*
G02*
X9980000Y-11395000I-25000J0D01*
G01*
X9910000Y-11395000D01*
G75*
G02*
X9885000Y-11370000I0J25000D01*
G01*
X9885000Y-11280000D01*
G75*
G02*
X9910000Y-11255000I25000J0D01*
G01*
X9980000Y-11255000D01*
G75*
G02*
X10005000Y-11280000I0J-25000D01*
G01*
G37*
%TD.AperFunction*%
%TO.P,R12,1*%
%TO.N,/GPIO1*%
%TA.AperFunction,SMDPad,CuDef*%
G36*
G01*
X10205000Y-11280000D02*
X10205000Y-11370000D01*
G75*
G02*
X10180000Y-11395000I-25000J0D01*
G01*
X10110000Y-11395000D01*
G75*
G02*
X10085000Y-11370000I0J25000D01*
G01*
X10085000Y-11280000D01*
G75*
G02*
X10110000Y-11255000I25000J0D01*
G01*
X10180000Y-11255000D01*
G75*
G02*
X10205000Y-11280000I0J-25000D01*
G01*
G37*
%TD.AperFunction*%
%TD*%
%TO.P,R6,2*%
%TO.N,Net-(Q2-Pad3)*%
%TA.AperFunction,SMDPad,CuDef*%
G36*
G01*
X9954000Y-8127500D02*
X9954000Y-8217500D01*
G75*
G02*
X9929000Y-8242500I-25000J0D01*
G01*
X9859000Y-8242500D01*
G75*
G02*
X9834000Y-8217500I0J25000D01*
G01*
X9834000Y-8127500D01*
G75*
G02*
X9859000Y-8102500I25000J0D01*
G01*
X9929000Y-8102500D01*
G75*
G02*
X9954000Y-8127500I0J-25000D01*
G01*
G37*
%TD.AperFunction*%
%TO.P,R6,1*%
%TO.N,Net-(D6-Pad1)*%
%TA.AperFunction,SMDPad,CuDef*%
G36*
G01*
X10154000Y-8127500D02*
X10154000Y-8217500D01*
G75*
G02*
X10129000Y-8242500I-25000J0D01*
G01*
X10059000Y-8242500D01*
G75*
G02*
X10034000Y-8217500I0J25000D01*
G01*
X10034000Y-8127500D01*
G75*
G02*
X10059000Y-8102500I25000J0D01*
G01*
X10129000Y-8102500D01*
G75*
G02*
X10154000Y-8127500I0J-25000D01*
G01*
G37*
%TD.AperFunction*%
%TD*%
D10*
%TO.P,Q2,3*%
%TO.N,Net-(Q2-Pad3)*%
X10065000Y-10810000D03*
%TO.P,Q2,2*%
%TO.N,GND*%
X9970000Y-11010000D03*
%TO.P,Q2,1*%
%TO.N,/GPIO1*%
X10160000Y-11010000D03*
%TD*%
%TO.P,D10,2*%
%TO.N,+3V3*%
%TA.AperFunction,SMDPad,CuDef*%
G36*
G01*
X7953748Y-9382626D02*
X8029833Y-9407347D01*
G75*
G02*
X8045884Y-9438849I-7725J-23776D01*
G01*
X8020390Y-9517311D01*
G75*
G02*
X7988888Y-9533362I-23776J7725D01*
G01*
X7912804Y-9508641D01*
G75*
G02*
X7896753Y-9477139I7725J23776D01*
G01*
X7922246Y-9398677D01*
G75*
G02*
X7953748Y-9382626I23776J-7725D01*
G01*
G37*
%TD.AperFunction*%
%TO.P,D10,1*%
%TO.N,Net-(D10-Pad1)*%
%TA.AperFunction,SMDPad,CuDef*%
G36*
G01*
X8013234Y-9199548D02*
X8089319Y-9224269D01*
G75*
G02*
X8105370Y-9255771I-7725J-23776D01*
G01*
X8079876Y-9334233D01*
G75*
G02*
X8048374Y-9350284I-23776J7725D01*
G01*
X7972289Y-9325563D01*
G75*
G02*
X7956238Y-9294061I7725J23776D01*
G01*
X7981732Y-9215599D01*
G75*
G02*
X8013234Y-9199548I23776J-7725D01*
G01*
G37*
%TD.AperFunction*%
%TD*%
%TO.P,D9,2*%
%TO.N,+3V3*%
%TA.AperFunction,SMDPad,CuDef*%
G36*
G01*
X8763055Y-11759289D02*
X8810078Y-11694568D01*
G75*
G02*
X8844998Y-11689037I20225J-14695D01*
G01*
X8911742Y-11737529D01*
G75*
G02*
X8917273Y-11772449I-14695J-20225D01*
G01*
X8870250Y-11837171D01*
G75*
G02*
X8835330Y-11842702I-20225J14695D01*
G01*
X8768586Y-11794209D01*
G75*
G02*
X8763055Y-11759289I14695J20225D01*
G01*
G37*
%TD.AperFunction*%
%TO.P,D9,1*%
%TO.N,Net-(D9-Pad1)*%
%TA.AperFunction,SMDPad,CuDef*%
G36*
G01*
X8607319Y-11646141D02*
X8654342Y-11581419D01*
G75*
G02*
X8689262Y-11575889I20225J-14695D01*
G01*
X8756006Y-11624381D01*
G75*
G02*
X8761537Y-11659301I-14695J-20225D01*
G01*
X8714514Y-11724022D01*
G75*
G02*
X8679594Y-11729553I-20225J14695D01*
G01*
X8612850Y-11681061D01*
G75*
G02*
X8607319Y-11646141I14695J20225D01*
G01*
G37*
%TD.AperFunction*%
%TD*%
%TO.P,D8,2*%
%TO.N,+3V3*%
%TA.AperFunction,SMDPad,CuDef*%
G36*
G01*
X11273486Y-11724022D02*
X11226463Y-11659301D01*
G75*
G02*
X11231994Y-11624381I20225J14695D01*
G01*
X11298738Y-11575889D01*
G75*
G02*
X11333658Y-11581419I14695J-20225D01*
G01*
X11380681Y-11646141D01*
G75*
G02*
X11375150Y-11681061I-20225J-14695D01*
G01*
X11308406Y-11729553D01*
G75*
G02*
X11273486Y-11724022I-14695J20225D01*
G01*
G37*
%TD.AperFunction*%
%TO.P,D8,1*%
%TO.N,Net-(D8-Pad1)*%
%TA.AperFunction,SMDPad,CuDef*%
G36*
G01*
X11117750Y-11837171D02*
X11070727Y-11772449D01*
G75*
G02*
X11076258Y-11737529I20225J14695D01*
G01*
X11143002Y-11689037D01*
G75*
G02*
X11177922Y-11694568I14695J-20225D01*
G01*
X11224945Y-11759289D01*
G75*
G02*
X11219414Y-11794209I-20225J-14695D01*
G01*
X11152670Y-11842702D01*
G75*
G02*
X11117750Y-11837171I-14695J20225D01*
G01*
G37*
%TD.AperFunction*%
%TD*%
%TO.P,D7,2*%
%TO.N,+3V3*%
%TA.AperFunction,SMDPad,CuDef*%
G36*
G01*
X12015711Y-9325563D02*
X11939626Y-9350284D01*
G75*
G02*
X11908124Y-9334233I-7725J23776D01*
G01*
X11882630Y-9255771D01*
G75*
G02*
X11898681Y-9224269I23776J7725D01*
G01*
X11974766Y-9199548D01*
G75*
G02*
X12006268Y-9215599I7725J-23776D01*
G01*
X12031762Y-9294061D01*
G75*
G02*
X12015711Y-9325563I-23776J-7725D01*
G01*
G37*
%TD.AperFunction*%
%TO.P,D7,1*%
%TO.N,Net-(D7-Pad1)*%
%TA.AperFunction,SMDPad,CuDef*%
G36*
G01*
X12075196Y-9508641D02*
X11999112Y-9533362D01*
G75*
G02*
X11967610Y-9517311I-7725J23776D01*
G01*
X11942116Y-9438849D01*
G75*
G02*
X11958167Y-9407347I23776J7725D01*
G01*
X12034252Y-9382626D01*
G75*
G02*
X12065753Y-9398677I7725J-23776D01*
G01*
X12091247Y-9477139D01*
G75*
G02*
X12075196Y-9508641I-23776J-7725D01*
G01*
G37*
%TD.AperFunction*%
%TD*%
%TO.P,D6,2*%
%TO.N,+3V3*%
%TA.AperFunction,SMDPad,CuDef*%
G36*
G01*
X9964000Y-7878500D02*
X9964000Y-7958500D01*
G75*
G02*
X9939000Y-7983500I-25000J0D01*
G01*
X9856500Y-7983500D01*
G75*
G02*
X9831500Y-7958500I0J25000D01*
G01*
X9831500Y-7878500D01*
G75*
G02*
X9856500Y-7853500I25000J0D01*
G01*
X9939000Y-7853500D01*
G75*
G02*
X9964000Y-7878500I0J-25000D01*
G01*
G37*
%TD.AperFunction*%
%TO.P,D6,1*%
%TO.N,Net-(D6-Pad1)*%
%TA.AperFunction,SMDPad,CuDef*%
G36*
G01*
X10156500Y-7878500D02*
X10156500Y-7958500D01*
G75*
G02*
X10131500Y-7983500I-25000J0D01*
G01*
X10049000Y-7983500D01*
G75*
G02*
X10024000Y-7958500I0J25000D01*
G01*
X10024000Y-7878500D01*
G75*
G02*
X10049000Y-7853500I25000J0D01*
G01*
X10131500Y-7853500D01*
G75*
G02*
X10156500Y-7878500I0J-25000D01*
G01*
G37*
%TD.AperFunction*%
%TD*%
D11*
%TO.P,J1,6*%
%TO.N,Net-(J1-Pad6)*%
X10300000Y-12200000D03*
%TO.P,J1,5*%
%TO.N,/GPIO1*%
X10300000Y-11946000D03*
%TO.P,J1,4*%
%TO.N,Net-(J1-Pad4)*%
X10046000Y-12200000D03*
%TO.P,J1,3*%
%TO.N,Net-(J1-Pad3)*%
X10046000Y-11946000D03*
%TO.P,J1,2*%
%TO.N,GND*%
X9792000Y-12200000D03*
D12*
%TO.P,J1,1*%
%TO.N,+3V3*%
X9792000Y-11946000D03*
%TD*%
D13*
%TO.N,Net-(D6-Pad1)*%
X10090250Y-8168750D02*
X10094000Y-8172500D01*
X10090250Y-7918500D02*
X10090250Y-8168750D01*
%TO.N,Net-(D7-Pad1)*%
X11858329Y-9457994D02*
X11776272Y-9540051D01*
X12016682Y-9457994D02*
X11858329Y-9457994D01*
%TO.N,Net-(D8-Pad1)*%
X10995505Y-11613538D02*
X10995505Y-11562583D01*
X11147836Y-11765869D02*
X10995505Y-11613538D01*
%TO.N,Net-(D9-Pad1)*%
X8830692Y-11506457D02*
X8830692Y-11445026D01*
X8684428Y-11652721D02*
X8830692Y-11506457D01*
%TO.N,Net-(D10-Pad1)*%
X8198607Y-9274916D02*
X8273531Y-9349840D01*
X8030804Y-9274916D02*
X8198607Y-9274916D01*
%TO.N,/GPIO1*%
X10300000Y-11480000D02*
X10145000Y-11325000D01*
X10300000Y-11946000D02*
X10300000Y-11480000D01*
X10145000Y-11025000D02*
X10160000Y-11010000D01*
X10145000Y-11325000D02*
X10145000Y-11025000D01*
D14*
%TO.N,GND*%
X9970000Y-11300000D02*
X9945000Y-11325000D01*
X9970000Y-11010000D02*
X9970000Y-11300000D01*
X9917000Y-12075000D02*
X9792000Y-12200000D01*
X9917000Y-11863000D02*
X9917000Y-12075000D01*
X9945000Y-11835000D02*
X9917000Y-11863000D01*
X9945000Y-11325000D02*
X9945000Y-11835000D01*
D13*
%TO.N,Net-(Q2-Pad3)*%
X9745078Y-10810000D02*
X10065000Y-10810000D01*
X8992495Y-11562583D02*
X9745078Y-10810000D01*
X10522282Y-10810000D02*
X11157308Y-11445026D01*
X10065000Y-10810000D02*
X10522282Y-10810000D01*
X11157308Y-9907000D02*
X11714469Y-9349840D01*
X11157308Y-11445026D02*
X11157308Y-9907000D01*
X8992495Y-10320818D02*
X8992495Y-11562583D01*
X8211728Y-9540051D02*
X8992495Y-10320818D01*
X11071340Y-9349840D02*
X9894000Y-8172500D01*
X11714469Y-9349840D02*
X11071340Y-9349840D01*
X8526449Y-9540051D02*
X9894000Y-8172500D01*
X8211728Y-9540051D02*
X8526449Y-9540051D01*
%TD*%
D15*
%TO.N,+3V3*%
X10241584Y-7578019D02*
X10433247Y-7604869D01*
X10622171Y-7646862D01*
X10807161Y-7703732D01*
X10987049Y-7775120D01*
X11160696Y-7860574D01*
X11327004Y-7959555D01*
X11484923Y-8071436D01*
X11633454Y-8195510D01*
X11771657Y-8330992D01*
X11898659Y-8477027D01*
X12013658Y-8632690D01*
X12115925Y-8796998D01*
X12204815Y-8968911D01*
X12279766Y-9147343D01*
X12340303Y-9331167D01*
X12386044Y-9519218D01*
X12416699Y-9710310D01*
X12432076Y-9903233D01*
X12432076Y-10096767D01*
X12416699Y-10289690D01*
X12386044Y-10480782D01*
X12340303Y-10668833D01*
X12279766Y-10852657D01*
X12204815Y-11031089D01*
X12115925Y-11203002D01*
X12013658Y-11367310D01*
X11898659Y-11522973D01*
X11771657Y-11669008D01*
X11633454Y-11804490D01*
X11484923Y-11928564D01*
X11327004Y-12040445D01*
X11160696Y-12139426D01*
X10987049Y-12224880D01*
X10807161Y-12296268D01*
X10622171Y-12353138D01*
X10433247Y-12395131D01*
X10241584Y-12421981D01*
X10048393Y-12433519D01*
X9854897Y-12429671D01*
X9662318Y-12410462D01*
X9471874Y-12376013D01*
X9284768Y-12326542D01*
X9102185Y-12262363D01*
X8925278Y-12183879D01*
X8755166Y-12091589D01*
X8592924Y-11986075D01*
X8439578Y-11868004D01*
X8435652Y-11864450D01*
X8784239Y-11864450D01*
X8787751Y-11886624D01*
X8818050Y-11909017D01*
X8828842Y-11915342D01*
X8840660Y-11919440D01*
X8853050Y-11921154D01*
X8865537Y-11920418D01*
X8877640Y-11917260D01*
X8888895Y-11911801D01*
X8898868Y-11904251D01*
X8907176Y-11894901D01*
X8928338Y-11865252D01*
X8927665Y-11861000D01*
X9643193Y-11861000D01*
X9643500Y-11917425D01*
X9659375Y-11933300D01*
X9779300Y-11933300D01*
X9779300Y-11813375D01*
X9763425Y-11797500D01*
X9707000Y-11797193D01*
X9694552Y-11798419D01*
X9682582Y-11802050D01*
X9671551Y-11807946D01*
X9661882Y-11815881D01*
X9653946Y-11825551D01*
X9648050Y-11836582D01*
X9644419Y-11848552D01*
X9643193Y-11861000D01*
X8927665Y-11861000D01*
X8924826Y-11843078D01*
X8842974Y-11783609D01*
X8784239Y-11864450D01*
X8435652Y-11864450D01*
X8296098Y-11738123D01*
X8163390Y-11597253D01*
X8042293Y-11446285D01*
X7933574Y-11286173D01*
X7837920Y-11117930D01*
X7755935Y-10942618D01*
X7688138Y-10761347D01*
X7634957Y-10575262D01*
X7596728Y-10385541D01*
X7573694Y-10193382D01*
X7566000Y-10000000D01*
X7573694Y-9806618D01*
X7596728Y-9614459D01*
X7618598Y-9505922D01*
X7825417Y-9505922D01*
X7827616Y-9518235D01*
X7832174Y-9529883D01*
X7838918Y-9540418D01*
X7847588Y-9549435D01*
X7857850Y-9556587D01*
X7869310Y-9561600D01*
X7904047Y-9572564D01*
X7924050Y-9562371D01*
X7955315Y-9466148D01*
X7860281Y-9435270D01*
X7840277Y-9445462D01*
X7828343Y-9481198D01*
X7825662Y-9493416D01*
X7825417Y-9505922D01*
X7618598Y-9505922D01*
X7634957Y-9424738D01*
X7644567Y-9391109D01*
X7857938Y-9391109D01*
X7868130Y-9411113D01*
X7963164Y-9441991D01*
X7963782Y-9440089D01*
X7987939Y-9447938D01*
X7987321Y-9449840D01*
X7989223Y-9450458D01*
X7981374Y-9474615D01*
X7979472Y-9473997D01*
X7948207Y-9570220D01*
X7958400Y-9590224D01*
X7992947Y-9601772D01*
X8005165Y-9604453D01*
X8017671Y-9604698D01*
X8029984Y-9602499D01*
X8041632Y-9597940D01*
X8052167Y-9591197D01*
X8061184Y-9582527D01*
X8068336Y-9572265D01*
X8069964Y-9568544D01*
X8072642Y-9583538D01*
X8078987Y-9599750D01*
X8088373Y-9614412D01*
X8100439Y-9626962D01*
X8114721Y-9636916D01*
X8130672Y-9643893D01*
X8216267Y-9671705D01*
X8233272Y-9675435D01*
X8239759Y-9675563D01*
X8916495Y-10352299D01*
X8916495Y-11341971D01*
X8881026Y-11316201D01*
X8866007Y-11307398D01*
X8849558Y-11301694D01*
X8832313Y-11299309D01*
X8814934Y-11300334D01*
X8798089Y-11304730D01*
X8782425Y-11312327D01*
X8768544Y-11322835D01*
X8756980Y-11335848D01*
X8704079Y-11408660D01*
X8695276Y-11423680D01*
X8689572Y-11440128D01*
X8687187Y-11457373D01*
X8688212Y-11474752D01*
X8692608Y-11491597D01*
X8700205Y-11507261D01*
X8704517Y-11512957D01*
X8695299Y-11509761D01*
X8678054Y-11507375D01*
X8660675Y-11508400D01*
X8643830Y-11512796D01*
X8628166Y-11520393D01*
X8614285Y-11530901D01*
X8602721Y-11543914D01*
X8555698Y-11608636D01*
X8546895Y-11623655D01*
X8541191Y-11640104D01*
X8538806Y-11657349D01*
X8539831Y-11674728D01*
X8544227Y-11691573D01*
X8551824Y-11707237D01*
X8562332Y-11721118D01*
X8575345Y-11732682D01*
X8642089Y-11781174D01*
X8657109Y-11789977D01*
X8673557Y-11795681D01*
X8687454Y-11797603D01*
X8688497Y-11801599D01*
X8693956Y-11812854D01*
X8701506Y-11822827D01*
X8710856Y-11831136D01*
X8741516Y-11853032D01*
X8763690Y-11849520D01*
X8822425Y-11768679D01*
X8820807Y-11767503D01*
X8835736Y-11746954D01*
X8837354Y-11748130D01*
X8838530Y-11746512D01*
X8859079Y-11761442D01*
X8857903Y-11763060D01*
X8939756Y-11822529D01*
X8961930Y-11819017D01*
X8983589Y-11789729D01*
X8989914Y-11778938D01*
X8994012Y-11767119D01*
X8995725Y-11754729D01*
X8994989Y-11742242D01*
X8991831Y-11730139D01*
X8986372Y-11718885D01*
X8978823Y-11708912D01*
X8975786Y-11706213D01*
X8990874Y-11708300D01*
X9008253Y-11707275D01*
X9025098Y-11702880D01*
X9040762Y-11695282D01*
X9054643Y-11684775D01*
X9066207Y-11671761D01*
X9119108Y-11598949D01*
X9127911Y-11583930D01*
X9133615Y-11567481D01*
X9136000Y-11550236D01*
X9134975Y-11532857D01*
X9133884Y-11528675D01*
X9776559Y-10886000D01*
X9969568Y-10886000D01*
X9971946Y-10890449D01*
X9979882Y-10900119D01*
X9981191Y-10901193D01*
X9930000Y-10901193D01*
X9917552Y-10902419D01*
X9905582Y-10906050D01*
X9894551Y-10911946D01*
X9884882Y-10919882D01*
X9876946Y-10929551D01*
X9871050Y-10940582D01*
X9867419Y-10952552D01*
X9866193Y-10965000D01*
X9866193Y-11055000D01*
X9867419Y-11067448D01*
X9871050Y-11079418D01*
X9876946Y-11090449D01*
X9884882Y-11100119D01*
X9886500Y-11101447D01*
X9886500Y-11194772D01*
X9876015Y-11197953D01*
X9860661Y-11206159D01*
X9847204Y-11217204D01*
X9836160Y-11230661D01*
X9827953Y-11246015D01*
X9822899Y-11262674D01*
X9821193Y-11280000D01*
X9821193Y-11370000D01*
X9822899Y-11387325D01*
X9827953Y-11403985D01*
X9836160Y-11419339D01*
X9847204Y-11432796D01*
X9860661Y-11443840D01*
X9861500Y-11444289D01*
X9861500Y-11797277D01*
X9820575Y-11797500D01*
X9804700Y-11813375D01*
X9804700Y-11933300D01*
X9806700Y-11933300D01*
X9806700Y-11958700D01*
X9804700Y-11958700D01*
X9804700Y-11960700D01*
X9779300Y-11960700D01*
X9779300Y-11958700D01*
X9659375Y-11958700D01*
X9643500Y-11974575D01*
X9643193Y-12031000D01*
X9644419Y-12043448D01*
X9648050Y-12055418D01*
X9653946Y-12066449D01*
X9661882Y-12076118D01*
X9671551Y-12084054D01*
X9682582Y-12089950D01*
X9689838Y-12092151D01*
X9676653Y-12105337D01*
X9660401Y-12129659D01*
X9649207Y-12156684D01*
X9643500Y-12185374D01*
X9643500Y-12214626D01*
X9649207Y-12243316D01*
X9660401Y-12270341D01*
X9676653Y-12294663D01*
X9697337Y-12315347D01*
X9721659Y-12331599D01*
X9748684Y-12342793D01*
X9777374Y-12348500D01*
X9806626Y-12348500D01*
X9835316Y-12342793D01*
X9862341Y-12331599D01*
X9886663Y-12315347D01*
X9907348Y-12294663D01*
X9919000Y-12277224D01*
X9930653Y-12294663D01*
X9951337Y-12315347D01*
X9975659Y-12331599D01*
X10002684Y-12342793D01*
X10031374Y-12348500D01*
X10060626Y-12348500D01*
X10089316Y-12342793D01*
X10116341Y-12331599D01*
X10140663Y-12315347D01*
X10161348Y-12294663D01*
X10173000Y-12277224D01*
X10184653Y-12294663D01*
X10205337Y-12315347D01*
X10229659Y-12331599D01*
X10256684Y-12342793D01*
X10285374Y-12348500D01*
X10314626Y-12348500D01*
X10343316Y-12342793D01*
X10370341Y-12331599D01*
X10394663Y-12315347D01*
X10415348Y-12294663D01*
X10431599Y-12270341D01*
X10442793Y-12243316D01*
X10448500Y-12214626D01*
X10448500Y-12185374D01*
X10442793Y-12156684D01*
X10431599Y-12129659D01*
X10415348Y-12105337D01*
X10394663Y-12084652D01*
X10377224Y-12073000D01*
X10394663Y-12061347D01*
X10415348Y-12040663D01*
X10431599Y-12016341D01*
X10442793Y-11989316D01*
X10448500Y-11960626D01*
X10448500Y-11931374D01*
X10442793Y-11902684D01*
X10431599Y-11875659D01*
X10415348Y-11851337D01*
X10394663Y-11830652D01*
X10376000Y-11818182D01*
X10376000Y-11483732D01*
X10376368Y-11480000D01*
X10376000Y-11476268D01*
X10376000Y-11476267D01*
X10374900Y-11465101D01*
X10370555Y-11450775D01*
X10366377Y-11442960D01*
X10363497Y-11437572D01*
X10356380Y-11428900D01*
X10354000Y-11426000D01*
X10351100Y-11423620D01*
X10268807Y-11341327D01*
X10268807Y-11280000D01*
X10267101Y-11262674D01*
X10262047Y-11246015D01*
X10253841Y-11230661D01*
X10242796Y-11217204D01*
X10229339Y-11206159D01*
X10221000Y-11201702D01*
X10221000Y-11114987D01*
X10224418Y-11113950D01*
X10235449Y-11108054D01*
X10245119Y-11100119D01*
X10253054Y-11090449D01*
X10258950Y-11079418D01*
X10262581Y-11067448D01*
X10263807Y-11055000D01*
X10263807Y-10965000D01*
X10262581Y-10952552D01*
X10258950Y-10940582D01*
X10253054Y-10929551D01*
X10245119Y-10919882D01*
X10235449Y-10911946D01*
X10224418Y-10906050D01*
X10212448Y-10902419D01*
X10200000Y-10901193D01*
X10148810Y-10901193D01*
X10150119Y-10900119D01*
X10158054Y-10890449D01*
X10160432Y-10886000D01*
X10490802Y-10886000D01*
X11015920Y-11411118D01*
X11014828Y-11415300D01*
X11014624Y-11418768D01*
X11011263Y-11417891D01*
X10993884Y-11416866D01*
X10976639Y-11419251D01*
X10960190Y-11424955D01*
X10945171Y-11433758D01*
X10888539Y-11474903D01*
X10875526Y-11486468D01*
X10865018Y-11500348D01*
X10857421Y-11516012D01*
X10853025Y-11532857D01*
X10852000Y-11550236D01*
X10854385Y-11567481D01*
X10860089Y-11583930D01*
X10868892Y-11598949D01*
X10921793Y-11671761D01*
X10933357Y-11684775D01*
X10947238Y-11695282D01*
X10962902Y-11702880D01*
X10979747Y-11707275D01*
X10981888Y-11707402D01*
X11006366Y-11731879D01*
X11003239Y-11743862D01*
X11002214Y-11761242D01*
X11004599Y-11778487D01*
X11010303Y-11794935D01*
X11019106Y-11809955D01*
X11066129Y-11874676D01*
X11077693Y-11887689D01*
X11091574Y-11898197D01*
X11107238Y-11905794D01*
X11124083Y-11910190D01*
X11141462Y-11911215D01*
X11158707Y-11908830D01*
X11175156Y-11903126D01*
X11190175Y-11894323D01*
X11256919Y-11845830D01*
X11269933Y-11834266D01*
X11280440Y-11820385D01*
X11286563Y-11807763D01*
X11290685Y-11808006D01*
X11303076Y-11806292D01*
X11314894Y-11802194D01*
X11325685Y-11795869D01*
X11355984Y-11773475D01*
X11359497Y-11751301D01*
X11300762Y-11670460D01*
X11299144Y-11671636D01*
X11287443Y-11655530D01*
X11321311Y-11655530D01*
X11380046Y-11736371D01*
X11402220Y-11739883D01*
X11432880Y-11717987D01*
X11442230Y-11709678D01*
X11449780Y-11699705D01*
X11455239Y-11688451D01*
X11458397Y-11676348D01*
X11459133Y-11663861D01*
X11457419Y-11651471D01*
X11453321Y-11639653D01*
X11446996Y-11628861D01*
X11425338Y-11599573D01*
X11403163Y-11596061D01*
X11321311Y-11655530D01*
X11287443Y-11655530D01*
X11284214Y-11651087D01*
X11285832Y-11649911D01*
X11284657Y-11648293D01*
X11305206Y-11633363D01*
X11306381Y-11634981D01*
X11388234Y-11575512D01*
X11391746Y-11553338D01*
X11370584Y-11523689D01*
X11362275Y-11514339D01*
X11352302Y-11506789D01*
X11341048Y-11501331D01*
X11328945Y-11498172D01*
X11316458Y-11497436D01*
X11304068Y-11499150D01*
X11292250Y-11503248D01*
X11288745Y-11505302D01*
X11295392Y-11491597D01*
X11299788Y-11474752D01*
X11300813Y-11457373D01*
X11298428Y-11440128D01*
X11292724Y-11423679D01*
X11283921Y-11408660D01*
X11233308Y-11338998D01*
X11233308Y-9938480D01*
X11635585Y-9536203D01*
X11638198Y-9548113D01*
X11659830Y-9614687D01*
X11666806Y-9630637D01*
X11676761Y-9644920D01*
X11689310Y-9656986D01*
X11703973Y-9666372D01*
X11720184Y-9672717D01*
X11737322Y-9675777D01*
X11754728Y-9675435D01*
X11771733Y-9671705D01*
X11857328Y-9643893D01*
X11873279Y-9636916D01*
X11887561Y-9626962D01*
X11899627Y-9614412D01*
X11909013Y-9599750D01*
X11915358Y-9583538D01*
X11918419Y-9566400D01*
X11918278Y-9559258D01*
X11923857Y-9567262D01*
X11936406Y-9579328D01*
X11951069Y-9588714D01*
X11967281Y-9595059D01*
X11984419Y-9598119D01*
X12001825Y-9597778D01*
X12018829Y-9594047D01*
X12094914Y-9569325D01*
X12110864Y-9562348D01*
X12125147Y-9552394D01*
X12137213Y-9539845D01*
X12146599Y-9525182D01*
X12152944Y-9508970D01*
X12156004Y-9491832D01*
X12155663Y-9474426D01*
X12151932Y-9457422D01*
X12126438Y-9378959D01*
X12119461Y-9363009D01*
X12109507Y-9348727D01*
X12099393Y-9339003D01*
X12100899Y-9335157D01*
X12103098Y-9322843D01*
X12102852Y-9310337D01*
X12100171Y-9298120D01*
X12088237Y-9262384D01*
X12068233Y-9252191D01*
X11973199Y-9283070D01*
X11973817Y-9284972D01*
X11949660Y-9292821D01*
X11949042Y-9290919D01*
X11947140Y-9291537D01*
X11939291Y-9267380D01*
X11941193Y-9266762D01*
X11909928Y-9170539D01*
X11894524Y-9162690D01*
X11934085Y-9162690D01*
X11965350Y-9258913D01*
X12060384Y-9228034D01*
X12070577Y-9208031D01*
X12059227Y-9172105D01*
X12054214Y-9160645D01*
X12047062Y-9150383D01*
X12038045Y-9141713D01*
X12027510Y-9134970D01*
X12015862Y-9130411D01*
X12003549Y-9128212D01*
X11991043Y-9128457D01*
X11978825Y-9131138D01*
X11944277Y-9142686D01*
X11934085Y-9162690D01*
X11894524Y-9162690D01*
X11889925Y-9160346D01*
X11855187Y-9171310D01*
X11843727Y-9176323D01*
X11833465Y-9183475D01*
X11824796Y-9192492D01*
X11818052Y-9203027D01*
X11813493Y-9214674D01*
X11811294Y-9226988D01*
X11811540Y-9239494D01*
X11812411Y-9243462D01*
X11801431Y-9232905D01*
X11786768Y-9223519D01*
X11770557Y-9217174D01*
X11753418Y-9214113D01*
X11736013Y-9214455D01*
X11719008Y-9218186D01*
X11633413Y-9245998D01*
X11617462Y-9252975D01*
X11603180Y-9262929D01*
X11592689Y-9273840D01*
X11102820Y-9273840D01*
X10134724Y-8305743D01*
X10146325Y-8304601D01*
X10162985Y-8299547D01*
X10178339Y-8291340D01*
X10191796Y-8280296D01*
X10202840Y-8266839D01*
X10211047Y-8251485D01*
X10216101Y-8234825D01*
X10217807Y-8217500D01*
X10217807Y-8127500D01*
X10216101Y-8110174D01*
X10211047Y-8093515D01*
X10202840Y-8078161D01*
X10191796Y-8064704D01*
X10178339Y-8053659D01*
X10166250Y-8047198D01*
X10166250Y-8040138D01*
X10180839Y-8032340D01*
X10194296Y-8021296D01*
X10205340Y-8007839D01*
X10213547Y-7992485D01*
X10218601Y-7975825D01*
X10220307Y-7958500D01*
X10220307Y-7878500D01*
X10218601Y-7861175D01*
X10213547Y-7844515D01*
X10205340Y-7829161D01*
X10194296Y-7815704D01*
X10180839Y-7804659D01*
X10165485Y-7796453D01*
X10148825Y-7791399D01*
X10131500Y-7789693D01*
X10049000Y-7789693D01*
X10031675Y-7791399D01*
X10015015Y-7796453D01*
X10002642Y-7803066D01*
X9999449Y-7800446D01*
X9988418Y-7794550D01*
X9976448Y-7790919D01*
X9964000Y-7789693D01*
X9926325Y-7790000D01*
X9910450Y-7805875D01*
X9910450Y-7905800D01*
X9912450Y-7905800D01*
X9912450Y-7931200D01*
X9910450Y-7931200D01*
X9910450Y-7933200D01*
X9885050Y-7933200D01*
X9885050Y-7931200D01*
X9783875Y-7931200D01*
X9768000Y-7947075D01*
X9767693Y-7983500D01*
X9768919Y-7995948D01*
X9772550Y-8007918D01*
X9778446Y-8018949D01*
X9786381Y-8028618D01*
X9796051Y-8036554D01*
X9807082Y-8042450D01*
X9819052Y-8046081D01*
X9823094Y-8046479D01*
X9809661Y-8053659D01*
X9796204Y-8064704D01*
X9785159Y-8078161D01*
X9776953Y-8093515D01*
X9771899Y-8110174D01*
X9770193Y-8127500D01*
X9770193Y-8188827D01*
X8494969Y-9464051D01*
X8363325Y-9464051D01*
X8373043Y-9454708D01*
X8382997Y-9440426D01*
X8389974Y-9424475D01*
X8411605Y-9357901D01*
X8415336Y-9340897D01*
X8415678Y-9323491D01*
X8412617Y-9306353D01*
X8406272Y-9290141D01*
X8396886Y-9275478D01*
X8384820Y-9262929D01*
X8370537Y-9252975D01*
X8354587Y-9245998D01*
X8268992Y-9218186D01*
X8251987Y-9214455D01*
X8244558Y-9214309D01*
X8241035Y-9211418D01*
X8227832Y-9204361D01*
X8213506Y-9200015D01*
X8202341Y-9198916D01*
X8202339Y-9198916D01*
X8198607Y-9198548D01*
X8194875Y-9198916D01*
X8155080Y-9198916D01*
X8151335Y-9193065D01*
X8139269Y-9180516D01*
X8124986Y-9170561D01*
X8109036Y-9163585D01*
X8032952Y-9138863D01*
X8015947Y-9135132D01*
X7998541Y-9134791D01*
X7981403Y-9137851D01*
X7965191Y-9144196D01*
X7950529Y-9153582D01*
X7937979Y-9165648D01*
X7928025Y-9179931D01*
X7921048Y-9195881D01*
X7895554Y-9274343D01*
X7891823Y-9291348D01*
X7891481Y-9308754D01*
X7893948Y-9322565D01*
X7890469Y-9324792D01*
X7881452Y-9333461D01*
X7874300Y-9343723D01*
X7869288Y-9355183D01*
X7857938Y-9391109D01*
X7644567Y-9391109D01*
X7688138Y-9238653D01*
X7755935Y-9057382D01*
X7837920Y-8882070D01*
X7933574Y-8713827D01*
X8042293Y-8553715D01*
X8163390Y-8402747D01*
X8296098Y-8261877D01*
X8439578Y-8131996D01*
X8592924Y-8013925D01*
X8755166Y-7908411D01*
X8856380Y-7853500D01*
X9767693Y-7853500D01*
X9768000Y-7889925D01*
X9783875Y-7905800D01*
X9885050Y-7905800D01*
X9885050Y-7805875D01*
X9869175Y-7790000D01*
X9831500Y-7789693D01*
X9819052Y-7790919D01*
X9807082Y-7794550D01*
X9796051Y-7800446D01*
X9786381Y-7808381D01*
X9778446Y-7818051D01*
X9772550Y-7829082D01*
X9768919Y-7841052D01*
X9767693Y-7853500D01*
X8856380Y-7853500D01*
X8925278Y-7816121D01*
X9102185Y-7737637D01*
X9284768Y-7673457D01*
X9471874Y-7623987D01*
X9662318Y-7589538D01*
X9854897Y-7570329D01*
X10048393Y-7566481D01*
X10241584Y-7578019D01*
%TA.AperFunction,Conductor*%
D16*
G36*
X10241584Y-7578019D02*
G01*
X10433247Y-7604869D01*
X10622171Y-7646862D01*
X10807161Y-7703732D01*
X10987049Y-7775120D01*
X11160696Y-7860574D01*
X11327004Y-7959555D01*
X11484923Y-8071436D01*
X11633454Y-8195510D01*
X11771657Y-8330992D01*
X11898659Y-8477027D01*
X12013658Y-8632690D01*
X12115925Y-8796998D01*
X12204815Y-8968911D01*
X12279766Y-9147343D01*
X12340303Y-9331167D01*
X12386044Y-9519218D01*
X12416699Y-9710310D01*
X12432076Y-9903233D01*
X12432076Y-10096767D01*
X12416699Y-10289690D01*
X12386044Y-10480782D01*
X12340303Y-10668833D01*
X12279766Y-10852657D01*
X12204815Y-11031089D01*
X12115925Y-11203002D01*
X12013658Y-11367310D01*
X11898659Y-11522973D01*
X11771657Y-11669008D01*
X11633454Y-11804490D01*
X11484923Y-11928564D01*
X11327004Y-12040445D01*
X11160696Y-12139426D01*
X10987049Y-12224880D01*
X10807161Y-12296268D01*
X10622171Y-12353138D01*
X10433247Y-12395131D01*
X10241584Y-12421981D01*
X10048393Y-12433519D01*
X9854897Y-12429671D01*
X9662318Y-12410462D01*
X9471874Y-12376013D01*
X9284768Y-12326542D01*
X9102185Y-12262363D01*
X8925278Y-12183879D01*
X8755166Y-12091589D01*
X8592924Y-11986075D01*
X8439578Y-11868004D01*
X8435652Y-11864450D01*
X8784239Y-11864450D01*
X8787751Y-11886624D01*
X8818050Y-11909017D01*
X8828842Y-11915342D01*
X8840660Y-11919440D01*
X8853050Y-11921154D01*
X8865537Y-11920418D01*
X8877640Y-11917260D01*
X8888895Y-11911801D01*
X8898868Y-11904251D01*
X8907176Y-11894901D01*
X8928338Y-11865252D01*
X8927665Y-11861000D01*
X9643193Y-11861000D01*
X9643500Y-11917425D01*
X9659375Y-11933300D01*
X9779300Y-11933300D01*
X9779300Y-11813375D01*
X9763425Y-11797500D01*
X9707000Y-11797193D01*
X9694552Y-11798419D01*
X9682582Y-11802050D01*
X9671551Y-11807946D01*
X9661882Y-11815881D01*
X9653946Y-11825551D01*
X9648050Y-11836582D01*
X9644419Y-11848552D01*
X9643193Y-11861000D01*
X8927665Y-11861000D01*
X8924826Y-11843078D01*
X8842974Y-11783609D01*
X8784239Y-11864450D01*
X8435652Y-11864450D01*
X8296098Y-11738123D01*
X8163390Y-11597253D01*
X8042293Y-11446285D01*
X7933574Y-11286173D01*
X7837920Y-11117930D01*
X7755935Y-10942618D01*
X7688138Y-10761347D01*
X7634957Y-10575262D01*
X7596728Y-10385541D01*
X7573694Y-10193382D01*
X7566000Y-10000000D01*
X7573694Y-9806618D01*
X7596728Y-9614459D01*
X7618598Y-9505922D01*
X7825417Y-9505922D01*
X7827616Y-9518235D01*
X7832174Y-9529883D01*
X7838918Y-9540418D01*
X7847588Y-9549435D01*
X7857850Y-9556587D01*
X7869310Y-9561600D01*
X7904047Y-9572564D01*
X7924050Y-9562371D01*
X7955315Y-9466148D01*
X7860281Y-9435270D01*
X7840277Y-9445462D01*
X7828343Y-9481198D01*
X7825662Y-9493416D01*
X7825417Y-9505922D01*
X7618598Y-9505922D01*
X7634957Y-9424738D01*
X7644567Y-9391109D01*
X7857938Y-9391109D01*
X7868130Y-9411113D01*
X7963164Y-9441991D01*
X7963782Y-9440089D01*
X7987939Y-9447938D01*
X7987321Y-9449840D01*
X7989223Y-9450458D01*
X7981374Y-9474615D01*
X7979472Y-9473997D01*
X7948207Y-9570220D01*
X7958400Y-9590224D01*
X7992947Y-9601772D01*
X8005165Y-9604453D01*
X8017671Y-9604698D01*
X8029984Y-9602499D01*
X8041632Y-9597940D01*
X8052167Y-9591197D01*
X8061184Y-9582527D01*
X8068336Y-9572265D01*
X8069964Y-9568544D01*
X8072642Y-9583538D01*
X8078987Y-9599750D01*
X8088373Y-9614412D01*
X8100439Y-9626962D01*
X8114721Y-9636916D01*
X8130672Y-9643893D01*
X8216267Y-9671705D01*
X8233272Y-9675435D01*
X8239759Y-9675563D01*
X8916495Y-10352299D01*
X8916495Y-11341971D01*
X8881026Y-11316201D01*
X8866007Y-11307398D01*
X8849558Y-11301694D01*
X8832313Y-11299309D01*
X8814934Y-11300334D01*
X8798089Y-11304730D01*
X8782425Y-11312327D01*
X8768544Y-11322835D01*
X8756980Y-11335848D01*
X8704079Y-11408660D01*
X8695276Y-11423680D01*
X8689572Y-11440128D01*
X8687187Y-11457373D01*
X8688212Y-11474752D01*
X8692608Y-11491597D01*
X8700205Y-11507261D01*
X8704517Y-11512957D01*
X8695299Y-11509761D01*
X8678054Y-11507375D01*
X8660675Y-11508400D01*
X8643830Y-11512796D01*
X8628166Y-11520393D01*
X8614285Y-11530901D01*
X8602721Y-11543914D01*
X8555698Y-11608636D01*
X8546895Y-11623655D01*
X8541191Y-11640104D01*
X8538806Y-11657349D01*
X8539831Y-11674728D01*
X8544227Y-11691573D01*
X8551824Y-11707237D01*
X8562332Y-11721118D01*
X8575345Y-11732682D01*
X8642089Y-11781174D01*
X8657109Y-11789977D01*
X8673557Y-11795681D01*
X8687454Y-11797603D01*
X8688497Y-11801599D01*
X8693956Y-11812854D01*
X8701506Y-11822827D01*
X8710856Y-11831136D01*
X8741516Y-11853032D01*
X8763690Y-11849520D01*
X8822425Y-11768679D01*
X8820807Y-11767503D01*
X8835736Y-11746954D01*
X8837354Y-11748130D01*
X8838530Y-11746512D01*
X8859079Y-11761442D01*
X8857903Y-11763060D01*
X8939756Y-11822529D01*
X8961930Y-11819017D01*
X8983589Y-11789729D01*
X8989914Y-11778938D01*
X8994012Y-11767119D01*
X8995725Y-11754729D01*
X8994989Y-11742242D01*
X8991831Y-11730139D01*
X8986372Y-11718885D01*
X8978823Y-11708912D01*
X8975786Y-11706213D01*
X8990874Y-11708300D01*
X9008253Y-11707275D01*
X9025098Y-11702880D01*
X9040762Y-11695282D01*
X9054643Y-11684775D01*
X9066207Y-11671761D01*
X9119108Y-11598949D01*
X9127911Y-11583930D01*
X9133615Y-11567481D01*
X9136000Y-11550236D01*
X9134975Y-11532857D01*
X9133884Y-11528675D01*
X9776559Y-10886000D01*
X9969568Y-10886000D01*
X9971946Y-10890449D01*
X9979882Y-10900119D01*
X9981191Y-10901193D01*
X9930000Y-10901193D01*
X9917552Y-10902419D01*
X9905582Y-10906050D01*
X9894551Y-10911946D01*
X9884882Y-10919882D01*
X9876946Y-10929551D01*
X9871050Y-10940582D01*
X9867419Y-10952552D01*
X9866193Y-10965000D01*
X9866193Y-11055000D01*
X9867419Y-11067448D01*
X9871050Y-11079418D01*
X9876946Y-11090449D01*
X9884882Y-11100119D01*
X9886500Y-11101447D01*
X9886500Y-11194772D01*
X9876015Y-11197953D01*
X9860661Y-11206159D01*
X9847204Y-11217204D01*
X9836160Y-11230661D01*
X9827953Y-11246015D01*
X9822899Y-11262674D01*
X9821193Y-11280000D01*
X9821193Y-11370000D01*
X9822899Y-11387325D01*
X9827953Y-11403985D01*
X9836160Y-11419339D01*
X9847204Y-11432796D01*
X9860661Y-11443840D01*
X9861500Y-11444289D01*
X9861500Y-11797277D01*
X9820575Y-11797500D01*
X9804700Y-11813375D01*
X9804700Y-11933300D01*
X9806700Y-11933300D01*
X9806700Y-11958700D01*
X9804700Y-11958700D01*
X9804700Y-11960700D01*
X9779300Y-11960700D01*
X9779300Y-11958700D01*
X9659375Y-11958700D01*
X9643500Y-11974575D01*
X9643193Y-12031000D01*
X9644419Y-12043448D01*
X9648050Y-12055418D01*
X9653946Y-12066449D01*
X9661882Y-12076118D01*
X9671551Y-12084054D01*
X9682582Y-12089950D01*
X9689838Y-12092151D01*
X9676653Y-12105337D01*
X9660401Y-12129659D01*
X9649207Y-12156684D01*
X9643500Y-12185374D01*
X9643500Y-12214626D01*
X9649207Y-12243316D01*
X9660401Y-12270341D01*
X9676653Y-12294663D01*
X9697337Y-12315347D01*
X9721659Y-12331599D01*
X9748684Y-12342793D01*
X9777374Y-12348500D01*
X9806626Y-12348500D01*
X9835316Y-12342793D01*
X9862341Y-12331599D01*
X9886663Y-12315347D01*
X9907348Y-12294663D01*
X9919000Y-12277224D01*
X9930653Y-12294663D01*
X9951337Y-12315347D01*
X9975659Y-12331599D01*
X10002684Y-12342793D01*
X10031374Y-12348500D01*
X10060626Y-12348500D01*
X10089316Y-12342793D01*
X10116341Y-12331599D01*
X10140663Y-12315347D01*
X10161348Y-12294663D01*
X10173000Y-12277224D01*
X10184653Y-12294663D01*
X10205337Y-12315347D01*
X10229659Y-12331599D01*
X10256684Y-12342793D01*
X10285374Y-12348500D01*
X10314626Y-12348500D01*
X10343316Y-12342793D01*
X10370341Y-12331599D01*
X10394663Y-12315347D01*
X10415348Y-12294663D01*
X10431599Y-12270341D01*
X10442793Y-12243316D01*
X10448500Y-12214626D01*
X10448500Y-12185374D01*
X10442793Y-12156684D01*
X10431599Y-12129659D01*
X10415348Y-12105337D01*
X10394663Y-12084652D01*
X10377224Y-12073000D01*
X10394663Y-12061347D01*
X10415348Y-12040663D01*
X10431599Y-12016341D01*
X10442793Y-11989316D01*
X10448500Y-11960626D01*
X10448500Y-11931374D01*
X10442793Y-11902684D01*
X10431599Y-11875659D01*
X10415348Y-11851337D01*
X10394663Y-11830652D01*
X10376000Y-11818182D01*
X10376000Y-11483732D01*
X10376368Y-11480000D01*
X10376000Y-11476268D01*
X10376000Y-11476267D01*
X10374900Y-11465101D01*
X10370555Y-11450775D01*
X10366377Y-11442960D01*
X10363497Y-11437572D01*
X10356380Y-11428900D01*
X10354000Y-11426000D01*
X10351100Y-11423620D01*
X10268807Y-11341327D01*
X10268807Y-11280000D01*
X10267101Y-11262674D01*
X10262047Y-11246015D01*
X10253841Y-11230661D01*
X10242796Y-11217204D01*
X10229339Y-11206159D01*
X10221000Y-11201702D01*
X10221000Y-11114987D01*
X10224418Y-11113950D01*
X10235449Y-11108054D01*
X10245119Y-11100119D01*
X10253054Y-11090449D01*
X10258950Y-11079418D01*
X10262581Y-11067448D01*
X10263807Y-11055000D01*
X10263807Y-10965000D01*
X10262581Y-10952552D01*
X10258950Y-10940582D01*
X10253054Y-10929551D01*
X10245119Y-10919882D01*
X10235449Y-10911946D01*
X10224418Y-10906050D01*
X10212448Y-10902419D01*
X10200000Y-10901193D01*
X10148810Y-10901193D01*
X10150119Y-10900119D01*
X10158054Y-10890449D01*
X10160432Y-10886000D01*
X10490802Y-10886000D01*
X11015920Y-11411118D01*
X11014828Y-11415300D01*
X11014624Y-11418768D01*
X11011263Y-11417891D01*
X10993884Y-11416866D01*
X10976639Y-11419251D01*
X10960190Y-11424955D01*
X10945171Y-11433758D01*
X10888539Y-11474903D01*
X10875526Y-11486468D01*
X10865018Y-11500348D01*
X10857421Y-11516012D01*
X10853025Y-11532857D01*
X10852000Y-11550236D01*
X10854385Y-11567481D01*
X10860089Y-11583930D01*
X10868892Y-11598949D01*
X10921793Y-11671761D01*
X10933357Y-11684775D01*
X10947238Y-11695282D01*
X10962902Y-11702880D01*
X10979747Y-11707275D01*
X10981888Y-11707402D01*
X11006366Y-11731879D01*
X11003239Y-11743862D01*
X11002214Y-11761242D01*
X11004599Y-11778487D01*
X11010303Y-11794935D01*
X11019106Y-11809955D01*
X11066129Y-11874676D01*
X11077693Y-11887689D01*
X11091574Y-11898197D01*
X11107238Y-11905794D01*
X11124083Y-11910190D01*
X11141462Y-11911215D01*
X11158707Y-11908830D01*
X11175156Y-11903126D01*
X11190175Y-11894323D01*
X11256919Y-11845830D01*
X11269933Y-11834266D01*
X11280440Y-11820385D01*
X11286563Y-11807763D01*
X11290685Y-11808006D01*
X11303076Y-11806292D01*
X11314894Y-11802194D01*
X11325685Y-11795869D01*
X11355984Y-11773475D01*
X11359497Y-11751301D01*
X11300762Y-11670460D01*
X11299144Y-11671636D01*
X11287443Y-11655530D01*
X11321311Y-11655530D01*
X11380046Y-11736371D01*
X11402220Y-11739883D01*
X11432880Y-11717987D01*
X11442230Y-11709678D01*
X11449780Y-11699705D01*
X11455239Y-11688451D01*
X11458397Y-11676348D01*
X11459133Y-11663861D01*
X11457419Y-11651471D01*
X11453321Y-11639653D01*
X11446996Y-11628861D01*
X11425338Y-11599573D01*
X11403163Y-11596061D01*
X11321311Y-11655530D01*
X11287443Y-11655530D01*
X11284214Y-11651087D01*
X11285832Y-11649911D01*
X11284657Y-11648293D01*
X11305206Y-11633363D01*
X11306381Y-11634981D01*
X11388234Y-11575512D01*
X11391746Y-11553338D01*
X11370584Y-11523689D01*
X11362275Y-11514339D01*
X11352302Y-11506789D01*
X11341048Y-11501331D01*
X11328945Y-11498172D01*
X11316458Y-11497436D01*
X11304068Y-11499150D01*
X11292250Y-11503248D01*
X11288745Y-11505302D01*
X11295392Y-11491597D01*
X11299788Y-11474752D01*
X11300813Y-11457373D01*
X11298428Y-11440128D01*
X11292724Y-11423679D01*
X11283921Y-11408660D01*
X11233308Y-11338998D01*
X11233308Y-9938480D01*
X11635585Y-9536203D01*
X11638198Y-9548113D01*
X11659830Y-9614687D01*
X11666806Y-9630637D01*
X11676761Y-9644920D01*
X11689310Y-9656986D01*
X11703973Y-9666372D01*
X11720184Y-9672717D01*
X11737322Y-9675777D01*
X11754728Y-9675435D01*
X11771733Y-9671705D01*
X11857328Y-9643893D01*
X11873279Y-9636916D01*
X11887561Y-9626962D01*
X11899627Y-9614412D01*
X11909013Y-9599750D01*
X11915358Y-9583538D01*
X11918419Y-9566400D01*
X11918278Y-9559258D01*
X11923857Y-9567262D01*
X11936406Y-9579328D01*
X11951069Y-9588714D01*
X11967281Y-9595059D01*
X11984419Y-9598119D01*
X12001825Y-9597778D01*
X12018829Y-9594047D01*
X12094914Y-9569325D01*
X12110864Y-9562348D01*
X12125147Y-9552394D01*
X12137213Y-9539845D01*
X12146599Y-9525182D01*
X12152944Y-9508970D01*
X12156004Y-9491832D01*
X12155663Y-9474426D01*
X12151932Y-9457422D01*
X12126438Y-9378959D01*
X12119461Y-9363009D01*
X12109507Y-9348727D01*
X12099393Y-9339003D01*
X12100899Y-9335157D01*
X12103098Y-9322843D01*
X12102852Y-9310337D01*
X12100171Y-9298120D01*
X12088237Y-9262384D01*
X12068233Y-9252191D01*
X11973199Y-9283070D01*
X11973817Y-9284972D01*
X11949660Y-9292821D01*
X11949042Y-9290919D01*
X11947140Y-9291537D01*
X11939291Y-9267380D01*
X11941193Y-9266762D01*
X11909928Y-9170539D01*
X11894524Y-9162690D01*
X11934085Y-9162690D01*
X11965350Y-9258913D01*
X12060384Y-9228034D01*
X12070577Y-9208031D01*
X12059227Y-9172105D01*
X12054214Y-9160645D01*
X12047062Y-9150383D01*
X12038045Y-9141713D01*
X12027510Y-9134970D01*
X12015862Y-9130411D01*
X12003549Y-9128212D01*
X11991043Y-9128457D01*
X11978825Y-9131138D01*
X11944277Y-9142686D01*
X11934085Y-9162690D01*
X11894524Y-9162690D01*
X11889925Y-9160346D01*
X11855187Y-9171310D01*
X11843727Y-9176323D01*
X11833465Y-9183475D01*
X11824796Y-9192492D01*
X11818052Y-9203027D01*
X11813493Y-9214674D01*
X11811294Y-9226988D01*
X11811540Y-9239494D01*
X11812411Y-9243462D01*
X11801431Y-9232905D01*
X11786768Y-9223519D01*
X11770557Y-9217174D01*
X11753418Y-9214113D01*
X11736013Y-9214455D01*
X11719008Y-9218186D01*
X11633413Y-9245998D01*
X11617462Y-9252975D01*
X11603180Y-9262929D01*
X11592689Y-9273840D01*
X11102820Y-9273840D01*
X10134724Y-8305743D01*
X10146325Y-8304601D01*
X10162985Y-8299547D01*
X10178339Y-8291340D01*
X10191796Y-8280296D01*
X10202840Y-8266839D01*
X10211047Y-8251485D01*
X10216101Y-8234825D01*
X10217807Y-8217500D01*
X10217807Y-8127500D01*
X10216101Y-8110174D01*
X10211047Y-8093515D01*
X10202840Y-8078161D01*
X10191796Y-8064704D01*
X10178339Y-8053659D01*
X10166250Y-8047198D01*
X10166250Y-8040138D01*
X10180839Y-8032340D01*
X10194296Y-8021296D01*
X10205340Y-8007839D01*
X10213547Y-7992485D01*
X10218601Y-7975825D01*
X10220307Y-7958500D01*
X10220307Y-7878500D01*
X10218601Y-7861175D01*
X10213547Y-7844515D01*
X10205340Y-7829161D01*
X10194296Y-7815704D01*
X10180839Y-7804659D01*
X10165485Y-7796453D01*
X10148825Y-7791399D01*
X10131500Y-7789693D01*
X10049000Y-7789693D01*
X10031675Y-7791399D01*
X10015015Y-7796453D01*
X10002642Y-7803066D01*
X9999449Y-7800446D01*
X9988418Y-7794550D01*
X9976448Y-7790919D01*
X9964000Y-7789693D01*
X9926325Y-7790000D01*
X9910450Y-7805875D01*
X9910450Y-7905800D01*
X9912450Y-7905800D01*
X9912450Y-7931200D01*
X9910450Y-7931200D01*
X9910450Y-7933200D01*
X9885050Y-7933200D01*
X9885050Y-7931200D01*
X9783875Y-7931200D01*
X9768000Y-7947075D01*
X9767693Y-7983500D01*
X9768919Y-7995948D01*
X9772550Y-8007918D01*
X9778446Y-8018949D01*
X9786381Y-8028618D01*
X9796051Y-8036554D01*
X9807082Y-8042450D01*
X9819052Y-8046081D01*
X9823094Y-8046479D01*
X9809661Y-8053659D01*
X9796204Y-8064704D01*
X9785159Y-8078161D01*
X9776953Y-8093515D01*
X9771899Y-8110174D01*
X9770193Y-8127500D01*
X9770193Y-8188827D01*
X8494969Y-9464051D01*
X8363325Y-9464051D01*
X8373043Y-9454708D01*
X8382997Y-9440426D01*
X8389974Y-9424475D01*
X8411605Y-9357901D01*
X8415336Y-9340897D01*
X8415678Y-9323491D01*
X8412617Y-9306353D01*
X8406272Y-9290141D01*
X8396886Y-9275478D01*
X8384820Y-9262929D01*
X8370537Y-9252975D01*
X8354587Y-9245998D01*
X8268992Y-9218186D01*
X8251987Y-9214455D01*
X8244558Y-9214309D01*
X8241035Y-9211418D01*
X8227832Y-9204361D01*
X8213506Y-9200015D01*
X8202341Y-9198916D01*
X8202339Y-9198916D01*
X8198607Y-9198548D01*
X8194875Y-9198916D01*
X8155080Y-9198916D01*
X8151335Y-9193065D01*
X8139269Y-9180516D01*
X8124986Y-9170561D01*
X8109036Y-9163585D01*
X8032952Y-9138863D01*
X8015947Y-9135132D01*
X7998541Y-9134791D01*
X7981403Y-9137851D01*
X7965191Y-9144196D01*
X7950529Y-9153582D01*
X7937979Y-9165648D01*
X7928025Y-9179931D01*
X7921048Y-9195881D01*
X7895554Y-9274343D01*
X7891823Y-9291348D01*
X7891481Y-9308754D01*
X7893948Y-9322565D01*
X7890469Y-9324792D01*
X7881452Y-9333461D01*
X7874300Y-9343723D01*
X7869288Y-9355183D01*
X7857938Y-9391109D01*
X7644567Y-9391109D01*
X7688138Y-9238653D01*
X7755935Y-9057382D01*
X7837920Y-8882070D01*
X7933574Y-8713827D01*
X8042293Y-8553715D01*
X8163390Y-8402747D01*
X8296098Y-8261877D01*
X8439578Y-8131996D01*
X8592924Y-8013925D01*
X8755166Y-7908411D01*
X8856380Y-7853500D01*
X9767693Y-7853500D01*
X9768000Y-7889925D01*
X9783875Y-7905800D01*
X9885050Y-7905800D01*
X9885050Y-7805875D01*
X9869175Y-7790000D01*
X9831500Y-7789693D01*
X9819052Y-7790919D01*
X9807082Y-7794550D01*
X9796051Y-7800446D01*
X9786381Y-7808381D01*
X9778446Y-7818051D01*
X9772550Y-7829082D01*
X9768919Y-7841052D01*
X9767693Y-7853500D01*
X8856380Y-7853500D01*
X8925278Y-7816121D01*
X9102185Y-7737637D01*
X9284768Y-7673457D01*
X9471874Y-7623987D01*
X9662318Y-7589538D01*
X9854897Y-7570329D01*
X10048393Y-7566481D01*
X10241584Y-7578019D01*
G37*
%TD.AperFunction*%
%TD*%
M02*
