<?xml version="1.0" encoding="utf-8"?>
<!-- Generator: Adobe Illustrator 25.4.1, SVG Export Plug-In . SVG Version: 6.00 Build 0)  -->
<svg version="1.1" xmlns="http://www.w3.org/2000/svg" xmlns:xlink="http://www.w3.org/1999/xlink" x="0px" y="0px"
	 viewBox="0 0 841.9 595.3" style="enable-background:new 0 0 841.9 595.3;" xml:space="preserve">
<style type="text/css">
	.st0{fill:#E09E30;}
	.st1{fill:#FFFFFF;}
</style>
<g id="COPPER">
	<g id="COPPER_2_">
		<path class="st0" d="M280.6,363.3c1.2,1.2,2.4,1.7,2.4,1.7s5.4,5.1,21.9,3.1c0.5-0.1,1.1-0.2,1.6-0.3c1.3,0.3,2.7,0.6,4.1,0.8
			c1.6,0.1,3.3,0.3,4.9-0.4c0.2-0.1,0.3-0.3,0.2-0.5c-0.1-0.2-0.3-0.3-0.4-0.2l-0.1,0c-2.9,0.6-5.8-0.7-8.7-1.6
			c-2.6-0.9-5.2-1.9-7.9-2.7c0.2-0.1,0.4-0.2,0.6-0.3c6-3.6,6.8-10.6,6.8-13.6c0-0.9-0.5-1.8-1.3-2.3c-10.2-6.5-20.4-4-24-2.8
			c-0.9,0.3-1.5,1-1.8,1.9c-1,4.1-0.5,8.1,0.3,11.1c0.4,1.7,1.4,3.1,2.7,4.2c-1.2,0.3-2.3,0.8-3.4,1.4c-0.2,0.1-0.2,0.4-0.1,0.5
			c0.1,0.1,0.2,0.2,0.4,0.2l0,0L280.6,363.3z"/>
		<path class="st0" d="M261.8,338.1c0.8-1.7,2.4-3.1,4.5-4.1l-1.4-5.5l12.3-13.9c0.2-0.2,0.1-0.4,0.1-0.6c0-0.1-0.2-0.3-0.5-0.3
			l-18.5-1.3l-9.4-16c-0.1-0.3-0.4-0.3-0.5-0.3c0,0,0,0,0,0c-0.1,0-0.3,0.1-0.5,0.3l-7,17.2l-18.1,4c-0.3,0.1-0.4,0.3-0.4,0.4
			c0,0.1,0,0.4,0.2,0.5l14.2,11.9l-1.8,18.5c0,0.3,0.1,0.4,0.3,0.5c0.1,0.1,0.3,0.2,0.6,0l15.7-9.8l6.5,2.8
			C259,339.5,260.8,338.5,261.8,338.1z"/>
		<path class="st0" d="M287.3,319c0.2-1.9-0.9-3.6-2.7-4.2c0,0.3-0.1,0.7-0.1,1.1c1.1,0.6,1.9,1.8,1.8,3.1c-0.1,0.9-0.5,1.7-1.2,2.2
			c0,0,0,0,0,0c0.1,0.3,0.1,0.7,0.2,1C286.4,321.5,287.2,320.3,287.3,319z"/>
		<path class="st0" d="M288.4,319.1c0.2-2.5-1.3-4.8-3.7-5.6c0,0.2,0,0.3-0.1,0.5c2.1,0.8,3.4,2.8,3.2,5.1c-0.1,1.7-1.1,3.1-2.5,3.9
			c0,0.2,0.1,0.3,0.1,0.5C287.2,322.6,288.3,321,288.4,319.1z"/>
		<path class="st0" d="M324.9,327.5c-0.4,0-0.9-0.1-1.3-0.2c-0.8-0.2-1.6-0.4-2.5-0.4c-0.5,0-1.1,0-1.6,0c-0.3,0-0.7-0.1-0.9-0.4
			c-0.2-0.3-0.2-0.7-0.1-1l0,0c0.2-0.3,0.3-0.7,0.4-1.1c0.2-0.9,0.2-1.8,0.2-2.5c0-1,0.2-2,0.7-2.9c1-1.7,2.7-2.8,4.6-2.9
			c1.8-0.1,3.5,0.6,4.7,2c1.2,1.4,1.6,3.2,1.2,5c-0.5,2.3-2.5,4.1-4.9,4.4C325.4,327.5,325.1,327.5,324.9,327.5z M320.6,326.4
			c0.2,0,0.3,0,0.5,0c0.9,0,1.8,0.2,2.6,0.4c0.6,0.1,1.2,0.2,1.8,0.1c2.2-0.2,4-1.9,4.5-4c0.4-1.6-0.1-3.3-1.1-4.5
			c-1.1-1.3-2.6-1.9-4.3-1.8c-1.7,0.1-3.3,1.1-4.2,2.7c-0.5,0.8-0.7,1.7-0.7,2.6c0,0.8,0,1.8-0.2,2.7c-0.1,0.5-0.3,0.9-0.4,1.2l0,0
			c-0.1,0.2-0.1,0.4,0,0.5c0.1,0.1,0.3,0.2,0.4,0.2C319.9,326.5,320.3,326.4,320.6,326.4z"/>
		<path class="st0" d="M325,326.1c-0.1,0-0.3,0-0.4,0c-2.4-0.2-4.3-2.4-4.1-4.8c0.2-2.4,2.4-4.3,4.8-4.1c1.2,0.1,2.3,0.7,3,1.6
			c0.8,0.9,1.1,2.1,1,3.3l0,0C329.2,324.3,327.2,326.1,325,326.1z M324.9,318.2c-1.8,0-3.3,1.4-3.5,3.2c-0.2,1.9,1.3,3.6,3.2,3.8
			c1.9,0.2,3.6-1.3,3.8-3.2v0c0.2-1.9-1.3-3.6-3.2-3.8C325.1,318.2,325,318.2,324.9,318.2z"/>
		<path class="st0" d="M350.1,278.5c-0.2,2.2-0.7,4.4-1.4,6.4c-0.7,2-1.6,4-2.7,5.4c-1.1,1.5-2.5,2.4-3.8,2.6
			c-1.3,0.4-2.8-0.1-4.3-0.5l-0.4-0.1c-2.4-0.7-4.9,0.8-5.6,3.3s0.8,5,3.2,5.7c0.4,0.1,0.8,0.2,1.3,0.2l2.2,0c0.7,0,1.4,0,2.2-0.3
			c0.8-0.2,1.5-0.3,2.2-0.6c0.7-0.3,1.4-0.7,2.1-1c2.7-1.6,4.6-4.2,5.6-6.7c1-2.5,1.4-5,1.6-7.4c0.1-2.4,0-4.8-0.3-7.2
			c-0.1-0.5-0.6-0.9-1.1-0.8C350.4,277.7,350.1,278.1,350.1,278.5L350.1,278.5z"/>
		<path class="st0" d="M301.7,286.4c-0.1,0-0.3-0.1-0.4-0.1l-0.1,0c-1.8-0.4-3.7-0.9-5.4-1.8c-0.9-0.4-1.7-1-2.5-1.5
			c-0.8-0.6-1.6-1.2-2.3-2c-1.5-1.4-2.8-3.1-3.9-5c-1.1-1.9-2-4-2.5-6l0-0.1c-0.1-0.4-0.6-0.7-1-0.6c-0.4,0.1-0.6,0.4-0.6,0.8
			c-0.1,2.5,0.2,4.9,0.7,7.3c0.5,2.4,1.4,4.8,2.7,7.1c0.6,1.2,1.3,2.2,2.1,3.3c0.8,1,1.7,2.1,2.7,3c1.1,1.1,2.4,2.1,3.7,3
			C296.4,291.2,298.7,288.5,301.7,286.4z"/>
		<path class="st0" d="M342.4,351c-0.4-1.7-1.1-3.3-1.8-4.9c-1.4,4-3.2,7.9-5.7,11.3c-0.4,1.9-0.9,3.8-1.6,5.7
			c1.2-0.7,2.4-1.4,3.5-2.3c1.7-1.3,3.3-2.8,4.8-4.4C341.6,354.8,341.8,353,342.4,351z"/>
		<path class="st0" d="M325.8,400.9c-0.1,0-0.3,0-0.4,0.1c-0.8,0.2-1.4,0.8-1.8,1.7c-0.4,1-0.5,2.1-0.2,3.3c0.6,2.3,2.4,3.9,4.1,3.4
			c0.8-0.2,1.4-0.8,1.8-1.7c0.4-1,0.5-2.1,0.2-3.3C329,402.3,327.4,400.8,325.8,400.9z"/>
		<path class="st0" d="M331.2,404c0.4,1.5,0.3,3.1-0.3,4.4c0,0,0,0.1,0,0.1c0.7-0.2,1.2-0.8,1.6-1.6c0.4-1,0.5-2.1,0.2-3.3
			c-0.5-2.2-2.3-3.7-3.9-3.5C329.9,401,330.8,402.4,331.2,404z"/>
		<path class="st0" d="M343.8,363.6c-5.4,5-12.3,8.3-19.7,9.5c-1.1,0.2-2.1,0.3-3.2,0.4c-0.3,0-0.6,0-0.8,0c4.1,0.2,8.1-0.1,12-1.1
			c4.9-1.2,9.8-3.4,14.1-6.5C345.3,365.3,344.5,364.5,343.8,363.6z"/>
		<path class="st0" d="M349.5,370.5c-0.2-0.1-0.5-0.2-0.7-0.3l-0.7-0.3c-0.5-0.2-0.9-0.4-1.4-0.6c-0.2-0.1-0.5-0.2-0.7-0.3
			c-4,2.6-8.5,4.6-13.3,5.7c-2.3,0.6-4.6,0.9-6.9,1.1c-7.2,0.5-14.2-0.8-20.5-3.9c-2.1,0.2-4,0.4-5.7,0.4
			c14.3,12.5,35.3,11.7,49.6,1.2c0.8-0.6,1.6-1.2,2.4-1.9l-0.7-0.4C350.4,371,349.9,370.8,349.5,370.5z"/>
		<path class="st0" d="M267.5,358.3c2.2,0.3,4.1-0.2,4.1-0.2l0.1,0c1.3-0.3,2.2-0.9,2.7-1.8c0.9-1.7,0.5-4.7-1.1-8.4
			c-0.2,2.3-1.1,5.5-4.4,7.2c-1.9,1-3.9,0.8-5.6,0.2C264.4,356.9,265.8,358.1,267.5,358.3z"/>
		<path class="st0" d="M279.8,363.3C279.9,363.3,279.9,363.3,279.8,363.3c-1.2-1.7-2.4-3.6-3.5-5.6c-0.6,1-1.5,1.8-2.6,2.3
			c1.8,3,3.6,5.7,5.3,8c1.3-0.2,2.5-0.6,3.5-1C281.5,366.3,280.4,365,279.8,363.3z"/>
		<path class="st0" d="M299.3,386.6c-0.1-1.8-0.5-3.8-1.9-5.4c-2.2-2.7-7.7-6.5-13.2-12.6c-1.1,0.5-2.4,1-3.8,1.3
			C290.4,383.1,298.5,386.3,299.3,386.6z"/>
		<path class="st0" d="M337.6,410.3l-3.5-14.4c0.1,2,0,3.9-0.4,5.6c0.3,0.5,0.5,1.1,0.7,1.7c0.4,1.5,0.3,3.1-0.3,4.4
			c-0.6,1.4-1.7,2.3-3,2.7l-2.2,0.5c-0.1,0-0.2,0-0.3,0.1c0,0,0,0-0.1,0c-0.2,0.1-0.4,0.1-0.6,0.2c-0.2,0.1-0.4,0.1-0.7,0.1
			c-0.3,0-0.6,0-0.9,0c-1.6,0.9-3.4,1.6-5.6,2.3l1.6,6l11.5-2.8c1.4-0.3,2.5-1.2,3.2-2.4C337.7,413.1,337.9,411.7,337.6,410.3z"/>
		<path class="st0" d="M342.5,407.9c-1,0.1-1.9-0.2-2.7-0.9c-0.4-0.4-0.9-0.8-1.3-1.4l1,4.2c0.5,1.9,0.1,3.8-0.9,5.5
			c-0.1,0.1-0.1,0.2-0.2,0.2l2.4-0.6c0.2,0,0.4-0.1,0.6-0.2c1.1-0.4,2-1.1,2.7-2.2c0.1-0.2,0.2-0.4,0.3-0.6c0.5-1.1,0.6-2.3,0.4-3.4
			l0,0l-0.3-1.2c-0.6,0.1-1.1,0.2-1.7,0.3C342.8,407.9,342.7,407.9,342.5,407.9z"/>
		<path class="st0" d="M341.2,405.5c0.4,0.3,0.8,0.4,1.3,0.4c3.9-0.6,7.1-1.7,9.8-2.8c0.3-0.8,0.6-1.7,1-2.5c0-0.3-0.1-0.5-0.1-0.8
			c-0.1-0.4-0.2-0.7-0.2-1.1c-0.1-0.4-0.2-0.7-0.3-1.1l-0.4-1.1c-0.2-0.5-0.4-0.9-0.6-1.4c-0.4,0.2-0.9,0.4-1.3,0.6
			c0.1,3-1.8,5.8-4.7,6.7c-1.8,0.5-3.8,1-6,1.4C340.2,404.4,340.8,405,341.2,405.5z"/>
		<path class="st0" d="M350.4,392.3c-0.3-0.7-0.8-1.3-1.1-2l-0.5-0.8c0.5,1.3,0.9,2.7,1.3,4.1c0.3-0.1,0.6-0.3,0.8-0.4
			C350.7,392.9,350.6,392.6,350.4,392.3z"/>
		<path class="st0" d="M345.7,384.1c1.5,0.7,2.9,1.7,4,2.9c0.6,0.6,1.1,1.3,1.6,1.9c0.5,0.7,0.9,1.4,1.3,2.1c0.8,1.5,1.5,3,2,4.6
			l0.4,1.2c0.1,0.4,0.2,0.8,0.3,1.2c0.1,0.4,0.2,0.8,0.3,1.2c0.1,0.4,0.1,0.8,0.2,1.3l0,0.3l-0.1,0.3c-0.8,1.8-1.4,3.8-2,5.7
			c-0.1,0.5-0.2,0.9-0.3,1.4c-0.1,0.4-0.1,0.9,0,1.2c0,0.1,0,0.1,0.1,0.2c0,0,0,0.1,0.1,0.1c0,0.1,0.1,0.1,0.2,0.2
			c0.1,0.1,0.2,0.1,0.3,0.1c0.1,0,0.2,0,0.3,0c0.1,0,0.1,0,0.1,0c0,0,0.1,0,0.1,0c0.3,0,0.8-0.2,1.4-0.3c0.3-0.1,0.6-0.1,1-0.2
			c0.4,0,0.8,0,1.3,0.1c0.5,0.2,0.9,0.6,1.2,1c0.3,0.4,0.4,0.8,0.4,1.1c0.1,0.3,0.1,0.7,0.1,1l0,0.4l0,0.3c0.1,0.9,0.3,1.8,0.7,2.5
			c0.2,0.3,0.4,0.6,0.7,0.9c0.1,0.1,0.3,0.2,0.5,0.3c0.1,0,0.2,0.1,0.3,0.1c0.1,0,0.2,0.1,0.3,0.1c0.4,0.1,0.8,0.2,1.2,0.2
			c0.4,0,0.9,0,1.3-0.1c0.9-0.2,1.8-0.5,2.6-0.9c1.3-0.7,2.5-1.6,3.4-2.6c-4.1,3.1-9.4,3.7-9.6-2.8c-0.1-3.9-1.8-3.1-3.3-3.2
			c-1.5-0.1-2.4,0.3-2.4-2.9c0-1.5,2-3.9,1.6-6.5c0,0,0.2-10.4-8.6-16.4c-1.4-1-3.3,0.2-3.1,1.8C345.5,384.1,345.6,384,345.7,384.1z
			"/>
		<path class="st0" d="M363.4,420.1c-0.6,0-1.3-0.1-1.9-0.3c-1.2-0.4-2.4-1.3-3-2.4c-0.7-1.1-0.9-2.4-1-3.5l0-0.8
			c0-0.2,0-0.4-0.1-0.6c0-0.2-0.1-0.3-0.1-0.4c0,0,0,0,0,0c0,0-0.1,0-0.3,0c-0.2,0-0.4,0.1-0.6,0.1c-0.5,0.1-1,0.3-1.7,0.4
			c-0.1,0-0.2,0-0.3,0c-0.1,0-0.2,0-0.3,0c-0.2,0-0.3,0-0.5-0.1c-0.4-0.1-0.7-0.2-1.1-0.4c-0.4-0.2-0.7-0.6-0.9-0.9
			c-0.1-0.2-0.2-0.4-0.3-0.6c-0.1-0.2-0.1-0.4-0.1-0.5c-0.1-0.7-0.1-1.4,0-1.9c0.1-0.6,0.2-1.2,0.3-1.7c0.1-0.3,0.1-0.5,0.2-0.8
			c-0.4,0.1-0.8,0.3-1.1,0.4c-0.4,1.3-0.8,2.6-1,3.4c-0.9,3.4,0.3,4.3,1.8,4.4c1.5,0.1,4.3-2.1,4.4,1.9c0.2,6.5,5.7,6.7,10,4.2
			c-0.1,0-0.3,0.1-0.4,0.1C364.6,420.1,364,420.1,363.4,420.1z"/>
		<path class="st0" d="M373.7,395c-0.1,0.3-0.2,0.7-0.4,1c0.2,0.6,0.4,1.2,0.5,1.8c0.2,1,0.5,2.1,0.7,3.2c0.4,2.1,0.6,4.3,0.5,6.5
			l-0.1,1.7l-0.2,1c1.1-1.1,1.9-2.3,2.2-3.6c0.7-3.7-0.7-9.8-3-16.2C374.2,392.2,374.1,393.7,373.7,395z"/>
		<path class="st0" d="M348,436.4c-0.2,0.3-0.4,0.7-0.7,1c1.3,0.7,2.5,1.7,3.6,2.6c-0.5-0.7-0.8-1.1-0.9-1.2
			C349.2,437.8,348.6,437,348,436.4z"/>
		<path class="st0" d="M345.3,434.2c-1-0.7-2-1.5-3-2.8c-0.6,0.3-1.3,0.5-1.9,0.7c-1,0.3-2,0.4-2.9,0.5c-1,0.1-2,0.1-3,0.1
			c-1,0-2-0.1-2.9-0.4c-0.1,0-0.1-0.1-0.1-0.2c0-0.1,0.1-0.1,0.1-0.1l0,0c1.9-0.3,3.8-0.7,5.5-1.2c0.5-0.1,0.9-0.3,1.3-0.4l0.7-0.2
			c0.2-0.1,0.4-0.1,0.7-0.2c0.4-0.1,0.8-0.2,1.2-0.4l0-0.1l1.5-0.5c2.3-0.8,3.7-1.7,3.7-1.7l0.9-0.6l0.7,0.9
			c0.9,1.3,1.9,2.4,2.8,3.4c-1-2.9-1-5.7-0.7-7.6c0.1-0.8-0.8-1.3-1.4-0.7c-7.8,6.7-19.2,4.1-20,8.5c-0.8,4.3,7,3.8,14.3,4.6
			c1.1,0.1,2.1,0.4,3,0.8c0.3-0.4,0.7-0.9,1-1.4C346.2,434.9,345.8,434.5,345.3,434.2z"/>
		<path class="st0" d="M350,438.8c-0.3-0.3-0.5-0.6-0.7-0.9c1.4,2,3.7,5.9,5.4,11.2c1.4,4.4-1.1,13.2-9.5,11.1c-2-0.5-3.4-2.7-4.2-5
			c-0.7-1.7,0.2-3.6,2-4.3c8.3-3.3,7-6.8,7-6.8c-0.2,0.2-0.5,0.3-0.7,0.5c0,0,0,0,0.1,0.1c0,0.1,0,0.1,0,0.2
			c-0.2,0.2-0.4,0.4-0.6,0.6l-0.3,0.3l-0.4,0.3c-0.2,0.2-0.5,0.4-0.7,0.6l-0.8,0.5c-1,0.7-2.1,1.2-3.3,1.7c-1.1,0.5-2.3,0.8-3.5,1.1
			c-0.6,0.1-1.2,0.2-1.8,0.3c-0.2,0-0.3,0-0.5,0c0.9,4.6,2.9,9.8,6.2,11.8c1.7,1.1,3.7,1.2,6,0.4c3.4-1.2,5.6-3.1,6.4-5.7
			C358.2,449.4,350.3,439.2,350,438.8z"/>
		<path class="st0" d="M377,436.2c-0.5,0.4-0.9,0.8-1.4,1.1c-1,0.7-2.1,1.3-3.2,1.8c-1.1,0.5-2.3,0.9-3.5,1.2
			c-0.6,0.1-1.2,0.2-1.8,0.3c-0.2,0-0.3,0-0.5,0c0.6,3.2,2.4,9.5,6.2,11.7c1.7,1,3.6,1.1,5.8,0.4c3.6-1.2,5.8-3.3,6.6-6.2
			c1.6-6.3-4-15-6.1-17.3c-0.1-0.2-0.3-0.3-0.5-0.5c1.4,2.1,3.6,5.9,5.3,11c1.4,4.4-1.8,12.9-9,10.8c-1.9-0.6-3.1-2.2-4-3.9
			c-0.8-1.6,0.1-3.6,1.9-4.2c8.2-2.9,6.1-6.8,5.7-7.6c0,0,0,0,0,0C377.9,435.4,377.5,435.8,377,436.2z"/>
		<path class="st0" d="M348.8,364.4c-1.9-2.5-2.7-6.5-0.8-11.9l0-0.1c0,0,0,0,0,0c-1.2,0.1-2.3-0.2-2.9-1.4
			C342.8,358.2,345.2,362.9,348.8,364.4z"/>
		<path class="st0" d="M338.4,362.9c-5.3,3.9-11.6,6.3-18.1,6.7c-2,0.2-4.1,0.1-6.2-0.1c-0.7-0.1-1.4-0.2-2.2-0.3
			c-0.6,0.4-1.3,0.8-2,1.2c4.7,1.2,9.5,1.3,13.9,0.6c6.8-1.1,13.6-4.3,18.9-9.4c-0.3-0.6-0.5-1.2-0.7-1.9
			C340.9,360.9,339.7,361.9,338.4,362.9z"/>
		<path class="st0" d="M352.6,364.1c2.9,1.2,7.4-0.9,10.4-7.1c0.4-0.9,0.6-1.8,0.8-2.6c-4.2,4.2-11.6,5-13.4-1.1
			C348.3,359.3,350,363.1,352.6,364.1z"/>
		<path class="st0" d="M312.7,421.9l8-1.9l-1.6-6c-0.2,0.1-0.5,0.1-0.7,0.2c-5.7,1.5-9.7,1.6-12.6,1.2l0.6,2.7
			C307,420.8,309.8,422.5,312.7,421.9z"/>
	</g>
	<g>
		<path class="st0" d="M608.9,332.4c-0.2,2.6-0.6,5.1-1.2,7.6c-0.8,3.5-1.8,7-3.2,10.3c-5.9,14.5-17.1,26.9-32.5,33.8
			c-15.4,7-32.2,7.2-47,2c-3.2-1.1-6.4-2.6-9.4-4.2c-2.4-1.3-4.7-2.8-6.9-4.3c15.5-3.9,33.4-10.2,51.9-18.6
			C579.3,350.8,595.8,341.5,608.9,332.4z"/>
		<path class="st0" d="M606.4,308.1c-10.3,8.3-30.6,19.9-54.8,30.9c-24.2,11-46.4,18.5-59.4,20.7c-1.4-2.2-2.6-4.5-3.7-7
			c-0.1-0.1-0.1-0.2-0.2-0.3c-0.5-1.1-0.9-2.1-1.3-3.2c-1-2.5-1.8-5.1-2.4-7.7c0-0.1,0-0.2-0.1-0.3c-0.9-3.8-1.4-7.7-1.6-11.5
			c-0.3-7.3,0.6-14.6,2.7-21.5c0.7-2.4,1.6-4.7,2.6-7c1.2-2.6,2.5-5.2,4-7.7c1.3-2.1,2.7-4.2,4.3-6.1c0,0,0,0,0,0
			c0.6-0.8,1.2-1.5,1.9-2.3c5.8-6.6,13-12.1,21.5-16c1.2-0.5,2.4-1,3.6-1.5c16.1-6.1,33.2-5.2,48,1.3c0.1,0,0.2,0.1,0.3,0.1
			c1.4,0.6,2.7,1.3,4.1,2c4.9,2.6,9.4,5.9,13.4,9.7c2.5,2.4,4.9,5,7,7.9c0.2,0.3,0.5,0.6,0.7,0.9c0.2,0.3,0.4,0.5,0.6,0.8
			c1.5,2.2,2.9,4.5,4.2,6.9c0.5,0.9,0.9,1.8,1.4,2.7c0.1,0.3,0.2,0.5,0.3,0.8C604.7,303.1,605.6,305.6,606.4,308.1z"/>
		<path class="st0" d="M639.9,294.1c3.8,8.4-8.8,23.1-31,38.4c-13.2,9.1-29.7,18.3-48.2,26.7c-18.5,8.4-36.4,14.7-51.9,18.6
			c-26.2,6.6-45.4,6.4-49.2-2.1c-3.5-7.7,6.6-20.4,25.1-34.2c0.6,2.6,1.4,5.1,2.4,7.7c-5.1,4.2-7.6,7.5-6.8,9.4
			c0.9,2,5.2,2.2,11.9,1.1c13-2.2,35.1-9.8,59.4-20.7c24.2-11,44.5-22.6,54.8-30.9c5.3-4.3,7.9-7.7,7.1-9.7c-0.9-1.9-5-2.2-11.5-1.2
			c-1.3-2.4-2.7-4.7-4.2-6.9C620.2,285.5,636.5,286.4,639.9,294.1z"/>
	</g>
</g>
<g id="Soldermask">
	<g id="Planet_00000167386543202919470810000018015782014300891819_">
		<path d="M560.7,359.2c18.5-8.4,35.1-17.7,48.2-26.7c-0.2,2.6-0.6,5.1-1.2,7.6c-10.1,7.4-26.3,16.4-45.1,24.9
			c-18,8.2-34.8,14.1-47,17c-2.4-1.3-4.7-2.8-6.9-4.3C524.3,373.8,542.2,367.5,560.7,359.2z"/>
		<path d="M603.2,299.9c0.1,0.3,0.2,0.5,0.4,0.8c1.1,2.4,2,4.9,2.8,7.4c-10.3,8.3-30.6,19.9-54.8,30.9c-24.2,11-46.4,18.5-59.4,20.7
			c-1.4-2.2-2.6-4.5-3.7-7c-0.1-0.1-0.1-0.2-0.2-0.3c12.3-1.4,34.9-8.7,59.6-19.8C573.6,320.9,594.6,308.3,603.2,299.9z"/>
		<path d="M485.9,309.6l-0.4-2.9c9.7-1.4,26.6-7.2,44-15.1c18.2-8.2,34-17.3,41.2-23.8l1.9,2.2c-7.4,6.6-23.4,15.9-41.9,24.2
			C513,302.3,495.9,308.1,485.9,309.6z"/>
		<path d="M484.7,342.6c0,0-0.1,0-0.1,0l0-2.9c0,0,0.1,0,0.1,0c10,0,33.3-7.5,58.1-18.7c26-11.8,47.9-25.1,53.2-32.3l2.3,1.7
			c-5.6,7.7-27.5,21.1-54.4,33.2C518.9,335,495.1,342.6,484.7,342.6z"/>
		<path d="M483.2,366.3c-4.8,0-8.4-1-9.6-3.6c-1.7-3.8,2.3-9.6,11.8-17.1l1.4,1.7c-8.2,6.5-12.3,11.9-11.2,14.5
			c1.4,3.1,11.8,4.1,36.4-3.3c12.6-3.8,26.9-9.3,41.3-15.8c14.4-6.5,27.9-13.6,39.1-20.6c21.8-13.6,27.9-22,26.5-25.2
			c-1.2-2.6-8-3.1-18.3-1.2l-0.4-2.1c12-2.2,18.9-1.3,20.6,2.5c3.4,7.4-15.7,20.7-27.4,27.9c-11.3,7-24.9,14.2-39.4,20.7
			c-14.5,6.5-28.8,12-41.6,15.9C504.2,363.1,491.9,366.3,483.2,366.3z"/>
		<path d="M479.9,374.8c-7.8,0-12.8-1.8-14.4-5.4c-3.4-7.4,8.5-18.5,19.1-26.5l1.3,1.7c-13.6,10.3-20.5,19.3-18.4,23.9
			c2.6,5.9,18.9,5.5,42.4-1c14.4-4,30.6-9.9,46.8-17.3c16.2-7.3,31.4-15.5,43.9-23.7c20.4-13.4,31.4-25.4,28.8-31.2
			c-2.1-4.6-13.4-5.4-30.1-2l-0.4-2.1c13-2.6,29.2-4.2,32.5,3.2c3.2,7.1-7.6,19.5-29.6,33.9c-12.6,8.3-27.8,16.5-44.1,23.9
			c-16.3,7.4-32.6,13.4-47.1,17.4C498,373.1,487.6,374.8,479.9,374.8z"/>
		<path d="M483.8,331.1c-0.3,0-0.6,0-0.9,0l0.1-2.9c8.7,0.4,31.3-6.7,55-17.4c25-11.3,46-24.2,50.1-30.7l2.5,1.5
			c-4.4,7-25.5,20.1-51.4,31.8C515.6,324.1,493.6,331.1,483.8,331.1z"/>
		<path d="M525.2,387l-0.1-0.7l-0.3-0.7l0.1,0l0.1,0c8.6-0.6,24.9-5.9,41.6-13.4c16.8-7.6,31.1-16.1,37.4-22.2l1,1
			c-6.4,6.2-20.9,14.8-37.8,22.5C550.2,381.2,534,386.4,525.2,387z"/>
		<path d="M546.1,391.2c-13.5,0-26.9-4.2-38.1-12.4l-2.4-1.8l2.9-0.7c16-4,33.8-10.4,51.7-18.5c17.8-8.1,34.4-17.3,48-26.6l2.5-1.7
			l-0.3,3c-2.1,23.1-16.6,43.4-37.7,52.9C564.2,389.3,555.1,391.2,546.1,391.2z M512.2,378.3c17.6,11.5,40.1,13.4,59.3,4.7
			c19.3-8.7,32.7-26.8,35.7-47.6c-13.2,8.8-29,17.5-45.9,25.1C544.4,368.1,527.5,374.2,512.2,378.3z"/>
		<path d="M477.9,383.7c-10.5,0-17.4-2.5-19.6-7.5c-3.7-8.2,5.4-20.9,25.5-35.9l1.7-1.3l0.5,2.1c0.6,2.5,1.4,5.1,2.3,7.5l0.4,0.9
			l-0.8,0.6c-7.1,5.8-6.4,7.7-6.4,7.8c0,0.1,1,1.9,10.4,0.3c13.3-2.3,35.9-10.2,59-20.6c23.1-10.5,44-22.2,54.5-30.7
			c7.4-6,6.7-7.9,6.7-8c0-0.1-1-1.9-10-0.4l-1,0.2l-0.5-0.9c-1.2-2.3-2.6-4.6-4.1-6.7l-1.2-1.7l2.1-0.4c24.5-5.3,40.1-3.6,43.8,4.5
			l0,0c4,8.9-7.4,23.5-31.4,40.1c-13.7,9.4-30.4,18.7-48.4,26.8c-18,8.1-36,14.6-52.1,18.6C496.7,382.2,486.2,383.7,477.9,383.7z
			 M483.8,343.9c-17.3,13.2-25.9,24.8-23,31.2c3.3,7.3,21.6,7.8,47.6,1.3c16-4,33.8-10.4,51.7-18.5c17.8-8.1,34.4-17.3,48-26.6
			c22.1-15.2,33.8-29.3,30.5-36.6l0,0c-2.9-6.4-17.3-7.7-38.6-3.4c0.9,1.4,1.8,2.9,2.6,4.4c7.1-1.1,10.9-0.4,12.1,2.1
			c1.2,2.7-1.2,6.3-7.4,11.3c-10.8,8.8-31.4,20.4-55.1,31.1c-23.7,10.7-46,18.5-59.7,20.8c-8,1.4-12.2,0.8-13.4-1.9
			c-1.1-2.5,0.9-5.8,6.4-10.5C484.8,347.1,484.3,345.5,483.8,343.9z"/>
		<path d="M491.5,361.2l-0.5-0.8c-1.4-2.3-2.7-4.7-3.8-7.1c-0.5-1.2-1.1-2.4-1.5-3.7c-1-2.6-1.8-5.2-2.4-7.8
			c-7.3-30.1,7.9-61.1,36.2-73.9c28.2-12.8,61.6-3.7,79.4,21.7c1.6,2.2,3,4.6,4.3,7c0.6,1.2,1.2,2.3,1.7,3.5l0,0
			c1.1,2.5,2.1,5,2.9,7.5l0.3,0.9l-0.7,0.6c-10.8,8.8-31.4,20.4-55.1,31.1c-23.7,10.7-46,18.5-59.7,20.8L491.5,361.2z M546,265
			c-8.6,0-17.2,1.8-25.4,5.5c-27,12.2-41.5,41.9-34.6,70.7c0.6,2.5,1.4,5.1,2.3,7.5c0.4,1.2,0.9,2.3,1.5,3.5c0.9,2.1,2,4.1,3.1,6
			c13.4-2.5,35.5-10.3,58.1-20.5c22.6-10.2,43-21.7,53.7-30.1c-0.7-2.1-1.5-4.2-2.4-6.3l0,0c-0.5-1.2-1.1-2.3-1.7-3.4
			c-1.2-2.3-2.6-4.6-4.1-6.7C584.7,274.3,565.6,265,546,265z"/>
	</g>
	<g id="Nose_00000070832307504951814230000009448113358404275840_">
		<path d="M301,349.2c-0.6,0.1-1.1,0.2-1.7,0.4c-0.5,0.2-1.1,0.5-1.6,0.7c-0.5,0.3-1,0.6-1.5,0.9c-0.5,0.3-1,0.7-1.5,1.1
			c-0.2,0.2-0.2,0.4,0,0.6c0.1,0.1,0.2,0.1,0.3,0.1c0.6,0,1.2,0,1.8,0c0.6,0,1.2-0.1,1.8-0.2c0.6-0.1,1.1-0.2,1.7-0.4
			c0.6-0.2,1.1-0.4,1.6-0.7c0.7-0.4,0.9-1.3,0.5-1.9C302.1,349.4,301.6,349.2,301,349.2z"/>
		<path d="M280.6,349.8c0.4,0.4,1,0.7,1.5,0.9c0.5,0.2,1.1,0.5,1.6,0.7c0.6,0.2,1.1,0.4,1.7,0.5c0.6,0.1,1.2,0.3,1.8,0.3
			c0.2,0,0.4-0.1,0.5-0.4c0-0.1,0-0.2-0.1-0.3c-0.4-0.5-0.8-0.9-1.3-1.3c-0.4-0.4-0.9-0.8-1.4-1.1c-0.5-0.4-0.9-0.7-1.4-1
			c-0.5-0.3-1-0.6-1.6-0.7c-0.8-0.2-1.5,0.2-1.8,1C280,348.8,280.1,349.4,280.6,349.8z"/>
	</g>
	<path id="Moustache" d="M315.6,367.5c-0.1-0.2-0.2-0.3-0.4-0.2l-0.1,0c-2.9,0.6-5.8-0.7-8.7-1.6c-2.6-0.9-5.2-1.9-7.9-2.7
		c0,0,0,0,0,0c-0.3-0.1-0.7-0.2-1-0.3c-3-0.9-6.2-1.6-9.4-1.9c-2-0.2-4.1-0.1-6.1,0.5l0,0c-1.2,0.3-2.3,0.8-3.4,1.4
		c-0.2,0.1-0.2,0.4-0.1,0.5c0.1,0.1,0.2,0.2,0.4,0.2l0,0l1-0.1l0,0c0,0,0,0,0,0l0.7,0l0,0c1.8-0.1,3.5-0.1,5.2,0c0,0,0.1,0,0.1,0
		c0.7,0,1.3,0.1,2,0.1c3,0.2,6,0.9,8.9,1.7c3,0.8,5.9,1.7,9,2.5c0.2,0.1,0.4,0.1,0.6,0.1c0,0,0,0,0,0c1.3,0.3,2.7,0.6,4.1,0.8
		c0.2,0,0.5,0,0.7,0.1l0,0c1.4,0.1,2.8,0.1,4.2-0.5C315.6,368,315.7,367.7,315.6,367.5z"/>
</g>
<g id="Silkscreen">
	<g>
		<path class="st1" d="M317.8,158v-14.1h25.4V141h-19.8l-8.5-8.5v-14.1l8.5-8.5h31.1v14.1h-25.4v2.8h19.8l8.5,8.5v14.1l-8.5,8.5
			H317.8z"/>
		<path class="st1" d="M360.2,158v-48H394l8.5,8.5v14.1L394,141h-19.8V158H360.2z M388.4,126.9v-2.8h-14.1v2.8H388.4z"/>
		<path class="st1" d="M405.3,158v-39.5l8.5-8.5h25.4l8.5,8.5V158h-14.1V141h-14.1V158H405.3z M433.6,126.9v-2.8h-14.1v2.8H433.6z"
			/>
		<path class="st1" d="M459,158l-8.5-8.5v-31.1l8.5-8.5h33.9v14.1h-28.2v19.8h28.2V158H459z"/>
		<path class="st1" d="M495.7,158v-48H538v14.1h-28.2v2.8h16.9V141h-16.9v2.8H538V158H495.7z"/>
		<path class="st1" d="M331.9,190.2v-14.1l8.5-8.5h33.9v14.1H346v8.5H331.9z M331.9,195.8V193H346v2.8H331.9z M331.9,201.5v-2.8H346
			v2.8H331.9z M331.9,207.1v-2.8h42.4v2.8H331.9z M340.4,215.6l-2.8-2.8h36.7v2.8H340.4z"/>
		<path class="st1" d="M377.1,190.2v-14.1l8.5-8.5H411l8.5,8.5v14.1h-14.1v-8.5h-14.1v8.5H377.1z M377.1,195.8V193h14.1v2.8H377.1z
			 M377.1,201.5v-2.8h14.1v2.8H377.1z M377.1,207.1v-2.8h42.4v2.8H377.1z M385.6,215.6l-2.8-2.8h31.1l-2.8,2.8H385.6z M405.3,195.8
			V193h14.1v2.8H405.3z M405.3,201.5v-2.8h14.1v2.8H405.3z"/>
		<path class="st1" d="M422.3,190.2v-22.6h14.1v22.6H422.3z M422.3,195.8V193h14.1v2.8H422.3z M422.3,201.5v-2.8h14.1v2.8H422.3z
			 M422.3,207.1v-2.8h53.6v2.8H422.3z M430.7,215.6l-2.8-2.8h19.8l-2.8,2.8H430.7z M442,190.2v-22.6h14.1v22.6H442z M442,195.8V193
			h14.1v2.8H442z M442,201.5v-2.8h14.1v2.8H442z M453.3,215.6l-2.8-2.8h19.8l-2.8,2.8H453.3z M461.8,190.2v-22.6h14.1v22.6H461.8z
			 M461.8,195.8V193h14.1v2.8H461.8z M461.8,201.5v-2.8h14.1v2.8H461.8z"/>
		<path class="st1" d="M478.7,190.2v-14.1l8.5-8.5h31.1v14.1h-25.4v2.8h19.8l5.6,5.6H478.7z M484.4,195.8l-2.8-2.8h39.5v2.8H484.4z
			 M481.6,207.1v-2.8h39.5v2.8H481.6z M481.6,215.6v-2.8h33.9l-2.8,2.8H481.6z M507,201.5v-2.8h14.1v2.8H507z"/>
	</g>
	<g>
		<path class="st1" d="M430.8,413.9c0.2,0.6-0.9,1.7-2.7,2.7c-0.9,0.5-1.4,1.6-1.2,2.7c0.4,2.1,0.4,3.6-0.3,3.9
			c-0.6,0.2-1.7-0.9-2.7-2.7c-0.5-0.9-1.6-1.4-2.7-1.2c-2.1,0.4-3.6,0.4-3.9-0.3c-0.2-0.6,0.9-1.7,2.7-2.8c0.9-0.5,1.4-1.6,1.2-2.7
			c-0.4-2.1-0.4-3.6,0.3-3.9s1.7,0.9,2.7,2.7c0.5,0.9,1.6,1.4,2.7,1.2C429,413.1,430.6,413.2,430.8,413.9z"/>
		<path class="st1" d="M286.2,199c0-0.7,1.4-1.3,3.5-1.6c1.1-0.2,1.9-1,2.1-2.1c0.3-2.1,0.9-3.5,1.6-3.5s1.3,1.4,1.6,3.5
			c0.2,1.1,1,1.9,2.1,2.1c2.1,0.3,3.5,0.9,3.5,1.6c0,0.7-1.4,1.3-3.5,1.6c-1.1,0.2-1.9,1-2.1,2.1c-0.3,2.1-0.9,3.5-1.6,3.5
			s-1.3-1.4-1.6-3.5c-0.2-1.1-1-1.9-2.1-2.1C287.6,200.3,286.2,199.7,286.2,199z"/>
		<path class="st1" d="M552.9,225.1c0.2,0.6-0.9,1.7-2.7,2.7c-0.9,0.5-1.4,1.6-1.2,2.7c0.4,2.1,0.4,3.6-0.3,3.9
			c-0.6,0.2-1.7-0.9-2.7-2.7c-0.5-0.9-1.6-1.4-2.7-1.2c-2.1,0.4-3.6,0.4-3.9-0.3c-0.2-0.6,0.9-1.7,2.7-2.8c0.9-0.5,1.4-1.6,1.2-2.7
			c-0.4-2.1-0.4-3.6,0.3-3.9c0.6-0.2,1.7,0.9,2.7,2.7c0.5,0.9,1.6,1.4,2.7,1.2C551.1,224.3,552.6,224.4,552.9,225.1z"/>
		<path class="st1" d="M425.5,94.8c0.3,0.8-1.1,2.1-3.4,3.4c-1.2,0.7-1.8,2-1.5,3.3c0.5,2.6,0.4,4.5-0.4,4.8s-2.1-1.1-3.4-3.4
			c-0.7-1.2-2-1.8-3.3-1.5c-2.6,0.5-4.5,0.4-4.8-0.4c-0.3-0.8,1.1-2.1,3.4-3.4c1.2-0.7,1.8-2,1.5-3.3c-0.5-2.6-0.4-4.5,0.4-4.8
			c0.8-0.3,2.1,1.1,3.4,3.4c0.7,1.2,2,1.8,3.3,1.5C423.3,93.9,425.2,94,425.5,94.8z"/>
		<circle class="st1" cx="589.7" cy="251.7" r="2.3"/>
		<circle class="st1" cx="425.5" cy="357.2" r="2.3"/>
		<circle class="st1" cx="260.5" cy="212.6" r="2.3"/>
		<circle class="st1" cx="468.6" cy="97.9" r="2.3"/>
		<circle class="st1" cx="294.5" cy="174" r="2.3"/>
		<circle class="st1" cx="470.9" cy="421.4" r="2.3"/>
		<circle class="st1" cx="263.4" cy="249.4" r="1.2"/>
		<circle class="st1" cx="427.8" cy="329.4" r="1.2"/>
		<circle class="st1" cx="453.9" cy="377.4" r="1.2"/>
		<circle class="st1" cx="259.1" cy="158.1" r="1.2"/>
		<circle class="st1" cx="317.9" cy="234.1" r="1.2"/>
		<circle class="st1" cx="564" cy="185.6" r="1.2"/>
		<circle class="st1" cx="378.2" cy="319.4" r="1.2"/>
		<path class="st1" d="M248.6,263.6c0.4,0.6-0.4,1.9-1.9,3.4c-0.8,0.8-0.9,1.9-0.5,2.9c1,1.9,1.3,3.4,0.8,3.8
			c-0.6,0.4-1.9-0.4-3.4-1.9c-0.8-0.8-1.9-0.9-2.9-0.5c-1.9,1-3.4,1.3-3.8,0.8c-0.4-0.6,0.4-1.9,1.9-3.4c0.8-0.8,0.9-1.9,0.5-2.9
			c-1-1.9-1.3-3.4-0.8-3.8c0.6-0.4,1.9,0.4,3.4,1.9c0.8,0.8,1.9,0.9,2.9,0.4C246.7,263.4,248.2,263.1,248.6,263.6z"/>
		<circle class="st1" cx="365" cy="77.1" r="1.2"/>
	</g>
	<g id="WHITE_2_">
		<path class="st1" d="M311.6,422l9-2.2l-2.3-8.7c0-0.2-0.2-0.3-0.4-0.4l-4.1-1.4c-0.7-0.2-1.3-0.9-1.5-1.6l-2.9-11.9l-2.8,0.7
			c-1.4,0.3-2.5,1.2-3.2,2.4c-0.7,1.2-1,2.6-0.6,4l3.5,14.4c0.2,0.6,0.4,1.3,0.7,2C307.8,421,309.6,422.1,311.6,422z"/>
		<path class="st1" d="M379,429.3c-1.1-1.2-2.2-2.3-3.3-3.5c-2.9,7.6-12.3,10.3-17.3,11.2c2.2,1,4.5,1.5,6.9,1.5l1,0l0,0
			c0.2,0,0.4-0.1,0.6-0.1c0.6-0.1,1.1-0.2,1.7-0.3c1.1-0.2,2.2-0.4,3.3-0.8c1.1-0.3,2.2-0.7,3.2-1.2c0.5-0.2,1.1-0.5,1.6-0.7
			c0.5-0.2,1-0.5,1.6-0.8l0,0c0.1,0,0.2,0,0.2,0.1c0,0.1,0,0.1,0,0.2c-0.4,0.4-0.9,0.9-1.3,1.2c-0.5,0.4-0.9,0.8-1.4,1.1
			c-1,0.7-2.1,1.3-3.2,1.8c-1.1,0.5-2.3,0.9-3.5,1.2c-0.6,0.1-1.2,0.2-1.8,0.3c-0.2,0-0.3,0-0.5,0c0.6,3.2,2.4,9.5,6.2,11.7
			c1.7,1,3.6,1.1,5.8,0.4c3.6-1.2,5.8-3.3,6.6-6.2C386.7,440.3,381.1,431.6,379,429.3z"/>
		<path class="st1" d="M374.3,424.5c-2.2-2.2-4-4.2-5.4-5.9c-0.1,0.1-0.3,0.2-0.4,0.3c-1,0.5-2.1,0.9-3.3,1.1
			c-0.6,0.1-1.2,0.1-1.8,0.1c-0.6,0-1.3-0.1-1.9-0.3c-1.2-0.4-2.4-1.3-3-2.4c-0.7-1.1-0.9-2.4-1-3.5l0-0.8c0-0.2,0-0.4-0.1-0.6
			c0-0.2-0.1-0.3-0.1-0.4c0,0,0,0,0,0c0,0-0.1,0-0.3,0c-0.2,0-0.4,0.1-0.6,0.1c-0.5,0.1-1,0.3-1.7,0.4c-0.1,0-0.2,0-0.3,0
			c-0.1,0-0.2,0-0.3,0c-0.2,0-0.3,0-0.5-0.1c-0.4-0.1-0.7-0.2-1.1-0.4c-0.4-0.2-0.7-0.6-0.9-0.9c-0.1-0.2-0.2-0.4-0.3-0.6
			c-0.1-0.2-0.1-0.4-0.1-0.5c-0.1-0.7-0.1-1.4,0-1.9c0.1-0.6,0.2-1.2,0.3-1.7c0.1-0.3,0.2-0.7,0.2-0.8c-1.5,0.6-3.2,1.1-5,1.6
			l0.3,1.2c0.3,1.4,0.3,2.8-0.2,4.1c-0.2,0.5-0.4,0.9-0.7,1.4c-0.9,1.5-2.2,2.5-3.8,3.1c-0.2,0.1-0.5,0.1-0.7,0.2l-28.3,6.8
			c-0.2,0-0.4,0.1-0.6,0.1c-0.2,0-0.4,0.1-0.6,0.1c-0.1,0-0.1,0-0.2,0c0,0,0,0-0.1,0c-1.2,0.1-2.3-0.2-3.4-0.7
			c3.2,8,7.5,14.2,12.8,18.5c1.8,1.5,3.6,2.7,5.5,3.6c3.2-0.4,15.2-2.4,20-10.3c-0.5-0.4-0.9-0.7-1.3-1c-1-0.7-2-1.5-3-2.8
			c-0.6,0.3-1.3,0.5-1.9,0.7c-1,0.3-2,0.4-2.9,0.5c-1,0.1-2,0.1-3,0.1c-1,0-2-0.1-2.9-0.4c-0.1,0-0.1-0.1-0.1-0.2
			c0-0.1,0.1-0.1,0.1-0.1l0,0c1.9-0.3,3.8-0.7,5.5-1.2c0.5-0.1,0.9-0.3,1.3-0.4l0.7-0.2c0.2-0.1,0.4-0.1,0.7-0.2
			c0.4-0.1,0.8-0.2,1.2-0.4l0-0.1l1.5-0.5c2.3-0.8,3.7-1.7,3.7-1.7l0.9-0.6l0.7,0.9c2.6,3.6,5.3,6.3,8.2,8.1
			C359.1,435.3,371.7,433.1,374.3,424.5z"/>
		<path class="st1" d="M329.7,446.8c2.1,0.7,4.2,1.1,6.3,1.2l1,0l0,0l0.6-0.1c0.3,0,0.6-0.1,0.8-0.1c0.3,0,0.6-0.1,0.8-0.1
			c1.1-0.2,2.2-0.4,3.3-0.6c1.1-0.3,2.2-0.6,3.3-1l0.8-0.3c0.3-0.1,0.5-0.2,0.8-0.4l0.4-0.2l0.4-0.2l0.8-0.4l0,0
			c0.1,0,0.2,0,0.2,0.1c0,0.1,0,0.1,0,0.2c-0.2,0.2-0.4,0.4-0.6,0.6l-0.3,0.3l-0.4,0.3c-0.2,0.2-0.5,0.4-0.7,0.6l-0.8,0.5
			c-1,0.7-2.1,1.2-3.3,1.7c-1.1,0.5-2.3,0.8-3.5,1.1c-0.6,0.1-1.2,0.2-1.8,0.3c-0.2,0-0.3,0-0.5,0c0.9,4.6,2.9,9.8,6.2,11.8
			c1.7,1.1,3.7,1.2,6,0.4c3.4-1.2,5.6-3.1,6.4-5.7c2.2-7.2-5.7-17.4-6-17.8c-0.8-1-1.4-1.7-2-2.4
			C343.6,443.2,334.8,445.8,329.7,446.8z"/>
		<path class="st1" d="M339.8,397.2c0.5-0.1,1.3-0.3,2.2-0.6l-0.7-3c0,0,0,0,0,0c-0.1-0.3-0.2-0.6-0.3-0.9c0,0,0,0,0-0.1
			c-0.1-0.3-0.3-0.6-0.5-0.8c0,0,0,0,0,0c-0.6-0.8-1.3-1.4-2.2-1.7c0,0,0,0-0.1,0c-0.2-0.1-0.5-0.2-0.7-0.2c0,0-0.1,0-0.1,0
			c-0.2-0.1-0.4-0.1-0.7-0.1c0,0-0.1,0-0.1,0c-0.2,0-0.5,0-0.7,0c0,0,0,0-0.1,0c0,0-0.1,0-0.1,0c-0.3,0-0.5,0.1-0.8,0.1l-2.2,0.5
			c0,0,0,0,0,0c1.6,1,2.8,2.6,3.3,4.5l1.2,5c0-0.1,0.1-0.3,0.1-0.4C337.7,398.3,338.7,397.5,339.8,397.2z"/>
		<path class="st1" d="M342.5,407.9c-1,0.1-1.9-0.2-2.7-0.9c-0.4-0.4-0.9-0.8-1.3-1.4l1,4.2c0.5,1.9,0.1,3.8-0.9,5.5
			c-0.1,0.1-0.1,0.2-0.2,0.2l2.4-0.6c0.2,0,0.4-0.1,0.6-0.2c1.1-0.4,2-1.1,2.7-2.2c0.1-0.2,0.2-0.4,0.3-0.6c0.5-1.1,0.6-2.3,0.4-3.4
			l-0.3-1.2c-0.6,0.1-1.1,0.2-1.7,0.3C342.8,407.9,342.7,407.9,342.5,407.9z"/>
		<path class="st1" d="M354.5,395.4c0,0.1,0.1,0.2,0.1,0.3l0.4,1.2c0.1,0.4,0.2,0.8,0.3,1.2c0.1,0.4,0.2,0.8,0.3,1.2
			c0.1,0.4,0.1,0.8,0.2,1.3l0,0.3l-0.1,0.3c-0.8,1.8-1.4,3.8-2,5.7c-0.1,0.5-0.2,0.9-0.3,1.4c-0.1,0.4-0.1,0.9,0,1.2
			c0,0.1,0,0.1,0.1,0.2c0,0,0,0.1,0.1,0.1c0,0.1,0.1,0.1,0.2,0.2c0.1,0.1,0.2,0.1,0.3,0.1c0.1,0,0.2,0,0.3,0c0.1,0,0.1,0,0.1,0
			c0,0,0.1,0,0.1,0c0.3,0,0.8-0.2,1.4-0.3c0.3-0.1,0.6-0.1,1-0.2c0.4,0,0.8,0,1.3,0.1c0.5,0.2,0.9,0.6,1.2,1
			c0.3,0.4,0.4,0.8,0.4,1.1c0.1,0.3,0.1,0.7,0.1,1l0,0.4l0,0.3c0.1,0.9,0.3,1.8,0.7,2.5c0.2,0.3,0.4,0.6,0.7,0.9
			c0.1,0.1,0.3,0.2,0.5,0.3c0.1,0,0.2,0.1,0.3,0.1c0.1,0,0.2,0.1,0.3,0.1c0.4,0.1,0.8,0.2,1.2,0.2c0.4,0,0.9,0,1.3-0.1
			c0.9-0.2,1.8-0.5,2.6-0.9c0.1,0,0.2-0.1,0.2-0.1c0.7-0.4,1.4-0.8,2-1.3c0.8-0.7,1.4-1.4,1.9-2.2c0.2-0.4,0.4-0.8,0.5-1.2l0.4-1.4
			l0.2-1.4l0.1-1.5c0.1-2-0.1-4-0.5-6c-0.2-1-0.4-2-0.6-3c-0.3-1-0.5-2-0.9-2.9c-0.2-0.6-0.4-1.3-0.7-1.9
			C366.8,391.7,358.6,393.9,354.5,395.4z"/>
		<path class="st1" d="M349.4,396.1c-0.4,0.2-0.9,0.4-1.3,0.5c-0.2,0.1-0.3,0.1-0.5,0.2c-0.5,0.2-0.9,0.4-1.4,0.5
			c-0.1,0-0.2,0.1-0.3,0.1c-0.5,0.2-1.1,0.4-1.6,0.5c0,0,0,0,0,0c0,0,0,0,0,0c-0.7,0.2-1.4,0.4-2,0.6c0,0,0,0,0,0c0,0,0,0,0,0
			c0,0,0,0,0,0c-0.8,0.2-1.5,0.4-2.1,0.6c-0.5,0.1-0.9,0.5-1.1,0.9c-0.9,2.3,0.9,4.3,2,5.3c0.4,0.3,0.8,0.4,1.3,0.4
			c0.5-0.1,1.1-0.2,1.6-0.3c0.7-0.1,1.4-0.3,2-0.5c0,0,0,0,0,0c1.2-0.3,2.3-0.6,3.3-1c0,0,0.1,0,0.1,0c0.4-0.1,0.9-0.3,1.3-0.5
			c0.1,0,0.2-0.1,0.3-0.1c0.4-0.2,0.9-0.3,1.3-0.5c0.1-0.4,0.3-0.7,0.4-1.1c0,0,0,0,0,0l0,0c0.2-0.5,0.4-0.9,0.6-1.4
			c0-0.3-0.1-0.5-0.1-0.8c-0.1-0.4-0.2-0.7-0.2-1.1c-0.1-0.4-0.2-0.7-0.3-1.1l-0.4-1.1c-0.2-0.5-0.4-0.9-0.6-1.4
			c-0.6,0.3-1.2,0.6-1.8,0.8C349.8,396,349.6,396,349.4,396.1z"/>
		<path class="st1" d="M333.7,416.7c1.4-0.3,2.5-1.2,3.2-2.4c0.7-1.2,1-2.6,0.6-4l-3.6-15.1c-0.6-2.4-2.8-4.1-5.3-4l-17.6,4.2
			l2.9,11.9c0,0.2,0.2,0.3,0.4,0.4l4.1,1.4c0.7,0.2,1.3,0.8,1.5,1.6l2.3,8.7L333.7,416.7z M321.9,401.9c0.6-1.4,1.7-2.3,3-2.7
			c0.2,0,0.4-0.1,0.6-0.1c0.1-0.1,0.3-0.1,0.4-0.1l2.2-0.5c2.7-0.7,5.5,1.5,6.3,4.7c0.4,1.5,0.3,3.1-0.3,4.4c-0.6,1.4-1.7,2.3-3,2.7
			l-2.2,0.5c-0.1,0-0.2,0-0.3,0.1c0,0,0,0-0.1,0c-0.2,0.1-0.4,0.1-0.6,0.2c-0.2,0.1-0.4,0.1-0.7,0.1c-2.4,0.2-4.9-1.8-5.6-4.8
			C321.2,404.8,321.3,403.3,321.9,401.9z"/>
		<path class="st1" d="M352,363.9c0.1,0,0.1,0.1,0.2,0.1c0.1,0.1,0.2,0.1,0.3,0.2c0.5,0.2,1,0.3,1.6,0.3c1.1,0,2.3-0.3,3.5-1
			c1.9-1.1,3.8-3.2,5.3-6.4c1.3-3.2,1.4-5.8,1-7.7c-0.3-1.1-0.8-2-1.4-2.7c-0.4-0.5-0.9-0.8-1.5-1c-0.2-0.1-0.4-0.1-0.6-0.2
			c-3.1-0.8-7.3,1.6-10,8c-1.4,4.1-1.1,7.2,0.1,9C350.9,363,351.5,363.5,352,363.9z"/>
		<path class="st1" d="M348,352.4c3.2-7.7,8.8-10.5,13-9.5c0.4,0.1,0.7,0.2,1,0.3c0,0,0,0,0.1,0c-0.3-0.4-0.6-0.7-1-1
			c-0.6-0.5-1.2-0.9-1.8-1.1c-4.2-1.7-10.4,0.9-14,9.2c-2.6,7.4-0.4,12.3,3.1,14c0,0,0.1-0.1,0.1-0.1
			C346.8,361.6,346.1,357.7,348,352.4L348,352.4z"/>
		<path class="st1" d="M374.6,401.1c0.4,2.1,0.6,4.3,0.5,6.5l-0.1,1.7l-0.3,1.7l0.1-0.7c1.1-1.1,1.9-2.3,2.2-3.6
			c1.8-9.1-9.2-32.5-15.1-39.1c-0.8-0.9-2-1.4-3.3-1.6c-1.2,0.7-2.5,1-3.7,1.1c-0.1,0-0.2,0-0.3,0c-0.8,0.2-1.6,0.4-2.3,0.4
			c-1,0.1-2,0-2.9-0.2c0.1,0.2,0.2,0.4,0.3,0.6l0.2,0.1c0.2,0.1,0.5,0.3,0.7,0.4c0.5,0.3,0.9,0.5,1.4,0.8l1.4,0.8
			c0.5,0.3,0.9,0.6,1.4,0.9c0.4,0.3,0.9,0.6,1.3,0.9l1.3,1l0.6,0.5l0.6,0.5l1.2,1.1c0.2,0.2,0.4,0.4,0.6,0.5l0.6,0.6l1.2,1.1
			c0.4,0.4,0.7,0.8,1.1,1.2l1.1,1.2l1,1.3l1,1.3c0.3,0.4,0.6,0.9,0.9,1.3c0.2,0.2,0.3,0.4,0.5,0.7l0.4,0.7c0.3,0.5,0.6,0.9,0.8,1.4
			c0.5,0.9,1.1,1.9,1.5,2.8c0.5,1,0.9,1.9,1.4,2.9c0.4,1,0.8,2,1.1,3c0.4,1,0.6,2.1,0.9,3.1C374.2,399,374.4,400,374.6,401.1z"/>
		<path class="st1" d="M268.5,333.2C268.5,333.2,268.5,333.2,268.5,333.2l-1-4.1l11.5-12.9c0.7-0.8,0.9-2,0.5-3
			c-0.4-1-1.4-1.7-2.5-1.8l-17.3-1.2l-8.8-14.9c-0.6-1-1.6-1.5-2.7-1.4c0,0,0,0,0,0c-1.1,0.1-2,0.8-2.5,1.8l-6.5,16l-16.9,3.7
			c-1.1,0.2-1.9,1.1-2.2,2.1c-0.3,1.1,0.1,2.2,0.9,2.9l13.2,11.1l-1.7,17.2c-0.1,1.1,0.4,2.2,1.4,2.7c0.9,0.6,2.1,0.6,3.1,0
			l14.7-9.1l5.9,2.6c0,0,0,0,0,0c0-0.1,0-0.2,0-0.3c0.1-0.8,0.2-1.5,0.4-2.1l-6.5-2.8l-15.7,9.8c-0.2,0.2-0.5,0.1-0.6,0
			c-0.1-0.1-0.3-0.2-0.3-0.5l1.8-18.5l-14.2-11.9c-0.2-0.2-0.2-0.4-0.2-0.5c0-0.1,0.1-0.3,0.4-0.4l18.1-4l7-17.2
			c0.1-0.3,0.3-0.3,0.5-0.3c0,0,0,0,0,0c0.1,0,0.4,0,0.5,0.3l9.4,16l18.5,1.3c0.3,0,0.4,0.2,0.5,0.3c0,0.1,0.1,0.3-0.1,0.6
			l-12.3,13.9l1.4,5.5c0,0,0,0,0,0c0.1-0.1,0.2-0.1,0.3-0.2C267.3,333.6,267.9,333.4,268.5,333.2z"/>
		<path class="st1" d="M274.4,356.3c0.9-1.9,0.4-5.2-1.5-9.4c-0.4-0.9-0.8-1.5-1.1-2c0.4,3.3-0.8,5.2-2.3,5.9
			c-2.3,1-5.2-0.5-6.7-3.5c-1-2-1.6-3.9-1.6-5.7c-0.4,0.7-0.8,1.7-1,3.2c-0.4,4.2,2.6,12.9,7.4,13.5c2.2,0.3,4.1-0.2,4.1-0.2l0.1,0
			C273,357.8,273.9,357.3,274.4,356.3z"/>
		<path class="st1" d="M324.1,373.1c-1.1,0.2-2.1,0.3-3.2,0.4c-0.3,0-0.6,0-0.8,0c4.1,0.2,8.1-0.1,12-1.1c2.2-0.5,4.4-1.3,6.6-2.2
			c0.6-0.3,1.3-0.6,1.9-0.9c0.1-0.1,0.3-0.1,0.4-0.2c0.8-0.4,1.5-0.8,2.2-1.2c0.2-0.1,0.3-0.2,0.5-0.3c0.5-0.3,1.1-0.7,1.6-1
			c0.3-0.2,0.6-0.4,0.9-0.6c-0.2-0.1-0.4-0.3-0.5-0.4c-0.8-0.6-1.9-2-1.9-2C338.4,368.6,331.5,371.9,324.1,373.1z"/>
		<path class="st1" d="M366.9,387.2c-0.3-0.4-0.5-0.9-0.8-1.3l-0.4-0.6c-0.1-0.2-0.3-0.4-0.4-0.6c-0.3-0.4-0.6-0.8-0.9-1.3l-0.9-1.2
			l-0.9-1.2l-1-1.1c-0.3-0.4-0.7-0.8-1-1.1l-1.1-1.1l-0.5-0.5c-0.2-0.2-0.4-0.4-0.6-0.5l-1.2-1l-0.6-0.5l-0.6-0.5l-1.2-0.9
			c-0.4-0.3-0.8-0.6-1.3-0.9c-0.4-0.3-0.8-0.6-1.3-0.8l-1-0.6l-0.3-0.2c-0.4-0.3-0.9-0.5-1.4-0.7c-0.2-0.1-0.5-0.2-0.7-0.3l-0.7-0.3
			c-0.1,0-0.1-0.1-0.2-0.1c-0.4-0.2-0.8-0.4-1.2-0.5c-0.2-0.1-0.5-0.2-0.7-0.3c-0.2,0.1-0.3,0.2-0.5,0.3c-0.4,0.2-0.7,0.4-1.1,0.7
			c-0.3,0.2-0.7,0.4-1,0.6c-0.4,0.2-0.7,0.4-1.1,0.6c-0.2,0.1-0.5,0.3-0.7,0.4c-0.1,0-0.2,0.1-0.3,0.1c-0.4,0.2-0.8,0.4-1.2,0.6
			c-0.2,0.1-0.4,0.2-0.6,0.3l0,0c-2.2,0.9-4.5,1.7-6.9,2.3c-2.3,0.6-4.6,0.9-6.9,1.1c-7.2,0.5-14.2-0.8-20.5-3.9c0.1,0,0.2,0,0.2,0
			c0.4-0.1,0.9-0.2,1.3-0.3c0.6-0.2,1.3-0.4,1.9-0.6c0.4-0.2,0.8-0.4,1.2-0.6c4.7,1.2,9.5,1.3,13.9,0.6c6.8-1.1,13.6-4.3,18.9-9.4
			l0,0c-0.3-0.7-0.6-1.6-0.8-2.4c0,0.2,0.1,0.3,0.1,0.5c-1.1,1.1-2.4,2.2-3.7,3.1c-2,1.5-4.2,2.7-6.4,3.8c-3.7,1.7-7.7,2.7-11.7,3
			c-2,0.2-4.1,0.1-6.2-0.1c-0.7-0.1-1.4-0.2-2.2-0.3c0.3-0.2,0.7-0.4,1-0.7c0.8,0,1.7-0.2,2.5-0.5c0.2-0.1,0.3-0.3,0.2-0.5
			c1.9-0.2,3.6-0.5,5.2-1c0.9,0.1,1.7,0,2.6-0.3c4.9-1.8,8.6-5,11.5-8.9c2.5-3.4,4.3-7.3,5.7-11.3c2.8-8.2,3.6-16.9,3.8-22.6
			c0.6,0.3,1.3,0.5,2,0.7c0.9,0.3,2,0.5,3.1,0.7c1.8,4.7,2.6,9.5,2.2,14.3c0.6-0.3,1.2-0.5,1.8-0.7c0-0.1,0-0.1,0-0.2
			c0-0.5,0-1,0-1.5c0-0.2,0-0.5,0-0.7c0-0.7,0-1.4-0.1-2.2c0,0,0,0,0,0c0,0,0,0,0,0c-0.1-0.8-0.2-1.6-0.3-2.4c0-0.2-0.1-0.4-0.1-0.6
			c-0.1-0.6-0.2-1.3-0.4-1.9c0-0.1-0.1-0.3-0.1-0.4c-0.2-0.8-0.4-1.5-0.7-2.3c-0.1-0.2-0.1-0.4-0.2-0.5c-0.1-0.2-0.2-0.5-0.2-0.7
			c0.7,0,1.4,0,2.1-0.1c1,2.9,1.6,5.9,1.9,8.9c0.1,1.4,0.1,2.8,0,4.2c1.7-0.2,3.3,0,4.8,0.6c0.4,0.2,0.8,0.4,1.2,0.6
			c0.3-3.8,0.2-8-0.6-12.4c-0.4-1.3-0.8-2.5-1.2-3.7c0.7-0.4,1.4-0.9,2-1.4c7-5.6,10.3-17.9,8.7-19.2c-8.5-5.4-14.9-2-20.1,1.7
			c-0.7,0.5-1.3,1-2,1.5c-2.1-1.9-4.4-3.4-6.8-4.7c-0.3,0.1-0.5,0.1-0.8,0.2c-0.1,0-0.2,0-0.2,0.1c1,2.5,1.7,5.1,2.2,7.7l0.2,1.3
			l1.2-0.5c1.5-0.7,3.1-1.9,4.8-3.2c3.7-2.7,7.8-5.8,12.9-5.8c2.7,0,5.3,0.8,8,2.6c0.2,0.6,0,3.1-1.4,6.9
			c-0.9,2.4-4.4,10.5-10.7,12.8c-1.9,0.7-3.9,1.1-5.9,1.1c-2.4,0-4.8-0.5-7-1.5l-1.3-0.6l0,1.4c-0.4,10.5-3,35.6-20.3,42
			c-0.5,0.2-1.1,0.3-1.7,0.3c-0.2,0-0.4,0-0.7,0c-8.1-1.2-8.9-5.1-10.1-11.5c-0.6-3.1-1.3-6.5-2.9-10.3c-3.4-7.9-2.8-22.4,10.4-37.4
			c4.4-5,9.3-7.7,13.7-9.1c-0.1-0.5,0-1.1,0.1-1.7c0.6-2.5,3.1-4,5.6-3.3c-0.3-0.1-0.5-0.1-0.8-0.1c-8.2-10.8-21.2-10.2-21.2-10.2
			c-5.2-0.1-9.4,1.4-12.7,3.5c0,0,0,0,0,0c-0.1,0-0.1,0.1-0.2,0.1c-0.1,0-0.1,0.1-0.2,0.1c-0.2,0.2-0.5,0.3-0.7,0.5
			c-3,2.2-5.3,4.8-7.1,7.4c-3,4.4-4.3,8.3-4.3,8.3c-0.2,0.2-0.4,0.3-0.6,0.5c-2.1-1.1-3.9-3-5.8-5c-3.1-3.3-6.6-7-11.4-7.4
			c-1.7-0.1-3.4,0.1-5.3,0.8c-0.3,3.6,1.9,14.7,7.8,18c2,1.1,4.1,1.8,6.2,2l0,0c1.1,0.1,2.1,0.1,3,0c-0.9,2.8-1.2,6.3-0.3,10.5
			c0.1,0.3,0.1,0.5,0.2,0.8c0,0.1,0,0.2,0.1,0.4c0.5,3,0.7,5.8,0.6,8.3c-0.1,1.1-0.2,2.2-0.2,3.3c-0.4,4.2-1.2,7-1.2,7
			c-0.2,0.2-0.4,0.4-0.7,0.6c-0.1,0.1-0.2,0.2-0.3,0.2c0,0,0,0,0,0c-0.6,0.6-1.2,1.1-1.7,1.7c-1.6-1.9-3.2-3.9-4.8-6
			c-0.1-0.1-3.3-4-8.6-1.7c-2,0.9-3.3,2.1-3.9,3.6c-0.8,2.3,0.1,4.9,1,6.7c1,2,2.7,2.9,3.7,2.4c1.1-0.5,1.6-2.9,0-7.1
			c-0.2-0.6,0.1-1.3,0.7-1.5c0.6-0.2,1.3,0.1,1.5,0.7c0.1,0.2,0.1,0.3,0.2,0.5c1.1,0.3,2.7,1.4,4.2,4.7c1,2.1,1.6,4.1,1.9,5.8
			c-0.4,1.8-0.4,3.6-0.2,5.1c-0.1,0.2-0.1,0.4-0.2,0.6c-0.6,1.2-1.5,2-2.8,2.6c1.8,3,3.6,5.6,5.3,8c0.9-0.2,1.7-0.4,2.5-0.6
			c0.9,0.8,1.7,1.3,2,1.4c-1,0.4-2,0.7-3.2,1c10.6,13.9,18.9,16.8,19,16.8l0.8,0.3l0,0.8c0,0.1,0.2,4.1,1.2,10.5
			c0.1-0.1,0.1-0.2,0.2-0.3c1-1.7,2.6-2.8,4.5-3.3l22.5-5.4l5.8-1.4c0.1,0,0.3-0.1,0.4-0.1c0.1,0,0.2,0,0.3-0.1c0.1,0,0.2,0,0.3,0
			c0.2,0,0.3,0,0.5,0c0.1,0,0.1,0,0.2,0c0.2,0,0.4,0,0.5,0c0.1,0,0.1,0,0.2,0c0.2,0,0.4,0,0.5,0.1c0.1,0,0.2,0,0.2,0
			c0.2,0,0.3,0.1,0.5,0.1c0.1,0,0.3,0.1,0.4,0.1c0.1,0,0.2,0,0.2,0.1c0.4,0.2,0.9,0.4,1.3,0.6c0.4,0.3,0.8,0.5,1.1,0.9
			c0,0,0.1,0.1,0.1,0.1c0.1,0.1,0.3,0.3,0.4,0.4c0.1,0.1,0.2,0.2,0.2,0.3c0.1,0.1,0.1,0.2,0.2,0.2c0.1,0.1,0.2,0.3,0.3,0.4
			c0,0.1,0.1,0.1,0.1,0.2c0.1,0.2,0.2,0.3,0.3,0.5c0,0,0,0.1,0.1,0.1c0.2,0.4,0.4,0.9,0.5,1.4l0.7,2.9c0,0,0,0,0,0
			c0.5-0.2,1-0.3,1.6-0.5c0,0,0.1,0,0.1,0c0.5-0.2,1.1-0.4,1.6-0.6c0,0,0.1,0,0.1,0c0.5-0.2,1.1-0.5,1.7-0.7c0,0,0.1,0,0.1,0
			c0.6-0.3,1.2-0.5,1.8-0.8c-0.2-0.3-0.3-0.6-0.4-0.9c-0.3-0.7-0.8-1.3-1.1-2l-0.6-0.9c-0.2-0.3-0.4-0.6-0.7-0.9
			c-0.9-1.3-1.9-2.4-2.8-3.7l0,0c-0.1-0.2-0.1-0.4,0.1-0.6c0.1-0.1,0.3-0.1,0.4,0c1.5,0.7,2.9,1.7,4,2.9c0.6,0.6,1.1,1.3,1.6,1.9
			c0.5,0.7,0.9,1.4,1.3,2.1c0.4,0.7,0.7,1.4,1,2.1c2.9-1,10.2-3.3,15.1-2.4c-0.1-0.3-0.2-0.5-0.4-0.8
			C367.9,389,367.4,388.1,366.9,387.2z M282.7,310c-0.4,0-0.8,0-1.2-0.1c-2-0.2-4-0.8-5.8-1.8c-5.2-2.9-7.3-12.7-7.3-16.4
			c1.2-0.4,2.3-0.5,3.4-0.5c0.3,0,0.6,0,0.8,0c4.4,0.4,7.7,4,10.7,7.1c1.9,2,3.7,3.9,5.8,5.1c-1.6,1.6-3.2,3.7-4.3,6.5
			C284.1,309.9,283.4,310,282.7,310z M291,302.8l0.2-0.2l0.1-0.3c0-0.1,2.4-7.1,8-12.7c-7.7,14-9.4,26.2-9.4,34.3
			c0,5-1.6,9.9-4.5,13.8c0.7-3.8,1.2-10-0.2-16.6C283.5,313.7,285.5,307.5,291,302.8z M278.9,345.9c0.2-0.9,0.9-1.6,1.8-1.9
			c3.6-1.2,13.8-3.7,24,2.8c0.8,0.5,1.3,1.4,1.3,2.3c0,3-0.8,10-6.8,13.6c-0.2,0.1-0.4,0.2-0.6,0.3c0,0,0,0,0,0
			c-0.3-0.1-0.7-0.2-1-0.3c-3-0.9-6.2-1.6-9.4-1.9c-2-0.2-4.1-0.1-6.1,0.5l0,0c-1.3-1-2.3-2.5-2.7-4.2
			C278.5,354,277.9,350,278.9,345.9z M298.1,371.4c-10.1,0-13.8-3.2-13.8-3.2l-0.1-0.1l-0.1-0.1c-0.2-0.1-3.2-1.5-4.2-4.7
			c0.3,0,0.5,0,0.8,0c0,0,0,0,0,0l0,0c1.8-0.1,3.5-0.1,5.2,0c0,0,0.1,0,0.1,0c0.7,0,1.3,0.1,2,0.1c3,0.2,6,0.9,8.9,1.7
			c3,0.8,5.9,1.7,9,2.5c0.2,0.1,0.4,0.1,0.6,0.1c1.3,0.3,2.7,0.6,4.1,0.8c0.2,0,0.5,0,0.7,0.1c-1.8,1.2-3.9,2.2-5.9,2.4
			C302.8,371.3,300.4,371.4,298.1,371.4z"/>
		<path class="st1" d="M284.5,317.6c0.2,0.4,0.6,0.5,0.9,0.4c0.3-0.2,0.4-0.6,0.3-0.9c-0.2-0.4-0.6-0.5-0.9-0.4
			C284.5,316.8,284.4,317.3,284.5,317.6z"/>
		<path class="st1" d="M325.8,319.7c0,0.5,0.3,0.9,0.8,0.9c0.5,0,0.9-0.3,0.9-0.8c0-0.5-0.3-0.9-0.8-0.9
			C326.3,318.8,325.8,319.2,325.8,319.7z"/>
	</g>
	<g>
		<path class="st1" d="M483.8,331.1c-0.3,0-0.6,0-0.9,0l0.1-2.9c8.7,0.4,31.3-6.7,55-17.4c25-11.3,46-24.2,50.1-30.7l2.5,1.5
			c-4.4,7-25.5,20.1-51.4,31.8C515.6,324.1,493.6,331.1,483.8,331.1z"/>
		<path class="st1" d="M525.2,387l-0.1-0.7l-0.3-0.7l0.1,0l0.1,0c8.6-0.6,24.9-5.9,41.6-13.4c16.8-7.6,31.1-16.1,37.4-22.2l1,1
			c-6.4,6.2-20.9,14.8-37.8,22.5C550.2,381.2,534,386.4,525.2,387z"/>
		<path class="st1" d="M546.1,391.2c-13.5,0-26.9-4.2-38.1-12.4l-2.4-1.8l2.9-0.7c16-4,33.8-10.4,51.7-18.5
			c17.8-8.1,34.4-17.3,48-26.6l2.5-1.7l-0.3,3c-2.1,23.1-16.6,43.4-37.7,52.9C564.2,389.3,555.1,391.2,546.1,391.2z M512.2,378.3
			c17.6,11.5,40.1,13.4,59.3,4.7c19.3-8.7,32.7-26.8,35.7-47.6c-13.2,8.8-29,17.5-45.9,25.1C544.4,368.1,527.5,374.2,512.2,378.3z"
			/>
		<path class="st1" d="M477.9,383.7c-10.5,0-17.4-2.5-19.6-7.5c-3.7-8.2,5.4-20.9,25.5-35.9l1.7-1.3l0.5,2.1
			c0.6,2.5,1.4,5.1,2.3,7.5l0.4,0.9l-0.8,0.6c-7.1,5.8-6.4,7.7-6.4,7.8c0,0.1,1,1.9,10.4,0.3c13.3-2.3,35.9-10.2,59-20.6
			c23.1-10.5,44-22.2,54.5-30.7c7.4-6,6.7-7.9,6.7-8c0-0.1-1-1.9-10-0.4l-1,0.2l-0.5-0.9c-1.2-2.3-2.6-4.6-4.1-6.7l-1.2-1.7l2.1-0.4
			c24.5-5.3,40.1-3.6,43.8,4.5l0,0c4,8.9-7.4,23.5-31.4,40.1c-13.7,9.4-30.4,18.7-48.4,26.8c-18,8.1-36,14.6-52.1,18.6
			C496.7,382.2,486.2,383.7,477.9,383.7z M483.8,343.9c-17.3,13.2-25.9,24.8-23,31.2c3.3,7.3,21.6,7.8,47.6,1.3
			c16-4,33.8-10.4,51.7-18.5c17.8-8.1,34.4-17.3,48-26.6c22.1-15.2,33.8-29.3,30.5-36.6l0,0c-2.9-6.4-17.3-7.7-38.6-3.4
			c0.9,1.4,1.8,2.9,2.6,4.4c7.1-1.1,10.9-0.4,12.1,2.1c1.2,2.7-1.2,6.3-7.4,11.3c-10.8,8.8-31.4,20.4-55.1,31.1
			c-23.7,10.7-46,18.5-59.7,20.8c-8,1.4-12.2,0.8-13.4-1.9c-1.1-2.5,0.9-5.8,6.4-10.5C484.8,347.1,484.3,345.5,483.8,343.9z"/>
		<path class="st1" d="M491.5,361.2l-0.5-0.8c-1.4-2.3-2.7-4.7-3.8-7.1c-0.5-1.2-1.1-2.4-1.5-3.7c-1-2.6-1.8-5.2-2.4-7.8
			c-7.3-30.1,7.9-61.1,36.2-73.9c28.2-12.8,61.6-3.7,79.4,21.7c1.6,2.2,3,4.6,4.3,7c0.6,1.2,1.2,2.3,1.7,3.5l0,0
			c1.1,2.5,2.1,5,2.9,7.5l0.3,0.9l-0.7,0.6c-10.8,8.8-31.4,20.4-55.1,31.1c-23.7,10.7-46,18.5-59.7,20.8L491.5,361.2z M546,265
			c-8.6,0-17.2,1.8-25.4,5.5c-27,12.2-41.5,41.9-34.6,70.7c0.6,2.5,1.4,5.1,2.3,7.5c0.4,1.2,0.9,2.3,1.5,3.5c0.9,2.1,2,4.1,3.1,6
			c13.4-2.5,35.5-10.3,58.1-20.5c22.6-10.2,43-21.7,53.7-30.1c-0.7-2.1-1.5-4.2-2.4-6.3l0,0c-0.5-1.2-1.1-2.3-1.7-3.4
			c-1.2-2.3-2.6-4.6-4.1-6.7C584.7,274.3,565.6,265,546,265z"/>
	</g>
</g>
</svg>
